<svg width="328" height="295" viewBox="0 0 328 295" fill="none" xmlns="http://www.w3.org/2000/svg">
<rect width="327.5" height="295" rx="7" fill="white"/>
<rect width="327.5" height="295" rx="7" fill="#20AEE5" fill-opacity="0.05"/>
<circle cx="73.75" cy="29" r="7" fill="#20AEE5"/>
<g clip-path="url(#clip0_522_12529)">
<path d="M76.7081 26.375C76.6369 26.3748 76.5665 26.3893 76.5008 26.4176C76.4351 26.4459 76.3754 26.4874 76.3253 26.5398L72.7357 30.2665L71.1752 28.645C71.0736 28.5397 70.9359 28.4806 70.7924 28.4806C70.6488 28.4806 70.5112 28.5397 70.4096 28.645C70.3592 28.6973 70.3193 28.7593 70.292 28.8276C70.2648 28.8959 70.2507 28.969 70.2507 29.0429C70.2507 29.1169 70.2648 29.19 70.292 29.2583C70.3193 29.3266 70.3592 29.3886 70.4096 29.4409L72.3526 31.46C72.4544 31.5652 72.5919 31.6244 72.7354 31.6249C72.8066 31.625 72.877 31.6105 72.9427 31.5822C73.0084 31.5539 73.0681 31.5124 73.1183 31.46L77.0912 27.3356C77.1669 27.2569 77.2184 27.1567 77.2393 27.0476C77.2602 26.9385 77.2495 26.8254 77.2085 26.7227C77.1676 26.6199 77.0982 26.532 77.0092 26.4701C76.9202 26.4083 76.8155 26.3752 76.7083 26.375H76.7081Z" fill="white"/>
</g>
<path d="M90.382 29.4H89.486C90.222 30.696 90.846 31.432 91.95 32.344C91.854 32.472 91.79 32.568 91.742 32.632C91.406 33.08 91.406 33.08 90.99 33.864C90.046 32.92 89.614 32.36 89.07 31.336C88.862 32.152 88.638 32.76 88.254 33.512C87.726 34.52 87.326 35.064 86.462 35.864C85.998 35.192 85.79 34.968 85.198 34.472C86.174 33.64 86.654 33.032 87.086 32.024C87.406 31.272 87.614 30.504 87.758 29.4H87.038C86.478 29.4 85.966 29.432 85.534 29.496V27.688C85.966 27.752 86.398 27.784 86.958 27.784H87.87C87.902 27.08 87.918 26.6 87.934 25.704H87.118C86.654 25.704 86.254 25.736 85.774 25.784V24.088C86.222 24.152 86.622 24.184 87.198 24.184H87.95C87.95 22.616 87.95 22.36 87.854 21.768H89.71C89.63 22.296 89.63 22.296 89.614 24.184H90.174C90.734 24.184 91.118 24.168 91.566 24.104V25.784C91.134 25.72 90.798 25.704 90.318 25.704H89.598C89.582 26.616 89.566 26.952 89.518 27.784H90.238C90.782 27.784 91.198 27.768 91.63 27.704V29.48C91.198 29.416 90.862 29.4 90.382 29.4ZM95.774 31.448H94.958C94.798 32.904 94.574 33.56 94.014 34.36C93.39 35.208 92.702 35.736 91.182 36.488C90.67 35.768 90.446 35.528 89.934 35.096C92.206 34.376 93.134 33.4 93.358 31.448C92.91 31.448 92.478 31.464 92.094 31.496C92.126 31.096 92.142 30.6 92.142 29.912V23.736C92.142 23.064 92.126 22.52 92.078 22.152C92.446 22.2 92.894 22.216 93.614 22.216H97.646C98.51 22.216 98.782 22.2 99.198 22.152C99.15 22.6 99.134 23.048 99.134 23.768V29.976C99.134 30.632 99.15 31.016 99.198 31.512C99.006 31.48 98.958 31.48 98.734 31.48C98.622 31.48 98.51 31.48 98.414 31.48C98.03 31.464 97.774 31.448 97.742 31.448H97.374V34.216C97.374 34.504 97.502 34.568 98.014 34.568C98.686 34.568 98.734 34.44 98.814 32.344C99.326 32.696 99.694 32.888 100.302 33.064C100.142 35.864 99.886 36.168 97.774 36.168C96.302 36.168 95.774 35.864 95.774 35.016V31.448ZM93.774 23.768V24.84H97.502V23.768H93.774ZM93.774 26.28V27.352H97.502V26.28H93.774ZM93.774 28.792V29.912H97.502V28.792H93.774ZM107.342 32.52H103.454C102.974 32.52 102.526 32.536 102.286 32.568C102.318 32.056 102.334 31.688 102.334 31.016V23.656C102.334 22.984 102.318 22.664 102.27 22.168C102.67 22.216 103.214 22.232 103.678 22.232H107.166C107.742 22.232 108.19 22.216 108.542 22.168C108.51 22.504 108.494 23.064 108.494 23.56V31.08C108.494 31.672 108.51 32.344 108.542 32.568C108.318 32.536 107.79 32.52 107.342 32.52ZM103.998 23.768V25.208H106.878V23.768H103.998ZM103.998 26.584V28.008H106.878V26.584H103.998ZM103.998 29.4V31H106.878V29.4H103.998ZM103.646 32.632L105.182 33.4C104.254 34.904 103.934 35.288 102.59 36.392C102.142 35.864 101.918 35.672 101.262 35.208C102.478 34.392 103.006 33.816 103.646 32.632ZM105.87 33.4L107.294 32.664C108.174 33.88 108.398 34.104 109.502 34.984C108.878 35.448 108.654 35.656 108.158 36.152C107.15 35.224 106.734 34.712 105.87 33.4ZM109.934 22.696H111.806C111.742 23.224 111.71 23.8 111.71 24.632V30.632C111.71 31.512 111.726 32.072 111.79 32.536H109.95C109.998 32.12 110.03 31.512 110.03 30.664V24.632C110.03 23.848 109.998 23.144 109.934 22.696ZM115.262 23.992V34.296C115.262 35.736 114.766 36.12 112.894 36.12C112.526 36.12 111.87 36.104 111.262 36.088C111.134 35.384 111.006 34.984 110.718 34.344C111.454 34.424 112.19 34.472 112.766 34.472C113.39 34.472 113.55 34.376 113.55 33.992V23.992C113.55 23.064 113.534 22.68 113.438 21.816H115.374C115.294 22.456 115.262 23.08 115.262 23.992ZM124.894 24.824H126.254V23.224C126.254 22.552 126.222 22.056 126.142 21.528H128.078C127.998 22.072 127.966 22.52 127.966 23.224V24.824H129.838C130.686 24.824 131.198 24.792 131.598 24.728V26.504C131.07 26.44 130.478 26.408 129.854 26.408H127.966V29.208H129.566C130.382 29.208 130.846 29.192 131.294 29.128V30.856C130.878 30.792 130.318 30.76 129.55 30.76H127.966V34.152H130.142C130.926 34.152 131.55 34.12 132.014 34.056V35.864C131.454 35.784 130.878 35.752 130.142 35.752H123.71C122.958 35.752 122.382 35.784 121.822 35.864V34.056C122.27 34.12 122.926 34.152 123.71 34.152H126.254V30.76H124.814C124.126 30.76 123.454 30.792 123.038 30.856V29.128C123.15 29.144 123.182 29.144 123.294 29.16C122.638 28.696 122.638 28.696 121.854 28.264C122.254 27.688 122.43 27.352 122.702 26.664L121.774 27.112C121.518 25.896 121.422 25.592 121.038 24.728L122.11 24.216C122.398 24.824 122.638 25.512 122.846 26.248C123.246 25.048 123.534 23.512 123.534 22.552L125.246 22.872C125.198 23.048 125.182 23.128 125.134 23.448C125.086 23.752 124.974 24.408 124.894 24.824ZM126.254 26.408H124.51C124.206 27.448 123.886 28.232 123.358 29.16C123.71 29.192 124.062 29.208 124.574 29.208H126.254V26.408ZM118.43 29.288L117.15 28.808C117.566 27.336 117.71 26.232 117.726 24.648L119.022 24.808C118.926 26.776 118.782 27.96 118.43 29.288ZM121.102 36.328H119.182C119.262 35.736 119.294 35.064 119.294 34.312V23.176C119.294 22.472 119.262 22.024 119.182 21.48H121.102C121.038 22.024 121.006 22.456 121.006 23.176V34.44C121.006 35.256 121.038 35.752 121.102 36.328ZM141.998 24.744C141.694 27.256 141.134 29.464 140.334 31.272C139.422 33.336 138.398 34.28 137.086 34.28C135.262 34.28 133.95 32.424 133.95 29.848C133.95 28.088 134.574 26.44 135.71 25.192C137.054 23.72 138.942 22.952 141.214 22.952C145.054 22.952 147.55 25.288 147.55 28.888C147.55 31.656 146.11 33.864 143.662 34.856C142.894 35.176 142.27 35.336 141.15 35.528C140.878 34.68 140.686 34.328 140.174 33.656C141.646 33.464 142.606 33.208 143.358 32.776C144.75 32.008 145.582 30.488 145.582 28.776C145.582 27.24 144.894 25.992 143.614 25.224C143.118 24.936 142.702 24.808 141.998 24.744ZM140.046 24.76C139.214 24.856 138.638 25.08 137.982 25.544C136.638 26.504 135.806 28.152 135.806 29.864C135.806 31.176 136.366 32.216 137.07 32.216C137.598 32.216 138.142 31.544 138.718 30.168C139.326 28.728 139.854 26.568 140.046 24.76ZM158.75 25.608L160.558 26.12C160.494 26.248 160.494 26.248 160.366 26.584C160.206 27.032 160.19 27.048 160.142 27.192C160.798 27.352 161.262 27.576 161.806 27.976C162.83 28.744 163.326 29.736 163.326 31C163.326 32.744 162.382 34.104 160.574 35C159.63 35.464 158.718 35.704 157.31 35.848C157.134 35.16 156.99 34.872 156.462 34.04C157.758 34.024 158.574 33.848 159.518 33.4C160.798 32.792 161.39 32.008 161.39 30.904C161.39 29.896 160.734 29.08 159.598 28.696C158.718 30.6 157.966 31.752 156.814 32.952C155.374 34.472 153.95 35.256 152.622 35.256C151.134 35.256 150.126 34.12 150.126 32.456C150.126 31.144 150.686 29.88 151.71 28.872C152.35 28.248 152.942 27.848 153.902 27.432C153.902 26.92 153.934 26.28 153.966 25.512C153.79 25.512 152.926 25.496 151.374 25.448C151.214 25.448 151.102 25.448 151.07 25.448C151.022 25.448 150.878 25.448 150.702 25.464V23.672C151.422 23.832 152.366 23.912 153.694 23.912C153.71 23.912 153.726 23.912 154.046 23.912C154.062 23.592 154.062 23.592 154.11 22.952C154.126 22.744 154.142 22.344 154.142 22.04C154.142 21.976 154.142 21.912 154.11 21.784L156.094 21.88C155.966 22.312 155.902 22.728 155.806 23.848C158.366 23.704 160.638 23.384 161.87 23L161.95 24.84C161.726 24.856 161.662 24.856 161.326 24.904C159.566 25.192 156.974 25.432 155.694 25.464C155.646 26.152 155.63 26.664 155.614 27C156.478 26.824 156.846 26.792 157.822 26.792C158.014 26.792 158.142 26.792 158.43 26.824C158.606 26.312 158.702 25.976 158.75 25.608ZM153.934 29.256C153.23 29.72 152.958 29.96 152.638 30.36C152.158 30.984 151.918 31.64 151.918 32.312C151.918 33.032 152.27 33.48 152.83 33.48C153.278 33.48 153.71 33.288 154.222 32.872C154.014 31.832 153.934 30.808 153.934 29.256ZM155.742 31.672L155.774 31.688C155.838 31.592 155.838 31.592 155.95 31.464C156.702 30.616 157.342 29.592 157.934 28.264C157.758 28.248 157.678 28.248 157.518 28.248C156.814 28.248 156.238 28.328 155.598 28.536C155.614 30.008 155.614 30.168 155.71 31.288C155.726 31.384 155.726 31.384 155.726 31.496C155.726 31.576 155.726 31.592 155.742 31.672ZM171.054 28.36L171.086 28.392C172.542 27.816 173.246 27.656 174.446 27.656C177.182 27.656 178.942 29.064 178.942 31.256C178.942 32.776 178.19 33.992 176.766 34.792C175.726 35.384 174.366 35.704 172.894 35.704C171.55 35.704 170.43 35.448 169.79 34.968C169.182 34.52 168.83 33.848 168.83 33.128C168.83 31.8 169.982 30.84 171.582 30.84C172.702 30.84 173.678 31.304 174.35 32.152C174.67 32.552 174.846 32.904 175.086 33.592C176.414 33.096 176.99 32.408 176.99 31.272C176.99 30.024 175.758 29.208 173.822 29.208C171.486 29.208 169.15 30.152 167.23 31.896L166.142 30.168C166.702 29.896 167.342 29.464 168.398 28.664C169.886 27.528 171.966 25.736 173.182 24.504C173.214 24.472 173.374 24.312 173.47 24.216L173.454 24.2C172.846 24.28 171.822 24.344 168.926 24.472C168.574 24.488 168.462 24.504 168.158 24.552L168.078 22.632C168.622 22.696 169.086 22.728 169.966 22.728C171.326 22.728 173.278 22.648 174.83 22.536C175.39 22.488 175.566 22.456 175.822 22.328L176.814 23.736C176.542 23.88 176.43 23.976 175.982 24.392C175.182 25.128 174.014 26.168 173.47 26.632C173.182 26.872 172.03 27.736 171.71 27.944C171.31 28.216 171.31 28.216 171.054 28.36ZM173.358 34.056C173.07 32.952 172.462 32.376 171.566 32.376C170.99 32.376 170.622 32.664 170.622 33.112C170.622 33.752 171.342 34.12 172.526 34.12C172.83 34.12 172.91 34.12 173.358 34.056ZM193.838 23.176L194.926 24.216C194.782 24.488 194.734 24.6 194.654 24.936C193.854 27.992 192.91 29.912 191.374 31.64C189.806 33.4 188.094 34.568 185.422 35.72C184.974 34.856 184.766 34.552 184.014 33.816C185.422 33.368 186.334 32.952 187.518 32.184C190.014 30.568 191.582 28.312 192.366 25.208H184.75C183.678 25.208 183.31 25.224 182.734 25.304V23.224C183.358 23.32 183.694 23.336 184.782 23.336H192.126C193.022 23.336 193.342 23.304 193.838 23.176ZM203.278 27.88H205.246C205.198 28.152 205.182 28.28 205.15 28.984C205.134 29.272 205.134 29.4 205.118 29.56C206.494 28.952 207.358 28.248 208.046 27.112C208.046 27.096 208.062 27.064 208.094 27.016C208.126 26.968 208.142 26.952 208.174 26.888L208.158 26.872C208.03 26.904 207.854 26.904 207.71 26.904L201.374 26.936C200.51 26.936 200.206 26.952 199.678 27.016L199.662 25.192C200.174 25.272 200.622 25.304 201.374 25.304L208.174 25.288C209.022 25.288 209.166 25.272 209.55 25.16L210.446 26.248C210.254 26.504 210.254 26.504 209.966 27.112C209.486 28.104 208.798 29.016 208.03 29.704C207.534 30.168 207.134 30.44 206.35 30.888C205.87 30.264 205.678 30.072 205.118 29.64C205.054 30.936 204.83 31.88 204.398 32.728C203.694 34.2 202.542 35.112 200.43 35.944C200.062 35.176 199.886 34.936 199.278 34.312C201.022 33.8 202.11 33.048 202.702 31.928C203.118 31.144 203.31 30.008 203.31 28.472C203.31 28.216 203.31 28.136 203.278 27.88ZM224.974 22.008L226.814 23.288C226.542 23.528 226.462 23.592 226.222 23.848C225.022 25.096 223.822 26.136 222.446 27.144V33.976C222.446 34.856 222.462 35.32 222.526 35.752H220.286C220.366 35.288 220.382 34.968 220.382 34.024V28.392C218.51 29.512 217.614 29.928 214.67 30.984C214.334 30.152 214.158 29.88 213.598 29.16C216.766 28.296 219.454 26.968 221.998 25C223.422 23.896 224.51 22.792 224.974 22.008ZM231.681 22.488L233.857 22.6C233.793 23.048 233.793 23.048 233.697 26.184C233.585 29.304 233.233 31.112 232.401 32.76C231.857 33.864 231.249 34.68 230.193 35.72C229.569 34.92 229.329 34.68 228.577 34.168C229.361 33.528 229.745 33.096 230.225 32.328C231.377 30.488 231.745 28.424 231.745 23.944C231.745 23.064 231.745 22.92 231.681 22.488ZM235.921 22.376L238.097 22.408C238.017 22.872 238.001 23.144 237.985 23.928L237.905 33.032C239.025 32.504 239.665 32.024 240.353 31.208C241.089 30.344 241.553 29.464 241.921 28.28C242.481 29 242.689 29.208 243.425 29.784C242.769 31.368 241.937 32.568 240.881 33.512C239.969 34.296 239.137 34.776 237.473 35.432C237.121 35.56 236.993 35.624 236.785 35.72L235.761 34.632C235.873 34.168 235.889 33.816 235.905 32.936L235.985 23.912V23.432C235.985 23.032 235.969 22.68 235.921 22.376ZM248.353 26.568L249.681 25.624C250.721 26.36 250.753 26.376 251.681 27.224C252.801 26.312 253.377 25.72 254.417 24.456H250.209C248.961 25.8 247.665 26.792 245.889 27.784C245.617 27.24 245.345 26.92 244.801 26.44C247.425 25.16 249.537 23.24 250.481 21.272L252.369 21.736C251.953 22.344 251.809 22.536 251.537 22.904H254.817C255.425 22.904 255.809 22.888 256.225 22.824L257.169 23.832C256.977 24.072 256.961 24.088 256.593 24.568C255.201 26.392 253.665 27.864 251.777 29.192H256.961C257.601 29.192 257.921 29.176 258.305 29.128C258.241 29.56 258.225 29.976 258.225 30.6V34.712C258.225 35.352 258.257 35.88 258.321 36.296H256.497V35.432H250.385V36.296H248.529C248.593 35.816 248.625 35.288 248.625 34.712V31.24C247.649 31.784 247.025 32.072 245.585 32.68C245.313 31.992 245.089 31.656 244.561 31.08C245.937 30.632 247.249 30.072 248.401 29.448C248.913 29.16 249.441 28.824 250.305 28.248C249.633 27.544 249.185 27.16 248.353 26.568ZM250.369 30.76V33.912H256.513V30.76H250.369Z" fill="#20AEE5"/>
<path d="M30.154 48.682H30.042C29.678 48.682 29.37 48.696 29.02 48.752V47.828C29.356 47.87 29.692 47.898 30.112 47.898H34.55C35.026 47.898 35.278 47.884 35.6 47.842V48.71C35.04 48.682 34.984 48.682 34.592 48.682V58.636C34.592 59.252 34.62 59.742 34.676 60.078H33.626C33.682 59.672 33.71 59.182 33.71 58.622V56.984C32.828 57.25 31.736 57.53 29.846 57.936C29.566 57.992 29.356 58.048 29.16 58.118L28.88 57.124C29.174 57.124 29.384 57.096 30.154 56.97V48.682ZM31.036 48.682V50.754H33.71V48.682H31.036ZM31.036 51.482V53.596H33.71V51.482H31.036ZM31.036 54.338V56.802C32.114 56.592 32.66 56.466 33.71 56.172V54.338H31.036ZM36.398 48.85H40.262C40.626 48.85 40.976 48.836 41.312 48.794C41.284 48.934 41.228 49.312 41.186 49.592C40.836 51.986 40.108 54.072 38.96 55.99C39.758 57.152 40.57 57.908 41.998 58.79C41.788 59.028 41.62 59.294 41.452 59.7C40.01 58.692 39.268 57.978 38.428 56.774C37.532 58.006 36.664 58.846 35.362 59.714C35.194 59.364 35.04 59.112 34.802 58.874C36.146 58.076 37.042 57.264 37.938 55.99C36.902 54.17 36.384 52.462 36.048 49.662C35.614 49.676 35.488 49.69 35.222 49.732V48.78C35.572 48.836 35.88 48.85 36.398 48.85ZM40.276 49.662H36.902C37.07 51.048 37.182 51.664 37.434 52.588C37.7 53.554 38.036 54.38 38.456 55.178C39.394 53.554 39.898 52 40.276 49.662ZM44.798 54.114H48.41C48.914 54.114 49.25 54.1 49.642 54.044C49.6 54.24 49.586 54.422 49.558 54.772C49.446 56.424 49.138 58.09 48.802 58.846C48.536 59.448 48.046 59.672 47.038 59.672C46.352 59.672 45.568 59.616 44.7 59.504C44.658 59.042 44.616 58.874 44.504 58.496C45.498 58.706 46.296 58.804 47.01 58.804C47.556 58.804 47.822 58.678 47.962 58.384C48.242 57.796 48.424 56.788 48.62 54.912H44.756C44.364 54.912 44.042 54.926 43.706 54.954C44.126 53.414 44.35 52.154 44.392 51.076C44.742 51.118 45.092 51.132 45.596 51.132H48.564V48.864H45.12C44.63 48.864 44.21 48.892 43.776 48.948V47.954C44.14 48.01 44.602 48.038 45.134 48.038H48.284C48.704 48.038 49.124 48.024 49.516 47.982C49.488 48.332 49.474 48.64 49.474 49.06V50.936C49.474 51.412 49.488 51.706 49.516 51.972C49.124 51.944 48.704 51.93 48.312 51.93H45.232C45.092 52.826 44.966 53.414 44.798 54.114ZM52.876 47.632H54.01C53.926 48.136 53.912 48.444 53.912 48.99V58.286C53.912 58.944 53.94 59.35 54.01 59.91H52.876C52.946 59.336 52.974 58.916 52.974 58.272V48.99C52.974 48.444 52.946 48.15 52.876 47.632ZM59.498 55.626V52.868C59.498 52.56 59.484 52.322 59.456 52.042C59.75 52.07 60.058 52.084 60.45 52.084H63.488V49.802H60.198C59.484 50.992 58.812 51.818 57.874 52.658C57.65 52.336 57.51 52.196 57.202 51.986C58.588 50.81 59.344 49.788 60.002 48.22C60.184 47.814 60.282 47.492 60.352 47.198L61.346 47.478C61.29 47.59 61.248 47.688 61.164 47.856L60.632 48.99H67.576C68.192 48.99 68.486 48.976 68.836 48.92V49.872C68.486 49.816 68.15 49.802 67.576 49.802H64.412V52.084H66.946C67.52 52.084 67.828 52.07 68.192 52.014V52.938C67.828 52.896 67.492 52.882 66.96 52.882H64.412V55.626H67.94C68.57 55.626 68.962 55.598 69.354 55.542V56.55C68.948 56.494 68.514 56.466 67.94 56.466H64.412V58.776C64.412 59.378 64.44 59.714 64.51 60.078H63.404C63.474 59.728 63.488 59.42 63.488 58.776V56.466H58.434C57.86 56.466 57.426 56.494 57.02 56.55V55.542C57.426 55.598 57.818 55.626 58.434 55.626H59.498ZM60.408 55.626H63.488V52.882H60.408V55.626ZM80.638 55.43H74.142C74.016 56.242 73.834 56.942 73.568 57.6C73.204 58.524 72.812 59.14 72.028 60.036C71.776 59.714 71.58 59.518 71.258 59.294C72.126 58.426 72.574 57.684 72.91 56.55C73.302 55.22 73.456 53.498 73.456 50.39C73.456 49.102 73.442 48.542 73.4 48.01C73.904 48.066 74.268 48.08 74.87 48.08H80.134C80.75 48.08 81.114 48.066 81.59 48.01C81.548 48.388 81.534 48.738 81.534 49.452V58.664C81.534 59.168 81.408 59.462 81.142 59.644C80.918 59.784 80.652 59.826 80.022 59.826C79.56 59.826 78.972 59.812 78.342 59.77C78.3 59.406 78.244 59.182 78.118 58.818C78.818 58.916 79.448 58.958 80.12 58.958C80.526 58.958 80.638 58.874 80.638 58.524V55.43ZM74.24 54.59H80.638V52.098H74.394C74.38 52.868 74.352 53.4 74.24 54.59ZM74.394 51.258H80.638V48.934H74.408L74.394 50.922V51.258ZM86.7 58.37V49.466C86.7 48.906 86.686 48.5 86.63 48.094C87.078 48.15 87.484 48.164 88.128 48.164H94.428C95.072 48.164 95.464 48.15 95.87 48.094C95.814 48.5 95.8 48.85 95.8 49.382V58.356C95.8 59.028 95.828 59.42 95.884 59.854H94.862V58.944H87.638V59.854H86.616C86.672 59.434 86.7 59 86.7 58.37ZM87.638 49.018V52.938H94.862V49.018H87.638ZM87.638 53.792V58.09H94.862V53.792H87.638ZM110.416 54.156V58.496H109.408V54.156H105.11V53.176H109.408V49.004H110.416V53.176H114.714V54.156H110.416ZM123.478 48.682H123.366C123.002 48.682 122.694 48.696 122.344 48.752V47.828C122.68 47.87 123.016 47.898 123.436 47.898H127.874C128.35 47.898 128.602 47.884 128.924 47.842V48.71C128.364 48.682 128.308 48.682 127.916 48.682V58.636C127.916 59.252 127.944 59.742 128 60.078H126.95C127.006 59.672 127.034 59.182 127.034 58.622V56.984C126.152 57.25 125.06 57.53 123.17 57.936C122.89 57.992 122.68 58.048 122.484 58.118L122.204 57.124C122.498 57.124 122.708 57.096 123.478 56.97V48.682ZM124.36 48.682V50.754H127.034V48.682H124.36ZM124.36 51.482V53.596H127.034V51.482H124.36ZM124.36 54.338V56.802C125.438 56.592 125.984 56.466 127.034 56.172V54.338H124.36ZM129.722 48.85H133.586C133.95 48.85 134.3 48.836 134.636 48.794C134.608 48.934 134.552 49.312 134.51 49.592C134.16 51.986 133.432 54.072 132.284 55.99C133.082 57.152 133.894 57.908 135.322 58.79C135.112 59.028 134.944 59.294 134.776 59.7C133.334 58.692 132.592 57.978 131.752 56.774C130.856 58.006 129.988 58.846 128.686 59.714C128.518 59.364 128.364 59.112 128.126 58.874C129.47 58.076 130.366 57.264 131.262 55.99C130.226 54.17 129.708 52.462 129.372 49.662C128.938 49.676 128.812 49.69 128.546 49.732V48.78C128.896 48.836 129.204 48.85 129.722 48.85ZM133.6 49.662H130.226C130.394 51.048 130.506 51.664 130.758 52.588C131.024 53.554 131.36 54.38 131.78 55.178C132.718 53.554 133.222 52 133.6 49.662ZM138.122 54.114H141.734C142.238 54.114 142.574 54.1 142.966 54.044C142.924 54.24 142.91 54.422 142.882 54.772C142.77 56.424 142.462 58.09 142.126 58.846C141.86 59.448 141.37 59.672 140.362 59.672C139.676 59.672 138.892 59.616 138.024 59.504C137.982 59.042 137.94 58.874 137.828 58.496C138.822 58.706 139.62 58.804 140.334 58.804C140.88 58.804 141.146 58.678 141.286 58.384C141.566 57.796 141.748 56.788 141.944 54.912H138.08C137.688 54.912 137.366 54.926 137.03 54.954C137.45 53.414 137.674 52.154 137.716 51.076C138.066 51.118 138.416 51.132 138.92 51.132H141.888V48.864H138.444C137.954 48.864 137.534 48.892 137.1 48.948V47.954C137.464 48.01 137.926 48.038 138.458 48.038H141.608C142.028 48.038 142.448 48.024 142.84 47.982C142.812 48.332 142.798 48.64 142.798 49.06V50.936C142.798 51.412 142.812 51.706 142.84 51.972C142.448 51.944 142.028 51.93 141.636 51.93H138.556C138.416 52.826 138.29 53.414 138.122 54.114ZM146.2 47.632H147.334C147.25 48.136 147.236 48.444 147.236 48.99V58.286C147.236 58.944 147.264 59.35 147.334 59.91H146.2C146.27 59.336 146.298 58.916 146.298 58.272V48.99C146.298 48.444 146.27 48.15 146.2 47.632ZM156.112 50.6H153.116C152.64 51.384 152.248 51.888 151.59 52.602C151.31 52.294 151.156 52.168 150.848 51.986C151.646 51.258 152.164 50.572 152.654 49.62C152.99 48.948 153.214 48.262 153.312 47.646L154.306 47.912C154.208 48.136 154.138 48.318 154.04 48.584C153.844 49.102 153.746 49.354 153.55 49.774H156.112V48.668C156.112 48.192 156.084 47.842 156.028 47.436H157.106C157.05 47.828 157.022 48.178 157.022 48.668V49.774H160.368C160.956 49.774 161.348 49.746 161.712 49.69V50.684C161.334 50.628 160.928 50.6 160.368 50.6H157.022V53.092H161.376C162.006 53.092 162.426 53.064 162.804 53.008V54.002C162.384 53.946 161.978 53.918 161.376 53.918H158.436V58.58C158.436 58.944 158.618 59 159.78 59C160.97 59 161.334 58.916 161.516 58.594C161.698 58.258 161.782 57.614 161.782 56.508C162.09 56.69 162.3 56.774 162.692 56.886C162.594 58.104 162.482 58.692 162.272 59.098C161.95 59.714 161.446 59.854 159.626 59.854C157.946 59.854 157.526 59.658 157.526 58.888V53.918H155.426C155.356 55.43 155.244 55.99 154.852 56.872C154.39 57.88 153.69 58.636 152.542 59.322C152.038 59.63 151.618 59.84 150.82 60.162C150.708 59.938 150.638 59.826 150.554 59.714C150.344 59.434 150.344 59.434 150.246 59.28C151.604 58.86 152.472 58.37 153.186 57.67C153.816 57.04 154.208 56.242 154.376 55.248C154.432 54.926 154.46 54.562 154.488 53.918H151.926C151.324 53.918 150.904 53.946 150.484 54.002V53.008C150.862 53.064 151.296 53.092 151.926 53.092H156.112V50.6ZM175.74 54.156V58.496H174.732V54.156H170.434V53.176H174.732V49.004H175.74V53.176H180.038V54.156H175.74ZM188.802 48.682H188.69C188.326 48.682 188.018 48.696 187.668 48.752V47.828C188.004 47.87 188.34 47.898 188.76 47.898H193.198C193.674 47.898 193.926 47.884 194.248 47.842V48.71C193.688 48.682 193.632 48.682 193.24 48.682V58.636C193.24 59.252 193.268 59.742 193.324 60.078H192.274C192.33 59.672 192.358 59.182 192.358 58.622V56.984C191.476 57.25 190.384 57.53 188.494 57.936C188.214 57.992 188.004 58.048 187.808 58.118L187.528 57.124C187.822 57.124 188.032 57.096 188.802 56.97V48.682ZM189.684 48.682V50.754H192.358V48.682H189.684ZM189.684 51.482V53.596H192.358V51.482H189.684ZM189.684 54.338V56.802C190.762 56.592 191.308 56.466 192.358 56.172V54.338H189.684ZM195.046 48.85H198.91C199.274 48.85 199.624 48.836 199.96 48.794C199.932 48.934 199.876 49.312 199.834 49.592C199.484 51.986 198.756 54.072 197.608 55.99C198.406 57.152 199.218 57.908 200.646 58.79C200.436 59.028 200.268 59.294 200.1 59.7C198.658 58.692 197.916 57.978 197.076 56.774C196.18 58.006 195.312 58.846 194.01 59.714C193.842 59.364 193.688 59.112 193.45 58.874C194.794 58.076 195.69 57.264 196.586 55.99C195.55 54.17 195.032 52.462 194.696 49.662C194.262 49.676 194.136 49.69 193.87 49.732V48.78C194.22 48.836 194.528 48.85 195.046 48.85ZM198.924 49.662H195.55C195.718 51.048 195.83 51.664 196.082 52.588C196.348 53.554 196.684 54.38 197.104 55.178C198.042 53.554 198.546 52 198.924 49.662ZM203.446 54.114H207.058C207.562 54.114 207.898 54.1 208.29 54.044C208.248 54.24 208.234 54.422 208.206 54.772C208.094 56.424 207.786 58.09 207.45 58.846C207.184 59.448 206.694 59.672 205.686 59.672C205 59.672 204.216 59.616 203.348 59.504C203.306 59.042 203.264 58.874 203.152 58.496C204.146 58.706 204.944 58.804 205.658 58.804C206.204 58.804 206.47 58.678 206.61 58.384C206.89 57.796 207.072 56.788 207.268 54.912H203.404C203.012 54.912 202.69 54.926 202.354 54.954C202.774 53.414 202.998 52.154 203.04 51.076C203.39 51.118 203.74 51.132 204.244 51.132H207.212V48.864H203.768C203.278 48.864 202.858 48.892 202.424 48.948V47.954C202.788 48.01 203.25 48.038 203.782 48.038H206.932C207.352 48.038 207.772 48.024 208.164 47.982C208.136 48.332 208.122 48.64 208.122 49.06V50.936C208.122 51.412 208.136 51.706 208.164 51.972C207.772 51.944 207.352 51.93 206.96 51.93H203.88C203.74 52.826 203.614 53.414 203.446 54.114ZM211.524 47.632H212.658C212.574 48.136 212.56 48.444 212.56 48.99V58.286C212.56 58.944 212.588 59.35 212.658 59.91H211.524C211.594 59.336 211.622 58.916 211.622 58.272V48.99C211.622 48.444 211.594 48.15 211.524 47.632ZM221.324 52.238H219.812C219.238 52.238 218.888 52.252 218.51 52.308V51.468C217.628 52.056 216.998 52.392 215.962 52.826C215.78 52.476 215.696 52.35 215.374 52C218.104 50.964 220.134 49.438 221.282 47.562H222.36C222.948 48.472 223.704 49.242 224.866 50.096C226.042 50.95 227.092 51.496 228.52 51.972C228.282 52.266 228.114 52.546 227.96 52.868C226.868 52.42 226.294 52.112 225.23 51.44V52.308C224.866 52.252 224.53 52.238 223.942 52.238H222.234V54.142H226.14C226.756 54.142 227.12 54.114 227.512 54.058V55.038C227.106 54.982 226.714 54.954 226.14 54.954H222.234V58.65H226.336C226.952 58.65 227.428 58.622 227.862 58.566V59.574C227.4 59.504 226.896 59.476 226.322 59.476H217.502C216.956 59.476 216.452 59.504 215.906 59.574V58.566C216.368 58.622 216.858 58.65 217.502 58.65H221.324V54.954H217.684C217.152 54.954 216.718 54.982 216.326 55.038V54.058C216.718 54.114 217.11 54.142 217.698 54.142H221.324V52.238ZM219.798 51.468H223.942C224.53 51.468 224.866 51.454 225.174 51.412C223.732 50.46 222.724 49.536 221.828 48.346C220.96 49.564 220.022 50.46 218.608 51.412C218.888 51.454 219.252 51.468 219.798 51.468ZM217.74 55.752L218.538 55.388C219.056 56.228 219.35 56.858 219.77 57.922L218.958 58.244C218.608 57.264 218.258 56.522 217.74 55.752ZM225.09 55.416L225.972 55.78C225.328 57.082 225.09 57.488 224.474 58.384L223.69 58.062C224.278 57.292 224.698 56.494 225.09 55.416ZM230.732 58.65V56.536C230.732 56.242 230.718 55.962 230.704 55.654C230.424 55.822 230.256 55.92 229.78 56.158C229.654 55.85 229.528 55.654 229.304 55.444C230.494 54.94 231.502 54.324 232.328 53.568C231.894 53.176 231.614 52.854 231.25 52.364C230.9 52.784 230.508 53.176 230.018 53.582C229.85 53.33 229.682 53.148 229.472 52.98C230.396 52.294 230.914 51.706 231.474 50.768C231.74 50.334 231.866 50.04 231.95 49.704L232.762 49.942C232.692 50.054 232.692 50.054 232.524 50.376C232.454 50.516 232.412 50.586 232.328 50.74H233.812C234.148 50.74 234.414 50.712 234.624 50.67L235.1 51.16C234.974 51.328 234.974 51.328 234.778 51.65C234.232 52.532 233.938 52.938 233.406 53.526C234.134 54.058 234.792 54.422 235.912 54.87C235.744 55.108 235.646 55.29 235.534 55.64C234.442 55.136 233.7 54.688 232.888 54.044C232.342 54.548 231.922 54.884 231.124 55.402C231.334 55.416 231.446 55.416 231.726 55.416H233.896C234.4 55.416 234.638 55.402 234.89 55.36C234.848 55.668 234.834 56.018 234.834 56.592V57.838C234.834 58.776 234.834 58.776 234.862 59.07C234.722 59.056 234.386 59.056 233.826 59.042H231.544V59.924H230.676C230.704 59.63 230.732 59.196 230.732 58.65ZM234.036 51.44H231.908C231.838 51.566 231.796 51.608 231.684 51.79C232.118 52.392 232.342 52.63 232.832 53.064C233.35 52.518 233.63 52.14 234.036 51.44ZM231.544 56.13V58.314H234.036V56.13H231.544ZM232.37 48.808V48.36C232.37 47.954 232.342 47.716 232.286 47.422H233.308C233.238 47.716 233.224 47.94 233.224 48.374V48.808H234.624C235.268 48.808 235.534 48.794 235.758 48.766C235.73 49.004 235.716 49.228 235.716 49.606V50.068C235.716 50.362 235.73 50.712 235.758 50.866H234.96V49.536H230.592V51.048H229.738C229.78 50.796 229.794 50.558 229.794 50.25V49.634C229.794 49.354 229.78 49.102 229.738 48.766C229.948 48.794 230.242 48.808 230.886 48.808H232.37ZM238.586 48.626H237.046C236.402 48.626 236.024 48.654 235.674 48.71V47.758C236.066 47.828 236.346 47.842 237.046 47.842H240.798C241.484 47.842 241.862 47.814 242.17 47.758V48.71C241.736 48.64 241.456 48.626 240.798 48.626H239.454C239.286 49.2 239.146 49.606 238.908 50.152H240.308C240.952 50.152 241.302 50.138 241.568 50.096C241.54 50.488 241.526 50.81 241.526 51.37V56.004C241.526 56.578 241.54 56.914 241.568 57.348C241.148 57.32 240.798 57.306 240.364 57.306H237.312C236.892 57.306 236.542 57.32 236.108 57.348C236.136 56.928 236.15 56.536 236.15 56.074V51.426C236.15 50.852 236.136 50.418 236.094 50.11C236.43 50.138 236.724 50.152 237.312 50.152H238.068C238.292 49.592 238.446 49.144 238.586 48.626ZM236.962 50.908V52.252H240.7V50.908H236.962ZM236.962 52.994V54.38H240.7V52.994H236.962ZM236.962 55.122V56.564H240.7V55.122H236.962ZM239.174 58.048L239.818 57.53C240.7 58.356 241.302 58.762 242.562 59.35C242.324 59.602 242.142 59.84 241.988 60.134C240.756 59.476 240.07 58.958 239.174 58.048ZM237.536 57.516L238.222 58.048C237.284 59 236.556 59.518 235.296 60.134C235.142 59.854 234.946 59.644 234.708 59.42C235.968 58.902 236.668 58.426 237.536 57.516ZM247.756 49.578H247.98C248.442 48.598 248.61 48.108 248.652 47.66L249.772 47.856C249.646 48.038 249.646 48.038 249.408 48.612C249.226 49.06 249.044 49.438 248.974 49.564C249.142 49.55 249.142 49.55 249.268 49.55C251.508 49.438 252.908 49.27 253.678 49.018L253.762 49.97C253.538 49.984 253.454 49.998 253.202 50.04C251.746 50.236 250.276 50.348 248.582 50.404C248.162 51.23 247.812 51.79 247.322 52.392C247.182 52.56 246.902 52.882 246.846 52.924C246.748 52.994 246.678 53.05 246.664 53.064C246.664 53.078 246.65 53.078 246.65 53.078C246.65 53.092 246.65 53.092 246.65 53.092C246.664 53.12 246.664 53.12 246.678 53.134C247.182 52.742 247.182 52.742 247.322 52.644C247.966 52.196 248.708 51.958 249.436 51.958C250.472 51.958 251.102 52.476 251.284 53.512C252.306 53.106 253.104 52.812 253.72 52.588C254.406 52.35 254.448 52.336 254.672 52.182L255.12 53.162C254.392 53.288 253.132 53.708 251.382 54.394C251.41 54.758 251.41 54.898 251.41 55.248C251.41 55.43 251.41 55.738 251.396 56.018C251.382 56.326 251.382 56.522 251.382 56.648C251.382 56.844 251.382 56.956 251.41 57.152L250.458 57.166C250.5 56.858 250.542 56.004 250.542 55.15C250.542 54.926 250.542 54.898 250.528 54.73C248.624 55.626 247.896 56.284 247.896 57.124C247.896 58.048 248.764 58.454 250.738 58.454C252.124 58.454 253.678 58.23 254.476 57.908L254.602 58.986C254.392 59 254.322 59.014 254.042 59.056C252.936 59.238 251.718 59.336 250.64 59.336C248.134 59.336 246.916 58.622 246.916 57.18C246.916 56.41 247.392 55.682 248.344 54.968C248.82 54.618 249.492 54.254 250.43 53.848C250.318 53.078 249.982 52.742 249.324 52.742C248.442 52.742 247.336 53.26 246.202 54.226C245.656 54.688 245.348 55.01 245.124 55.388L244.34 54.604C245.306 53.862 246.468 52.392 247.476 50.6C247.518 50.53 247.518 50.53 247.602 50.39C247.546 50.404 247.406 50.418 247.336 50.418C247.112 50.418 245.796 50.39 245.278 50.376C245.208 50.376 245.096 50.376 245.054 50.376C244.928 50.376 244.9 50.376 244.746 50.39L244.76 49.424C245.264 49.522 246.328 49.578 247.756 49.578ZM268.126 51.524V58.524C268.126 59.448 267.832 59.672 266.572 59.672C266.026 59.672 265.494 59.644 264.878 59.588C264.822 59.196 264.766 58.986 264.612 58.636C265.466 58.762 265.886 58.804 266.53 58.804C267.104 58.804 267.23 58.734 267.23 58.44V51.524H262.834C262.246 51.524 261.7 51.552 261.336 51.608V50.628C261.7 50.684 262.218 50.712 262.792 50.712H267.23V49.102C267.23 48.444 267.202 47.87 267.132 47.464H268.21C268.154 47.94 268.126 48.416 268.126 49.102V50.712H268.812C269.372 50.712 269.778 50.684 270.142 50.628V51.58C269.708 51.538 269.26 51.524 268.812 51.524H268.126ZM260.552 50.656V58.356C260.552 59 260.58 59.532 260.622 60.022H259.572C259.628 59.518 259.656 59.056 259.656 58.328V53.652C259.656 53.036 259.67 52.602 259.712 51.958C259.138 52.924 258.816 53.358 258.144 54.114L258.046 53.96C257.864 53.666 257.864 53.666 257.528 53.344C258.774 52.028 259.572 50.824 260.342 49.074C260.706 48.248 260.888 47.716 260.958 47.282L261.966 47.604C261.868 47.772 261.798 47.94 261.616 48.402C261.42 48.892 260.972 49.858 260.552 50.656ZM262.26 53.274L262.988 52.77C264.01 53.89 264.542 54.604 265.354 55.934L264.57 56.536C263.856 55.192 263.184 54.268 262.26 53.274ZM276.134 52.014L276.148 51.034C276.68 51.16 277.492 51.216 278.528 51.216C279.088 51.216 279.606 51.188 280.306 51.132C280.236 48.696 280.208 48.29 280.138 47.87L281.216 47.856C281.188 48.08 281.174 48.164 281.174 48.332C281.174 48.43 281.174 48.5 281.188 48.752C281.202 49.074 281.202 49.074 281.272 51.02C282.336 50.866 282.98 50.684 283.498 50.432L283.568 51.44C283.274 51.496 283.246 51.496 282.826 51.608C282.294 51.734 281.86 51.818 281.3 51.888C281.314 52.266 281.314 52.49 281.314 52.896C281.314 55.556 281.062 56.704 280.236 57.824C279.718 58.51 279.116 59 278.038 59.63C277.758 59.266 277.646 59.154 277.282 58.874C278.262 58.398 278.92 57.908 279.424 57.264C280.138 56.354 280.362 55.332 280.362 53.092C280.362 52.7 280.362 52.392 280.334 51.986C279.718 52.042 278.906 52.07 278.29 52.07C277.898 52.07 277.1 52.042 276.596 52.014C276.47 52 276.4 52 276.344 52C276.302 52 276.232 52 276.134 52.014ZM273.614 48.038L274.72 48.206C274.272 49.536 273.866 52.406 273.866 54.31C273.866 55.08 273.922 56.116 273.978 56.592C274.034 56.9 274.062 57.194 274.062 57.348C274.342 56.354 274.44 56.102 275.238 54.38L275.952 54.716C275.546 55.542 275.196 56.41 274.916 57.166C274.636 57.992 274.524 58.468 274.524 58.944L273.558 59.028C273.53 58.846 273.516 58.804 273.446 58.538C273.096 57.222 272.928 55.864 272.928 54.394C272.928 52.742 273.054 51.594 273.488 49.004C273.586 48.43 273.6 48.29 273.614 48.038ZM287.849 49.62L287.793 48.57C288.185 48.64 288.437 48.654 289.109 48.654C290.271 48.654 292.133 48.57 293.393 48.472C293.757 48.444 293.883 48.416 294.065 48.318L294.653 49.088C294.457 49.186 294.387 49.242 293.939 49.676C292.007 51.566 290.313 53.022 289.333 53.652L289.361 53.694C290.425 53.12 291.559 52.826 292.791 52.826C295.129 52.826 296.627 53.974 296.627 55.766C296.627 57.95 294.597 59.392 291.489 59.392C289.515 59.392 288.381 58.664 288.381 57.376C288.381 56.438 289.249 55.738 290.411 55.738C291.349 55.738 292.161 56.144 292.721 56.886C293.015 57.278 293.169 57.614 293.365 58.23C294.835 57.824 295.605 56.97 295.605 55.78C295.605 54.436 294.485 53.638 292.595 53.638C290.537 53.638 288.325 54.534 286.701 56.032L286.071 55.136C286.575 54.842 287.079 54.478 288.031 53.708C289.529 52.518 291.741 50.572 292.707 49.62C292.791 49.536 292.791 49.536 292.903 49.424C292.903 49.424 292.931 49.396 292.959 49.368L293.015 49.312L292.987 49.284C292.945 49.284 292.945 49.284 292.861 49.298C292.413 49.382 290.733 49.48 288.605 49.55C288.297 49.564 288.157 49.578 287.849 49.62ZM292.441 58.482C292.133 57.208 291.433 56.536 290.425 56.536C289.725 56.536 289.291 56.872 289.291 57.404C289.291 57.768 289.473 58.034 289.851 58.258C290.215 58.454 290.817 58.58 291.419 58.58C291.769 58.58 291.937 58.566 292.441 58.482Z" fill="#20AEE5"/>
<g clip-path="url(#clip1_522_12529)">
<path d="M179.665 146.264L174.492 151.174C174.066 151.578 173.502 151.803 172.916 151.803H144.289C143.025 151.803 142 150.778 142 149.513V100.289C142 99.0251 143.025 98 144.289 98H183.211C184.475 98 185.5 99.0251 185.5 100.289V139.742C185.5 140.37 185.242 140.971 184.787 141.403L179.665 146.264Z" fill="white" stroke="#20AEE5" stroke-width="1.71711"/>
<path d="M173.014 150.987V142.137C173.014 140.872 174.039 139.847 175.303 139.847H184.685" fill="white"/>
<path d="M173.014 150.987V142.137C173.014 140.872 174.039 139.847 175.303 139.847H184.685" stroke="#20AEE5" stroke-width="1.71711"/>
<path d="M163.75 121.733H154.593H163.75Z" fill="white"/>
<path d="M163.75 121.733H154.593" stroke="#20AEE5" stroke-width="2.28947" stroke-linecap="round" stroke-linejoin="round"/>
<path d="M172.908 116.007H154.593H172.908Z" fill="white"/>
<path d="M172.908 116.007H154.593" stroke="#20AEE5" stroke-width="2.28947" stroke-linecap="round" stroke-linejoin="round"/>
<path d="M172.908 110.285H154.593H172.908Z" fill="white"/>
<path d="M172.908 110.285H154.593" stroke="#20AEE5" stroke-width="2.28947" stroke-linecap="round" stroke-linejoin="round"/>
<mask id="path-15-inside-1_522_12529" fill="white">
<path fill-rule="evenodd" clip-rule="evenodd" d="M169.337 173.032L165.558 168.283C165.048 167.643 164.076 167.643 163.566 168.283L159.787 173.032H51.3984C49.1893 173.032 47.3984 174.823 47.3984 177.032V207.032C47.3984 209.241 49.1893 211.032 51.3984 211.032H276.1C278.309 211.032 280.1 209.241 280.1 207.032V177.032C280.1 174.823 278.309 173.032 276.1 173.032H169.337Z"/>
</mask>
<path fill-rule="evenodd" clip-rule="evenodd" d="M169.337 173.032L165.558 168.283C165.048 167.643 164.076 167.643 163.566 168.283L159.787 173.032H51.3984C49.1893 173.032 47.3984 174.823 47.3984 177.032V207.032C47.3984 209.241 49.1893 211.032 51.3984 211.032H276.1C278.309 211.032 280.1 209.241 280.1 207.032V177.032C280.1 174.823 278.309 173.032 276.1 173.032H169.337Z" fill="white"/>
<path d="M165.558 168.283L163.993 169.528L163.993 169.528L165.558 168.283ZM169.337 173.032L167.772 174.277C168.151 174.754 168.727 175.032 169.337 175.032V173.032ZM163.566 168.283L165.131 169.528L165.131 169.528L163.566 168.283ZM159.787 173.032V175.032C160.397 175.032 160.973 174.754 161.352 174.277L159.787 173.032ZM163.993 169.528L167.772 174.277L170.902 171.787L167.123 167.038L163.993 169.528ZM165.131 169.528C164.84 169.894 164.284 169.894 163.993 169.528L167.123 167.038C165.813 165.391 163.311 165.391 162.001 167.038L165.131 169.528ZM161.352 174.277L165.131 169.528L162.001 167.038L158.222 171.787L161.352 174.277ZM51.3984 175.032H159.787V171.032H51.3984V175.032ZM49.3984 177.032C49.3984 175.927 50.2939 175.032 51.3984 175.032V171.032C48.0847 171.032 45.3984 173.718 45.3984 177.032H49.3984ZM49.3984 207.032V177.032H45.3984V207.032H49.3984ZM51.3984 209.032C50.2939 209.032 49.3984 208.136 49.3984 207.032H45.3984C45.3984 210.346 48.0847 213.032 51.3984 213.032V209.032ZM276.1 209.032H51.3984V213.032H276.1V209.032ZM278.1 207.032C278.1 208.136 277.205 209.032 276.1 209.032V213.032C279.414 213.032 282.1 210.346 282.1 207.032H278.1ZM278.1 177.032V207.032H282.1V177.032H278.1ZM276.1 175.032C277.205 175.032 278.1 175.927 278.1 177.032H282.1C282.1 173.718 279.414 171.032 276.1 171.032V175.032ZM169.337 175.032H276.1V171.032H169.337V175.032Z" fill="#20AEE5" mask="url(#path-15-inside-1_522_12529)"/>
<path d="M76.2139 196.835V195.56L79.6855 192.015C81.1211 190.565 81.5239 190.03 81.5239 189.217V189.195C81.5239 188.221 80.8574 187.518 79.7588 187.518C78.6382 187.518 77.8838 188.258 77.8838 189.349L77.8765 189.379L76.1187 189.371L76.1113 189.349C76.1113 187.379 77.6494 186.002 79.854 186.002C81.9121 186.002 83.3916 187.255 83.3916 189.034V189.056C83.3916 190.257 82.813 191.21 80.8867 193.063L78.77 195.113V195.267H83.5527V196.835H76.2139ZM89.522 197.098C87.0098 197.098 85.501 194.967 85.501 191.554V191.539C85.501 188.126 87.0098 186.002 89.522 186.002C92.0342 186.002 93.5576 188.126 93.5576 191.539V191.554C93.5576 194.967 92.0342 197.098 89.522 197.098ZM89.522 195.568C90.8696 195.568 91.6533 194.059 91.6533 191.554V191.539C91.6533 189.034 90.8696 187.54 89.522 187.54C88.1743 187.54 87.4053 189.034 87.4053 191.539V191.554C87.4053 194.059 88.1743 195.568 89.522 195.568ZM95.623 196.835V195.56L99.0947 192.015C100.53 190.565 100.933 190.03 100.933 189.217V189.195C100.933 188.221 100.267 187.518 99.168 187.518C98.0474 187.518 97.293 188.258 97.293 189.349L97.2856 189.379L95.5278 189.371L95.5205 189.349C95.5205 187.379 97.0586 186.002 99.2632 186.002C101.321 186.002 102.801 187.255 102.801 189.034V189.056C102.801 190.257 102.222 191.21 100.296 193.063L98.1792 195.113V195.267H102.962V196.835H95.623ZM108.88 197.047C106.565 197.047 105.049 195.787 104.91 193.978L104.903 193.89H106.705L106.712 193.971C106.814 194.864 107.642 195.502 108.88 195.502C110.103 195.502 110.916 194.82 110.916 193.839V193.824C110.916 192.711 110.096 192.096 108.741 192.096H107.496V190.69H108.704C109.869 190.69 110.645 190.03 110.645 189.108V189.093C110.645 188.126 109.993 187.555 108.865 187.555C107.752 187.555 106.983 188.148 106.888 189.093L106.88 189.166H105.123L105.13 189.086C105.291 187.255 106.734 186.053 108.865 186.053C111.041 186.053 112.454 187.189 112.454 188.844V188.859C112.454 190.17 111.509 191.041 110.242 191.305V191.341C111.795 191.488 112.828 192.411 112.828 193.876V193.89C112.828 195.751 111.224 197.047 108.88 197.047ZM117.457 196.835V188.126H117.332L114.703 189.986V188.207L117.464 186.266H119.346V196.835H117.457ZM126.158 197.098C123.646 197.098 122.137 194.967 122.137 191.554V191.539C122.137 188.126 123.646 186.002 126.158 186.002C128.67 186.002 130.193 188.126 130.193 191.539V191.554C130.193 194.967 128.67 197.098 126.158 197.098ZM126.158 195.568C127.505 195.568 128.289 194.059 128.289 191.554V191.539C128.289 189.034 127.505 187.54 126.158 187.54C124.81 187.54 124.041 189.034 124.041 191.539V191.554C124.041 194.059 124.81 195.568 126.158 195.568ZM136.009 197.047C133.694 197.047 132.178 195.787 132.039 193.978L132.032 193.89H133.833L133.841 193.971C133.943 194.864 134.771 195.502 136.009 195.502C137.232 195.502 138.045 194.82 138.045 193.839V193.824C138.045 192.711 137.225 192.096 135.87 192.096H134.625V190.69H135.833C136.998 190.69 137.774 190.03 137.774 189.108V189.093C137.774 188.126 137.122 187.555 135.994 187.555C134.881 187.555 134.112 188.148 134.017 189.093L134.009 189.166H132.251L132.259 189.086C132.42 187.255 133.863 186.053 135.994 186.053C138.169 186.053 139.583 187.189 139.583 188.844V188.859C139.583 190.17 138.638 191.041 137.371 191.305V191.341C138.924 191.488 139.957 192.411 139.957 193.876V193.89C139.957 195.751 138.353 197.047 136.009 197.047ZM144.585 196.835V188.126H144.461L141.832 189.986V188.207L144.593 186.266H146.475V196.835H144.585ZM148.306 199.222V197.567H157.476V199.222H148.306ZM157.996 196.835L161.746 186.266H163.877L167.627 196.835H165.65L164.764 194.103H160.853L159.974 196.835H157.996ZM162.75 188.229L161.329 192.645H164.295L162.874 188.229H162.75ZM168.14 199.222V197.567H177.31V199.222H168.14ZM179.449 196.835V188.126H179.324L176.695 189.986V188.207L179.456 186.266H181.338V196.835H179.449ZM183.646 199.625L184.283 195.223H186.165L184.891 199.625H183.646ZM190.772 196.835V188.126H190.647L188.018 189.986V188.207L190.779 186.266H192.662V196.835H190.772ZM199.473 197.098C196.961 197.098 195.452 194.967 195.452 191.554V191.539C195.452 188.126 196.961 186.002 199.473 186.002C201.985 186.002 203.509 188.126 203.509 191.539V191.554C203.509 194.967 201.985 197.098 199.473 197.098ZM199.473 195.568C200.821 195.568 201.604 194.059 201.604 191.554V191.539C201.604 189.034 200.821 187.54 199.473 187.54C198.125 187.54 197.356 189.034 197.356 191.539V191.554C197.356 194.059 198.125 195.568 199.473 195.568ZM209.449 197.098C206.937 197.098 205.428 194.967 205.428 191.554V191.539C205.428 188.126 206.937 186.002 209.449 186.002C211.961 186.002 213.484 188.126 213.484 191.539V191.554C213.484 194.967 211.961 197.098 209.449 197.098ZM209.449 195.568C210.796 195.568 211.58 194.059 211.58 191.554V191.539C211.58 189.034 210.796 187.54 209.449 187.54C208.101 187.54 207.332 189.034 207.332 191.539V191.554C207.332 194.059 208.101 195.568 209.449 195.568ZM214.612 199.625L215.25 195.223H217.132L215.857 199.625H214.612ZM222.999 197.098C220.486 197.098 218.978 194.967 218.978 191.554V191.539C218.978 188.126 220.486 186.002 222.999 186.002C225.511 186.002 227.034 188.126 227.034 191.539V191.554C227.034 194.967 225.511 197.098 222.999 197.098ZM222.999 195.568C224.346 195.568 225.13 194.059 225.13 191.554V191.539C225.13 189.034 224.346 187.54 222.999 187.54C221.651 187.54 220.882 189.034 220.882 191.539V191.554C220.882 194.059 221.651 195.568 222.999 195.568ZM232.974 197.098C230.462 197.098 228.953 194.967 228.953 191.554V191.539C228.953 188.126 230.462 186.002 232.974 186.002C235.486 186.002 237.01 188.126 237.01 191.539V191.554C237.01 194.967 235.486 197.098 232.974 197.098ZM232.974 195.568C234.322 195.568 235.105 194.059 235.105 191.554V191.539C235.105 189.034 234.322 187.54 232.974 187.54C231.626 187.54 230.857 189.034 230.857 191.539V191.554C230.857 194.059 231.626 195.568 232.974 195.568ZM242.95 197.098C240.438 197.098 238.929 194.967 238.929 191.554V191.539C238.929 188.126 240.438 186.002 242.95 186.002C245.462 186.002 246.985 188.126 246.985 191.539V191.554C246.985 194.967 245.462 197.098 242.95 197.098ZM242.95 195.568C244.297 195.568 245.081 194.059 245.081 191.554V191.539C245.081 189.034 244.297 187.54 242.95 187.54C241.602 187.54 240.833 189.034 240.833 191.539V191.554C240.833 194.059 241.602 195.568 242.95 195.568Z" fill="#20AEE5"/>
<path d="M26.306 222.903L26.726 223.443C26.702 223.599 26.702 223.659 26.666 223.923C26.294 227.151 25.25 229.179 23.018 231.003C22.706 230.571 22.502 230.343 22.106 229.995C23.246 229.179 23.978 228.351 24.578 227.211C24.254 226.815 24.11 226.671 23.402 226.011C23.162 226.395 22.994 226.635 22.646 227.067C22.418 226.587 22.226 226.251 21.938 225.891C22.922 224.751 23.462 223.455 23.702 221.703C23.27 221.703 23.126 221.715 22.85 221.751V220.491C23.174 220.539 23.45 220.551 23.978 220.551H25.718C26.282 220.551 26.582 220.539 26.894 220.491V221.751C26.63 221.715 26.378 221.703 25.958 221.703H24.866C24.782 222.375 24.746 222.519 24.65 222.951H25.418C25.85 222.951 26.09 222.939 26.306 222.903ZM25.514 224.079H24.326C24.194 224.427 24.11 224.631 23.966 224.955C24.674 225.603 24.734 225.663 25.082 226.047C25.322 225.363 25.406 224.955 25.514 224.079ZM21.866 222.915V229.491C21.866 230.127 21.878 230.475 21.926 230.931H20.594C20.642 230.487 20.666 230.115 20.666 229.491V226.287C20.666 225.711 20.666 225.399 20.69 224.859C20.354 225.471 20.234 225.651 19.898 226.071C19.754 225.471 19.574 225.015 19.37 224.667C20.402 223.503 21.242 221.643 21.542 219.891L22.778 220.347C22.718 220.491 22.622 220.827 22.586 220.959C22.418 221.583 22.226 222.111 21.866 222.915ZM28.442 228.063H27.146C27.182 227.763 27.206 227.487 27.206 227.043V221.835C27.206 221.403 27.194 221.163 27.158 220.815H28.442C28.406 221.103 28.394 221.355 28.394 221.835V227.031C28.394 227.523 28.406 227.787 28.442 228.063ZM30.41 221.355V229.599C30.41 230.607 30.062 230.835 28.538 230.835C28.226 230.835 27.974 230.835 27.47 230.811C27.41 230.295 27.338 230.031 27.146 229.575C27.638 229.623 28.238 229.671 28.538 229.671C29.15 229.671 29.222 229.635 29.222 229.359V221.355C29.222 220.803 29.198 220.515 29.15 220.119H30.47C30.422 220.443 30.41 220.779 30.41 221.355ZM33.29 231.099H31.598C32.45 230.031 32.786 229.503 33.122 228.711C33.554 227.715 33.758 226.647 33.758 225.423C33.758 224.223 33.566 223.227 33.146 222.243C32.798 221.451 32.45 220.911 31.61 219.855H33.302C33.974 220.803 34.262 221.331 34.61 222.219C35.03 223.311 35.222 224.283 35.222 225.423C35.222 226.587 35.018 227.631 34.598 228.735C34.25 229.611 33.962 230.139 33.29 231.099ZM49.298 230.175H45.446C44.51 230.175 44.318 230.187 43.898 230.235C43.97 229.551 44.054 229.131 44.21 228.699C44.534 227.823 45.074 227.055 45.854 226.347C46.274 225.975 46.634 225.699 47.834 224.895C48.938 224.139 49.274 223.743 49.274 223.131C49.274 222.315 48.638 221.811 47.618 221.811C46.922 221.811 46.394 222.051 46.094 222.519C45.89 222.807 45.806 223.071 45.722 223.623L44.006 223.419C44.174 222.507 44.39 222.015 44.834 221.499C45.434 220.803 46.382 220.431 47.582 220.431C49.682 220.431 50.978 221.439 50.978 223.083C50.978 223.875 50.714 224.451 50.126 225.003C49.79 225.315 49.67 225.411 48.11 226.479C47.582 226.851 46.982 227.355 46.682 227.679C46.322 228.063 46.178 228.303 45.998 228.759H49.358C50.114 228.759 50.714 228.723 51.11 228.663V230.247C50.546 230.199 50.066 230.175 49.298 230.175ZM56.053 230.367C55.033 230.367 54.169 230.031 53.533 229.395C53.173 229.035 52.897 228.615 52.741 228.183C52.429 227.331 52.273 226.395 52.273 225.423C52.273 224.151 52.561 222.831 53.005 222.099C53.653 221.019 54.733 220.431 56.065 220.431C57.085 220.431 57.961 220.767 58.597 221.403C58.957 221.763 59.233 222.183 59.389 222.615C59.701 223.455 59.857 224.415 59.857 225.399C59.857 226.875 59.533 228.171 58.969 228.951C58.297 229.887 57.301 230.367 56.053 230.367ZM56.065 228.975C56.593 228.975 57.061 228.795 57.361 228.471C57.901 227.907 58.201 226.791 58.201 225.387C58.201 223.995 57.901 222.903 57.361 222.315C57.073 221.991 56.593 221.811 56.053 221.811C55.477 221.811 55.057 222.003 54.709 222.423C54.181 223.047 53.917 224.031 53.917 225.339C53.917 226.599 54.145 227.643 54.529 228.195C54.901 228.723 55.405 228.975 56.065 228.975ZM66.3839 230.175H62.5319C61.5959 230.175 61.4039 230.187 60.9839 230.235C61.0559 229.551 61.1399 229.131 61.2959 228.699C61.6199 227.823 62.1599 227.055 62.9399 226.347C63.3599 225.975 63.7199 225.699 64.9199 224.895C66.0239 224.139 66.3599 223.743 66.3599 223.131C66.3599 222.315 65.7239 221.811 64.7039 221.811C64.0079 221.811 63.4799 222.051 63.1799 222.519C62.9759 222.807 62.8919 223.071 62.8079 223.623L61.0919 223.419C61.2599 222.507 61.4759 222.015 61.9199 221.499C62.5199 220.803 63.4679 220.431 64.6679 220.431C66.7679 220.431 68.0639 221.439 68.0639 223.083C68.0639 223.875 67.7999 224.451 67.2119 225.003C66.8759 225.315 66.7559 225.411 65.1959 226.479C64.6679 226.851 64.0679 227.355 63.7679 227.679C63.4079 228.063 63.2639 228.303 63.0839 228.759H66.4439C67.1999 228.759 67.7999 228.723 68.1959 228.663V230.247C67.6319 230.199 67.1519 230.175 66.3839 230.175ZM69.3709 227.907L71.0869 227.571C71.2429 228.123 71.3509 228.315 71.6509 228.555C72.0469 228.867 72.5269 229.023 73.1029 229.023C74.2909 229.023 75.0469 228.411 75.0469 227.463C75.0469 226.911 74.8069 226.455 74.3749 226.203C74.0869 226.035 73.5229 225.915 72.9949 225.915C72.4669 225.915 72.1189 225.927 71.7109 225.975V224.487C72.0949 224.535 72.3589 224.547 72.8749 224.547C74.0749 224.547 74.7829 223.995 74.7829 223.071C74.7829 222.243 74.2189 221.775 73.1989 221.775C72.6109 221.775 72.1789 221.907 71.8909 222.147C71.6509 222.375 71.5309 222.579 71.3869 223.071L69.6709 222.783C69.9709 221.895 70.2469 221.475 70.8109 221.067C71.4229 220.623 72.2029 220.407 73.1629 220.407C75.1669 220.407 76.4629 221.415 76.4629 222.975C76.4629 223.695 76.1509 224.355 75.6349 224.739C75.3709 224.943 75.1069 225.039 74.4709 225.207C75.3229 225.339 75.7669 225.543 76.1869 226.011C76.5829 226.455 76.7629 226.959 76.7629 227.667C76.7629 228.315 76.4869 228.975 76.0429 229.419C75.3829 230.055 74.3749 230.391 73.0909 230.391C71.6869 230.391 70.7269 230.031 70.0429 229.251C69.7429 228.915 69.5869 228.603 69.3709 227.907ZM79.9539 227.055V224.607C79.9539 224.343 79.9419 224.163 79.9179 223.911C80.1699 223.935 80.4339 223.947 80.7579 223.947H83.3739V222.387H80.8659C80.2419 223.359 79.6539 224.055 78.8859 224.751C78.5379 224.235 78.4059 224.079 77.9979 223.683C79.2219 222.639 79.8459 221.847 80.3379 220.671C80.5059 220.287 80.5899 220.035 80.6259 219.795L82.0539 220.083C81.9819 220.227 81.9579 220.263 81.8739 220.443C81.8619 220.479 81.7419 220.731 81.5259 221.199H87.1419C87.7059 221.199 88.0059 221.187 88.3659 221.139V222.447C87.9939 222.399 87.6819 222.387 87.1419 222.387H84.6939V223.947H86.6259C87.1779 223.947 87.5019 223.935 87.8619 223.887V225.159C87.5019 225.123 87.1779 225.111 86.6619 225.111H84.6939V227.055H87.4779C88.0299 227.055 88.4139 227.031 88.7859 226.983V228.351C88.4139 228.303 87.9939 228.279 87.4779 228.279H84.6939V229.779C84.6939 230.391 84.7059 230.715 84.7659 231.063H83.3019C83.3499 230.715 83.3739 230.391 83.3739 229.755V228.279H79.3419C78.8139 228.279 78.4299 228.303 78.0339 228.351V226.983C78.4179 227.031 78.8019 227.055 79.3419 227.055H79.9539ZM81.2139 227.055H83.3739V225.111H81.2139V227.055ZM94.7979 230.175H92.9859C93.0579 229.707 93.0819 229.239 93.0819 228.615V222.003H92.5059C92.0619 222.003 91.7139 222.027 91.2699 222.075V220.551C91.6419 220.611 91.9059 220.623 92.4699 220.623H93.5739C94.1859 220.623 94.3659 220.611 94.7979 220.563C94.7259 221.271 94.7019 221.823 94.7019 222.543V228.615C94.7019 229.251 94.7259 229.683 94.7979 230.175ZM102.225 230.367C101.205 230.367 100.341 230.031 99.7048 229.395C99.3448 229.035 99.0688 228.615 98.9128 228.183C98.6008 227.331 98.4448 226.395 98.4448 225.423C98.4448 224.151 98.7328 222.831 99.1768 222.099C99.8248 221.019 100.905 220.431 102.237 220.431C103.257 220.431 104.133 220.767 104.769 221.403C105.129 221.763 105.405 222.183 105.561 222.615C105.873 223.455 106.029 224.415 106.029 225.399C106.029 226.875 105.705 228.171 105.141 228.951C104.469 229.887 103.473 230.367 102.225 230.367ZM102.237 228.975C102.765 228.975 103.233 228.795 103.533 228.471C104.073 227.907 104.373 226.791 104.373 225.387C104.373 223.995 104.073 222.903 103.533 222.315C103.245 221.991 102.765 221.811 102.225 221.811C101.649 221.811 101.229 222.003 100.881 222.423C100.353 223.047 100.089 224.031 100.089 225.339C100.089 226.599 100.317 227.643 100.701 228.195C101.073 228.723 101.577 228.975 102.237 228.975ZM115.172 227.259H109.964C109.856 227.871 109.76 228.267 109.616 228.687C109.292 229.599 108.884 230.295 108.2 231.063C107.852 230.595 107.552 230.295 107.084 229.959C107.756 229.287 108.092 228.747 108.368 227.847C108.728 226.731 108.848 225.327 108.848 222.207C108.848 221.343 108.836 220.815 108.788 220.395C109.256 220.443 109.58 220.455 110.192 220.455H115.196C115.856 220.455 116.18 220.443 116.588 220.395C116.54 220.719 116.528 221.043 116.528 221.751V229.527C116.528 230.127 116.396 230.475 116.096 230.667C115.832 230.847 115.496 230.907 114.704 230.907C114.32 230.907 113.924 230.895 113.312 230.859C113.24 230.283 113.168 230.007 112.964 229.515C113.576 229.611 114.236 229.659 114.728 229.659C115.088 229.659 115.172 229.599 115.172 229.335V227.259ZM110.108 226.035H115.172V224.427H110.204C110.204 224.799 110.18 225.063 110.108 226.035ZM110.216 223.203H115.172V221.703H110.216V223.203ZM119 227.907L120.716 227.571C120.872 228.123 120.98 228.315 121.28 228.555C121.676 228.867 122.156 229.023 122.732 229.023C123.92 229.023 124.676 228.411 124.676 227.463C124.676 226.911 124.436 226.455 124.004 226.203C123.716 226.035 123.152 225.915 122.624 225.915C122.096 225.915 121.748 225.927 121.34 225.975V224.487C121.724 224.535 121.988 224.547 122.504 224.547C123.704 224.547 124.412 223.995 124.412 223.071C124.412 222.243 123.848 221.775 122.828 221.775C122.24 221.775 121.808 221.907 121.52 222.147C121.28 222.375 121.16 222.579 121.016 223.071L119.3 222.783C119.6 221.895 119.876 221.475 120.44 221.067C121.052 220.623 121.832 220.407 122.792 220.407C124.796 220.407 126.092 221.415 126.092 222.975C126.092 223.695 125.78 224.355 125.264 224.739C125 224.943 124.736 225.039 124.1 225.207C124.952 225.339 125.396 225.543 125.816 226.011C126.212 226.455 126.392 226.959 126.392 227.667C126.392 228.315 126.116 228.975 125.672 229.419C125.012 230.055 124.004 230.391 122.72 230.391C121.316 230.391 120.356 230.031 119.672 229.251C119.372 228.915 119.216 228.603 119 227.907ZM132.427 230.175H130.615C130.687 229.707 130.711 229.239 130.711 228.615V222.003H130.135C129.691 222.003 129.343 222.027 128.899 222.075V220.551C129.271 220.611 129.535 220.623 130.099 220.623H131.203C131.815 220.623 131.995 220.611 132.427 220.563C132.355 221.271 132.331 221.823 132.331 222.543V228.615C132.331 229.251 132.355 229.683 132.427 230.175ZM137.43 229.443V221.751C137.43 221.283 137.406 220.863 137.37 220.467C137.754 220.515 138.15 220.527 138.702 220.527H144.51C145.074 220.527 145.446 220.515 145.806 220.467C145.758 220.923 145.746 221.271 145.746 221.691V229.443C145.746 230.067 145.77 230.463 145.818 230.895H144.366V230.175H138.786V230.895H137.358C137.406 230.487 137.43 230.007 137.43 229.443ZM138.786 221.799V224.583H144.366V221.799H138.786ZM138.786 225.843V228.915H144.366V225.843H138.786ZM150.762 230.319L149.31 230.403C149.298 230.187 149.286 230.115 149.25 229.839C149.022 228.387 148.938 227.463 148.938 226.251C148.938 224.703 149.082 223.335 149.43 221.559C149.562 220.887 149.586 220.767 149.61 220.443L151.194 220.611C150.906 221.319 150.63 222.663 150.438 224.199C150.318 225.099 150.27 225.807 150.258 226.851C150.258 227.115 150.246 227.211 150.234 227.511C150.366 227.091 150.39 227.007 150.858 225.927L151.818 226.359C151.158 227.751 150.75 229.143 150.75 229.995C150.75 230.067 150.75 230.163 150.762 230.319ZM152.418 223.131L152.442 221.691C152.982 221.835 153.618 221.883 154.662 221.883C155.994 221.883 157.134 221.775 157.926 221.559L157.998 223.011C157.902 223.023 157.722 223.047 157.146 223.119C156.378 223.215 155.466 223.263 154.578 223.263C153.702 223.263 153.69 223.263 152.418 223.131ZM153.246 225.111L154.422 225.663C153.822 226.359 153.57 226.875 153.57 227.391C153.57 228.075 154.23 228.435 155.478 228.435C156.534 228.435 157.578 228.267 158.334 227.979L158.454 229.503C158.286 229.515 158.238 229.527 157.962 229.575C157.002 229.731 156.27 229.803 155.478 229.803C153.99 229.803 153.03 229.467 152.502 228.759C152.274 228.459 152.142 228.015 152.142 227.583C152.142 226.803 152.502 225.999 153.246 225.111ZM169.158 230.175H167.19C167.118 229.779 166.986 229.263 166.854 228.915L166.374 227.607H162.534L162.054 228.915C161.838 229.491 161.79 229.671 161.694 230.175H159.726C159.906 229.851 160.146 229.311 160.362 228.759L163.002 221.835C163.23 221.235 163.326 220.935 163.386 220.623H165.474C165.534 220.911 165.606 221.103 165.882 221.835L168.546 228.759C168.846 229.527 168.99 229.863 169.158 230.175ZM165.942 226.227L164.658 222.675C164.61 222.543 164.574 222.399 164.442 222.003C164.25 222.567 164.25 222.567 164.214 222.675L162.966 226.227H165.942ZM172.885 226.323V229.803C172.885 230.367 172.897 230.667 172.945 231.027H171.493C171.553 230.667 171.565 230.343 171.565 229.779V226.767C171.097 227.199 170.845 227.391 170.233 227.787C170.089 227.331 169.873 226.899 169.621 226.539C170.461 226.059 171.037 225.603 171.685 224.919C172.249 224.331 172.597 223.839 172.993 223.071H171.037C170.605 223.071 170.353 223.083 170.029 223.119V221.787C170.329 221.823 170.581 221.835 170.977 221.835H171.577V220.827C171.577 220.515 171.553 220.191 171.505 219.915H172.957C172.909 220.191 172.885 220.455 172.885 220.851V221.835H173.377C173.749 221.835 173.917 221.823 174.073 221.799L174.649 222.423C174.541 222.603 174.469 222.723 174.385 222.927C173.989 223.791 173.761 224.187 173.185 224.979C173.749 225.615 174.301 226.047 175.093 226.503C174.805 226.887 174.625 227.223 174.433 227.679C173.809 227.271 173.401 226.923 172.885 226.323ZM177.973 224.547V229.239H179.413C180.013 229.239 180.409 229.215 180.781 229.167V230.619C180.361 230.559 179.893 230.535 179.413 230.535H175.309C174.829 230.535 174.373 230.559 173.953 230.619V229.167C174.337 229.215 174.757 229.239 175.333 229.239H176.641V224.547H175.741C175.333 224.547 174.949 224.571 174.565 224.607V223.251C174.913 223.299 175.225 223.311 175.741 223.311H176.641V221.199C176.641 220.707 176.617 220.419 176.557 219.951H178.057C177.985 220.431 177.973 220.683 177.973 221.199V223.311H179.245C179.785 223.311 180.085 223.299 180.421 223.251V224.607C180.037 224.571 179.665 224.547 179.245 224.547H177.973ZM184.453 230.319L183.001 230.403C182.989 230.187 182.977 230.115 182.941 229.839C182.713 228.387 182.629 227.463 182.629 226.251C182.629 224.703 182.773 223.335 183.121 221.559C183.253 220.887 183.277 220.767 183.301 220.443L184.885 220.611C184.597 221.319 184.321 222.663 184.129 224.199C184.009 225.099 183.961 225.807 183.949 226.851C183.949 227.115 183.937 227.211 183.925 227.511C184.057 227.091 184.081 227.007 184.549 225.927L185.509 226.359C184.849 227.751 184.441 229.143 184.441 229.995C184.441 230.067 184.441 230.163 184.453 230.319ZM186.109 223.131L186.133 221.691C186.673 221.835 187.309 221.883 188.353 221.883C189.685 221.883 190.825 221.775 191.617 221.559L191.689 223.011C191.593 223.023 191.413 223.047 190.837 223.119C190.069 223.215 189.157 223.263 188.269 223.263C187.393 223.263 187.381 223.263 186.109 223.131ZM186.937 225.111L188.113 225.663C187.513 226.359 187.261 226.875 187.261 227.391C187.261 228.075 187.921 228.435 189.169 228.435C190.225 228.435 191.269 228.267 192.025 227.979L192.145 229.503C191.977 229.515 191.929 229.527 191.653 229.575C190.693 229.731 189.961 229.803 189.169 229.803C187.681 229.803 186.721 229.467 186.193 228.759C185.965 228.459 185.833 228.015 185.833 227.583C185.833 226.803 186.193 225.999 186.937 225.111ZM198.661 230.175H196.849C196.921 229.707 196.945 229.239 196.945 228.615V222.003H196.369C195.925 222.003 195.577 222.027 195.133 222.075V220.551C195.505 220.611 195.769 220.623 196.333 220.623H197.437C198.049 220.623 198.229 220.611 198.661 220.563C198.589 221.271 198.565 221.823 198.565 222.543V228.615C198.565 229.251 198.589 229.683 198.661 230.175ZM204.324 228.423V230.175C204.324 231.207 204.06 231.591 203.088 231.975L202.656 231.339C203.388 231.135 203.556 230.919 203.568 230.175H202.56V228.423H204.324ZM210.439 230.175H208.627C208.699 229.707 208.723 229.239 208.723 228.615V222.003H208.146C207.703 222.003 207.355 222.027 206.911 222.075V220.551C207.283 220.611 207.547 220.623 208.111 220.623H209.215C209.827 220.623 210.007 220.611 210.439 220.563C210.367 221.271 210.343 221.823 210.343 222.543V228.615C210.343 229.251 210.367 229.683 210.439 230.175ZM217.865 230.367C216.845 230.367 215.981 230.031 215.345 229.395C214.985 229.035 214.709 228.615 214.553 228.183C214.241 227.331 214.085 226.395 214.085 225.423C214.085 224.151 214.373 222.831 214.817 222.099C215.465 221.019 216.545 220.431 217.877 220.431C218.897 220.431 219.773 220.767 220.409 221.403C220.769 221.763 221.045 222.183 221.201 222.615C221.513 223.455 221.669 224.415 221.669 225.399C221.669 226.875 221.345 228.171 220.781 228.951C220.109 229.887 219.113 230.367 217.865 230.367ZM217.877 228.975C218.405 228.975 218.873 228.795 219.173 228.471C219.713 227.907 220.013 226.791 220.013 225.387C220.013 223.995 219.713 222.903 219.173 222.315C218.885 221.991 218.405 221.811 217.865 221.811C217.289 221.811 216.869 222.003 216.521 222.423C215.993 223.047 215.729 224.031 215.729 225.339C215.729 226.599 215.957 227.643 216.341 228.195C216.713 228.723 217.217 228.975 217.877 228.975ZM226.408 230.367C225.388 230.367 224.524 230.031 223.888 229.395C223.528 229.035 223.252 228.615 223.096 228.183C222.784 227.331 222.628 226.395 222.628 225.423C222.628 224.151 222.916 222.831 223.36 222.099C224.008 221.019 225.088 220.431 226.42 220.431C227.44 220.431 228.316 220.767 228.952 221.403C229.312 221.763 229.588 222.183 229.744 222.615C230.056 223.455 230.212 224.415 230.212 225.399C230.212 226.875 229.888 228.171 229.324 228.951C228.652 229.887 227.656 230.367 226.408 230.367ZM226.42 228.975C226.948 228.975 227.416 228.795 227.716 228.471C228.256 227.907 228.556 226.791 228.556 225.387C228.556 223.995 228.256 222.903 227.716 222.315C227.428 221.991 226.948 221.811 226.408 221.811C225.832 221.811 225.412 222.003 225.064 222.423C224.536 223.047 224.272 224.031 224.272 225.339C224.272 226.599 224.5 227.643 224.884 228.195C225.256 228.723 225.76 228.975 226.42 228.975ZM233.187 228.423V230.175C233.187 231.207 232.923 231.591 231.951 231.975L231.519 231.339C232.251 231.135 232.419 230.919 232.431 230.175H231.423V228.423H233.187ZM238.186 230.367C237.166 230.367 236.302 230.031 235.666 229.395C235.306 229.035 235.03 228.615 234.874 228.183C234.562 227.331 234.406 226.395 234.406 225.423C234.406 224.151 234.694 222.831 235.138 222.099C235.786 221.019 236.866 220.431 238.198 220.431C239.218 220.431 240.094 220.767 240.73 221.403C241.09 221.763 241.366 222.183 241.522 222.615C241.834 223.455 241.99 224.415 241.99 225.399C241.99 226.875 241.666 228.171 241.102 228.951C240.43 229.887 239.434 230.367 238.186 230.367ZM238.198 228.975C238.726 228.975 239.194 228.795 239.494 228.471C240.034 227.907 240.334 226.791 240.334 225.387C240.334 223.995 240.034 222.903 239.494 222.315C239.206 221.991 238.726 221.811 238.186 221.811C237.61 221.811 237.19 222.003 236.842 222.423C236.314 223.047 236.05 224.031 236.05 225.339C236.05 226.599 236.278 227.643 236.662 228.195C237.034 228.723 237.538 228.975 238.198 228.975ZM246.729 230.367C245.709 230.367 244.845 230.031 244.209 229.395C243.849 229.035 243.573 228.615 243.417 228.183C243.105 227.331 242.949 226.395 242.949 225.423C242.949 224.151 243.237 222.831 243.681 222.099C244.329 221.019 245.409 220.431 246.741 220.431C247.761 220.431 248.637 220.767 249.273 221.403C249.633 221.763 249.909 222.183 250.065 222.615C250.377 223.455 250.533 224.415 250.533 225.399C250.533 226.875 250.209 228.171 249.645 228.951C248.973 229.887 247.977 230.367 246.729 230.367ZM246.741 228.975C247.269 228.975 247.737 228.795 248.037 228.471C248.577 227.907 248.877 226.791 248.877 225.387C248.877 223.995 248.577 222.903 248.037 222.315C247.749 221.991 247.269 221.811 246.729 221.811C246.153 221.811 245.733 222.003 245.385 222.423C244.857 223.047 244.593 224.031 244.593 225.339C244.593 226.599 244.821 227.643 245.205 228.195C245.577 228.723 246.081 228.975 246.741 228.975ZM255.272 230.367C254.252 230.367 253.388 230.031 252.752 229.395C252.392 229.035 252.116 228.615 251.96 228.183C251.648 227.331 251.492 226.395 251.492 225.423C251.492 224.151 251.78 222.831 252.224 222.099C252.872 221.019 253.952 220.431 255.284 220.431C256.304 220.431 257.18 220.767 257.816 221.403C258.176 221.763 258.452 222.183 258.608 222.615C258.92 223.455 259.076 224.415 259.076 225.399C259.076 226.875 258.752 228.171 258.188 228.951C257.516 229.887 256.52 230.367 255.272 230.367ZM255.284 228.975C255.812 228.975 256.28 228.795 256.58 228.471C257.12 227.907 257.42 226.791 257.42 225.387C257.42 223.995 257.12 222.903 256.58 222.315C256.292 221.991 255.812 221.811 255.272 221.811C254.696 221.811 254.276 222.003 253.928 222.423C253.4 223.047 253.136 224.031 253.136 225.339C253.136 226.599 253.364 227.643 253.748 228.195C254.12 228.723 254.624 228.975 255.284 228.975ZM261.991 226.311V229.527C261.991 230.283 262.003 230.643 262.051 230.919H260.575C260.623 230.535 260.647 230.103 260.647 229.479V221.631C260.647 221.127 260.635 220.827 260.599 220.479C260.983 220.515 261.295 220.527 261.931 220.527H269.227C269.887 220.527 270.247 220.515 270.535 220.479C270.499 220.827 270.487 221.139 270.487 221.787V229.479C270.487 230.091 270.343 230.427 269.995 230.607C269.767 230.727 269.383 230.775 268.735 230.775C268.267 230.775 267.607 230.751 267.139 230.727C267.067 230.259 266.983 229.923 266.767 229.431C267.559 229.515 268.159 229.563 268.591 229.563C269.059 229.563 269.131 229.527 269.131 229.239V226.311H261.991ZM264.835 225.051V221.799H261.991V225.051H264.835ZM266.131 225.051H269.131V221.799H266.131V225.051ZM272.875 222.771L272.899 221.403C273.391 221.511 274.159 221.559 275.683 221.559C276.007 220.839 276.115 220.479 276.163 220.071L277.735 220.239C277.663 220.359 277.663 220.359 277.255 221.319C277.195 221.451 277.171 221.487 277.147 221.535C277.243 221.523 277.243 221.523 277.903 221.487C279.295 221.403 280.387 221.271 281.047 221.079L281.131 222.447C280.795 222.471 280.795 222.471 280.183 222.543C279.307 222.651 277.783 222.747 276.571 222.783C276.223 223.467 275.887 223.947 275.467 224.379L275.479 224.403C275.563 224.343 275.563 224.343 275.719 224.223C276.163 223.887 276.799 223.683 277.411 223.683C278.347 223.683 278.935 224.127 279.127 224.955C280.051 224.619 280.663 224.403 280.963 224.307C281.611 224.079 281.659 224.067 281.851 223.947L282.415 225.327C282.079 225.375 281.719 225.471 281.083 225.651C280.915 225.699 280.315 225.903 279.283 226.263V226.395C279.295 226.707 279.295 226.707 279.295 226.875C279.295 226.995 279.295 227.199 279.295 227.355C279.283 227.559 279.283 227.667 279.283 227.751C279.283 228.015 279.295 228.183 279.319 228.387L277.927 228.423C277.975 228.207 277.999 227.595 277.999 227.031C277.999 226.863 277.999 226.863 277.999 226.743C277.411 227.019 277.099 227.187 276.847 227.367C276.427 227.679 276.223 228.003 276.223 228.351C276.223 228.975 276.799 229.227 278.251 229.227C279.691 229.227 280.927 229.047 281.779 228.723L281.899 230.271C281.695 230.271 281.635 230.283 281.347 230.319C280.483 230.451 279.331 230.535 278.275 230.535C277.003 230.535 276.211 230.391 275.599 230.031C275.047 229.719 274.723 229.143 274.723 228.483C274.723 227.991 274.867 227.607 275.251 227.151C275.791 226.479 276.475 226.023 277.831 225.459C277.771 225.015 277.531 224.811 277.099 224.811C276.403 224.811 275.563 225.231 274.639 226.047C274.135 226.467 273.859 226.767 273.595 227.139L272.503 226.059C272.815 225.819 273.163 225.483 273.583 224.991C274.051 224.439 274.783 223.395 275.023 222.939C275.071 222.843 275.071 222.843 275.119 222.783C275.071 222.783 274.915 222.795 274.915 222.795C274.723 222.795 273.667 222.771 273.403 222.771C273.175 222.759 273.175 222.759 273.067 222.759C273.031 222.759 272.959 222.759 272.875 222.771ZM290.983 221.727H289.759C289.159 221.727 288.943 221.739 288.619 221.775V220.707C288.967 220.767 289.183 220.779 289.759 220.779H290.983C290.983 220.371 290.971 220.191 290.911 219.891H292.291C292.231 220.191 292.219 220.347 292.219 220.779H293.743C294.343 220.779 294.559 220.767 294.907 220.707V221.775C294.595 221.739 294.307 221.727 293.743 221.727H292.219V222.231H293.491C293.995 222.231 294.199 222.219 294.487 222.183V223.215C294.163 223.179 293.971 223.167 293.467 223.167H292.219V223.659H293.947C294.523 223.659 294.787 223.647 295.135 223.587V224.715C294.775 224.655 294.499 224.643 293.947 224.643H289.603C289.027 224.643 288.763 224.655 288.391 224.715V223.587C288.667 223.647 288.979 223.659 289.603 223.659H290.983V223.167H289.927C289.459 223.167 289.243 223.179 288.919 223.215V222.183C289.231 222.219 289.459 222.231 289.939 222.231H290.983V221.727ZM290.083 229.071V229.635C290.083 230.211 290.107 230.655 290.155 231.003H288.799C288.859 230.643 288.871 230.331 288.871 229.635V226.095C288.871 225.651 288.859 225.411 288.835 225.075C289.147 225.099 289.351 225.111 289.795 225.111H293.371C293.923 225.111 294.175 225.099 294.451 225.063C294.415 225.375 294.403 225.723 294.403 226.299V229.755C294.403 230.691 294.103 230.919 292.891 230.919C292.519 230.919 292.315 230.907 291.919 230.883C291.847 230.367 291.787 230.127 291.631 229.719C291.979 229.779 292.531 229.827 292.795 229.827C293.119 229.827 293.191 229.767 293.191 229.479V229.071H290.083ZM290.083 228.099H293.191V227.607H290.083V228.099ZM290.083 226.647H293.191V226.131H290.083V226.647ZM284.491 221.331V220.227C284.791 220.275 284.983 220.287 285.463 220.287H287.107C287.575 220.287 287.767 220.275 288.079 220.227V221.331C287.755 221.295 287.539 221.283 287.107 221.283H285.463C285.043 221.283 284.791 221.295 284.491 221.331ZM284.095 223.095V221.907C284.383 221.955 284.611 221.967 285.055 221.967H287.323C287.815 221.967 288.019 221.955 288.283 221.919V223.083C288.019 223.059 287.851 223.047 287.371 223.047H285.055C284.635 223.047 284.383 223.059 284.095 223.095ZM284.515 224.787V223.731C284.743 223.755 284.899 223.767 285.271 223.767H287.299C287.683 223.767 287.827 223.755 288.031 223.731V224.787C287.803 224.763 287.647 224.751 287.299 224.751H285.271C284.899 224.751 284.743 224.763 284.515 224.787ZM284.515 226.467V225.411C284.731 225.435 284.911 225.447 285.271 225.447H287.287C287.671 225.447 287.827 225.435 288.031 225.411V226.467C287.815 226.443 287.647 226.431 287.275 226.431H285.259C284.899 226.431 284.743 226.443 284.515 226.467ZM285.691 230.955H284.479C284.515 230.583 284.539 230.175 284.539 229.779V228.027C284.539 227.619 284.527 227.379 284.491 227.079C284.767 227.115 284.995 227.127 285.427 227.127H287.299C287.731 227.127 287.935 227.115 288.115 227.091C288.091 227.331 288.079 227.511 288.079 227.967V229.851C288.079 230.319 288.091 230.523 288.127 230.799H286.951V230.391H285.691V230.955ZM285.691 228.171V229.335H286.951V228.171H285.691ZM305.503 223.119H302.251C302.515 223.995 302.803 224.643 303.295 225.411C304.027 224.835 304.711 224.103 305.131 223.443L306.235 224.283C306.115 224.403 306.115 224.403 305.527 225.027C305.107 225.447 304.639 225.867 303.991 226.383C304.315 226.779 304.615 227.091 305.059 227.475C305.719 228.063 306.091 228.315 307.123 228.891C306.739 229.311 306.499 229.635 306.223 230.127C305.059 229.323 304.399 228.747 303.727 227.955C302.971 227.067 302.623 226.515 302.155 225.471C302.179 226.023 302.203 226.707 302.203 227.223V229.755C302.203 230.631 301.855 230.895 300.715 230.895C300.247 230.895 299.743 230.871 299.203 230.835C299.143 230.295 299.083 230.079 298.879 229.539C299.479 229.647 299.971 229.695 300.451 229.695C300.823 229.695 300.907 229.623 300.907 229.299V223.119H297.583C297.055 223.119 296.647 223.143 296.275 223.191V221.871C296.635 221.919 297.031 221.943 297.655 221.943H300.907V221.259C300.907 220.659 300.883 220.299 300.835 219.951H302.275C302.227 220.323 302.203 220.683 302.203 221.271V221.943H304.243C303.835 221.403 303.583 221.139 302.971 220.623L303.907 219.927C304.711 220.623 304.711 220.623 305.395 221.403L304.675 221.943H305.503C306.115 221.943 306.511 221.919 306.883 221.871V223.191C306.511 223.143 306.115 223.119 305.503 223.119ZM297.211 224.199L298.243 223.431C298.939 224.163 299.347 224.691 299.899 225.531L298.771 226.335C298.303 225.483 297.823 224.835 297.211 224.199ZM300.343 226.119L300.775 227.319C299.611 228.183 299.383 228.327 297.631 229.359C297.331 229.539 297.175 229.635 296.959 229.791L296.323 228.435C296.839 228.267 297.319 228.039 298.087 227.619C298.999 227.103 299.515 226.767 300.343 226.119Z" fill="#20AEE5"/>
</g>
<defs>
<clipPath id="clip0_522_12529">
<rect width="7" height="5.25" fill="white" transform="translate(70.25 26.375)"/>
</clipPath>
<clipPath id="clip1_522_12529">
<rect width="321" height="141.031" fill="white" transform="translate(3.25 90)"/>
</clipPath>
</defs>
</svg>
