<svg width="511" height="133" viewBox="0 0 511 133" fill="none" xmlns="http://www.w3.org/2000/svg">
<path d="M0 106.001H184V127.001H0V106.001Z" fill="#E1F0F8"/>
<path d="M237 106.001H312V127.001H237V106.001Z" fill="#E1F0F8"/>
<path d="M5.58799 56.1544V41.8744H11.708V38.1684H1.54199V56.1544H5.58799Z" fill="#20AEE5"/>
<path d="M21.46 49.2864H19.998C18.4 49.2864 17.652 49.2524 16.666 49.0824V52.8904C17.686 52.7204 18.468 52.6864 19.998 52.6864H21.46V57.2424H20.678C19.148 57.2424 18.264 57.2084 17.346 57.0724V60.8124C18.298 60.6424 19.046 60.6084 20.372 60.6084H43.56C45.022 60.6084 45.838 60.6424 46.722 60.8124V57.0724C45.838 57.2084 45.09 57.2424 43.492 57.2424H42.812V52.6864H44.138C45.702 52.6864 46.484 52.7204 47.47 52.8904V49.0824C46.484 49.2524 45.736 49.2864 44.138 49.2864H42.812V44.7644C44.546 44.7984 45.022 44.8324 46.144 44.9344V41.1944C45.09 41.3304 43.934 41.3984 41.86 41.3984H25.37C25.846 40.6844 26.118 40.2424 26.458 39.6644C26.9 38.8484 26.9 38.8484 27.172 38.4404L23.228 37.6924C23.092 38.2024 22.82 38.7804 22.514 39.3584C21.256 41.7044 19.386 43.6084 16.19 45.9204C17.176 46.7364 17.618 47.2124 18.672 48.5044C19.998 47.4504 20.508 47.0424 21.46 46.1244V49.2864ZM24.826 44.7644H27.58V49.2864H24.826V44.7644ZM24.826 52.6864H27.58V57.2424H24.826V52.6864ZM30.674 57.2424V52.6864H33.496V57.2424H30.674ZM30.674 49.2864V44.7644H33.496V49.2864H30.674ZM36.556 57.2424V52.6864H39.446V57.2424H36.556ZM36.556 49.2864V44.7644H39.446V49.2864H36.556ZM47.266 67.4424C45.838 64.8584 44.818 63.3284 42.846 60.9144L39.922 62.3764C41.928 65.2324 42.778 66.6604 44.002 69.4824L47.266 67.4424ZM38.018 68.6324C37.406 65.7424 36.964 64.2464 36.012 61.5604L32.714 62.3084C33.598 65.1984 33.802 66.1504 34.312 69.4484L38.018 68.6324ZM30.13 69.2104C29.994 66.3544 29.79 64.8584 29.212 61.7644L25.914 62.1384C26.152 63.8044 26.424 66.8644 26.424 68.1564C26.424 68.5304 26.424 69.0064 26.424 69.5504L30.13 69.2104ZM19.59 69.6864C21.698 67.2384 22.582 65.8444 23.976 62.5464L20.848 60.9824C19.692 63.8384 18.706 65.3004 16.632 67.3404L19.59 69.6864Z" fill="#20AEE5"/>
<path d="M66.368 64.1784C67.116 63.9404 68.102 63.6684 69.598 63.3284L76.806 61.6964V65.8104C76.806 67.8844 76.772 68.7004 76.602 69.8564H80.716C80.546 68.7684 80.512 67.7484 80.512 65.8444V60.8804L80.852 60.8124C82.246 60.4724 83.198 60.3024 84.116 60.2004L83.402 56.3244C82.518 56.6644 81.906 56.8344 80.512 57.1744V42.4184C80.512 40.5484 80.546 39.6304 80.716 38.5084H76.602C76.772 39.5624 76.806 40.4804 76.806 42.4524V57.9904L68.85 59.7584C67.694 59.9964 66.504 60.2004 65.722 60.2344C66.062 59.4864 66.198 59.1804 66.674 58.3304C64.804 56.8004 63.546 55.2704 62.288 53.1284H63.512C64.702 53.1284 65.382 53.1624 66.198 53.2644V49.7284C65.45 49.8304 64.872 49.8644 63.58 49.8644H61.982V41.7724C61.982 40.1404 62.016 39.3584 62.152 38.4744H58.276C58.412 39.2904 58.446 40.2764 58.446 41.8064V49.8644H56.168C54.604 49.8644 53.89 49.8304 53.108 49.6944V53.2984C53.924 53.1624 54.672 53.1284 56.168 53.1284H57.936C56.984 55.3724 56.848 55.7124 56.134 56.9704C54.978 59.0444 53.89 60.5404 52.462 62.0024C53.21 62.9544 53.822 64.1784 54.196 65.5044C55.998 63.4984 57.086 61.5944 58.616 57.8544C58.548 58.9764 58.48 60.5744 58.48 61.9344V66.3204C58.48 67.8164 58.412 68.8364 58.242 69.9244H62.186C62.016 68.9044 61.982 68.0204 61.982 66.3884V60.7784C61.982 59.6904 61.948 59.2144 61.778 56.9024C62.832 58.7724 63.784 60.0984 65.212 61.6964C65.382 61.1524 65.416 60.9824 65.586 60.5404L66.368 64.1784ZM52.87 41.6364C53.822 43.6764 54.434 45.7844 54.978 48.9124L57.834 47.6884C57.358 45.1044 56.848 43.3704 55.76 40.3444L52.87 41.6364ZM64.566 40.2764C63.886 43.5744 63.308 45.3424 62.22 47.6204L64.702 48.9124C66.096 45.8524 66.538 44.6624 67.422 41.5344L64.566 40.2764ZM67.796 43.3704C71.128 45.7844 71.298 45.9204 73.814 48.6064L76.126 45.7504C74.188 43.7444 73.1 42.7924 70.176 40.7524L67.796 43.3704ZM66.742 51.7684C69.19 53.4344 70.346 54.4544 72.726 57.0044L75.038 54.2504C73.27 52.3464 71.808 51.0884 69.122 49.2524L66.742 51.7684Z" fill="#20AEE5"/>
<path d="M95.432 61.2544C96.282 62.1724 96.69 62.7504 97.438 64.0424C99.138 62.5464 99.682 61.9684 101.008 60.3364V63.5324C101.722 63.4304 102.47 63.3964 103.422 63.3964H105.802V66.1164C105.802 67.3744 105.734 68.5644 105.564 69.8224H109.61C109.44 68.5984 109.372 67.4424 109.372 66.1164V63.3964H111.922C112.976 63.3964 113.69 63.4304 114.404 63.5324V60.3024C115.594 61.7644 116.41 62.5804 118.212 64.2464C119.096 62.6144 119.64 61.7984 120.558 60.7444C118.008 58.8064 116.172 57.0044 114.778 55.0664C112.84 52.4484 111.922 50.8504 110.8 48.2324H115.798C117.09 48.2324 118.45 48.3004 119.606 48.4364V44.5944C118.518 44.7304 117.192 44.7984 115.696 44.7984H109.406V41.7384C109.406 40.5484 109.474 39.5624 109.61 38.5084H105.564C105.734 39.5284 105.802 40.5824 105.802 41.7044V44.7984H100.838C99.512 44.7984 98.186 44.7304 97.132 44.6284V48.4364C98.254 48.3004 99.58 48.2324 100.736 48.2324H104.374C102.47 53.1624 99.138 57.7184 95.432 60.5404V47.2124C96.588 44.7644 97.404 42.7584 98.628 39.2564L94.854 38.2364C93.834 43.4044 91.454 48.0624 87.714 52.1424C88.36 53.4344 88.768 54.5904 89.21 56.2564C90.298 55.0664 90.944 54.1824 91.862 52.6184C91.794 54.1144 91.794 54.6584 91.794 56.4604V65.8444C91.794 67.5784 91.726 68.5304 91.59 69.8224H95.602C95.466 68.7684 95.432 67.6464 95.432 65.8784V61.2544ZM109.372 60.0644V55.8144C109.372 54.4544 109.372 53.6384 109.304 51.7344C110.766 55.0664 112.194 57.4464 114.132 59.9624C113.35 60.0304 112.84 60.0644 111.854 60.0644H109.372ZM105.802 60.0644H103.558C102.572 60.0644 101.994 60.0304 101.314 59.9624C103.32 57.3784 104.34 55.5424 105.87 51.8364C105.802 53.4344 105.802 54.1484 105.802 55.9164V60.0644Z" fill="#20AEE5"/>
<path d="M150.166 48.8784C151.118 48.8784 151.73 48.9124 152.546 49.0144V47.3144C153.328 47.8244 153.77 48.0624 155.028 48.7084C155.368 47.3824 155.81 46.3964 156.558 45.2064C153.906 43.9824 152.682 43.2344 150.982 41.7724C149.69 40.6844 148.976 39.8684 148.194 38.6444H144.59C143.774 40.1064 142.822 41.2284 141.36 42.5544C139.932 43.8464 138.912 44.5604 137.348 45.4784V44.5604C136.6 44.6624 135.988 44.6964 135.07 44.6964H134.39V42.4864H135.512C136.702 42.4864 137.28 42.5204 138.096 42.6564V39.3584C137.144 39.4944 136.498 39.5284 134.9 39.5284H128.95C127.386 39.5284 126.502 39.4944 125.516 39.3584C125.618 40.3444 125.652 41.1604 125.652 42.8604V54.6244C125.652 55.7804 125.618 56.6984 125.516 57.5144C126.264 57.4464 127.216 57.4124 128.27 57.4124H135.172C135.172 59.3844 135.104 60.3024 134.968 62.1044C134.696 60.5064 134.526 59.8604 133.914 58.0244L132.622 58.4324C132.996 59.6224 133.438 61.6964 133.54 63.0564L134.934 62.4784C134.594 66.0824 134.356 66.4904 132.928 66.4904C132.214 66.4904 131.602 66.3884 130.616 66.1844C130.99 67.2724 131.16 68.1904 131.16 69.5504C131.942 69.6184 132.316 69.6524 133.064 69.6524C135.716 69.6524 136.464 69.2104 137.11 67.2044C137.926 68.0204 138.538 68.9044 139.116 70.0944C142.788 68.3604 145.202 65.9804 146.732 62.5804C148.432 65.8444 151.084 68.3264 154.756 70.0944C155.232 68.6664 155.708 67.6804 156.524 66.5244C154.144 65.5044 153.056 64.8584 151.832 63.8384C150.608 62.8184 149.724 61.7304 148.908 60.2004H151.968C152.92 60.2004 153.6 60.2344 154.586 60.3024C154.518 59.6224 154.484 59.1464 154.484 57.8544V53.2644C154.484 52.4484 154.518 51.5984 154.62 50.8504C153.872 50.9184 153.26 50.9524 151.866 50.9524H148.296C148.296 50.3064 148.296 50.1364 148.262 48.8784H150.166ZM145.032 48.8784V50.9524H141.7C140.34 50.9524 139.694 50.9184 139.014 50.8504C139.082 51.7344 139.116 52.1424 139.116 53.2644V57.8544C139.116 58.9424 139.082 59.5544 138.98 60.3364C139.864 60.2344 140.578 60.2004 141.666 60.2004H144.08C142.924 63.1244 140.612 65.3344 137.246 66.7964C137.756 64.4504 138.096 60.7444 138.164 57.1064C138.198 55.6444 138.232 54.8964 138.3 54.2844C137.62 54.3864 137.008 54.4204 135.58 54.4204H134.39V52.1424H135.036C135.886 52.1424 136.566 52.1764 137.314 52.2784V49.3884C136.566 49.4904 136.124 49.5244 135.036 49.5244H134.39V47.3144H135.07C135.988 47.3144 136.6 47.3484 137.348 47.4504V46.1244C138.13 47.2124 138.436 47.8244 138.776 48.8104C139.864 48.1304 140.238 47.8584 140.918 47.3824V49.0144C141.598 48.9124 142.312 48.8784 143.23 48.8784H145.032ZM144.998 53.7404C144.964 55.2704 144.896 56.1544 144.76 57.3444H142.278V53.7404H144.998ZM151.288 53.7404V57.3444H148.024C148.126 56.3244 148.16 55.7464 148.228 53.7404H151.288ZM131.432 52.1424V54.4204H128.916V52.1424H131.432ZM131.432 49.5244H128.916V47.3144H131.432V49.5244ZM131.432 44.6964H128.916V42.4864H131.432V44.6964ZM143.264 45.8864H142.754C144.42 44.3564 145.1 43.5744 146.392 41.7724C147.888 43.6424 148.738 44.4924 150.506 45.8864H143.264ZM125.414 58.3304C125.278 61.6964 124.802 64.4844 123.884 67.0684L126.332 68.2584C127.114 65.3004 127.42 63.2604 127.692 58.8404L125.414 58.3304ZM128.1 58.8404C128.202 60.2004 128.236 60.6084 128.236 62.2404C128.236 64.5524 128.202 65.1984 128.1 66.9324L130.344 66.5924C130.344 65.8444 130.344 65.3004 130.344 64.9264C130.344 62.8524 130.242 61.0844 130.004 58.5344L128.1 58.8404ZM130.514 58.7384C130.956 60.9484 131.058 61.9684 131.194 65.5384L133.03 64.9944C132.86 62.4104 132.588 60.3704 132.078 58.3304L130.514 58.7384Z" fill="#20AEE5"/>
<path d="M186.812 59.1124V65.4704C186.812 66.0824 186.574 66.2184 185.52 66.2184C184.738 66.2184 184.058 66.1504 182.528 65.8784C183.038 67.3064 183.242 68.1564 183.412 69.6184C185.078 69.7204 185.146 69.7204 185.554 69.7204C187.05 69.7204 188.24 69.5504 188.92 69.2444C189.872 68.8364 190.348 67.7824 190.348 66.1164V43.5744C190.348 41.7044 190.382 40.6844 190.484 39.8344C189.464 39.9364 188.682 39.9704 186.812 39.9704H181.882C180.114 39.9704 179.196 39.9364 178.108 39.8344C178.244 40.9904 178.278 41.9424 178.278 44.2544C178.278 52.9924 178.074 58.0244 177.598 60.9484C177.122 63.6684 176.34 65.4024 174.674 67.2724C175.864 68.2584 176.51 68.8364 177.564 70.0264C179.944 66.9664 180.794 64.4844 181.304 59.1124H186.812ZM186.812 51.0884V55.8824H181.542C181.644 54.3524 181.678 53.0944 181.712 51.0884H186.812ZM186.812 47.8244H181.746V43.3364H186.812V47.8244ZM163.25 42.2484C161.822 42.2484 161.244 42.2144 160.666 42.0784V45.5124C161.278 45.4104 161.822 45.3764 163.25 45.3764V58.5004H162.808C161.516 58.5004 160.972 58.4664 160.292 58.3644V61.7984C160.938 61.6964 161.516 61.6624 162.91 61.6624H174.062C175.456 61.6624 176.272 61.6964 176.918 61.7644V58.3644C176.306 58.4664 176 58.4664 174.878 58.5004V45.3764C176.102 45.3764 176.612 45.4104 177.19 45.5124V42.0784C176.612 42.1804 176.068 42.2144 174.878 42.2484V41.6704C174.878 40.4124 174.912 39.5624 175.048 38.7804H171.342C171.478 39.5284 171.512 40.3444 171.512 41.6704V42.2484H166.616V41.6704C166.616 40.4464 166.65 39.5964 166.786 38.7804H163.08C163.216 39.5964 163.25 40.4464 163.25 41.6704V42.2484ZM166.616 58.5004V55.9164H171.512V58.5004H166.616ZM166.616 52.9244V50.6124H171.512V52.9244H166.616ZM166.616 47.6204V45.3764H171.512V47.6204H166.616ZM165.256 61.9684C163.828 64.3144 162.638 65.5724 160.292 67.2384C161.652 68.3604 162.162 68.9044 162.91 69.9244C165.494 67.6464 166.412 66.5924 168.146 63.7364L165.256 61.9684ZM169.642 63.8044C171.002 66.0484 171.002 66.0484 172.94 68.1904C173.654 67.2384 174.436 66.4904 175.49 65.6744C173.586 63.9404 173.518 63.8724 172.328 62.0364L169.642 63.8044Z" fill="#20AEE5"/>
<path d="M218.766 55.9164C218.766 54.5904 218.8 53.7404 218.868 52.8564C217.882 52.9584 217.134 52.9924 215.706 52.9924H208.124C206.73 52.9924 205.948 52.9584 204.962 52.8564C205.03 53.7744 205.064 54.7264 205.064 55.9164V64.2124C205.064 65.4364 204.962 66.7964 204.826 67.6124H208.43V65.7084H215.638C215.91 65.7084 216.556 65.7084 217.542 65.7424C218.052 67.1024 218.222 67.7144 218.426 69.2444C220.16 69.3464 220.296 69.3464 220.772 69.3464C222.88 69.3464 223.9 69.2444 224.614 68.9384C225.838 68.4284 226.246 67.5444 226.246 65.5044V43.2344C226.246 41.5344 226.28 40.6844 226.382 39.4604C225.43 39.5624 224.58 39.5964 222.88 39.5964H216.352C214.618 39.5964 213.802 39.5624 212.884 39.4604C212.952 40.5144 212.986 41.4664 212.986 42.6224V47.8244C212.986 49.2864 212.952 49.9324 212.884 50.9184C213.734 50.8504 214.822 50.8164 216.012 50.8164H222.71V65.0284C222.71 65.7084 222.404 65.9464 221.452 65.9464C220.84 65.9464 219.616 65.8444 218.868 65.7764C218.8 64.8924 218.766 64.1104 218.766 62.8184V55.9164ZM216.352 42.3504H222.71V44.0504H216.352V42.3504ZM216.352 46.4644H222.71V48.1984H216.352V46.4644ZM208.43 55.8484H215.366V57.8884H208.43V55.8484ZM208.43 60.6424H215.366V62.8524H208.43V60.6424ZM201.324 50.8164H207.478C208.668 50.8164 209.722 50.8504 210.606 50.9184C210.538 50.1704 210.504 49.3884 210.504 47.8244V42.6224C210.504 41.2964 210.538 40.5484 210.606 39.4604C209.688 39.5624 208.906 39.5964 207.138 39.5964H201.12C199.454 39.5964 198.57 39.5624 197.618 39.4604C197.72 40.5484 197.754 41.5004 197.754 43.2684V65.4704C197.754 67.5784 197.686 68.6664 197.55 69.6864H201.528C201.392 68.7684 201.324 67.5444 201.324 65.5044V50.8164ZM201.324 42.3504H207.172V44.0504H201.324V42.3504ZM201.324 46.4644H207.172V48.1984H201.324V46.4644Z" fill="#20AEE5"/>
<path d="M238.412 52.0064V66.2864H232.292V69.9924H242.458V52.0064H238.412Z" fill="#20AEE5"/>
<path d="M259.641 43.7721C259.786 44.2071 259.815 44.2651 260.105 45.6571C260.83 49.2241 261.323 51.1671 262.048 53.5161C260.163 54.4731 259.235 55.0531 258.104 56.0101C256.451 57.4021 255.523 59.2581 255.523 61.2011C255.523 63.2891 256.451 65.0871 258.046 66.0441C259.902 67.1461 262.425 67.6391 266.456 67.6391C268.486 67.6391 270.11 67.5231 273.242 67.2041C274.808 67.0301 274.953 67.0011 275.591 67.0011L275.272 63.0281C273.097 63.7821 269.53 64.2171 265.905 64.2171C261.236 64.2171 259.264 63.3181 259.264 61.2011C259.264 59.1131 261.381 57.2571 265.615 55.6911C268.863 54.5021 272.662 53.4001 275.185 52.9071L273.938 49.2531C273.503 49.4561 273.358 49.5141 272.836 49.6881C267.21 51.5441 267.21 51.5441 265.325 52.2401C264.397 49.2821 263.527 45.1061 263.411 43.1631L259.641 43.7721Z" fill="#20AEE5"/>
<path d="M286.915 43.8301C287.002 44.5841 287.031 44.9901 287.031 45.8021C287.031 46.2081 287.031 46.8171 287.002 47.6871C286.828 54.9661 286.77 57.8661 286.77 59.3741C286.77 63.2601 287.611 65.4931 289.612 66.8271C290.83 67.6391 292.686 68.1031 294.687 68.1031C298.341 68.1031 301.212 66.8851 303.387 64.4201C304.808 62.8251 305.678 60.9401 306.838 57.0251C305.417 56.3871 304.895 56.0681 303.329 54.7921C303.01 56.7931 302.633 58.1561 301.995 59.6641C300.632 62.8541 298.109 64.6231 294.977 64.6231C293.15 64.6231 291.758 64.0721 291.091 63.1151C290.511 62.2451 290.337 61.2011 290.337 58.4461C290.337 56.3871 290.511 50.5001 290.627 47.8031C290.743 45.5701 290.801 44.7291 290.975 43.8881L286.915 43.8301Z" fill="#20AEE5"/>
<path d="M312.049 50.6161C313.18 50.3841 314.92 50.1811 316.863 50.0361C323.156 49.5721 324.287 49.4851 326.636 49.1371C324.751 50.0941 323.707 50.8481 322.605 52.0371C320.836 53.9801 319.85 56.4161 319.85 58.8811C319.85 61.8971 321.329 64.3621 323.997 65.8701C325.766 66.8561 327.593 67.3781 330.783 67.7841C331.276 67.8421 331.421 67.8711 331.769 67.9581L332.291 64.0141C332.001 64.0431 331.74 64.0431 331.711 64.0431C330.667 64.0431 328.811 63.7241 327.39 63.2891C324.954 62.5641 323.533 60.8241 323.533 58.5621C323.533 55.6331 325.708 52.7331 329.391 50.8191C331.247 49.8331 333.393 49.2531 335.133 49.2531C335.423 49.2531 335.423 49.2531 335.742 49.2821L335.539 45.5701C335.017 45.7151 334.582 45.7441 332.204 45.8601C324.171 46.2371 319.357 46.4981 317.733 46.5851C313.47 46.8751 313.47 46.8751 312.948 46.8751C312.803 46.8751 312.484 46.8751 311.846 46.8461L312.049 50.6161Z" fill="#20AEE5"/>
<path d="M471.165 106.951H503.89V120.371C503.89 121.691 503.56 121.856 501.415 121.856C499.435 121.856 496.685 121.636 493.055 121.251C494.045 123.506 494.43 125.046 494.76 127.191C496.905 127.301 499.93 127.411 502.075 127.411C505.045 127.411 506.805 127.191 507.85 126.641C509.445 125.816 510.105 124.276 510.105 121.471V86.2157C510.105 83.2457 510.16 81.8157 510.325 80.2207C509.005 80.3857 507.355 80.4407 504.33 80.4407H470.89C467.975 80.4407 466.545 80.3857 464.785 80.2207C464.95 81.8157 465.005 83.1907 465.005 85.5007V121.471C465.005 124.331 464.895 126.311 464.675 128.071H471.44C471.22 126.806 471.165 125.156 471.165 121.691V106.951ZM484.2 101.176H471.165V86.2707H484.2V101.176ZM490.14 101.176V86.2707H503.89V101.176H490.14Z" fill="#20AEE5"/>
<path fill-rule="evenodd" clip-rule="evenodd" d="M490.81 31.2306C491.321 33.6628 489.764 36.0487 487.332 36.5598L469.387 40.3304C466.954 40.8415 464.568 39.2841 464.057 36.8519C463.546 34.4198 465.104 32.0338 467.536 31.5228L485.481 27.7521C487.913 27.2411 490.299 28.7984 490.81 31.2306Z" fill="#20AEE5"/>
<path fill-rule="evenodd" clip-rule="evenodd" d="M490.821 62.7054C490.048 65.0672 487.506 66.3548 485.144 65.5813L467.718 59.8742C465.356 59.1007 464.068 56.559 464.842 54.1971C465.615 51.8353 468.157 50.5477 470.519 51.3212L487.945 57.0283C490.307 57.8018 491.595 60.3435 490.821 62.7054Z" fill="#20AEE5"/>
<path fill-rule="evenodd" clip-rule="evenodd" d="M477.297 2.62847C478.956 4.47927 478.8 7.32425 476.949 8.98291L463.293 21.221C461.442 22.8797 458.597 22.7239 456.939 20.8731C455.28 19.0223 455.436 16.1774 457.287 14.5187L470.942 2.28058C472.793 0.621917 475.638 0.777671 477.297 2.62847Z" fill="#20AEE5"/>
<path d="M450.234 66.343C450.234 76.491 449.231 85.636 447.225 93.778C445.337 101.92 442.505 108.823 438.729 114.487C435.071 120.151 430.469 124.517 424.923 127.585C419.495 130.653 413.241 132.187 406.161 132.187C399.081 132.187 392.768 130.653 387.222 127.585C381.676 124.517 377.015 120.151 373.239 114.487C369.463 108.823 366.572 101.92 364.566 93.778C362.678 85.636 361.734 76.491 361.734 66.343C361.734 56.195 362.678 47.05 364.566 38.908C366.572 30.766 369.463 23.863 373.239 18.199C377.015 12.535 381.676 8.16902 387.222 5.10102C392.768 2.03302 399.081 0.499023 406.161 0.499023C413.241 0.499023 419.495 2.03302 424.923 5.10102C430.469 8.16902 435.071 12.535 438.729 18.199C442.505 23.863 445.337 30.766 447.225 38.908C449.231 47.05 450.234 56.195 450.234 66.343ZM428.463 66.343C428.463 61.977 428.168 57.021 427.578 51.475C427.106 45.929 426.044 40.678 424.392 35.722C422.858 30.766 420.616 26.636 417.666 23.332C414.716 19.91 410.881 18.199 406.161 18.199C401.323 18.199 397.429 19.91 394.479 23.332C391.529 26.636 389.228 30.766 387.576 35.722C386.042 40.678 384.98 45.929 384.39 51.475C383.8 57.021 383.505 61.977 383.505 66.343C383.505 70.709 383.8 75.665 384.39 81.211C384.98 86.757 386.042 91.949 387.576 96.787C389.228 101.625 391.529 105.755 394.479 109.177C397.429 112.481 401.323 114.133 406.161 114.133C410.881 114.133 414.716 112.481 417.666 109.177C420.616 105.755 422.858 101.625 424.392 96.787C426.044 91.949 427.106 86.757 427.578 81.211C428.168 75.665 428.463 70.709 428.463 66.343Z" fill="#20AEE5"/>
<path d="M12.2958 95.7225H9.23581C7.70581 95.7225 6.92381 95.6885 6.03981 95.5185V99.2925C6.99181 99.1565 7.84181 99.0885 9.16781 99.0885H11.6158C11.1738 100.245 9.84781 102.761 8.96381 104.189C7.80781 106.059 6.71981 107.385 5.25781 108.745C5.97181 109.765 6.48181 110.717 7.16181 112.315C8.45381 110.955 9.16781 110.037 10.1198 108.575C10.9698 107.215 11.4458 106.263 12.4318 103.781C12.3298 104.937 12.2618 106.501 12.2618 107.861V113.539C12.2618 115.477 12.1938 116.599 12.0238 117.857H16.0698C15.8998 116.667 15.8658 115.681 15.8658 113.539V107.623C15.8658 105.889 15.7978 104.495 15.6958 103.339C16.9198 105.685 17.6678 106.739 19.6738 108.779C20.1158 107.657 20.7958 106.365 21.4758 105.447C18.9598 103.407 17.3618 101.537 16.0358 99.0885H18.5178C19.7758 99.0885 20.5918 99.1225 21.4418 99.2585V95.5525C20.6598 95.6885 19.8098 95.7225 18.5858 95.7225H15.8658V91.3365C17.3618 90.9285 18.9258 90.4525 21.3738 89.6025L19.1638 86.4745C17.0558 87.8345 11.6838 89.1605 6.07381 89.7385C6.71981 91.0305 7.05981 91.8465 7.33181 93.0025C9.37181 92.6965 10.0858 92.5945 12.2958 92.1525V95.7225ZM23.1758 88.9565C23.3458 90.1465 23.3798 91.0985 23.3798 93.0705V105.991C23.3798 108.269 23.3458 108.983 23.2098 109.969H27.2218C27.0858 108.949 27.0518 108.099 27.0518 105.923V93.0705C27.0518 91.0645 27.0858 90.0785 27.2558 88.9565H23.1758ZM31.1998 86.9165C31.3358 88.4125 31.4038 89.8405 31.4038 91.5405V112.791C31.4038 113.675 31.1658 113.811 29.6698 113.811C28.4118 113.811 27.1198 113.709 25.1818 113.505C25.7938 114.967 26.0658 115.749 26.3378 117.279C27.4938 117.347 28.0038 117.347 28.8538 117.347C31.6078 117.347 32.7638 117.211 33.5798 116.769C34.6678 116.191 35.1098 115.205 35.1098 113.403V91.5405C35.1098 89.6025 35.1778 88.2765 35.3478 86.9165H31.1998Z" fill="#20AEE5"/>
<path d="M55.5378 107.113V112.723C55.5378 114.729 55.4698 115.715 55.3338 116.735H59.3458C59.2098 115.749 59.1758 114.661 59.1758 112.689V107.113H67.3358V113.063C67.3358 113.777 67.0298 113.913 65.6358 113.913C64.5478 113.913 63.0518 113.811 61.3518 113.641C61.8958 115.069 62.1338 115.885 62.3038 117.177C63.3238 117.245 65.0578 117.313 66.1118 117.313C69.9878 117.313 71.0078 116.599 71.0078 113.777V91.4385C71.0078 89.6025 71.0418 88.7525 71.1438 87.5965C70.0898 87.6985 69.1378 87.7325 67.2338 87.7325H48.1598C46.3238 87.7325 45.4398 87.6985 44.2498 87.5965C44.3858 88.9905 44.4198 90.0785 44.4198 92.5265C44.4198 96.5385 44.2838 101.367 44.1138 104.223C44.0118 106.059 43.7738 107.827 43.4338 109.425C42.9578 111.601 42.1758 113.403 40.9518 115.171C42.3458 116.123 42.8218 116.497 44.2498 117.857C46.2218 114.831 47.2418 111.635 47.7178 107.113H55.5378ZM55.5378 103.747H47.9558C47.9558 103.067 47.9558 102.829 47.9898 101.231C47.9898 100.755 48.0238 100.075 48.0238 99.0885H55.5378V103.747ZM59.1758 103.747V99.0885H67.3358V103.747H59.1758ZM55.5378 95.7565H48.0918L48.1258 94.8045V91.3025H55.5378V95.7565ZM59.1758 95.7565V91.3025H67.3358V95.7565H59.1758Z" fill="#20AEE5"/>
<path d="M87.6618 106.025C85.9278 106.025 85.0778 105.991 84.1258 105.889V109.017C85.0098 108.881 85.9618 108.847 87.7298 108.847C87.3218 111.601 86.3698 113.131 84.0918 114.899C85.2478 115.715 85.9278 116.293 86.8118 117.245C89.4298 114.695 90.5518 112.451 90.9258 108.847H94.7338V113.845C94.7338 115.341 94.6998 115.953 94.5638 116.769H98.1338C97.9978 116.021 97.9638 115.443 97.9638 113.879V108.847H98.4738C100.106 108.847 100.956 108.881 101.976 109.017V105.889C101.024 105.991 100.174 106.025 98.4738 106.025H97.9638V102.897C99.6638 102.897 100.582 102.931 101.5 103.033V99.9725C100.548 100.109 99.6298 100.143 97.9638 100.143H88.1038C86.5058 100.143 85.5878 100.109 84.6698 99.9725V103.033C85.5878 102.931 86.5058 102.897 88.0698 102.897C88.0698 104.461 88.0698 104.835 88.0018 106.025H87.6618ZM94.7338 102.897V106.025H91.1638C91.2318 104.427 91.2318 104.427 91.2318 102.897H94.7338ZM82.3238 98.5445H88.6478C89.8378 98.5445 90.8918 98.5785 91.7758 98.6465C91.7078 97.7625 91.6738 97.1165 91.6738 95.5865V90.3505C91.6738 89.1605 91.7078 88.1745 91.7758 87.1885C90.8578 87.2905 90.0758 87.3245 88.3078 87.3245H82.1198C80.4538 87.3245 79.5698 87.2905 78.6178 87.1885C78.7198 88.2765 78.7538 89.2285 78.7538 90.9965V113.437C78.7538 115.545 78.6858 116.667 78.5498 117.653H82.5278C82.3918 116.667 82.3238 115.511 82.3238 113.505V98.5445ZM82.3238 89.8745H88.3418V91.6765H82.3238V89.8745ZM82.3238 94.0905H88.3418V95.9265H82.3238V94.0905ZM107.348 90.9625C107.348 89.2625 107.382 88.4465 107.484 87.1885C106.532 87.2905 105.682 87.3245 103.982 87.3245H97.4878C95.7538 87.3245 94.9718 87.2905 94.0198 87.1885C94.0878 88.1745 94.1218 89.0585 94.1218 90.3505V95.5865C94.1218 97.1165 94.1218 97.6605 94.0538 98.6465C94.8698 98.5785 95.9578 98.5445 97.1478 98.5445H103.812V112.995C103.812 113.743 103.608 113.879 102.52 113.879C101.704 113.879 100.616 113.777 99.3918 113.607C99.9358 114.933 100.106 115.681 100.31 117.211C101.432 117.279 101.908 117.279 102.52 117.279C106.328 117.279 107.348 116.497 107.348 113.471V90.9625ZM97.4878 89.8745H103.812V91.6765H97.4878V89.8745ZM97.4878 94.0905H103.812V95.9265H97.4878V94.0905Z" fill="#20AEE5"/>
<path d="M126.11 101.333C126.79 101.163 127.266 101.095 129 100.925C133.624 100.517 135.902 100.279 140.628 99.6665C141.104 100.755 141.206 100.993 141.75 102.353L145.082 100.347C143.076 96.0965 142.226 94.6685 139.302 90.4525L136.038 91.9825C137.636 94.1585 138.248 95.1105 139.132 96.6405C136.14 96.9805 136.106 96.9805 132.06 97.2865C133.454 94.0905 133.998 92.6285 135.12 89.0585C135.562 87.6645 135.63 87.4945 135.834 87.0865L131.686 86.2705C131.516 88.3105 130.258 92.5945 128.796 96.0625C128.388 96.9805 128.388 96.9805 128.184 97.5245C127.436 97.5245 127.402 97.5245 126.926 97.5245C126.552 97.5245 126.348 97.5245 125.94 97.4905C126.11 96.1645 126.144 95.5525 126.246 94.2265C126.314 93.2405 126.314 93.2405 126.382 92.6625C125.6 92.7645 124.682 92.7985 123.288 92.7985H121.044C121.486 90.2825 121.52 89.9765 121.724 88.7185C121.894 87.6305 121.996 87.0185 122.098 86.6105L118.256 86.2705C118.256 86.4405 118.256 86.6105 118.256 86.6785C118.256 88.0045 118.018 90.0105 117.542 92.7985H116.522C115.502 92.7985 114.618 92.7305 113.768 92.5945V96.2665C114.516 96.1645 115.332 96.0965 116.182 96.0965H116.93C116.182 99.7005 115.366 102.353 114.074 105.379C116.386 106.807 117.168 107.351 118.902 108.711C117.338 111.057 115.808 112.553 113.122 114.423C114.21 115.375 114.924 116.191 115.672 117.381C118.528 115.239 119.99 113.641 121.656 111.091C122.71 112.077 123.254 112.655 124.648 114.219L126.926 110.989C125.362 109.391 124.784 108.847 123.424 107.725C124.546 105.005 125.192 102.625 125.736 99.0545L126.11 101.333ZM122.778 96.0965C122.37 100.313 121.826 102.795 120.602 105.583C120.058 105.175 119.616 104.869 118.256 103.985C119.174 101.401 119.854 98.9525 120.432 96.0965H122.778ZM131.006 116.123H139.2V117.823H142.974C142.804 116.939 142.77 115.953 142.77 114.423V106.195C142.77 104.529 142.804 103.679 142.906 102.761C142.226 102.863 141.308 102.897 139.744 102.897H130.19C129 102.897 128.082 102.863 127.3 102.761C127.368 103.611 127.436 104.665 127.436 105.957V114.763C127.436 116.225 127.368 117.075 127.3 117.823H131.006V116.123ZM130.972 106.229H139.2V112.825H130.972V106.229Z" fill="#20AEE5"/>
<path d="M172.548 107.147V113.029C172.548 113.777 172.31 113.947 171.29 113.947C169.896 113.947 168.026 113.811 166.292 113.539C166.87 114.933 167.074 115.715 167.278 117.347C169.012 117.449 170.134 117.483 171.222 117.483C173.466 117.483 174.418 117.313 175.166 116.803C176.016 116.259 176.39 115.273 176.39 113.573V91.5405C176.39 89.5345 176.424 88.6165 176.56 87.6985C175.404 87.8345 174.486 87.8685 172.616 87.8685H158.438C156.704 87.8685 155.786 87.8345 154.46 87.6985C154.596 88.8885 154.63 90.3845 154.63 92.8325C154.63 101.673 154.29 105.651 153.27 108.813C152.488 111.363 151.536 112.893 149.632 114.797C150.958 115.749 151.808 116.599 152.794 117.925C154.732 115.749 155.888 113.777 156.806 111.193C157.214 110.003 157.486 108.881 157.792 107.147H172.548ZM158.2 103.679C158.404 100.925 158.472 100.177 158.472 99.1225H172.548V103.679H158.2ZM158.506 95.6545V91.4045H172.548V95.6545H158.506Z" fill="#20AEE5"/>
<path d="M196.641 91.7721C196.786 92.2071 196.815 92.2651 197.105 93.6571C197.83 97.2241 198.323 99.1671 199.048 101.516C197.163 102.473 196.235 103.053 195.104 104.01C193.451 105.402 192.523 107.258 192.523 109.201C192.523 111.289 193.451 113.087 195.046 114.044C196.902 115.146 199.425 115.639 203.456 115.639C205.486 115.639 207.11 115.523 210.242 115.204C211.808 115.03 211.953 115.001 212.591 115.001L212.272 111.028C210.097 111.782 206.53 112.217 202.905 112.217C198.236 112.217 196.264 111.318 196.264 109.201C196.264 107.113 198.381 105.257 202.615 103.691C205.863 102.502 209.662 101.4 212.185 100.907L210.938 97.2531C210.503 97.4561 210.358 97.5141 209.836 97.6881C204.21 99.5441 204.21 99.5441 202.325 100.24C201.397 97.2821 200.527 93.1061 200.411 91.1631L196.641 91.7721Z" fill="#20AEE5"/>
<path d="M218.014 110.651C220.537 112.652 222.19 114.392 224.307 117.263L227.004 114.74C224.771 111.985 223.147 110.39 220.479 108.36L218.014 110.651Z" fill="#20AEE5"/>
<path d="M335.678 99.0505C337.273 101.167 339.071 105.43 339.651 108.475L342.957 106.822C342.116 103.487 340.608 100.355 338.607 97.6005L335.678 99.0505ZM327.152 92.6705C327.21 92.3805 327.297 92.0035 327.384 91.7715L323.614 91.3945C323.614 91.6265 323.614 91.8005 323.614 91.9165C323.614 92.9025 323.411 94.5555 322.86 97.7745C319.496 98.2095 317.988 98.3545 316.683 98.3835L317.031 101.805C317.437 101.689 317.756 101.602 318.22 101.515L320.859 101.08C321.787 100.906 321.787 100.906 322.222 100.848C320.859 106.242 318.626 111.462 316.393 114.507L319.757 116.363C322.947 110.041 324.252 106.532 325.673 100.587C326.34 100.529 326.804 100.5 327.413 100.5C329.646 100.5 330.313 101.283 330.313 103.951C330.313 106.416 330.023 109.055 329.559 110.563C329.124 111.984 328.66 112.535 327.819 112.535C326.804 112.535 325.151 112.071 323.585 111.375C323.817 112.506 323.875 113.086 323.875 113.84C323.875 114.13 323.846 114.565 323.817 115.116C325.76 115.754 326.949 115.986 328.283 115.986C329.82 115.986 330.69 115.638 331.502 114.681C332.894 113.086 333.735 109.113 333.735 104.125C333.735 101.486 333.358 100.094 332.372 98.9925C331.415 97.9775 329.994 97.4555 328.08 97.4555C327.558 97.4555 327.152 97.4845 326.282 97.5135C326.369 97.1365 326.369 97.1365 326.456 96.6435C326.746 95.0775 326.949 93.8885 327.094 93.0475L327.152 92.6705ZM333.88 92.8735C335.156 94.2655 335.968 95.4255 336.925 97.1945L338.955 96.1215C337.969 94.3235 337.186 93.2215 335.91 91.8585L333.88 92.8735ZM342.406 94.2365C341.507 92.5835 340.695 91.4815 339.39 90.1475L337.447 91.1625C338.578 92.4095 339.535 93.7725 340.405 95.3675L342.406 94.2365Z" fill="#20AEE5"/>
<path d="M273.382 91.0309C273.382 89.3989 273.416 88.3789 273.518 87.5289C272.838 87.6649 271.954 87.6989 270.254 87.6989H262.944C261.21 87.6989 260.224 87.6309 259.34 87.4609V91.1669C260.19 91.0649 260.836 90.9969 261.822 90.9969L259.884 93.0029C261.754 94.0569 262.944 94.8729 264.78 96.4029L267.024 94.0229C265.018 92.5269 264.167 91.9829 262.332 90.9969H269.948V98.5109C269.948 99.1909 269.778 99.3269 268.792 99.3269C268.316 99.3269 267.772 99.2929 266.786 99.1909C267.398 98.8849 267.772 98.6809 268.86 98.1369L268.724 94.7709C266.072 96.1309 265.29 96.4709 263.488 97.1509C261.414 97.8989 260.598 98.1369 259.51 98.2729L260.53 101.435H257.538C258.15 100.789 258.319 100.211 258.319 98.9189V90.9629C258.319 89.0589 258.354 88.3109 258.456 87.5289C257.572 87.6309 256.858 87.6649 255.022 87.6649H247.678C246.114 87.6649 245.162 87.5969 244.21 87.4609V91.1669C245.094 90.9969 245.637 90.9629 247.168 90.9629L245.094 93.0709C247.133 94.2269 247.916 94.7709 249.956 96.5389L252.336 94.0229C250.432 92.5269 249.412 91.8809 247.678 90.9629H254.988V98.3409C254.988 98.9529 254.75 99.1569 254.07 99.1569C253.492 99.1569 252.506 99.1229 252.098 99.0549C252.676 98.7829 252.914 98.6469 253.866 98.1029L253.73 94.7029C249.31 97.1169 247.576 97.8309 243.938 98.6469L245.23 102.251C245.638 102.047 245.875 101.911 246.215 101.775C248.391 100.891 248.561 100.789 251.043 99.5649C251.417 101.027 251.452 101.231 251.52 102.183C252.54 102.251 252.982 102.285 253.764 102.285C255.634 102.285 256.382 102.183 257.13 101.741C257.198 102.319 257.232 102.761 257.232 103.305V104.291H249.378C247.847 104.291 246.828 104.223 245.774 104.087V107.725C246.896 107.589 247.882 107.555 249.48 107.555H253.56L250.534 108.609C251.554 110.547 251.758 110.989 252.472 113.335H247.916C246.283 113.335 244.992 113.267 243.938 113.131V117.007C244.992 116.871 246.283 116.803 248.051 116.803H269.88C271.614 116.803 273.008 116.871 273.994 117.007V113.131C273.042 113.267 271.75 113.335 270.016 113.335H265.324C266.208 111.703 266.888 110.275 267.635 108.575L264.44 107.555H268.554C270.05 107.555 271.104 107.589 272.192 107.725V104.087C271.24 104.257 270.254 104.291 268.486 104.291H260.733V103.305C260.733 102.693 260.734 102.455 260.836 101.775C261.278 101.571 261.584 101.401 262.264 101.163C263.93 100.483 264.134 100.415 265.732 99.6669C266.038 100.789 266.14 101.469 266.242 102.387C267.534 102.455 268.452 102.489 269.098 102.489C270.9 102.489 271.716 102.353 272.26 101.945C273.008 101.401 273.382 100.449 273.382 99.1569V91.0309ZM263.964 107.555C263.454 109.255 262.638 111.227 261.516 113.335H253.186L255.872 112.281C254.886 109.561 254.75 109.221 253.9 107.555H263.964Z" fill="#20AEE5"/>
<path d="M302.548 107.147V113.029C302.548 113.777 302.31 113.947 301.29 113.947C299.896 113.947 298.026 113.811 296.292 113.539C296.869 114.933 297.074 115.715 297.278 117.347C299.012 117.449 300.134 117.483 301.222 117.483C303.465 117.483 304.418 117.313 305.166 116.803C306.016 116.259 306.389 115.273 306.389 113.573V91.5409C306.389 89.5349 306.423 88.6169 306.559 87.6989C305.403 87.8349 304.486 87.8689 302.616 87.8689H288.438C286.704 87.8689 285.785 87.8349 284.459 87.6989C284.595 88.8889 284.63 90.3849 284.63 92.8329C284.63 101.673 284.29 105.651 283.27 108.813C282.488 111.363 281.536 112.893 279.632 114.797C280.958 115.749 281.807 116.599 282.793 117.925C284.731 115.749 285.888 113.777 286.806 111.193C287.214 110.003 287.485 108.881 287.792 107.147H302.548ZM288.2 103.679C288.404 100.925 288.472 100.177 288.472 99.1229H302.548V103.679H288.2ZM288.506 95.6549V91.4049H302.548V95.6549H288.506Z" fill="#20AEE5"/>
</svg>
