<svg width="145" height="32" viewBox="0 0 145 32" fill="none" xmlns="http://www.w3.org/2000/svg">
<g clip-path="url(#clip0_1302_11646)">
<path d="M16.8907 2.68434C16.4251 1.86847 15.7555 1.19099 14.9492 0.719965C14.143 0.248943 13.2284 0.000976563 12.2975 0.000976562C11.3666 0.000976563 10.452 0.248943 9.64576 0.719965C8.8395 1.19099 8.16992 1.86847 7.70432 2.68434L0.70644 14.9478C0.241585 15.7641 -0.00289163 16.6899 -0.00244078 17.6321C-0.00198993 18.5743 0.24337 19.4998 0.709006 20.3157C1.17464 21.1316 1.84417 21.8092 2.65036 22.2804C3.45656 22.7516 4.37105 22.9998 5.30202 23.0002H19.293C20.224 23.0001 21.1387 22.752 21.945 22.2808C22.7512 21.8096 23.4208 21.1319 23.8863 20.3159C24.3518 19.4998 24.5968 18.5741 24.5968 17.6318C24.5968 16.6895 24.3517 15.7638 23.8862 14.9478L16.8907 2.68434ZM20.4821 18.3248C20.3616 18.5361 20.1883 18.7116 19.9795 18.8336C19.7708 18.9557 19.534 19.02 19.293 19.0202H5.30202C5.06089 19.02 4.82404 18.9557 4.61528 18.8335C4.40651 18.7114 4.23317 18.5358 4.11267 18.3244C3.99217 18.1131 3.92875 17.8733 3.92879 17.6293C3.92883 17.3852 3.99232 17.1455 4.11289 16.9341L11.1084 4.67071C11.2286 4.45909 11.4018 4.28331 11.6106 4.16107C11.8194 4.03883 12.0563 3.97446 12.2975 3.97446C12.5387 3.97446 12.7756 4.03883 12.9844 4.16107C13.1932 4.28331 13.3664 4.45909 13.4866 4.67071L20.4821 16.9341C20.6025 17.1456 20.6658 17.3854 20.6658 17.6295C20.6658 17.8736 20.6025 18.1133 20.4821 18.3248V18.3248Z" fill="#20AEE5"/>
<path d="M34.8646 3.1167L28.5562 19.8804H31.511L33.1493 15.5041H40.2817L41.9417 19.8804H44.8965L38.5953 3.1167H34.8646ZM34.1319 12.9075L36.7456 5.91025L39.3665 12.9075H34.1319Z" fill="#20AEE5"/>
<path d="M49.0429 8.65771H46.3066V19.8805H49.0429V8.65771Z" fill="#20AEE5"/>
<path d="M47.6493 3.56404C47.1686 3.57865 46.7127 3.78337 46.3795 4.13428C46.0462 4.48518 45.8622 4.95431 45.8668 5.441C45.8668 5.92913 46.0584 6.39726 46.3994 6.74242C46.7405 7.08757 47.203 7.28148 47.6853 7.28148C48.1676 7.28148 48.6302 7.08757 48.9712 6.74242C49.3123 6.39726 49.5039 5.92913 49.5039 5.441C49.5061 5.19388 49.4597 4.94879 49.3673 4.72004C49.2748 4.49129 49.1383 4.28347 48.9657 4.10872C48.793 3.93398 48.5877 3.79581 48.3616 3.70229C48.1356 3.60877 47.8935 3.56177 47.6493 3.56404V3.56404Z" fill="#20AEE5"/>
<path d="M51.2432 14.2181V19.8805H53.9794V14.2181C53.9794 12.735 55.2742 11.2762 56.8357 11.2762H57.6669V8.65527H56.8357C53.78 8.65527 51.2432 11.1765 51.2432 14.2181Z" fill="#20AEE5"/>
<path d="M145 5.71333V3.11914H133.543V19.8804H145V17.2838H136.28V12.7981H143.998V10.2015H136.28V5.71333H145Z" fill="#20AEE5"/>
<path d="M62.9471 3.11914H60.2109V19.8804H62.9471V3.11914Z" fill="#20AEE5"/>
<path d="M92.6493 3.11914L87.4219 17.1112L82.2185 3.11914H79.2637L85.7018 19.8804H89.1659L95.6041 3.11914H92.6493Z" fill="#20AEE5"/>
<path d="M103.781 2.94434C102.104 2.94386 100.465 3.44684 99.07 4.38965C97.6754 5.33247 96.5884 6.67275 95.9466 8.24093C95.3048 9.8091 95.137 11.5347 95.4644 13.1994C95.7918 14.8641 96.5998 16.3932 97.786 17.5931C98.9723 18.793 100.484 19.6098 102.129 19.9402C103.774 20.2707 105.479 20.0998 107.028 19.4494C108.577 18.7989 109.9 17.6981 110.831 16.2861C111.762 14.8741 112.258 13.2144 112.257 11.5171C112.249 9.24496 111.354 7.06819 109.766 5.46202C108.178 3.85584 106.026 2.95075 103.781 2.94434V2.94434ZM103.781 17.5078C100.606 17.5078 98.0399 14.7628 98.0399 11.5244C98.0399 8.28588 100.606 5.54096 103.781 5.54096C106.957 5.54096 109.547 8.31019 109.547 11.5244C109.547 14.7385 106.957 17.5078 103.781 17.5078Z" fill="#20AEE5"/>
<path d="M116.792 3.11914H114.056V19.8804H116.792V3.11914Z" fill="#20AEE5"/>
<path d="M118.594 11.4998C118.596 13.7219 119.469 15.8524 121.022 17.4237C122.574 18.9949 124.679 19.8785 126.875 19.8804H131.466V17.2838H126.875C123.846 17.2838 121.35 14.5656 121.35 11.4998C121.35 8.43393 123.841 5.71331 126.875 5.71331H131.466V3.1167H126.875C124.683 3.13136 122.585 4.01936 121.035 5.5884C119.485 7.15743 118.608 9.2812 118.594 11.4998V11.4998Z" fill="#20AEE5"/>
<path d="M72.2562 3.11691H65.5898V19.8807H68.3237V5.71353H72.2562C74.3822 5.71353 76.2152 7.65856 76.2152 9.81755V19.8807H78.9514V9.81511C78.9483 8.92983 78.7724 8.05389 78.4339 7.23758C78.0953 6.42127 77.6008 5.68068 76.9788 5.05831C76.3567 4.43594 75.6192 3.94405 74.8088 3.61089C73.9984 3.27773 73.1309 3.10986 72.2562 3.11691V3.11691Z" fill="#20AEE5"/>
</g>
<g clip-path="url(#clip1_1302_11646)">
<path d="M111.107 32.0002C110.425 32.0002 109.816 31.7872 109.816 31.3219C109.816 31.1606 110.096 29.9653 111.074 28.8155C111.527 28.2819 112.17 27.6967 113.049 27.2459C113.929 26.795 115.042 26.4766 116.437 26.4766C116.853 26.4766 117.198 26.5055 117.641 26.5614C117.773 26.5758 117.855 26.7061 117.845 26.8716C117.83 27.0825 117.658 27.2934 117.306 27.2934C115.905 27.2934 114.841 27.6057 114.063 28.2654C113.675 28.5963 113.357 29.0119 113.102 29.5207C112.848 30.0294 112.661 30.6291 112.53 31.3261C112.439 31.8265 111.506 32.0002 111.107 32.0002Z" fill="white"/>
<path d="M113.058 27.2437C113.936 26.7949 115.047 26.4785 116.439 26.4785C116.855 26.4785 117.198 26.5095 117.641 26.5633C117.771 26.5798 117.856 26.7081 117.843 26.8735C117.836 26.9562 117.805 27.041 117.747 27.1093C117.66 27.2147 117.512 27.2892 117.302 27.2892C115.901 27.2892 114.839 27.6014 114.063 28.2611C113.675 28.592 113.357 29.0077 113.105 29.5164C112.852 30.0252 112.664 30.6249 112.532 31.3218C112.52 31.3859 112.496 31.4438 112.46 31.4976C112.214 31.8657 111.462 31.998 111.112 31.998C110.429 31.998 109.821 31.785 109.821 31.3197C109.821 31.1584 110.103 29.9611 111.082 28.8112C111.534 28.2777 112.178 27.6924 113.058 27.2437Z" fill="#FEFEFE"/>
<path d="M113.068 27.2395C113.944 26.7929 115.055 26.4785 116.441 26.4785C116.855 26.4785 117.198 26.5095 117.641 26.5633C117.77 26.5798 117.853 26.7101 117.838 26.8735C117.832 26.9562 117.798 27.0389 117.741 27.1072C117.652 27.2106 117.505 27.285 117.296 27.285C115.896 27.2871 114.836 27.5994 114.058 28.2591C113.67 28.59 113.352 29.0056 113.1 29.5123C112.846 30.021 112.657 30.6207 112.528 31.3156C112.515 31.3797 112.492 31.4376 112.456 31.4914C112.212 31.8595 111.463 31.9939 111.109 31.9939C110.429 31.9939 109.818 31.783 109.818 31.3177C109.818 31.1584 110.1 29.959 111.084 28.8071C111.54 28.2756 112.186 27.6904 113.068 27.2395Z" fill="#FDFDFD"/>
<path d="M113.079 27.2377C113.954 26.7931 115.061 26.4809 116.445 26.4829C116.857 26.4829 117.202 26.5139 117.643 26.5677C117.77 26.5843 117.853 26.7145 117.836 26.8779C117.828 26.9606 117.796 27.0413 117.736 27.1095C117.647 27.2109 117.499 27.2853 117.289 27.2853C115.892 27.2874 114.832 27.6017 114.056 28.2614C113.668 28.5923 113.35 29.008 113.098 29.5146C112.844 30.0234 112.655 30.6231 112.526 31.3179C112.513 31.382 112.49 31.44 112.453 31.4937C112.212 31.8639 111.466 31.9983 111.109 31.9983C110.429 31.9983 109.818 31.7874 109.818 31.3221C109.818 31.1628 110.102 29.9613 111.086 28.8094C111.546 28.2718 112.195 27.6865 113.079 27.2377Z" fill="#FCFCFD"/>
<path d="M113.09 27.2356C113.963 26.793 115.07 26.4828 116.448 26.4849C116.859 26.4849 117.202 26.5159 117.641 26.5697C117.768 26.5862 117.849 26.7186 117.83 26.8819C117.821 26.9626 117.788 27.0453 117.728 27.1115C117.637 27.2128 117.491 27.2852 117.281 27.2852C115.884 27.2893 114.826 27.6037 114.05 28.2634C113.662 28.5942 113.344 29.0099 113.092 29.5166C112.837 30.0253 112.649 30.625 112.517 31.3178C112.505 31.3819 112.481 31.4398 112.447 31.4936C112.208 31.8638 111.466 31.9982 111.105 32.0003C110.425 32.0003 109.816 31.7893 109.816 31.324C109.816 31.1669 110.103 29.9612 111.088 28.8093C111.553 28.2675 112.203 27.6843 113.09 27.2356Z" fill="#FBFCFC"/>
<path d="M113.1 27.2334C113.974 26.7929 115.076 26.4848 116.452 26.4868C116.861 26.4868 117.205 26.5178 117.643 26.5716C117.768 26.5861 117.849 26.7205 117.83 26.8839C117.819 26.9645 117.788 27.0452 117.726 27.1114C117.635 27.2106 117.486 27.283 117.279 27.283C115.884 27.2871 114.826 27.6036 114.052 28.2633C113.664 28.5941 113.348 29.0098 113.094 29.5144C112.839 30.0231 112.651 30.6208 112.519 31.3156C112.507 31.3797 112.483 31.4377 112.449 31.4914C112.214 31.8616 111.472 31.9981 111.112 32.0002C110.433 32.0022 109.823 31.7892 109.823 31.326C109.823 31.1688 110.109 29.9632 111.099 28.8071C111.559 28.2653 112.212 27.6801 113.1 27.2334Z" fill="#FAFBFB"/>
<path d="M113.111 27.2316C113.982 26.7932 115.083 26.4871 116.456 26.4913C116.863 26.4913 117.209 26.5223 117.646 26.576C117.771 26.5905 117.849 26.727 117.828 26.8883C117.817 26.969 117.783 27.0475 117.722 27.1137C117.629 27.2109 117.48 27.2812 117.275 27.2833C115.882 27.2895 114.826 27.6059 114.052 28.2635C113.664 28.5944 113.348 29.008 113.096 29.5147C112.842 30.0234 112.653 30.6211 112.522 31.3139C112.509 31.378 112.486 31.4359 112.452 31.4896C112.218 31.8598 111.481 31.9984 111.116 32.0004C110.438 32.0025 109.827 31.7895 109.827 31.3263C109.827 31.1691 110.115 29.9614 111.108 28.8054C111.568 28.2615 112.221 27.6762 113.111 27.2316Z" fill="#F9FAFA"/>
<path d="M113.121 27.2294C113.993 26.7931 115.091 26.4891 116.458 26.4932C116.865 26.4932 117.209 26.5242 117.643 26.578C117.766 26.5925 117.845 26.729 117.821 26.8903C117.811 26.9688 117.775 27.0474 117.713 27.1115C117.62 27.2087 117.472 27.277 117.266 27.2791C115.873 27.2853 114.82 27.6037 114.046 28.2614C113.658 28.5922 113.342 29.0058 113.09 29.5104C112.835 30.0192 112.647 30.6168 112.515 31.3075C112.502 31.3717 112.479 31.4296 112.445 31.4833C112.214 31.8556 111.481 31.9941 111.112 31.9962C110.435 31.9983 109.823 31.7853 109.823 31.322C109.823 31.1669 110.111 29.9551 111.105 28.799C111.574 28.2572 112.229 27.674 113.121 27.2294Z" fill="#F8F9FA"/>
<path d="M113.132 27.2272C114.001 26.793 115.097 26.491 116.462 26.4952C116.867 26.4952 117.211 26.5262 117.645 26.5799C117.768 26.5944 117.845 26.733 117.819 26.8922C117.806 26.9708 117.773 27.0494 117.709 27.1114C117.614 27.2066 117.465 27.2748 117.259 27.2748C115.869 27.2831 114.815 27.6015 114.043 28.2592C113.656 28.5901 113.34 29.0037 113.087 29.5083C112.833 30.017 112.644 30.6146 112.513 31.3054C112.5 31.3674 112.477 31.4274 112.443 31.4811C112.214 31.8534 111.483 31.994 111.114 31.994C110.437 31.9961 109.825 31.7831 109.825 31.3219C109.825 31.1668 110.115 29.9549 111.112 28.7969C111.58 28.255 112.237 27.6698 113.132 27.2272Z" fill="#F7F8F9"/>
<path d="M113.143 27.2251C114.012 26.7928 115.104 26.493 116.465 26.4971C116.87 26.4992 117.213 26.5281 117.646 26.5819C117.766 26.5964 117.843 26.7349 117.817 26.8942C117.805 26.9728 117.769 27.0493 117.705 27.1113C117.61 27.2044 117.461 27.2726 117.256 27.2726C115.867 27.2809 114.813 27.6014 114.042 28.2591C113.654 28.5899 113.338 29.0035 113.086 29.5061C112.831 30.0148 112.642 30.6104 112.511 31.3011C112.498 31.3632 112.475 31.4231 112.443 31.4769C112.216 31.8491 111.489 31.9898 111.116 31.9918C110.44 31.9939 109.827 31.7809 109.827 31.3197C109.827 31.1667 110.118 29.9507 111.118 28.7926C111.587 28.2508 112.246 27.6676 113.143 27.2251Z" fill="#F6F7F8"/>
<path d="M113.153 27.2233C114.02 26.7932 115.112 26.4954 116.469 26.5016C116.872 26.5036 117.215 26.5326 117.647 26.5863C117.768 26.6008 117.842 26.7394 117.815 26.8986C117.8 26.9751 117.764 27.0517 117.7 27.1137C117.603 27.2047 117.455 27.2729 117.251 27.2729C115.865 27.2833 114.811 27.6038 114.041 28.2614C113.656 28.5923 113.34 29.0059 113.087 29.5085C112.833 30.0151 112.642 30.6128 112.511 31.3035C112.498 31.3655 112.475 31.4255 112.443 31.4793C112.218 31.8536 111.493 31.9942 111.118 31.9963C110.444 31.9983 109.831 31.7853 109.831 31.3242C109.831 31.1711 110.124 29.9551 111.126 28.795C111.593 28.249 112.254 27.6638 113.153 27.2233Z" fill="#F5F7F7"/>
<path d="M113.164 27.2211C114.031 26.793 115.119 26.4973 116.471 26.5035C116.872 26.5056 117.215 26.5345 117.646 26.5883C117.766 26.6028 117.839 26.7434 117.809 26.9006C117.794 26.9771 117.758 27.0536 117.692 27.1136C117.595 27.2046 117.444 27.2687 117.243 27.2707C115.856 27.2811 114.807 27.6037 114.035 28.2593C113.649 28.5901 113.334 29.0037 113.081 29.5063C112.827 30.0129 112.636 30.6106 112.505 31.2992C112.492 31.3613 112.469 31.4213 112.437 31.475C112.214 31.8493 111.493 31.992 111.114 31.9941C110.44 31.9962 109.827 31.7832 109.827 31.322C109.827 31.169 110.122 29.9509 111.125 28.7907C111.599 28.2448 112.263 27.6595 113.164 27.2211Z" fill="#F4F6F7"/>
<path d="M113.174 27.2189C114.039 26.7949 115.125 26.5013 116.475 26.5054C116.876 26.5075 117.219 26.5364 117.648 26.5902C117.766 26.6047 117.838 26.7453 117.807 26.9025C117.792 26.979 117.754 27.0534 117.688 27.1113C117.588 27.2003 117.44 27.2644 117.236 27.2664C115.852 27.2789 114.803 27.6015 114.033 28.257C113.647 28.5879 113.331 29.0015 113.079 29.502C112.825 30.0086 112.634 30.6063 112.502 31.2929C112.49 31.3549 112.466 31.4149 112.435 31.4686C112.214 31.843 111.495 31.9877 111.116 31.9898C110.444 31.9919 109.829 31.7789 109.829 31.3198C109.829 31.1688 110.124 29.9466 111.131 28.7864C111.608 28.2405 112.273 27.6594 113.174 27.2189Z" fill="#F3F5F6"/>
<path d="M113.185 27.2147C114.05 26.7929 115.133 26.5013 116.479 26.5054C116.878 26.5075 117.221 26.5364 117.65 26.5902C117.768 26.6047 117.84 26.7474 117.807 26.9045C117.79 26.979 117.751 27.0534 117.686 27.1113C117.586 27.1982 117.436 27.2623 117.234 27.2644C115.852 27.2768 114.803 27.6015 114.035 28.257C113.649 28.5879 113.333 29.0015 113.081 29.502C112.827 30.0086 112.636 30.6063 112.504 31.2929C112.492 31.3549 112.471 31.4149 112.439 31.4686C112.22 31.845 111.506 31.9877 111.122 31.9919C110.45 31.996 109.835 31.7809 109.835 31.3218C109.835 31.1709 110.132 29.9487 111.141 28.7864C111.614 28.2384 112.282 27.6552 113.185 27.2147Z" fill="#F2F4F5"/>
<path d="M113.196 27.213C114.059 26.7952 115.14 26.5037 116.482 26.5099C116.88 26.5119 117.222 26.5409 117.648 26.5947C117.764 26.6091 117.836 26.7518 117.8 26.909C117.783 26.9834 117.745 27.0558 117.677 27.1137C117.576 27.2006 117.427 27.2626 117.226 27.2647C115.844 27.2792 114.796 27.6038 114.029 28.2594C113.643 28.5903 113.327 29.0039 113.077 29.5023C112.823 30.0089 112.632 30.6045 112.5 31.2911C112.488 31.3532 112.467 31.4131 112.435 31.4669C112.221 31.8433 111.508 31.988 111.12 31.9922C110.448 31.9963 109.833 31.7812 109.833 31.3221C109.833 31.1732 110.13 29.9469 111.144 28.7826C111.621 28.2346 112.291 27.6535 113.196 27.213Z" fill="#F1F3F4"/>
<path d="M113.207 27.2108C114.069 26.7951 115.146 26.5056 116.486 26.5118C116.883 26.5139 117.226 26.5428 117.65 26.5966C117.767 26.6111 117.837 26.7558 117.798 26.9109C117.781 26.9854 117.741 27.0578 117.673 27.1136C117.572 27.1984 117.421 27.2604 117.222 27.2604C115.842 27.2749 114.797 27.5996 114.029 28.2572C113.643 28.5881 113.327 28.9996 113.077 29.5001C112.821 30.0068 112.632 30.6023 112.501 31.2889C112.488 31.351 112.467 31.4109 112.435 31.4647C112.223 31.8411 111.513 31.9879 111.125 31.9921C110.455 31.9962 109.838 31.7811 109.838 31.3241C109.838 31.1752 110.137 29.9468 111.15 28.7825C111.627 28.2303 112.299 27.6492 113.207 27.2108Z" fill="#F0F2F4"/>
<path d="M113.217 27.2086C114.078 26.795 115.155 26.5076 116.488 26.5138C116.882 26.5158 117.226 26.5448 117.65 26.5986C117.764 26.613 117.834 26.7578 117.794 26.9129C117.775 26.9853 117.735 27.0577 117.667 27.1135C117.563 27.1962 117.412 27.2562 117.213 27.2583C115.835 27.2748 114.79 27.5995 114.023 28.255C113.637 28.5859 113.323 28.9975 113.071 29.4979C112.814 30.0046 112.626 30.6002 112.492 31.2847C112.479 31.3467 112.458 31.4067 112.426 31.4605C112.216 31.8389 111.51 31.9857 111.118 31.9899C110.448 31.994 109.833 31.7789 109.833 31.3219C109.833 31.173 110.132 29.9446 111.15 28.7782C111.633 28.2282 112.308 27.647 113.217 27.2086Z" fill="#EFF1F3"/>
<path d="M113.228 27.2064C114.088 26.7949 115.161 26.5095 116.492 26.5157C116.887 26.5178 117.228 26.5467 117.652 26.6005C117.766 26.615 117.834 26.7618 117.794 26.9149C117.775 26.9872 117.735 27.0575 117.665 27.1134C117.561 27.194 117.41 27.254 117.211 27.2561C115.833 27.2726 114.79 27.5994 114.025 28.2549C113.639 28.5858 113.325 28.9973 113.073 29.4957C112.816 30.0024 112.628 30.598 112.494 31.2825C112.481 31.3445 112.46 31.4045 112.43 31.4583C112.223 31.8367 111.519 31.9856 111.125 31.9877C110.455 31.9918 109.84 31.7768 109.84 31.3197C109.84 31.1729 110.141 29.9404 111.161 28.774C111.64 28.2239 112.316 27.6428 113.228 27.2064Z" fill="#EEF1F2"/>
<path d="M113.238 27.2047C114.097 26.7952 115.17 26.5119 116.495 26.5202C116.887 26.5223 117.23 26.5512 117.65 26.605C117.762 26.6195 117.83 26.7663 117.788 26.9193C117.767 26.9917 117.726 27.062 117.656 27.1137C117.55 27.1944 117.4 27.2523 117.203 27.2543C115.827 27.273 114.784 27.5997 114.021 28.2553C113.635 28.5861 113.321 28.9977 113.069 29.4961C112.812 30.0027 112.621 30.5963 112.49 31.2808C112.477 31.3428 112.456 31.4028 112.426 31.4565C112.221 31.835 111.521 31.9839 111.123 31.988C110.455 31.9922 109.838 31.7771 109.838 31.3221C109.838 31.1753 110.141 29.9428 111.163 28.7743C111.646 28.2222 112.325 27.6411 113.238 27.2047Z" fill="#EDF0F1"/>
<path d="M113.249 27.2025C114.107 26.7951 115.176 26.5139 116.499 26.5222C116.889 26.5242 117.232 26.5532 117.652 26.6049C117.764 26.6193 117.83 26.7682 117.785 26.9192C117.764 26.9895 117.722 27.0598 117.652 27.1115C117.546 27.1901 117.395 27.248 117.198 27.2501C115.824 27.2687 114.783 27.5975 114.018 28.2531C113.632 28.584 113.319 28.9955 113.068 29.4918C112.812 29.9985 112.621 30.592 112.49 31.2744C112.477 31.3365 112.456 31.3965 112.426 31.4502C112.223 31.8307 111.525 31.9796 111.127 31.9838C110.459 31.9879 109.842 31.7728 109.842 31.3179C109.842 31.1731 110.145 29.9364 111.169 28.768C111.654 28.2179 112.333 27.6368 113.249 27.2025Z" fill="#ECEFF0"/>
<path d="M113.26 27.2003C114.116 26.795 115.182 26.5158 116.503 26.5241C116.893 26.5262 117.235 26.5551 117.654 26.6068C117.765 26.6213 117.83 26.7702 117.784 26.9212C117.762 26.9915 117.72 27.0597 117.648 27.1114C117.54 27.1879 117.389 27.2458 117.194 27.2479C115.82 27.2686 114.782 27.5974 114.018 28.253C113.635 28.5838 113.319 28.9954 113.069 29.4917C112.812 29.9984 112.621 30.5919 112.49 31.2743C112.477 31.3364 112.456 31.3963 112.426 31.4501C112.225 31.8306 111.532 31.9816 111.129 31.9857C110.463 31.9899 109.844 31.7748 109.844 31.3198C109.844 31.1751 110.15 29.9363 111.176 28.7679C111.661 28.2137 112.342 27.6326 113.26 27.2003Z" fill="#EBEEF0"/>
<path d="M113.27 27.1981C114.126 26.7949 115.191 26.5178 116.505 26.5281C116.893 26.5302 117.236 26.5591 117.654 26.6108C117.764 26.6253 117.83 26.7742 117.779 26.9272C117.756 26.9976 117.713 27.0658 117.641 27.1154C117.533 27.1919 117.38 27.2457 117.185 27.2498C115.814 27.2705 114.775 27.6014 114.012 28.2549C113.628 28.5858 113.314 28.9973 113.062 29.4936C112.806 30.0003 112.615 30.5938 112.483 31.2742C112.471 31.3362 112.449 31.3962 112.422 31.45C112.223 31.8305 111.534 31.9835 111.127 31.9877C110.461 31.9939 109.842 31.7767 109.842 31.3238C109.842 31.1791 110.147 29.9403 111.177 28.7698C111.667 28.2115 112.35 27.6304 113.27 27.1981Z" fill="#EAEDEF"/>
<path d="M113.281 27.1965C114.135 26.7953 115.197 26.5202 116.509 26.5306C116.897 26.5326 117.239 26.5616 117.654 26.6133C117.765 26.6278 117.828 26.7787 117.777 26.9297C117.754 26.9979 117.709 27.0662 117.637 27.1158C117.527 27.1903 117.377 27.244 117.182 27.2461C115.812 27.2688 114.773 27.5997 114.012 28.2532C113.628 28.5841 113.315 28.9956 113.062 29.4899C112.806 29.9965 112.615 30.5901 112.482 31.2704C112.469 31.3325 112.448 31.3925 112.42 31.4462C112.223 31.8288 111.536 31.9818 111.127 31.986C110.461 31.9922 109.844 31.775 109.844 31.3221C109.844 31.1795 110.152 29.9366 111.184 28.7661C111.674 28.2077 112.359 27.6266 113.281 27.1965Z" fill="#E9ECEE"/>
<path d="M113.291 27.1923C114.146 26.7953 115.203 26.5202 116.511 26.5306C116.897 26.5326 117.239 26.5616 117.654 26.6133C117.762 26.6278 117.826 26.7787 117.773 26.9297C117.749 26.9979 117.705 27.0641 117.631 27.1137C117.518 27.1861 117.368 27.2399 117.175 27.242C115.808 27.2647 114.769 27.5977 114.008 28.2511C113.624 28.582 113.31 28.9936 113.06 29.4878C112.804 29.9945 112.613 30.5859 112.479 31.2663C112.466 31.3284 112.445 31.3883 112.418 31.4421C112.223 31.8247 111.54 31.9777 111.129 31.9839C110.465 31.9901 109.846 31.773 109.846 31.3201C109.846 31.1774 110.154 29.9345 111.188 28.7599C111.68 28.2036 112.367 27.6245 113.291 27.1923Z" fill="#E8ECED"/>
<path d="M113.302 27.1901C114.154 26.7951 115.212 26.5222 116.515 26.5325C116.899 26.5346 117.243 26.5635 117.656 26.6152C117.764 26.6276 117.826 26.7827 117.771 26.9316C117.745 26.9999 117.701 27.064 117.626 27.1116C117.514 27.1819 117.363 27.2356 117.171 27.2377C115.803 27.2625 114.769 27.5955 114.008 28.249C113.624 28.5798 113.31 28.9893 113.06 29.4836C112.803 29.9902 112.613 30.5817 112.479 31.2621C112.466 31.3241 112.445 31.3841 112.418 31.4399C112.227 31.8225 111.544 31.9776 111.131 31.9838C110.467 31.99 109.848 31.7729 109.848 31.322C109.848 31.1814 110.158 29.9344 111.194 28.7598C111.686 28.2014 112.375 27.6203 113.302 27.1901Z" fill="#E7EBED"/>
<path d="M113.312 27.188C114.165 26.795 115.218 26.5241 116.518 26.5365C116.901 26.5407 117.243 26.5676 117.654 26.6193C117.76 26.6317 117.822 26.7868 117.764 26.9357C117.739 27.0018 117.692 27.068 117.618 27.1135C117.504 27.1838 117.353 27.2355 117.16 27.2376C115.795 27.2624 114.76 27.5974 114.001 28.2509C113.618 28.5818 113.304 28.9913 113.054 29.4855C112.797 29.9922 112.606 30.5836 112.473 31.262C112.46 31.324 112.441 31.384 112.413 31.4398C112.225 31.8224 111.546 31.9796 111.129 31.9858C110.467 31.992 109.846 31.7769 109.846 31.324C109.846 31.1834 110.158 29.9343 111.197 28.7597C111.695 28.1972 112.384 27.6181 113.312 27.188Z" fill="#E6EAEC"/>
<path d="M113.323 27.1858C114.173 26.7949 115.225 26.5261 116.522 26.5385C116.904 26.5426 117.245 26.5695 117.656 26.6212C117.762 26.6336 117.822 26.7908 117.764 26.9376C117.739 27.0038 117.692 27.0679 117.616 27.1134C117.502 27.1817 117.351 27.2313 117.158 27.2354C115.795 27.2623 114.76 27.5973 114.002 28.2508C113.618 28.5817 113.304 28.9912 113.054 29.4833C112.797 29.99 112.604 30.5815 112.473 31.2577C112.46 31.3197 112.441 31.3797 112.414 31.4356C112.227 31.8202 111.551 31.9774 111.133 31.9815C110.472 31.9877 109.851 31.7726 109.851 31.3197C109.851 31.1791 110.162 29.93 111.205 28.7533C111.701 28.1929 112.392 27.6139 113.323 27.1858Z" fill="#E5E9EB"/>
<path d="M113.334 27.1836C114.184 26.7948 115.233 26.528 116.526 26.5405C116.908 26.5446 117.249 26.5715 117.658 26.6232C117.762 26.6356 117.824 26.7928 117.762 26.9396C117.735 27.0058 117.688 27.0678 117.612 27.1133C117.495 27.1795 117.345 27.2291 117.154 27.2332C115.791 27.2601 114.758 27.5972 114.001 28.2486C113.618 28.5795 113.306 28.989 113.054 29.4812C112.797 29.9878 112.604 30.5772 112.473 31.2555C112.46 31.3176 112.441 31.3775 112.413 31.4334C112.229 31.818 111.557 31.9752 111.135 31.9814C110.474 31.9876 109.853 31.7725 109.853 31.3196C109.853 31.1811 110.166 29.9279 111.209 28.7512C111.708 28.1907 112.401 27.6117 113.334 27.1836Z" fill="#E4E8EA"/>
<path d="M113.344 27.1819C114.192 26.7952 115.239 26.5305 116.528 26.5429C116.908 26.547 117.249 26.5739 117.658 26.6256C117.762 26.638 117.822 26.7973 117.758 26.942C117.73 27.0061 117.682 27.0702 117.605 27.1137C117.489 27.1778 117.336 27.2274 117.147 27.2315C115.786 27.2605 114.756 27.5976 113.997 28.249C113.613 28.5799 113.302 28.9894 113.052 29.4815C112.793 29.9861 112.602 30.5776 112.469 31.2538C112.456 31.3159 112.437 31.3738 112.409 31.4317C112.227 31.8163 111.559 31.9776 111.133 31.9818C110.474 31.99 109.853 31.7729 109.853 31.3221C109.853 31.1835 110.166 29.9282 111.214 28.7515C111.714 28.187 112.409 27.6079 113.344 27.1819Z" fill="#E3E7EA"/>
<path d="M113.355 27.1798C114.201 26.7951 115.248 26.5325 116.533 26.547C116.91 26.5511 117.251 26.578 117.658 26.6297C117.76 26.6421 117.819 26.8013 117.754 26.9482C117.724 27.0123 117.677 27.0743 117.599 27.1157C117.48 27.1798 117.33 27.2273 117.141 27.2294C115.782 27.2584 114.752 27.5954 113.995 28.2489C113.613 28.5798 113.3 28.9893 113.049 29.4794C112.791 29.984 112.6 30.5754 112.466 31.2517C112.454 31.3137 112.435 31.3716 112.407 31.4295C112.227 31.8163 111.561 31.9755 111.133 31.9817C110.474 31.99 109.853 31.7728 109.853 31.322C109.853 31.1855 110.168 29.9282 111.218 28.7494C111.72 28.1848 112.42 27.6037 113.355 27.1798Z" fill="#E2E6E9"/>
<path d="M113.365 27.1774C114.211 26.7949 115.254 26.5364 116.535 26.5488C116.912 26.5529 117.253 26.5819 117.658 26.6315C117.76 26.6439 117.817 26.8031 117.751 26.95C117.722 27.0141 117.673 27.074 117.595 27.1154C117.476 27.1774 117.323 27.225 117.135 27.2271C115.776 27.2581 114.747 27.5952 113.991 28.2487C113.609 28.5796 113.295 28.989 113.045 29.4791C112.786 29.9837 112.596 30.5752 112.462 31.2494C112.449 31.3114 112.43 31.3693 112.405 31.4272C112.227 31.8139 111.565 31.9752 111.135 31.9814C110.476 31.9897 109.854 31.7726 109.854 31.3217C109.854 31.1853 110.17 29.9258 111.224 28.7471C111.726 28.1804 112.428 27.6014 113.365 27.1774Z" fill="#E1E6E8"/>
<path d="M113.376 27.1758C114.22 26.7952 115.261 26.5388 116.539 26.5512C116.914 26.5553 117.256 26.5843 117.661 26.6339C117.76 26.6463 117.817 26.8076 117.75 26.9524C117.72 27.0165 117.671 27.0744 117.591 27.1158C117.47 27.1758 117.319 27.2212 117.131 27.2254C115.774 27.2564 114.746 27.5956 113.991 28.2491C113.609 28.5799 113.296 28.9894 113.045 29.4775C112.787 29.982 112.596 30.5735 112.462 31.2477C112.45 31.3097 112.431 31.3676 112.405 31.4255C112.229 31.8122 111.57 31.9756 111.137 31.9818C110.48 31.9901 109.857 31.7729 109.857 31.3242C109.857 31.1877 110.175 29.9283 111.229 28.7474C111.735 28.1767 112.437 27.5976 113.376 27.1758Z" fill="#E0E5E7"/>
<path d="M113.387 27.1736C114.23 26.7952 115.269 26.5408 116.541 26.5553C116.914 26.5594 117.256 26.5884 117.658 26.638C117.758 26.6504 117.815 26.8117 117.743 26.9565C117.711 27.0185 117.663 27.0785 117.582 27.1178C117.461 27.1777 117.309 27.2212 117.122 27.2253C115.767 27.2584 114.741 27.5976 113.987 28.249C113.605 28.5799 113.293 28.9873 113.043 29.4774C112.785 29.982 112.594 30.5714 112.46 31.2455C112.448 31.3076 112.428 31.3655 112.403 31.4234C112.229 31.8122 111.574 31.9755 111.137 31.9817C110.48 31.9921 109.857 31.7729 109.857 31.3241C109.857 31.1897 110.177 29.9261 111.233 28.7453C111.742 28.1745 112.445 27.5955 113.387 27.1736Z" fill="#DFE4E7"/>
<path d="M113.397 27.1695C114.239 26.7931 115.275 26.5408 116.545 26.5553C116.918 26.5594 117.26 26.5884 117.66 26.638C117.76 26.6504 117.815 26.8138 117.741 26.9565C117.709 27.0185 117.658 27.0764 117.578 27.1157C117.455 27.1736 117.302 27.217 117.118 27.2212C115.763 27.2543 114.739 27.5955 113.984 28.2469C113.603 28.5778 113.291 28.9852 113.041 29.4753C112.782 29.9799 112.591 30.5693 112.456 31.2414C112.443 31.3034 112.424 31.3613 112.398 31.4192C112.229 31.808 111.574 31.9735 111.135 31.9797C110.48 31.99 109.854 31.7708 109.854 31.3221C109.854 31.1876 110.175 29.922 111.235 28.7391C111.748 28.1704 112.454 27.5914 113.397 27.1695Z" fill="#DEE3E6"/>
<path d="M113.408 27.1673C114.25 26.793 115.282 26.5428 116.55 26.5572C116.921 26.5614 117.262 26.5883 117.663 26.64C117.76 26.6524 117.815 26.8157 117.741 26.9584C117.709 27.0205 117.658 27.0763 117.576 27.1156C117.453 27.1714 117.3 27.2149 117.114 27.219C115.761 27.2542 114.737 27.5954 113.985 28.2468C113.603 28.5777 113.291 28.9851 113.041 29.4731C112.782 29.9777 112.59 30.5671 112.456 31.2392C112.443 31.3013 112.424 31.3592 112.401 31.4171C112.233 31.8059 111.583 31.9713 111.142 31.9796C110.487 31.9899 109.863 31.7707 109.863 31.324C109.863 31.1917 110.186 29.924 111.248 28.739C111.754 28.1662 112.462 27.5871 113.408 27.1673Z" fill="#DDE2E5"/>
<path d="M113.418 27.1651C114.258 26.7929 115.29 26.5447 116.551 26.5592C116.922 26.5633 117.262 26.5902 117.662 26.6419C117.76 26.6543 117.813 26.8198 117.737 26.9604C117.705 27.0204 117.652 27.0783 117.569 27.1134C117.444 27.1672 117.291 27.2106 117.107 27.2148C115.756 27.2499 114.733 27.5932 113.98 28.2446C113.598 28.5755 113.287 28.9829 113.037 29.471C112.778 29.9756 112.585 30.5649 112.451 31.235C112.439 31.297 112.42 31.3549 112.396 31.4128C112.231 31.8037 111.584 31.9691 111.139 31.9774C110.484 31.9877 109.861 31.7685 109.861 31.3218C109.861 31.1895 110.183 29.9197 111.247 28.7347C111.76 28.164 112.471 27.5849 113.418 27.1651Z" fill="#DCE1E4"/>
<path d="M113.429 27.163C114.269 26.7949 115.297 26.5467 116.556 26.5633C116.925 26.5674 117.266 26.5943 117.663 26.646C117.758 26.6584 117.811 26.8238 117.733 26.9645C117.699 27.0244 117.646 27.0803 117.563 27.1154C117.438 27.1692 117.285 27.2085 117.101 27.2126C115.753 27.2499 114.729 27.5932 113.978 28.2446C113.597 28.5755 113.285 28.9829 113.037 29.4688C112.778 29.9734 112.585 30.5608 112.452 31.2329C112.439 31.2949 112.42 31.3528 112.397 31.4107C112.233 31.8016 111.589 31.9691 111.142 31.9753C110.489 31.9856 109.863 31.7664 109.863 31.3197C109.863 31.1874 110.188 29.9155 111.254 28.7306C111.767 28.1598 112.479 27.5807 113.429 27.163Z" fill="#DCE1E4"/>
<path d="M113.44 27.1613C114.277 26.7953 115.303 26.5492 116.558 26.5657C116.925 26.5699 117.266 26.5967 117.663 26.6484C117.758 26.6609 117.811 26.8284 117.728 26.9669C117.694 27.0269 117.641 27.0807 117.557 27.1158C117.429 27.1675 117.277 27.2068 117.095 27.2109C115.746 27.2482 114.727 27.5935 113.974 28.2429C113.592 28.5738 113.281 28.9812 113.033 29.4672C112.774 29.9717 112.581 30.5591 112.448 31.2291C112.435 31.2911 112.416 31.349 112.392 31.407C112.231 31.7978 111.591 31.9674 111.142 31.9736C110.489 31.9839 109.863 31.7647 109.863 31.3201C109.863 31.1898 110.19 29.9159 111.258 28.7289C111.775 28.1581 112.488 27.5791 113.44 27.1613Z" fill="#DBE0E3"/>
<path d="M113.45 27.1591C114.288 26.7952 115.312 26.5511 116.562 26.5677C116.929 26.5718 117.268 26.5987 117.665 26.6504C117.758 26.6628 117.811 26.8303 117.728 26.9709C117.694 27.0289 117.639 27.0847 117.555 27.1178C117.427 27.1674 117.273 27.2067 117.092 27.2108C115.746 27.2501 114.727 27.5955 113.976 28.2448C113.594 28.5757 113.285 28.9831 113.035 29.4691C112.776 29.9737 112.583 30.561 112.45 31.2311C112.437 31.2931 112.42 31.351 112.397 31.4089C112.238 31.8018 111.6 31.9693 111.148 31.9776C110.497 31.988 109.87 31.7687 109.87 31.3241C109.87 31.1938 110.196 29.9179 111.269 28.7308C111.782 28.1539 112.496 27.5748 113.45 27.1591Z" fill="#DADFE2"/>
<path d="M113.461 27.157C114.296 26.7951 115.318 26.5531 116.564 26.5696C116.929 26.5738 117.27 26.6007 117.662 26.6524C117.756 26.6648 117.807 26.8344 117.722 26.9729C117.686 27.0308 117.631 27.0846 117.544 27.1177C117.414 27.1652 117.262 27.2045 117.079 27.2087C115.735 27.248 114.716 27.5954 113.967 28.2447C113.588 28.5756 113.276 28.983 113.026 29.4669C112.767 29.9715 112.574 30.5588 112.439 31.2268C112.426 31.2889 112.409 31.3468 112.386 31.4047C112.229 31.7976 111.595 31.9672 111.139 31.9754C110.488 31.9858 109.861 31.7666 109.861 31.3219C109.861 31.1937 110.189 29.9157 111.262 28.7266C111.788 28.1496 112.504 27.5726 113.461 27.157Z" fill="#D9DEE1"/>
<path d="M113.471 27.1549C114.307 26.795 115.324 26.5552 116.569 26.5738C116.933 26.5779 117.273 26.6069 117.665 26.6565C117.756 26.6689 117.807 26.8385 117.72 26.977C117.684 27.0349 117.629 27.0866 117.54 27.1177C117.41 27.1652 117.256 27.2024 117.075 27.2066C115.731 27.2479 114.714 27.5954 113.965 28.2447C113.586 28.5756 113.274 28.983 113.024 29.4669C112.763 29.9715 112.573 30.5588 112.437 31.2247C112.424 31.2868 112.407 31.3447 112.384 31.4026C112.229 31.7955 111.597 31.9672 111.14 31.9754C110.489 31.9858 109.863 31.7666 109.863 31.3219C109.863 31.1937 110.192 29.9136 111.269 28.7245C111.795 28.1475 112.513 27.5685 113.471 27.1549Z" fill="#D8DDE0"/>
<path d="M113.482 27.1527C114.315 26.7949 115.333 26.5571 116.573 26.5757C116.936 26.5819 117.275 26.6088 117.667 26.6584C117.758 26.6709 117.809 26.8425 117.718 26.979C117.682 27.0348 117.625 27.0865 117.535 27.1175C117.404 27.163 117.251 27.1982 117.071 27.2044C115.729 27.2458 114.714 27.5953 113.965 28.2446C113.586 28.5755 113.274 28.9808 113.026 29.4647C112.766 29.9693 112.573 30.5546 112.439 31.2226C112.426 31.2846 112.409 31.3425 112.386 31.4004C112.233 31.7954 111.606 31.965 111.146 31.9753C110.497 31.9857 109.87 31.7664 109.87 31.3239C109.87 31.1957 110.2 29.9135 111.279 28.7244C111.801 28.1433 112.522 27.5642 113.482 27.1527Z" fill="#D7DCE0"/>
<path d="M113.493 27.1505C114.324 26.7948 115.339 26.5591 116.575 26.5777C116.935 26.5839 117.277 26.6108 117.667 26.6604C117.758 26.6707 117.807 26.8445 117.716 26.981C117.677 27.0368 117.62 27.0885 117.531 27.1174C117.4 27.1609 117.245 27.196 117.067 27.2022C115.727 27.2457 114.712 27.5952 113.963 28.2424C113.584 28.5733 113.272 28.9787 113.024 29.4626C112.763 29.9672 112.57 30.5524 112.437 31.2183C112.424 31.2804 112.407 31.3383 112.386 31.3962C112.235 31.7912 111.61 31.9628 111.148 31.9731C110.499 31.9835 109.872 31.7643 109.872 31.3217C109.872 31.1956 110.202 29.9113 111.286 28.7181C111.807 28.139 112.53 27.5621 113.493 27.1505Z" fill="#D6DBDF"/>
<path d="M113.503 27.1485C114.334 26.7948 115.348 26.5612 116.579 26.5818C116.94 26.588 117.279 26.6149 117.667 26.6646C117.756 26.6749 117.805 26.8486 117.711 26.9851C117.673 27.0409 117.616 27.0906 117.525 27.1195C117.391 27.1629 117.237 27.196 117.058 27.2002C115.719 27.2436 114.705 27.5931 113.959 28.2425C113.58 28.5733 113.27 28.9787 113.02 29.4605C112.759 29.9651 112.566 30.5504 112.433 31.2163C112.42 31.2783 112.403 31.3362 112.382 31.3941C112.236 31.7891 111.612 31.9628 111.146 31.9732C110.497 31.9835 109.87 31.7643 109.87 31.3217C109.87 31.1956 110.202 29.9093 111.286 28.716C111.816 28.137 112.539 27.5579 113.503 27.1485Z" fill="#D5DBDE"/>
<path d="M113.514 27.1443C114.343 26.7928 115.354 26.5612 116.581 26.5818C116.94 26.5881 117.279 26.6149 117.667 26.6646C117.756 26.6749 117.805 26.8507 117.707 26.9851C117.669 27.0389 117.61 27.0885 117.519 27.1175C117.385 27.1588 117.23 27.1919 117.052 27.196C115.714 27.2415 114.701 27.591 113.955 28.2404C113.575 28.5713 113.266 28.9766 113.016 29.4585C112.755 29.9631 112.562 30.5483 112.428 31.2121C112.416 31.2742 112.399 31.3321 112.378 31.39C112.233 31.785 111.614 31.9608 111.146 31.9711C110.499 31.9814 109.87 31.7622 109.87 31.3217C109.87 31.1977 110.205 29.9093 111.29 28.714C111.822 28.1329 112.547 27.5538 113.514 27.1443Z" fill="#D4DADD"/>
<path d="M113.524 27.1427C114.353 26.7932 115.36 26.5636 116.586 26.5843C116.942 26.5905 117.283 26.6174 117.669 26.667C117.756 26.6774 117.805 26.8531 117.705 26.9876C117.665 27.0413 117.605 27.091 117.514 27.1178C117.378 27.1571 117.224 27.1902 117.048 27.1944C115.712 27.2399 114.701 27.5914 113.955 28.2408C113.575 28.5717 113.266 28.977 113.018 29.4588C112.757 29.9634 112.564 30.5466 112.428 31.2125C112.416 31.2746 112.399 31.3325 112.377 31.3904C112.235 31.7874 111.618 31.9632 111.148 31.9715C110.501 31.9839 109.872 31.7626 109.872 31.3221C109.872 31.198 110.207 29.9076 111.296 28.7123C111.828 28.1291 112.555 27.5521 113.524 27.1427Z" fill="#D3D9DD"/>
<path d="M113.535 27.1405C114.362 26.7931 115.369 26.5656 116.588 26.5863C116.944 26.5925 117.283 26.6194 117.667 26.6669C117.754 26.6773 117.8 26.8551 117.701 26.9895C117.661 27.0433 117.601 27.0909 117.508 27.1157C117.372 27.155 117.217 27.1839 117.042 27.1901C115.708 27.2377 114.697 27.5893 113.953 28.2386C113.573 28.5695 113.264 28.9748 113.016 29.4546C112.755 29.9571 112.562 30.5424 112.426 31.2062C112.414 31.2682 112.397 31.3262 112.378 31.3841C112.238 31.7811 111.625 31.9569 111.15 31.9672C110.506 31.9796 109.876 31.7584 109.876 31.3179C109.876 31.1938 110.213 29.9013 111.305 28.706C111.835 28.1269 112.564 27.5479 113.535 27.1405Z" fill="#D2D8DC"/>
<path d="M113.546 27.1385C114.372 26.7931 115.375 26.5677 116.592 26.5904C116.946 26.5966 117.285 26.6235 117.669 26.6711C117.754 26.6814 117.8 26.8593 117.699 26.9937C117.658 27.0454 117.597 27.093 117.504 27.1178C117.366 27.155 117.211 27.184 117.037 27.1902C115.704 27.2377 114.695 27.5914 113.951 28.2387C113.571 28.5695 113.262 28.9749 113.014 29.4546C112.753 29.9572 112.56 30.5424 112.424 31.2042C112.411 31.2642 112.395 31.3241 112.375 31.382C112.238 31.7791 111.627 31.9569 111.15 31.9673C110.506 31.9797 109.876 31.7584 109.876 31.32C109.876 31.198 110.213 29.9034 111.307 28.706C111.841 28.1228 112.573 27.5459 113.546 27.1385Z" fill="#D1D7DB"/>
<path d="M113.556 27.1363C114.381 26.793 115.381 26.5697 116.596 26.5924C116.95 26.5986 117.289 26.6255 117.671 26.6731C117.756 26.6834 117.802 26.8633 117.696 26.9957C117.656 27.0474 117.593 27.0949 117.499 27.1177C117.361 27.1528 117.205 27.1818 117.031 27.188C115.699 27.2376 114.69 27.5913 113.948 28.2386C113.569 28.5674 113.259 28.9748 113.011 29.4525C112.751 29.955 112.558 30.5403 112.422 31.202C112.409 31.262 112.392 31.322 112.373 31.3799C112.237 31.779 111.631 31.9568 111.152 31.9672C110.508 31.9796 109.878 31.7604 109.878 31.3199C109.878 31.1979 110.217 29.9012 111.313 28.7039C111.847 28.1207 112.581 27.5416 113.556 27.1363Z" fill="#D0D6DA"/>
<path d="M113.567 27.1344C114.391 26.7931 115.39 26.5739 116.598 26.5946C116.95 26.6008 117.289 26.6277 117.671 26.6753C117.754 26.6856 117.8 26.8655 117.692 26.9979C117.65 27.0496 117.588 27.0951 117.493 27.1178C117.353 27.1509 117.198 27.1799 117.024 27.1861C115.695 27.2357 114.686 27.5914 113.944 28.2387C113.567 28.5675 113.257 28.9749 113.009 29.4526C112.748 29.9551 112.553 30.5404 112.42 31.2001C112.407 31.2601 112.39 31.32 112.371 31.3779C112.237 31.7771 111.633 31.957 111.152 31.9673C110.51 31.9797 109.878 31.7605 109.878 31.32C109.878 31.2001 110.217 29.8993 111.317 28.7019C111.856 28.1167 112.589 27.5376 113.567 27.1344Z" fill="#CFD5DA"/>
<path d="M113.577 27.1322C114.4 26.793 115.396 26.5759 116.602 26.5966C116.952 26.6028 117.291 26.6297 117.671 26.6772C117.753 26.6876 117.798 26.8696 117.69 26.9998C117.647 27.0515 117.584 27.095 117.488 27.1177C117.349 27.1508 117.192 27.1777 117.02 27.1818C115.691 27.2335 114.686 27.5892 113.944 28.2365C113.567 28.5653 113.257 28.9707 113.009 29.4504C112.748 29.953 112.553 30.5361 112.42 31.1979C112.407 31.2579 112.392 31.3179 112.371 31.3778C112.239 31.7769 111.639 31.9569 111.154 31.9693C110.512 31.9817 109.88 31.7625 109.88 31.3241C109.88 31.2041 110.221 29.9033 111.324 28.7039C111.862 28.1124 112.598 27.5355 113.577 27.1322Z" fill="#CED5D9"/>
<path d="M113.588 27.1302C114.408 26.7931 115.403 26.578 116.605 26.6008C116.954 26.607 117.294 26.6339 117.671 26.6814C117.752 26.6918 117.798 26.8758 117.686 27.004C117.643 27.0537 117.58 27.0992 117.482 27.1198C117.34 27.1509 117.186 27.1757 117.014 27.1819C115.687 27.2336 114.682 27.5913 113.94 28.2386C113.562 28.5674 113.253 28.9728 113.005 29.4505C112.744 29.953 112.549 30.5362 112.413 31.1959C112.401 31.2559 112.386 31.3158 112.367 31.3758C112.237 31.777 111.642 31.9569 111.152 31.9693C110.512 31.9817 109.878 31.7625 109.878 31.3241C109.878 31.2042 110.221 29.9013 111.324 28.6998C111.869 28.1104 112.606 27.5314 113.588 27.1302Z" fill="#CDD4D8"/>
<path d="M113.596 27.128C114.417 26.793 115.409 26.58 116.607 26.6027C116.954 26.6089 117.293 26.6358 117.671 26.6834C117.751 26.6937 117.796 26.8778 117.681 27.006C117.637 27.0556 117.573 27.0991 117.476 27.1177C117.334 27.1466 117.177 27.1714 117.005 27.1776C115.68 27.2314 114.675 27.5892 113.935 28.2344C113.558 28.5632 113.249 28.9685 113 29.4463C112.74 29.9488 112.545 30.532 112.409 31.1896C112.396 31.2496 112.381 31.3095 112.362 31.3695C112.235 31.7707 111.642 31.9527 111.152 31.9651C110.512 31.9775 109.88 31.7583 109.88 31.3199C109.88 31.202 110.223 29.8971 111.33 28.6935C111.875 28.1062 112.615 27.5271 113.596 27.128Z" fill="#CCD3D7"/>
<path d="M113.607 27.1258C114.425 26.7929 115.415 26.582 116.609 26.6047C116.956 26.6109 117.293 26.6378 117.671 26.6854C117.751 26.6957 117.794 26.8818 117.677 27.008C117.633 27.0576 117.567 27.099 117.469 27.1176C117.325 27.1465 117.168 27.1693 116.999 27.1755C115.674 27.2292 114.671 27.5891 113.933 28.2343C113.556 28.5631 113.246 28.9684 112.998 29.4441C112.736 29.9466 112.543 30.5298 112.407 31.1874C112.394 31.2474 112.379 31.3074 112.36 31.3673C112.237 31.7685 111.646 31.9526 111.152 31.965C110.512 31.9795 109.88 31.7582 109.88 31.3218C109.88 31.204 110.225 29.897 111.334 28.6934C111.881 28.1019 112.623 27.525 113.607 27.1258Z" fill="#CBD2D7"/>
<path d="M113.618 27.1217C114.436 26.7908 115.424 26.582 116.613 26.6047C116.959 26.6109 117.298 26.6378 117.671 26.6854C117.75 26.6957 117.794 26.8818 117.675 27.01C117.631 27.0576 117.565 27.099 117.465 27.1176C117.321 27.1445 117.164 27.1672 116.995 27.1734C115.672 27.2293 114.671 27.5891 113.931 28.2343C113.554 28.5631 113.247 28.9685 112.999 29.4441C112.736 29.9466 112.543 30.5277 112.407 31.1854C112.394 31.2453 112.38 31.3053 112.361 31.3653C112.24 31.7686 111.65 31.9526 111.154 31.9629C110.516 31.9774 109.882 31.7561 109.882 31.3198C109.882 31.204 110.228 29.8929 111.341 28.6893C111.888 28.0999 112.632 27.5208 113.618 27.1217Z" fill="#CAD1D6"/>
<path d="M113.628 27.1197C114.445 26.7909 115.43 26.5841 116.617 26.6089C116.961 26.6151 117.3 26.642 117.673 26.6896C117.752 26.6999 117.794 26.8881 117.673 27.0143C117.627 27.0618 117.561 27.1032 117.461 27.1197C117.315 27.1446 117.158 27.1673 116.991 27.1735C115.67 27.2293 114.669 27.5913 113.931 28.2365C113.554 28.5653 113.247 28.9706 112.999 29.4463C112.736 29.9488 112.543 30.5299 112.407 31.1875C112.394 31.2475 112.38 31.3075 112.363 31.3674C112.244 31.7707 111.659 31.9548 111.161 31.9672C110.523 31.9816 109.889 31.7604 109.889 31.324C109.889 31.2082 110.236 29.8971 111.349 28.6914C111.896 28.0958 112.64 27.5189 113.628 27.1197Z" fill="#C9D0D5"/>
<path d="M113.639 27.1176C114.455 26.7908 115.437 26.5861 116.619 26.6109C116.963 26.6171 117.3 26.644 117.673 26.6916C117.749 26.7019 117.792 26.8901 117.669 27.0162C117.622 27.0638 117.554 27.1031 117.455 27.1196C117.308 27.1424 117.152 27.1631 116.982 27.1713C115.661 27.2293 114.663 27.5912 113.925 28.2364C113.548 28.5652 113.24 28.9705 112.992 29.4441C112.729 29.9466 112.536 30.5277 112.401 31.1833C112.388 31.2433 112.373 31.3032 112.356 31.3632C112.24 31.7665 111.657 31.9526 111.156 31.965C110.518 31.9795 109.884 31.7582 109.884 31.3219C109.884 31.206 110.232 29.8929 111.349 28.6872C111.903 28.0937 112.649 27.5146 113.639 27.1176Z" fill="#C8D0D4"/>
<path d="M113.65 27.1154C114.464 26.7907 115.445 26.5881 116.624 26.6129C116.965 26.6212 117.304 26.646 117.673 26.6935C117.75 26.7039 117.79 26.8941 117.665 27.0182C117.618 27.0637 117.55 27.103 117.449 27.1175C117.3 27.1402 117.143 27.1588 116.976 27.165C115.657 27.223 114.659 27.5869 113.923 28.2301C113.546 28.5589 113.238 28.9642 112.99 29.4378C112.727 29.9403 112.532 30.5214 112.397 31.177C112.384 31.237 112.369 31.2969 112.352 31.3569C112.238 31.7622 111.659 31.9484 111.154 31.9608C110.518 31.9753 109.882 31.754 109.882 31.3197C109.882 31.2059 110.232 29.8886 111.351 28.683C111.909 28.0895 112.657 27.5104 113.65 27.1154Z" fill="#C7CFD3"/>
<path d="M113.66 27.1135C114.472 26.7909 115.451 26.5903 116.626 26.6172C116.965 26.6254 117.304 26.6502 117.673 26.6978C117.747 26.7081 117.79 26.8984 117.662 27.0225C117.616 27.068 117.546 27.1073 117.444 27.1197C117.296 27.1404 117.137 27.159 116.971 27.1652C115.655 27.2251 114.658 27.587 113.921 28.2323C113.545 28.5611 113.236 28.9643 112.99 29.4379C112.727 29.9404 112.532 30.5216 112.396 31.1751C112.384 31.235 112.369 31.295 112.352 31.355C112.239 31.7603 111.665 31.9485 111.156 31.9609C110.52 31.9754 109.886 31.7541 109.886 31.3198C109.886 31.2061 110.238 29.8887 111.357 28.681C111.915 28.0854 112.666 27.5085 113.66 27.1135Z" fill="#C6CED3"/>
<path d="M113.67 27.1113C114.482 26.7908 115.458 26.5922 116.63 26.6191C116.969 26.6274 117.306 26.6522 117.675 26.6998C117.749 26.7101 117.79 26.9024 117.66 27.0245C117.611 27.07 117.541 27.1072 117.44 27.1196C117.289 27.1382 117.132 27.1568 116.967 27.163C115.653 27.223 114.656 27.587 113.921 28.2322C113.545 28.561 113.236 28.9643 112.99 29.4378C112.727 29.9404 112.532 30.5194 112.396 31.1729C112.384 31.2329 112.369 31.2928 112.354 31.3528C112.244 31.7581 111.671 31.9484 111.162 31.9608C110.529 31.9753 109.893 31.754 109.893 31.3197C109.893 31.2081 110.244 29.8866 111.368 28.6789C111.921 28.0833 112.674 27.5042 113.67 27.1113Z" fill="#C5CDD2"/>
<path d="M113.681 27.1092C114.491 26.7907 115.466 26.5942 116.632 26.6211C116.969 26.6294 117.308 26.6542 117.675 26.7018C117.747 26.7121 117.787 26.9065 117.656 27.0264C117.607 27.0719 117.537 27.1071 117.433 27.1195C117.283 27.1381 117.124 27.1546 116.961 27.1609C115.646 27.2208 114.652 27.5869 113.918 28.2321C113.543 28.5609 113.236 28.9642 112.988 29.4357C112.725 29.9382 112.53 30.5172 112.394 31.1707C112.381 31.2307 112.367 31.2907 112.352 31.3507C112.244 31.756 111.675 31.9462 111.162 31.9607C110.529 31.9752 109.893 31.7539 109.893 31.3217C109.893 31.21 110.247 29.8886 111.372 28.6767C111.928 28.0791 112.682 27.5 113.681 27.1092Z" fill="#C4CCD1"/>
<path d="M113.692 27.1075C114.502 26.7911 115.473 26.5967 116.637 26.6236C116.974 26.6318 117.311 26.6567 117.675 26.7042C117.747 26.7146 117.788 26.909 117.652 27.0289C117.603 27.0723 117.531 27.1095 117.427 27.1199C117.275 27.1364 117.118 27.1509 116.952 27.1592C115.64 27.2212 114.646 27.5873 113.912 28.2325C113.537 28.5613 113.23 28.9646 112.982 29.4361C112.719 29.9386 112.524 30.5176 112.388 31.1691C112.375 31.229 112.361 31.289 112.346 31.349C112.24 31.7564 111.674 31.9466 111.159 31.9611C110.525 31.9777 109.889 31.7543 109.889 31.3221C109.889 31.2104 110.243 29.8869 111.373 28.675C111.937 28.0753 112.691 27.4983 113.692 27.1075Z" fill="#C3CBD0"/>
<path d="M113.702 27.1051C114.51 26.7908 115.479 26.5984 116.639 26.6274C116.973 26.6357 117.311 26.6605 117.675 26.708C117.747 26.7163 117.785 26.9148 117.65 27.0327C117.599 27.0761 117.527 27.1113 117.423 27.1216C117.27 27.1361 117.111 27.1506 116.948 27.1589C115.638 27.2209 114.644 27.589 113.912 28.2322C113.537 28.561 113.23 28.9642 112.982 29.4357C112.719 29.9383 112.524 30.5173 112.388 31.1687C112.375 31.2287 112.36 31.2887 112.346 31.3487C112.244 31.7561 111.68 31.9484 111.16 31.9629C110.529 31.9794 109.891 31.7561 109.891 31.3238C109.891 31.2142 110.247 29.8866 111.377 28.6747C111.943 28.0729 112.7 27.4918 113.702 27.1051Z" fill="#C2CAD0"/>
<path d="M113.713 27.1029C114.519 26.7907 115.488 26.6004 116.643 26.6294C116.976 26.6376 117.315 26.6624 117.677 26.71C117.747 26.7183 117.786 26.9168 117.648 27.0368C117.597 27.0802 117.525 27.1133 117.419 27.1215C117.264 27.134 117.105 27.1484 116.944 27.1567C115.634 27.2208 114.644 27.5889 113.91 28.2321C113.535 28.5609 113.228 28.9642 112.982 29.4336C112.719 29.9361 112.524 30.5131 112.386 31.1645C112.373 31.2245 112.361 31.2845 112.346 31.3444C112.246 31.7518 111.684 31.9462 111.165 31.9607C110.533 31.9772 109.895 31.7539 109.895 31.3238C109.895 31.2142 110.251 29.8865 111.385 28.6726C111.949 28.0687 112.708 27.4876 113.713 27.1029Z" fill="#C1CACF"/>
<path d="M113.724 27.0988C114.529 26.7886 115.494 26.6004 116.647 26.6294C116.98 26.6377 117.317 26.6625 117.677 26.71C117.747 26.7183 117.785 26.9189 117.643 27.0368C117.593 27.0802 117.518 27.1112 117.412 27.1195C117.258 27.1319 117.099 27.1443 116.937 27.1505C115.629 27.2146 114.639 27.5848 113.908 28.228C113.533 28.5568 113.225 28.96 112.979 29.4295C112.717 29.9299 112.522 30.509 112.384 31.1604C112.371 31.2204 112.358 31.2804 112.343 31.3403C112.246 31.7498 111.688 31.9421 111.165 31.9566C110.533 31.9731 109.897 31.7498 109.897 31.3196C109.897 31.2121 110.255 29.8803 111.392 28.6664C111.955 28.0667 112.717 27.4855 113.724 27.0988Z" fill="#C0C9CE"/>
<path d="M113.734 27.0972C114.538 26.789 115.5 26.6029 116.649 26.6319C116.98 26.6401 117.317 26.6649 117.677 26.7125C117.745 26.7208 117.783 26.9234 117.639 27.0393C117.588 27.0806 117.512 27.1137 117.406 27.1199C117.249 27.1303 117.09 27.1427 116.929 27.1489C115.623 27.215 114.633 27.5852 113.904 28.2284C113.529 28.5572 113.223 28.9604 112.975 29.4278C112.712 29.9283 112.515 30.5073 112.38 31.1567C112.367 31.2166 112.354 31.2766 112.339 31.3366C112.244 31.7461 111.691 31.9405 111.163 31.9549C110.533 31.9715 109.895 31.7481 109.895 31.318C109.895 31.2104 110.255 29.8786 111.394 28.6626C111.962 28.0629 112.725 27.4818 113.734 27.0972Z" fill="#BFC8CD"/>
<path d="M113.745 27.0948C114.548 26.7887 115.508 26.6047 116.653 26.6357C116.984 26.644 117.321 26.6688 117.679 26.7164C117.747 26.7246 117.783 26.9273 117.639 27.0431C117.586 27.0845 117.512 27.1155 117.404 27.1217C117.247 27.13 117.088 27.1403 116.927 27.1486C115.621 27.2148 114.633 27.587 113.904 28.2302C113.528 28.559 113.223 28.9622 112.975 29.4296C112.71 29.9301 112.515 30.5091 112.379 31.1564C112.367 31.2164 112.354 31.2763 112.339 31.3363C112.246 31.7458 111.695 31.9422 111.167 31.9567C110.537 31.9733 109.899 31.7499 109.899 31.3218C109.899 31.2143 110.259 29.8804 111.4 28.6644C111.968 28.0585 112.733 27.4795 113.745 27.0948Z" fill="#BEC7CD"/>
<path d="M113.755 27.0928C114.557 26.7888 115.515 26.6089 116.655 26.6378C116.984 26.6461 117.321 26.6709 117.679 26.7185C117.745 26.7267 117.783 26.9315 117.635 27.0452C117.582 27.0866 117.506 27.1155 117.397 27.1217C117.238 27.13 117.079 27.1383 116.92 27.1465C115.617 27.2148 114.631 27.587 113.902 28.2281C113.526 28.5569 113.221 28.9581 112.975 29.4276C112.71 29.928 112.515 30.5071 112.379 31.1543C112.367 31.2143 112.354 31.2743 112.341 31.3343C112.25 31.7458 111.703 31.9423 111.171 31.9567C110.544 31.9733 109.903 31.7499 109.903 31.3219C109.903 31.2164 110.266 29.8784 111.409 28.6624C111.977 28.0565 112.742 27.4754 113.755 27.0928Z" fill="#BDC6CC"/>
<path d="M113.766 27.0906C114.567 26.7887 115.524 26.6108 116.66 26.6398C116.986 26.6481 117.323 26.6729 117.68 26.7204C117.745 26.7287 117.781 26.9334 117.631 27.0472C117.578 27.0865 117.499 27.1175 117.391 27.1216C117.232 27.1278 117.071 27.1361 116.914 27.1444C115.613 27.2126 114.627 27.5869 113.898 28.228C113.524 28.5568 113.217 28.958 112.971 29.4254C112.706 29.9259 112.511 30.5028 112.375 31.1501C112.363 31.2101 112.35 31.2701 112.337 31.33C112.248 31.7416 111.703 31.9401 111.169 31.9546C110.542 31.9711 109.901 31.7478 109.901 31.3197C109.901 31.2142 110.264 29.8762 111.411 28.6582C111.983 28.0522 112.751 27.4711 113.766 27.0906Z" fill="#BCC5CB"/>
<path d="M113.776 27.0888C114.576 26.7889 115.53 26.6131 116.662 26.6442C116.988 26.6524 117.325 26.6772 117.679 26.7248C117.743 26.7331 117.779 26.9399 117.626 27.0515C117.571 27.0908 117.495 27.1198 117.385 27.1219C117.223 27.126 117.064 27.1343 116.908 27.1425C115.606 27.2129 114.622 27.5872 113.895 28.2283C113.522 28.5571 113.215 28.9583 112.969 29.4256C112.704 29.9261 112.509 30.5031 112.371 31.1504C112.358 31.2103 112.345 31.2703 112.333 31.3303C112.246 31.7418 111.705 31.9403 111.167 31.9569C110.539 31.9755 109.899 31.7501 109.899 31.322C109.899 31.2186 110.264 29.8765 111.413 28.6563C111.989 28.0483 112.759 27.4693 113.776 27.0888Z" fill="#BBC5CA"/>
<path d="M113.787 27.0866C114.586 26.7888 115.536 26.6151 116.666 26.6461C116.99 26.6544 117.327 26.6792 117.682 26.7268C117.745 26.7351 117.781 26.9439 117.626 27.0535C117.571 27.0928 117.493 27.1197 117.383 27.1218C117.219 27.1239 117.06 27.1321 116.903 27.1404C115.604 27.2107 114.62 27.5871 113.893 28.2282C113.52 28.557 113.213 28.9582 112.967 29.4235C112.702 29.9239 112.507 30.5009 112.369 31.1461C112.356 31.2061 112.343 31.2661 112.331 31.3261C112.246 31.7397 111.707 31.9382 111.169 31.9547C110.544 31.9733 109.903 31.7479 109.903 31.3219C109.903 31.2185 110.27 29.8743 111.419 28.6542C111.996 28.0462 112.767 27.4651 113.787 27.0866Z" fill="#BAC4CA"/>
<path d="M113.798 27.0845C114.595 26.7888 115.545 26.6171 116.67 26.6481C116.993 26.6564 117.33 26.6812 117.682 26.7288C117.743 26.7371 117.779 26.9459 117.622 27.0576C117.567 27.0969 117.487 27.1238 117.376 27.1238C117.213 27.1258 117.054 27.13 116.897 27.1403C115.6 27.2127 114.618 27.5891 113.891 28.2302C113.518 28.559 113.213 28.9602 112.967 29.4255C112.702 29.9259 112.507 30.5029 112.369 31.1481C112.356 31.2081 112.344 31.2681 112.333 31.328C112.25 31.7416 111.716 31.9422 111.173 31.9588C110.548 31.9774 109.908 31.752 109.908 31.326C109.908 31.2226 110.274 29.8784 111.428 28.6562C112.002 28.042 112.776 27.4629 113.798 27.0845Z" fill="#B9C3C9"/>
<path d="M117.682 26.7308C116.107 26.5302 114.832 26.706 113.808 27.0824C112.785 27.4588 112.009 28.0399 111.432 28.65C110.277 29.8722 109.908 31.2205 109.908 31.3218C109.908 32.1201 112.161 32.209 112.331 31.3218C112.585 29.9942 113.077 28.9436 113.891 28.226C114.703 27.5084 115.837 27.1217 117.374 27.1217C117.8 27.1217 117.766 26.7412 117.682 26.7308Z" fill="#B8C2C8"/>
<path d="M114.199 23C112.352 23 109.817 24.096 109.814 27.5414V31.3444C109.814 32.2192 112.32 32.2192 112.32 31.3444V27.409C112.32 25.7939 113.365 24.5779 114.826 24.5448C115.981 24.5179 116.914 25.0928 116.914 26.7307C116.914 27.1422 117.747 27.1422 117.747 26.7307C117.747 23.9658 116.177 23 114.199 23Z" fill="url(#paint0_linear_1302_11646)"/>
<path d="M120.23 31.8094H119.316C119.234 31.8094 119.206 31.7556 119.166 31.7039L118.089 30.2873H117.985C117.79 30.2873 117.491 30.2687 117.317 30.2646V31.7019C117.317 31.7618 117.258 31.8073 117.175 31.8073H116.427C116.344 31.8073 116.278 31.7598 116.278 31.7019V28.0497C116.278 27.9443 116.367 27.905 116.518 27.8905C116.906 27.8471 117.438 27.8223 117.985 27.8223C119.136 27.8223 120.139 28.1139 120.139 29.0217V29.0672C120.139 29.6318 119.74 29.9813 119.13 30.1509L120.304 31.6998C120.342 31.7556 120.313 31.8094 120.23 31.8094ZM119.108 29.0217C119.108 28.6226 118.733 28.453 117.987 28.453C117.83 28.453 117.455 28.4634 117.319 28.4737V29.669C117.44 29.6731 117.858 29.6835 117.987 29.6835C118.757 29.6835 119.108 29.5366 119.108 29.0672V29.0217Z" fill="#51656F"/>
<path d="M124.243 31.7784C124.004 31.8053 123.711 31.8528 122.821 31.8528C121.847 31.8528 121.093 31.6667 121.093 30.763V28.91C121.093 28.0084 121.847 27.8223 122.821 27.8223C123.711 27.8223 124.004 27.8698 124.243 27.8967C124.355 27.9071 124.391 27.9339 124.391 28.0084V28.3496C124.391 28.4075 124.324 28.4551 124.243 28.4551H122.717C122.282 28.4551 122.125 28.5605 122.125 28.91V29.4849H124.152C124.235 29.4849 124.302 29.5325 124.302 29.5925V29.9751C124.302 30.033 124.235 30.0805 124.152 30.0805H122.125V30.7651C122.125 31.1166 122.282 31.2221 122.717 31.2221H124.243C124.326 31.2221 124.391 31.2696 124.391 31.3276V31.6667C124.391 31.7412 124.355 31.766 124.243 31.7784Z" fill="#51656F"/>
<path d="M128.479 31.7661C128.367 31.7868 127.873 31.8509 127.298 31.8509C126.399 31.8509 125.18 31.5365 125.18 30.2254V29.4437C125.18 28.1119 126.399 27.8203 127.298 27.8203C127.875 27.8203 128.367 27.8844 128.479 27.9051C128.576 27.9258 128.644 27.9527 128.644 28.0271V28.3828C128.644 28.4511 128.6 28.5007 128.479 28.4945C128.216 28.4779 127.707 28.4511 127.313 28.4511C126.685 28.4511 126.227 28.6909 126.227 29.4437V30.2254C126.227 30.9637 126.685 31.2181 127.313 31.2181C127.709 31.2181 128.218 31.1912 128.479 31.1746C128.6 31.1684 128.644 31.2181 128.644 31.2863V31.642C128.642 31.7185 128.576 31.7475 128.479 31.7661Z" fill="#51656F"/>
<path d="M133.418 31.8094H132.505C132.422 31.8094 132.392 31.7556 132.354 31.7039L131.277 30.2873H131.173C130.978 30.2873 130.677 30.2687 130.508 30.2646V31.7019C130.508 31.7618 130.448 31.8073 130.366 31.8073H129.617C129.534 31.8073 129.469 31.7598 129.469 31.7019V28.0497C129.469 27.9443 129.56 27.905 129.706 27.8905C130.096 27.8471 130.628 27.8223 131.175 27.8223C132.326 27.8223 133.331 28.1139 133.331 29.0217V29.0672C133.331 29.6318 132.935 29.9813 132.322 30.1509L133.497 31.6998C133.529 31.7556 133.499 31.8094 133.418 31.8094ZM132.297 29.0217C132.297 28.6226 131.922 28.453 131.173 28.453C131.014 28.453 130.641 28.4634 130.508 28.4737V29.669C130.626 29.6731 131.046 29.6835 131.173 29.6835C131.943 29.6835 132.297 29.5366 132.297 29.0672V29.0217Z" fill="#51656F"/>
<path d="M137.838 31.762C137.578 31.7868 136.634 31.853 136.178 31.853C134.974 31.853 134.135 31.4911 134.135 30.3619V27.9651C134.135 27.9051 134.203 27.8638 134.285 27.8638H135.027C135.108 27.8638 135.176 27.9072 135.176 27.9651V30.3599C135.176 30.9637 135.371 31.2408 136.178 31.2408C136.477 31.2408 136.935 31.2202 137.211 31.1974V27.9651C137.211 27.9051 137.27 27.8638 137.353 27.8638H138.095C138.175 27.8638 138.243 27.9072 138.243 27.9651V31.4373C138.243 31.6606 138.11 31.7351 137.838 31.762Z" fill="#51656F"/>
<path d="M140.183 31.8095H139.443C139.361 31.8095 139.295 31.762 139.295 31.7041V27.9651C139.295 27.9051 139.363 27.8638 139.443 27.8638H140.183C140.266 27.8638 140.334 27.9072 140.334 27.9651V31.702C140.332 31.762 140.266 31.8095 140.183 31.8095Z" fill="#51656F"/>
<path d="M144.849 28.48H143.539V31.702C143.539 31.762 143.471 31.8075 143.388 31.8075H142.649C142.566 31.8075 142.498 31.7599 142.498 31.702V28.48H141.19C141.107 28.48 141.04 28.4428 141.04 28.3849V27.9651C141.04 27.9051 141.107 27.8638 141.19 27.8638H144.849C144.932 27.8638 144.998 27.9072 144.998 27.9651V28.3849C145 28.4428 144.932 28.48 144.849 28.48Z" fill="#51656F"/>
<path d="M72.5306 28.2158C72.8825 28.2158 73.1497 28.3047 73.3299 28.4805C73.5101 28.6563 73.6012 28.9045 73.6012 29.2229C73.6012 29.5414 73.5101 29.7896 73.3299 29.9674C73.1497 30.1453 72.8825 30.2321 72.5306 30.2301H71.4643V31.6239H71V28.2158H72.5306ZM72.3737 29.8475C72.6387 29.8516 72.8317 29.7979 72.9525 29.6903C73.0755 29.5828 73.1369 29.4256 73.1369 29.2229C73.1369 29.0203 73.0755 28.8652 72.9525 28.7576C72.8295 28.6501 72.6366 28.5984 72.3737 28.5984H71.4643V29.8496H72.3737V29.8475Z" fill="#51656F"/>
<path d="M75.9122 28.2158C76.245 28.2158 76.5058 28.2965 76.6923 28.4536C76.8789 28.6129 76.9743 28.83 76.9743 29.1071C76.9743 29.3139 76.9255 29.4959 76.8301 29.651C76.7347 29.8061 76.58 29.9137 76.368 29.9716V29.9819C76.4697 30.0005 76.5524 30.0336 76.616 30.077C76.6796 30.1225 76.7305 30.1742 76.7687 30.2363C76.8068 30.2983 76.8344 30.3666 76.8513 30.4431C76.8683 30.5196 76.8831 30.5982 76.8937 30.6809C76.9001 30.7636 76.9043 30.8484 76.9086 30.9332C76.9128 31.02 76.9192 31.1028 76.934 31.1855C76.9467 31.2682 76.9658 31.3468 76.9891 31.4212C77.0146 31.4957 77.0506 31.5619 77.0994 31.6198H76.5757C76.5439 31.5846 76.5206 31.5371 76.51 31.4771C76.4994 31.4171 76.4909 31.3489 76.4888 31.2744C76.4867 31.2 76.4825 31.1193 76.4782 31.0325C76.474 30.9456 76.4655 30.8629 76.4485 30.7802C76.4358 30.6974 76.4189 30.6189 76.3998 30.5444C76.3807 30.47 76.3489 30.4038 76.3065 30.3479C76.2641 30.2921 76.209 30.2466 76.139 30.2135C76.0712 30.1804 75.98 30.1639 75.8656 30.1639H74.7314V31.6198H74.2671V28.2158H75.9122ZM76.0097 29.7627C76.1072 29.7462 76.1942 29.7151 76.2662 29.6696C76.3404 29.6241 76.3977 29.5621 76.4422 29.4835C76.4867 29.4049 76.5079 29.3036 76.5079 29.1795C76.5079 29.0079 76.4591 28.8672 76.3616 28.7597C76.2641 28.6522 76.1051 28.5963 75.8868 28.5963H74.7314V29.7854H75.7002C75.8083 29.7854 75.9122 29.7792 76.0097 29.7627Z" fill="#51656F"/>
<path d="M77.625 29.2495C77.695 29.0345 77.801 28.8442 77.9409 28.6788C78.0808 28.5133 78.2547 28.381 78.4646 28.2817C78.6723 28.1824 78.9161 28.1328 79.1938 28.1328C79.4715 28.1328 79.7132 28.1824 79.9231 28.2817C80.1309 28.381 80.3068 28.5133 80.4467 28.6788C80.5867 28.8442 80.6926 29.0345 80.7626 29.2495C80.8326 29.4646 80.8686 29.688 80.8686 29.9196C80.8686 30.1512 80.8326 30.3745 80.7626 30.5896C80.6926 30.8047 80.5867 30.9949 80.4467 31.1604C80.3068 31.3258 80.133 31.4582 79.9231 31.5533C79.7153 31.6505 79.4715 31.6981 79.1938 31.6981C78.9161 31.6981 78.6744 31.6484 78.4646 31.5533C78.2547 31.4561 78.0808 31.3258 77.9409 31.1604C77.801 30.9949 77.695 30.8047 77.625 30.5896C77.5551 30.3745 77.519 30.1512 77.519 29.9196C77.5212 29.688 77.5551 29.4646 77.625 29.2495ZM78.0533 30.4283C78.0999 30.5958 78.172 30.7468 78.2695 30.8791C78.367 31.0136 78.4921 31.1211 78.6469 31.2017C78.7995 31.2824 78.9818 31.3238 79.1959 31.3238C79.4079 31.3238 79.5903 31.2824 79.7429 31.2017C79.8955 31.1211 80.0227 31.0136 80.1203 30.8791C80.2178 30.7447 80.2899 30.5958 80.3365 30.4283C80.3831 30.2608 80.4043 30.0912 80.4043 29.9196C80.4043 29.7479 80.381 29.5784 80.3365 29.4108C80.2899 29.2433 80.2199 29.0944 80.1203 28.96C80.0227 28.8256 79.8977 28.7201 79.7429 28.6374C79.5903 28.5568 79.4079 28.5154 79.1959 28.5154C78.9839 28.5154 78.8016 28.5568 78.6469 28.6374C78.4942 28.7181 78.3692 28.8256 78.2695 28.96C78.172 29.0944 78.0999 29.2433 78.0533 29.4108C78.0066 29.5784 77.9854 29.7479 77.9854 29.9196C77.9854 30.0912 78.0088 30.2608 78.0533 30.4283Z" fill="#51656F"/>
<path d="M82.73 28.2158C83.2685 28.2158 83.6819 28.3502 83.9723 28.617C84.2628 28.8838 84.4069 29.2912 84.4069 29.8392C84.4069 30.1267 84.3751 30.379 84.3094 30.6002C84.2437 30.8215 84.1419 31.0076 84.0062 31.1586C83.8684 31.3096 83.6946 31.4254 83.4826 31.504C83.2706 31.5846 83.0205 31.6239 82.73 31.6239H81.5322V28.2158H82.73ZM82.7703 31.2413C82.8233 31.2413 82.8869 31.2372 82.9653 31.2289C83.0438 31.2206 83.1265 31.202 83.2155 31.171C83.3045 31.14 83.3914 31.0966 83.4762 31.0387C83.5632 30.9808 83.6395 30.9042 83.7094 30.805C83.7794 30.7057 83.8345 30.5837 83.879 30.4348C83.9236 30.2859 83.9448 30.1081 83.9448 29.8971C83.9448 29.6945 83.9236 29.5104 83.8833 29.3512C83.843 29.1899 83.7752 29.0534 83.6819 28.9396C83.5886 28.8259 83.4699 28.7411 83.3236 28.6811C83.1773 28.6212 82.995 28.5922 82.7809 28.5922H81.9986V31.2351H82.7703V31.2413Z" fill="#51656F"/>
<path d="M87.5039 31.3737C87.2665 31.5908 86.9273 31.7004 86.4863 31.7004C86.0369 31.7004 85.685 31.597 85.4327 31.3882C85.1804 31.1793 85.0532 30.8484 85.0532 30.3934V28.2158H85.5175V30.3914C85.5175 30.6974 85.6002 30.927 85.7677 31.0862C85.9351 31.2434 86.1747 31.322 86.4863 31.322C86.7831 31.322 87.0078 31.2434 87.1647 31.0862C87.3195 30.9291 87.3979 30.6974 87.3979 30.3914V28.2158H87.8622V30.3914C87.8622 30.8277 87.7435 31.1545 87.5039 31.3737Z" fill="#51656F"/>
<path d="M90.8133 28.6975C90.6353 28.5776 90.4254 28.5155 90.1795 28.5155C89.9717 28.5155 89.7915 28.5548 89.6431 28.6293C89.4947 28.7058 89.3717 28.8092 89.2763 28.9374C89.1809 29.0656 89.1089 29.2145 89.0622 29.3779C89.0156 29.5433 88.9944 29.715 88.9944 29.8928C88.9944 30.0872 89.0177 30.2713 89.0622 30.4429C89.1089 30.6166 89.1788 30.7676 89.2763 30.8958C89.3717 31.024 89.4947 31.1274 89.6452 31.2039C89.7957 31.2804 89.9738 31.3177 90.1837 31.3177C90.3363 31.3177 90.4741 31.2929 90.5929 31.2432C90.7116 31.1936 90.8133 31.1253 90.9003 31.0385C90.9872 30.9516 91.055 30.8462 91.1038 30.7262C91.1525 30.6042 91.1822 30.4739 91.1928 30.3354H91.6571C91.6104 30.7655 91.4599 31.0985 91.2013 31.3384C90.9448 31.5762 90.5907 31.6961 90.1455 31.6961C89.8742 31.6961 89.6389 31.6506 89.4375 31.5596C89.2361 31.4686 89.0665 31.3446 88.9329 31.1853C88.7993 31.0261 88.6997 30.8379 88.6319 30.6228C88.564 30.4057 88.5322 30.1741 88.5322 29.9259C88.5322 29.6777 88.5683 29.444 88.6403 29.2269C88.7124 29.0098 88.8163 28.8195 88.9562 28.6561C89.094 28.4948 89.2679 28.3666 89.4756 28.2715C89.6834 28.1784 89.9208 28.1309 90.1879 28.1309C90.3703 28.1309 90.5441 28.1557 90.7073 28.2032C90.8706 28.2508 91.0147 28.3211 91.1419 28.4142C91.2691 28.5072 91.3751 28.621 91.4599 28.7595C91.5447 28.8981 91.5998 29.0573 91.6253 29.2393H91.161C91.1059 28.9994 90.9914 28.8195 90.8133 28.6975Z" fill="#51656F"/>
<path d="M94.7436 28.2158V28.5984H92.7974V29.682H94.6121V30.0646H92.7974V31.2434H94.7584V31.626H92.3311V28.2158H94.7436Z" fill="#51656F"/>
<path d="M96.6177 28.2158C97.1562 28.2158 97.5696 28.3502 97.86 28.617C98.1505 28.8838 98.2946 29.2912 98.2946 29.8392C98.2946 30.1267 98.2607 30.379 98.1971 30.6002C98.1335 30.8215 98.0317 31.0076 97.8939 31.1586C97.7561 31.3096 97.5823 31.4254 97.3703 31.504C97.1583 31.5846 96.906 31.6239 96.6177 31.6239H95.4199V28.2158H96.6177ZM96.658 31.2413C96.711 31.2413 96.7746 31.2372 96.853 31.2289C96.9315 31.2206 97.0141 31.202 97.1032 31.171C97.1901 31.14 97.2791 31.0966 97.3639 31.0387C97.4509 30.9808 97.5272 30.9042 97.5971 30.805C97.665 30.7057 97.7222 30.5837 97.7667 30.4348C97.8113 30.2859 97.8325 30.1081 97.8325 29.8971C97.8325 29.6945 97.8113 29.5104 97.771 29.3512C97.7307 29.1899 97.6629 29.0534 97.5696 28.9396C97.4763 28.8259 97.3576 28.7411 97.2092 28.6811C97.0629 28.6212 96.8806 28.5922 96.6665 28.5922H95.8842V31.2351H96.658V31.2413Z" fill="#51656F"/>
<path d="M101.687 28.2158C101.761 28.2158 101.841 28.2179 101.928 28.2179C102.015 28.22 102.1 28.2241 102.185 28.2324C102.27 28.2406 102.348 28.253 102.422 28.2675C102.497 28.2841 102.558 28.3068 102.611 28.3399C102.725 28.4061 102.823 28.4991 102.901 28.617C102.982 28.7349 103.02 28.8797 103.02 29.0513C103.02 29.2333 102.976 29.3884 102.887 29.5207C102.798 29.6531 102.668 29.7503 102.503 29.8144V29.8247C102.719 29.8702 102.882 29.9654 102.997 30.1101C103.111 30.257 103.169 30.4348 103.169 30.6437C103.169 30.7678 103.145 30.8877 103.101 31.0056C103.054 31.1234 102.988 31.2268 102.897 31.3178C102.808 31.4088 102.696 31.4812 102.564 31.5371C102.433 31.5929 102.28 31.6198 102.106 31.6198H100.419V28.2158H101.687ZM101.814 29.682C102.079 29.682 102.268 29.6365 102.384 29.5456C102.501 29.4546 102.558 29.3201 102.558 29.1382C102.558 29.0182 102.539 28.921 102.499 28.8528C102.46 28.7825 102.405 28.7287 102.338 28.6894C102.27 28.6522 102.189 28.6274 102.1 28.6149C102.011 28.6046 101.916 28.5984 101.814 28.5984H100.885V29.682H101.814V29.682ZM102.047 31.2413C102.253 31.2413 102.414 31.1876 102.528 31.078C102.645 30.9704 102.702 30.8195 102.702 30.6292C102.702 30.5175 102.681 30.4265 102.639 30.3521C102.596 30.2797 102.539 30.2197 102.469 30.1784C102.399 30.1349 102.318 30.106 102.227 30.0874C102.136 30.0708 102.041 30.0605 101.943 30.0605H100.881V31.2393H102.047V31.2413Z" fill="#51656F"/>
<path d="M105.312 31.6239H104.847V30.2301L103.497 28.2158H104.05L105.098 29.8392L106.119 28.2158H106.647L105.312 30.2301V31.6239Z" fill="#51656F"/>
</g>
<defs>
<linearGradient id="paint0_linear_1302_11646" x1="109.882" y1="26.1298" x2="116.542" y2="29.3136" gradientUnits="userSpaceOnUse">
<stop stop-color="#54C2F0"/>
<stop offset="0.0253" stop-color="#49B9EB"/>
<stop offset="0.1237" stop-color="#219ADA"/>
<stop offset="0.202" stop-color="#0987CF"/>
<stop offset="0.25" stop-color="#0080CB"/>
<stop offset="0.4" stop-color="#0068B6"/>
<stop offset="0.64" stop-color="#005BAB"/>
<stop offset="1" stop-color="#004DA0"/>
</linearGradient>
<clipPath id="clip0_1302_11646">
<rect width="145" height="23" fill="white"/>
</clipPath>
<clipPath id="clip1_1302_11646">
<rect width="74" height="9" fill="white" transform="translate(71 23)"/>
</clipPath>
</defs>
</svg>
