<svg width="199" height="31" viewBox="0 0 199 31" fill="none" xmlns="http://www.w3.org/2000/svg">
<g clip-path="url(#clip0_125_5565)">
<path d="M187.905 15.4598H182.868C182.152 15.4598 181.81 15.7808 181.81 16.4661V18.1578C181.81 18.8493 182.146 19.1642 182.868 19.1642H187.905C188.615 19.1642 188.951 18.8431 188.951 18.1578V16.4661C188.951 15.7746 188.615 15.4598 187.905 15.4598ZM187.823 17.88C187.823 18.1022 187.741 18.1516 187.513 18.1516H183.223C183.008 18.1516 182.925 18.1022 182.925 17.88V16.7316C182.925 16.5032 183.008 16.4538 183.223 16.4538H187.513C187.741 16.4538 187.823 16.5032 187.823 16.7316V17.88ZM189.946 13.6261V14.6324H180.822V13.6261H184.921V12.2987H182.33C182.045 12.6814 181.722 13.0457 181.348 13.41V11.7615C181.722 11.2923 182.057 10.7922 182.336 10.1501H183.546C183.369 10.5638 183.179 10.9465 182.97 11.3108H184.921V10.1501H186.049V11.3108H189.293V12.2987H186.049V13.6261H189.952H189.946ZM178.281 11.354H175.468V10.1439H174.321V11.354H171.648C170.837 11.354 170.469 11.7059 170.469 12.4221V15.9907C170.469 16.7131 170.837 17.0588 171.648 17.0588H174.321V19.1703H175.468V17.0588H178.281C179.092 17.0588 179.46 16.7069 179.46 15.9907V12.4221C179.46 11.6998 179.092 11.354 178.281 11.354ZM174.321 16.0648H171.958C171.673 16.0648 171.597 15.9845 171.597 15.7438V14.6448H174.321V16.0648ZM174.321 13.6693H171.597V12.6814C171.597 12.4407 171.667 12.3604 171.958 12.3604H174.321V13.6693ZM178.338 15.7499C178.338 15.9907 178.256 16.071 177.977 16.071H175.468V14.651H178.332V15.7499H178.338ZM178.338 13.6693H175.474V12.3604H177.983C178.262 12.3604 178.345 12.4407 178.345 12.6814V13.6693H178.338ZM168.885 18.059V19.1765H167.574C166.807 19.1765 165.901 19.1209 165.198 19.0222C163.81 18.8246 162.885 18.2381 162.169 17.3058C161.751 18.0714 161.174 18.7443 160.459 19.2444V17.6083C161.174 16.9786 161.517 16.3118 161.726 15.1943H162.898C162.841 15.5709 162.746 15.9413 162.619 16.3056C163.063 16.9106 163.544 17.3367 164.133 17.6207V13.9039H161.745V12.9161H167.555V13.9039H165.261V15.1943H168.043V16.1821H165.261V17.9294C165.692 17.9787 166.116 18.0158 166.883 18.0528C167.586 18.0837 168.892 18.0528 168.892 18.0528L168.885 18.059ZM169.196 11.8603V12.9222H168.081V12.2554C168.081 12.0579 167.998 11.9838 167.764 11.9838H161.567C161.333 11.9838 161.251 12.0517 161.251 12.2554V12.9222H160.135V11.8603C160.135 11.2305 160.471 10.9712 161.162 10.9712H164V10.1501H165.179V10.9712H168.169C168.847 10.9712 169.196 11.2305 169.196 11.8603ZM157.931 10.9712H156.03C156.099 10.7119 156.195 10.4341 156.252 10.1501H155.219C155.162 10.4341 155.086 10.6996 154.997 10.9712H153.749C153.122 10.9836 152.805 11.1812 152.818 11.8294V12.6259H153.774V12.1258C153.774 11.9529 153.812 11.9035 154.002 11.9035H154.687C154.192 13.0395 153.521 13.9656 152.779 14.7065V14.6201C152.779 13.8915 152.564 13.6631 151.918 13.6631H151.1C151.341 13.0025 151.576 12.2863 151.715 11.4713H152.773V10.4835H149.548V11.4713H150.657C150.461 12.8049 149.941 13.9471 149.282 14.935V16.392C149.555 16.0833 149.783 15.7931 150.042 15.4104V17.9787C150.042 18.7196 150.277 18.9357 150.917 18.9357H151.93C152.564 18.9357 152.779 18.7382 152.779 18.0034V15.9228C153.046 15.7129 153.286 15.4968 153.521 15.256C153.521 15.256 153.521 15.4659 153.521 15.5585V18.1146C153.521 18.8863 153.787 19.1642 154.617 19.1642H158.716V18.2751H156.841V17.4354H158.349V16.6081H156.841V15.8302H158.349V15.0029H156.841V14.2311H158.716V13.3853H157.012C157.113 13.1754 157.208 12.984 157.303 12.737H156.252C156.163 12.9531 156.036 13.2124 155.941 13.3791H154.978C155.263 12.9099 155.529 12.4221 155.726 11.8973H157.563C157.747 11.8973 157.791 11.9467 157.791 12.1196V12.5271H158.856V11.8479C158.856 11.2059 158.602 10.9589 157.912 10.9589L157.931 10.9712ZM151.829 17.6886C151.829 17.9108 151.766 17.9602 151.626 17.9602H151.208C151.062 17.9602 151.005 17.9108 151.005 17.6886V14.9041C151.005 14.6942 151.069 14.6324 151.208 14.6324H151.626C151.772 14.6324 151.829 14.6942 151.829 14.9041V17.6886ZM155.859 18.2875H154.826C154.661 18.2875 154.579 18.2381 154.579 18.0281V17.4478H155.859V18.2875ZM155.859 16.6205H154.579V15.8425H155.859V16.6205ZM155.859 14.2435V15.0152H154.579V14.5028C154.579 14.3052 154.63 14.2435 154.826 14.2435H155.859ZM145.968 10.3353H144.853V12.1073H145.968V10.3353ZM128.152 10.4588H122.209V11.6936H128.152V10.4588ZM142.889 10.3353H141.514V19.1827H142.889V14.9535C144.429 15.3671 146.089 15.9413 147.54 16.5649V14.9967C146.057 14.4163 144.499 13.9039 142.889 13.4779V10.3353ZM146.539 10.3353V12.1073H147.673V10.3353H146.539ZM137.852 11.6319H135.837V10.3353H134.463V11.6319H132.498C131.611 11.6319 131.168 12.0455 131.168 12.8914V14.8238H132.524V13.2371C132.524 12.9161 132.631 12.8111 133.005 12.8111H137.434C137.789 12.8111 137.916 12.9161 137.916 13.2186V13.2927C137.852 14.4966 137.497 15.5153 136.762 16.3056C136.091 17.0403 134.957 17.5898 133.709 17.8861V19.2012C135.077 19.0036 136.56 18.3739 137.624 17.3367C138.689 16.2994 139.233 14.8362 139.316 13.1815C139.316 13.1383 139.316 13.0889 139.316 13.0457C139.316 12.1134 138.923 11.6442 137.859 11.6442L137.852 11.6319ZM128.051 12.9284H121.335V14.1632H127.487C127.772 14.1632 127.892 14.2682 127.892 14.4349C127.892 14.4966 127.88 14.5583 127.861 14.6201C127.411 16.2006 125.96 17.5095 123.267 17.8738V19.1889C126.707 18.8863 128.76 16.9662 129.28 14.6201C129.324 14.4349 129.343 14.2435 129.343 14.0891C129.343 13.8298 129.293 13.6199 129.172 13.447C128.957 13.1136 128.621 12.9284 128.051 12.9284ZM118.249 11.0947H115.297C115.398 10.8539 115.493 10.6008 115.582 10.3353H114.099C113.871 10.9527 113.599 11.4837 113.149 12.0702C112.762 12.5703 112.331 13.021 111.888 13.3544V14.9844C112.838 14.3916 113.58 13.7187 114.188 12.9654C114.353 12.7555 114.517 12.5271 114.676 12.2801H117.692C118.008 12.2801 118.116 12.3789 118.103 12.5641C118.103 12.6259 118.091 12.6753 118.084 12.7308C117.533 15.1819 115.765 17.028 113.003 17.8182V19.1703C116.71 18.3368 118.908 15.787 119.548 12.7679C119.58 12.6012 119.605 12.453 119.605 12.3048C119.605 11.5392 119.149 11.0638 118.255 11.0762L118.249 11.0947Z" fill="#4A4A4A"/>
<path d="M34.1391 10.2057L35.476 19.1395H33.7209L33.0113 13.7434H32.986L30.9585 19.2568H30.3566L28.3988 13.7434H28.3735L27.5815 19.1395H25.8265L27.3344 10.2057H28.5699L30.7748 15.9414L32.8846 10.2057H34.1391ZM42.2237 16.3118C42.2237 18.0652 40.9945 19.3247 39.1634 19.3247C37.3324 19.3247 36.1032 18.0652 36.1032 16.3118C36.1032 14.5584 37.345 13.2866 39.1634 13.2866C40.9818 13.2866 42.2237 14.5461 42.2237 16.3118ZM40.5447 16.3118C40.5447 15.5277 40.0251 14.7189 39.1698 14.7189C38.3144 14.7189 37.7949 15.5277 37.7949 16.3118C37.7949 17.0959 38.3144 17.8924 39.1698 17.8924C40.0251 17.8924 40.5447 17.0712 40.5447 16.3118ZM46.494 13.2866C45.8984 13.2866 45.3219 13.4841 44.9797 13.9904H44.9544V13.4718H43.2944V19.1395H44.9544V16.3365C44.9544 15.6574 44.9671 14.5831 45.9491 14.5831C46.9312 14.5831 46.8488 15.4598 46.8488 16.139V19.1395H48.5088V15.6759C48.5088 14.3608 48.059 13.2866 46.494 13.2866ZM55.1551 16.3674V16.565H51.3283C51.3283 17.2811 51.6134 18.0899 52.475 18.0899C53.0199 18.0899 53.3621 17.7689 53.5902 17.3182L55.1171 17.559C54.7116 18.6888 53.6979 19.3247 52.475 19.3247C50.6757 19.3247 49.5732 18.0776 49.5732 16.3612C49.5732 14.6448 50.5109 13.2927 52.3927 13.2927C54.2744 13.2927 55.1551 14.6634 55.1551 16.3736V16.3674ZM53.5902 15.5586C53.5078 14.9782 53.1276 14.4164 52.4877 14.4164C51.8478 14.4164 51.455 14.9721 51.3726 15.5586H53.5902ZM58.6842 16.6884L57.2966 13.4656H55.4149L57.8922 18.269L55.9724 22.1586H57.7972L62.0295 13.4718H60.1794L58.6842 16.6946V16.6884ZM75.1764 16.3057C75.1764 18.0591 73.9409 19.3186 72.1162 19.3186C70.2914 19.3186 69.056 18.0591 69.056 16.3057C69.056 14.5522 70.2978 13.2804 72.1162 13.2804C73.9346 13.2804 75.1764 14.5399 75.1764 16.3057ZM73.491 16.3057C73.491 15.5215 72.9715 14.7128 72.1162 14.7128C71.2608 14.7128 70.7413 15.5215 70.7413 16.3057C70.7413 17.0898 71.2608 17.8862 72.1162 17.8862C72.9715 17.8862 73.491 17.0651 73.491 16.3057ZM77.8058 14.0583H77.7804V13.4718H76.1204V19.1395H77.7804V16.5897C77.7804 15.7129 77.9008 14.7189 79.0476 14.7189C79.2947 14.7189 79.5354 14.7868 79.7382 14.9288L79.9409 13.4286C79.7255 13.3483 79.4911 13.2927 79.2503 13.2927C78.6358 13.2927 78.1352 13.5706 77.8058 14.0645V14.0583ZM94.8809 13.4718H96.5155V19.1395H94.8809V18.6209H94.8555C94.5007 19.0716 93.8798 19.3247 93.2779 19.3247C91.5735 19.3247 90.5978 17.8121 90.5978 16.281C90.5978 14.7498 91.5799 13.2927 93.2525 13.2927C93.8544 13.2927 94.4754 13.5459 94.8745 14.0089V13.478L94.8809 13.4718ZM95.0456 16.2995C95.0456 15.5339 94.5134 14.7189 93.658 14.7189C92.8027 14.7189 92.2832 15.5401 92.2832 16.2995C92.2832 17.0589 92.8027 17.8924 93.658 17.8924C94.5134 17.8924 95.0456 17.0589 95.0456 16.2995ZM99.5694 14.0583H99.544V13.4718H97.884V19.1395H99.544V16.5897C99.544 15.7129 99.6644 14.7189 100.811 14.7189C101.058 14.7189 101.299 14.7868 101.495 14.9288L101.698 13.4286C101.483 13.3483 101.248 13.2927 101.008 13.2927C100.393 13.2927 99.8925 13.5706 99.563 14.0645L99.5694 14.0583ZM107.92 10.4342V19.1334H106.26V18.6024H106.235C105.893 19.0654 105.278 19.3186 104.67 19.3186C102.965 19.3186 101.99 17.8059 101.99 16.2748C101.99 14.7436 102.972 13.2866 104.644 13.2866C105.246 13.2866 105.867 13.5397 106.235 13.9904H106.26V10.4342H107.92ZM106.425 16.2995C106.425 15.5339 105.905 14.7189 105.05 14.7189C104.195 14.7189 103.675 15.5401 103.675 16.2995C103.675 17.0589 104.195 17.8924 105.05 17.8924C105.905 17.8924 106.425 17.0589 106.425 16.2995ZM64.1964 19.1395H65.9387V15.3116H68.4604V13.836H65.9387V11.9221H68.6251V10.4465H64.19V19.1457L64.1964 19.1395ZM92.9864 12.0641L93.1195 10.4774C92.7774 10.4774 92.4416 10.5206 92.1121 10.6009C90.7245 10.9404 89.6348 11.9036 88.8871 13.0581C88.3359 13.9101 87.9304 14.8424 87.5059 15.75L87.3412 16.1019C87.3032 16.1822 87.2525 16.281 87.1955 16.3859L85.8776 13.2927H84.9589L83.6157 16.4723L82.3296 13.478H80.5175L83.1976 19.2568H84.0529L85.4405 15.8056L86.6886 19.2568C86.9484 19.2568 87.5313 19.2568 87.5313 19.2568C87.5313 19.2568 87.544 19.226 87.5566 19.2074C87.7974 18.7259 89.1913 15.6882 89.7425 14.6325C89.9833 14.1756 90.3127 13.6323 90.6485 13.2372C91.2568 12.5272 92.1058 12.0332 92.9991 12.0579L92.9864 12.0641ZM19.3703 16.5094C19.0408 16.5217 18.7367 16.3674 18.5466 16.1081L17.4695 14.614L16.6395 16.9786C16.5255 17.3058 16.234 17.5466 15.8855 17.6022C15.5371 17.6578 15.1823 17.5281 14.9605 17.2564L14.2319 16.355L13.6997 18.0159C13.573 18.4172 13.1865 18.6765 12.7746 18.6765C12.6796 18.6765 12.5846 18.6641 12.4895 18.6333C11.9763 18.4789 11.6975 17.9479 11.8559 17.454L12.933 14.083C13.0407 13.7496 13.3259 13.5026 13.6807 13.4347C14.0355 13.373 14.3966 13.5026 14.6184 13.7805L15.385 14.7313L16.2594 12.2493C16.3797 11.9159 16.6775 11.669 17.0387 11.6196C17.3998 11.5702 17.7546 11.7245 17.9637 12.0147L19.2879 13.8546L21.0683 11.0269C19.9088 9.66858 18.1601 8.79805 16.2023 8.79805C12.7176 8.79805 9.8855 11.5517 9.8855 14.9412C9.8855 18.3307 12.7113 21.0905 16.2023 21.0905C19.6934 21.0905 22.5192 18.3369 22.5192 14.9412C22.5192 14.225 22.3925 13.5335 22.158 12.8976L20.1622 16.0587C19.9912 16.3303 19.6934 16.497 19.3639 16.5094H19.3703ZM22.95 8.71161C22.2594 8.71161 21.6955 9.2611 21.6955 9.93406C21.6955 10.607 22.2594 11.1565 22.95 11.1565C23.6406 11.1565 24.2045 10.607 24.2045 9.93406C24.2045 9.2611 23.6406 8.71161 22.95 8.71161Z" fill="#0054AC"/>
</g>
<defs>
<clipPath id="clip0_125_5565">
<rect width="197.921" height="30.8703" fill="white" transform="translate(0.949219)"/>
</clipPath>
</defs>
</svg>
