<svg width="335" height="144" viewBox="0 0 335 144" fill="none" xmlns="http://www.w3.org/2000/svg">
<path d="M77.3848 121.91H334.833V138.049H77.3848V121.91Z" fill="#E1F0F8"/>
<path d="M68.418 45.0586H185.999V61.1971H68.418V45.0586Z" fill="#E1F0F8"/>
<path d="M24.8625 123.38V129.761C24.8625 130.573 24.6043 130.757 23.4977 130.757C21.9853 130.757 19.9564 130.61 18.0751 130.315C18.7022 131.827 18.9236 132.676 19.1449 134.446C21.0262 134.557 22.2435 134.594 23.4239 134.594C25.8585 134.594 26.8914 134.409 27.7029 133.856C28.6251 133.266 29.0309 132.196 29.0309 130.352V106.448C29.0309 104.272 29.0678 103.276 29.2153 102.28C27.9611 102.427 26.9652 102.464 24.9363 102.464H9.554C7.67271 102.464 6.67674 102.427 5.2381 102.28C5.38566 103.571 5.42254 105.194 5.42254 107.85C5.42254 117.441 5.05366 121.757 3.94702 125.187C3.0986 127.954 2.06573 129.614 0 131.68C1.43863 132.712 2.36084 133.635 3.43059 135.073C5.53321 132.712 6.7874 130.573 7.78338 127.769C8.22604 126.478 8.52114 125.261 8.85313 123.38H24.8625ZM9.29579 119.617C9.51712 116.629 9.59089 115.818 9.59089 114.674H24.8625V119.617H9.29579ZM9.62778 110.912V106.301H24.8625V110.912H9.62778Z" fill="#20AEE5"/>
<path d="M49.7989 110.026C49.2087 110.1 48.8767 110.1 48.102 110.1H45.151C45.483 109.51 45.483 109.51 45.7043 109.067C45.8518 108.772 45.8887 108.698 45.9994 108.477L42.5688 107.776C41.8679 110.248 39.1751 113.346 36.2241 115.117C37.1463 116.002 37.5889 116.703 38.1791 117.994C39.2858 117.219 39.7284 116.851 40.8351 115.781C41.5359 116.629 41.9048 116.998 43.0115 118.031C40.7982 119.58 38.7693 120.503 35.7814 121.351C36.6298 122.31 37.1463 123.269 37.6258 124.745C38.4005 124.413 38.6218 124.302 39.2489 124.007C39.2858 124.56 39.2858 124.855 39.2858 125.372V131.126C39.2858 132.454 39.212 133.635 39.1013 134.557H42.9008V132.528H47.9545V134.262H51.6433C51.6064 133.782 51.5695 133.229 51.5326 132.491C52.2704 133.229 52.9712 134.262 53.4877 135.258C56.5494 133.93 58.5044 132.565 60.9759 129.946L58.2831 127.622H64.3328L61.7506 129.983C64.1852 132.528 65.9558 133.745 69.202 135.184C69.8291 133.819 70.4562 132.786 71.4153 131.643C67.7265 130.167 66.7674 129.614 64.6279 127.622H65.8821C66.7674 127.622 67.8002 127.659 69.0544 127.733C68.9807 126.405 68.9438 125.519 68.9438 123.933V111.207C68.9438 109.805 68.9807 108.957 69.0544 107.924C68.3167 108.034 67.6527 108.034 65.4394 108.034H63.0048C63.4106 107.001 63.6319 106.448 63.927 105.452H66.546C68.3904 105.452 69.1282 105.489 70.4193 105.637V101.726C69.6815 101.837 68.5749 101.911 66.546 101.911H56.9183C54.8525 101.911 54.2254 101.874 53.045 101.726V104.087C52.4917 104.124 51.8277 104.161 50.3153 104.161H47.2905V103.423C47.2905 102.243 47.3274 101.726 47.4749 101.062H43.2328C43.3803 101.837 43.4172 102.354 43.4172 103.386V104.161H39.9498C38.3636 104.161 37.5151 104.124 36.9987 104.05C37.0725 104.973 37.1094 105.858 37.1094 106.522V108.293C37.1094 109.104 37.0725 109.768 36.9618 110.653H40.6137V107.444H49.7989V110.026ZM51.1268 110.506H53.2663C53.1926 109.953 53.1557 109.473 53.1557 108.034V106.596C53.1557 106.19 53.1557 106.079 53.1557 105.637C53.9672 105.526 55.4058 105.452 56.9183 105.452H60.1275C59.8693 106.264 59.7217 106.743 59.2053 108.034H57.0658C55.1845 108.034 54.705 108.034 53.9672 107.961C54.0779 109.768 54.0779 109.768 54.0779 111.428V124.339C54.0779 125.187 54.041 126.847 53.9672 127.733C55.2583 127.659 56.2174 127.622 56.8445 127.622H57.9511C56.7707 128.876 56.2912 129.319 55.0739 130.13C53.7828 131.016 53.045 131.384 51.4957 131.938C51.4957 131.163 51.4957 131.089 51.4957 130.868V125.63C51.4957 124.228 51.4957 124.228 51.5695 123.085L52.6392 123.417C53.045 121.867 53.3032 121.24 53.9303 120.097C51.5326 119.433 50.1309 118.916 48.0651 117.883C49.3931 116.445 50.5366 114.896 51.8646 112.719C52.049 112.461 52.0859 112.424 52.3073 112.129L52.4548 111.944L51.1268 110.506ZM47.8069 113.162C46.4789 114.896 46.1101 115.338 45.3354 116.113C44.3025 115.264 43.5279 114.49 42.827 113.568C43.0115 113.383 43.0484 113.346 43.159 113.162H47.8069ZM41.7942 122.716C43.4541 121.794 44.3025 121.203 45.6305 120.134C47.0691 121.056 48.6553 121.867 50.5366 122.679C50.094 122.716 49.8726 122.716 49.098 122.716H41.7942ZM42.8639 125.777H47.9545V129.356H42.8639V125.777ZM57.6929 111.354H65.2918V113.568H57.6929V111.354ZM57.6929 116.592H65.2918V118.916H57.6929V116.592ZM57.6929 121.941H65.2918V124.228H57.6929V121.941Z" fill="#20AEE5"/>
<path d="M126.203 43.6502H121.481C119.932 43.6502 119.12 43.6133 118.198 43.5026C118.309 44.4617 118.346 45.3839 118.346 46.7488V53.4624C118.346 55.4913 118.272 56.9668 118.124 57.9997H122.293V56.4504H135.941V58.0365H140.146C139.962 56.8561 139.925 55.5282 139.925 53.2411V47.2283C139.925 45.6422 139.962 44.6831 140.073 43.5026C139.187 43.6133 138.376 43.6502 136.826 43.6502H130.076V39.777H137.97C139.409 39.777 140.663 39.8507 141.733 39.9983V35.9406C140.884 36.0882 139.704 36.1619 137.822 36.1619H130.076V35.7193C130.076 33.6904 130.113 32.9158 130.224 32.0674H126.018C126.166 32.9896 126.203 33.6904 126.203 35.7193V43.6502ZM122.293 47.339H135.941V52.7984H122.293V47.339ZM124.801 27.4563H116.464C114.804 27.4563 113.403 27.3826 112.111 27.2719C112.222 28.563 112.259 29.7434 112.259 32.8789C112.259 40.1458 112.038 44.0929 111.484 47.2283C110.894 50.4376 110.193 52.4296 108.718 54.7166C110.341 55.9708 110.894 56.5241 112.001 57.889C115.395 52.3558 116.28 46.7857 116.243 31.1452H138.081C139.888 31.1452 141.548 31.2189 142.655 31.3296V27.235C141.659 27.3826 140.183 27.4563 138.007 27.4563H128.859V26.1284C128.859 25.0586 128.896 24.4315 129.043 23.8413H124.617C124.727 24.5053 124.801 25.0955 124.801 26.0915V27.4563Z" fill="#20AEE5"/>
<path d="M152.688 37.4899V40.1458H149.295C147.893 40.1458 147.192 40.1089 146.27 39.9983V43.6133C147.155 43.4658 147.967 43.4289 149.295 43.4289H158.295C159.845 43.4289 160.398 43.4658 161.173 43.5764V40.0352C160.398 40.1089 159.697 40.1458 158.222 40.1458H156.303V37.4899H158.037C159.291 37.4899 159.66 37.5268 160.287 37.6006V34.2437C159.66 34.3544 159.291 34.3544 157.963 34.3544H156.303V34.0593C156.303 32.4731 156.34 31.8091 156.488 30.9607H152.541C152.651 31.8091 152.688 32.5469 152.688 34.0962V34.3544H150.955C150.106 34.3544 149.553 34.3175 148.963 34.2806C151.176 32.2518 152.91 30.1123 154.422 27.5301C156.045 29.891 157.594 31.4771 160.25 33.4322C160.693 32.4731 160.804 32.2518 161.209 31.4771C162.169 31.3665 163.128 31.3296 164.603 31.3296H168.735V33.7642H165.525C163.57 33.7642 162.796 33.7273 161.837 33.6535C161.91 34.7233 161.947 35.3873 161.947 37.3423V53.942C161.947 55.8601 161.91 56.893 161.763 57.9628H165.562C165.452 56.9299 165.415 56.1184 165.415 53.9051V49.6261H168.735V54.1633C168.735 55.7495 168.698 56.561 168.587 57.5201H172.423C172.313 56.6348 172.276 55.8233 172.276 54.1264V49.6261H175.743V53.3149C175.743 53.9789 175.596 54.1633 175.079 54.1633C174.6 54.1633 174.378 54.1633 172.977 53.9789C173.456 55.3806 173.604 56.1553 173.715 57.4832C174.969 57.557 175.153 57.557 175.522 57.557C178.289 57.557 179.248 56.8192 179.248 54.6797V37.4161C179.248 35.4242 179.285 34.7233 179.395 33.6535C178.473 33.7273 177.772 33.7642 176.038 33.7642H172.276V31.3296H176.998C178.362 31.3296 179.137 31.3665 180.059 31.514V27.567C179.211 27.7146 178.842 27.7146 177.514 27.7515L179.211 25.7964C177.92 24.7266 177.219 24.3209 175.374 23.4355L173.309 25.4275C175.559 26.7186 175.817 26.8661 176.813 27.7515H172.276V26.9399C172.276 25.5382 172.313 24.7635 172.497 23.952H168.513C168.661 24.8004 168.735 25.6119 168.735 26.9399V27.7515H164.603C163.017 27.7515 162.095 27.7146 161.209 27.567V29.3007C158.886 27.567 157.373 26.0177 156.303 24.2471H152.356C151.582 25.6857 150.696 27.0137 149.516 28.3785C148.114 30.0754 147.008 31.0714 145.311 32.1411C146.085 33.4691 146.417 34.3175 146.897 35.9775C147.745 35.3135 148.04 35.0922 148.594 34.6126V37.6006C149.295 37.5268 149.811 37.4899 150.991 37.4899H152.688ZM168.735 46.4537H165.415V43.3182H168.735V46.4537ZM172.276 46.4537V43.3182H175.743V46.4537H172.276ZM172.276 37.0841H175.743V40.1458H172.276V37.0841ZM168.735 37.0841V40.1458H165.415V37.0841H168.735ZM160.14 57.5939C160.029 56.8192 159.992 56.1921 159.992 54.9379V48.2981C159.992 47.007 160.029 46.1217 160.066 45.4946C159.328 45.6053 158.701 45.6422 157.41 45.6422H150.659C149.405 45.6422 148.594 45.6053 147.782 45.4946C147.893 46.4537 147.93 47.2283 147.93 48.4825V54.7166C147.93 56.1921 147.893 57.0037 147.745 57.9628H151.692V56.3397H156.266V57.5939H160.14ZM151.692 48.7039H156.266V53.0935H151.692V48.7039Z" fill="#20AEE5"/>
<path d="M206.171 41.2495C206.093 41.8505 205.936 42.3992 205.649 43.2353C205.179 43.183 204.97 43.183 204.656 43.183C203.062 43.183 202.461 43.2353 201.05 43.5227C201.076 42.974 201.102 42.1379 201.181 41.0143C203.271 40.9621 207.504 40.5701 210.378 40.0998C210.927 40.0214 211.031 40.0214 211.397 39.9953L211.267 36.9905C209.255 37.6175 205.544 38.1401 201.364 38.3753C201.52 36.5463 201.625 35.8669 201.834 35.1614L198.594 35.0046C198.646 35.2137 198.646 35.3182 198.646 35.4227C198.646 35.9192 198.62 36.5724 198.594 36.9121C198.516 37.9572 198.516 37.9572 198.49 38.4798C197.967 38.4798 197.941 38.4798 197.915 38.4798C195.746 38.4798 194.204 38.3492 193.029 38.0879V41.0143C193.316 40.9882 193.551 40.9882 193.63 40.9882C193.682 40.9882 193.865 40.9882 194.126 40.9882C196.66 41.0666 198.071 41.0927 198.359 41.0927C198.307 42.3469 198.254 43.3921 198.254 44.2282C196.687 44.9075 195.72 45.5608 194.675 46.5798C193.002 48.2259 192.088 50.2901 192.088 52.4327C192.088 55.1501 193.734 57.0053 196.164 57.0053C198.333 57.0053 200.658 55.725 203.01 53.2427C204.891 51.283 206.119 49.4017 207.556 46.2924C209.411 46.9195 210.483 48.2521 210.483 49.8982C210.483 51.7011 209.516 52.9814 207.426 53.9743C205.884 54.7059 204.551 54.9934 202.435 55.0195C203.297 56.3782 203.532 56.8485 203.82 57.9721C206.119 57.7369 207.609 57.345 209.15 56.5872C212.103 55.124 213.644 52.903 213.644 50.055C213.644 47.9908 212.834 46.3708 211.162 45.1166C210.274 44.4634 209.516 44.0975 208.445 43.8363C208.523 43.6011 208.549 43.575 208.81 42.8434C209.02 42.2946 209.02 42.2946 209.124 42.0856L206.171 41.2495ZM198.307 47.2069C198.307 49.7414 198.437 51.4137 198.777 53.1121C197.941 53.7914 197.235 54.105 196.504 54.105C195.589 54.105 195.014 53.3734 195.014 52.1976C195.014 51.1001 195.406 50.0288 196.19 49.0098C196.713 48.3566 197.157 47.9646 198.307 47.2069ZM201.259 51.1524C201.233 51.0217 201.233 50.9956 201.233 50.865C201.233 50.6821 201.233 50.6821 201.207 50.5253C201.05 48.6963 201.05 48.435 201.024 46.0311C202.069 45.6914 203.01 45.5608 204.16 45.5608C204.421 45.5608 204.551 45.5608 204.839 45.5869C203.872 47.7556 202.827 49.4279 201.599 50.8127C201.416 51.0217 201.416 51.0217 201.311 51.1785L201.259 51.1524Z" fill="#20AEE5"/>
<path d="M218.4 42.2685C218.635 42.2424 218.766 42.2424 218.896 42.2424C219.105 42.2424 219.471 42.2424 219.941 42.2685C220.386 42.2946 220.647 42.2946 220.778 42.2946H222.293C222.345 42.2946 222.45 42.2946 222.633 42.2685C221.77 46.9195 219.759 53.0075 217.956 56.3259L221.248 57.6063C222.972 52.9814 223.417 51.675 224.174 48.9576C224.854 46.5798 225.507 43.8101 225.794 42.1901C226.657 42.164 228.747 41.9027 230.08 41.6414C230.707 41.5369 230.707 41.5369 230.916 41.5108L230.785 38.5059C229.479 38.8979 228.25 39.1069 226.317 39.2898C226.421 38.6888 226.448 38.5321 226.578 37.8005C226.892 35.893 226.892 35.893 227.075 35.2921L223.626 34.9785C223.652 35.1875 223.652 35.3443 223.652 35.4488C223.652 36.1805 223.39 38.1924 223.155 39.4466C222.554 39.4727 222.267 39.4727 221.953 39.4727C220.438 39.4727 219.393 39.3943 218.452 39.2375L218.4 42.2685ZM239.12 42.8434C237.474 42.8172 237.239 42.8172 236.533 42.8172C233.711 42.8172 232.457 42.9479 228.747 43.6534L228.982 46.5275C231.569 45.9527 233.293 45.7698 235.88 45.7698C237.187 45.7698 237.918 45.8221 239.172 45.9527L239.12 42.8434ZM228.825 48.3305C227.388 50.2901 226.892 51.4659 226.892 52.8508C226.892 54.1572 227.623 55.4114 228.747 56.0646C230.001 56.7701 231.673 57.1098 233.999 57.1098C235.54 57.1098 236.69 57.0053 238.859 56.6917C239.46 56.5872 239.669 56.5611 240.139 56.5088L239.904 53.295C238.389 53.8437 235.88 54.2617 233.973 54.2617C231.36 54.2617 230.053 53.5824 230.053 52.2498C230.053 51.3353 230.367 50.6821 231.412 49.3756L228.825 48.3305Z" fill="#20AEE5"/>
<path d="M248.056 35.0569C248.056 35.3966 248.03 35.5011 247.978 35.9453L247.586 39.1853C247.377 40.9882 247.22 43.8885 247.22 46.005C247.22 46.5275 247.272 48.4611 247.299 49.2188C247.299 49.454 247.299 49.6108 247.299 49.7153C247.299 49.7676 247.299 49.8982 247.272 50.055L250.408 50.0027C250.408 49.7676 250.408 49.5846 250.408 49.454C250.408 46.3446 251.662 43.1308 253.7 41.0143C254.615 40.0737 255.529 39.6295 256.522 39.6295C258.769 39.6295 260.023 41.7198 260.023 45.4824C260.023 49.454 258.639 51.9363 255.608 53.4779C254.014 54.2879 252.498 54.6798 249.885 54.9672C250.617 55.9863 250.904 56.5611 251.427 58.0505C253.387 57.7108 255.216 57.1882 256.548 56.5872C260.938 54.6537 263.29 50.8911 263.29 45.8482C263.29 42.765 262.715 40.6485 261.408 38.8979C260.285 37.3824 258.717 36.5463 256.94 36.5463C255.033 36.5463 253.413 37.4346 251.976 39.2114C251.27 40.1259 250.591 41.4063 250.33 42.3208C250.225 42.7388 250.225 42.7388 250.173 42.8956H250.094C250.147 42.2685 250.251 41.3801 250.434 40.2827C250.93 36.8075 251.061 36.1282 251.375 35.2398L248.056 35.0569Z" fill="#20AEE5"/>
<path d="M122.358 85.4825H99.2598L98.7004 97.7109C99.6062 97.4445 100.672 97.258 101.897 97.1515C103.176 97.0449 104.322 96.9916 105.334 96.9916C108.105 96.9916 110.662 97.3912 113.007 98.1905C115.405 98.9897 117.483 100.162 119.241 101.707C120.999 103.199 122.358 105.064 123.317 107.302C124.329 109.486 124.836 112.017 124.836 114.895C124.836 118.038 124.276 120.862 123.157 123.367C122.092 125.818 120.626 127.896 118.761 129.601C116.896 131.306 114.712 132.611 112.208 133.517C109.703 134.423 107.039 134.876 104.215 134.876C99.473 134.876 95.4768 133.783 92.2265 131.599C88.9763 129.361 86.6052 126.324 85.1133 122.487L93.825 119.29C94.6243 121.528 95.9563 123.34 97.8212 124.725C99.6861 126.057 101.897 126.723 104.455 126.723C105.894 126.723 107.252 126.484 108.531 126.004C109.81 125.525 110.929 124.832 111.888 123.926C112.847 123.02 113.593 121.901 114.126 120.569C114.712 119.184 115.005 117.639 115.005 115.934C115.005 113.749 114.632 111.937 113.886 110.499C113.14 109.06 112.154 107.915 110.929 107.062C109.757 106.156 108.424 105.544 106.933 105.224C105.441 104.851 103.922 104.664 102.377 104.664C101.311 104.664 100.166 104.744 98.9402 104.904C97.7679 105.064 96.5957 105.304 95.4235 105.623C94.3046 105.89 93.1856 106.21 92.0667 106.583C91.001 106.955 90.0419 107.355 89.1894 107.781L90.1485 76.8507H122.358V85.4825Z" fill="#20AEE5"/>
<path d="M135.985 122.407H145.257L138.463 143.507H130.391L135.985 122.407Z" fill="#20AEE5"/>
<path d="M187.29 85.4825H164.192L163.633 97.7109C164.539 97.4445 165.604 97.258 166.83 97.1515C168.108 97.0449 169.254 96.9916 170.266 96.9916C173.037 96.9916 175.595 97.3912 177.939 98.1905C180.337 98.9897 182.415 100.162 184.173 101.707C185.932 103.199 187.29 105.064 188.249 107.302C189.262 109.486 189.768 112.017 189.768 114.895C189.768 118.038 189.208 120.862 188.089 123.367C187.024 125.818 185.559 127.896 183.694 129.601C181.829 131.306 179.644 132.611 177.14 133.517C174.636 134.423 171.971 134.876 169.147 134.876C164.405 134.876 160.409 133.783 157.159 131.599C153.909 129.361 151.538 126.324 150.046 122.487L158.757 119.29C159.557 121.528 160.889 123.34 162.754 124.725C164.618 126.057 166.83 126.723 169.387 126.723C170.826 126.723 172.185 126.484 173.463 126.004C174.742 125.525 175.861 124.832 176.82 123.926C177.779 123.02 178.525 121.901 179.058 120.569C179.644 119.184 179.937 117.639 179.937 115.934C179.937 113.749 179.564 111.937 178.818 110.499C178.072 109.06 177.087 107.915 175.861 107.062C174.689 106.156 173.357 105.544 171.865 105.224C170.373 104.851 168.854 104.664 167.309 104.664C166.244 104.664 165.098 104.744 163.872 104.904C162.7 105.064 161.528 105.304 160.356 105.623C159.237 105.89 158.118 106.21 156.999 106.583C155.933 106.955 154.974 107.355 154.122 107.781L155.081 76.8507H187.29V85.4825Z" fill="#20AEE5"/>
<path d="M237.763 105.144C237.763 109.726 237.31 113.856 236.404 117.532C235.552 121.209 234.273 124.326 232.568 126.883C230.916 129.441 228.838 131.412 226.334 132.798C223.883 134.183 221.059 134.876 217.862 134.876C214.665 134.876 211.814 134.183 209.31 132.798C206.805 131.412 204.701 129.441 202.996 126.883C201.291 124.326 199.985 121.209 199.079 117.532C198.227 113.856 197.801 109.726 197.801 105.144C197.801 100.562 198.227 96.4322 199.079 92.7556C199.985 89.0791 201.291 85.9621 202.996 83.4045C204.701 80.8469 206.805 78.8755 209.31 77.4901C211.814 76.1048 214.665 75.4121 217.862 75.4121C221.059 75.4121 223.883 76.1048 226.334 77.4901C228.838 78.8755 230.916 80.8469 232.568 83.4045C234.273 85.9621 235.552 89.0791 236.404 92.7556C237.31 96.4322 237.763 100.562 237.763 105.144ZM227.932 105.144C227.932 103.172 227.799 100.935 227.532 98.4303C227.319 95.926 226.84 93.5549 226.094 91.317C225.401 89.0791 224.389 87.2142 223.057 85.7223C221.725 84.1771 219.993 83.4045 217.862 83.4045C215.677 83.4045 213.919 84.1771 212.587 85.7223C211.255 87.2142 210.216 89.0791 209.47 91.317C208.777 93.5549 208.297 95.926 208.031 98.4303C207.765 100.935 207.631 103.172 207.631 105.144C207.631 107.115 207.765 109.353 208.031 111.858C208.297 114.362 208.777 116.706 209.47 118.891C210.216 121.075 211.255 122.94 212.587 124.486C213.919 125.977 215.677 126.723 217.862 126.723C219.993 126.723 221.725 125.977 223.057 124.486C224.389 122.94 225.401 121.075 226.094 118.891C226.84 116.706 227.319 114.362 227.532 111.858C227.799 109.353 227.932 107.115 227.932 105.144Z" fill="#20AEE5"/>
<path d="M284.239 105.144C284.239 109.726 283.786 113.856 282.88 117.532C282.028 121.209 280.749 124.326 279.044 126.883C277.392 129.441 275.314 131.412 272.81 132.798C270.359 134.183 267.535 134.876 264.338 134.876C261.141 134.876 258.29 134.183 255.786 132.798C253.282 131.412 251.177 129.441 249.472 126.883C247.767 124.326 246.462 121.209 245.556 117.532C244.703 113.856 244.277 109.726 244.277 105.144C244.277 100.562 244.703 96.4322 245.556 92.7556C246.462 89.0791 247.767 85.9621 249.472 83.4045C251.177 80.8469 253.282 78.8755 255.786 77.4901C258.29 76.1048 261.141 75.4121 264.338 75.4121C267.535 75.4121 270.359 76.1048 272.81 77.4901C275.314 78.8755 277.392 80.8469 279.044 83.4045C280.749 85.9621 282.028 89.0791 282.88 92.7556C283.786 96.4322 284.239 100.562 284.239 105.144ZM274.408 105.144C274.408 103.172 274.275 100.935 274.009 98.4303C273.796 95.926 273.316 93.5549 272.57 91.317C271.877 89.0791 270.865 87.2142 269.533 85.7223C268.201 84.1771 266.469 83.4045 264.338 83.4045C262.153 83.4045 260.395 84.1771 259.063 85.7223C257.731 87.2142 256.692 89.0791 255.946 91.317C255.253 93.5549 254.774 95.926 254.507 98.4303C254.241 100.935 254.108 103.172 254.108 105.144C254.108 107.115 254.241 109.353 254.507 111.858C254.774 114.362 255.253 116.706 255.946 118.891C256.692 121.075 257.731 122.94 259.063 124.486C260.395 125.977 262.153 126.723 264.338 126.723C266.469 126.723 268.201 125.977 269.533 124.486C270.865 122.94 271.877 121.075 272.57 118.891C273.316 116.706 273.796 114.362 274.009 111.858C274.275 109.353 274.408 107.115 274.408 105.144Z" fill="#20AEE5"/>
<path d="M300.054 120.463H322.002V129.463C322.002 130.349 321.781 130.459 320.342 130.459C319.014 130.459 317.17 130.312 314.735 130.054C315.399 131.566 315.658 132.599 315.879 134.038C317.318 134.111 319.346 134.185 320.785 134.185C322.777 134.185 323.957 134.038 324.658 133.669C325.728 133.115 326.171 132.082 326.171 130.201V106.556C326.171 104.564 326.208 103.605 326.318 102.535C325.433 102.646 324.326 102.683 322.297 102.683H299.87C297.914 102.683 296.955 102.646 295.775 102.535C295.886 103.605 295.923 104.527 295.923 106.076V130.201C295.923 132.119 295.849 133.447 295.701 134.628H300.238C300.091 133.779 300.054 132.673 300.054 130.349V120.463ZM308.796 116.59H300.054V106.593H308.796V116.59ZM312.78 116.59V106.593H322.002V116.59H312.78Z" fill="#20AEE5"/>
<path d="M297.588 96.8749C296.715 95.7805 296.371 95.2395 296.027 94.428C295.584 93.4074 295.375 92.3008 295.375 91.0589C295.375 89.8539 295.584 88.8087 296.015 87.8004C296.359 86.9889 296.715 86.4356 297.576 85.3535H295.855C295.154 86.3372 294.859 86.8782 294.502 87.7758C294.072 88.8825 293.875 89.903 293.875 91.0589C293.875 92.2393 294.084 93.3213 294.527 94.4526C294.871 95.3502 295.178 95.8912 295.867 96.8749H297.588Z" fill="#20AEE5"/>
<path d="M300.294 88.6366H299.507C299.027 88.6366 298.806 88.6243 298.523 88.5751V89.8785C298.793 89.8293 299.027 89.817 299.507 89.817H300.121C299.986 90.2842 299.679 91.022 299.408 91.5261C299.052 92.1778 298.769 92.6082 298.252 93.2107C298.535 93.6041 298.67 93.8992 298.879 94.4895C299.593 93.6041 300.035 92.7557 300.367 91.6614C300.343 91.9688 300.294 92.9402 300.294 93.1738V95.301C300.294 95.9896 300.269 96.383 300.22 96.8134H301.646C301.585 96.4076 301.572 96.0142 301.572 95.301V92.8418C301.572 92.4483 301.535 91.7351 301.499 91.44C301.917 92.3377 302.015 92.5098 302.445 93.0631C302.63 92.6082 302.667 92.5221 302.888 92.104L302.999 91.8827C302.359 91.231 302.064 90.8007 301.695 89.9891C301.634 89.8785 301.634 89.8785 301.609 89.817H301.953C302.347 89.817 302.568 89.8293 302.814 89.8662V88.5874C302.581 88.6243 302.359 88.6366 301.953 88.6366H301.572V86.9889C302.015 86.8536 302.31 86.743 302.728 86.5708C302.913 86.4847 302.925 86.4725 303.048 86.4233L302.285 85.3535C302.126 85.4642 301.941 85.5625 301.757 85.6363C300.81 86.0298 299.9 86.2511 298.535 86.411C298.818 86.9028 298.953 87.2102 299.015 87.5422C299.654 87.4438 299.875 87.407 300.294 87.3209V88.6366ZM304.13 87.9111C303.7 87.9111 303.503 87.8988 303.146 87.8619C303.171 88.1447 303.183 88.4644 303.183 88.7595V90.9728C303.183 91.3171 303.171 91.6122 303.146 91.895C303.478 91.8581 303.724 91.8458 304.118 91.8458H304.302C304.302 93.8132 303.564 95.0674 301.978 95.7928C302.445 96.1986 302.617 96.4076 302.888 96.8749C303.97 96.2847 304.56 95.6699 305.027 94.6247C305.372 93.8624 305.507 93.1861 305.605 91.8458H306.38V95.633C306.38 96.4445 306.675 96.6781 307.733 96.6781C308.888 96.6781 309.282 96.5921 309.516 96.2601C309.737 95.965 309.811 95.5838 309.897 94.2435C309.528 94.1575 309.208 93.9976 308.741 93.6902C308.716 95.3871 308.692 95.4485 308.188 95.4485C307.72 95.4485 307.659 95.424 307.659 95.1903V91.8458H308.212C308.606 91.8458 308.901 91.8581 309.233 91.895C309.196 91.5999 309.184 91.354 309.184 90.9851V88.7226C309.184 88.3537 309.196 88.157 309.233 87.8619C308.888 87.8988 308.643 87.9111 308.212 87.9111H307.831C308.163 87.3578 308.286 87.0996 308.852 85.8577L307.487 85.415C307.204 86.4356 306.983 87.0012 306.491 87.9111H304.13ZM304.413 89.0915H307.868V90.6408H304.413V89.0915ZM305.691 87.3086C305.409 86.6323 305.138 86.1159 304.671 85.4027L303.478 85.956C303.859 86.4725 304.105 86.9397 304.486 87.8496L305.691 87.3086Z" fill="#20AEE5"/>
<path d="M317.188 87.1364C317.127 87.9849 317.078 88.3414 316.955 88.8456C316.709 89.8907 316.241 90.899 315.59 91.772C315.086 92.436 314.717 92.8049 313.967 93.3459C314.422 93.7763 314.606 93.973 314.938 94.4157C315.762 93.7517 316.143 93.3582 316.598 92.7311C317.287 91.8089 317.631 91.0343 317.938 89.7309C318.356 91.0712 318.701 91.8212 319.315 92.6451C319.881 93.3951 320.385 93.887 321.283 94.5632C321.541 94.0345 321.75 93.6902 322.094 93.2722C320.754 92.3131 320.016 91.4646 319.389 90.1121C318.861 88.9931 318.578 87.7512 318.578 86.5462C318.578 86.3372 318.578 86.1651 318.602 85.8822C318.369 85.9191 318.098 85.9314 317.705 85.9314H315.946C315.455 85.9314 315.196 85.9191 314.926 85.8699V87.1979C315.233 87.1487 315.528 87.1364 315.946 87.1364H317.188ZM311.003 86.5462C311.962 87.407 312.356 87.8373 313.118 88.8702L314.139 87.8742C313.536 87.0873 312.872 86.3987 311.987 85.624L311.003 86.5462ZM310.819 91.4155C311.126 91.3663 311.311 91.354 311.655 91.354H312.405V93.9976C311.876 94.4649 311.102 94.9813 310.573 95.2026L311.175 96.6044C311.237 96.5552 311.237 96.5552 311.36 96.4568C311.446 96.383 311.52 96.3216 311.729 96.1617C312.307 95.7191 312.602 95.4608 312.995 95.0674C313.475 95.6945 313.918 96.0265 314.557 96.2232C315.196 96.4322 316.192 96.506 318.209 96.506C319.057 96.506 320.84 96.4691 321.935 96.4322C322.021 95.8666 322.094 95.5592 322.303 94.969C321.086 95.1411 319.524 95.2272 317.742 95.2272C315.627 95.2272 314.987 95.1411 314.397 94.7723C313.991 94.5018 313.881 94.3788 313.696 93.9853V91.4155C313.696 90.7269 313.708 90.4687 313.745 90.0629C313.463 90.1121 313.18 90.1244 312.811 90.1244H311.803C311.335 90.1244 311.139 90.1121 310.819 90.0629V91.4155Z" fill="#20AEE5"/>
<path d="M324.627 96.8749C325.316 95.8912 325.611 95.3502 325.968 94.4526C326.398 93.3213 326.607 92.2516 326.607 91.0589C326.607 89.8907 326.41 88.8948 325.98 87.7758C325.623 86.8659 325.328 86.3249 324.64 85.3535H322.906C323.767 86.4356 324.123 86.9889 324.48 87.8004C324.91 88.8087 325.107 89.8293 325.107 91.0589C325.107 92.3131 324.898 93.4074 324.455 94.428C324.111 95.2395 323.767 95.7805 322.894 96.8749H324.627Z" fill="#20AEE5"/>
<path d="M90.7177 11.6689L79.5283 20.8602L73.9336 14.2265L91.5968 0H100.309V56.5863H90.7177V11.6689Z" fill="#20AEE5"/>
</svg>
