<svg width="781" height="111" viewBox="0 0 781 111" fill="none" xmlns="http://www.w3.org/2000/svg">
<path d="M370.54 78H781V99.4954H370.54V78Z" fill="#E1F0F8"/>
<path d="M0 78H150.468V99.4954H0V78Z" fill="#E1F0F8"/>
<path d="M299.56 79.9565V88.4564C299.56 89.5374 299.216 89.783 297.742 89.783C295.728 89.783 293.025 89.5865 290.52 89.1934C291.355 91.2079 291.65 92.3379 291.945 94.6963C294.45 94.8437 296.072 94.8928 297.644 94.8928C300.887 94.8928 302.262 94.6471 303.343 93.9101C304.572 93.124 305.112 91.6992 305.112 89.2426V57.4048C305.112 54.506 305.161 53.1794 305.358 51.8528C303.687 52.0493 302.361 52.0985 299.658 52.0985H279.17C276.664 52.0985 275.338 52.0493 273.422 51.8528C273.618 53.5724 273.667 55.7343 273.667 59.2718C273.667 72.0462 273.176 77.7947 271.702 82.364C270.572 86.049 269.196 88.2599 266.445 91.0113C268.361 92.387 269.589 93.6153 271.014 95.5315C273.815 92.387 275.485 89.5374 276.812 85.8033C277.401 84.0837 277.794 82.4623 278.237 79.9565H299.56ZM278.826 74.945C279.121 70.9653 279.219 69.8844 279.219 68.3613H299.56V74.945H278.826ZM279.268 63.3498V57.2082H299.56V63.3498H279.268Z" fill="#20AEE5"/>
<path d="M332.774 62.1706C331.987 62.2689 331.545 62.2689 330.513 62.2689H326.583C327.025 61.4828 327.025 61.4828 327.32 60.8932C327.516 60.5001 327.566 60.4019 327.713 60.1071L323.144 59.1735C322.21 62.4654 318.623 66.5925 314.693 68.9509C315.921 70.1301 316.511 71.0636 317.297 72.7832C318.771 71.7514 319.36 71.2601 320.834 69.8353C321.768 70.9653 322.259 71.4566 323.733 72.8323C320.785 74.8959 318.083 76.1242 314.103 77.2543C315.233 78.5317 315.921 79.8091 316.56 81.7744C317.592 81.3323 317.886 81.1849 318.722 80.7918C318.771 81.5288 318.771 81.9218 318.771 82.6097V90.2743C318.771 92.0431 318.673 93.6154 318.525 94.8437H323.586V92.1414H330.317V94.4506H335.23C335.181 93.8119 335.132 93.0749 335.083 92.0922C336.065 93.0749 336.999 94.4506 337.687 95.7772C341.765 94.0084 344.369 92.1905 347.661 88.7021L344.074 85.6068H352.132L348.692 88.7512C351.935 92.1414 354.294 93.7627 358.617 95.6789C359.452 93.861 360.288 92.4853 361.565 90.9622C356.652 88.9969 355.374 88.2599 352.525 85.6068H354.195C355.374 85.6068 356.75 85.6559 358.421 85.7542C358.322 83.9854 358.273 82.8062 358.273 80.6935V63.7429C358.273 61.8758 358.322 60.7458 358.421 59.3701C357.438 59.5175 356.554 59.5175 353.606 59.5175H350.363C350.903 58.1418 351.198 57.4048 351.591 56.0782H355.08C357.536 56.0782 358.519 56.1273 360.239 56.3239V51.1158C359.256 51.2632 357.782 51.3615 355.08 51.3615H342.256C339.505 51.3615 338.669 51.3124 337.097 51.1158V54.2603C336.36 54.3094 335.476 54.3586 333.461 54.3586H329.433V53.3759C329.433 51.8037 329.482 51.1158 329.678 50.2314H324.028C324.225 51.2632 324.274 51.9511 324.274 53.3268V54.3586H319.655C317.543 54.3586 316.412 54.3094 315.725 54.2112C315.823 55.4395 315.872 56.6187 315.872 57.503V59.8614C315.872 60.9423 315.823 61.8267 315.675 63.0059H320.54V58.7313H332.774V62.1706ZM334.542 62.8093H337.392C337.294 62.0724 337.245 61.4336 337.245 59.5175V57.6013C337.245 57.0608 337.245 56.9134 337.245 56.3239C338.326 56.1765 340.242 56.0782 342.256 56.0782H346.531C346.187 57.1591 345.99 57.7978 345.302 59.5175H342.453C339.947 59.5175 339.308 59.5175 338.326 59.4192C338.473 61.8267 338.473 61.8267 338.473 64.0376V81.234C338.473 82.364 338.424 84.575 338.326 85.7542C340.045 85.6559 341.323 85.6068 342.158 85.6068H343.632C342.06 87.2773 341.421 87.8669 339.799 88.9478C338.08 90.1269 337.097 90.6183 335.034 91.3553C335.034 90.3235 335.034 90.2252 335.034 89.9304V82.9536C335.034 81.0866 335.034 81.0866 335.132 79.5635L336.557 80.0057C337.097 77.9421 337.441 77.1069 338.276 75.5838C335.083 74.6994 333.216 74.0115 330.464 72.6358C332.233 70.7197 333.756 68.6561 335.525 65.7573C335.771 65.4134 335.82 65.3642 336.115 64.9712L336.311 64.7255L334.542 62.8093ZM330.12 66.3469C328.352 68.6561 327.86 69.2457 326.829 70.2775C325.453 69.1474 324.421 68.1156 323.488 66.8873C323.733 66.6417 323.782 66.5925 323.93 66.3469H330.12ZM322.112 79.0722C324.323 77.8439 325.453 77.0577 327.222 75.6329C329.138 76.8612 331.25 77.9421 333.756 79.023C333.167 79.0722 332.872 79.0722 331.84 79.0722H322.112ZM323.537 83.1501H330.317V87.916H323.537V83.1501ZM343.288 63.9394H353.409V66.8873H343.288V63.9394ZM343.288 70.9162H353.409V74.0115H343.288V70.9162ZM343.288 78.0404H353.409V81.0866H343.288V78.0404Z" fill="#20AEE5"/>
<path d="M68.7775 76.1247H62.4886C60.425 76.1247 59.3441 76.0756 58.1158 75.9282C58.2632 77.2057 58.3123 78.434 58.3123 80.2519V89.194C58.3123 91.8962 58.2141 93.8615 58.0175 95.2372H63.5695V93.1737H81.7485V95.2864H87.3496C87.1039 93.7141 87.0548 91.9454 87.0548 88.8992V80.8906C87.0548 78.7779 87.1039 77.5005 87.2513 75.9282C86.0721 76.0756 84.9912 76.1247 82.9277 76.1247H73.9364V70.9658H84.4508C86.3669 70.9658 88.0374 71.0641 89.4623 71.2606V65.8561C88.3322 66.0526 86.76 66.1509 84.2542 66.1509H73.9364V65.5613C73.9364 62.859 73.9856 61.8272 74.133 60.6972H68.5319C68.7284 61.9255 68.7775 62.859 68.7775 65.5613V76.1247ZM63.5695 81.038H81.7485V88.3096H63.5695V81.038ZM66.9105 54.5556H55.8066C53.5956 54.5556 51.7286 54.4574 50.0089 54.31C50.1563 56.0296 50.2055 57.6018 50.2055 61.7781C50.2055 71.4572 49.9107 76.7143 49.1737 80.8906C48.3876 85.1651 47.4541 87.8183 45.4888 90.8645C47.6506 92.535 48.3876 93.272 49.8616 95.0899C54.3817 87.72 55.5609 80.301 55.5118 59.4689H84.5982C87.0056 59.4689 89.2166 59.5671 90.6906 59.7145V54.2608C89.364 54.4574 87.3987 54.5556 84.4999 54.5556H72.3151V52.7869C72.3151 51.362 72.3642 50.5268 72.5607 49.7407H66.6648C66.8122 50.625 66.9105 51.4112 66.9105 52.7377V54.5556Z" fill="#20AEE5"/>
<path d="M104.055 67.9196V71.4572H99.5344C97.6674 71.4572 96.7339 71.408 95.5055 71.2606V76.0756C96.6847 75.8791 97.7656 75.83 99.5344 75.83H111.523C113.586 75.83 114.323 75.8791 115.355 76.0265V71.3098C114.323 71.408 113.39 71.4572 111.424 71.4572H108.87V67.9196H111.179C112.849 67.9196 113.341 67.9688 114.176 68.067V63.596C113.341 63.7434 112.849 63.7434 111.081 63.7434H108.87V63.3503C108.87 61.2376 108.919 60.3532 109.115 59.2232H103.858C104.005 60.3532 104.055 61.3359 104.055 63.3995V63.7434H101.745C100.615 63.7434 99.8783 63.6943 99.0922 63.6451C102.04 60.9428 104.349 58.0932 106.364 54.6539C108.526 57.7984 110.589 59.9111 114.127 62.5151C114.716 61.2376 114.864 60.9428 115.404 59.9111C116.682 59.7637 117.959 59.7145 119.924 59.7145H125.427V62.9573H121.153C118.549 62.9573 117.517 62.9081 116.239 62.8099C116.338 64.2347 116.387 65.1191 116.387 67.7231V89.8327C116.387 92.3876 116.338 93.7633 116.141 95.1881H121.202C121.054 93.8124 121.005 92.7315 121.005 89.7836V84.0842H125.427V90.1275C125.427 92.2402 125.378 93.3211 125.231 94.5985H130.34C130.193 93.4194 130.144 92.3384 130.144 90.0783V84.0842H134.762V88.9974C134.762 89.8818 134.566 90.1275 133.878 90.1275C133.239 90.1275 132.944 90.1275 131.077 89.8818C131.716 91.7489 131.913 92.7806 132.06 94.5494C133.731 94.6477 133.976 94.6477 134.468 94.6477C138.152 94.6477 139.43 93.665 139.43 90.8153V67.8214C139.43 65.1682 139.479 64.2347 139.626 62.8099C138.398 62.9081 137.465 62.9573 135.155 62.9573H130.144V59.7145H136.433C138.251 59.7145 139.282 59.7637 140.511 59.9602V54.703C139.381 54.8996 138.889 54.8996 137.121 54.9487L139.381 52.3447C137.661 50.9198 136.728 50.3794 134.271 49.2002L131.52 51.8533C134.517 53.573 134.861 53.7695 136.187 54.9487H130.144V53.8678C130.144 52.0007 130.193 50.969 130.439 49.888H125.132C125.329 51.0181 125.427 52.099 125.427 53.8678V54.9487H119.924C117.812 54.9487 116.583 54.8996 115.404 54.703V57.0122C112.309 54.703 110.294 52.6395 108.87 50.2811H103.612C102.581 52.1973 101.401 53.966 99.8292 55.7839C97.9622 58.044 96.4882 59.3706 94.2281 60.7954C95.2599 62.5642 95.7021 63.6943 96.3408 65.9052C97.4708 65.0208 97.8639 64.726 98.6009 64.0873V68.067C99.5344 67.9688 100.222 67.9196 101.794 67.9196H104.055ZM125.427 79.8588H121.005V75.6826H125.427V79.8588ZM130.144 79.8588V75.6826H134.762V79.8588H130.144ZM130.144 67.3792H134.762V71.4572H130.144V67.3792ZM125.427 67.3792V71.4572H121.005V67.3792H125.427ZM113.979 94.6968C113.832 93.665 113.783 92.8298 113.783 91.1593V82.3154C113.783 80.5958 113.832 79.4166 113.881 78.5814C112.898 78.7288 112.063 78.7779 110.344 78.7779H101.352C99.6818 78.7779 98.6009 78.7288 97.52 78.5814C97.6674 79.8588 97.7165 80.8906 97.7165 82.5611V90.8645C97.7165 92.8298 97.6674 93.9107 97.4708 95.1881H102.728V93.0263H108.82V94.6968H113.979ZM102.728 82.8559H108.82V88.7026H102.728V82.8559Z" fill="#20AEE5"/>
<path d="M177.337 72.9248C177.233 73.7252 177.024 74.4561 176.641 75.5697C176.015 75.5001 175.737 75.5001 175.319 75.5001C173.196 75.5001 172.396 75.5697 170.516 75.9526C170.551 75.2217 170.586 74.108 170.69 72.6116C173.474 72.5419 179.112 72.0199 182.941 71.3935C183.671 71.2891 183.811 71.2891 184.298 71.2543L184.124 67.252C181.444 68.0873 176.502 68.7833 170.934 69.0965C171.143 66.6604 171.282 65.7555 171.56 64.8159L167.245 64.6071C167.314 64.8855 167.314 65.0247 167.314 65.1639C167.314 65.8251 167.28 66.6952 167.245 67.1476C167.14 68.5397 167.14 68.5397 167.106 69.2357C166.41 69.2357 166.375 69.2357 166.34 69.2357C163.451 69.2357 161.398 69.0617 159.832 68.7137V72.6116C160.215 72.5768 160.528 72.5768 160.632 72.5768C160.702 72.5768 160.946 72.5768 161.294 72.5768C164.669 72.6812 166.549 72.716 166.932 72.716C166.862 74.3865 166.792 75.7785 166.792 76.8922C164.704 77.7971 163.417 78.6671 162.025 80.0244C159.797 82.2169 158.579 84.9663 158.579 87.8201C158.579 91.4395 160.772 93.9104 164.008 93.9104C166.897 93.9104 169.994 92.2051 173.126 88.8989C175.632 86.2888 177.268 83.783 179.182 79.6416C181.653 80.4768 183.08 82.2517 183.08 84.4443C183.08 86.8456 181.792 88.5509 179.008 89.8734C176.955 90.8479 175.18 91.2307 172.361 91.2655C173.509 93.0752 173.822 93.7016 174.205 95.1981C177.268 94.8849 179.252 94.3629 181.305 93.3536C185.238 91.4047 187.291 88.4465 187.291 84.6531C187.291 81.9037 186.212 79.746 183.985 78.0755C182.801 77.2054 181.792 76.7182 180.365 76.3702C180.47 76.057 180.504 76.0222 180.852 75.0477C181.131 74.3169 181.131 74.3169 181.27 74.0384L177.337 72.9248ZM166.862 80.8597C166.862 84.2355 167.036 86.4628 167.488 88.7249C166.375 89.6298 165.435 90.0474 164.461 90.0474C163.243 90.0474 162.477 89.073 162.477 87.5069C162.477 86.0452 162.999 84.6183 164.043 83.261C164.739 82.3909 165.331 81.8689 166.862 80.8597ZM170.795 86.1148C170.76 85.9408 170.76 85.906 170.76 85.732C170.76 85.4883 170.76 85.4883 170.725 85.2795C170.516 82.8434 170.516 82.4954 170.481 79.2936C171.874 78.8411 173.126 78.6671 174.658 78.6671C175.006 78.6671 175.18 78.6671 175.563 78.7019C174.275 81.5905 172.883 83.8178 171.247 85.6623C171.003 85.9408 171.003 85.9408 170.864 86.1496L170.795 86.1148Z" fill="#20AEE5"/>
<path d="M193.625 74.2821C193.938 74.2473 194.112 74.2473 194.286 74.2473C194.564 74.2473 195.052 74.2473 195.678 74.2821C196.27 74.3169 196.618 74.3169 196.792 74.3169H198.81C198.88 74.3169 199.019 74.3169 199.263 74.2821C198.114 80.4768 195.435 88.5857 193.033 93.0056L197.418 94.7109C199.715 88.5509 200.307 86.8108 201.316 83.1914C202.221 80.0244 203.091 76.3354 203.474 74.1776C204.622 74.1428 207.406 73.7948 209.181 73.4468C210.017 73.3076 210.017 73.3076 210.295 73.2728L210.121 69.2706C208.381 69.7926 206.745 70.071 204.17 70.3146C204.309 69.5142 204.344 69.3054 204.518 68.3309C204.936 65.7903 204.936 65.7903 205.179 64.9899L200.585 64.5723C200.62 64.8507 200.62 65.0595 200.62 65.1987C200.62 66.1732 200.272 68.8529 199.959 70.5234C199.158 70.5582 198.776 70.5582 198.358 70.5582C196.339 70.5582 194.947 70.4538 193.694 70.245L193.625 74.2821ZM221.223 75.0477C219.03 75.0129 218.717 75.0129 217.777 75.0129C214.019 75.0129 212.348 75.1869 207.406 76.1266L207.72 79.9548C211.165 79.1892 213.462 78.9455 216.907 78.9455C218.648 78.9455 219.622 79.0151 221.293 79.1892L221.223 75.0477ZM207.511 82.3561C205.597 84.9663 204.936 86.5324 204.936 88.3769C204.936 90.117 205.91 91.7875 207.406 92.6576C209.077 93.5972 211.304 94.0497 214.402 94.0497C216.455 94.0497 217.986 93.9104 220.875 93.4928C221.675 93.3536 221.954 93.3188 222.58 93.2492L222.267 88.9685C220.248 89.6994 216.907 90.2562 214.367 90.2562C210.887 90.2562 209.147 89.3514 209.147 87.5765C209.147 86.3584 209.564 85.4883 210.956 83.7482L207.511 82.3561Z" fill="#20AEE5"/>
<path d="M233.125 64.6767C233.125 65.1291 233.09 65.2683 233.021 65.8599L232.499 70.1754C232.22 72.5768 232.012 76.4398 232.012 79.2588C232.012 79.9548 232.081 82.5302 232.116 83.5394C232.116 83.8526 232.116 84.0614 232.116 84.2007C232.116 84.2703 232.116 84.4443 232.081 84.6531L236.257 84.5835C236.257 84.2703 236.257 84.0266 236.257 83.8526C236.257 79.7112 237.928 75.4305 240.642 72.6116C241.861 71.3587 243.079 70.767 244.401 70.767C247.394 70.767 249.065 73.5512 249.065 78.5627C249.065 83.8526 247.22 87.1588 243.183 89.2122C241.06 90.291 239.042 90.8131 235.561 91.1959C236.536 92.5532 236.919 93.3188 237.615 95.3025C240.225 94.8501 242.661 94.1541 244.436 93.3536C250.283 90.7783 253.415 85.7668 253.415 79.0499C253.415 74.9433 252.649 72.1243 250.909 69.7926C249.413 67.7741 247.324 66.6604 244.958 66.6604C242.417 66.6604 240.26 67.8437 238.346 70.2102C237.406 71.4283 236.501 73.1336 236.153 74.3517C236.014 74.9085 236.014 74.9085 235.944 75.1173H235.84C235.909 74.2821 236.049 73.0988 236.292 71.6371C236.953 67.0084 237.127 66.1036 237.545 64.9203L233.125 64.6767Z" fill="#20AEE5"/>
<path d="M441.307 16.3795H403.738L402.828 36.2689C404.302 35.8356 406.035 35.5323 408.028 35.3589C410.108 35.1856 411.971 35.0989 413.618 35.0989C418.125 35.0989 422.284 35.7489 426.098 37.0489C429.998 38.3489 433.377 40.2555 436.237 42.7687C439.097 45.1953 441.307 48.2286 442.867 51.8684C444.514 55.4217 445.337 59.5382 445.337 64.2181C445.337 69.3313 444.427 73.9244 442.607 77.9977C440.874 81.9842 438.491 85.3641 435.457 88.1374C432.424 90.9106 428.871 93.0339 424.798 94.5072C420.724 95.9805 416.391 96.7171 411.798 96.7171C404.085 96.7171 397.585 94.9405 392.299 91.3873C387.012 87.7474 383.156 82.8075 380.729 76.5677L394.899 71.3679C396.199 75.0078 398.365 77.9543 401.398 80.2076C404.432 82.3742 408.028 83.4575 412.188 83.4575C414.528 83.4575 416.738 83.0675 418.818 82.2875C420.898 81.5076 422.718 80.3809 424.278 78.9076C425.838 77.4344 427.051 75.6144 427.918 73.4478C428.871 71.1945 429.348 68.6813 429.348 65.908C429.348 62.3548 428.741 59.4082 427.528 57.0683C426.314 54.7284 424.711 52.8651 422.718 51.4785C420.811 50.0052 418.645 49.0085 416.218 48.4885C413.791 47.8819 411.321 47.5786 408.808 47.5786C407.075 47.5786 405.212 47.7086 403.218 47.9686C401.312 48.2286 399.405 48.6185 397.499 49.1385C395.679 49.5718 393.859 50.0918 392.039 50.6985C390.305 51.3051 388.745 51.9551 387.359 52.6484L388.919 2.33993H441.307V16.3795Z" fill="#20AEE5"/>
<path d="M464.151 76.4377H479.231L468.181 110.757H455.052L464.151 76.4377Z" fill="#20AEE5"/>
<path d="M548.277 16.3795H510.709L509.799 36.2689C511.272 35.8356 513.005 35.5323 514.998 35.3589C517.078 35.1856 518.942 35.0989 520.588 35.0989C525.095 35.0989 529.255 35.7489 533.068 37.0489C536.968 38.3489 540.348 40.2555 543.208 42.7687C546.068 45.1953 548.277 48.2286 549.837 51.8684C551.484 55.4217 552.307 59.5382 552.307 64.2181C552.307 69.3313 551.397 73.9244 549.577 77.9977C547.844 81.9842 545.461 85.3641 542.428 88.1374C539.394 90.9106 535.841 93.0339 531.768 94.5072C527.695 95.9805 523.362 96.7171 518.768 96.7171C511.055 96.7171 504.555 94.9405 499.269 91.3873C493.982 87.7474 490.126 82.8075 487.699 76.5677L501.869 71.3679C503.169 75.0078 505.335 77.9543 508.369 80.2076C511.402 82.3742 514.998 83.4575 519.158 83.4575C521.498 83.4575 523.708 83.0675 525.788 82.2875C527.868 81.5076 529.688 80.3809 531.248 78.9076C532.808 77.4344 534.021 75.6144 534.888 73.4478C535.841 71.1945 536.318 68.6813 536.318 65.908C536.318 62.3548 535.711 59.4082 534.498 57.0683C533.285 54.7284 531.681 52.8651 529.688 51.4785C527.781 50.0052 525.615 49.0085 523.188 48.4885C520.762 47.8819 518.292 47.5786 515.778 47.5786C514.045 47.5786 512.182 47.7086 510.189 47.9686C508.282 48.2286 506.375 48.6185 504.469 49.1385C502.649 49.5718 500.829 50.0918 499.009 50.6985C497.276 51.3051 495.716 51.9551 494.329 52.6484L495.889 2.33993H548.277V16.3795Z" fill="#20AEE5"/>
<path d="M631.05 48.3586C631.05 55.8117 630.313 62.5281 628.84 68.5079C627.453 74.4878 625.373 79.5576 622.6 83.7175C619.914 87.8774 616.534 91.0839 612.46 93.3372C608.474 95.5905 603.881 96.7171 598.681 96.7171C593.481 96.7171 588.844 95.5905 584.771 93.3372C580.698 91.0839 577.275 87.8774 574.502 83.7175C571.728 79.5576 569.605 74.4878 568.132 68.5079C566.745 62.5281 566.052 55.8117 566.052 48.3586C566.052 40.9054 566.745 34.189 568.132 28.2092C569.605 22.2293 571.728 17.1595 574.502 12.9996C577.275 8.83973 580.698 5.63316 584.771 3.37989C588.844 1.12663 593.481 0 598.681 0C603.881 0 608.474 1.12663 612.46 3.37989C616.534 5.63316 619.914 8.83973 622.6 12.9996C625.373 17.1595 627.453 22.2293 628.84 28.2092C630.313 34.189 631.05 40.9054 631.05 48.3586ZM615.06 48.3586C615.06 45.152 614.844 41.5121 614.41 37.4389C614.064 33.3657 613.284 29.5091 612.07 25.8692C610.944 22.2293 609.297 19.1961 607.131 16.7695C604.964 14.2562 602.147 12.9996 598.681 12.9996C595.128 12.9996 592.268 14.2562 590.101 16.7695C587.934 19.1961 586.245 22.2293 585.031 25.8692C583.905 29.5091 583.125 33.3657 582.691 37.4389C582.258 41.5121 582.041 45.152 582.041 48.3586C582.041 51.5651 582.258 55.205 582.691 59.2782C583.125 63.3514 583.905 67.1647 585.031 70.7179C586.245 74.2711 587.934 77.3043 590.101 79.8176C592.268 82.2442 595.128 83.4575 598.681 83.4575C602.147 83.4575 604.964 82.2442 607.131 79.8176C609.297 77.3043 610.944 74.2711 612.07 70.7179C613.284 67.1647 614.064 63.3514 614.41 59.2782C614.844 55.205 615.06 51.5651 615.06 48.3586Z" fill="#20AEE5"/>
<path d="M707.322 48.3586C707.322 55.8117 706.586 62.5281 705.112 68.5079C703.726 74.4878 701.646 79.5576 698.873 83.7175C696.186 87.8774 692.806 91.0839 688.733 93.3372C684.746 95.5905 680.153 96.7171 674.953 96.7171C669.754 96.7171 665.117 95.5905 661.044 93.3372C656.971 91.0839 653.547 87.8774 650.774 83.7175C648.001 79.5576 645.878 74.4878 644.404 68.5079C643.018 62.5281 642.324 55.8117 642.324 48.3586C642.324 40.9054 643.018 34.189 644.404 28.2092C645.878 22.2293 648.001 17.1595 650.774 12.9996C653.547 8.83973 656.971 5.63316 661.044 3.37989C665.117 1.12663 669.754 0 674.953 0C680.153 0 684.746 1.12663 688.733 3.37989C692.806 5.63316 696.186 8.83973 698.873 12.9996C701.646 17.1595 703.726 22.2293 705.112 28.2092C706.586 34.189 707.322 40.9054 707.322 48.3586ZM691.333 48.3586C691.333 45.152 691.116 41.5121 690.683 37.4389C690.336 33.3657 689.556 29.5091 688.343 25.8692C687.216 22.2293 685.57 19.1961 683.403 16.7695C681.237 14.2562 678.42 12.9996 674.953 12.9996C671.4 12.9996 668.54 14.2562 666.374 16.7695C664.207 19.1961 662.517 22.2293 661.304 25.8692C660.177 29.5091 659.397 33.3657 658.964 37.4389C658.531 41.5121 658.314 45.152 658.314 48.3586C658.314 51.5651 658.531 55.205 658.964 59.2782C659.397 63.3514 660.177 67.1647 661.304 70.7179C662.517 74.2711 664.207 77.3043 666.374 79.8176C668.54 82.2442 671.4 83.4575 674.953 83.4575C678.42 83.4575 681.237 82.2442 683.403 79.8176C685.57 77.3043 687.216 74.2711 688.343 70.7179C689.556 67.1647 690.336 63.3514 690.683 59.2782C691.116 55.205 691.333 51.5651 691.333 48.3586Z" fill="#20AEE5"/>
<path d="M732.63 76.0756H761.863V88.0639C761.863 89.2431 761.569 89.3905 759.652 89.3905C757.884 89.3905 755.427 89.194 752.184 88.85C753.069 90.8645 753.413 92.2402 753.707 94.1563C755.624 94.2546 758.326 94.3529 760.242 94.3529C762.895 94.3529 764.467 94.1563 765.401 93.665C766.826 92.928 767.415 91.5523 767.415 89.0466V57.5527C767.415 54.8995 767.465 53.6221 767.612 52.1973C766.433 52.3447 764.959 52.3938 762.256 52.3938H732.384C729.78 52.3938 728.503 52.3447 726.93 52.1973C727.078 53.6221 727.127 54.8504 727.127 56.914V89.0466C727.127 91.6014 727.029 93.3702 726.832 94.9425H732.875C732.679 93.8124 732.63 92.3384 732.63 89.2431V76.0756ZM744.274 70.9167H732.63V57.6018H744.274V70.9167ZM749.58 70.9167V57.6018H761.863V70.9167H749.58Z" fill="#20AEE5"/>
<path d="M730.369 44.6553C729.206 43.1977 728.747 42.4771 728.289 41.3961C727.699 40.0368 727.421 38.5628 727.421 36.9087C727.421 35.3037 727.699 33.9116 728.273 32.5687C728.731 31.4878 729.206 30.7508 730.352 29.3096H728.06C727.126 30.6198 726.733 31.3404 726.258 32.5359C725.685 34.0099 725.423 35.3692 725.423 36.9087C725.423 38.4809 725.701 39.9222 726.291 41.4289C726.749 42.6244 727.159 43.3451 728.076 44.6553H730.369Z" fill="#20AEE5"/>
<path d="M733.972 33.6824H732.924C732.285 33.6824 731.99 33.666 731.614 33.6005V35.3365C731.974 35.271 732.285 35.2546 732.924 35.2546H733.743C733.562 35.8769 733.153 36.8596 732.793 37.5311C732.318 38.3991 731.941 38.9723 731.253 39.7748C731.63 40.2988 731.81 40.6919 732.088 41.478C733.038 40.2988 733.628 39.1688 734.07 37.7112C734.037 38.1206 733.972 39.4145 733.972 39.7256V42.5589C733.972 43.4761 733.939 44.0002 733.874 44.5734H735.773C735.692 44.0329 735.675 43.5088 735.675 42.5589V39.2834C735.675 38.7594 735.626 37.8095 735.577 37.4164C736.134 38.612 736.265 38.8413 736.838 39.5782C737.084 38.9723 737.133 38.8576 737.428 38.3008L737.575 38.006C736.723 37.138 736.33 36.5648 735.839 35.4839C735.757 35.3365 735.757 35.3365 735.724 35.2546H736.183C736.707 35.2546 737.002 35.271 737.329 35.3201V33.6168C737.018 33.666 736.723 33.6824 736.183 33.6824H735.675V31.4878C736.265 31.3076 736.658 31.1602 737.215 30.9309C737.46 30.8163 737.477 30.7999 737.64 30.7344L736.625 29.3096C736.412 29.457 736.166 29.588 735.921 29.6863C734.66 30.2103 733.448 30.5051 731.63 30.718C732.007 31.3731 732.187 31.7826 732.269 32.2248C733.12 32.0937 733.415 32.0446 733.972 31.93V33.6824ZM739.082 32.7161C738.508 32.7161 738.246 32.6997 737.771 32.6506C737.804 33.0273 737.821 33.4531 737.821 33.8461V36.7941C737.821 37.2526 737.804 37.6457 737.771 38.0224C738.214 37.9732 738.541 37.9569 739.065 37.9569H739.311C739.311 40.5773 738.328 42.2478 736.216 43.214C736.838 43.7545 737.067 44.0329 737.428 44.6553C738.869 43.8691 739.655 43.0503 740.277 41.6582C740.736 40.6428 740.916 39.742 741.047 37.9569H742.079V43.0011C742.079 44.082 742.472 44.3932 743.88 44.3932C745.42 44.3932 745.944 44.2786 746.255 43.8364C746.55 43.4433 746.648 42.9356 746.763 41.1505C746.271 41.0358 745.846 40.8229 745.223 40.4135C745.19 42.6736 745.158 42.7555 744.486 42.7555C743.864 42.7555 743.782 42.7227 743.782 42.4115V37.9569H744.519C745.043 37.9569 745.436 37.9732 745.878 38.0224C745.829 37.6293 745.813 37.3018 745.813 36.8104V33.797C745.813 33.3057 745.829 33.0436 745.878 32.6506C745.42 32.6997 745.092 32.7161 744.519 32.7161H744.011C744.453 31.9791 744.617 31.6352 745.371 29.981L743.553 29.3915C743.176 30.7508 742.881 31.5042 742.226 32.7161H739.082ZM739.458 34.2883H744.06V36.3519H739.458V34.2883ZM741.162 31.9136C740.785 31.0128 740.425 30.325 739.802 29.3751L738.214 30.1121C738.721 30.7999 739.049 31.4223 739.557 32.6342L741.162 31.9136Z" fill="#20AEE5"/>
<path d="M756.475 31.6843C756.393 32.8143 756.327 33.2893 756.163 33.9608C755.836 35.3529 755.213 36.6958 754.345 37.8586C753.674 38.743 753.183 39.2343 752.184 39.9549C752.79 40.5281 753.035 40.7902 753.477 41.3798C754.575 40.4954 755.082 39.9713 755.688 39.136C756.606 37.9077 757.064 36.876 757.474 35.1399C758.03 36.9251 758.489 37.9241 759.308 39.0214C760.061 40.0204 760.733 40.6755 761.928 41.5763C762.272 40.8721 762.551 40.4135 763.009 39.8567C761.224 38.5792 760.241 37.4492 759.406 35.6476C758.702 34.1573 758.325 32.5032 758.325 30.8982C758.325 30.6198 758.325 30.3905 758.358 30.0138C758.047 30.0629 757.686 30.0793 757.162 30.0793H754.82C754.165 30.0793 753.821 30.0629 753.461 29.9974V31.7662C753.871 31.7007 754.264 31.6843 754.82 31.6843H756.475ZM748.237 30.8982C749.514 32.0446 750.038 32.6178 751.054 33.9935L752.413 32.667C751.61 31.6188 750.726 30.7017 749.547 29.6699L748.237 30.8982ZM747.991 37.3837C748.4 37.3181 748.646 37.3018 749.105 37.3018H750.104V40.8229C749.399 41.4453 748.368 42.1331 747.663 42.4279L748.466 44.2949C748.548 44.2294 748.548 44.2294 748.712 44.0984C748.826 44.0002 748.925 43.9183 749.203 43.7054C749.973 43.1158 750.366 42.7718 750.89 42.2478C751.529 43.083 752.118 43.5252 752.97 43.7872C753.821 44.0657 755.148 44.1639 757.834 44.1639C758.964 44.1639 761.339 44.1148 762.796 44.0657C762.911 43.3123 763.009 42.9029 763.288 42.1167C761.666 42.346 759.586 42.4607 757.212 42.4607C754.395 42.4607 753.543 42.346 752.757 41.8547C752.216 41.4944 752.069 41.3306 751.823 40.8065V37.3837C751.823 36.4665 751.84 36.1226 751.889 35.5821C751.512 35.6476 751.135 35.664 750.644 35.664H749.301C748.679 35.664 748.417 35.6476 747.991 35.5821V37.3837Z" fill="#20AEE5"/>
<path d="M766.383 44.6553C767.3 43.3451 767.693 42.6244 768.168 41.4289C768.741 39.9222 769.02 38.4973 769.02 36.9087C769.02 35.3529 768.758 34.0263 768.184 32.5359C767.709 31.324 767.316 30.6034 766.399 29.3096H764.09C765.236 30.7508 765.711 31.4878 766.186 32.5687C766.76 33.9116 767.022 35.271 767.022 36.9087C767.022 38.5792 766.743 40.0368 766.154 41.3961C765.695 42.4771 765.236 43.1977 764.074 44.6553H766.383Z" fill="#20AEE5"/>
<path d="M21.0366 44.7781L8.42593 55.1368L2.12061 47.6605L22.0274 31.627H31.8457V95.4008H21.0366V44.7781Z" fill="#20AEE5"/>
</svg>
