
<svg width="295" height="197" viewBox="0 0 295 197" fill="none" xmlns="http://www.w3.org/2000/svg">
<path d="M130.826 180.793C135.58 181.375 151.82 183.896 158.158 183.702" stroke="#20A9E0" stroke-width="1.5" stroke-linecap="round" stroke-linejoin="round"/>
<path d="M158.157 182.733C158.554 183.896 161.128 184.866 161.325 183.702C161.522 182.539 161.721 182.539 162.712 183.121C163.702 183.702 164.889 183.896 165.089 182.539C165.285 181.181 166.499 181.731 167.069 182.151C167.862 182.733 169.049 181.569 169.246 180.406" stroke="#20A9E0" stroke-width="1.5" stroke-linecap="round" stroke-linejoin="round"/>
<path d="M167.663 173.428C167.663 173.428 169.247 174.979 170.04 175.561C170.833 176.143 173.149 180.427 173.407 181.185C173.804 182.348 172.614 183.124 171.824 182.348C171.033 181.573 168.456 179.052 168.456 179.052" stroke="#20A9E0" stroke-width="1.5" stroke-linecap="round" stroke-linejoin="round"/>
<path d="M166.079 173.039C164.692 173.427 164.098 174.978 163.505 175.172C162.973 175.346 159.941 176.336 158.157 177.111C157.646 177.335 154.99 180.408 154.79 180.796" stroke="#20A9E0" stroke-width="1.5" stroke-linecap="round" stroke-linejoin="round"/>
<path d="M143.305 182.345C144.888 182.345 153.01 181.957 153.8 181.569" stroke="#20A9E0" stroke-width="1.5" stroke-linecap="round" stroke-linejoin="round"/>
<path d="M122.111 179.048C123.895 178.661 127.215 177.976 127.656 177.109C128.052 176.333 129.043 176.333 129.833 176.527C130.623 176.721 133.794 180.6 133.994 181.182" stroke="#20A9E0" stroke-width="1.5" stroke-linecap="round" stroke-linejoin="round"/>
<path d="M134.969 104.141C137.46 107.814 142.385 109.727 146.772 108.725" stroke="#20A9E0" stroke-width="1.5" stroke-linecap="round" stroke-linejoin="round"/>
<path d="M141.382 101.667C145.478 105.619 150.67 108.469 156.253 109.827" stroke="#20A9E0" stroke-width="1.5" stroke-linecap="round" stroke-linejoin="round"/>
<path d="M136.229 107.047C136.202 107.958 136.032 109.427 135.247 111.016C134.798 111.93 134.266 112.641 133.808 113.155" stroke="#20A9E0" stroke-width="1.5" stroke-linecap="round" stroke-linejoin="round"/>
<path d="M131.824 108.206C133.082 113.595 133.138 119.248 131.989 124.658" stroke="#20A9E0" stroke-width="1.5" stroke-linecap="round" stroke-linejoin="round"/>
<path d="M144.416 88.1217C150.504 87.584 156.213 91.7563 159.233 96.9599C162.254 102.164 163.132 108.26 163.958 114.19C164.269 116.429 164.575 118.753 163.893 120.913C163.211 123.072 161.252 125.02 158.945 124.95" stroke="#20A9E0" stroke-width="1.5" stroke-linecap="round" stroke-linejoin="round"/>
<path d="M141.697 87.9129C137.046 86.5466 131.957 89.3027 129.192 93.2105C126.424 97.1184 125.458 101.946 124.553 106.618C123.659 111.225 122.766 115.941 123.492 120.574C124.218 125.211 126.888 129.83 131.299 131.657" stroke="#20A9E0" stroke-width="1.5" stroke-linecap="round" stroke-linejoin="round"/>
<path d="M133.062 120.712C134.666 123.586 136.312 126.512 138.727 128.751C141.142 130.99 144.506 132.471 147.73 131.831C150.512 131.278 152.807 129.227 154.3 126.821C155.684 124.591 156.474 122.058 157.209 119.531" stroke="#20A9E0" stroke-width="1.5" stroke-linecap="round" stroke-linejoin="round"/>
<path d="M156.981 113.524C157.422 116.106 157.534 118.739 157.311 121.348" stroke="#20A9E0" stroke-width="1.5" stroke-linecap="round" stroke-linejoin="round"/>
<path d="M119.575 139.165C122.998 136.157 127.179 133.979 131.639 132.878C133.617 132.39 135.673 132.102 137.507 131.232C137.413 131.279 137.319 131.326 137.222 131.373" stroke="#20A9E0" stroke-width="1.5" stroke-linecap="round" stroke-linejoin="round"/>
<path d="M174.508 139.165C171.085 136.157 166.904 133.979 162.444 132.878C160.466 132.39 158.41 132.102 156.576 131.232C156.67 131.279 156.764 131.326 156.861 131.373" stroke="#20A9E0" stroke-width="1.5" stroke-linecap="round" stroke-linejoin="round"/>
<path d="M160.164 134.537C159.433 138.433 156.782 141.938 153.192 143.76C151.396 144.671 149.384 145.15 147.362 145.194H146.786C144.765 145.15 142.752 144.671 140.957 143.76C137.363 141.938 134.713 138.433 133.984 134.537" stroke="#20A9E0" stroke-width="1.5" stroke-linecap="round" stroke-linejoin="round"/>
<path d="M117.853 142.564C117.477 143.399 117.518 143.122 117.083 144.389C117.083 144.389 116.725 145.259 116.513 146.193C115.109 152.407 114.753 159.086 114.048 165.453C113.599 169.52 113.167 173.501 112.3 177.453C111.803 179.71 111.374 182.16 111.624 184.499" stroke="#20A9E0" stroke-width="1.5" stroke-linecap="round" stroke-linejoin="round"/>
<path d="M176.104 142.8C179.18 156.898 181.14 170.07 183.088 184.5" stroke="#20A9E0" stroke-width="1.5" stroke-linecap="round" stroke-linejoin="round"/>
<path d="M154.866 126.98C154.828 129.774 155.398 132.574 156.509 135.019" stroke="#20A9E0" stroke-width="1.5" stroke-linecap="round" stroke-linejoin="round"/>
<path d="M138.694 129.153C139.39 131.201 139.17 133.528 138.106 135.417" stroke="#20A9E0" stroke-width="1.5" stroke-linecap="round" stroke-linejoin="round"/>
<path d="M145.534 66.3346C145.534 67.216 145.378 68.027 145.064 68.7616C144.752 69.4991 144.317 70.1367 143.765 70.6714C143.213 71.2091 142.56 71.6264 141.805 71.9202C141.053 72.2169 140.242 72.3639 139.378 72.3639C138.514 72.3639 137.703 72.2169 136.951 71.9202C136.199 71.6234 135.55 71.2062 135.003 70.6714C134.457 70.1337 134.031 69.4961 133.716 68.7616C133.405 68.0241 133.246 67.216 133.246 66.3346C133.246 65.4531 133.402 64.648 133.716 63.9193C134.028 63.1906 134.457 62.5619 135.003 62.033C135.547 61.5041 136.196 61.0927 136.951 60.796C137.703 60.4992 138.514 60.3523 139.378 60.3523C140.242 60.3523 141.053 60.4992 141.805 60.796C142.557 61.0927 143.213 61.5041 143.765 62.033C144.317 62.5619 144.749 63.1906 145.064 63.9193C145.375 64.648 145.534 65.4531 145.534 66.3346ZM143.177 66.3463C143.177 65.8027 143.092 65.2827 142.925 64.789C142.754 64.2925 142.51 63.8576 142.19 63.4815C141.87 63.1054 141.47 62.8057 140.997 62.5824C140.524 62.3591 139.981 62.2475 139.369 62.2475C138.758 62.2475 138.215 62.3591 137.742 62.5824C137.266 62.8057 136.869 63.1054 136.549 63.4815C136.228 63.8576 135.982 64.2925 135.814 64.789C135.644 65.2856 135.561 65.8027 135.561 66.3463C135.561 66.8899 135.647 67.41 135.814 67.9036C135.982 68.4002 136.228 68.838 136.549 69.2229C136.869 69.6078 137.269 69.9104 137.742 70.1337C138.215 70.357 138.758 70.4687 139.369 70.4687C139.981 70.4687 140.524 70.357 140.997 70.1337C141.47 69.9104 141.87 69.6078 142.19 69.2229C142.51 68.8409 142.757 68.4002 142.925 67.9036C143.092 67.41 143.177 66.8899 143.177 66.3463Z" fill="#20AEE5"/>
<path d="M148.155 61.9363C148.14 61.4544 148.114 61.0313 148.082 60.6611H150.221C150.253 60.949 150.276 61.281 150.294 61.6601C150.309 62.0362 150.318 62.3447 150.318 62.5856H150.391C150.711 61.9128 151.181 61.3721 151.798 60.9637C152.415 60.5553 153.109 60.3496 153.879 60.3496C154.231 60.3496 154.528 60.3819 154.769 60.4466L154.672 62.5386C154.352 62.4593 154.008 62.4181 153.638 62.4181C153.091 62.4181 152.621 62.518 152.219 62.7178C151.819 62.9176 151.484 63.188 151.22 63.5229C150.955 63.8608 150.758 64.2487 150.632 64.6894C150.503 65.1301 150.438 65.5914 150.438 66.0704V72.0556H148.179V63.1116C148.179 62.806 148.17 62.4152 148.155 61.9333V61.9363Z" fill="#20AEE5"/>
<path d="M57.4271 120.763C87.2921 120.763 111.503 96.3876 111.503 66.3197C111.503 36.2518 87.2921 11.877 57.4271 11.877C27.562 11.877 3.35156 36.2518 3.35156 66.3197C3.35156 96.3876 27.562 120.763 57.4271 120.763Z" stroke="#20AEE5" stroke-width="1.5" stroke-linecap="round" stroke-linejoin="round"/>
<path d="M37.834 43.7465L13.7877 55.371C12.9126 55.794 12.5461 56.8464 12.9691 57.7215L30.2715 93.5132C30.6946 94.3884 31.747 94.7548 32.6221 94.3318L56.6684 82.7074C57.5435 82.2843 57.91 81.2319 57.487 80.3568L40.1846 44.5651C39.7615 43.6899 38.7091 43.3235 37.834 43.7465Z" fill="white" stroke="#20AEE5" stroke-width="1.5" stroke-linecap="round" stroke-linejoin="round"/>
<path d="M19.606 60.4031L24.9771 57.8057" stroke="#20AEE5" stroke-width="1.5" stroke-linecap="round" stroke-linejoin="round"/>
<path d="M30.9062 83.7791L38.4252 80.1445" stroke="#20AEE5" stroke-width="1.5" stroke-linecap="round" stroke-linejoin="round"/>
<path d="M32.4043 86.878L39.9233 83.2434" stroke="#20AEE5" stroke-width="1.5" stroke-linecap="round" stroke-linejoin="round"/>
<path d="M21.272 63.8484L39.8299 54.875" stroke="#20AEE5" stroke-width="1.5" stroke-linecap="round" stroke-linejoin="round"/>
<path d="M22.8027 67.0149L41.3636 58.0444" stroke="#20AEE5" stroke-width="1.5" stroke-linecap="round" stroke-linejoin="round"/>
<path d="M24.3335 70.1819L42.8944 61.2114" stroke="#20AEE5" stroke-width="1.5" stroke-linecap="round" stroke-linejoin="round"/>
<path d="M62.7224 83.607L38.141 92.8624C37.2683 93.1945 36.2928 92.7537 35.9608 91.8811L22.1922 55.3234C21.8602 54.4507 22.3009 53.4752 23.1736 53.1432L47.7549 43.8877C48.6276 43.5557 49.6031 43.9965 49.9351 44.8691L63.7037 81.4268C64.0358 82.2994 63.595 83.2749 62.7224 83.607Z" fill="white" stroke="#20AEE5" stroke-width="1.5" stroke-linecap="round" stroke-linejoin="round"/>
<path d="M28.4453 58.5641L33.9222 56.5015" stroke="#20AEE5" stroke-width="1.5" stroke-linecap="round" stroke-linejoin="round"/>
<path d="M37.4238 82.3964L45.0897 79.5081" stroke="#20AEE5" stroke-width="1.5" stroke-linecap="round" stroke-linejoin="round"/>
<path d="M38.6172 85.5563L46.2801 82.668" stroke="#20AEE5" stroke-width="1.5" stroke-linecap="round" stroke-linejoin="round"/>
<path d="M29.7676 62.0762L48.6899 54.9451" stroke="#20AEE5" stroke-width="1.5" stroke-linecap="round" stroke-linejoin="round"/>
<path d="M30.9863 65.3054L49.9057 58.1772" stroke="#20AEE5" stroke-width="1.5" stroke-linecap="round" stroke-linejoin="round"/>
<path d="M32.2026 68.5364L51.122 61.4053" stroke="#20AEE5" stroke-width="1.5" stroke-linecap="round" stroke-linejoin="round"/>
<path d="M68.7487 84.5221L43.6767 91.3858C42.7923 91.6326 41.8755 91.1126 41.6316 90.2281L31.4183 52.9506C31.1715 52.0662 31.6916 51.1495 32.576 50.9056L57.648 44.0418C58.5324 43.795 59.4492 44.3151 59.6931 45.1995L69.9064 82.477C70.1532 83.3615 69.6331 84.2782 68.7487 84.5221Z" fill="white" stroke="#20AEE5" stroke-width="1.5" stroke-linecap="round" stroke-linejoin="round"/>
<path d="M37.2832 56.7308L42.8629 55.2" stroke="#20AEE5" stroke-width="1.5" stroke-linecap="round" stroke-linejoin="round"/>
<path d="M43.9438 81.0121L51.7537 78.8701" stroke="#20AEE5" stroke-width="1.5" stroke-linecap="round" stroke-linejoin="round"/>
<path d="M44.8257 84.2333L52.6385 82.0913" stroke="#20AEE5" stroke-width="1.5" stroke-linecap="round" stroke-linejoin="round"/>
<path d="M38.2651 60.3042L57.5488 55.0154" stroke="#20AEE5" stroke-width="1.5" stroke-linecap="round" stroke-linejoin="round"/>
<path d="M39.1665 63.6001L58.4502 58.3113" stroke="#20AEE5" stroke-width="1.5" stroke-linecap="round" stroke-linejoin="round"/>
<path d="M40.0684 66.8907L59.3521 61.6018" stroke="#20AEE5" stroke-width="1.5" stroke-linecap="round" stroke-linejoin="round"/>
<path d="M74.7782 85.4356L49.2184 89.9106C48.3222 90.0722 47.4672 89.4757 47.3056 88.5795L40.6504 50.5851C40.4888 49.6889 41.0853 48.8339 41.9815 48.6723L67.5413 44.1973C68.4374 44.0357 69.2925 44.6322 69.4541 45.5283L76.1092 83.5228C76.2708 84.419 75.6743 85.274 74.7782 85.4356Z" fill="white" stroke="#20AEE5" stroke-width="1.5" stroke-linecap="round" stroke-linejoin="round"/>
<path d="M46.1221 54.8896L51.8076 53.8936" stroke="#20AEE5" stroke-width="1.5" stroke-linecap="round" stroke-linejoin="round"/>
<path d="M50.4604 79.633L58.4172 78.2344" stroke="#20AEE5" stroke-width="1.5" stroke-linecap="round" stroke-linejoin="round"/>
<path d="M51.0366 82.9108L58.9934 81.5151" stroke="#20AEE5" stroke-width="1.5" stroke-linecap="round" stroke-linejoin="round"/>
<path d="M46.7593 58.5357L66.4044 55.0891" stroke="#20AEE5" stroke-width="1.5" stroke-linecap="round" stroke-linejoin="round"/>
<path d="M47.3491 61.8885L66.9913 58.4419" stroke="#20AEE5" stroke-width="1.5" stroke-linecap="round" stroke-linejoin="round"/>
<path d="M47.937 65.2415L67.5821 61.7949" stroke="#20AEE5" stroke-width="1.5" stroke-linecap="round" stroke-linejoin="round"/>
<path d="M80.8075 86.3505L54.757 88.4337C53.8491 88.5072 53.0528 87.8343 52.9794 86.9264L49.8795 48.212C49.8061 47.3041 50.4789 46.5079 51.3868 46.4344L77.4373 44.3512C78.3453 44.2777 79.1415 44.9506 79.215 45.8585L82.3148 84.5729C82.3883 85.4808 81.7154 86.277 80.8075 86.3505Z" fill="white" stroke="#20AEE5" stroke-width="1.5" stroke-linecap="round" stroke-linejoin="round"/>
<path d="M54.9604 53.0543L60.7488 52.5872" stroke="#20AEE5" stroke-width="1.5" stroke-linecap="round" stroke-linejoin="round"/>
<path d="M56.9819 78.2492L65.0856 77.5999" stroke="#20AEE5" stroke-width="1.5" stroke-linecap="round" stroke-linejoin="round"/>
<path d="M57.2485 81.591L65.3522 80.9417" stroke="#20AEE5" stroke-width="1.5" stroke-linecap="round" stroke-linejoin="round"/>
<path d="M55.2568 56.7654L75.2634 55.1611" stroke="#20AEE5" stroke-width="1.5" stroke-linecap="round" stroke-linejoin="round"/>
<path d="M55.5293 60.1792L75.5358 58.575" stroke="#20AEE5" stroke-width="1.5" stroke-linecap="round" stroke-linejoin="round"/>
<path d="M55.8032 63.5962L75.8098 61.989" stroke="#20AEE5" stroke-width="1.5" stroke-linecap="round" stroke-linejoin="round"/>
<path d="M94.1485 50.1743L92.9233 87.2785C92.888 88.3862 91.9624 89.2589 90.8547 89.2236L61.7279 88.3275C60.6202 88.2922 59.7475 87.3667 59.7828 86.2589L61.1167 42.8287C61.152 41.721 62.0775 40.8483 63.1853 40.8836L83.6413 41.7151" fill="white"/>
<path d="M94.1485 50.1743L92.9233 87.2785C92.888 88.3862 91.9624 89.2589 90.8547 89.2236L61.7279 88.3275C60.6202 88.2922 59.7475 87.3667 59.7828 86.2589L61.1167 42.8287C61.152 41.721 62.0775 40.8483 63.1853 40.8836L83.6413 41.7151" stroke="#20AEE5" stroke-width="1.5" stroke-linecap="round" stroke-linejoin="round"/>
<path d="M93.3615 50.8995L86.583 50.6674C85.0316 50.6204 83.8151 49.3246 83.8622 47.7732L84.0384 42.0613" stroke="#20AEE5" stroke-width="1.5" stroke-linecap="round" stroke-linejoin="round"/>
<path d="M66.2085 48.7283L72.752 48.9281" stroke="#20AEE5" stroke-width="1.5" stroke-linecap="round" stroke-linejoin="round"/>
<path d="M65.334 77.1938L74.4896 77.4759" stroke="#20AEE5" stroke-width="1.5" stroke-linecap="round" stroke-linejoin="round"/>
<path d="M65.2188 80.9702L74.3743 81.2494" stroke="#20AEE5" stroke-width="1.5" stroke-linecap="round" stroke-linejoin="round"/>
<path d="M66.0801 52.9211L88.684 53.6175" stroke="#20AEE5" stroke-width="1.5" stroke-linecap="round" stroke-linejoin="round"/>
<path d="M65.9614 56.7793L88.5624 57.4757" stroke="#20AEE5" stroke-width="1.5" stroke-linecap="round" stroke-linejoin="round"/>
<path d="M65.8442 60.6377L88.4452 61.3341" stroke="#20AEE5" stroke-width="1.5" stroke-linecap="round" stroke-linejoin="round"/>
<path d="M87.7144 44.2683L94.155 49.9186" stroke="#20AEE5" stroke-width="1.5" stroke-linecap="round" stroke-linejoin="round"/>
<path d="M215.225 15.5864C204.397 11.8842 192.63 17.6578 188.939 28.4823C185.249 39.3098 191.034 51.0863 201.862 54.7885C203.833 55.4643 205.837 55.8198 207.815 55.8932C207.832 55.9285 207.85 55.9667 207.876 55.999L210.785 59.7071C211.053 60.0479 211.59 59.9715 211.749 59.569L213.441 55.3173C220.079 53.7013 225.773 48.8385 228.141 41.8925C231.832 31.0651 226.046 19.2886 215.219 15.5864H215.225Z" stroke="#20AAE1" stroke-width="1.5" stroke-linecap="round" stroke-linejoin="round"/>
<path d="M193.711 13.1112C193.928 22.9132 197.149 41.7562 197.542 44.0245C197.566 44.1538 197.681 44.242 197.81 44.2302L217.972 42.4849C218.122 42.4731 218.225 42.3321 218.195 42.1852C216.074 32.2275 214.905 22.0641 214.711 11.883C214.711 11.7391 214.587 11.6304 214.446 11.6392C208.211 12.0887 200.175 12.4031 193.946 12.8556C193.814 12.8644 193.711 12.9761 193.714 13.1083L193.711 13.1112Z" fill="white" stroke="#20AEE5" stroke-width="1.5" stroke-linecap="round" stroke-linejoin="round"/>
<path d="M216.518 14.0183C210.462 14.4267 203.002 14.7323 197.14 15.1554C197.008 15.1642 196.905 15.2759 196.908 15.4081C197.125 25.2101 200.346 44.0531 200.739 46.3214C200.763 46.4507 200.877 46.5388 201.007 46.5271L221.169 44.7818C221.319 44.77 221.422 44.629 221.392 44.482C219.344 34.8681 218.184 25.0632 217.931 15.2347" fill="white"/>
<path d="M216.518 14.0183C210.462 14.4267 203.002 14.7323 197.14 15.1554C197.008 15.1642 196.905 15.2759 196.908 15.4081C197.125 25.2101 200.346 44.0531 200.739 46.3214C200.763 46.4507 200.877 46.5388 201.007 46.5271L221.169 44.7818C221.319 44.77 221.422 44.629 221.392 44.4821C219.344 34.8681 218.184 25.0632 217.931 15.2347" stroke="#20AEE5" stroke-width="1.5" stroke-linecap="round" stroke-linejoin="round"/>
<path d="M199.658 20.7696L215.04 19.8381" stroke="#20AEE5" stroke-width="1.5" stroke-linecap="round" stroke-linejoin="round"/>
<path d="M199.617 18.5202L203.099 18.3762" stroke="#20AEE5" stroke-width="1.5" stroke-linecap="round" stroke-linejoin="round"/>
<path d="M200.188 26.3123L215.57 25.3809" stroke="#20AEE5" stroke-width="1.5" stroke-linecap="round" stroke-linejoin="round"/>
<path d="M200.144 24.0629L203.625 23.9189" stroke="#20AEE5" stroke-width="1.5" stroke-linecap="round" stroke-linejoin="round"/>
<path d="M201.088 31.9415L216.437 30.584" stroke="#20AEE5" stroke-width="1.5" stroke-linecap="round" stroke-linejoin="round"/>
<path d="M200.985 29.6933L204.461 29.4524" stroke="#20AEE5" stroke-width="1.5" stroke-linecap="round" stroke-linejoin="round"/>
<path d="M270.766 33.7137C265.099 23.8177 252.435 20.3799 242.48 26.0331C232.525 31.6863 229.052 44.2914 234.72 54.1845C235.754 55.9885 237.021 57.5752 238.46 58.9327C238.46 58.9385 238.457 58.9474 238.454 58.9532L238.093 63.6485C238.061 64.0805 238.507 64.386 238.898 64.198L243.047 62.1971C249.106 65.3704 256.613 65.4938 263.006 61.865C272.961 56.2118 276.434 43.6068 270.766 33.7137Z" stroke="#20AAE1" stroke-width="1.5" stroke-linecap="round" stroke-linejoin="round"/>
<path d="M260.87 35.1016H244.695C242.578 35.1016 240.861 36.8183 240.861 38.936V49.1552C240.861 51.2729 242.578 52.9896 244.695 52.9896H260.87C262.988 52.9896 264.705 51.2729 264.705 49.1552V38.936C264.705 36.8183 262.988 35.1016 260.87 35.1016Z" stroke="#20AEE5" stroke-width="1.5" stroke-linecap="round" stroke-linejoin="round"/>
<path d="M242.039 35.957L251.85 45.2066C252.373 45.7003 253.19 45.7003 253.713 45.2066L263.524 35.957" stroke="#20AEE5" stroke-width="1.5" stroke-linecap="round" stroke-linejoin="round"/>
<path d="M250.478 44.8079L241.719 51.8597" stroke="#20AEE5" stroke-width="1.5" stroke-linecap="round" stroke-linejoin="round"/>
<path d="M254.768 44.8079L263.524 51.8567" stroke="#20AEE5" stroke-width="1.5" stroke-linecap="round" stroke-linejoin="round"/>
<path d="M289.739 81.6247C285.84 70.8677 273.961 65.2939 263.201 69.1812C256.299 71.6728 251.542 77.4582 250.043 84.1222L245.824 85.8939C245.424 86.0614 245.357 86.5991 245.704 86.8606L249.464 89.7019C249.5 89.7283 249.535 89.746 249.573 89.7636C249.682 91.741 250.073 93.7391 250.784 95.6959C254.683 106.453 266.562 112.027 277.322 108.139C288.079 104.255 293.641 92.3845 289.742 81.6247H289.739Z" stroke="#20AAE1" stroke-width="1.5" stroke-linecap="round" stroke-linejoin="round"/>
<path d="M280.521 66.9709H261.167C259.178 66.9709 257.565 68.5838 257.565 70.5732V97.0057C257.565 98.9952 259.178 100.608 261.167 100.608H280.521C282.511 100.608 284.124 98.9952 284.124 97.0057V70.5732C284.124 68.5838 282.511 66.9709 280.521 66.9709Z" fill="white" stroke="#20AEE5" stroke-width="1.5" stroke-linecap="round" stroke-linejoin="round"/>
<path d="M277.885 82.5583H255.088C253.856 82.5583 252.857 83.5574 252.857 84.7885V96.089L257 97.9224V96.089H277.885C279.117 96.089 280.116 95.09 280.116 93.8588V84.7885C280.116 83.5574 279.117 82.5583 277.885 82.5583Z" fill="white"/>
<path d="M277.885 82.5583H255.088C253.856 82.5583 252.857 83.5574 252.857 84.7885V96.089L257 97.9224V96.089H277.885C279.117 96.089 280.116 95.09 280.116 93.8588V84.7885C280.116 83.5574 279.117 82.5583 277.885 82.5583Z" stroke="#20AAE1" stroke-width="1.5" stroke-linecap="round" stroke-linejoin="round"/>
<path d="M262.533 87.9915C262.533 88.3941 262.459 88.7349 262.309 89.0111C262.16 89.2873 261.96 89.5106 261.707 89.6781C261.454 89.8485 261.164 89.9719 260.834 90.0483C260.505 90.1247 260.162 90.1658 259.806 90.1658H258.98V92.7691H257.32V85.8643H259.844C260.22 85.8643 260.57 85.9024 260.896 85.9759C261.222 86.0494 261.507 86.1698 261.751 86.3373C261.995 86.5019 262.186 86.7222 262.324 86.9896C262.462 87.2599 262.533 87.5919 262.533 87.9886V87.9915ZM260.873 88.0004C260.873 87.8388 260.84 87.7036 260.776 87.6008C260.711 87.4979 260.623 87.4156 260.514 87.3569C260.403 87.2981 260.279 87.2599 260.141 87.2394C260.003 87.2188 259.859 87.21 259.709 87.21H258.98V88.8378H259.68C259.835 88.8378 259.982 88.826 260.126 88.7996C260.267 88.7731 260.397 88.729 260.508 88.6644C260.62 88.5998 260.711 88.5146 260.776 88.4058C260.84 88.2971 260.873 88.1649 260.873 88.0004Z" fill="#20A6DD"/>
<path d="M270.148 89.2961C270.148 89.9014 270.036 90.4215 269.813 90.8622C269.59 91.3 269.296 91.6614 268.929 91.9464C268.564 92.2285 268.15 92.4371 267.692 92.5693C267.233 92.7016 266.766 92.7691 266.293 92.7691H263.731V85.8643H266.217C266.702 85.8643 267.18 85.9201 267.654 86.0347C268.127 86.1493 268.547 86.3373 268.914 86.6018C269.281 86.8662 269.581 87.2188 269.807 87.6595C270.033 88.1032 270.148 88.6468 270.148 89.2991V89.2961ZM268.42 89.2961C268.42 88.9053 268.359 88.5821 268.232 88.3265C268.106 88.0709 267.939 87.8652 267.727 87.7124C267.515 87.5596 267.277 87.4509 267.01 87.3863C266.743 87.3216 266.464 87.2893 266.181 87.2893H265.356V91.3265H266.143C266.44 91.3265 266.728 91.2912 267.001 91.2236C267.277 91.156 267.518 91.0444 267.73 90.8857C267.941 90.7271 268.109 90.5214 268.235 90.2628C268.362 90.0042 268.423 89.681 268.423 89.2961H268.42Z" fill="#20A6DD"/>
<path d="M273.089 87.2891V88.7141H275.748V90.0892H273.089V92.7718H271.45V85.8669H275.972V87.292H273.089V87.2891Z" fill="#20A6DD"/>
<path d="M208.582 97.2405L208.559 97.3404L208.582 97.2405Z" fill="#20A6DD"/>
<path d="M215.261 67.6321V67.3031C215.261 66.592 214.685 66.0161 213.974 66.0161H205.682C204.419 66.0161 203.396 67.0386 203.396 68.3021V92.6102C203.396 93.8736 204.419 94.8961 205.682 94.8961H235.679C236.558 94.8961 237.272 94.1821 237.272 93.3036V71.2785C237.272 70.0151 236.249 68.9926 234.986 68.9926H216.622C215.869 68.9926 215.261 68.3843 215.261 67.6321Z" stroke="#20A6DD" stroke-width="1.5" stroke-linecap="round" stroke-linejoin="round"/>
<path d="M242.216 76.5318C242.216 76.6757 242.196 76.8226 242.161 76.9725L239.839 90.9439C239.481 93.0946 237.404 94.8576 235.223 94.8576H210.762C208.579 94.8576 207.104 93.1005 207.48 90.9497L209.69 78.3388C210.066 76.1909 212.161 74.4309 214.341 74.4309H240.121C240.171 74.4309 240.218 74.4309 240.268 74.4368" fill="white"/>
<path d="M242.216 76.5318C242.216 76.6757 242.196 76.8226 242.161 76.9725L239.839 90.9439C239.481 93.0946 237.404 94.8576 235.223 94.8576H210.762C208.579 94.8576 207.104 93.1005 207.48 90.9497L209.69 78.3388C210.066 76.1909 212.161 74.4309 214.341 74.4309H240.121C240.171 74.4309 240.218 74.4309 240.268 74.4368" stroke="#20A6DD" stroke-width="1.5" stroke-linecap="round" stroke-linejoin="round"/>
<path d="M265.108 112.453C257.022 117.266 247.576 120.031 237.486 120.031C207.621 120.031 183.41 95.8195 183.41 65.9552C183.41 59.3441 184.597 53.0093 186.769 47.1504" stroke="#20AEE5" stroke-width="1.5" stroke-linecap="round" stroke-linejoin="round"/>
<path d="M222.888 13.8681C227.531 12.5694 232.426 11.876 237.482 11.876C267.347 11.876 291.558 36.0871 291.558 65.9515C291.558 68.5254 291.379 71.0552 291.032 73.5321" stroke="#20AEE5" stroke-width="1.5" stroke-linecap="round" stroke-linejoin="round"/>
<path d="M165.796 98.8612C166.312 98.4265 166.848 98.0238 167.426 97.678C168.721 96.8258 170.057 96.3441 171.262 95.5438C172.772 94.5409 173.441 94.1506 172.997 92.8834C171.297 89.0151 166.384 92.9674 164.805 94.862C164.166 95.6772 163.635 96.5788 163.234 97.5347" stroke="#20AAE1" stroke-width="1.5" stroke-linecap="round" stroke-linejoin="round"/>
<path d="M169.049 104.955C169.689 104.787 170.336 104.656 170.996 104.597C172.505 104.394 173.901 104.55 175.311 104.355C177.075 104.108 177.836 104.048 177.949 102.675C177.989 98.3226 171.969 99.7627 169.781 100.803C168.874 101.269 168.032 101.865 167.283 102.569" stroke="#20AAE1" stroke-width="1.5" stroke-linecap="round" stroke-linejoin="round"/>
</svg>
