<svg width="232" height="312" viewBox="0 0 232 312" fill="none" xmlns="http://www.w3.org/2000/svg">
<g clip-path="url(#clip0_1092_29061)">
<g clip-path="url(#clip1_1092_29061)">
<path d="M113.875 123.415C113.495 124.104 112.505 124.104 112.125 123.415L104.293 109.233C103.925 108.567 104.407 107.75 105.168 107.75L120.832 107.75C121.593 107.75 122.075 108.567 121.707 109.233L113.875 123.415Z" fill="#20AEE5"/>
<path d="M172.717 15.461C226.13 34.9146 219.5 82.979 186.5 101.24C153.5 119.501 91.9611 117.974 51.3545 107.785C8.70891 97.0841 0.500044 43.4992 33.3549 22.0498C66.2098 0.600302 125.934 -1.57802 172.717 15.461Z" fill="#20AEE5"/>
</g>
<path d="M96.3702 22.256C96.3342 22.472 96.2862 22.988 96.2622 23.3C96.2502 23.564 96.2382 23.852 96.2262 24.152C97.0182 24.056 97.8102 23.9 98.4342 23.72L98.4702 25.208C97.7862 25.364 96.9582 25.484 96.1782 25.58C96.1662 25.94 96.1662 26.312 96.1662 26.66C96.1662 26.804 96.1662 26.948 96.1662 27.104C96.9822 26.9 97.8102 26.792 98.4702 26.792C100.318 26.792 101.77 27.752 101.77 29.408C101.77 30.824 101.026 31.892 99.1182 32.372C98.5662 32.492 98.0382 32.528 97.5462 32.564L96.9942 31.016C97.5342 31.016 98.0502 31.004 98.4702 30.932C99.4422 30.752 100.21 30.272 100.21 29.396C100.21 28.58 99.4902 28.1 98.4462 28.1C97.7022 28.1 96.9222 28.22 96.1902 28.436C96.2142 29.384 96.2382 30.32 96.2382 30.728C96.2382 32.216 95.7102 32.612 94.9182 32.612C93.7542 32.612 92.1102 31.604 92.1102 30.332C92.1102 29.288 93.3102 28.196 94.7862 27.56C94.7742 27.272 94.7742 26.984 94.7742 26.708C94.7742 26.372 94.7742 26.036 94.7742 25.7C94.5462 25.712 94.3302 25.724 94.1382 25.724C93.3342 25.724 92.8662 25.712 92.4582 25.664L92.4342 24.212C93.1422 24.296 93.6582 24.308 94.0902 24.308C94.3062 24.308 94.5462 24.296 94.7862 24.284C94.7982 23.864 94.7982 23.516 94.7982 23.312C94.7982 23.06 94.7502 22.472 94.7142 22.256H96.3702ZM99.7902 23.552C100.714 23.996 102.106 24.788 102.742 25.244L102.022 26.468C101.446 25.976 99.8742 25.076 99.1302 24.716L99.7902 23.552ZM93.5862 30.272C93.5862 30.644 94.1502 30.968 94.4622 30.968C94.6782 30.968 94.8462 30.872 94.8462 30.464C94.8462 30.164 94.8342 29.612 94.8102 28.964C94.0782 29.36 93.5862 29.852 93.5862 30.272ZM113.146 22.16L114.61 22.484C114.226 23.876 113.59 25.328 112.99 26.252C112.666 26.036 111.982 25.748 111.598 25.604C112.234 24.764 112.81 23.408 113.146 22.16ZM111.862 24.872L110.542 25.292C110.458 24.536 110.134 23.288 109.786 22.34L111.034 21.992C111.406 22.928 111.766 24.128 111.862 24.872ZM109.75 25.22L108.454 25.724C108.322 24.98 107.878 23.768 107.422 22.856L108.634 22.412C109.114 23.288 109.606 24.452 109.75 25.22ZM103.954 24.2L104.914 24.32C104.926 25.46 104.746 26.852 104.326 27.752L103.39 27.332C103.774 26.588 103.942 25.28 103.954 24.2ZM107.986 26.012L107.05 26.468C106.966 26 106.738 25.316 106.462 24.704V33.032H105.082V21.836H106.462V24.128L107.122 23.84C107.494 24.536 107.878 25.424 107.986 26.012ZM113.002 29.372L112.222 30.476C111.994 30.176 111.658 29.816 111.274 29.456C110.914 30.044 110.518 30.56 110.11 30.98C109.882 30.764 109.366 30.356 109.066 30.176C109.522 29.756 109.942 29.216 110.314 28.604C109.906 28.28 109.498 27.968 109.126 27.692L109.834 26.732C110.158 26.96 110.518 27.224 110.878 27.488C111.07 27.044 111.226 26.576 111.358 26.096L112.618 26.372C112.426 27.032 112.174 27.692 111.886 28.304C112.342 28.676 112.738 29.048 113.002 29.372ZM113.014 30.98V26.36H114.418V32.9H113.014V32.276H109.054V32.924H107.686V26.384H109.054V30.98H113.014ZM117.706 22.916C118.03 22.952 118.438 22.976 118.702 22.976C119.386 22.976 120.658 22.916 121.222 22.868C121.522 22.856 121.834 22.784 122.038 22.7L122.998 23.444C122.83 23.624 122.686 23.78 122.59 23.948C122.278 24.464 121.822 25.508 121.39 26.528C122.326 26.672 123.214 26.96 123.994 27.296C124.006 27.152 124.018 27.02 124.03 26.888C124.066 26.42 124.066 25.94 124.03 25.58L125.602 25.76C125.554 26.564 125.494 27.308 125.374 27.98C125.878 28.268 126.31 28.544 126.658 28.784L125.962 30.452C125.65 30.164 125.302 29.888 124.93 29.612C124.402 30.968 123.49 32.024 121.882 32.864L120.61 31.82C122.422 31.04 123.262 29.9 123.658 28.808C122.806 28.34 121.846 27.98 120.814 27.836C120.382 28.856 119.878 30.056 119.458 30.716C118.978 31.436 118.402 31.772 117.586 31.772C116.53 31.772 115.738 31.04 115.738 29.828C115.738 27.968 117.43 26.552 119.842 26.444C120.178 25.652 120.526 24.836 120.802 24.272C120.322 24.296 119.29 24.332 118.738 24.368C118.498 24.38 118.078 24.416 117.766 24.464L117.706 22.916ZM117.142 29.6C117.142 29.996 117.37 30.2 117.646 30.2C117.886 30.2 118.054 30.08 118.27 29.78C118.582 29.336 118.906 28.58 119.242 27.824C117.898 28.028 117.142 28.844 117.142 29.6ZM127.994 32V30.8105L130.718 28.1211C131.908 26.9668 132.23 26.5391 132.23 25.9473V25.9297C132.23 25.209 131.738 24.7051 130.929 24.7051C130.103 24.7051 129.535 25.2559 129.535 26.0586V26.0879H127.9L127.894 26.0645C127.894 24.4414 129.16 23.3281 131.011 23.3281C132.751 23.3281 133.97 24.3242 133.97 25.7832V25.8008C133.97 26.7617 133.472 27.5586 131.931 28.9824L130.367 30.4414V30.5762H134.093V32H127.994Z" fill="white"/>
<path d="M62.996 56.842H55.184C55.022 57.76 54.878 58.354 54.662 58.984C54.176 60.352 53.564 61.396 52.538 62.548C52.016 61.846 51.566 61.396 50.864 60.892C51.872 59.884 52.376 59.074 52.79 57.724C53.33 56.05 53.51 53.944 53.51 49.264C53.51 47.968 53.492 47.176 53.42 46.546C54.122 46.618 54.608 46.636 55.526 46.636H63.032C64.022 46.636 64.508 46.618 65.12 46.546C65.048 47.032 65.03 47.518 65.03 48.58V60.244C65.03 61.144 64.832 61.666 64.382 61.954C63.986 62.224 63.482 62.314 62.294 62.314C61.718 62.314 61.124 62.296 60.206 62.242C60.098 61.378 59.99 60.964 59.684 60.226C60.602 60.37 61.592 60.442 62.33 60.442C62.87 60.442 62.996 60.352 62.996 59.956V56.842ZM55.4 55.006H62.996V52.594H55.544C55.544 53.152 55.508 53.548 55.4 55.006ZM55.562 50.758H62.996V48.508H55.562V50.758ZM77.846 48.292H82.76C83.93 48.292 84.47 48.256 84.938 48.166V50.236C84.38 50.146 83.804 50.128 82.778 50.128H77.846V52.558H81.842C82.994 52.558 83.57 52.522 84.02 52.45V54.466C83.426 54.394 82.742 54.358 81.842 54.358H78.692C79.574 55.618 80.114 56.212 81.248 57.166C82.58 58.264 83.966 59.146 85.46 59.794C84.956 60.424 84.614 60.964 84.236 61.738C82.778 60.982 81.698 60.226 80.492 59.128C79.304 58.03 78.656 57.256 77.792 55.924C77.828 56.95 77.846 57.238 77.846 57.598V60.604C77.846 61.306 77.882 61.954 77.972 62.53H75.704C75.794 61.936 75.83 61.414 75.83 60.604V57.616C75.83 57.04 75.83 56.788 75.884 55.942C74.408 58.3 72.554 60.028 69.71 61.666C69.296 60.874 69.044 60.478 68.504 59.83C71.384 58.39 73.382 56.698 74.948 54.358H72.122C71.276 54.358 70.646 54.394 69.98 54.466V52.45C70.61 52.54 71.096 52.558 72.122 52.558H75.83V50.128H71.276C70.304 50.128 69.728 50.146 69.116 50.236V48.166C69.71 48.256 70.232 48.292 71.258 48.292H75.83V47.122C75.83 46.582 75.812 46.24 75.74 45.844H77.936C77.864 46.24 77.846 46.492 77.846 47.14V48.292ZM90.752 61.432L88.574 61.558C88.556 61.234 88.538 61.126 88.484 60.712C88.142 58.534 88.016 57.148 88.016 55.33C88.016 53.008 88.232 50.956 88.754 48.292C88.952 47.284 88.988 47.104 89.024 46.618L91.4 46.87C90.968 47.932 90.554 49.948 90.266 52.252C90.086 53.602 90.014 54.664 89.996 56.23C89.996 56.626 89.978 56.77 89.96 57.22C90.158 56.59 90.194 56.464 90.896 54.844L92.336 55.492C91.346 57.58 90.734 59.668 90.734 60.946C90.734 61.054 90.734 61.198 90.752 61.432ZM93.236 50.65L93.272 48.49C94.082 48.706 95.036 48.778 96.602 48.778C98.6 48.778 100.31 48.616 101.498 48.292L101.606 50.47C101.462 50.488 101.192 50.524 100.328 50.632C99.176 50.776 97.808 50.848 96.476 50.848C95.162 50.848 95.144 50.848 93.236 50.65ZM94.478 53.62L96.242 54.448C95.342 55.492 94.964 56.266 94.964 57.04C94.964 58.066 95.954 58.606 97.826 58.606C99.41 58.606 100.976 58.354 102.11 57.922L102.29 60.208C102.038 60.226 101.966 60.244 101.552 60.316C100.112 60.55 99.014 60.658 97.826 60.658C95.594 60.658 94.154 60.154 93.362 59.092C93.02 58.642 92.822 57.976 92.822 57.328C92.822 56.158 93.362 54.952 94.478 53.62ZM114.422 53.296V54.196H118.652C119.48 54.196 119.93 54.178 120.398 54.124V55.69C119.912 55.618 119.498 55.6 118.67 55.6H113.918V56.554H119.03C120.128 56.554 120.596 56.536 121.082 56.464V58.282C120.488 58.192 119.948 58.174 119.03 58.174H115.448C116.834 59.182 119.12 60.046 121.406 60.442C121.046 60.928 120.902 61.162 120.74 61.504C120.722 61.54 120.65 61.702 120.542 61.954C120.506 62.026 120.452 62.152 120.38 62.296C118.958 61.918 117.896 61.54 116.78 60.982C115.52 60.352 114.746 59.812 113.864 58.966C113.9 59.488 113.918 59.956 113.918 60.154V61.198C113.918 61.864 113.936 62.134 114.026 62.494H111.884C111.974 62.098 111.992 61.81 111.992 61.216V60.154C111.992 59.74 112.01 59.398 112.046 58.966C111.128 59.884 110.228 60.496 108.788 61.162C107.798 61.63 106.862 61.954 105.584 62.278C105.296 61.594 104.99 61.036 104.576 60.478C106.106 60.226 107.204 59.902 108.464 59.326C109.328 58.93 109.868 58.624 110.408 58.174H106.934C106.016 58.174 105.494 58.192 104.9 58.282V56.464C105.386 56.536 105.836 56.554 106.934 56.554H111.992V55.6H108.428C107.726 55.6 107.33 55.618 106.898 55.654C106.952 55.258 106.97 54.79 106.97 54.214V51.982C106.97 51.406 106.988 50.92 107.024 50.416C106.502 51.028 106.106 51.406 105.368 51.982C105.062 51.208 104.846 50.794 104.432 50.218C105.836 49.228 106.808 48.202 107.726 46.744C107.978 46.348 108.176 45.934 108.302 45.574L110.39 45.916C109.706 47.014 109.706 47.014 109.4 47.428H112.622C113.072 46.762 113.324 46.276 113.558 45.61L115.592 45.862C115.142 46.672 114.962 46.978 114.656 47.428H118.526C119.336 47.428 119.804 47.41 120.29 47.338V49.012C119.84 48.958 119.48 48.94 118.796 48.94H114.422V49.804H117.878C118.76 49.804 119.048 49.786 119.588 49.714V51.19C119.048 51.118 118.85 51.118 117.878 51.118H114.422V51.982H117.878C118.778 51.982 119.03 51.964 119.588 51.892V53.368C119.102 53.314 118.832 53.296 117.878 53.296H114.422ZM112.55 53.296H108.842V54.196H112.55V53.296ZM112.55 51.982V51.118H108.842V51.982H112.55ZM112.55 49.804V48.94H108.842V49.804H112.55ZM129.866 48.904V47.806C129.866 46.87 129.848 46.438 129.758 45.844H132.026C131.954 46.402 131.918 46.87 131.918 47.734V48.904H136.85C137.642 48.904 138.02 48.886 138.488 48.832C138.434 49.336 138.416 49.714 138.416 50.416V55.906C138.416 56.716 138.434 57.184 138.506 57.706H136.382V56.626H131.918V60.28C131.918 61.36 131.954 61.882 132.044 62.512H129.74C129.83 61.846 129.866 61.288 129.866 60.28V56.626H125.618V57.706H123.494C123.566 57.112 123.584 56.662 123.584 55.906V50.398C123.584 49.732 123.566 49.408 123.512 48.832C124.034 48.886 124.412 48.904 125.132 48.904H129.866ZM129.866 50.812H125.618V54.718H129.866V50.812ZM131.918 54.718H136.382V50.812H131.918V54.718ZM151.61 51.424L151.592 52.972C151.592 53.044 151.61 53.188 151.61 53.404C152.006 54.232 152.186 54.97 152.186 55.942C152.186 57.904 151.25 59.596 149.504 60.802C148.748 61.324 147.92 61.702 146.246 62.278C145.742 61.162 145.562 60.892 144.968 60.244C146.444 59.956 147.182 59.704 148.028 59.2C149.252 58.498 149.972 57.58 150.116 56.572C149.594 57.4 148.658 57.85 147.47 57.85C146.642 57.85 145.994 57.652 145.382 57.202C144.536 56.59 144.14 55.798 144.14 54.772C144.14 52.864 145.634 51.496 147.722 51.496C148.496 51.496 149.18 51.694 149.594 52.036C149.576 51.946 149.576 51.946 149.576 51.82C149.558 51.784 149.558 50.776 149.558 50.29C146.984 50.362 145.292 50.416 144.5 50.47C141.782 50.668 141.782 50.668 141.296 50.74L141.224 48.598C141.62 48.634 141.782 48.634 142.106 48.634C142.556 48.634 142.844 48.634 145.166 48.544C146.336 48.508 146.516 48.508 147.992 48.472C148.586 48.454 148.586 48.454 149.522 48.418C149.504 46.708 149.504 46.708 149.414 46.24L151.682 46.222C151.61 46.78 151.61 46.816 151.592 48.364C154.724 48.346 156.128 48.31 156.794 48.238L156.812 50.308C156.146 50.254 155.282 50.218 153.788 50.218C153.356 50.218 153.032 50.218 151.61 50.254V51.424ZM149.54 54.394C149.54 53.638 148.91 53.152 147.92 53.152C147.002 53.152 146.246 53.8 146.246 54.592C146.246 55.42 146.876 56.014 147.776 56.014C148.802 56.014 149.54 55.33 149.54 54.394ZM165.092 53.53L165.128 53.566C166.766 52.918 167.558 52.738 168.908 52.738C171.986 52.738 173.966 54.322 173.966 56.788C173.966 58.498 173.12 59.866 171.518 60.766C170.348 61.432 168.818 61.792 167.162 61.792C165.65 61.792 164.39 61.504 163.67 60.964C162.986 60.46 162.59 59.704 162.59 58.894C162.59 57.4 163.886 56.32 165.686 56.32C166.946 56.32 168.044 56.842 168.8 57.796C169.16 58.246 169.358 58.642 169.628 59.416C171.122 58.858 171.77 58.084 171.77 56.806C171.77 55.402 170.384 54.484 168.206 54.484C165.578 54.484 162.95 55.546 160.79 57.508L159.566 55.564C160.196 55.258 160.916 54.772 162.104 53.872C163.778 52.594 166.118 50.578 167.486 49.192C167.522 49.156 167.702 48.976 167.81 48.868L167.792 48.85C167.108 48.94 165.956 49.012 162.698 49.156C162.302 49.174 162.176 49.192 161.834 49.246L161.744 47.086C162.356 47.158 162.878 47.194 163.868 47.194C165.398 47.194 167.594 47.104 169.34 46.978C169.97 46.924 170.168 46.888 170.456 46.744L171.572 48.328C171.266 48.49 171.14 48.598 170.636 49.066C169.736 49.894 168.422 51.064 167.81 51.586C167.486 51.856 166.19 52.828 165.83 53.062C165.38 53.368 165.38 53.368 165.092 53.53ZM167.684 59.938C167.36 58.696 166.676 58.048 165.668 58.048C165.02 58.048 164.606 58.372 164.606 58.876C164.606 59.596 165.416 60.01 166.748 60.01C167.09 60.01 167.18 60.01 167.684 59.938ZM57.884 81.708V80.916H53.618C52.97 80.916 52.448 80.934 51.962 80.988V79.422C52.394 79.476 52.862 79.494 53.654 79.494H57.884V78.81H54.068C53.42 78.81 52.97 78.828 52.556 78.864C52.592 78.486 52.61 78.108 52.61 77.658V76.47C52.61 75.966 52.592 75.642 52.556 75.21C53.024 75.246 53.402 75.264 54.086 75.264H57.884V74.58H52.952C52.07 74.58 51.476 74.616 50.846 74.688V72.906C51.404 72.978 52.016 73.014 53.06 73.014H57.884C57.866 72.384 57.848 72.186 57.776 71.79H59.954C59.864 72.186 59.846 72.366 59.828 73.014H64.886C65.93 73.014 66.524 72.978 67.1 72.906V74.688C66.488 74.616 65.858 74.58 64.994 74.58H59.828V75.264H63.896C64.58 75.264 64.976 75.246 65.408 75.21C65.372 75.606 65.354 75.912 65.354 76.47V77.658C65.354 78.198 65.372 78.468 65.408 78.864C65.012 78.828 64.544 78.81 63.968 78.81H59.828V79.494H63.86C64.922 79.494 65.282 79.476 65.786 79.44C65.732 79.89 65.732 80.142 65.732 81.078V81.708C66.506 81.708 66.938 81.672 67.298 81.618V83.328C66.866 83.274 66.524 83.238 65.732 83.238V84.282C65.732 85.218 65.75 85.704 65.822 86.226H63.806V85.524H59.828V86.532C59.828 88.152 59.378 88.494 57.182 88.494C56.75 88.494 56.03 88.458 55.454 88.422C55.346 87.702 55.238 87.342 54.896 86.64C55.868 86.748 56.534 86.802 57.182 86.802C57.74 86.802 57.884 86.712 57.884 86.388V85.524H53.654C52.844 85.524 52.412 85.542 51.872 85.614V83.94C52.358 83.994 52.664 84.012 53.582 84.012H57.884V83.238H52.718C51.692 83.238 51.206 83.256 50.738 83.328V81.618C51.206 81.69 51.656 81.708 52.682 81.708H57.884ZM59.828 81.708H63.806V80.916H59.828V81.708ZM59.828 83.238V84.012H63.806V83.238H59.828ZM57.884 76.668H54.518V77.406H57.884V76.668ZM59.828 76.668V77.406H63.446V76.668H59.828ZM78.44 83.328H77.054C76.352 83.328 76.028 83.346 75.632 83.4V81.672C75.452 82.122 75.38 82.248 75.146 82.734C74.642 82.23 74.426 82.068 73.832 81.744C74.282 81.006 74.624 80.25 74.858 79.458H73.724L73.76 86.748C73.76 87.306 73.652 87.684 73.382 87.954C73.13 88.188 72.572 88.314 71.708 88.314C71.312 88.314 70.754 88.296 70.214 88.26C70.178 87.576 70.088 87.162 69.836 86.496C70.574 86.622 71.096 86.676 71.438 86.676C71.924 86.676 72.032 86.604 72.014 86.244L71.996 81.942C71.312 83.526 70.484 84.714 69.35 85.758C69.08 84.912 68.864 84.462 68.45 83.796C69.908 82.554 70.718 81.402 71.492 79.458H70.25C69.566 79.458 69.152 79.476 68.738 79.548V77.64C69.188 77.712 69.62 77.73 70.358 77.73H72.158C71.294 76.884 70.592 76.29 69.764 75.696L70.88 74.616C71.888 75.372 71.978 75.426 72.428 75.822C73.022 75.354 73.418 74.904 73.886 74.238H70.754C70.124 74.238 69.674 74.256 69.206 74.31V72.456C69.692 72.51 70.106 72.528 70.898 72.528H73.976C74.894 72.528 75.128 72.51 75.506 72.474L76.478 73.518C76.406 73.608 76.262 73.788 76.082 74.04C75.308 75.102 74.264 76.29 73.562 76.866C73.724 77.046 73.796 77.1 73.958 77.298L73.562 77.73H74.642C75.272 77.73 75.614 77.712 75.956 77.676L76.73 78.63C76.658 78.774 76.604 78.9 76.514 79.188C77.648 78.918 78.584 78.558 79.466 78.072C78.836 77.46 78.368 76.884 77.99 76.218C77.558 76.794 77.306 77.064 76.604 77.802C76.19 77.298 75.794 76.956 75.236 76.578C76.586 75.408 77.306 74.472 77.918 73.104C78.17 72.546 78.26 72.294 78.368 71.736L80.24 72.096C80.186 72.186 80.078 72.438 79.97 72.726C79.88 72.96 79.808 73.122 79.664 73.428H83.39C84.236 73.428 84.83 73.392 85.298 73.338V75.174C84.884 75.12 84.56 75.102 84.002 75.102C83.444 76.434 83.066 77.028 82.22 77.928C83.282 78.432 84.128 78.666 85.676 78.936C85.244 79.638 85.118 79.944 84.848 80.808C82.886 80.25 81.842 79.818 80.798 79.134C80.312 79.476 79.898 79.692 79.124 80.052L80.96 80.07C80.942 80.196 80.942 80.196 80.942 80.304C80.924 80.394 80.906 80.502 80.888 80.628C80.888 80.718 80.87 80.754 80.852 80.916C80.834 81.168 80.798 81.294 80.762 81.618H83.318C84.11 81.618 84.416 81.6 84.74 81.546C84.686 81.96 84.686 81.96 84.668 82.338C84.524 84.48 84.29 86.118 84.038 86.856C83.678 87.954 83.21 88.242 81.806 88.242C81.302 88.242 80.726 88.206 79.898 88.116C79.844 87.396 79.754 87 79.484 86.244C80.312 86.406 81.014 86.496 81.554 86.496C82.13 86.496 82.31 86.28 82.508 85.362C82.634 84.768 82.688 84.228 82.742 83.328H80.384C79.61 85.794 78.188 87.27 75.344 88.512C75.02 87.9 74.714 87.45 74.228 86.91C76.532 86.046 77.72 85.038 78.44 83.328ZM77.162 81.618H78.89C78.944 81.114 78.98 80.7 78.98 80.268C78.98 80.196 78.98 80.178 78.962 80.124C78.278 80.412 77.9 80.538 76.91 80.862C76.694 80.376 76.604 80.232 76.316 79.782C76.082 80.538 75.938 80.916 75.686 81.564C76.01 81.6 76.352 81.618 77.162 81.618ZM82.076 75.102H79.25C79.592 75.804 80.096 76.416 80.798 77.046C81.446 76.38 81.734 75.966 82.076 75.102ZM95.864 76.2H95.522C94.73 77.802 93.794 79.206 92.57 80.592C92.138 79.854 91.886 79.53 91.274 78.9C92.642 77.496 93.524 76.128 94.298 74.31C94.748 73.23 95.018 72.33 95.108 71.7L97.142 72.294C96.962 72.726 96.908 72.888 96.782 73.248C96.512 74.004 96.494 74.058 96.332 74.454H101.228C102.11 74.454 102.668 74.418 103.172 74.346V76.29C102.65 76.236 102.02 76.2 101.228 76.2H97.808V78.504H100.742C101.498 78.504 101.984 78.468 102.524 78.396V80.34C101.948 80.268 101.408 80.232 100.724 80.232H97.808V82.536H100.76C101.534 82.536 102.02 82.518 102.56 82.428V84.39C101.966 84.318 101.444 84.282 100.76 84.282H97.808V86.352C97.808 87.432 97.844 88.008 97.934 88.512H95.756C95.846 87.99 95.864 87.45 95.864 86.352V76.2ZM90.59 71.646L92.588 72.348C92.39 72.798 92.336 72.924 92.174 73.356C91.886 74.13 91.886 74.13 90.95 76.236V86.208C90.95 87.054 90.986 87.774 91.076 88.44H88.916C89.006 87.756 89.042 87.144 89.042 86.208V81.078C89.042 80.628 89.042 80.538 89.096 79.026C88.466 79.872 88.016 80.43 87.368 81.096C87.116 80.268 86.864 79.746 86.414 78.99C87.746 77.784 88.916 76.092 89.834 74.022C90.23 73.086 90.482 72.348 90.59 71.646ZM111.92 79.08H107.42C106.592 79.08 106.124 79.098 105.566 79.17V77.46C106.07 77.514 106.538 77.532 107.42 77.532H109.598C109.328 76.956 109.13 76.542 108.932 76.2H106.988C106.106 76.2 105.422 76.236 104.846 76.29V74.49C105.404 74.562 105.98 74.598 106.898 74.598H107.474C107.132 73.968 106.916 73.68 106.25 72.924L108.05 72.24C108.662 73.086 108.914 73.518 109.436 74.598H110.462V73.32C110.462 72.78 110.426 72.276 110.372 71.916H112.334C112.298 72.24 112.28 72.636 112.28 73.248V74.598H113.558V73.248C113.558 72.672 113.54 72.258 113.504 71.916H115.466C115.412 72.258 115.376 72.744 115.376 73.32V74.598H116.51C117.14 73.698 117.482 73.068 117.806 72.186L119.66 72.87C119.228 73.59 118.94 74.04 118.544 74.598H119.048C119.984 74.598 120.542 74.562 121.082 74.49V76.29C120.524 76.236 119.822 76.2 118.94 76.2H117.14C116.798 76.92 116.726 77.082 116.474 77.532H118.562C119.444 77.532 119.894 77.514 120.416 77.46V79.17C119.858 79.098 119.408 79.08 118.562 79.08H113.864V79.944H117.626C118.436 79.944 118.976 79.926 119.48 79.854V81.474C118.976 81.402 118.418 81.384 117.626 81.384H113.864V82.284H118.886C119.912 82.284 120.542 82.248 121.064 82.176V83.976C120.398 83.904 119.732 83.868 118.904 83.868H115.286C115.898 84.39 116.708 84.876 117.734 85.308C118.886 85.794 119.822 86.046 121.478 86.334C120.974 87.018 120.758 87.414 120.452 88.17C117.428 87.342 115.394 86.244 113.774 84.606C113.828 85.29 113.828 85.452 113.828 85.884V86.766C113.828 87.522 113.864 88.08 113.954 88.584H111.83C111.902 88.062 111.938 87.468 111.938 86.748V85.884C111.938 85.47 111.938 85.398 111.992 84.66C111.146 85.524 110.48 86.046 109.4 86.64C108.248 87.27 107.15 87.738 105.728 88.152C105.44 87.522 105.098 86.982 104.63 86.424C107.258 85.866 109.076 85.074 110.516 83.868H107.168C106.322 83.868 105.674 83.904 104.99 83.976V82.176C105.566 82.248 106.178 82.284 107.15 82.284H111.92V81.384H108.356C107.564 81.384 107.024 81.402 106.52 81.474V79.854C107.024 79.926 107.546 79.944 108.356 79.944H111.92V79.08ZM111.506 77.532H114.476C114.746 77.01 114.89 76.686 115.07 76.2H110.966C111.218 76.74 111.326 77.01 111.506 77.532ZM134.834 77.1L136.652 76.2C137.894 77.91 138.83 79.854 139.352 81.924L137.3 82.95C136.94 81.06 135.824 78.414 134.834 77.1ZM129.542 73.14L129.506 73.374C129.416 73.896 129.29 74.634 129.11 75.606C129.056 75.912 129.056 75.912 129.002 76.146C129.542 76.128 129.794 76.11 130.118 76.11C131.306 76.11 132.188 76.434 132.782 77.064C133.394 77.748 133.628 78.612 133.628 80.25C133.628 83.346 133.106 85.812 132.242 86.802C131.738 87.396 131.198 87.612 130.244 87.612C129.416 87.612 128.678 87.468 127.472 87.072C127.49 86.73 127.508 86.46 127.508 86.28C127.508 85.812 127.472 85.452 127.328 84.75C128.3 85.182 129.326 85.47 129.956 85.47C130.478 85.47 130.766 85.128 131.036 84.246C131.324 83.31 131.504 81.672 131.504 80.142C131.504 78.486 131.09 78 129.704 78C129.326 78 129.038 78.018 128.624 78.054C127.742 81.744 126.932 83.922 124.952 87.846L122.864 86.694C124.25 84.804 125.636 81.564 126.482 78.216C126.212 78.252 126.212 78.252 125.636 78.36L123.998 78.63C123.71 78.684 123.512 78.738 123.26 78.81L123.044 76.686C123.854 76.668 124.79 76.578 126.878 76.308C127.22 74.31 127.346 73.284 127.346 72.672C127.346 72.6 127.346 72.492 127.346 72.348L129.686 72.582C129.632 72.726 129.578 72.96 129.542 73.14ZM133.718 73.266L134.978 72.636C135.77 73.482 136.256 74.166 136.868 75.282L135.608 75.948C135.014 74.85 134.51 74.13 133.718 73.266ZM139.01 74.112L137.768 74.814C137.228 73.824 136.634 72.978 135.932 72.204L137.138 71.574C137.948 72.402 138.452 73.086 139.01 74.112ZM143.564 76.092H146.876C147.182 75.534 147.452 74.958 147.686 74.256H143.096C142.196 74.256 141.53 74.292 140.882 74.364V72.366C141.53 72.438 142.214 72.474 143.078 72.474H154.94C155.75 72.474 156.488 72.438 157.136 72.366V74.364C156.488 74.292 155.804 74.256 154.94 74.256H149.882C149.702 74.85 149.378 75.57 149.09 76.092H154.472C155.426 76.092 155.984 76.074 156.596 76.002C156.506 76.704 156.488 77.262 156.488 78.324V86.154C156.488 87.144 156.524 87.954 156.596 88.602H154.562V87.72H143.474V88.584H141.44C141.53 87.828 141.548 87.234 141.548 86.136V78.306C141.548 77.424 141.512 76.74 141.44 76.002C141.998 76.074 142.646 76.092 143.564 76.092ZM147.326 85.974H150.584V84.228H147.326V85.974ZM145.544 85.974V77.766H143.474V85.974H145.544ZM147.326 77.766V79.368H150.584V77.766H147.326ZM152.384 77.766V85.974H154.562V77.766H152.384ZM150.584 82.608V80.988H147.326V82.608H150.584ZM166.928 81.204H168.08C168.62 81.204 168.926 81.186 169.286 81.132V82.95C168.944 82.914 168.548 82.896 168.08 82.896H166.928V84.876C168.17 84.66 168.494 84.606 169.718 84.336L169.754 86.028C168.062 86.478 166.028 86.874 163.688 87.234C163.346 87.288 162.95 87.36 162.68 87.432L162.41 85.416C162.482 85.416 162.554 85.416 162.59 85.416C162.986 85.416 163.814 85.326 165.128 85.146V82.896H163.976C163.508 82.896 163.148 82.914 162.824 82.968V81.114C163.166 81.186 163.49 81.204 164.03 81.204H165.128V80.394C165.128 79.98 165.11 79.692 165.056 79.332H167.018C166.946 79.62 166.928 79.89 166.928 80.394V81.204ZM163.13 74.58V72.78C163.076 72.924 163.076 72.96 163.022 73.122C162.734 74.148 162.59 74.544 161.96 76.164V86.316C161.96 87.27 161.978 87.792 162.05 88.476H160.052C160.124 87.774 160.16 87.216 160.16 86.316V81.402C160.16 80.484 160.178 79.998 160.214 79.188C159.764 80.07 159.494 80.52 158.972 81.168C158.666 80.106 158.54 79.8 158.144 79.008C159.71 77.1 160.916 74.346 161.348 71.754L163.256 72.402L163.148 72.69C163.562 72.762 163.976 72.78 164.75 72.78H167.9C168.8 72.78 169.178 72.762 169.682 72.708V74.562C169.25 74.526 168.746 74.508 168.098 74.508H166.604C166.208 75.606 165.866 76.416 165.38 77.352C166.784 77.262 166.982 77.226 167.666 77.154C167.36 76.56 167.252 76.38 166.838 75.678L168.26 75.03C169.142 76.47 169.52 77.172 170.078 78.396V74.742C170.078 74.094 170.06 73.734 170.006 73.212H171.914C171.842 73.626 171.824 74.022 171.824 74.742V82.554C171.824 83.292 171.842 83.688 171.896 84.102H170.006C170.06 83.634 170.078 83.256 170.078 82.572V79.026L168.746 79.782C168.566 79.242 168.494 79.044 168.35 78.666C166.532 78.954 165.992 79.008 163.706 79.224C163.4 79.242 163.148 79.278 162.734 79.35L162.5 77.442C162.734 77.46 162.896 77.46 163.148 77.46C163.202 77.46 163.346 77.46 163.508 77.46C164.048 76.434 164.318 75.732 164.696 74.508H164.138C163.67 74.508 163.4 74.526 163.13 74.58ZM174.83 74.364V86.442C174.83 87.864 174.236 88.296 172.238 88.296C172.04 88.296 172.04 88.296 170.672 88.278C170.6 87.558 170.51 87.162 170.24 86.388C171.05 86.496 171.752 86.55 172.202 86.55C172.886 86.55 173.03 86.46 173.03 86.082V74.256C173.03 73.248 173.012 72.834 172.922 72.186H174.938C174.866 72.78 174.83 73.338 174.83 74.364Z" fill="white"/>
<path d="M129.708 169.047C130.9 172.663 129.391 174.214 131.237 178.184C132.953 181.877 135.998 183.648 137.834 184.395C139.862 185.224 143.696 182.671 145.714 180.559" stroke="#20AEE5" stroke-width="1.48413" stroke-linecap="round" stroke-linejoin="round"/>
<path d="M129.454 163.685C130.906 166.356 133.521 167.971 134.98 168.266" stroke="#20AEE5" stroke-width="1.48413" stroke-linecap="round" stroke-linejoin="round"/>
<path d="M134.439 162.883C136.74 166.725 140.094 168.587 143.92 169.092" stroke="#20AEE5" stroke-width="1.48413" stroke-linecap="round" stroke-linejoin="round"/>
<path d="M145.698 168.209C147.252 170.883 149 175.781 148.968 178.195C148.926 181.287 149.035 184.087 146.376 185.833" stroke="#20AEE5" stroke-width="1.48413" stroke-linecap="round" stroke-linejoin="round"/>
<path d="M141.502 152.556C148.198 150.617 154.048 158.468 157.229 165.839C160.271 172.891 161.436 180.562 156.665 183.058" stroke="#20AEE5" stroke-width="1.48413" stroke-linecap="round" stroke-linejoin="round"/>
<path d="M155.961 176.631C156.29 181.378 153.537 184.415 150.534 184.769" stroke="#20AEE5" stroke-width="1.48413" stroke-linecap="round" stroke-linejoin="round"/>
<path d="M139.101 152.289C135.579 151.171 132.289 152.262 128.757 155.316C124.06 159.383 123.565 166.48 127.921 170.895" stroke="#20AEE5" stroke-width="1.48413" stroke-linecap="round" stroke-linejoin="round"/>
<path d="M136.267 190.886C136.43 194.582 138.278 197.765 141.842 198.008C146.049 198.295 153.586 193.647 155.644 189.825" stroke="#20AEE5" stroke-width="1.48413" stroke-linecap="round" stroke-linejoin="round"/>
<path d="M155.419 185.576C157.888 186.672 160.628 187.119 163.574 187.293C166.114 187.441 168.442 188.569 169.812 190.931C171.465 193.776 171.007 200.793 170.804 205.223" stroke="#20AEE5" stroke-width="1.48413" stroke-linecap="round" stroke-linejoin="round"/>
<path d="M136.692 186.911C131.557 185.241 128.274 188.071 126.748 191.425C125.821 193.466 124.745 198.416 123.879 200.484" stroke="#20AEE5" stroke-width="1.48413" stroke-linecap="round" stroke-linejoin="round"/>
<path d="M133.134 201.681C132.303 203.665 131.68 205.955 131.096 208.261C130.51 210.566 130.562 213.05 131.465 215.251C133.258 219.627 134.713 224.24 134.458 226.914" stroke="#20AEE5" stroke-width="1.48413" stroke-linecap="round" stroke-linejoin="round"/>
<path d="M170.765 207.576C170.916 215.09 171.102 219.219 170.938 224.826C170.896 226.296 171.087 227.186 170.76 228.621C170.107 231.493 169.182 230.469 168.381 231.446C167.582 232.423 167.97 234.026 165.378 234.901C164.584 235.168 161.962 234.993 159.988 234.834C159.145 234.765 158.583 235.176 157.863 235.166C156.886 235.151 156.49 234.723 155.57 234.956" stroke="#20AEE5" stroke-width="1.48413" stroke-linecap="round" stroke-linejoin="round"/>
<path d="M159.687 202.319C161.143 204.916 159.422 210.845 160.008 218.117" stroke="#20AEE5" stroke-width="1.48413" stroke-linecap="round" stroke-linejoin="round"/>
<path d="M150.113 226.333C141.866 227.963 134.77 230.125 126.531 229.034C125.524 228.9 124.48 228.707 123.513 229.017C122.15 229.449 121.002 230.946 118.358 232.203C116.414 233.128 116.191 233.734 116.223 233.988" stroke="#20AEE5" stroke-width="1.48413" stroke-linecap="round" stroke-linejoin="round"/>
<path d="M158.607 223.873C156.383 223.074 154.682 224.712 151.753 225.486C151.753 225.486 154.474 227.344 154.531 233.543" stroke="#20AEE5" stroke-width="1.48413" stroke-linecap="round" stroke-linejoin="round"/>
<path d="M124.104 231.532C122.357 232.289 120.611 233.046 118.867 233.803C117.885 234.228 116.913 234.814 116.49 235.796" stroke="#20AEE5" stroke-width="1.48413" stroke-linecap="round" stroke-linejoin="round"/>
<path d="M125.797 232.777C124.432 233.073 122.011 234.046 121.268 234.736C120.524 235.426 120.559 236.099 120.299 237.496" stroke="#20AEE5" stroke-width="1.48413" stroke-linecap="round" stroke-linejoin="round"/>
<path d="M152.323 234.639C147.86 234.928 144.133 234.57 139.668 234.377C139.062 234.349 138.451 234.335 137.85 234.424C136.913 234.565 136.034 234.96 135.149 235.297C133.655 235.861 132.052 236.259 130.471 236.049C129.326 235.898 128.211 235.428 127.058 235.512C125.463 235.628 124.149 236.764 122.967 237.84" stroke="#20AEE5" stroke-width="1.48413" stroke-linecap="round" stroke-linejoin="round"/>
<path d="M139.66 184.44C139.601 185.526 139.069 187.243 136.479 188.079" stroke="#20AEE5" stroke-width="1.48413" stroke-linecap="round" stroke-linejoin="round"/>
<path d="M160.725 222.699C161.855 222.598 163.025 222.499 164.103 222.853C165.13 223.187 165.991 223.902 166.701 224.713" stroke="#20AEE5" stroke-width="1.48413" stroke-linecap="round" stroke-linejoin="round"/>
<path d="M161.405 224.566C163.327 226.553 164.626 229.138 165.059 231.868" stroke="#20AEE5" stroke-width="1.48413" stroke-linecap="round" stroke-linejoin="round"/>
<path d="M76.7092 212.924L97.0886 216.741C98.548 217.015 99.8194 217.903 100.576 219.18L113.478 240.9C113.711 241.293 113.357 241.773 112.912 241.664L87.9588 235.597C87.2638 235.428 86.6701 234.978 86.3189 234.355L75.3463 214.821C74.8096 213.866 75.6333 212.721 76.7068 212.921L76.7092 212.924Z" stroke="#20AEE5" stroke-width="1.48413" stroke-linecap="round" stroke-linejoin="round"/>
<path d="M131.856 236.314C132.034 236.546 132.076 236.875 131.918 237.16L131.831 237.316C131.53 237.857 131.045 238.27 130.464 238.483L114.819 244.195C114.334 244.373 113.804 244.4 113.305 244.274L89.5713 238.295C89.0815 238.171 88.708 237.773 88.6165 237.276L88.4805 236.526" stroke="#20AEE5" stroke-width="1.48413" stroke-linecap="round" stroke-linejoin="round"/>
<path d="M107.231 230.412L116.492 232.561" stroke="#20AEE5" stroke-width="1.48413" stroke-linecap="round" stroke-linejoin="round"/>
<path d="M153.267 236.751L177.26 242.452" stroke="#20AEE5" stroke-width="1.48413" stroke-linecap="round" stroke-linejoin="round"/>
<path d="M122.731 205.948C122.877 207.86 119.733 216.816 119.733 216.816C119.733 216.816 119.318 218.043 118.301 218.872C117.65 219.404 116.359 219.236 116.072 220.242" stroke="#20AEE5" stroke-width="1.48413" stroke-linecap="round" stroke-linejoin="round"/>
<path d="M126.136 226.686C127.956 226.323 130.868 219.77 130.868 219.77" stroke="#20AEE5" stroke-width="1.48413" stroke-linecap="round" stroke-linejoin="round"/>
<path d="M122.348 218.031C122.348 218.031 123.805 218.395 125.259 220.216" stroke="#20AEE5" stroke-width="1.48413" stroke-linecap="round" stroke-linejoin="round"/>
<path d="M107.254 225.972C107.254 225.972 115.508 221.735 117.658 221.275C119.807 220.814 122.419 221.581 123.186 224.193" stroke="#20AEE5" stroke-width="1.48413" stroke-linecap="round" stroke-linejoin="round"/>
<path d="M122.314 228.106C122.314 228.106 112.784 231.04 107.903 230.83" stroke="#20AEE5" stroke-width="1.48413" stroke-linecap="round" stroke-linejoin="round"/>
<path d="M120.375 159.875C120.375 159.875 117.08 157.036 116.093 159.447C115.272 161.451 118.436 162.017 118.436 162.017" stroke="#20AEE5" stroke-width="1.48413" stroke-linecap="round" stroke-linejoin="round"/>
<path d="M117.133 165.283C117.133 165.283 111.379 165.046 112.067 168.056C112.658 170.641 116.546 168.847 116.546 168.847" stroke="#20AEE5" stroke-width="1.48413" stroke-linecap="round" stroke-linejoin="round"/>
<path d="M75.6055 220.839L68.3852 218.511L35.2598 227.27L40.286 229.108C48.1642 231.98 56.6953 232.937 65.0113 231.864C67.9771 231.48 70.6757 230.753 73.4461 229.553C75.1874 228.799 76.2362 228.346 77.9751 227.592" stroke="#20AEE5" stroke-width="1.48413" stroke-linecap="round" stroke-linejoin="round"/>
<path d="M59.7179 229.217C56.9673 228.742 53.6776 226.81 53.6776 226.81C53.6776 226.81 49.6828 232.232 43.6895 230.236" stroke="#20AEE5" stroke-width="1.48413" stroke-linecap="round" stroke-linejoin="round"/>
<path d="M90.1947 245.837L68.21 238.928C67.374 238.666 66.4637 238.772 65.7118 239.22L48.684 249.384C47.8455 249.883 48.0112 251.145 48.9487 251.415L74.4656 258.689C74.9455 258.825 75.4698 258.754 75.8854 258.494L92.1563 248.276" stroke="#20AEE5" stroke-width="1.48413" stroke-linecap="round" stroke-linejoin="round"/>
<path d="M129.198 248.392L107.444 252.471C106.993 252.555 106.783 253.074 107.045 253.448L118.441 269.642C118.943 270.357 119.821 270.703 120.677 270.528L141.934 266.152C142.422 266.051 142.605 265.45 142.254 265.096L130.89 249.075C130.507 248.535 129.846 248.268 129.198 248.389V248.392Z" stroke="#20AEE5" stroke-width="1.48413" stroke-linecap="round" stroke-linejoin="round"/>
<path d="M102.887 269.813L75.6535 275.059C74.8298 275.218 73.9888 274.874 73.5139 274.181L67.2583 265.081C66.7067 264.28 67.1594 263.174 68.1167 262.991L94.2519 257.992C95.0014 257.848 95.7657 258.15 96.2134 258.766L103.374 268.579C103.713 269.044 103.453 269.702 102.889 269.81L102.887 269.813Z" stroke="#20AEE5" stroke-width="1.48413" stroke-linecap="round" stroke-linejoin="round"/>
<path d="M159.275 248.177L140.744 247.937C140.14 247.93 139.843 248.165 139.774 248.763L138.782 256.29" stroke="#20AEE5" stroke-width="1.48413" stroke-linecap="round" stroke-linejoin="round"/>
<path d="M136.943 270.216L136.8 271.3C136.758 271.685 137.062 272.024 137.45 272.019L160.343 271.809L164.79 271.767C165.715 271.757 166.418 270.926 166.267 270.011L163.009 250.23" stroke="#20AEE5" stroke-width="1.48413" stroke-linecap="round" stroke-linejoin="round"/>
<path d="M116.881 310.774C116.093 311.473 114.907 311.473 114.119 310.774L102.703 300.633C101.273 299.364 102.172 297 104.084 297L126.916 297C128.828 297 129.727 299.364 128.297 300.633L116.881 310.774Z" fill="#20AEE5"/>
</g>
<defs>
<clipPath id="clip0_1092_29061">
<rect width="232" height="312" fill="white"/>
</clipPath>
<clipPath id="clip1_1092_29061">
<rect width="236" height="124" fill="white" transform="translate(-5)"/>
</clipPath>
</defs>
</svg>
