<svg width="232" height="312" viewBox="0 0 232 312" fill="none" xmlns="http://www.w3.org/2000/svg">
<g clip-path="url(#clip0_1092_29000)">
<path d="M115.875 122.415C115.495 123.104 114.505 123.104 114.125 122.415L106.293 108.233C105.925 107.567 106.407 106.75 107.168 106.75L122.832 106.75C123.593 106.75 124.075 107.567 123.707 108.233L115.875 122.415Z" fill="#20AEE5"/>
<path d="M9.08414 36.0788C23.2931 17.9685 50.8752 7.26345 102.375 5.72634C153.875 4.18923 205.174 12.1282 220.524 35.6588C246.055 74.7937 206.409 100.703 168.909 109.224C131.409 117.746 32.267 117.378 10.6141 90.7187C-1.80589 75.4287 -5.12487 54.189 9.08414 36.0788Z" fill="#20AEE5"/>
<path d="M101.218 22.256C101.182 22.472 101.134 22.988 101.11 23.3C101.098 23.564 101.086 23.852 101.074 24.152C101.866 24.056 102.658 23.9 103.282 23.72L103.318 25.208C102.634 25.364 101.806 25.484 101.026 25.58C101.014 25.94 101.014 26.312 101.014 26.66C101.014 26.804 101.014 26.948 101.014 27.104C101.83 26.9 102.658 26.792 103.318 26.792C105.166 26.792 106.618 27.752 106.618 29.408C106.618 30.824 105.874 31.892 103.966 32.372C103.414 32.492 102.886 32.528 102.394 32.564L101.842 31.016C102.382 31.016 102.898 31.004 103.318 30.932C104.29 30.752 105.058 30.272 105.058 29.396C105.058 28.58 104.338 28.1 103.294 28.1C102.55 28.1 101.77 28.22 101.038 28.436C101.062 29.384 101.086 30.32 101.086 30.728C101.086 32.216 100.558 32.612 99.7659 32.612C98.6019 32.612 96.9579 31.604 96.9579 30.332C96.9579 29.288 98.1579 28.196 99.6339 27.56C99.6219 27.272 99.6219 26.984 99.6219 26.708C99.6219 26.372 99.6219 26.036 99.6219 25.7C99.3939 25.712 99.1779 25.724 98.9859 25.724C98.1819 25.724 97.7139 25.712 97.3059 25.664L97.2819 24.212C97.9899 24.296 98.5059 24.308 98.9379 24.308C99.1539 24.308 99.3939 24.296 99.6339 24.284C99.6459 23.864 99.6459 23.516 99.6459 23.312C99.6459 23.06 99.5979 22.472 99.5619 22.256H101.218ZM104.638 23.552C105.562 23.996 106.954 24.788 107.59 25.244L106.87 26.468C106.294 25.976 104.722 25.076 103.978 24.716L104.638 23.552ZM98.4339 30.272C98.4339 30.644 98.9979 30.968 99.3099 30.968C99.5259 30.968 99.6939 30.872 99.6939 30.464C99.6939 30.164 99.6819 29.612 99.6579 28.964C98.9259 29.36 98.4339 29.852 98.4339 30.272ZM117.994 22.16L119.458 22.484C119.074 23.876 118.438 25.328 117.838 26.252C117.514 26.036 116.83 25.748 116.446 25.604C117.082 24.764 117.658 23.408 117.994 22.16ZM116.71 24.872L115.39 25.292C115.306 24.536 114.982 23.288 114.634 22.34L115.882 21.992C116.254 22.928 116.614 24.128 116.71 24.872ZM114.598 25.22L113.302 25.724C113.17 24.98 112.726 23.768 112.27 22.856L113.482 22.412C113.962 23.288 114.454 24.452 114.598 25.22ZM108.802 24.2L109.762 24.32C109.774 25.46 109.594 26.852 109.174 27.752L108.238 27.332C108.622 26.588 108.79 25.28 108.802 24.2ZM112.834 26.012L111.898 26.468C111.814 26 111.586 25.316 111.31 24.704V33.032H109.93V21.836H111.31V24.128L111.97 23.84C112.342 24.536 112.726 25.424 112.834 26.012ZM117.85 29.372L117.07 30.476C116.842 30.176 116.506 29.816 116.122 29.456C115.762 30.044 115.366 30.56 114.958 30.98C114.73 30.764 114.214 30.356 113.914 30.176C114.37 29.756 114.79 29.216 115.162 28.604C114.754 28.28 114.346 27.968 113.974 27.692L114.682 26.732C115.006 26.96 115.366 27.224 115.726 27.488C115.918 27.044 116.074 26.576 116.206 26.096L117.466 26.372C117.274 27.032 117.022 27.692 116.734 28.304C117.19 28.676 117.586 29.048 117.85 29.372ZM117.862 30.98V26.36H119.266V32.9H117.862V32.276H113.902V32.924H112.534V26.384H113.902V30.98H117.862ZM122.554 22.916C122.878 22.952 123.286 22.976 123.55 22.976C124.234 22.976 125.506 22.916 126.07 22.868C126.37 22.856 126.682 22.784 126.886 22.7L127.846 23.444C127.678 23.624 127.534 23.78 127.438 23.948C127.126 24.464 126.67 25.508 126.238 26.528C127.174 26.672 128.062 26.96 128.842 27.296C128.854 27.152 128.866 27.02 128.878 26.888C128.914 26.42 128.914 25.94 128.878 25.58L130.45 25.76C130.402 26.564 130.342 27.308 130.222 27.98C130.726 28.268 131.158 28.544 131.506 28.784L130.81 30.452C130.498 30.164 130.15 29.888 129.778 29.612C129.25 30.968 128.338 32.024 126.73 32.864L125.458 31.82C127.27 31.04 128.11 29.9 128.506 28.808C127.654 28.34 126.694 27.98 125.662 27.836C125.23 28.856 124.726 30.056 124.306 30.716C123.826 31.436 123.25 31.772 122.434 31.772C121.378 31.772 120.586 31.04 120.586 29.828C120.586 27.968 122.278 26.552 124.69 26.444C125.026 25.652 125.374 24.836 125.65 24.272C125.17 24.296 124.138 24.332 123.586 24.368C123.346 24.38 122.926 24.416 122.614 24.464L122.554 22.916ZM121.99 29.6C121.99 29.996 122.218 30.2 122.494 30.2C122.734 30.2 122.902 30.08 123.118 29.78C123.43 29.336 123.754 28.58 124.09 27.824C122.746 28.028 121.99 28.844 121.99 29.6ZM136 32.1875C134.089 32.1875 132.83 31.1621 132.712 29.6504L132.707 29.5742H134.4L134.406 29.6387C134.482 30.2949 135.085 30.7637 136 30.7637C136.902 30.7637 137.494 30.2598 137.494 29.5449V29.5332C137.494 28.7246 136.89 28.2793 135.865 28.2793H134.898V27.0195H135.841C136.732 27.0195 137.306 26.5508 137.306 25.8652V25.8535C137.306 25.1504 136.82 24.7168 135.988 24.7168C135.156 24.7168 134.599 25.168 134.529 25.8711L134.523 25.9238H132.894L132.9 25.8535C133.023 24.3418 134.212 23.3574 135.988 23.3574C137.804 23.3574 138.976 24.2715 138.976 25.6191V25.6309C138.976 26.6855 138.203 27.3711 137.212 27.5762V27.6113C138.472 27.7285 139.293 28.4551 139.293 29.6035V29.6152C139.293 31.1504 137.974 32.1875 136 32.1875Z" fill="white"/>
<path d="M47.548 52.558L45.694 53.152V59.452C45.694 59.812 45.784 59.92 46.18 60.01C46.63 60.118 47.17 60.154 48.448 60.154C50.482 60.154 51.256 60.082 51.652 59.812C51.85 59.686 52.012 59.38 52.084 58.984C52.138 58.642 52.156 58.426 52.21 57.562C53.002 57.886 53.326 57.976 54.172 58.138C53.956 60.19 53.722 60.892 53.164 61.324C52.48 61.81 51.274 61.972 47.998 61.972C44.632 61.972 43.786 61.612 43.786 60.172V53.782C43.624 53.836 43.498 53.872 43.426 53.89C42.904 54.07 42.724 54.142 42.382 54.304L42.22 52.252C42.652 52.198 43.174 52.072 43.786 51.892V49.768C43.786 48.922 43.768 48.436 43.678 47.86H45.802C45.712 48.382 45.694 48.85 45.694 49.696V51.298L47.548 50.704V47.77C47.548 47.05 47.512 46.582 47.44 45.97H49.528C49.456 46.528 49.42 46.978 49.42 47.716V50.11L52.048 49.264C52.75 49.048 53.164 48.886 53.506 48.724C53.488 49.102 53.488 49.246 53.488 49.696C53.452 51.856 53.326 54.34 53.182 55.51C53.002 56.86 52.552 57.256 51.166 57.256C50.824 57.256 50.626 57.238 50.176 57.202C50.086 56.5 49.978 56.086 49.672 55.366C50.14 55.456 50.608 55.528 50.896 55.528C51.292 55.528 51.364 55.402 51.472 54.556C51.562 53.854 51.616 52.666 51.616 51.226L49.42 51.946V56.626C49.42 57.364 49.438 57.814 49.528 58.426H47.44C47.53 57.868 47.548 57.4 47.548 56.572V52.558ZM39.664 60.316V55.132C39.664 54.7 39.664 54.7 39.718 53.152C39.286 53.89 38.836 54.502 38.206 55.222C37.954 54.466 37.738 53.98 37.27 53.098C38.602 51.784 39.664 50.092 40.456 48.13C40.816 47.23 41.068 46.348 41.158 45.7L43.192 46.312C43.048 46.726 43.012 46.834 42.832 47.338C42.418 48.544 42.166 49.156 41.572 50.308V60.334C41.572 61.18 41.608 61.828 41.662 62.512H39.556C39.628 61.864 39.664 61.288 39.664 60.316ZM67.456 53.152H64.018C63.19 53.152 62.362 53.188 61.804 53.26V51.244C62.344 51.316 63.154 51.352 64.018 51.352H70.138C71.146 51.352 71.866 51.316 72.334 51.244V53.26C71.74 53.188 70.984 53.152 70.192 53.152H69.418V60.316C69.418 61.864 68.896 62.242 66.718 62.242C66.106 62.242 65.566 62.224 64.72 62.188C64.612 61.396 64.504 60.928 64.198 60.172C65.152 60.298 66.088 60.37 66.646 60.37C67.366 60.37 67.456 60.334 67.456 59.938V53.152ZM59.86 45.754L61.588 46.96C61.39 47.176 61.39 47.176 61.048 47.572C59.878 48.976 58.6 50.092 56.908 51.172C56.548 50.47 56.242 50.038 55.774 49.48C57.196 48.706 58.114 47.986 58.996 47.014C59.392 46.546 59.626 46.204 59.86 45.754ZM62.524 48.67V46.672C63.028 46.744 63.694 46.78 64.63 46.78H69.49C70.39 46.78 71.002 46.744 71.542 46.672V48.67C70.912 48.598 70.246 48.562 69.526 48.562H64.63C63.874 48.562 63.118 48.598 62.524 48.67ZM58.24 60.172V57.022C58.24 56.266 58.24 56.158 58.276 54.934C57.808 55.492 57.268 56.014 56.638 56.464C56.368 55.654 56.134 55.186 55.738 54.538C57.628 53.314 59.482 51.334 60.166 49.786L61.858 50.902C61.678 51.1 61.516 51.316 61.264 51.694C60.85 52.288 60.688 52.522 60.22 53.098V60.19C60.22 61.144 60.256 61.864 60.346 62.458H58.114C58.204 61.9 58.24 61.108 58.24 60.172ZM80.254 52.882H77.986C77.014 54.628 75.97 55.906 74.476 57.166C74.188 56.536 73.954 56.158 73.396 55.474C74.71 54.502 75.646 53.386 76.456 51.838C76.906 50.938 77.14 50.326 77.302 49.57L79.3 49.84C79.192 50.11 79.156 50.218 79.012 50.56C78.904 50.848 78.868 50.992 78.778 51.19H80.218C80.83 51.19 81.118 51.172 81.424 51.118L82.27 52.09C82.18 52.324 82.162 52.396 82.072 52.882C81.622 55.078 80.902 56.788 79.804 58.3C79.012 59.38 78.04 60.37 76.96 61.126C76.348 61.576 75.844 61.882 74.728 62.458C74.458 61.846 74.134 61.36 73.504 60.694C74.854 60.1 75.448 59.776 76.24 59.164C76.924 58.624 77.446 58.12 78.022 57.436C77.482 56.824 77.212 56.59 76.402 56.014L77.59 54.592C78.346 55.132 78.49 55.24 79.12 55.834C79.66 54.88 79.912 54.196 80.254 52.882ZM80.83 47.446V46.978C80.83 46.546 80.812 46.24 80.722 45.826H82.936C82.864 46.204 82.828 46.528 82.828 46.978V47.446H87.994C88.948 47.446 89.434 47.428 89.992 47.356C89.938 47.752 89.92 48.094 89.92 48.688V49.894C89.92 50.452 89.938 50.866 89.992 51.298H88.894C88.876 51.676 88.876 51.676 88.858 53.026C88.84 54.952 88.714 56.356 88.516 56.914C88.264 57.634 87.724 57.904 86.554 57.904C86.338 57.904 85.708 57.868 85.42 57.832C85.366 57.13 85.294 56.806 85.06 56.104C85.636 56.194 85.924 56.23 86.212 56.23C86.77 56.23 86.824 56.122 86.896 55.078C86.95 54.376 86.968 53.818 86.968 52.54H84.448V59.686C84.448 60.28 84.592 60.334 86.302 60.334C87.544 60.334 87.994 60.226 88.156 59.848C88.282 59.578 88.354 59.038 88.372 57.868C89.02 58.192 89.326 58.282 90.226 58.462C90.136 60.226 89.902 61.108 89.416 61.54C88.912 61.99 88.3 62.098 85.942 62.098C84.178 62.098 83.548 62.008 83.08 61.684C82.684 61.378 82.558 61.036 82.558 60.226V52.036C82.558 51.532 82.54 51.244 82.504 50.776C82.828 50.812 83.08 50.83 83.638 50.83H87.58C87.706 50.83 87.706 50.83 88.012 50.83V49.174H76.042V51.478H74.044C74.116 51.028 74.134 50.704 74.134 50.128V48.688C74.134 48.112 74.116 47.77 74.062 47.356C74.62 47.428 75.106 47.446 76.06 47.446H80.83ZM106.84 54.106H104.734C104.914 55.33 104.968 55.618 105.202 56.356C105.994 55.834 106.444 55.438 107.038 54.754L108.298 55.996C107.938 56.284 107.938 56.284 106.858 57.166C106.606 57.4 106.318 57.598 105.868 57.886C106.534 59.074 107.182 59.758 108.442 60.676C107.884 61.27 107.542 61.72 107.182 62.368C105.778 61.054 105.004 60.046 104.356 58.678C103.654 57.202 103.384 56.23 103.096 54.106H102.106V59.668C102.934 59.452 103.276 59.362 104.302 59.02V60.766C103.024 61.216 102.016 61.486 99.622 62.062C99.262 62.152 99.172 62.17 98.794 62.296L98.362 60.298C98.884 60.298 99.334 60.244 100.288 60.064V54.106H99.298C99.172 56.464 99.028 57.58 98.65 58.966C98.308 60.208 97.894 61.198 97.264 62.35C96.706 61.684 96.418 61.396 95.752 60.874C97.318 58.354 97.624 56.338 97.624 48.85C97.624 47.608 97.606 47.122 97.552 46.564C98.164 46.618 98.92 46.654 99.676 46.654H105.994C106.84 46.654 107.452 46.618 107.992 46.546V48.472C107.578 48.418 107.056 48.4 106.12 48.4H99.406V50.29C99.406 51.118 99.388 51.568 99.37 52.45H106.624C107.38 52.45 107.776 52.432 108.19 52.36V54.178C107.83 54.124 107.452 54.106 106.84 54.106ZM93.772 51.046H93.124C92.674 51.046 92.314 51.064 91.864 51.136V49.21C92.296 49.282 92.602 49.3 93.142 49.3H93.772V47.77C93.772 46.924 93.754 46.474 93.664 45.952H95.734C95.662 46.51 95.644 46.906 95.644 47.77V49.3H96.202C96.616 49.3 96.832 49.282 97.138 49.228V51.1C96.796 51.064 96.562 51.046 96.22 51.046H95.644V53.764C96.076 53.584 96.328 53.458 97.03 53.116V54.934C96.292 55.312 96.076 55.42 95.644 55.618V60.658C95.644 62.026 95.176 62.422 93.556 62.422C93.214 62.422 93.124 62.422 92.26 62.386C92.17 61.612 92.098 61.306 91.828 60.514C92.332 60.586 92.926 60.64 93.286 60.64C93.682 60.64 93.772 60.55 93.772 60.136V56.374C93.16 56.608 92.746 56.77 92.26 56.932C92.152 56.968 92.098 56.986 91.99 57.04L91.702 55.06C92.26 54.97 92.872 54.808 93.772 54.484V51.046ZM107.254 49.552V51.298C106.894 51.244 106.534 51.226 105.958 51.226H101.26C100.684 51.226 100.414 51.244 100.054 51.28V49.552C100.36 49.606 100.666 49.624 101.26 49.624H105.94C106.57 49.624 106.894 49.606 107.254 49.552ZM119.17 48.346H117.352C116.74 48.346 116.308 48.364 115.858 48.436V46.492C116.254 46.564 116.632 46.582 117.352 46.582H119.926C120.502 46.582 120.898 46.564 121.24 46.51C121.204 46.924 121.204 47.176 121.204 47.482C121.204 49.246 121.618 51.064 122.392 52.702C123.31 54.682 124.39 55.924 126.352 57.328C125.848 57.94 125.542 58.444 125.164 59.218C123.85 58.228 123.112 57.508 122.284 56.41C121.384 55.204 120.88 54.106 120.268 52.144C119.818 54.052 119.314 55.186 118.306 56.536C117.64 57.454 117.082 58.03 115.876 59.002C115.39 58.354 115.12 58.066 114.454 57.436C115.552 56.644 116.092 56.104 116.83 55.132C117.784 53.854 118.468 52.378 118.828 50.848C119.008 50.11 119.08 49.588 119.17 48.346ZM110.116 47.482L111.556 46.132C112.852 47.266 113.824 48.274 114.706 49.426L113.212 50.884C112.096 49.372 111.52 48.742 110.116 47.482ZM109.846 54.61V52.63C110.314 52.702 110.602 52.72 111.286 52.72H112.762C113.302 52.72 113.716 52.702 114.13 52.63C114.076 53.224 114.058 53.602 114.058 54.61V58.372C114.328 58.948 114.49 59.128 115.084 59.524C115.948 60.064 116.884 60.19 119.98 60.19C122.59 60.19 124.876 60.064 126.658 59.812C126.352 60.676 126.244 61.126 126.118 61.954C124.516 62.008 121.906 62.062 120.664 62.062C117.712 62.062 116.254 61.954 115.318 61.648C114.382 61.36 113.734 60.874 113.032 59.956C112.456 60.532 112.024 60.91 111.178 61.558C110.872 61.792 110.764 61.882 110.638 61.99C110.458 62.134 110.458 62.134 110.368 62.206L109.486 60.154C110.26 59.83 111.394 59.074 112.168 58.39V54.52H111.07C110.566 54.52 110.296 54.538 109.846 54.61ZM130.24 49.12L130.15 47.014C130.564 47.086 131.014 47.104 131.968 47.104C133.048 47.104 134.65 47.032 135.316 46.942C135.676 46.906 135.802 46.87 136.036 46.726L137.458 47.95C137.296 48.166 137.206 48.364 137.08 48.706C136.99 48.922 135.892 52.234 135.73 52.792C137.134 52.99 138.34 53.332 139.708 53.926C139.852 53.008 139.888 52.27 139.888 50.596C139.888 50.2 139.87 50.002 139.816 49.642L142.084 49.732C142.012 50.11 141.994 50.254 141.976 50.938C141.922 52.522 141.832 53.602 141.652 54.754C142.228 55.042 143.02 55.456 143.578 55.78C144.064 56.068 144.136 56.086 144.406 56.212L143.596 58.588C143.074 58.138 142.03 57.436 141.112 56.914C140.608 58.246 140.068 59.128 139.15 60.082C138.358 60.91 137.458 61.576 136.432 62.116C135.676 61.18 135.496 61 134.794 60.496C136.144 59.848 136.846 59.38 137.584 58.606C138.304 57.832 138.898 56.86 139.186 55.942C137.908 55.33 136.846 54.988 135.136 54.7C134.344 57.076 133.876 58.228 133.354 59.128C132.688 60.28 131.878 60.838 130.888 60.838C129.232 60.838 128.008 59.38 128.008 57.418C128.008 55.762 128.818 54.358 130.24 53.476C131.176 52.9 132.13 52.666 133.642 52.612C134.11 51.19 134.326 50.506 134.776 48.85C133.858 48.922 133.426 48.94 131.662 49.012C130.924 49.048 130.6 49.066 130.24 49.12ZM133.084 54.502C131.878 54.682 131.248 54.97 130.69 55.582C130.24 56.068 130.006 56.68 130.006 57.31C130.006 58.048 130.402 58.642 130.888 58.642C131.23 58.642 131.5 58.318 131.914 57.508C132.274 56.788 132.706 55.672 133.084 54.502ZM157.834 51.1L159.652 50.2C160.894 51.91 161.83 53.854 162.352 55.924L160.3 56.95C159.94 55.06 158.824 52.414 157.834 51.1ZM152.542 47.14L152.506 47.374C152.416 47.896 152.29 48.634 152.11 49.606C152.056 49.912 152.056 49.912 152.002 50.146C152.542 50.128 152.794 50.11 153.118 50.11C154.306 50.11 155.188 50.434 155.782 51.064C156.394 51.748 156.628 52.612 156.628 54.25C156.628 57.346 156.106 59.812 155.242 60.802C154.738 61.396 154.198 61.612 153.244 61.612C152.416 61.612 151.678 61.468 150.472 61.072C150.49 60.73 150.508 60.46 150.508 60.28C150.508 59.812 150.472 59.452 150.328 58.75C151.3 59.182 152.326 59.47 152.956 59.47C153.478 59.47 153.766 59.128 154.036 58.246C154.324 57.31 154.504 55.672 154.504 54.142C154.504 52.486 154.09 52 152.704 52C152.326 52 152.038 52.018 151.624 52.054C150.742 55.744 149.932 57.922 147.952 61.846L145.864 60.694C147.25 58.804 148.636 55.564 149.482 52.216C149.212 52.252 149.212 52.252 148.636 52.36L146.998 52.63C146.71 52.684 146.512 52.738 146.26 52.81L146.044 50.686C146.854 50.668 147.79 50.578 149.878 50.308C150.22 48.31 150.346 47.284 150.346 46.672C150.346 46.6 150.346 46.492 150.346 46.348L152.686 46.582C152.632 46.726 152.578 46.96 152.542 47.14ZM156.718 47.266L157.978 46.636C158.77 47.482 159.256 48.166 159.868 49.282L158.608 49.948C158.014 48.85 157.51 48.13 156.718 47.266ZM162.01 48.112L160.768 48.814C160.228 47.824 159.634 46.978 158.932 46.204L160.138 45.574C160.948 46.402 161.452 47.086 162.01 48.112ZM168.328 50.722L169.732 49.732C170.56 50.236 170.956 50.524 171.712 51.082C173.098 50.092 173.746 49.552 174.628 48.598H170.452C168.886 50.02 167.428 50.956 165.394 51.856C165.106 51.28 164.764 50.866 164.206 50.362C166.222 49.57 167.806 48.616 169.084 47.428C169.93 46.636 170.38 46.114 170.686 45.556L172.9 45.952C172.432 46.51 172.342 46.6 171.964 47.032H175.114C175.816 47.032 176.284 46.996 176.716 46.942L177.652 47.932C176.608 49.156 176.086 49.714 175.33 50.416C172.342 53.188 169.318 54.862 165.196 55.996C164.962 55.33 164.674 54.826 164.188 54.268C166.654 53.71 168.526 53.026 170.182 52.054C169.642 51.586 169.12 51.208 168.328 50.722ZM177.292 55.258H173.152C171.838 56.266 171.298 56.608 170.2 57.184C168.976 57.814 168.148 58.156 166.816 58.57C166.438 57.742 166.276 57.472 165.772 56.932C169.246 56.086 172.648 54.034 173.926 51.964L175.834 52.576C175.366 53.134 175.276 53.242 174.88 53.692H177.49C178.192 53.692 178.642 53.674 179.074 53.602L180.136 54.682C179.902 54.97 179.866 55.006 179.524 55.492C177.832 57.814 176.086 59.254 173.278 60.604C171.118 61.648 169.39 62.17 166.276 62.692C165.934 61.81 165.808 61.594 165.196 60.856C168.418 60.55 170.65 59.956 172.72 58.858C172.018 58.192 171.586 57.886 170.704 57.364L172.288 56.374C173.188 56.986 173.566 57.274 174.34 57.904C175.384 57.22 176.068 56.626 177.292 55.258ZM192.07 46.06L194.14 47.644C193.834 47.86 193.492 48.166 191.926 49.624C191.008 50.47 189.748 51.478 187.642 53.08C187.084 53.494 186.958 53.638 186.958 53.836C186.958 54.106 186.994 54.142 188.578 55.33C191.386 57.454 191.908 57.904 194.248 60.028C194.428 60.208 194.536 60.298 194.77 60.478L192.916 62.35C192.448 61.702 191.8 61.018 190.576 59.884C189.298 58.696 188.704 58.21 185.932 56.05C184.744 55.132 184.42 54.646 184.42 53.818C184.42 53.278 184.618 52.792 185.014 52.36C185.248 52.108 185.266 52.09 186.598 51.064C188.542 49.588 189.55 48.724 190.756 47.554C191.566 46.744 191.764 46.51 192.07 46.06ZM72.172 76.956V74.814C69.814 75.03 68.914 75.084 66.556 75.138C66.358 74.4 66.358 74.4 65.89 73.284C66.286 73.284 66.502 73.284 66.772 73.284C69.346 73.284 72.676 73.032 74.836 72.672C76.546 72.384 77.194 72.222 78.166 71.808L79.642 73.608C78.094 74.004 75.646 74.454 74.188 74.616V76.956H77.914C78.94 76.956 79.57 76.92 80.164 76.848V78.864C79.552 78.792 78.868 78.756 77.95 78.756H74.188V80.934H78.796C79.804 80.934 80.398 80.898 80.992 80.826V82.86C80.362 82.788 79.768 82.752 78.796 82.752H74.188V86.28C74.188 87.072 73.936 87.63 73.486 87.828C73.072 88.008 72.298 88.116 71.47 88.116C70.93 88.116 70.048 88.08 69.022 87.99C68.932 87.198 68.824 86.784 68.482 86.028C69.778 86.208 70.75 86.28 71.488 86.28C72.01 86.28 72.172 86.154 72.172 85.722V82.752H67.15C66.16 82.752 65.566 82.788 64.936 82.86V80.826C65.53 80.898 66.124 80.934 67.15 80.934H72.172V78.756H68.158C67.366 78.756 66.52 78.792 65.908 78.864V76.848C66.502 76.92 67.114 76.956 68.14 76.956H72.172ZM99.442 74.886V76.776C99.082 76.722 98.884 76.722 98.182 76.704C98.038 79.692 97.48 81.798 96.346 83.76C97.318 85.002 98.362 85.866 99.766 86.568C99.352 87.126 99.046 87.684 98.722 88.476C97.372 87.684 96.148 86.604 95.212 85.38C94.06 86.694 92.692 87.792 91.126 88.602C90.766 87.666 90.604 87.378 90.154 86.802C90.928 86.424 91.162 86.298 91.576 86.028C92.62 85.344 93.43 84.624 94.132 83.778C93.286 82.248 92.944 81.258 92.62 79.548C92.296 80.052 92.17 80.232 91.792 80.736C91.396 80.214 91 79.818 90.496 79.44C91.612 78.036 92.368 76.434 92.926 74.256C93.16 73.41 93.34 72.33 93.358 71.808L95.338 72.204C95.266 72.42 95.23 72.582 95.086 73.194C94.978 73.662 94.816 74.274 94.618 74.976H97.75C98.614 74.976 99.01 74.958 99.442 74.886ZM96.346 76.704H94.024C93.88 77.028 93.88 77.028 93.79 77.262C94.078 79.188 94.456 80.466 95.23 81.996C95.932 80.484 96.256 78.954 96.346 76.704ZM90.694 85.794L89.65 87.468C88.984 86.946 88.732 86.784 87.976 86.37C86.842 87.396 85.78 87.918 83.674 88.512C83.404 87.882 83.134 87.396 82.738 86.856C84.358 86.514 85.312 86.154 86.302 85.524C85.402 85.128 84.916 84.93 83.638 84.462C84.214 83.67 84.376 83.436 84.808 82.68H84.286C83.638 82.68 83.278 82.698 82.864 82.77V80.952C83.26 81.024 83.62 81.042 84.286 81.042H85.636C85.816 80.628 85.888 80.412 86.104 79.764L87.976 80.124C87.814 80.574 87.742 80.7 87.598 81.042H90.442C91.072 81.042 91.432 81.024 91.774 80.952V82.77C91.396 82.698 91.09 82.68 90.316 82.68C89.956 83.814 89.794 84.192 89.236 84.984C89.956 85.326 90.082 85.398 90.694 85.794ZM88.444 82.68H86.734C86.482 83.112 86.428 83.202 86.104 83.688C86.86 83.958 87.094 84.048 87.634 84.282C88.012 83.778 88.264 83.31 88.444 82.68ZM88.372 75.228H90.568C91.108 75.228 91.504 75.21 91.72 75.174V76.83C91.45 76.794 91.126 76.776 90.568 76.776H89.362C89.686 77.172 90.064 77.442 90.946 77.928C90.46 78.45 90.388 78.558 89.902 79.404C89.002 78.648 88.75 78.378 88.3 77.694C88.336 78.072 88.354 78.288 88.354 78.432V79.08C88.354 79.314 88.372 79.53 88.426 79.746H86.5C86.536 79.548 86.554 79.35 86.554 79.152V78.468C86.554 78.306 86.572 78.018 86.608 77.694C85.636 79.008 85.06 79.566 83.674 80.52C83.278 79.854 83.08 79.602 82.504 79.026C83.944 78.288 84.79 77.64 85.384 76.776H84.412C83.764 76.776 83.314 76.794 82.918 76.866V75.138C83.332 75.21 83.746 75.228 84.43 75.228H86.572V73.104C86.572 72.546 86.554 72.24 86.482 71.88H88.444C88.39 72.222 88.372 72.528 88.372 73.068V75.228ZM83.368 72.636L84.898 72.06C85.582 73.05 85.798 73.482 86.158 74.436L84.574 75.03C84.214 74.022 83.926 73.464 83.368 72.636ZM89.992 72.024L91.612 72.69C90.928 74.076 90.802 74.292 90.244 75.12L88.714 74.436C89.29 73.644 89.686 72.906 89.992 72.024ZM108.136 85.506L107.722 83.58C107.632 83.814 107.614 83.904 107.524 84.192C106.768 83.346 106.264 82.644 105.706 81.654C105.796 82.878 105.814 83.13 105.814 83.706V86.676C105.814 87.54 105.832 88.008 105.922 88.548H103.834C103.924 87.972 103.96 87.432 103.96 86.64V84.318C103.96 83.598 103.996 82.752 104.032 82.158C103.222 84.138 102.646 85.146 101.692 86.208C101.494 85.506 101.17 84.858 100.774 84.354C101.53 83.58 102.106 82.788 102.718 81.69C103.096 81.024 103.168 80.844 103.672 79.656H102.736C101.944 79.656 101.548 79.674 101.116 79.746V77.838C101.53 77.91 101.908 77.928 102.736 77.928H103.942V73.662C103.942 72.852 103.924 72.33 103.852 71.898H105.904C105.832 72.366 105.814 72.78 105.814 73.644V77.928H106.66C107.344 77.928 107.65 77.91 108.046 77.856V79.728C107.614 79.674 107.254 79.656 106.624 79.656H105.976C106.642 80.79 107.308 81.6 108.298 82.41C108.046 82.86 107.974 83.022 107.794 83.418C108.208 83.4 108.838 83.292 109.45 83.166L113.662 82.23V74.004C113.662 72.96 113.644 72.474 113.554 71.916H115.732C115.642 72.51 115.624 72.996 115.624 73.986V81.798C116.362 81.618 116.686 81.528 117.154 81.348L117.532 83.4C117.046 83.454 116.542 83.544 115.804 83.724L115.624 83.76V86.388C115.624 87.396 115.642 87.936 115.732 88.512H113.554C113.644 87.9 113.662 87.468 113.662 86.37V84.192L109.846 85.056C109.054 85.236 108.532 85.38 108.136 85.506ZM100.99 73.572L102.52 72.888C103.096 74.49 103.366 75.408 103.618 76.776L102.106 77.424C101.818 75.768 101.494 74.652 100.99 73.572ZM107.182 72.852L108.694 73.518C108.226 75.174 107.992 75.804 107.254 77.424L105.94 76.74C106.516 75.534 106.822 74.598 107.182 72.852ZM108.892 74.49L110.152 73.104C111.7 74.184 112.276 74.688 113.302 75.75L112.078 77.262C110.746 75.84 110.656 75.768 108.892 74.49ZM108.334 78.936L109.594 77.604C111.016 78.576 111.79 79.242 112.726 80.25L111.502 81.708C110.242 80.358 109.63 79.818 108.334 78.936ZM130.834 77.1L132.652 76.2C133.894 77.91 134.83 79.854 135.352 81.924L133.3 82.95C132.94 81.06 131.824 78.414 130.834 77.1ZM125.542 73.14L125.506 73.374C125.416 73.896 125.29 74.634 125.11 75.606C125.056 75.912 125.056 75.912 125.002 76.146C125.542 76.128 125.794 76.11 126.118 76.11C127.306 76.11 128.188 76.434 128.782 77.064C129.394 77.748 129.628 78.612 129.628 80.25C129.628 83.346 129.106 85.812 128.242 86.802C127.738 87.396 127.198 87.612 126.244 87.612C125.416 87.612 124.678 87.468 123.472 87.072C123.49 86.73 123.508 86.46 123.508 86.28C123.508 85.812 123.472 85.452 123.328 84.75C124.3 85.182 125.326 85.47 125.956 85.47C126.478 85.47 126.766 85.128 127.036 84.246C127.324 83.31 127.504 81.672 127.504 80.142C127.504 78.486 127.09 78 125.704 78C125.326 78 125.038 78.018 124.624 78.054C123.742 81.744 122.932 83.922 120.952 87.846L118.864 86.694C120.25 84.804 121.636 81.564 122.482 78.216C122.212 78.252 122.212 78.252 121.636 78.36L119.998 78.63C119.71 78.684 119.512 78.738 119.26 78.81L119.044 76.686C119.854 76.668 120.79 76.578 122.878 76.308C123.22 74.31 123.346 73.284 123.346 72.672C123.346 72.6 123.346 72.492 123.346 72.348L125.686 72.582C125.632 72.726 125.578 72.96 125.542 73.14ZM129.718 73.266L130.978 72.636C131.77 73.482 132.256 74.166 132.868 75.282L131.608 75.948C131.014 74.85 130.51 74.13 129.718 73.266ZM135.01 74.112L133.768 74.814C133.228 73.824 132.634 72.978 131.932 72.204L133.138 71.574C133.948 72.402 134.452 73.086 135.01 74.112ZM143.866 73.14V72.924C143.866 72.51 143.83 72.15 143.758 71.79H145.972C145.9 72.168 145.864 72.51 145.864 72.906V73.14H151.174C151.984 73.14 152.488 73.104 153.064 73.032V74.85C152.47 74.778 152.02 74.76 151.192 74.76H138.772C137.962 74.76 137.512 74.778 136.918 74.85V73.032C137.494 73.104 138.034 73.14 138.88 73.14H143.866ZM139.654 78.252V76.704C139.654 76.128 139.636 75.822 139.6 75.39C140.122 75.444 140.554 75.462 141.346 75.462H148.834C149.554 75.462 149.932 75.444 150.436 75.39C150.4 75.858 150.382 76.128 150.382 76.704V78.252C150.382 78.954 150.4 79.152 150.436 79.584C149.95 79.53 149.536 79.512 148.744 79.512H141.292C140.59 79.512 140.122 79.53 139.6 79.584C139.636 79.206 139.654 78.864 139.654 78.252ZM141.526 76.92V78.018H148.492V76.92H141.526ZM137.422 86.55V81.762C137.422 81.15 137.404 80.682 137.35 80.124C137.926 80.178 138.448 80.196 139.222 80.196H150.886C151.75 80.196 152.182 80.178 152.65 80.124C152.596 80.682 152.578 81.096 152.578 81.744V86.334C152.578 87.234 152.488 87.576 152.146 87.882C151.786 88.206 151.246 88.314 149.986 88.314C149.608 88.314 149.518 88.314 148.942 88.278C148.654 88.26 148.654 88.26 148.366 88.26C148.33 87.45 148.24 87.036 147.97 86.46C148.96 86.568 149.734 86.622 150.238 86.622C150.58 86.622 150.67 86.532 150.67 86.244V81.762H139.33V86.55C139.33 87.468 139.348 87.9 139.438 88.53H137.314C137.386 88.152 137.422 87.396 137.422 86.55ZM148.834 83.562V85.092C148.834 85.614 148.852 85.974 148.888 86.298C148.546 86.262 147.88 86.244 147.394 86.244H142.858V87.144H141.004C141.058 86.802 141.076 86.406 141.076 85.686V83.598C141.076 83.076 141.058 82.77 141.022 82.41C141.436 82.446 141.814 82.464 142.48 82.464H147.412C148.096 82.464 148.348 82.446 148.888 82.41C148.852 82.752 148.834 83.022 148.834 83.562ZM142.858 83.832V84.822H147.106V83.832H142.858ZM155.926 73.77H158.392C158.302 74.436 158.248 75.318 158.248 76.506C158.248 78.072 158.392 80.232 158.59 81.33C158.896 83.202 159.472 84.354 160.048 84.354C160.318 84.354 160.57 84.084 160.786 83.58C161.218 82.608 161.542 81.528 161.74 80.322C162.37 81.042 162.658 81.312 163.54 81.96C162.604 85.47 161.56 86.928 160.03 86.928C158.824 86.928 157.852 86.046 157.132 84.318C156.394 82.518 156.07 79.908 155.998 74.922C155.98 74.292 155.98 74.166 155.926 73.77ZM165.016 75.48L166.906 74.58C169.174 77.298 170.434 80.304 170.956 84.264L168.724 85.11C168.616 83.418 168.202 81.546 167.572 79.908C166.96 78.27 166.096 76.812 165.016 75.48Z" fill="white"/>
<path d="M144.224 193.553C144.496 191.349 145.462 189.234 146.947 187.582C147.77 186.667 148.746 185.892 149.525 184.938C150.747 183.446 151.445 181.531 151.468 179.601" stroke="#20ABE2" stroke-width="1.39637" stroke-linecap="round" stroke-linejoin="round"/>
<path d="M148.272 194.37C148.545 192.167 149.511 190.051 150.995 188.399C151.819 187.484 152.794 186.709 153.574 185.755C154.796 184.263 155.494 182.348 155.517 180.418" stroke="#20ABE2" stroke-width="1.39637" stroke-linecap="round" stroke-linejoin="round"/>
<path d="M176.21 156.436L175.808 158.949" stroke="#20ABE2" stroke-width="1.39637" stroke-linecap="round" stroke-linejoin="round"/>
<path d="M180.744 158.905L178.971 160.82" stroke="#20ABE2" stroke-width="1.39637" stroke-linecap="round" stroke-linejoin="round"/>
<path d="M183.568 163.983L181.06 164.346" stroke="#20ABE2" stroke-width="1.39637" stroke-linecap="round" stroke-linejoin="round"/>
<path d="M187.912 175.788C187.735 176.263 187.346 176.603 186.953 176.863C186.702 177.031 186.432 177.178 186.15 177.206C185.845 177.236 185.557 177.119 185.284 176.989C184.307 176.521 183.432 175.839 182.562 175.16" stroke="#20ABE2" stroke-width="1.39637" stroke-linecap="round" stroke-linejoin="round"/>
<path d="M189.96 174.9C189.755 175.169 189.515 175.4 189.238 175.556C188.51 175.965 187.681 175.793 186.951 175.535C186.048 175.214 185.173 174.762 184.488 174.045" stroke="#20ABE2" stroke-width="1.39637" stroke-linecap="round" stroke-linejoin="round"/>
<path d="M176.964 174.331C177.411 173.244 177.841 172.069 178.686 171.341C179.093 170.992 179.568 170.77 180.048 170.61C181.5 170.123 183.045 170.158 184.402 170.708C185.78 171.266 186.943 172.241 188.181 173.067" stroke="#20ABE2" stroke-width="1.39637" stroke-linecap="round" stroke-linejoin="round"/>
<path d="M186.078 177.211C185.575 178.049 184.607 178.507 183.795 178.281C183.481 178.193 183.197 178.016 182.911 177.855C182.257 177.485 181.612 177.092 180.967 176.703C180.763 176.58 180.553 176.466 180.346 176.354C179.864 176.094 179.383 175.935 178.833 175.907C178.347 175.882 177.849 175.947 177.365 176.098C177.151 176.166 176.937 176.25 176.729 176.35C176.427 176.496 176.159 176.149 176.318 175.819C176.318 175.814 176.322 175.81 176.324 175.807C176.553 175.326 176.76 174.83 176.962 174.336C177.409 173.25 177.84 172.074 178.684 171.346" stroke="#20ABE2" stroke-width="1.39637" stroke-linecap="round" stroke-linejoin="round"/>
<path d="M128.509 154.567C128.332 155.02 128.4 155.563 128.519 156.054C128.595 156.37 128.698 156.687 128.884 156.936C129.087 157.206 129.37 157.369 129.652 157.508C130.299 157.827 130.972 158.055 131.651 158.248" stroke="#20ABE2" stroke-width="1.39637" stroke-linecap="round" stroke-linejoin="round"/>
<path d="M137.416 162.61C137.788 161.535 138.225 160.415 138.076 159.247C138.004 158.684 137.799 158.151 137.553 157.655C136.806 156.145 135.658 154.9 134.32 154.143C132.389 153.052 130.236 152.865 128.286 151.844C127.971 151.679 127.618 151.911 127.59 152.307C127.564 152.651 127.594 152.998 127.694 153.329C127.962 154.192 128.677 154.762 129.375 155.193C129.877 155.505 130.403 155.777 130.943 155.97" stroke="#20ABE2" stroke-width="1.39637" stroke-linecap="round" stroke-linejoin="round"/>
<path d="M128.935 156.999C128.765 157.957 129.177 159.051 129.912 159.57C130.198 159.773 130.517 159.889 130.829 160.019C131.543 160.315 132.263 160.587 132.979 160.864C133.207 160.953 133.431 161.05 133.657 161.148C134.173 161.374 134.627 161.665 135.044 162.098C135.414 162.482 135.735 162.933 135.991 163.429C136.105 163.65 136.205 163.878 136.291 164.113C136.417 164.455 136.833 164.45 136.931 164.106C136.931 164.101 136.933 164.097 136.936 164.092C137.078 163.592 137.245 163.098 137.413 162.61C137.785 161.534 138.223 160.415 138.074 159.247" stroke="#20ABE2" stroke-width="1.39637" stroke-linecap="round" stroke-linejoin="round"/>
<path d="M174 163.595C163.655 161.419 154.416 158.826 144.701 154.381C142.342 159.885 140.138 164.467 138.192 170.132L138.164 170.325C148.451 175.005 159.424 178.173 170.623 179.692" fill="white"/>
<path d="M174 163.595C163.655 161.419 154.416 158.826 144.701 154.381C142.342 159.885 140.138 164.467 138.192 170.132L138.164 170.325C148.451 175.005 159.424 178.173 170.623 179.692" stroke="#20A9E0" stroke-width="1.39637" stroke-linecap="round" stroke-linejoin="round"/>
<path d="M170.932 179.711C172.759 175.496 174.083 170.602 175.179 166.01Z" fill="white"/>
<path d="M170.932 179.711C172.759 175.496 174.083 170.602 175.179 166.01" stroke="#20A9E0" stroke-width="1.39637" stroke-linecap="round" stroke-linejoin="round"/>
<path d="M96.2314 266.623C101.058 267.214 117.547 269.771 123.982 269.574" stroke="#20A9E0" stroke-width="1.39637" stroke-linecap="round" stroke-linejoin="round"/>
<path d="M123.981 268.589C124.384 269.769 126.998 270.754 127.198 269.574C127.398 268.394 127.6 268.394 128.606 268.983C129.611 269.574 130.817 269.769 131.019 268.391C131.219 267.014 132.45 267.572 133.03 267.998C133.835 268.589 135.041 267.407 135.241 266.227" stroke="#20A9E0" stroke-width="1.39637" stroke-linecap="round" stroke-linejoin="round"/>
<path d="M133.633 259.145C133.633 259.145 135.241 260.718 136.046 261.309C136.851 261.901 139.202 266.246 139.465 267.014C139.868 268.193 138.66 268.98 137.857 268.193C137.054 267.407 134.438 264.849 134.438 264.849" stroke="#20A9E0" stroke-width="1.39637" stroke-linecap="round" stroke-linejoin="round"/>
<path d="M132.025 258.751C130.617 259.145 130.015 260.718 129.412 260.916C128.872 261.093 125.793 262.096 123.982 262.882C123.463 263.108 120.766 266.227 120.563 266.62" stroke="#20A9E0" stroke-width="1.39637" stroke-linecap="round" stroke-linejoin="round"/>
<path d="M108.898 268.196C110.507 268.196 118.752 267.802 119.557 267.409" stroke="#20A9E0" stroke-width="1.39637" stroke-linecap="round" stroke-linejoin="round"/>
<path d="M87.3828 264.851C89.1934 264.458 92.5634 263.765 93.0125 262.885C93.4151 262.098 94.4205 262.098 95.2234 262.294C96.0287 262.492 99.245 266.425 99.4475 267.016" stroke="#20A9E0" stroke-width="1.39637" stroke-linecap="round" stroke-linejoin="round"/>
<path d="M100.438 188.846C102.968 192.574 107.97 194.513 112.424 193.496" stroke="#20A9E0" stroke-width="1.39637" stroke-linecap="round" stroke-linejoin="round"/>
<path d="M106.952 186.334C111.111 190.344 116.385 193.235 122.049 194.615" stroke="#20A9E0" stroke-width="1.39637" stroke-linecap="round" stroke-linejoin="round"/>
<path d="M101.717 191.794C101.689 192.72 101.517 194.207 100.721 195.822C100.263 196.751 99.7229 197.47 99.2598 197.994" stroke="#20A9E0" stroke-width="1.39637" stroke-linecap="round" stroke-linejoin="round"/>
<path d="M97.2471 192.972C98.5248 198.439 98.5829 204.176 97.4146 209.666" stroke="#20A9E0" stroke-width="1.39637" stroke-linecap="round" stroke-linejoin="round"/>
<path d="M110.03 172.592C116.214 172.047 122.009 176.278 125.076 181.559C128.144 186.839 129.035 193.023 129.873 199.041C130.189 201.313 130.499 203.67 129.808 205.862C129.116 208.052 127.124 210.031 124.783 209.958" stroke="#20A9E0" stroke-width="1.39637" stroke-linecap="round" stroke-linejoin="round"/>
<path d="M107.268 172.38C102.544 170.992 97.3795 173.79 94.5704 177.756C91.7614 181.721 90.7769 186.618 89.8577 191.358C88.9523 196.034 88.0424 200.816 88.7801 205.52C89.5179 210.223 92.2292 214.913 96.7069 216.765" stroke="#20A9E0" stroke-width="1.39637" stroke-linecap="round" stroke-linejoin="round"/>
<path d="M98.502 205.659C100.131 208.575 101.8 211.545 104.255 213.816C106.708 216.088 110.122 217.589 113.397 216.942C116.224 216.381 118.552 214.301 120.067 211.859C121.47 209.597 122.273 207.025 123.02 204.463" stroke="#20A9E0" stroke-width="1.39637" stroke-linecap="round" stroke-linejoin="round"/>
<path d="M122.789 198.363C123.236 200.981 123.348 203.656 123.122 206.302" stroke="#20A9E0" stroke-width="1.39637" stroke-linecap="round" stroke-linejoin="round"/>
<path d="M84.8066 224.382C88.2836 221.329 92.5262 219.118 97.0575 218.003C99.0659 217.508 101.154 217.217 103.015 216.335C102.92 216.384 102.824 216.43 102.727 216.479" stroke="#20A9E0" stroke-width="1.39637" stroke-linecap="round" stroke-linejoin="round"/>
<path d="M140.586 224.382C137.109 221.329 132.866 219.118 128.335 218.003C126.326 217.508 124.239 217.217 122.377 216.335C122.472 216.384 122.568 216.43 122.666 216.479" stroke="#20A9E0" stroke-width="1.39637" stroke-linecap="round" stroke-linejoin="round"/>
<path d="M126.02 219.686C125.277 223.638 122.587 227.196 118.938 229.041C117.113 229.965 115.072 230.452 113.019 230.496H112.433C110.38 230.452 108.337 229.965 106.515 229.041C102.868 227.194 100.175 223.638 99.4326 219.686" stroke="#20A9E0" stroke-width="1.39637" stroke-linecap="round" stroke-linejoin="round"/>
<path d="M83.06 227.832C82.6806 228.679 82.7179 228.4 82.278 229.682C82.278 229.682 81.9126 230.564 81.6985 231.511C80.2742 237.816 79.9112 244.593 79.1967 251.053C78.7382 255.18 78.303 259.22 77.421 263.23C76.9183 265.52 76.4808 268.008 76.7344 270.379" stroke="#20A9E0" stroke-width="1.39637" stroke-linecap="round" stroke-linejoin="round"/>
<path d="M142.203 228.071C145.326 242.374 147.316 255.74 149.294 270.381" stroke="#20A9E0" stroke-width="1.39637" stroke-linecap="round" stroke-linejoin="round"/>
<path d="M120.641 212.02C120.601 214.854 121.183 217.698 122.307 220.177" stroke="#20A9E0" stroke-width="1.39637" stroke-linecap="round" stroke-linejoin="round"/>
<path d="M104.222 214.222C104.93 216.3 104.706 218.662 103.624 220.577" stroke="#20A9E0" stroke-width="1.39637" stroke-linecap="round" stroke-linejoin="round"/>
<path d="M152.24 167.976L149.173 166.98L148.761 168.246C148.582 168.798 148.363 168.993 147.951 169.021C147.532 169.04 146.967 168.882 146.178 168.616C146.21 168.335 146.162 167.872 146.096 167.576C146.664 167.785 147.316 167.997 147.486 168.053C147.667 168.104 147.756 168.072 147.805 167.916L148.212 166.666L145.145 165.67L145.438 164.769L148.505 165.765L148.801 164.858L146.262 164.034L146.55 163.15L149.089 163.973L149.385 163.066C148.554 162.873 147.723 162.656 146.953 162.44C147.009 162.191 147.011 161.781 146.985 161.548C148.882 162.079 151.077 162.561 152.459 162.64L152.878 163.627C152.129 163.58 151.27 163.447 150.383 163.271L150.053 164.288L152.662 165.135L152.373 166.019L149.764 165.172L149.469 166.08L152.536 167.076L152.243 167.976H152.24Z" fill="#20A7DE"/>
<path d="M160.485 167.753C159.949 168.849 159.372 169.726 158.697 170.373C158.877 171.041 159.181 171.63 159.654 172.109C159.384 172.228 158.981 172.491 158.758 172.703C158.332 172.212 158.041 171.663 157.855 171.046C157.261 171.421 156.589 171.665 155.802 171.786C155.791 171.637 155.742 171.388 155.679 171.162L155.213 171.407C155.062 171.16 154.848 170.867 154.594 170.562C154.026 170.755 153.331 170.778 152.444 170.678C152.474 170.397 152.414 170.034 152.325 169.798C152.981 169.917 153.503 169.95 153.936 169.859C153.822 169.736 153.696 169.617 153.57 169.508L153.438 169.626L152.712 169.114C152.97 168.898 153.277 168.612 153.594 168.302L152.856 168.062L153.098 167.318L154.224 167.683C154.38 167.52 154.534 167.362 154.666 167.218L154.825 167.313L155.067 166.568C154.594 166.81 154.068 166.999 153.61 167.09C153.575 166.854 153.48 166.489 153.361 166.27C153.898 166.231 154.538 166.026 155.043 165.744L153.833 165.351L154.071 164.62L154.662 164.811C154.678 164.525 154.622 164.113 154.55 163.78L155.309 163.717C155.416 164.078 155.488 164.539 155.462 164.832L154.895 164.888L155.546 165.1L155.97 163.794L156.815 164.069L156.391 165.374L157.003 165.574L156.563 165.183C156.833 164.962 157.185 164.62 157.403 164.367L158.078 164.93C157.729 165.186 157.382 165.432 157.117 165.614L157.855 165.854L157.617 166.584L156.344 166.17C156.649 166.501 157.094 167.006 157.226 167.178L156.531 167.655C156.412 167.436 156.175 167.059 155.951 166.719L155.646 167.66L155.151 167.499L155.462 167.678L155.155 167.99L157.003 168.591C156.882 168.353 156.682 168.023 156.547 167.851C157.464 167.273 158.267 166.075 158.902 164.753L159.793 165.181C159.589 165.595 159.365 165.996 159.13 166.373L161.197 167.043L160.92 167.897L160.485 167.755V167.753ZM154.173 168.947C154.376 169.117 154.571 169.282 154.76 169.463C154.946 169.31 155.123 169.11 155.283 168.854L154.529 168.609L154.171 168.947H154.173ZM156.154 169.135C155.928 169.542 155.676 169.864 155.383 170.103C155.579 170.322 155.758 170.534 155.893 170.725C156.566 170.608 157.143 170.366 157.641 169.996C157.573 169.468 157.569 168.9 157.61 168.295C157.436 168.463 157.252 168.607 157.071 168.737C157.05 168.695 157.031 168.646 157.001 168.586L156.759 169.331L156.154 169.133V169.135ZM158.634 167.152C158.53 167.841 158.488 168.504 158.516 169.131C158.881 168.665 159.221 168.097 159.528 167.443L158.634 167.152Z" fill="#20A7DE"/>
<path d="M163.019 172.184C162.984 171.898 162.898 171.423 162.789 170.993L161.902 173.718L161.048 173.441L161.939 170.699C161.455 171.342 160.911 171.961 160.427 172.319C160.441 172.014 160.373 171.53 160.317 171.228C160.86 170.881 161.525 170.178 161.995 169.55L161.111 169.261L161.39 168.4L162.563 168.782L163.387 166.243L164.241 166.52L163.417 169.059L164.567 169.431L164.288 170.292L163.138 169.92L163.119 169.973C163.271 170.271 163.727 171.381 163.82 171.651L163.022 172.182L163.019 172.184ZM161.777 168.372C161.919 167.886 162.007 167.083 162.009 166.466L162.71 166.506C162.731 167.129 162.645 167.918 162.528 168.412L161.777 168.374V168.372ZM165.347 167.506C164.942 168.063 164.479 168.726 164.136 169.115L163.608 168.763C163.922 168.326 164.365 167.602 164.625 167.085L165.347 167.509V167.506ZM166.88 173.036L166.198 175.133L165.328 174.851L165.959 172.91L163.666 172.594L163.806 171.686L166.245 172.024L167.683 167.597L168.554 167.879L167.167 172.149L168.007 172.259L167.867 173.166L166.88 173.034V173.036ZM165.142 169.354C165.514 169.741 165.968 170.301 166.157 170.671L165.451 171.258C165.288 170.888 164.856 170.292 164.493 169.873L165.142 169.354ZM166.359 169.44C166.217 169.059 165.817 168.465 165.484 168.039L166.129 167.562C166.48 167.96 166.904 168.535 167.057 168.903L166.359 169.44Z" fill="#20A7DE"/>
<path d="M116.881 310.774C116.093 311.473 114.907 311.473 114.119 310.774L102.703 300.633C101.273 299.364 102.172 297 104.084 297L126.916 297C128.828 297 129.727 299.364 128.297 300.633L116.881 310.774Z" fill="#20AEE5"/>
</g>
<defs>
<clipPath id="clip0_1092_29000">
<rect width="232" height="312" fill="white"/>
</clipPath>
</defs>
</svg>
