<svg width="400" height="391" viewBox="0 0 400 391" fill="none" xmlns="http://www.w3.org/2000/svg">
<g clip-path="url(#clip0_1092_24203)">
<path d="M198.983 130.794C198.58 131.524 197.531 131.524 197.127 130.794L188.828 115.765C188.437 115.058 188.948 114.192 189.755 114.192L206.355 114.192C207.162 114.192 207.673 115.058 207.283 115.765L198.983 130.794Z" fill="#20AEE5"/>
<path d="M261.342 16.3863C317.948 37.003 310.922 87.9411 275.949 107.294C240.976 126.646 175.757 125.028 132.723 114.23C87.5274 102.89 78.8277 46.1008 113.647 23.3689C148.466 0.636988 211.761 -1.67159 261.342 16.3863Z" fill="#20AEE5"/>
</g>
<path d="M181.87 21.8419C181.834 22.0579 181.786 22.5739 181.762 22.8859C181.75 23.1499 181.738 23.4379 181.726 23.7379C182.518 23.6419 183.31 23.4859 183.934 23.3059L183.97 24.7939C183.286 24.9499 182.458 25.0699 181.678 25.1659C181.666 25.5259 181.666 25.8979 181.666 26.2459C181.666 26.3899 181.666 26.5339 181.666 26.6899C182.482 26.4859 183.31 26.3779 183.97 26.3779C185.818 26.3779 187.27 27.3379 187.27 28.9939C187.27 30.4099 186.526 31.4779 184.618 31.9579C184.066 32.0779 183.538 32.1139 183.046 32.1499L182.494 30.6019C183.034 30.6019 183.55 30.5899 183.97 30.5179C184.942 30.3379 185.71 29.8579 185.71 28.9819C185.71 28.1659 184.99 27.6859 183.946 27.6859C183.202 27.6859 182.422 27.8059 181.69 28.0219C181.714 28.9699 181.738 29.9059 181.738 30.3139C181.738 31.8019 181.21 32.1979 180.418 32.1979C179.254 32.1979 177.61 31.1899 177.61 29.9179C177.61 28.8739 178.81 27.7819 180.286 27.1459C180.274 26.8579 180.274 26.5699 180.274 26.2939C180.274 25.9579 180.274 25.6219 180.274 25.2859C180.046 25.2979 179.83 25.3099 179.638 25.3099C178.834 25.3099 178.366 25.2979 177.958 25.2499L177.934 23.7979C178.642 23.8819 179.158 23.8939 179.59 23.8939C179.806 23.8939 180.046 23.8819 180.286 23.8699C180.298 23.4499 180.298 23.1019 180.298 22.8979C180.298 22.6459 180.25 22.0579 180.214 21.8419H181.87ZM185.29 23.1379C186.214 23.5819 187.606 24.3739 188.242 24.8299L187.522 26.0539C186.946 25.5619 185.374 24.6619 184.63 24.3019L185.29 23.1379ZM179.086 29.8579C179.086 30.2299 179.65 30.5539 179.962 30.5539C180.178 30.5539 180.346 30.4579 180.346 30.0499C180.346 29.7499 180.334 29.1979 180.31 28.5499C179.578 28.9459 179.086 29.4379 179.086 29.8579ZM198.646 21.7459L200.11 22.0699C199.726 23.4619 199.09 24.9139 198.49 25.8379C198.166 25.6219 197.482 25.3339 197.098 25.1899C197.734 24.3499 198.31 22.9939 198.646 21.7459ZM197.362 24.4579L196.042 24.8779C195.958 24.1219 195.634 22.8739 195.286 21.9259L196.534 21.5779C196.906 22.5139 197.266 23.7139 197.362 24.4579ZM195.25 24.8059L193.954 25.3099C193.822 24.5659 193.378 23.3539 192.922 22.4419L194.134 21.9979C194.614 22.8739 195.106 24.0379 195.25 24.8059ZM189.454 23.7859L190.414 23.9059C190.426 25.0459 190.246 26.4379 189.826 27.3379L188.89 26.9179C189.274 26.1739 189.442 24.8659 189.454 23.7859ZM193.486 25.5979L192.55 26.0539C192.466 25.5859 192.238 24.9019 191.962 24.2899V32.6179H190.582V21.4219H191.962V23.7139L192.622 23.4259C192.994 24.1219 193.378 25.0099 193.486 25.5979ZM198.502 28.9579L197.722 30.0619C197.494 29.7619 197.158 29.4019 196.774 29.0419C196.414 29.6299 196.018 30.1459 195.61 30.5659C195.382 30.3499 194.866 29.9419 194.566 29.7619C195.022 29.3419 195.442 28.8019 195.814 28.1899C195.406 27.8659 194.998 27.5539 194.626 27.2779L195.334 26.3179C195.658 26.5459 196.018 26.8099 196.378 27.0739C196.57 26.6299 196.726 26.1619 196.858 25.6819L198.118 25.9579C197.926 26.6179 197.674 27.2779 197.386 27.8899C197.842 28.2619 198.238 28.6339 198.502 28.9579ZM198.514 30.5659V25.9459H199.918V32.4859H198.514V31.8619H194.554V32.5099H193.186V25.9699H194.554V30.5659H198.514ZM203.206 22.5019C203.53 22.5379 203.938 22.5619 204.202 22.5619C204.886 22.5619 206.158 22.5019 206.722 22.4539C207.022 22.4419 207.334 22.3699 207.538 22.2859L208.498 23.0299C208.33 23.2099 208.186 23.3659 208.09 23.5339C207.778 24.0499 207.322 25.0939 206.89 26.1139C207.826 26.2579 208.714 26.5459 209.494 26.8819C209.506 26.7379 209.518 26.6059 209.53 26.4739C209.566 26.0059 209.566 25.5259 209.53 25.1659L211.102 25.3459C211.054 26.1499 210.994 26.8939 210.874 27.5659C211.378 27.8539 211.81 28.1299 212.158 28.3699L211.462 30.0379C211.15 29.7499 210.802 29.4739 210.43 29.1979C209.902 30.5539 208.99 31.6099 207.382 32.4499L206.11 31.4059C207.922 30.6259 208.762 29.4859 209.158 28.3939C208.306 27.9259 207.346 27.5659 206.314 27.4219C205.882 28.4419 205.378 29.6419 204.958 30.3019C204.478 31.0219 203.902 31.3579 203.086 31.3579C202.03 31.3579 201.238 30.6259 201.238 29.4139C201.238 27.5539 202.93 26.1379 205.342 26.0299C205.678 25.2379 206.026 24.4219 206.302 23.8579C205.822 23.8819 204.79 23.9179 204.238 23.9539C203.998 23.9659 203.578 24.0019 203.266 24.0499L203.206 22.5019ZM202.642 29.1859C202.642 29.5819 202.87 29.7859 203.146 29.7859C203.386 29.7859 203.554 29.6659 203.77 29.3659C204.082 28.9219 204.406 28.1659 204.742 27.4099C203.398 27.6139 202.642 28.4299 202.642 29.1859ZM213.494 31.5859V30.3965L216.218 27.707C217.408 26.5527 217.73 26.125 217.73 25.5332V25.5156C217.73 24.7949 217.238 24.291 216.429 24.291C215.603 24.291 215.035 24.8418 215.035 25.6445V25.6738H213.4L213.394 25.6504C213.394 24.0273 214.66 22.9141 216.511 22.9141C218.251 22.9141 219.47 23.9102 219.47 25.3691V25.3867C219.47 26.3477 218.972 27.1445 217.431 28.5684L215.867 30.0273V30.1621H219.593V31.5859H213.494Z" fill="white"/>
<path d="M148.496 56.4279H140.684C140.522 57.3459 140.378 57.9399 140.162 58.5699C139.676 59.9379 139.064 60.9819 138.038 62.1339C137.516 61.4319 137.066 60.9819 136.364 60.4779C137.372 59.4699 137.876 58.6599 138.29 57.3099C138.83 55.6359 139.01 53.5299 139.01 48.8499C139.01 47.5539 138.992 46.7619 138.92 46.1319C139.622 46.2039 140.108 46.2219 141.026 46.2219H148.532C149.522 46.2219 150.008 46.2039 150.62 46.1319C150.548 46.6179 150.53 47.1039 150.53 48.1659V59.8299C150.53 60.7299 150.332 61.2519 149.882 61.5399C149.486 61.8099 148.982 61.8999 147.794 61.8999C147.218 61.8999 146.624 61.8819 145.706 61.8279C145.598 60.9639 145.49 60.5499 145.184 59.8119C146.102 59.9559 147.092 60.0279 147.83 60.0279C148.37 60.0279 148.496 59.9379 148.496 59.5419V56.4279ZM140.9 54.5919H148.496V52.1799H141.044C141.044 52.7379 141.008 53.1339 140.9 54.5919ZM141.062 50.3439H148.496V48.0939H141.062V50.3439ZM163.346 47.8779H168.26C169.43 47.8779 169.97 47.8419 170.438 47.7519V49.8219C169.88 49.7319 169.304 49.7139 168.278 49.7139H163.346V52.1439H167.342C168.494 52.1439 169.07 52.1079 169.52 52.0359V54.0519C168.926 53.9799 168.242 53.9439 167.342 53.9439H164.192C165.074 55.2039 165.614 55.7979 166.748 56.7519C168.08 57.8499 169.466 58.7319 170.96 59.3799C170.456 60.0099 170.114 60.5499 169.736 61.3239C168.278 60.5679 167.198 59.8119 165.992 58.7139C164.804 57.6159 164.156 56.8419 163.292 55.5099C163.328 56.5359 163.346 56.8239 163.346 57.1839V60.1899C163.346 60.8919 163.382 61.5399 163.472 62.1159H161.204C161.294 61.5219 161.33 60.9999 161.33 60.1899V57.2019C161.33 56.6259 161.33 56.3739 161.384 55.5279C159.908 57.8859 158.054 59.6139 155.21 61.2519C154.796 60.4599 154.544 60.0639 154.004 59.4159C156.884 57.9759 158.882 56.2839 160.448 53.9439H157.622C156.776 53.9439 156.146 53.9799 155.48 54.0519V52.0359C156.11 52.1259 156.596 52.1439 157.622 52.1439H161.33V49.7139H156.776C155.804 49.7139 155.228 49.7319 154.616 49.8219V47.7519C155.21 47.8419 155.732 47.8779 156.758 47.8779H161.33V46.7079C161.33 46.1679 161.312 45.8259 161.24 45.4299H163.436C163.364 45.8259 163.346 46.0779 163.346 46.7259V47.8779ZM176.252 61.0179L174.074 61.1439C174.056 60.8199 174.038 60.7119 173.984 60.2979C173.642 58.1199 173.516 56.7339 173.516 54.9159C173.516 52.5939 173.732 50.5419 174.254 47.8779C174.452 46.8699 174.488 46.6899 174.524 46.2039L176.9 46.4559C176.468 47.5179 176.054 49.5339 175.766 51.8379C175.586 53.1879 175.514 54.2499 175.496 55.8159C175.496 56.2119 175.478 56.3559 175.46 56.8059C175.658 56.1759 175.694 56.0499 176.396 54.4299L177.836 55.0779C176.846 57.1659 176.234 59.2539 176.234 60.5319C176.234 60.6399 176.234 60.7839 176.252 61.0179ZM178.736 50.2359L178.772 48.0759C179.582 48.2919 180.536 48.3639 182.102 48.3639C184.1 48.3639 185.81 48.2019 186.998 47.8779L187.106 50.0559C186.962 50.0739 186.692 50.1099 185.828 50.2179C184.676 50.3619 183.308 50.4339 181.976 50.4339C180.662 50.4339 180.644 50.4339 178.736 50.2359ZM179.978 53.2059L181.742 54.0339C180.842 55.0779 180.464 55.8519 180.464 56.6259C180.464 57.6519 181.454 58.1919 183.326 58.1919C184.91 58.1919 186.476 57.9399 187.61 57.5079L187.79 59.7939C187.538 59.8119 187.466 59.8299 187.052 59.9019C185.612 60.1359 184.514 60.2439 183.326 60.2439C181.094 60.2439 179.654 59.7399 178.862 58.6779C178.52 58.2279 178.322 57.5619 178.322 56.9139C178.322 55.7439 178.862 54.5379 179.978 53.2059ZM199.922 52.8819V53.7819H204.152C204.98 53.7819 205.43 53.7639 205.898 53.7099V55.2759C205.412 55.2039 204.998 55.1859 204.17 55.1859H199.418V56.1399H204.53C205.628 56.1399 206.096 56.1219 206.582 56.0499V57.8679C205.988 57.7779 205.448 57.7599 204.53 57.7599H200.948C202.334 58.7679 204.62 59.6319 206.906 60.0279C206.546 60.5139 206.402 60.7479 206.24 61.0899C206.222 61.1259 206.15 61.2879 206.042 61.5399C206.006 61.6119 205.952 61.7379 205.88 61.8819C204.458 61.5039 203.396 61.1259 202.28 60.5679C201.02 59.9379 200.246 59.3979 199.364 58.5519C199.4 59.0739 199.418 59.5419 199.418 59.7399V60.7839C199.418 61.4499 199.436 61.7199 199.526 62.0799H197.384C197.474 61.6839 197.492 61.3959 197.492 60.8019V59.7399C197.492 59.3259 197.51 58.9839 197.546 58.5519C196.628 59.4699 195.728 60.0819 194.288 60.7479C193.298 61.2159 192.362 61.5399 191.084 61.8639C190.796 61.1799 190.49 60.6219 190.076 60.0639C191.606 59.8119 192.704 59.4879 193.964 58.9119C194.828 58.5159 195.368 58.2099 195.908 57.7599H192.434C191.516 57.7599 190.994 57.7779 190.4 57.8679V56.0499C190.886 56.1219 191.336 56.1399 192.434 56.1399H197.492V55.1859H193.928C193.226 55.1859 192.83 55.2039 192.398 55.2399C192.452 54.8439 192.47 54.3759 192.47 53.7999V51.5679C192.47 50.9919 192.488 50.5059 192.524 50.0019C192.002 50.6139 191.606 50.9919 190.868 51.5679C190.562 50.7939 190.346 50.3799 189.932 49.8039C191.336 48.8139 192.308 47.7879 193.226 46.3299C193.478 45.9339 193.676 45.5199 193.802 45.1599L195.89 45.5019C195.206 46.5999 195.206 46.5999 194.9 47.0139H198.122C198.572 46.3479 198.824 45.8619 199.058 45.1959L201.092 45.4479C200.642 46.2579 200.462 46.5639 200.156 47.0139H204.026C204.836 47.0139 205.304 46.9959 205.79 46.9239V48.5979C205.34 48.5439 204.98 48.5259 204.296 48.5259H199.922V49.3899H203.378C204.26 49.3899 204.548 49.3719 205.088 49.2999V50.7759C204.548 50.7039 204.35 50.7039 203.378 50.7039H199.922V51.5679H203.378C204.278 51.5679 204.53 51.5499 205.088 51.4779V52.9539C204.602 52.8999 204.332 52.8819 203.378 52.8819H199.922ZM198.05 52.8819H194.342V53.7819H198.05V52.8819ZM198.05 51.5679V50.7039H194.342V51.5679H198.05ZM198.05 49.3899V48.5259H194.342V49.3899H198.05ZM215.366 48.4899V47.3919C215.366 46.4559 215.348 46.0239 215.258 45.4299H217.526C217.454 45.9879 217.418 46.4559 217.418 47.3199V48.4899H222.35C223.142 48.4899 223.52 48.4719 223.988 48.4179C223.934 48.9219 223.916 49.2999 223.916 50.0019V55.4919C223.916 56.3019 223.934 56.7699 224.006 57.2919H221.882V56.2119H217.418V59.8659C217.418 60.9459 217.454 61.4679 217.544 62.0979H215.24C215.33 61.4319 215.366 60.8739 215.366 59.8659V56.2119H211.118V57.2919H208.994C209.066 56.6979 209.084 56.2479 209.084 55.4919V49.9839C209.084 49.3179 209.066 48.9939 209.012 48.4179C209.534 48.4719 209.912 48.4899 210.632 48.4899H215.366ZM215.366 50.3979H211.118V54.3039H215.366V50.3979ZM217.418 54.3039H221.882V50.3979H217.418V54.3039ZM237.11 51.0099L237.092 52.5579C237.092 52.6299 237.11 52.7739 237.11 52.9899C237.506 53.8179 237.686 54.5559 237.686 55.5279C237.686 57.4899 236.75 59.1819 235.004 60.3879C234.248 60.9099 233.42 61.2879 231.746 61.8639C231.242 60.7479 231.062 60.4779 230.468 59.8299C231.944 59.5419 232.682 59.2899 233.528 58.7859C234.752 58.0839 235.472 57.1659 235.616 56.1579C235.094 56.9859 234.158 57.4359 232.97 57.4359C232.142 57.4359 231.494 57.2379 230.882 56.7879C230.036 56.1759 229.64 55.3839 229.64 54.3579C229.64 52.4499 231.134 51.0819 233.222 51.0819C233.996 51.0819 234.68 51.2799 235.094 51.6219C235.076 51.5319 235.076 51.5319 235.076 51.4059C235.058 51.3699 235.058 50.3619 235.058 49.8759C232.484 49.9479 230.792 50.0019 230 50.0559C227.282 50.2539 227.282 50.2539 226.796 50.3259L226.724 48.1839C227.12 48.2199 227.282 48.2199 227.606 48.2199C228.056 48.2199 228.344 48.2199 230.666 48.1299C231.836 48.0939 232.016 48.0939 233.492 48.0579C234.086 48.0399 234.086 48.0399 235.022 48.0039C235.004 46.2939 235.004 46.2939 234.914 45.8259L237.182 45.8079C237.11 46.3659 237.11 46.4019 237.092 47.9499C240.224 47.9319 241.628 47.8959 242.294 47.8239L242.312 49.8939C241.646 49.8399 240.782 49.8039 239.288 49.8039C238.856 49.8039 238.532 49.8039 237.11 49.8399V51.0099ZM235.04 53.9799C235.04 53.2239 234.41 52.7379 233.42 52.7379C232.502 52.7379 231.746 53.3859 231.746 54.1779C231.746 55.0059 232.376 55.5999 233.276 55.5999C234.302 55.5999 235.04 54.9159 235.04 53.9799ZM250.592 53.1159L250.628 53.1519C252.266 52.5039 253.058 52.3239 254.408 52.3239C257.486 52.3239 259.466 53.9079 259.466 56.3739C259.466 58.0839 258.62 59.4519 257.018 60.3519C255.848 61.0179 254.318 61.3779 252.662 61.3779C251.15 61.3779 249.89 61.0899 249.17 60.5499C248.486 60.0459 248.09 59.2899 248.09 58.4799C248.09 56.9859 249.386 55.9059 251.186 55.9059C252.446 55.9059 253.544 56.4279 254.3 57.3819C254.66 57.8319 254.858 58.2279 255.128 59.0019C256.622 58.4439 257.27 57.6699 257.27 56.3919C257.27 54.9879 255.884 54.0699 253.706 54.0699C251.078 54.0699 248.45 55.1319 246.29 57.0939L245.066 55.1499C245.696 54.8439 246.416 54.3579 247.604 53.4579C249.278 52.1799 251.618 50.1639 252.986 48.7779C253.022 48.7419 253.202 48.5619 253.31 48.4539L253.292 48.4359C252.608 48.5259 251.456 48.5979 248.198 48.7419C247.802 48.7599 247.676 48.7779 247.334 48.8319L247.244 46.6719C247.856 46.7439 248.378 46.7799 249.368 46.7799C250.898 46.7799 253.094 46.6899 254.84 46.5639C255.47 46.5099 255.668 46.4739 255.956 46.3299L257.072 47.9139C256.766 48.0759 256.64 48.1839 256.136 48.6519C255.236 49.4799 253.922 50.6499 253.31 51.1719C252.986 51.4419 251.69 52.4139 251.33 52.6479C250.88 52.9539 250.88 52.9539 250.592 53.1159ZM253.184 59.5239C252.86 58.2819 252.176 57.6339 251.168 57.6339C250.52 57.6339 250.106 57.9579 250.106 58.4619C250.106 59.1819 250.916 59.5959 252.248 59.5959C252.59 59.5959 252.68 59.5959 253.184 59.5239ZM143.384 81.2939V80.5019H139.118C138.47 80.5019 137.948 80.5199 137.462 80.5739V79.0079C137.894 79.0619 138.362 79.0799 139.154 79.0799H143.384V78.3959H139.568C138.92 78.3959 138.47 78.4139 138.056 78.4499C138.092 78.0719 138.11 77.6939 138.11 77.2439V76.0559C138.11 75.5519 138.092 75.2279 138.056 74.7959C138.524 74.8319 138.902 74.8499 139.586 74.8499H143.384V74.1659H138.452C137.57 74.1659 136.976 74.2019 136.346 74.2739V72.4919C136.904 72.5639 137.516 72.5999 138.56 72.5999H143.384C143.366 71.9699 143.348 71.7719 143.276 71.3759H145.454C145.364 71.7719 145.346 71.9519 145.328 72.5999H150.386C151.43 72.5999 152.024 72.5639 152.6 72.4919V74.2739C151.988 74.2019 151.358 74.1659 150.494 74.1659H145.328V74.8499H149.396C150.08 74.8499 150.476 74.8319 150.908 74.7959C150.872 75.1919 150.854 75.4979 150.854 76.0559V77.2439C150.854 77.7839 150.872 78.0539 150.908 78.4499C150.512 78.4139 150.044 78.3959 149.468 78.3959H145.328V79.0799H149.36C150.422 79.0799 150.782 79.0619 151.286 79.0259C151.232 79.4759 151.232 79.7279 151.232 80.6639V81.2939C152.006 81.2939 152.438 81.2579 152.798 81.2039V82.9139C152.366 82.8599 152.024 82.8239 151.232 82.8239V83.8679C151.232 84.8039 151.25 85.2899 151.322 85.8119H149.306V85.1099H145.328V86.1179C145.328 87.7379 144.878 88.0799 142.682 88.0799C142.25 88.0799 141.53 88.0439 140.954 88.0079C140.846 87.2879 140.738 86.9279 140.396 86.2259C141.368 86.3339 142.034 86.3879 142.682 86.3879C143.24 86.3879 143.384 86.2979 143.384 85.9739V85.1099H139.154C138.344 85.1099 137.912 85.1279 137.372 85.1999V83.5259C137.858 83.5799 138.164 83.5979 139.082 83.5979H143.384V82.8239H138.218C137.192 82.8239 136.706 82.8419 136.238 82.9139V81.2039C136.706 81.2759 137.156 81.2939 138.182 81.2939H143.384ZM145.328 81.2939H149.306V80.5019H145.328V81.2939ZM145.328 82.8239V83.5979H149.306V82.8239H145.328ZM143.384 76.2539H140.018V76.9919H143.384V76.2539ZM145.328 76.2539V76.9919H148.946V76.2539H145.328ZM163.94 82.9139H162.554C161.852 82.9139 161.528 82.9319 161.132 82.9859V81.2579C160.952 81.7079 160.88 81.8339 160.646 82.3199C160.142 81.8159 159.926 81.6539 159.332 81.3299C159.782 80.5919 160.124 79.8359 160.358 79.0439H159.224L159.26 86.3339C159.26 86.8919 159.152 87.2699 158.882 87.5399C158.63 87.7739 158.072 87.8999 157.208 87.8999C156.812 87.8999 156.254 87.8819 155.714 87.8459C155.678 87.1619 155.588 86.7479 155.336 86.0819C156.074 86.2079 156.596 86.2619 156.938 86.2619C157.424 86.2619 157.532 86.1899 157.514 85.8299L157.496 81.5279C156.812 83.1119 155.984 84.2999 154.85 85.3439C154.58 84.4979 154.364 84.0479 153.95 83.3819C155.408 82.1399 156.218 80.9879 156.992 79.0439H155.75C155.066 79.0439 154.652 79.0619 154.238 79.1339V77.2259C154.688 77.2979 155.12 77.3159 155.858 77.3159H157.658C156.794 76.4699 156.092 75.8759 155.264 75.2819L156.38 74.2019C157.388 74.9579 157.478 75.0119 157.928 75.4079C158.522 74.9399 158.918 74.4899 159.386 73.8239H156.254C155.624 73.8239 155.174 73.8419 154.706 73.8959V72.0419C155.192 72.0959 155.606 72.1139 156.398 72.1139H159.476C160.394 72.1139 160.628 72.0959 161.006 72.0599L161.978 73.1039C161.906 73.1939 161.762 73.3739 161.582 73.6259C160.808 74.6879 159.764 75.8759 159.062 76.4519C159.224 76.6319 159.296 76.6859 159.458 76.8839L159.062 77.3159H160.142C160.772 77.3159 161.114 77.2979 161.456 77.2619L162.23 78.2159C162.158 78.3599 162.104 78.4859 162.014 78.7739C163.148 78.5039 164.084 78.1439 164.966 77.6579C164.336 77.0459 163.868 76.4699 163.49 75.8039C163.058 76.3799 162.806 76.6499 162.104 77.3879C161.69 76.8839 161.294 76.5419 160.736 76.1639C162.086 74.9939 162.806 74.0579 163.418 72.6899C163.67 72.1319 163.76 71.8799 163.868 71.3219L165.74 71.6819C165.686 71.7719 165.578 72.0239 165.47 72.3119C165.38 72.5459 165.308 72.7079 165.164 73.0139H168.89C169.736 73.0139 170.33 72.9779 170.798 72.9239V74.7599C170.384 74.7059 170.06 74.6879 169.502 74.6879C168.944 76.0199 168.566 76.6139 167.72 77.5139C168.782 78.0179 169.628 78.2519 171.176 78.5219C170.744 79.2239 170.618 79.5299 170.348 80.3939C168.386 79.8359 167.342 79.4039 166.298 78.7199C165.812 79.0619 165.398 79.2779 164.624 79.6379L166.46 79.6559C166.442 79.7819 166.442 79.7819 166.442 79.8899C166.424 79.9799 166.406 80.0879 166.388 80.2139C166.388 80.3039 166.37 80.3399 166.352 80.5019C166.334 80.7539 166.298 80.8799 166.262 81.2039H168.818C169.61 81.2039 169.916 81.1859 170.24 81.1319C170.186 81.5459 170.186 81.5459 170.168 81.9239C170.024 84.0659 169.79 85.7039 169.538 86.4419C169.178 87.5399 168.71 87.8279 167.306 87.8279C166.802 87.8279 166.226 87.7919 165.398 87.7019C165.344 86.9819 165.254 86.5859 164.984 85.8299C165.812 85.9919 166.514 86.0819 167.054 86.0819C167.63 86.0819 167.81 85.8659 168.008 84.9479C168.134 84.3539 168.188 83.8139 168.242 82.9139H165.884C165.11 85.3799 163.688 86.8559 160.844 88.0979C160.52 87.4859 160.214 87.0359 159.728 86.4959C162.032 85.6319 163.22 84.6239 163.94 82.9139ZM162.662 81.2039H164.39C164.444 80.6999 164.48 80.2859 164.48 79.8539C164.48 79.7819 164.48 79.7639 164.462 79.7099C163.778 79.9979 163.4 80.1239 162.41 80.4479C162.194 79.9619 162.104 79.8179 161.816 79.3679C161.582 80.1239 161.438 80.5019 161.186 81.1499C161.51 81.1859 161.852 81.2039 162.662 81.2039ZM167.576 74.6879H164.75C165.092 75.3899 165.596 76.0019 166.298 76.6319C166.946 75.9659 167.234 75.5519 167.576 74.6879ZM181.364 75.7859H181.022C180.23 77.3879 179.294 78.7919 178.07 80.1779C177.638 79.4399 177.386 79.1159 176.774 78.4859C178.142 77.0819 179.024 75.7139 179.798 73.8959C180.248 72.8159 180.518 71.9159 180.608 71.2859L182.642 71.8799C182.462 72.3119 182.408 72.4739 182.282 72.8339C182.012 73.5899 181.994 73.6439 181.832 74.0399H186.728C187.61 74.0399 188.168 74.0039 188.672 73.9319V75.8759C188.15 75.8219 187.52 75.7859 186.728 75.7859H183.308V78.0899H186.242C186.998 78.0899 187.484 78.0539 188.024 77.9819V79.9259C187.448 79.8539 186.908 79.8179 186.224 79.8179H183.308V82.1219H186.26C187.034 82.1219 187.52 82.1039 188.06 82.0139V83.9759C187.466 83.9039 186.944 83.8679 186.26 83.8679H183.308V85.9379C183.308 87.0179 183.344 87.5939 183.434 88.0979H181.256C181.346 87.5759 181.364 87.0359 181.364 85.9379V75.7859ZM176.09 71.2319L178.088 71.9339C177.89 72.3839 177.836 72.5099 177.674 72.9419C177.386 73.7159 177.386 73.7159 176.45 75.8219V85.7939C176.45 86.6399 176.486 87.3599 176.576 88.0259H174.416C174.506 87.3419 174.542 86.7299 174.542 85.7939V80.6639C174.542 80.2139 174.542 80.1239 174.596 78.6119C173.966 79.4579 173.516 80.0159 172.868 80.6819C172.616 79.8539 172.364 79.3319 171.914 78.5759C173.246 77.3699 174.416 75.6779 175.334 73.6079C175.73 72.6719 175.982 71.9339 176.09 71.2319ZM197.42 78.6659H192.92C192.092 78.6659 191.624 78.6839 191.066 78.7559V77.0459C191.57 77.0999 192.038 77.1179 192.92 77.1179H195.098C194.828 76.5419 194.63 76.1279 194.432 75.7859H192.488C191.606 75.7859 190.922 75.8219 190.346 75.8759V74.0759C190.904 74.1479 191.48 74.1839 192.398 74.1839H192.974C192.632 73.5539 192.416 73.2659 191.75 72.5099L193.55 71.8259C194.162 72.6719 194.414 73.1039 194.936 74.1839H195.962V72.9059C195.962 72.3659 195.926 71.8619 195.872 71.5019H197.834C197.798 71.8259 197.78 72.2219 197.78 72.8339V74.1839H199.058V72.8339C199.058 72.2579 199.04 71.8439 199.004 71.5019H200.966C200.912 71.8439 200.876 72.3299 200.876 72.9059V74.1839H202.01C202.64 73.2839 202.982 72.6539 203.306 71.7719L205.16 72.4559C204.728 73.1759 204.44 73.6259 204.044 74.1839H204.548C205.484 74.1839 206.042 74.1479 206.582 74.0759V75.8759C206.024 75.8219 205.322 75.7859 204.44 75.7859H202.64C202.298 76.5059 202.226 76.6679 201.974 77.1179H204.062C204.944 77.1179 205.394 77.0999 205.916 77.0459V78.7559C205.358 78.6839 204.908 78.6659 204.062 78.6659H199.364V79.5299H203.126C203.936 79.5299 204.476 79.5119 204.98 79.4399V81.0599C204.476 80.9879 203.918 80.9699 203.126 80.9699H199.364V81.8699H204.386C205.412 81.8699 206.042 81.8339 206.564 81.7619V83.5619C205.898 83.4899 205.232 83.4539 204.404 83.4539H200.786C201.398 83.9759 202.208 84.4619 203.234 84.8939C204.386 85.3799 205.322 85.6319 206.978 85.9199C206.474 86.6039 206.258 86.9999 205.952 87.7559C202.928 86.9279 200.894 85.8299 199.274 84.1919C199.328 84.8759 199.328 85.0379 199.328 85.4699V86.3519C199.328 87.1079 199.364 87.6659 199.454 88.1699H197.33C197.402 87.6479 197.438 87.0539 197.438 86.3339V85.4699C197.438 85.0559 197.438 84.9839 197.492 84.2459C196.646 85.1099 195.98 85.6319 194.9 86.2259C193.748 86.8559 192.65 87.3239 191.228 87.7379C190.94 87.1079 190.598 86.5679 190.13 86.0099C192.758 85.4519 194.576 84.6599 196.016 83.4539H192.668C191.822 83.4539 191.174 83.4899 190.49 83.5619V81.7619C191.066 81.8339 191.678 81.8699 192.65 81.8699H197.42V80.9699H193.856C193.064 80.9699 192.524 80.9879 192.02 81.0599V79.4399C192.524 79.5119 193.046 79.5299 193.856 79.5299H197.42V78.6659ZM197.006 77.1179H199.976C200.246 76.5959 200.39 76.2719 200.57 75.7859H196.466C196.718 76.3259 196.826 76.5959 197.006 77.1179ZM220.334 76.6859L222.152 75.7859C223.394 77.4959 224.33 79.4399 224.852 81.5099L222.8 82.5359C222.44 80.6459 221.324 77.9999 220.334 76.6859ZM215.042 72.7259L215.006 72.9599C214.916 73.4819 214.79 74.2199 214.61 75.1919C214.556 75.4979 214.556 75.4979 214.502 75.7319C215.042 75.7139 215.294 75.6959 215.618 75.6959C216.806 75.6959 217.688 76.0199 218.282 76.6499C218.894 77.3339 219.128 78.1979 219.128 79.8359C219.128 82.9319 218.606 85.3979 217.742 86.3879C217.238 86.9819 216.698 87.1979 215.744 87.1979C214.916 87.1979 214.178 87.0539 212.972 86.6579C212.99 86.3159 213.008 86.0459 213.008 85.8659C213.008 85.3979 212.972 85.0379 212.828 84.3359C213.8 84.7679 214.826 85.0559 215.456 85.0559C215.978 85.0559 216.266 84.7139 216.536 83.8319C216.824 82.8959 217.004 81.2579 217.004 79.7279C217.004 78.0719 216.59 77.5859 215.204 77.5859C214.826 77.5859 214.538 77.6039 214.124 77.6399C213.242 81.3299 212.432 83.5079 210.452 87.4319L208.364 86.2799C209.75 84.3899 211.136 81.1499 211.982 77.8019C211.712 77.8379 211.712 77.8379 211.136 77.9459L209.498 78.2159C209.21 78.2699 209.012 78.3239 208.76 78.3959L208.544 76.2719C209.354 76.2539 210.29 76.1639 212.378 75.8939C212.72 73.8959 212.846 72.8699 212.846 72.2579C212.846 72.1859 212.846 72.0779 212.846 71.9339L215.186 72.1679C215.132 72.3119 215.078 72.5459 215.042 72.7259ZM219.218 72.8519L220.478 72.2219C221.27 73.0679 221.756 73.7519 222.368 74.8679L221.108 75.5339C220.514 74.4359 220.01 73.7159 219.218 72.8519ZM224.51 73.6979L223.268 74.3999C222.728 73.4099 222.134 72.5639 221.432 71.7899L222.638 71.1599C223.448 71.9879 223.952 72.6719 224.51 73.6979ZM229.064 75.6779H232.376C232.682 75.1199 232.952 74.5439 233.186 73.8419H228.596C227.696 73.8419 227.03 73.8779 226.382 73.9499V71.9519C227.03 72.0239 227.714 72.0599 228.578 72.0599H240.44C241.25 72.0599 241.988 72.0239 242.636 71.9519V73.9499C241.988 73.8779 241.304 73.8419 240.44 73.8419H235.382C235.202 74.4359 234.878 75.1559 234.59 75.6779H239.972C240.926 75.6779 241.484 75.6599 242.096 75.5879C242.006 76.2899 241.988 76.8479 241.988 77.9099V85.7399C241.988 86.7299 242.024 87.5399 242.096 88.1879H240.062V87.3059H228.974V88.1699H226.94C227.03 87.4139 227.048 86.8199 227.048 85.7219V77.8919C227.048 77.0099 227.012 76.3259 226.94 75.5879C227.498 75.6599 228.146 75.6779 229.064 75.6779ZM232.826 85.5599H236.084V83.8139H232.826V85.5599ZM231.044 85.5599V77.3519H228.974V85.5599H231.044ZM232.826 77.3519V78.9539H236.084V77.3519H232.826ZM237.884 77.3519V85.5599H240.062V77.3519H237.884ZM236.084 82.1939V80.5739H232.826V82.1939H236.084ZM252.428 80.7899H253.58C254.12 80.7899 254.426 80.7719 254.786 80.7179V82.5359C254.444 82.4999 254.048 82.4819 253.58 82.4819H252.428V84.4619C253.67 84.2459 253.994 84.1919 255.218 83.9219L255.254 85.6139C253.562 86.0639 251.528 86.4599 249.188 86.8199C248.846 86.8739 248.45 86.9459 248.18 87.0179L247.91 85.0019C247.982 85.0019 248.054 85.0019 248.09 85.0019C248.486 85.0019 249.314 84.9119 250.628 84.7319V82.4819H249.476C249.008 82.4819 248.648 82.4999 248.324 82.5539V80.6999C248.666 80.7719 248.99 80.7899 249.53 80.7899H250.628V79.9799C250.628 79.5659 250.61 79.2779 250.556 78.9179H252.518C252.446 79.2059 252.428 79.4759 252.428 79.9799V80.7899ZM248.63 74.1659V72.3659C248.576 72.5099 248.576 72.5459 248.522 72.7079C248.234 73.7339 248.09 74.1299 247.46 75.7499V85.9019C247.46 86.8559 247.478 87.3779 247.55 88.0619H245.552C245.624 87.3599 245.66 86.8019 245.66 85.9019V80.9879C245.66 80.0699 245.678 79.5839 245.714 78.7739C245.264 79.6559 244.994 80.1059 244.472 80.7539C244.166 79.6919 244.04 79.3859 243.644 78.5939C245.21 76.6859 246.416 73.9319 246.848 71.3399L248.756 71.9879L248.648 72.2759C249.062 72.3479 249.476 72.3659 250.25 72.3659H253.4C254.3 72.3659 254.678 72.3479 255.182 72.2939V74.1479C254.75 74.1119 254.246 74.0939 253.598 74.0939H252.104C251.708 75.1919 251.366 76.0019 250.88 76.9379C252.284 76.8479 252.482 76.8119 253.166 76.7399C252.86 76.1459 252.752 75.9659 252.338 75.2639L253.76 74.6159C254.642 76.0559 255.02 76.7579 255.578 77.9819V74.3279C255.578 73.6799 255.56 73.3199 255.506 72.7979H257.414C257.342 73.2119 257.324 73.6079 257.324 74.3279V82.1399C257.324 82.8779 257.342 83.2739 257.396 83.6879H255.506C255.56 83.2199 255.578 82.8419 255.578 82.1579V78.6119L254.246 79.3679C254.066 78.8279 253.994 78.6299 253.85 78.2519C252.032 78.5399 251.492 78.5939 249.206 78.8099C248.9 78.8279 248.648 78.8639 248.234 78.9359L248 77.0279C248.234 77.0459 248.396 77.0459 248.648 77.0459C248.702 77.0459 248.846 77.0459 249.008 77.0459C249.548 76.0199 249.818 75.3179 250.196 74.0939H249.638C249.17 74.0939 248.9 74.1119 248.63 74.1659ZM260.33 73.9499V86.0279C260.33 87.4499 259.736 87.8819 257.738 87.8819C257.54 87.8819 257.54 87.8819 256.172 87.8639C256.1 87.1439 256.01 86.7479 255.74 85.9739C256.55 86.0819 257.252 86.1359 257.702 86.1359C258.386 86.1359 258.53 86.0459 258.53 85.6679V73.8419C258.53 72.8339 258.512 72.4199 258.422 71.7719H260.438C260.366 72.3659 260.33 72.9239 260.33 73.9499Z" fill="white"/>
<g opacity="0.8">
<path d="M225.82 177.412C227.741 183.237 225.31 185.735 228.282 192.129C231.047 198.078 235.952 200.93 238.908 202.133C242.175 203.468 248.35 199.357 251.601 195.954" stroke="#20AEE5" stroke-width="2.39044" stroke-linecap="round" stroke-linejoin="round"/>
<path d="M225.415 168.774C227.754 173.077 231.965 175.679 234.315 176.153" stroke="#20AEE5" stroke-width="2.39044" stroke-linecap="round" stroke-linejoin="round"/>
<path d="M233.442 167.484C237.148 173.672 242.55 176.672 248.713 177.484" stroke="#20AEE5" stroke-width="2.39044" stroke-linecap="round" stroke-linejoin="round"/>
<path d="M251.576 176.062C254.078 180.369 256.895 188.257 256.843 192.146C256.775 197.126 256.951 201.636 252.668 204.449" stroke="#20AEE5" stroke-width="2.39044" stroke-linecap="round" stroke-linejoin="round"/>
<path d="M244.817 150.85C255.602 147.727 265.025 160.372 270.148 172.245C275.048 183.603 276.925 195.958 269.24 199.978" stroke="#20AEE5" stroke-width="2.39044" stroke-linecap="round" stroke-linejoin="round"/>
<path d="M268.112 189.627C268.642 197.273 264.208 202.165 259.371 202.735" stroke="#20AEE5" stroke-width="2.39044" stroke-linecap="round" stroke-linejoin="round"/>
<path d="M240.951 150.42C235.278 148.619 229.979 150.376 224.29 155.297C216.724 161.846 215.928 173.277 222.943 180.388" stroke="#20AEE5" stroke-width="2.39044" stroke-linecap="round" stroke-linejoin="round"/>
<path d="M236.387 212.588C236.65 218.54 239.626 223.667 245.367 224.058C252.144 224.52 264.283 217.034 267.598 210.879" stroke="#20AEE5" stroke-width="2.39044" stroke-linecap="round" stroke-linejoin="round"/>
<path d="M267.235 204.035C271.211 205.8 275.626 206.521 280.371 206.8C284.462 207.039 288.211 208.855 290.419 212.66C293.08 217.242 292.343 228.545 292.016 235.68" stroke="#20AEE5" stroke-width="2.39044" stroke-linecap="round" stroke-linejoin="round"/>
<path d="M237.071 206.185C228.8 203.496 223.513 208.054 221.055 213.456C219.561 216.743 217.828 224.715 216.434 228.046" stroke="#20AEE5" stroke-width="2.39044" stroke-linecap="round" stroke-linejoin="round"/>
<path d="M231.344 229.975C230.005 233.17 229.001 236.859 228.061 240.572C227.117 244.285 227.201 248.285 228.655 251.831C231.543 258.879 233.886 266.309 233.475 270.616" stroke="#20AEE5" stroke-width="2.39044" stroke-linecap="round" stroke-linejoin="round"/>
<path d="M291.955 239.467C292.198 251.571 292.496 258.22 292.233 267.252C292.166 269.618 292.472 271.053 291.947 273.363C290.895 277.989 289.405 276.34 288.114 277.913C286.827 279.487 287.453 282.069 283.277 283.479C281.998 283.909 277.775 283.626 274.596 283.371C273.237 283.26 272.333 283.921 271.174 283.905C269.6 283.881 268.963 283.192 267.48 283.567" stroke="#20AEE5" stroke-width="2.39044" stroke-linecap="round" stroke-linejoin="round"/>
<path d="M274.107 231.002C276.454 235.185 273.681 244.735 274.625 256.448" stroke="#20AEE5" stroke-width="2.39044" stroke-linecap="round" stroke-linejoin="round"/>
<path d="M258.692 269.679C245.409 272.304 233.978 275.787 220.708 274.03C219.086 273.814 217.405 273.504 215.847 274.002C213.652 274.699 211.803 277.109 207.544 279.133C204.413 280.623 204.054 281.599 204.106 282.01" stroke="#20AEE5" stroke-width="2.39044" stroke-linecap="round" stroke-linejoin="round"/>
<path d="M272.367 265.718C268.785 264.431 266.044 267.069 261.327 268.316C261.327 268.316 265.71 271.308 265.801 281.292" stroke="#20AEE5" stroke-width="2.39044" stroke-linecap="round" stroke-linejoin="round"/>
<path d="M216.798 278.053C213.985 279.272 211.173 280.491 208.364 281.71C206.782 282.395 205.216 283.34 204.535 284.921" stroke="#20AEE5" stroke-width="2.39044" stroke-linecap="round" stroke-linejoin="round"/>
<path d="M219.522 280.058C217.322 280.536 213.422 282.101 212.227 283.213C211.028 284.325 211.083 285.408 210.665 287.659" stroke="#20AEE5" stroke-width="2.39044" stroke-linecap="round" stroke-linejoin="round"/>
<path d="M262.247 283.058C255.059 283.525 249.055 282.947 241.864 282.636C240.888 282.592 239.904 282.568 238.936 282.712C237.426 282.939 236.012 283.576 234.585 284.118C232.179 285.026 229.597 285.668 227.052 285.329C225.207 285.086 223.41 284.329 221.553 284.465C218.984 284.652 216.868 286.481 214.964 288.214" stroke="#20AEE5" stroke-width="2.39044" stroke-linecap="round" stroke-linejoin="round"/>
<path d="M241.852 202.206C241.756 203.955 240.9 206.72 236.729 208.066" stroke="#20AEE5" stroke-width="2.39044" stroke-linecap="round" stroke-linejoin="round"/>
<path d="M275.782 263.826C277.603 263.663 279.487 263.504 281.224 264.073C282.878 264.611 284.264 265.763 285.408 267.07" stroke="#20AEE5" stroke-width="2.39044" stroke-linecap="round" stroke-linejoin="round"/>
<path d="M276.876 266.835C279.972 270.034 282.063 274.197 282.76 278.596" stroke="#20AEE5" stroke-width="2.39044" stroke-linecap="round" stroke-linejoin="round"/>
<path d="M140.457 248.082L173.282 254.23C175.632 254.672 177.68 256.102 178.899 258.158L199.68 293.142C200.055 293.775 199.485 294.548 198.768 294.373L158.577 284.6C157.457 284.329 156.501 283.604 155.935 282.6L138.262 251.138C137.397 249.6 138.724 247.755 140.453 248.078L140.457 248.082Z" stroke="#20AEE5" stroke-width="2.39044" stroke-linecap="round" stroke-linejoin="round"/>
<path d="M229.284 285.756C229.57 286.131 229.638 286.66 229.383 287.119L229.244 287.37C228.758 288.242 227.977 288.907 227.04 289.25L201.841 298.449C201.06 298.736 200.208 298.78 199.403 298.577L161.176 288.947C160.387 288.748 159.785 288.107 159.638 287.306L159.419 286.099" stroke="#20AEE5" stroke-width="2.39044" stroke-linecap="round" stroke-linejoin="round"/>
<path d="M189.617 276.25L204.534 279.712" stroke="#20AEE5" stroke-width="2.39044" stroke-linecap="round" stroke-linejoin="round"/>
<path d="M263.77 286.46L302.415 295.644" stroke="#20AEE5" stroke-width="2.39044" stroke-linecap="round" stroke-linejoin="round"/>
<path d="M214.584 236.848C214.82 239.927 209.756 254.354 209.756 254.354C209.756 254.354 209.086 256.33 207.449 257.664C206.401 258.521 204.322 258.25 203.859 259.872" stroke="#20AEE5" stroke-width="2.39044" stroke-linecap="round" stroke-linejoin="round"/>
<path d="M220.067 270.249C223 269.664 227.689 259.11 227.689 259.11" stroke="#20AEE5" stroke-width="2.39044" stroke-linecap="round" stroke-linejoin="round"/>
<path d="M213.968 256.308C213.968 256.308 216.314 256.894 218.657 259.826" stroke="#20AEE5" stroke-width="2.39044" stroke-linecap="round" stroke-linejoin="round"/>
<path d="M189.657 269.098C189.657 269.098 202.952 262.273 206.414 261.532C209.876 260.791 214.084 262.026 215.319 266.233" stroke="#20AEE5" stroke-width="2.39044" stroke-linecap="round" stroke-linejoin="round"/>
<path d="M213.912 272.535C213.912 272.535 198.562 277.26 190.701 276.922" stroke="#20AEE5" stroke-width="2.39044" stroke-linecap="round" stroke-linejoin="round"/>
<path d="M210.788 162.64C210.788 162.64 205.482 158.066 203.892 161.951C202.569 165.178 207.665 166.09 207.665 166.09" stroke="#20AEE5" stroke-width="2.39044" stroke-linecap="round" stroke-linejoin="round"/>
<path d="M205.57 171.348C205.57 171.348 196.303 170.966 197.41 175.815C198.362 179.978 204.625 177.089 204.625 177.089" stroke="#20AEE5" stroke-width="2.39044" stroke-linecap="round" stroke-linejoin="round"/>
<path d="M138.685 260.831L127.056 257.082L73.7012 271.189L81.7968 274.149C94.486 278.775 108.227 280.317 121.622 278.587C126.398 277.97 130.745 276.799 135.207 274.866C138.012 273.651 139.701 272.922 142.502 271.707" stroke="#20AEE5" stroke-width="2.39044" stroke-linecap="round" stroke-linejoin="round"/>
<path d="M113.095 274.324C108.665 273.56 103.366 270.448 103.366 270.448C103.366 270.448 96.9317 279.181 87.2783 275.966" stroke="#20AEE5" stroke-width="2.39044" stroke-linecap="round" stroke-linejoin="round"/>
<path d="M162.183 301.094L126.773 289.966C125.426 289.544 123.96 289.715 122.749 290.436L95.3225 306.807C93.9719 307.612 94.2388 309.644 95.7488 310.078L136.848 321.795C137.621 322.014 138.466 321.899 139.135 321.48L165.342 305.022" stroke="#20AEE5" stroke-width="2.39044" stroke-linecap="round" stroke-linejoin="round"/>
<path d="M225.004 305.209L189.964 311.779C189.239 311.914 188.9 312.751 189.322 313.352L207.677 339.436C208.486 340.587 209.9 341.145 211.279 340.862L245.518 333.814C246.302 333.651 246.597 332.683 246.031 332.113L227.729 306.308C227.111 305.44 226.047 305.01 225.004 305.205V305.209Z" stroke="#20AEE5" stroke-width="2.39044" stroke-linecap="round" stroke-linejoin="round"/>
<path d="M182.626 339.712L138.761 348.162C137.434 348.417 136.08 347.863 135.315 346.747L125.239 332.09C124.351 330.799 125.08 329.018 126.622 328.724L168.717 320.672C169.924 320.441 171.155 320.927 171.877 321.919L183.41 337.724C183.956 338.473 183.538 339.532 182.63 339.708L182.626 339.712Z" stroke="#20AEE5" stroke-width="2.39044" stroke-linecap="round" stroke-linejoin="round"/>
<path d="M273.446 304.862L243.598 304.475C242.626 304.463 242.148 304.842 242.036 305.806L240.438 317.93" stroke="#20AEE5" stroke-width="2.39044" stroke-linecap="round" stroke-linejoin="round"/>
<path d="M237.478 340.361L237.247 342.106C237.179 342.728 237.669 343.273 238.294 343.266L275.167 342.927L282.33 342.859C283.82 342.843 284.952 341.505 284.709 340.03L279.462 308.17" stroke="#20AEE5" stroke-width="2.39044" stroke-linecap="round" stroke-linejoin="round"/>
</g>
<path d="M199.881 389.44C199.093 390.14 197.907 390.14 197.119 389.44L185.703 379.3C184.273 378.03 185.172 375.667 187.084 375.667L209.916 375.667C211.828 375.667 212.727 378.03 211.297 379.3L199.881 389.44Z" fill="#20AEE5"/>
<defs>
<clipPath id="clip0_1092_24203">
<rect width="250.111" height="131.414" fill="white" transform="translate(73)"/>
</clipPath>
</defs>
</svg>
