<svg width="235" height="37" viewBox="0 0 235 37" fill="none" xmlns="http://www.w3.org/2000/svg">
<g clip-path="url(#clip0_956_14377)">
<path d="M27.3746 4.31819C26.62 3.00569 25.5348 1.91583 24.2281 1.1581C22.9214 0.400367 21.4393 0.00146484 19.9305 0.00146484C18.4217 0.00146484 16.9395 0.400367 15.6328 1.1581C14.3261 1.91583 13.241 3.00569 12.4864 4.31819L1.14497 24.0463C0.391584 25.3596 -0.00463593 26.8488 -0.00390524 28.3645C-0.00317455 29.8803 0.394477 31.3692 1.14913 32.6817C1.90378 33.9942 2.98888 35.0842 4.29547 35.8422C5.60206 36.6002 7.08416 36.9996 8.59299 37.0002H31.268C32.7769 37.0001 34.2593 36.601 35.566 35.843C36.8728 35.0849 37.9579 33.9947 38.7123 32.6819C39.4667 31.3691 39.8639 29.88 39.8638 28.3641C39.8638 26.8482 39.4666 25.3591 38.7121 24.0463L27.3746 4.31819ZM33.1952 29.479C32.9999 29.8189 32.719 30.1011 32.3807 30.2975C32.0424 30.4938 31.6587 30.5973 31.268 30.5976H8.59299C8.20218 30.5973 7.81833 30.4938 7.47998 30.2973C7.14163 30.1008 6.8607 29.8184 6.66541 29.4784C6.47012 29.1383 6.36734 28.7526 6.3674 28.36C6.36747 27.9674 6.47037 27.5818 6.66577 27.2418L18.0033 7.51364C18.1981 7.17322 18.4789 6.89043 18.8172 6.69379C19.1556 6.49715 19.5396 6.3936 19.9305 6.3936C20.3214 6.3936 20.7054 6.49715 21.0437 6.69379C21.3821 6.89043 21.6628 7.17322 21.8577 7.51364L33.1952 27.2418C33.3903 27.582 33.493 27.9677 33.493 28.3604C33.493 28.753 33.3903 29.1387 33.1952 29.479Z" fill="#20AEE5"/>
<path d="M56.5043 5.01416L46.2803 31.9819H51.0691L53.7244 24.9417H65.2838L67.9741 31.9819H72.763L62.5507 5.01416H56.5043ZM55.3168 20.7646L59.5528 9.50813L63.8004 20.7646H55.3168Z" fill="#20AEE5"/>
<path d="M79.4834 13.9277H75.0488V31.9819H79.4834V13.9277Z" fill="#20AEE5"/>
<path d="M77.225 5.73401C76.4459 5.75752 75.7071 6.08685 75.167 6.65135C74.6269 7.21585 74.3286 7.97054 74.3361 8.75346C74.3361 9.53871 74.6466 10.2918 75.1993 10.847C75.752 11.4023 76.5017 11.7142 77.2834 11.7142C78.065 11.7142 78.8147 11.4023 79.3674 10.847C79.9201 10.2918 80.2306 9.53871 80.2306 8.75346C80.2343 8.35593 80.159 7.96165 80.0093 7.59366C79.8595 7.22567 79.6382 6.89135 79.3584 6.61024C79.0786 6.32913 78.7458 6.10685 78.3795 5.95641C78.0132 5.80596 77.6207 5.73036 77.225 5.73401Z" fill="#20AEE5"/>
<path d="M83.0498 22.8727V31.9819H87.4843V22.8727C87.4843 20.4868 89.5829 18.1401 92.1136 18.1401H93.4607V13.9238H92.1136C87.1612 13.9238 83.0498 17.9797 83.0498 22.8727Z" fill="#20AEE5"/>
<path d="M235 9.19132V5.01807H216.433V31.9819H235V27.8047H220.867V20.5886H233.377V16.4114H220.867V9.19132H235Z" fill="#20AEE5"/>
<path d="M102.018 5.01807H97.583V31.9819H102.018V5.01807Z" fill="#20AEE5"/>
<path d="M150.156 5.01807L141.684 27.5271L133.251 5.01807H128.462L138.896 31.9819H144.51L154.945 5.01807H150.156Z" fill="#20AEE5"/>
<path d="M168.198 4.73633C165.48 4.73556 162.822 5.5447 160.562 7.06141C158.302 8.57811 156.54 10.7342 155.5 13.2569C154.46 15.7797 154.188 18.5556 154.718 21.2337C155.249 23.9117 156.559 26.3714 158.481 28.3017C160.404 30.2319 162.853 31.546 165.519 32.0775C168.185 32.6091 170.948 32.3343 173.459 31.2879C175.97 30.2416 178.115 28.4706 179.623 26.1992C181.132 23.9277 181.936 21.2578 181.933 18.5272C181.921 14.8721 180.47 11.3704 177.896 8.78651C175.323 6.20267 171.836 4.74664 168.198 4.73633ZM168.198 28.1645C163.051 28.1645 158.893 23.7487 158.893 18.539C158.893 13.3292 163.051 8.9135 168.198 8.9135C173.345 8.9135 177.542 13.3684 177.542 18.539C177.542 23.7096 173.345 28.1645 168.198 28.1645Z" fill="#20AEE5"/>
<path d="M189.284 5.01807H184.85V31.9819H189.284V5.01807Z" fill="#20AEE5"/>
<path d="M192.204 18.5C192.207 22.0747 193.622 25.502 196.138 28.0297C198.654 30.5574 202.066 31.9788 205.625 31.9819H213.065V27.8047H205.625C200.715 27.8047 196.67 23.432 196.67 18.5C196.67 13.568 200.707 9.19132 205.625 9.19132H213.065V5.01416H205.625C202.072 5.03775 198.671 6.46627 196.159 8.99037C193.648 11.5145 192.227 14.931 192.204 18.5Z" fill="#20AEE5"/>
<path d="M117.105 5.01401H106.301V31.9818H110.731V9.19118H117.105C120.551 9.19118 123.521 12.3201 123.521 15.7933V31.9818H127.956V15.7894C127.951 14.3652 127.666 12.9561 127.117 11.6429C126.568 10.3297 125.767 9.13833 124.759 8.13713C123.75 7.13593 122.555 6.34463 121.242 5.80868C119.928 5.27273 118.523 5.00267 117.105 5.01401Z" fill="#20AEE5"/>
</g>
<defs>
<clipPath id="clip0_956_14377">
<rect width="235" height="37" fill="white"/>
</clipPath>
</defs>
</svg>
