<svg width="316" height="216" viewBox="0 0 316 216" fill="none" xmlns="http://www.w3.org/2000/svg">
<g clip-path="url(#clip0_989_34775)">
<rect width="316" height="215.731" rx="7" fill="#F4FBFE"/>
<g clip-path="url(#clip1_989_34775)">
<path d="M163.456 112.612C176.822 106.61 181.325 92.5753 182.763 78.084" stroke="#20AEE5" stroke-width="2.22944" stroke-linecap="round" stroke-linejoin="round"/>
<path d="M123.36 67.5723C125.049 72.6888 125.74 80.2243 126.331 85.5861C127.813 99.0965 138.213 112.612 150.091 114.112" stroke="#20AEE5" stroke-width="2.22944" stroke-linecap="round" stroke-linejoin="round"/>
<path d="M171.789 107.98C171.789 114.111 171.789 121.781 173.322 127.917" stroke="#20AEE5" stroke-width="2.22944" stroke-linecap="round" stroke-linejoin="round"/>
<path d="M184.246 69.0775C186.152 64.8137 191.542 68.5647 190.187 75.0803C188.454 83.4351 184.948 89.3431 181.141 89.3431" stroke="#20AEE5" stroke-width="2.22944" stroke-linecap="round" stroke-linejoin="round"/>
<path d="M121.872 69.0761C112.96 66.0719 117.418 90.0941 126.325 91.599" stroke="#20AEE5" stroke-width="2.22944" stroke-linecap="round" stroke-linejoin="round"/>
<path d="M138.052 109.514C138.052 109.514 138.052 124.847 136.519 130.983" stroke="#20AEE5" stroke-width="2.22944" stroke-linecap="round" stroke-linejoin="round"/>
<path d="M133.454 130.984C135.934 134.184 149.283 138.631 154.84 138.631" stroke="#20AEE5" stroke-width="2.22944" stroke-linecap="round" stroke-linejoin="round"/>
<path d="M127.317 134.049C121.186 140.18 92.7051 157.503 88.1069 169.77" stroke="#20AEE5" stroke-width="2.22944" stroke-linecap="round" stroke-linejoin="round"/>
<path d="M84.9243 177.828C83.3916 188.563 74.1338 238.647 75.1761 244.884" stroke="#20AEE5" stroke-width="2.22944" stroke-linecap="round" stroke-linejoin="round"/>
<path d="M184.056 132.516C188.655 137.114 227.419 157.653 230.484 165.322" stroke="#20AEE5" stroke-width="2.22944" stroke-linecap="round" stroke-linejoin="round"/>
<path d="M232.708 171.994C235.774 182.729 242.802 237.634 241.269 243.771" stroke="#20AEE5" stroke-width="2.22944" stroke-linecap="round" stroke-linejoin="round"/>
<path d="M128.85 132.516C128.85 137.114 141.117 152.452 144.183 153.985" stroke="#20AEE5" stroke-width="2.22944" stroke-linecap="round" stroke-linejoin="round"/>
<path d="M153.385 143.25L144.188 153.985" stroke="#20AEE5" stroke-width="2.22944" stroke-linecap="round" stroke-linejoin="round"/>
<path d="M158.178 144.194L169.414 153.986C169.414 153.986 180.991 140.186 182.523 135.588" stroke="#20AEE5" stroke-width="2.22944" stroke-linecap="round" stroke-linejoin="round"/>
<path d="M178.198 127.506C178.198 127.506 165.964 138.625 160.402 138.625" stroke="#20AEE5" stroke-width="2.22944" stroke-linecap="round" stroke-linejoin="round"/>
<path d="M136.007 48.4512C140.572 57.5138 151.072 63.2045 161.155 62.0842" stroke="#20AEE5" stroke-width="2.22944" stroke-linecap="round" stroke-linejoin="round"/>
<path d="M151.033 44.5156C159.115 54.6428 169.95 62.5462 182.061 67.15" stroke="#20AEE5" stroke-width="2.22944" stroke-linecap="round" stroke-linejoin="round"/>
<path d="M138.03 55.4297C137.718 57.5086 136.937 60.8138 134.747 64.236C133.487 66.209 132.105 67.686 130.94 68.7394" stroke="#20AEE5" stroke-width="2.22944" stroke-linecap="round" stroke-linejoin="round"/>
<path d="M161.528 19.9551C175.295 20.362 186.927 31.42 192.255 44.1222C197.584 56.8244 197.885 70.9869 198.108 84.7593C198.191 89.9594 198.236 95.3491 196.123 100.103C194.011 104.858 189.09 108.781 183.945 108.001" stroke="#20AEE5" stroke-width="2.22944" stroke-linecap="round" stroke-linejoin="round"/>
<path d="M155.503 18.7437C145.471 14.374 133.337 19.3066 126.075 27.4943C118.812 35.6819 115.323 46.4501 112.023 56.8838C108.763 67.1727 105.475 77.7068 105.826 88.4917C106.182 99.2766 112.441 103.919 121.917 107.821" stroke="#20AEE5" stroke-width="2.22944" stroke-linecap="round" stroke-linejoin="round"/>
</g>
</g>
<defs>
<clipPath id="clip0_989_34775">
<rect width="316" height="215.731" rx="7" fill="white"/>
</clipPath>
<clipPath id="clip1_989_34775">
<rect width="168.618" height="230" fill="white" transform="translate(73.9778 16)"/>
</clipPath>
</defs>
</svg>
