<svg width="316" height="216" viewBox="0 0 316 216" fill="none" xmlns="http://www.w3.org/2000/svg">
<g clip-path="url(#clip0_989_34779)">
<rect width="316" height="215.731" rx="7" fill="#F4FBFE"/>
<g clip-path="url(#clip1_989_34779)">
<path d="M163.35 112.116C176.866 106.046 181.42 91.8537 182.874 77.1992" stroke="#20AEE5" stroke-width="2.25454" stroke-linecap="round" stroke-linejoin="round"/>
<path d="M122.802 66.5645C124.51 71.7386 125.209 79.359 125.806 84.7811C127.306 98.4436 137.823 112.112 149.834 113.628" stroke="#20AEE5" stroke-width="2.25454" stroke-linecap="round" stroke-linejoin="round"/>
<path d="M171.776 107.428C171.776 113.628 171.776 121.383 173.326 127.589" stroke="#20AEE5" stroke-width="2.25454" stroke-linecap="round" stroke-linejoin="round"/>
<path d="M169.358 42.2754C166.354 51.3837 154.337 57.4597 145.331 60.4921" stroke="#20AEE5" stroke-width="2.25454" stroke-linecap="round" stroke-linejoin="round"/>
<path d="M146.08 49.5312C139.919 58.9609 126.516 63.0698 123.552 61.6776" stroke="#20AEE5" stroke-width="2.25454" stroke-linecap="round" stroke-linejoin="round"/>
<path d="M172.633 45.0664C172.633 54.1747 178.258 59.6871 182.756 63.0633" stroke="#20AEE5" stroke-width="2.25454" stroke-linecap="round" stroke-linejoin="round"/>
<path d="M184.373 68.0862C186.301 63.7744 191.751 67.5677 190.382 74.1566C188.629 82.6055 185.084 88.58 181.234 88.58" stroke="#20AEE5" stroke-width="2.25454" stroke-linecap="round" stroke-linejoin="round"/>
<path d="M121.297 68.0849C112.284 65.0469 116.794 89.3395 125.8 90.8613" stroke="#20AEE5" stroke-width="2.25454" stroke-linecap="round" stroke-linejoin="round"/>
<path d="M137.659 108.982C137.659 108.982 137.659 124.488 136.109 130.694" stroke="#20AEE5" stroke-width="2.25454" stroke-linecap="round" stroke-linejoin="round"/>
<path d="M167.853 22.5397C137.817 4.32303 111.513 35.74 117.515 63.065" stroke="#20AEE5" stroke-width="2.25454" stroke-linecap="round" stroke-linejoin="round"/>
<path d="M172.363 24.0547C188.883 24.0547 194 50.6921 190.63 60.8149" stroke="#20AEE5" stroke-width="2.25454" stroke-linecap="round" stroke-linejoin="round"/>
<path d="M133.01 130.689C135.518 133.925 149.017 138.423 154.636 138.423" stroke="#20AEE5" stroke-width="2.25454" stroke-linecap="round" stroke-linejoin="round"/>
<path d="M126.804 133.789C120.604 139.989 91.8021 157.507 87.1521 169.912" stroke="#20AEE5" stroke-width="2.25454" stroke-linecap="round" stroke-linejoin="round"/>
<path d="M83.9337 178.062C82.3837 188.918 73.0217 239.566 74.0757 245.873" stroke="#20AEE5" stroke-width="2.25454" stroke-linecap="round" stroke-linejoin="round"/>
<path d="M184.182 132.238C188.832 136.888 228.033 157.658 231.133 165.414" stroke="#20AEE5" stroke-width="2.25454" stroke-linecap="round" stroke-linejoin="round"/>
<path d="M233.381 172.166C236.481 183.022 243.589 238.545 242.039 244.751" stroke="#20AEE5" stroke-width="2.25454" stroke-linecap="round" stroke-linejoin="round"/>
<path d="M128.354 132.238C128.354 136.888 140.76 152.399 143.86 153.949" stroke="#20AEE5" stroke-width="2.25454" stroke-linecap="round" stroke-linejoin="round"/>
<path d="M153.165 143.094L143.865 153.949" stroke="#20AEE5" stroke-width="2.25454" stroke-linecap="round" stroke-linejoin="round"/>
<path d="M158.012 144.046L169.375 153.949C169.375 153.949 181.082 139.994 182.632 135.344" stroke="#20AEE5" stroke-width="2.25454" stroke-linecap="round" stroke-linejoin="round"/>
<path d="M178.258 127.178C178.258 127.178 165.886 138.422 160.261 138.422" stroke="#20AEE5" stroke-width="2.25454" stroke-linecap="round" stroke-linejoin="round"/>
</g>
</g>
<defs>
<clipPath id="clip0_989_34779">
<rect width="316" height="215.731" rx="7" fill="white"/>
</clipPath>
<clipPath id="clip1_989_34779">
<rect width="170.516" height="231" fill="white" transform="translate(72.8638 16)"/>
</clipPath>
</defs>
</svg>
