<svg width="316" height="216" viewBox="0 0 316 216" fill="none" xmlns="http://www.w3.org/2000/svg">
<g clip-path="url(#clip0_989_34777)">
<rect width="316" height="215.731" rx="7" fill="#F4FBFE"/>
<g clip-path="url(#clip1_989_34777)">
<path d="M162.67 115.509C177.073 109.107 183.475 99.5071 185.074 77.1035" stroke="#20AEE5" stroke-width="2.31742" stroke-linecap="round" stroke-linejoin="round"/>
<path d="M121.067 65.8965C122.886 71.354 123.778 78.735 124.265 81.8982C127.463 102.703 137.068 113.902 149.866 115.501" stroke="#20AEE5" stroke-width="2.31742" stroke-linecap="round" stroke-linejoin="round"/>
<path d="M177.073 105.9C177.073 112.302 177.073 126.705 178.672 128.304" stroke="#20AEE5" stroke-width="2.31742" stroke-linecap="round" stroke-linejoin="round"/>
<path d="M188.277 64.2989C190.328 59.7509 194.679 61.6049 194.679 70.7007C194.679 79.7966 190.78 86.7025 186.678 86.7025" stroke="#20AEE5" stroke-width="2.31742" stroke-linecap="round" stroke-linejoin="round"/>
<path d="M119.462 64.2996C109.862 61.1016 114.659 86.7032 124.265 88.3022" stroke="#20AEE5" stroke-width="2.31742" stroke-linecap="round" stroke-linejoin="round"/>
<path d="M133.864 107.506C133.864 107.506 133.864 123.508 132.265 129.909" stroke="#20AEE5" stroke-width="2.31742" stroke-linecap="round" stroke-linejoin="round"/>
<path d="M165.874 21.0893C138.667 9.89042 111.467 32.2883 117.868 62.6986" stroke="#20AEE5" stroke-width="2.31742" stroke-linecap="round" stroke-linejoin="round"/>
<path d="M170.671 21.0894C188.272 20.7534 194.778 44.8372 191.858 59.2978" stroke="#20AEE5" stroke-width="2.31742" stroke-linecap="round" stroke-linejoin="round"/>
<path d="M121.066 136.307C114.664 142.709 71.4562 163.513 66.6592 176.311" stroke="#20AEE5" stroke-width="2.31742" stroke-linecap="round" stroke-linejoin="round"/>
<path d="M61.8565 190.719C60.2575 201.918 59.1741 245.329 60.2575 251.841" stroke="#20AEE5" stroke-width="2.31742" stroke-linecap="round" stroke-linejoin="round"/>
<path d="M186.673 134.707C191.475 139.51 245.883 163.513 249.081 171.513" stroke="#20AEE5" stroke-width="2.31742" stroke-linecap="round" stroke-linejoin="round"/>
<path d="M249.086 179.514C252.284 190.713 257.087 240.636 255.488 247.037" stroke="#20AEE5" stroke-width="2.31742" stroke-linecap="round" stroke-linejoin="round"/>
<path d="M127.463 131.512C129.062 136.315 142.335 143.557 153.064 150.717" stroke="#20AEE5" stroke-width="2.31742" stroke-linecap="round" stroke-linejoin="round"/>
<path d="M181.876 131.512C181.661 134.333 171.343 146.413 161.071 150.717" stroke="#20AEE5" stroke-width="2.31742" stroke-linecap="round" stroke-linejoin="round"/>
<path d="M137.069 32.2949C138.668 35.493 149.872 38.6968 151.471 38.6968" stroke="#20AEE5" stroke-width="2.31742" stroke-linecap="round" stroke-linejoin="round"/>
<path d="M151.471 30.6914C151.471 33.8894 162.67 37.0933 165.874 37.0933" stroke="#20AEE5" stroke-width="2.31742" stroke-linecap="round" stroke-linejoin="round"/>
<path d="M169.072 32.2949C173.875 32.2949 180.271 37.0978 180.271 41.8948" stroke="#20AEE5" stroke-width="2.31742" stroke-linecap="round" stroke-linejoin="round"/>
<path d="M185.073 45.0938C186.638 48.0369 187.918 55.3078 188.272 61.0955" stroke="#20AEE5" stroke-width="2.31742" stroke-linecap="round" stroke-linejoin="round"/>
<path d="M124.265 43.4941C122.666 46.6922 121.067 62.6997 121.067 65.8978" stroke="#20AEE5" stroke-width="2.31742" stroke-linecap="round" stroke-linejoin="round"/>
</g>
</g>
<defs>
<clipPath id="clip0_989_34777">
<rect width="316" height="215.731" rx="7" fill="white"/>
</clipPath>
<clipPath id="clip1_989_34777">
<rect width="198.301" height="236" fill="white" transform="translate(58.6584 17)"/>
</clipPath>
</defs>
</svg>
