<svg width="410" height="311" viewBox="0 0 410 311" fill="none" xmlns="http://www.w3.org/2000/svg">
<path d="M408.5 259L335 309.5L281 230L335 186.5L408.5 259Z" fill="white"/>
<path d="M304 271.516C310.4 275.116 327.333 298.016 335 309.016L305.5 217.016H215.5L213.5 222.516C218 224.516 231.5 233.016 236.5 238.516C240.5 242.916 249.167 249.016 253 251.516L271.5 259.016C279.667 261.682 297.6 267.916 304 271.516Z" fill="white"/>
<path d="M335 309.016C327.333 298.016 310.4 275.116 304 271.516C297.6 267.916 279.667 261.682 271.5 259.016L253 251.516C249.167 249.016 240.5 242.916 236.5 238.516C231.5 233.016 218 224.516 213.5 222.516L215.5 217.016H305.5" stroke="#20AEE5" stroke-width="2" stroke-linecap="round" stroke-linejoin="round"/>
<path d="M213.5 222.016L199 213.516C201.8 214.716 213 212.516 217.5 208.016L213.5 222.016Z" fill="white"/>
<path d="M213.5 222.016L199 213.516C201.8 214.716 213 212.516 217.5 208.016L213.5 222.016Z" stroke="#20AEE5" stroke-width="2" stroke-linecap="round" stroke-linejoin="round"/>
<rect x="206" y="1" width="106" height="223" rx="14" fill="white" stroke="#20AEE5" stroke-width="2"/>
<rect x="210.969" y="6.01123" width="96.0625" height="212.978" rx="10" fill="white" stroke="#20AEE5" stroke-width="2"/>
<path d="M234.984 6.01123H283.016V10.3633C283.016 12.5724 281.225 14.3633 279.016 14.3633H238.984C236.775 14.3633 234.984 12.5724 234.984 10.3633V6.01123Z" stroke="#20AEE5" stroke-width="2"/>
<rect x="251.547" y="9.35205" width="15.7344" height="1.67041" rx="0.835207" fill="#20AEE5"/>
<rect x="268.938" y="9.35205" width="1.65625" height="1.67041" rx="0.828125" fill="#20AEE5"/>
<path d="M212 36C212 26.0589 220.059 18 230 18H288C297.941 18 306 26.0589 306 36V197C306 206.941 297.941 215 288 215H230C220.059 215 212 206.941 212 197V36Z" fill="white"/>
<path d="M246.603 36.5768C243.755 36.5768 241.614 38.7185 241.614 41.5775V41.598C241.614 44.3648 243.735 46.4656 246.521 46.4656C248.775 46.4656 250.65 45.0514 251.152 43.1556H251.193C251.204 43.3298 251.204 43.5348 251.193 43.7397C251.163 47.808 249.697 51.0564 246.532 51.0564C244.626 51.0564 243.151 49.8985 242.792 48.2794L242.772 48.1666H241.952L241.973 48.2999C242.341 50.2981 244.073 51.7942 246.532 51.7942C249.892 51.7942 251.992 48.7303 251.992 43.5963V43.5758C251.992 38.8927 249.677 36.5768 246.603 36.5768ZM246.614 45.738C244.247 45.738 242.434 43.9344 242.434 41.5878V41.5673C242.434 39.1694 244.268 37.3146 246.603 37.3146C249.083 37.3146 250.865 39.3128 250.865 41.7517V41.7722C250.865 43.914 248.919 45.738 246.614 45.738Z" fill="black"/>
<path d="M255.045 40.3991C255.414 40.3991 255.711 40.0917 255.711 39.7227C255.711 39.3641 255.414 39.0567 255.045 39.0567C254.677 39.0567 254.38 39.3641 254.38 39.7227C254.38 40.0917 254.677 40.3991 255.045 40.3991ZM255.045 49.3041C255.414 49.3041 255.711 48.9967 255.711 48.638C255.711 48.2691 255.414 47.9617 255.045 47.9617C254.677 47.9617 254.38 48.2691 254.38 48.638C254.38 48.9967 254.677 49.3041 255.045 49.3041Z" fill="black"/>
<path d="M265.506 51.579H266.305V47.8797H268.651V47.1419H266.305V36.792H265.137L257.894 47.1316V47.8797H265.506V51.579ZM258.775 47.1419V47.1214L265.465 37.622H265.506V47.1419H258.775Z" fill="black"/>
<path d="M273.999 51.579H274.798V36.792H273.999L269.942 39.4051V40.2556L273.979 37.6835H273.999V51.579Z" fill="black"/>
<path d="M241.619 60.4573C242.434 60.4573 243.015 59.999 243.015 59.3542V59.3489C243.015 58.8746 242.682 58.4803 242.189 58.3658V58.3551C242.61 58.2245 242.876 57.9048 242.876 57.4998V57.4945C242.876 56.9137 242.346 56.4847 241.619 56.4847C240.892 56.4847 240.362 56.9137 240.362 57.4945V57.4998C240.362 57.9048 240.628 58.2245 241.049 58.3551V58.3658C240.556 58.4803 240.223 58.8746 240.223 59.3489V59.3542C240.223 59.999 240.804 60.4573 241.619 60.4573ZM241.619 58.1766C241.156 58.1766 240.839 57.9128 240.839 57.5398V57.5345C240.839 57.1615 241.156 56.8977 241.619 56.8977C242.083 56.8977 242.4 57.1615 242.4 57.5345V57.5398C242.4 57.9128 242.083 58.1766 241.619 58.1766ZM241.619 60.039C241.089 60.039 240.711 59.7406 240.711 59.3249V59.3196C240.711 58.8986 241.086 58.5976 241.619 58.5976C242.152 58.5976 242.527 58.8986 242.527 59.3196V59.3249C242.527 59.7406 242.149 60.039 241.619 60.039Z" fill="black"/>
<path d="M244.741 56.099V56.4973H247.589V56.099H244.741ZM244.741 57.414V57.8069H247.611V57.414H244.741ZM244.698 58.7345V59.1274H247.584V58.7345H244.698ZM244.49 56.099V57.7851C244.49 58.6636 244.398 59.7713 243.519 60.5406C243.607 60.6007 243.77 60.748 243.83 60.8353C244.769 60.0168 244.905 58.7291 244.905 57.7851V56.099H244.49ZM247.409 56.099V60.2242C247.409 60.3442 247.365 60.3824 247.24 60.3879C247.114 60.3879 246.667 60.3933 246.214 60.3769C246.285 60.4915 246.362 60.688 246.389 60.808C246.978 60.808 247.338 60.8026 247.551 60.7316C247.758 60.6607 247.835 60.5188 247.835 60.2296V56.099H247.409Z" fill="black"/>
<path d="M250.553 60.4573C251.323 60.4573 251.888 59.983 251.888 59.3409V59.3356C251.888 58.7894 251.507 58.4404 250.948 58.3924V58.3817C251.427 58.2805 251.763 57.9554 251.763 57.4812V57.4759C251.763 56.8924 251.28 56.4847 250.548 56.4847C249.829 56.4847 249.333 56.903 249.272 57.5292L249.269 57.5558H249.73L249.733 57.5292C249.773 57.1402 250.095 56.9004 250.548 56.9004C251.017 56.9004 251.28 57.1322 251.28 57.5345V57.5398C251.28 57.9235 250.961 58.2059 250.503 58.2059H250.042V58.6109H250.524C251.062 58.6109 251.4 58.8746 251.4 59.3462V59.3516C251.4 59.7592 251.057 60.0416 250.553 60.0416C250.042 60.0416 249.693 59.7805 249.656 59.4022L249.653 59.3755H249.192L249.195 59.4075C249.245 60.015 249.759 60.4573 250.553 60.4573Z" fill="black"/>
<path d="M253.606 60.3933H254.085V56.5487H253.609L252.586 57.284V57.7903L253.563 57.0815H253.606V60.3933Z" fill="black"/>
<path d="M255.727 56.1808V60.7698H256.148V56.5955H258.87V60.748H259.301V56.1808H255.727ZM256.006 58.0743V58.4781H259.05V58.0743H256.006ZM256 60.0059V60.4151H259.061V60.0059H256Z" fill="black"/>
<path d="M262.052 57.2121V57.6214H263.694V57.2121H262.052ZM264.277 55.8262V60.2569C264.277 60.3606 264.234 60.3933 264.13 60.3988C264.016 60.3988 263.666 60.4042 263.274 60.3879C263.339 60.5134 263.421 60.7153 263.437 60.8353C263.945 60.8353 264.261 60.8244 264.447 60.748C264.627 60.6771 264.703 60.5461 264.703 60.2569V55.8262H264.277ZM263.552 57.2121V57.3049C263.323 58.5545 262.695 59.4875 261.915 59.9786C262.013 60.0441 262.177 60.2078 262.248 60.306C263.05 59.7604 263.71 58.74 263.988 57.2994L263.71 57.1958L263.639 57.2121H263.552ZM264.681 56.7156L264.354 56.792C264.757 58.4071 265.499 59.7985 266.743 60.4151C266.814 60.2896 266.956 60.1259 267.06 60.0441C265.838 59.5094 265.057 58.1834 264.681 56.7156ZM266.46 56.6992C266.099 57.1849 265.467 57.8233 265.003 58.1998L265.292 58.429C265.767 58.0634 266.389 57.4631 266.836 56.9666L266.46 56.6992Z" fill="black"/>
<path d="M269.362 56.6992V56.9884H270.48V56.6992H269.362ZM269.269 56.0172V56.3118H270.284V57.3922H269.264V57.6923H270.644V56.0172H269.269ZM270.944 56.6992V56.9884H272.095V56.6992H270.944ZM270.867 56.0172V56.3118H271.909V57.3922H270.862V57.6923H272.269V56.0172H270.867ZM269.755 58.8655V59.1547H272.177V58.8655H269.755ZM269.755 59.5748V59.864H272.177V59.5748H269.755ZM269.771 60.3169V60.6334H272.45V60.3169H269.771ZM269.88 57.6159C269.7 58.0688 269.324 58.609 268.925 58.9473C268.996 59.0128 269.111 59.1438 269.171 59.2202C269.613 58.8437 270.016 58.2598 270.262 57.7305L269.88 57.6159ZM269.913 58.1234H269.853L269.536 58.4562V60.8026H269.913V58.4453H272.313V58.1234H269.913ZM271.02 57.6487C270.966 57.8342 270.846 58.1179 270.753 58.3089L271.058 58.4017C271.167 58.2325 271.304 57.9815 271.424 57.7414L271.02 57.6487ZM270.758 58.3689V60.437H271.124V58.3689H270.758ZM267.823 56.1536V56.5246H268.669V59.4111H267.823V59.7767H269.04V56.1536H267.823ZM267.845 57.7523V58.1179H268.86V57.7523H267.845ZM267.632 56.1536V60.2296H267.998V56.1536H267.632Z" fill="black"/>
<path d="M273.628 56.1808V60.7698H274.048V56.5955H276.77V60.748H277.201V56.1808H273.628ZM273.906 58.0743V58.4781H276.95V58.0743H273.906ZM273.901 60.0059V60.4151H276.961V60.0059H273.901Z" fill="black"/>
<path fill-rule="evenodd" clip-rule="evenodd" d="M257.531 25.555H260.469V24.5056C260.469 23.6943 259.811 23.0366 259 23.0366C258.189 23.0366 257.531 23.6943 257.531 24.5056V25.555ZM256.692 25.5814C256.33 25.6746 256.062 26.0033 256.062 26.3944V29.7523C256.062 30.2159 256.438 30.5918 256.902 30.5918H261.098C261.562 30.5918 261.938 30.2159 261.938 29.7523V26.3944C261.938 26.0033 261.67 25.6746 261.308 25.5814V24.5056C261.308 23.2307 260.275 22.1971 259 22.1971C257.725 22.1971 256.692 23.2307 256.692 24.5056V25.5814Z" fill="black"/>
<path d="M215.598 69.627C215.598 67.7725 217.101 66.2691 218.955 66.2691H299.527C301.381 66.2691 302.884 67.7725 302.884 69.627V80.5401C302.884 82.3946 301.381 83.898 299.527 83.898H218.955C217.101 83.898 215.598 82.3946 215.598 80.5401V69.627Z" fill="#EFEFEF"/>
<path d="M219.725 77.0765V77.4656H221.67V77.0765H219.725ZM220.118 77.7489V78.1229H221.572V77.7489H220.118ZM219.831 78.4213V78.8029H221.73V78.4213H219.831ZM219.551 77.0765V78.1909C219.551 78.7878 219.517 79.6226 219.132 80.1968C219.226 80.2384 219.404 80.3781 219.476 80.4537C219.902 79.8342 219.97 78.8444 219.97 78.1909V77.0765H219.551ZM220.087 78.6707V80.1364L220.488 80.1061V78.6707H220.087ZM219.8 80.0079L219.891 80.3932C220.212 80.3252 220.616 80.2421 220.998 80.1553L220.96 79.7964C220.533 79.8795 220.099 79.9588 219.8 80.0079ZM221.462 78.8746C221.326 79.0371 221.088 79.2637 220.918 79.3884L221.145 79.6188C221.322 79.5093 221.553 79.3242 221.761 79.158L221.462 78.8746ZM221.02 78.6707L220.639 78.716C220.756 79.5433 220.979 80.1515 221.549 80.4575C221.61 80.3404 221.734 80.1704 221.829 80.0835C221.33 79.8606 221.115 79.328 221.02 78.6707ZM218.192 78.8142L218.294 79.2486C218.626 79.1542 219.041 79.0333 219.43 78.9124L219.37 78.5044C218.943 78.6253 218.494 78.7462 218.192 78.8142ZM218.252 77.6318V78.0473H219.408V77.6318H218.252ZM218.652 76.9178V79.9815C218.652 80.0344 218.633 80.0457 218.588 80.0457C218.543 80.0495 218.411 80.0495 218.275 80.0419C218.327 80.1666 218.38 80.3517 218.392 80.465C218.637 80.465 218.8 80.4499 218.913 80.3781C219.03 80.3101 219.068 80.193 219.068 79.9815V76.9178H218.652Z" fill="black"/>
<path d="M223.419 77.0727V77.4996H224.216V77.0727H223.419ZM223.989 77.0727V77.2729H224.061C224.129 78.3722 224.378 79.3242 225.182 79.8039C225.265 79.6982 225.432 79.5319 225.537 79.4602C224.748 79.0597 224.521 78.1493 224.465 77.0727H223.989ZM223.974 77.8585C223.853 78.5875 223.562 79.1504 223.033 79.4677C223.135 79.5433 223.313 79.7208 223.381 79.8077C223.94 79.4186 224.276 78.7764 224.442 77.9265L223.974 77.8585ZM222.939 78.3873H222.055V78.8066H222.497V79.7775H222.939V78.3873ZM222.939 79.5811H222.524C222.35 79.7171 222.146 79.8493 221.976 79.955L222.199 80.4272C222.403 80.261 222.573 80.1175 222.739 79.9702C222.984 80.2648 223.298 80.3744 223.762 80.3932C224.216 80.4121 224.978 80.4046 225.435 80.3819C225.454 80.2459 225.53 80.0268 225.579 79.921C225.069 79.9626 224.212 79.9739 223.77 79.955C223.377 79.9399 223.09 79.8304 222.939 79.5811ZM222.063 77.2729C222.286 77.4429 222.557 77.696 222.671 77.8736L223.033 77.5751C222.901 77.3976 222.625 77.1596 222.399 77.0009L222.063 77.2729Z" fill="black"/>
<path d="M227.346 78.7009V79.955C227.346 80.0117 227.324 80.023 227.252 80.0268C227.177 80.0306 226.893 80.0306 226.67 80.0193C226.735 80.1401 226.81 80.329 226.837 80.4575C227.161 80.4575 227.407 80.4499 227.584 80.3857C227.762 80.3252 227.819 80.2044 227.819 79.9702V78.7009H227.346ZM226.21 77.1256V77.5411H228.529V77.1256H226.21ZM228.359 77.1256V77.2238C228.189 77.4391 227.792 77.7678 227.464 77.9529C227.539 78.0247 227.675 78.1645 227.735 78.2551C228.14 78.0322 228.585 77.6734 228.906 77.356L228.581 77.0992L228.479 77.1256H228.359ZM225.843 78.3571V78.7878H228.929V78.3571H225.843ZM226.738 78.0247C227.173 78.1871 227.807 78.4478 228.113 78.5989L228.355 78.2098C228.026 78.0625 227.377 77.8245 226.965 77.6847L226.738 78.0247ZM228.778 78.3571V78.4327C228.672 78.7084 228.479 79.0409 228.321 79.2524L228.706 79.4753C228.921 79.2222 229.148 78.8406 229.314 78.4855L228.944 78.3269L228.865 78.3571H228.778Z" fill="black"/>
<path d="M231.308 78.6253C231.501 78.8973 231.701 79.2637 231.769 79.4979L232.166 79.294C232.083 79.0522 231.867 78.7009 231.671 78.4402L231.308 78.6253ZM231.433 77.5563V77.9831H232.789V77.5563H231.433ZM232.596 77.5563V77.6469C232.551 79.1844 232.498 79.8228 232.373 79.9513C232.332 80.0042 232.286 80.0155 232.211 80.0155C232.113 80.0155 231.894 80.0155 231.656 79.9966C231.739 80.125 231.799 80.3215 231.807 80.4499C232.03 80.4612 232.26 80.4612 232.4 80.4424C232.558 80.4159 232.66 80.3744 232.766 80.2308C232.925 80.0306 232.974 79.43 233.031 77.764C233.034 77.7074 233.034 77.5563 233.034 77.5563H232.596ZM231.456 76.9103C231.331 77.4051 231.101 77.9 230.814 78.1984C230.927 78.2627 231.127 78.3987 231.218 78.4742C231.505 78.1305 231.765 77.5751 231.924 77.0123L231.456 76.9103ZM230.126 76.9178C230.039 77.1823 229.877 77.5449 229.741 77.7716L230.047 77.8962C230.194 77.6885 230.372 77.3523 230.527 77.0576L230.126 76.9178ZM230.579 77.3636C230.379 77.7678 230.036 78.3231 229.745 78.6631L230.02 78.8029C230.311 78.4818 230.681 77.9567 230.961 77.5223L230.579 77.3636ZM229.545 77.8131C229.737 77.9945 229.968 78.2551 230.062 78.4364L230.292 78.0813C230.194 77.9151 229.96 77.6734 229.756 77.4996L229.545 77.8131ZM230.485 78.274C230.628 78.5347 230.768 78.8784 230.814 79.0937L231.157 78.9351C231.108 78.716 230.957 78.3873 230.806 78.1342L230.485 78.274ZM229.541 78.58L229.579 78.9729C229.952 78.9502 230.443 78.9162 230.919 78.8784V78.5195C230.413 78.546 229.892 78.5687 229.541 78.58ZM230.553 79.2222C230.644 79.4526 230.742 79.7586 230.776 79.955L231.131 79.8266C231.085 79.6339 230.984 79.3393 230.885 79.1126L230.553 79.2222ZM229.703 79.1353C229.673 79.4564 229.613 79.7926 229.503 80.0155C229.597 80.0533 229.767 80.1326 229.847 80.1817C229.956 79.9399 230.039 79.5622 230.077 79.1995L229.703 79.1353ZM230.141 78.7802V80.465H230.545V78.7802H230.141Z" fill="black"/>
<path d="M234.67 77.3447V77.7527H236.713V77.3447H234.67ZM234.496 78.7953V79.2071H236.86V78.7953H234.496ZM234.458 78.0851V78.4969H236.89V78.0851H234.458ZM235.444 76.9292V78.2967H235.897V76.9292H235.444ZM235.961 78.4251V79.9777C235.961 80.0268 235.942 80.0419 235.886 80.0419C235.825 80.0457 235.618 80.0457 235.433 80.0344C235.489 80.1553 235.553 80.3366 235.572 80.4612C235.859 80.4612 236.067 80.4575 236.222 80.3895C236.373 80.3215 236.415 80.2081 236.415 79.9853V78.4251H235.961ZM234.704 79.4224C234.87 79.6264 235.055 79.9097 235.123 80.091L235.519 79.8757C235.44 79.6906 235.244 79.4224 235.078 79.2297L234.704 79.4224ZM234.201 77.7489C233.986 78.1153 233.62 78.4893 233.291 78.7235C233.359 78.8331 233.472 79.09 233.503 79.192C233.892 78.8784 234.326 78.3798 234.594 77.9151L234.201 77.7489ZM234.111 76.9178C233.952 77.1709 233.62 77.4807 233.333 77.662C233.397 77.7565 233.506 77.9416 233.552 78.0436C233.903 77.8131 234.284 77.4429 234.53 77.0916L234.111 76.9178ZM233.846 78.5913V80.4612H234.281V78.1833L234.262 78.172L233.846 78.5913Z" fill="black"/>
<path d="M238.707 77.1105L238.171 77.0878C238.178 77.2125 238.174 77.3107 238.156 77.4694C238.107 77.8585 237.895 78.7764 237.616 79.328L238.061 79.4828C238.095 79.4186 238.125 79.3733 238.167 79.3204C238.39 79.0333 238.775 78.8746 239.209 78.8746C239.579 78.8746 239.776 79.0673 239.776 79.2902C239.776 79.8493 238.941 79.9475 238.11 79.8153L238.242 80.3026C239.466 80.4348 240.286 80.125 240.286 79.2788C240.286 78.7915 239.878 78.4704 239.27 78.4704C238.93 78.4704 238.635 78.5384 238.329 78.7046C238.443 78.3533 238.556 77.798 238.616 77.4958C238.647 77.3749 238.669 77.2465 238.707 77.1105ZM237.389 77.5525L237.393 78.0209C237.616 78.0436 237.887 78.0587 238.174 78.0587C238.722 78.0587 239.523 77.968 240.002 77.8887L239.991 77.4354C239.372 77.5676 238.654 77.6243 238.171 77.6243C237.937 77.6243 237.634 77.594 237.389 77.5525Z" fill="black"/>
<path d="M243.009 77.5336L242.491 77.5185C242.454 77.9151 242.371 78.3496 242.261 78.7046C242.102 79.2146 241.959 79.4564 241.796 79.4564C241.653 79.4564 241.502 79.2713 241.502 78.8898C241.502 78.4138 241.94 77.7602 242.741 77.7602C243.394 77.7602 243.764 78.1833 243.764 78.7764C243.764 79.3317 243.386 79.6755 242.907 79.7926C242.805 79.8153 242.699 79.8342 242.552 79.853L242.839 80.2988C243.791 80.1515 244.278 79.5886 244.278 78.7953C244.278 77.968 243.685 77.3183 242.752 77.3183C241.774 77.3183 241.015 78.0662 241.015 78.9351C241.015 79.5735 241.362 80.0381 241.785 80.0381C242.197 80.0381 242.522 79.5697 242.748 78.8066C242.88 78.3609 242.956 77.9189 243.009 77.5336Z" fill="black"/>
<path d="M244.844 78.0738V78.4138H245.985V78.0738H244.844ZM244.856 77.0312V77.3749H245.974V77.0312H244.856ZM244.844 78.5875V78.9313H245.985V78.5875H244.844ZM244.663 77.5411V77.9H246.11V77.5411H244.663ZM245.041 79.1126V79.4715H245.603V79.9022H245.041V80.261H245.989V79.1126H245.041ZM244.837 79.1126V80.4121H245.218V79.1126H244.837ZM246.2 77.1181V77.4429H248.126V77.1181H246.2ZM246.295 77.5789V77.8849H248.066V77.5789H246.295ZM246.11 78.0322V78.3571H248.198V78.0322H246.11ZM246.933 76.9141V78.308H247.363V76.9141H246.933ZM246.366 78.5007V80.4575H246.786V78.8218H247.817V78.5007H246.366ZM247.567 78.5007V80.0344C247.567 80.0759 247.556 80.091 247.507 80.091C247.458 80.091 247.299 80.0948 247.159 80.0873C247.209 80.1855 247.265 80.3404 247.277 80.4499C247.522 80.4499 247.7 80.4461 247.828 80.3895C247.953 80.329 247.99 80.2308 247.99 80.0381V78.5007H247.567ZM246.551 78.9917V79.2864H247.786V78.9917H246.551ZM246.551 79.464V79.7586H247.786V79.464H246.551Z" fill="black"/>
<path d="M248.546 77.4845V77.9265H251.903V77.4845H248.546ZM250.408 77.8736L250.049 77.9756C250.366 78.9502 250.887 79.7813 251.688 80.2044C251.763 80.0721 251.911 79.8908 252.02 79.7964C251.246 79.4488 250.683 78.7009 250.408 77.8736ZM251.386 77.9945C251.197 78.2778 250.872 78.6291 250.63 78.8406L250.959 79.09C251.208 78.886 251.529 78.5649 251.786 78.2778L251.386 77.9945ZM250.683 77.1823C250.917 77.2994 251.227 77.4807 251.371 77.6091L251.658 77.288C251.495 77.1672 251.178 77.0009 250.951 76.8952L250.683 77.1823ZM248.693 78.2891C248.904 78.4931 249.157 78.784 249.259 78.9766L249.629 78.7084C249.516 78.512 249.252 78.24 249.04 78.0511L248.693 78.2891ZM249.973 76.9178V79.9022C249.973 79.9739 249.947 79.9928 249.875 79.9966C249.799 79.9966 249.562 79.9966 249.331 79.9853C249.399 80.1213 249.467 80.3328 249.49 80.465C249.826 80.465 250.071 80.4537 250.23 80.3744C250.385 80.2988 250.441 80.1704 250.441 79.9059V76.9178H249.973ZM248.425 79.6906L248.708 80.1061C249.04 79.9135 249.46 79.6566 249.837 79.4111L249.686 78.9993C249.233 79.2637 248.742 79.5357 248.425 79.6906Z" fill="black"/>
<path d="M252.813 77.2729V77.7602C252.93 77.7527 253.089 77.7451 253.221 77.7451C253.455 77.7451 254.233 77.7451 254.456 77.7451C254.585 77.7451 254.732 77.7527 254.86 77.7602V77.2729C254.732 77.288 254.585 77.2994 254.456 77.2994C254.233 77.2994 253.455 77.2994 253.217 77.2994C253.093 77.2994 252.934 77.288 252.813 77.2729ZM252.379 78.2362V78.7311C252.481 78.7235 252.628 78.7198 252.738 78.7198C252.976 78.7198 254.989 78.7198 255.212 78.7198C255.317 78.7198 255.465 78.7235 255.559 78.7311V78.2362C255.457 78.2551 255.291 78.2627 255.212 78.2627C254.989 78.2627 252.976 78.2627 252.738 78.2627C252.621 78.2627 252.489 78.2513 252.379 78.2362ZM254.309 78.5007L253.784 78.5044C253.784 78.9086 253.735 79.2675 253.546 79.5508C253.395 79.7737 253.127 79.989 252.859 80.0948L253.304 80.4159C253.64 80.2459 253.931 79.9513 254.063 79.6906C254.222 79.3733 254.309 78.9955 254.309 78.5007ZM255.087 77.0123L254.789 77.1332C254.891 77.2805 255.008 77.5034 255.083 77.6583L255.385 77.5298C255.317 77.39 255.181 77.1483 255.087 77.0123ZM255.533 76.8423L255.234 76.9632C255.34 77.1067 255.461 77.3258 255.54 77.4845L255.839 77.356C255.771 77.2238 255.631 76.9821 255.533 76.8423Z" fill="black"/>
<path d="M256.228 78.3722V78.9691C256.371 78.9578 256.624 78.9464 256.836 78.9464C257.281 78.9464 258.524 78.9464 258.868 78.9464C259.026 78.9464 259.219 78.9653 259.309 78.9691V78.3722C259.207 78.3798 259.041 78.3987 258.864 78.3987C258.528 78.3987 257.281 78.3987 256.836 78.3987C256.639 78.3987 256.367 78.3836 256.228 78.3722Z" fill="black"/>
<path d="M261.277 78.3533L260.941 78.6971C261.383 78.9766 262.1 79.5055 262.429 79.8153L262.792 79.3846C262.44 79.1051 261.742 78.6215 261.277 78.3533ZM263.056 77.7111L262.671 77.4731C262.584 77.4996 262.459 77.5185 262.342 77.5185H261.266L261.092 77.9453H262.369C262.297 78.24 262.063 78.6744 261.81 78.9729C261.485 79.3506 261.035 79.7473 260.246 79.9928L260.684 80.3706C261.406 80.0986 261.889 79.6755 262.244 79.2335C262.584 78.8142 262.814 78.3307 262.928 77.9831C262.962 77.8887 263.011 77.7829 263.056 77.7111ZM261.806 77.1294L261.258 76.9594C261.224 77.0916 261.145 77.2654 261.088 77.356C260.896 77.6847 260.548 78.2022 259.887 78.6102L260.291 78.9238C260.835 78.5498 261.319 77.9718 261.572 77.5147C261.617 77.4354 261.715 77.2616 261.806 77.1294Z" fill="black"/>
<path d="M265.152 77.1672L264.593 77.1067C264.597 77.39 264.555 77.7111 264.484 78.0511C264.378 78.5271 264.095 79.5244 263.645 80.1288L264.14 80.3252C264.536 79.6868 264.839 78.6102 264.963 78.0776C265.005 77.8849 265.05 77.6507 265.088 77.4807C265.107 77.3863 265.129 77.2654 265.152 77.1672ZM266.455 77.5449L266.002 77.7376C266.274 78.0738 266.542 78.7386 266.64 79.158L267.12 78.9351C267.003 78.5762 266.685 77.8736 266.455 77.5449ZM263.622 77.9416L263.668 78.4515C263.781 78.4327 263.977 78.4062 264.087 78.3911C264.295 78.3647 264.948 78.2816 265.171 78.2816C265.409 78.2816 265.537 78.3269 265.537 78.6291C265.537 78.9993 265.488 79.4602 265.382 79.6717C265.326 79.7964 265.228 79.8342 265.099 79.8342C265.001 79.8342 264.786 79.7964 264.638 79.7548L264.722 80.2535C264.85 80.2837 265.027 80.3064 265.175 80.3064C265.458 80.3064 265.669 80.2233 265.794 79.9588C265.953 79.6339 266.009 79.022 266.009 78.5762C266.009 78.0285 265.726 77.8509 265.326 77.8509C265.046 77.8509 264.329 77.934 264.027 77.9416C263.887 77.9453 263.758 77.9491 263.622 77.9416ZM266.387 77.0236L266.085 77.1445C266.187 77.2918 266.304 77.5147 266.383 77.6696L266.685 77.5411C266.614 77.4014 266.482 77.1596 266.387 77.0236ZM266.833 76.8498L266.534 76.9745C266.636 77.1181 266.761 77.3372 266.837 77.4958L267.139 77.3674C267.071 77.2352 266.931 76.9934 266.833 76.8498Z" fill="black"/>
<path d="M267.483 80.1213H269.403V79.673H268.23V79.6306L268.723 79.1713C269.208 78.7231 269.364 78.4722 269.364 78.1697V78.1642C269.364 77.7049 268.981 77.3913 268.433 77.3913C267.85 77.3913 267.452 77.7418 267.452 78.2527L267.454 78.2601H267.968V78.2509C267.968 77.9982 268.147 77.8248 268.407 77.8248C268.662 77.8248 268.817 77.9834 268.817 78.2103V78.2158C268.817 78.4021 268.715 78.5368 268.341 78.9002L267.483 79.7468V80.1213Z" fill="black"/>
<path d="M271.862 76.9632V80.4575H272.319V76.9632H271.862ZM271.22 77.1218C271.133 77.5865 270.974 78.0662 270.77 78.3647C270.88 78.4138 271.076 78.5158 271.167 78.5838C271.367 78.2513 271.548 77.7225 271.654 77.2125L271.22 77.1218ZM271.363 77.6469L271.254 78.0889H273.112V77.6469H271.363ZM270.838 78.7424V79.1882H273.293V78.7424H270.838ZM270.559 76.9292C270.37 77.4694 270.049 78.0058 269.713 78.3496C269.788 78.4591 269.913 78.7084 269.954 78.818C270.359 78.3836 270.744 77.7036 270.986 77.0614L270.559 76.9292ZM270.185 77.9718V80.4575H270.615V77.5449V77.5411L270.185 77.9718Z" fill="black"/>
<path d="M275.295 77.0841L274.804 77.0689C274.808 77.1369 274.8 77.2238 274.793 77.2994C274.751 77.6734 274.683 78.2287 274.683 78.7235C274.683 79.2788 274.793 79.8379 274.906 80.1779L275.34 80.0495C275.216 79.6679 275.106 79.2448 275.106 78.648C275.106 78.1796 275.17 77.6356 275.242 77.2843C275.257 77.2238 275.272 77.1558 275.295 77.0841ZM274.619 77.4996C274.388 77.4996 274.06 77.4694 273.924 77.4505L273.935 77.8849C274.113 77.8925 274.407 77.9114 274.607 77.9114C275.178 77.9114 275.971 77.8547 276.488 77.7602L276.485 77.3258C275.907 77.4656 275.336 77.4996 274.619 77.4996ZM276.25 78.0549L275.786 77.9416C275.782 78.0247 275.756 78.1871 275.729 78.2664C275.578 78.7878 275.321 79.124 275.046 79.3771C274.815 79.5924 274.562 79.7171 274.385 79.7171C274.26 79.7171 274.211 79.6528 274.211 79.5282C274.211 79.2751 274.479 78.9124 274.857 78.7349C275.042 78.6518 275.314 78.5535 275.657 78.5535C276.167 78.5535 276.443 78.8255 276.443 79.1466C276.443 79.5206 276.145 79.887 275.416 79.9664L275.669 80.3668C276.594 80.2233 276.911 79.7057 276.911 79.1693C276.911 78.58 276.39 78.172 275.684 78.172C275.401 78.172 275.091 78.2287 274.842 78.3193C274.241 78.5384 273.765 79.0937 273.765 79.6264C273.765 80.0117 273.996 80.1779 274.271 80.1779C274.6 80.1779 274.928 80.0117 275.174 79.8304C275.533 79.5659 275.922 79.056 276.137 78.376C276.164 78.2967 276.22 78.1229 276.25 78.0549Z" fill="black"/>
<path d="M278.562 77.0878L278.044 77.0689C278.041 77.1709 278.029 77.322 278.014 77.4618C277.957 77.8547 277.908 78.3193 277.908 78.6744C277.908 78.9275 277.931 79.158 277.954 79.3053L278.418 79.2713C278.399 79.0975 278.396 78.9766 278.403 78.8709C278.418 78.376 278.811 77.7036 279.257 77.7036C279.57 77.7036 279.767 78.0285 279.767 78.6102C279.767 79.5244 279.177 79.8039 278.335 79.9324L278.622 80.3706C279.623 80.1855 280.276 79.6793 280.276 78.6102C280.276 77.7791 279.869 77.2616 279.344 77.2616C278.921 77.2616 278.588 77.5827 278.407 77.8736C278.43 77.662 278.509 77.2729 278.562 77.0878Z" fill="black"/>
<path d="M283.23 77.0689H282.716C282.731 77.1407 282.739 77.2578 282.739 77.3258C282.739 77.5411 282.735 78.0209 282.735 78.3836C282.735 78.75 282.777 79.4262 282.777 79.6528C282.777 79.8719 282.641 79.9286 282.441 79.9286C282.18 79.9286 282.048 79.8417 282.048 79.6982C282.048 79.5659 282.195 79.464 282.459 79.464C283.105 79.464 283.653 79.8304 284.012 80.1704L284.284 79.7473C283.97 79.4828 283.351 79.0749 282.52 79.0749C281.942 79.0749 281.591 79.3431 281.591 79.7246C281.591 80.125 281.908 80.3555 282.512 80.3555C283.007 80.3555 283.253 80.1061 283.253 79.7813C283.253 79.4828 283.192 78.7991 283.192 78.3836C283.192 78.0662 283.196 77.5298 283.203 77.3372C283.207 77.2389 283.219 77.1445 283.23 77.0689ZM281.663 77.4203L281.67 77.8547C281.919 77.8849 282.357 77.9189 282.599 77.9189C283.166 77.9189 283.766 77.8736 284.151 77.8207L284.155 77.39C283.604 77.4769 283.109 77.5034 282.595 77.5034C282.365 77.5034 281.931 77.4656 281.663 77.4203ZM281.64 78.2362L281.647 78.682C281.897 78.7122 282.323 78.7311 282.546 78.7311C283.264 78.7311 283.676 78.7084 284.197 78.648L284.201 78.2022C283.736 78.2627 283.249 78.308 282.55 78.308C282.35 78.308 281.889 78.2816 281.64 78.2362Z" fill="black"/>
<path d="M287.218 77.0765H286.671C286.678 77.1256 286.693 77.254 286.705 77.4051C286.72 77.6054 286.72 78.3307 286.72 78.5649L287.192 78.7235C287.188 78.4213 287.18 77.6507 287.192 77.4014C287.195 77.3409 287.207 77.1407 287.218 77.0765ZM285.08 77.5487L285.092 78.002C285.662 77.9718 286.414 77.9416 287.101 77.9416C287.656 77.9416 288.041 77.9529 288.276 77.9642L288.283 77.5185C288.072 77.5147 287.498 77.5185 287.112 77.5185C286.64 77.5185 285.643 77.5487 285.08 77.5487ZM287.128 78.6669L286.772 78.5687C286.893 79.0182 286.739 79.1693 286.561 79.1693C286.406 79.1693 286.266 79.0597 286.266 78.8898C286.266 78.6895 286.414 78.5875 286.561 78.5875C286.727 78.5875 286.859 78.7046 286.859 78.9502C286.859 79.6113 286.357 79.8644 285.715 80.0041L286.115 80.4046C287.037 80.1439 287.328 79.5206 287.328 79.0257C287.328 78.5573 287.067 78.1909 286.569 78.1909C286.161 78.1909 285.813 78.4704 285.813 78.8973C285.813 79.3582 286.176 79.5886 286.467 79.5886C286.901 79.5886 287.128 79.2826 287.128 78.6669Z" fill="black"/>
<path d="M298.671 69.9902C298.977 70.4166 299.568 70.9405 300.088 71.2527C300.135 71.1789 300.195 71.0949 300.259 71.0378C299.732 70.7558 299.135 70.2387 298.782 69.7383H298.53C298.272 70.1816 297.704 70.7356 297.124 71.0748C297.181 71.1251 297.251 71.2124 297.285 71.2729C297.852 70.9237 298.399 70.4032 298.671 69.9902ZM297.95 70.8061V71.0446H299.42V70.8061H297.95ZM297.516 71.4676V71.7061H299.558V71.4676H297.516ZM299.507 71.4676V71.4979C299.38 71.7934 299.111 72.3642 298.893 72.7772L299.158 72.8477C299.366 72.4314 299.628 71.8874 299.786 71.5147L299.588 71.4509L299.544 71.4676H299.507Z" fill="#7D7D7F"/>
<path d="M218.116 69.6275C218.116 69.1639 218.492 68.788 218.955 68.788H222.313C222.776 68.788 223.152 69.1639 223.152 69.6275V72.9854C223.152 73.449 222.776 73.8249 222.313 73.8249H218.955C218.492 73.8249 218.116 73.449 218.116 72.9854V69.6275Z" fill="#20AEE5"/>
<path d="M221.261 70.1802C221.197 70.076 221.106 69.9894 220.996 69.9293C220.886 69.8691 220.761 69.8374 220.634 69.8374C220.507 69.8374 220.382 69.8691 220.272 69.9293C220.162 69.9894 220.071 70.076 220.007 70.1802L219.052 71.7469C218.989 71.8511 218.955 71.9694 218.955 72.0898C218.956 72.2101 218.989 72.3284 219.053 72.4326C219.116 72.5368 219.207 72.6234 219.317 72.6836C219.428 72.7438 219.552 72.7755 219.679 72.7756H221.589C221.716 72.7755 221.841 72.7438 221.951 72.6837C222.061 72.6235 222.152 72.5369 222.216 72.4326C222.279 72.3284 222.313 72.2101 222.313 72.0897C222.313 71.9694 222.279 71.8511 222.216 71.7469L221.261 70.1802ZM221.751 72.1783C221.735 72.2053 221.711 72.2277 221.682 72.2433C221.654 72.2589 221.622 72.2671 221.589 72.2671H219.679C219.646 72.2671 219.614 72.2589 219.586 72.2433C219.557 72.2277 219.533 72.2052 219.517 72.1782C219.501 72.1512 219.492 72.1206 219.492 72.0894C219.492 72.0582 219.501 72.0276 219.517 72.0006L220.472 70.434C220.488 70.4069 220.512 70.3845 220.54 70.3689C220.569 70.3532 220.601 70.345 220.634 70.345C220.667 70.345 220.699 70.3532 220.728 70.3689C220.756 70.3845 220.78 70.4069 220.796 70.434L221.751 72.0006C221.767 72.0276 221.776 72.0583 221.776 72.0894C221.776 72.1206 221.767 72.1513 221.751 72.1783Z" fill="white"/>
<path d="M224.943 72.5657H225.253L225.491 71.8886H226.432L226.669 72.5657H226.979L226.107 70.1998H225.815L224.943 72.5657ZM225.948 70.5818H225.974L226.345 71.6377H225.578L225.948 70.5818Z" fill="#7D7D7F"/>
<path d="M227.509 70.4572C227.617 70.4572 227.705 70.3687 227.705 70.2605C227.705 70.1522 227.617 70.0637 227.509 70.0637C227.401 70.0637 227.312 70.1522 227.312 70.2605C227.312 70.3687 227.401 70.4572 227.509 70.4572ZM227.365 72.5657H227.65V70.7982H227.365V72.5657Z" fill="#7D7D7F"/>
<path d="M228.187 72.5657H228.473V71.4705C228.473 71.2114 228.666 71.0393 228.938 71.0393C229 71.0393 229.055 71.0458 229.114 71.0557V70.7786C229.086 70.7736 229.025 70.7671 228.971 70.7671C228.732 70.7671 228.566 70.8753 228.499 71.0606H228.473V70.7982H228.187V72.5657Z" fill="#7D7D7F"/>
<path d="M229.489 71.3535L229.62 71.6154C230.161 71.4475 230.694 71.2024 231.064 70.9741C231.456 70.729 231.809 70.4469 232.098 70.148L231.873 69.9365C231.641 70.2186 231.305 70.5073 230.953 70.729C230.58 70.9606 230.07 71.1991 229.489 71.3535ZM230.899 70.8666V72.3139C230.899 72.4381 230.889 72.606 230.879 72.6698H231.211C231.195 72.606 231.188 72.4381 231.188 72.3139V70.7793L230.899 70.8666Z" fill="#7D7D7F"/>
<path d="M233.32 70.1077L233.125 70.3126C233.377 70.4771 233.793 70.8398 233.964 71.0144L234.172 70.7995C233.988 70.6148 233.555 70.2656 233.32 70.1077ZM233.031 72.3575L233.206 72.6329C233.766 72.5288 234.189 72.3206 234.528 72.109C235.035 71.79 235.425 71.3334 235.653 70.917L235.492 70.6282C235.297 71.0446 234.891 71.5416 234.37 71.8673C234.052 72.0654 233.615 72.2702 233.031 72.3575Z" fill="#7D7D7F"/>
<path d="M238.436 69.913L238.258 69.9902C238.349 70.1178 238.456 70.3092 238.523 70.4435L238.705 70.3629C238.637 70.2286 238.52 70.0339 238.436 69.913ZM238.832 69.819L238.658 69.8962C238.752 70.0204 238.856 70.1984 238.929 70.3462L239.111 70.2656C239.047 70.1413 238.923 69.9432 238.832 69.819ZM237.731 69.9801H237.419C237.429 70.0305 237.442 70.1447 237.442 70.2186C237.442 70.3965 237.442 70.729 237.442 70.8431C237.442 71.0009 237.442 72.1493 237.439 72.3307C237.439 72.4213 237.402 72.4583 237.311 72.4583C237.221 72.4583 237.07 72.4482 236.922 72.4213L236.945 72.6866C237.083 72.7034 237.281 72.7101 237.422 72.7101C237.627 72.7101 237.711 72.6194 237.711 72.4448C237.711 72.2031 237.711 71.1151 237.711 70.8431C237.711 70.6786 237.711 70.3965 237.711 70.2186C237.711 70.148 237.724 70.0272 237.731 69.9801ZM236.224 70.5443V70.8297C236.311 70.8196 236.405 70.8163 236.509 70.8163C236.714 70.8163 238.402 70.8163 238.604 70.8163C238.684 70.8163 238.785 70.8196 238.872 70.8263V70.5476C238.788 70.5577 238.678 70.5644 238.6 70.5644C238.399 70.5644 236.704 70.5644 236.506 70.5644C236.402 70.5644 236.318 70.5577 236.224 70.5443ZM236.996 71.3367L236.757 71.2226C236.626 71.4946 236.341 71.8941 236.116 72.099L236.348 72.2568C236.539 72.052 236.851 71.6222 236.996 71.3367ZM238.396 71.2226L238.167 71.3468C238.345 71.5584 238.597 71.9747 238.731 72.24L238.976 72.1023C238.842 71.8572 238.577 71.4375 238.396 71.2226Z" fill="#7D7D7F"/>
<path d="M239.561 71.3535L239.692 71.6154C240.232 71.4475 240.766 71.2024 241.135 70.9741C241.528 70.729 241.88 70.4469 242.169 70.148L241.944 69.9365C241.713 70.2186 241.377 70.5073 241.024 70.729C240.652 70.9606 240.141 71.1991 239.561 71.3535ZM240.971 70.8666V72.3139C240.971 72.4381 240.961 72.606 240.95 72.6698H241.283C241.266 72.606 241.259 72.4381 241.259 72.3139V70.7793L240.971 70.8666Z" fill="#7D7D7F"/>
<path d="M245.21 70.3227L245.042 70.1917C244.988 70.2085 244.898 70.2186 244.79 70.2186C244.663 70.2186 243.625 70.2186 243.494 70.2186C243.39 70.2186 243.199 70.2051 243.155 70.1984V70.5006C243.192 70.4973 243.373 70.4838 243.494 70.4838C243.608 70.4838 244.683 70.4838 244.804 70.4838C244.716 70.7625 244.471 71.1621 244.243 71.4207C243.897 71.8035 243.404 72.2064 242.86 72.4146L243.075 72.6396C243.605 72.3978 244.085 71.9982 244.461 71.5785C244.74 71.2696 244.995 70.7995 245.129 70.467C245.146 70.4234 245.19 70.3495 245.21 70.3227ZM244.505 71.4039L244.313 71.5919C244.676 71.9109 245.069 72.3407 245.31 72.6597L245.542 72.4549C245.314 72.1762 244.867 71.7061 244.505 71.4039Z" fill="#7D7D7F"/>
<path d="M367.499 213.516C370.699 220.716 396.166 246.516 408.499 258.516L315 212.516C312.833 210.349 308.3 201.516 307.5 183.516C306.7 165.516 313.166 144.682 316.5 136.516C313.7 132.116 313.666 114.682 314 106.516C311.166 98.5156 306.3 80.6156 309.5 73.0156C313.5 63.5156 316.5 61.5159 320.5 61.0159C323.7 60.6159 326.833 67.8493 328 71.5159L329.5 80.0159C330.3 85.2159 333.833 90.5159 335.5 92.5159C340.7 97.3159 342 104.849 342 108.016L345.499 130.516C345.332 131.183 345.699 133.816 348.499 139.016C351.166 144.516 356.698 158.716 357.499 171.516L360.999 183.516C362.499 189.016 365.499 206.516 365.499 209.016C365.499 211.016 366.832 212.849 367.499 213.516Z" fill="white"/>
<path d="M408.499 258.516C396.166 246.516 370.699 220.716 367.499 213.516C366.832 212.849 365.499 211.016 365.499 209.016C365.499 206.516 362.499 189.016 360.999 183.516L357.499 171.516C356.698 158.716 351.166 144.516 348.499 139.016C345.699 133.816 345.332 131.183 345.499 130.516L342 108.016C342 104.849 340.7 97.3159 335.5 92.5159C333.833 90.5159 330.3 85.2159 329.5 80.0159L328 71.5159C326.833 67.8493 323.7 60.6159 320.5 61.0159C316.5 61.5159 313.5 63.5156 309.5 73.0156C306.3 80.6156 311.166 98.5156 314 106.516C313.666 114.682 313.7 132.116 316.5 136.516C313.166 144.682 306.7 165.516 307.5 183.516C308.3 201.516 312.833 210.349 315 212.516" stroke="#20AEE5" stroke-width="2" stroke-linecap="round" stroke-linejoin="round"/>
<path d="M205.395 192.016C193.395 190.816 190.395 199.02 190.395 203.52C190.895 210.02 194.895 213.02 200.895 214.02C205.695 214.82 212.561 212.52 215.395 211.02C218.561 209.186 224.995 204.32 225.395 199.52C225.795 194.72 218.895 192.853 215.395 192.52L205.395 192.016Z" fill="white"/>
<path d="M205.395 192.016C193.395 190.816 190.395 199.02 190.395 203.52C190.895 210.02 194.895 213.02 200.895 214.02C205.695 214.82 212.561 212.52 215.395 211.02C218.561 209.186 224.995 204.32 225.395 199.52C225.795 194.72 218.895 192.853 215.395 192.52L205.395 192.016Z" stroke="#20AEE5" stroke-width="2" stroke-linecap="round" stroke-linejoin="round"/>
<path d="M190.627 100.088L205.894 112.016V85.5158C198.394 81.5158 194.894 84.0158 191.894 87.0158C189.084 89.8259 187.151 94.8296 189.384 98.7392C189.69 99.2752 190.141 99.7083 190.627 100.088Z" fill="white"/>
<path d="M190.627 100.088L205.894 112.016V85.5158C198.394 81.5158 194.894 84.0158 191.894 87.0158C189.084 89.8259 187.151 94.8296 189.384 98.7392C189.69 99.2752 190.141 99.7083 190.627 100.088Z" stroke="#20AEE5" stroke-width="2" stroke-linecap="round" stroke-linejoin="round"/>
<path d="M193.894 121.016L190.894 123.516C186.894 127.116 187.894 133.683 188.894 136.516C189.228 137.182 190.494 139.216 192.894 142.016C195.894 145.516 200.394 145.516 202.894 145.516C205.394 145.516 207.894 145.516 210.894 143.516C212.895 142.182 215.894 138.625 215.894 134.016C215.895 130.859 214.91 128.932 213.804 127.718C212.985 126.818 212.01 126 211.103 125.187C210.116 124.303 208.479 122.955 205.894 121.016C201.094 117.416 195.894 119.516 193.894 121.016Z" fill="white"/>
<path d="M193.894 121.016L190.894 123.516C186.894 127.116 187.894 133.683 188.894 136.516C189.228 137.182 190.494 139.216 192.894 142.016C195.894 145.516 200.394 145.516 202.894 145.516C205.394 145.516 207.894 145.516 210.894 143.516C212.895 142.182 215.894 138.625 215.894 134.016C215.895 130.859 214.91 128.932 213.804 127.718C212.985 126.818 212.01 126 211.103 125.187C210.116 124.303 208.479 122.955 205.894 121.016C201.094 117.416 195.894 119.516 193.894 121.016Z" stroke="#20AEE5" stroke-width="2" stroke-linecap="round" stroke-linejoin="round"/>
<path d="M191.739 162.688L191.121 164.026C190.971 164.353 190.843 164.69 190.753 165.038C190.281 166.868 190.068 168.677 189.973 170.251C189.842 172.406 190.069 174.72 191.463 176.367C191.947 176.939 192.514 177.406 193.289 178.004C195.895 180.017 200.443 181.526 202.894 182.017C205.394 182.517 217.394 185.017 220.394 183.017C222.394 181.683 225.894 178.627 225.894 174.017C225.894 170.135 224.406 166.997 221.75 164.603C220.902 163.839 219.863 163.251 218.789 162.863C215.922 161.828 209.886 159.703 206.289 157.005C203.373 154.818 200.533 154.369 198.08 155.139C194.823 156.161 193.169 159.588 191.739 162.688Z" fill="white"/>
<path d="M191.739 162.688L191.121 164.026C190.971 164.353 190.843 164.69 190.753 165.038C190.281 166.868 190.068 168.677 189.973 170.251C189.842 172.406 190.069 174.72 191.463 176.367C191.947 176.939 192.514 177.406 193.289 178.004C195.895 180.017 200.443 181.526 202.894 182.017C205.394 182.517 217.394 185.017 220.394 183.017C222.394 181.683 225.894 178.627 225.894 174.017C225.894 170.135 224.406 166.997 221.75 164.603C220.902 163.839 219.863 163.251 218.789 162.863C215.922 161.828 209.886 159.703 206.289 157.005C203.373 154.818 200.533 154.369 198.08 155.139C194.823 156.161 193.169 159.588 191.739 162.688Z" stroke="#20AEE5" stroke-width="2" stroke-linecap="round" stroke-linejoin="round"/>
<mask id="mask0_69_5462" style="mask-type:alpha" maskUnits="userSpaceOnUse" x="0" y="64" width="175" height="175">
<circle cx="87.5" cy="151.5" r="87.5" fill="#C4C4C4"/>
</mask>
<g mask="url(#mask0_69_5462)">
<path d="M-5 57C-5 47.0589 3.05888 39 13 39H162C171.941 39 180 47.0589 180 57V411C180 420.941 171.941 429 162 429H13C3.05888 429 -5 420.941 -5 411V57Z" fill="white"/>
<path d="M63.1024 75.7764C57.497 75.7764 53.2828 80.0164 53.2828 85.6764V85.717C53.2828 91.1944 57.4567 95.3532 62.9411 95.3532C67.3771 95.3532 71.067 92.5536 72.055 88.8006H72.1356C72.1558 89.1454 72.1558 89.5512 72.1356 89.9569C72.0751 98.0108 69.1918 104.442 62.9613 104.442C59.2109 104.442 56.3073 102.149 55.6016 98.944L55.5613 98.7208H53.9482L53.9886 98.9845C54.7144 102.94 58.1221 105.902 62.9613 105.902C69.5749 105.902 73.7084 99.8366 73.7084 89.6729V89.6323C73.7084 80.3612 69.1514 75.7764 63.1024 75.7764ZM63.1226 93.9128C58.4648 93.9128 54.8959 90.3424 54.8959 85.6967V85.6561C54.8959 80.909 58.5052 77.2371 63.1024 77.2371C67.982 77.2371 71.4904 81.193 71.4904 86.0213V86.0618C71.4904 90.3018 67.6593 93.9128 63.1226 93.9128Z" fill="black"/>
<path d="M79.7171 83.3434C80.4429 83.3434 81.0277 82.7348 81.0277 82.0045C81.0277 81.2944 80.4429 80.6858 79.7171 80.6858C78.9912 80.6858 78.4064 81.2944 78.4064 82.0045C78.4064 82.7348 78.9912 83.3434 79.7171 83.3434ZM79.7171 100.973C80.4429 100.973 81.0277 100.364 81.0277 99.654C81.0277 98.9237 80.4429 98.3151 79.7171 98.3151C78.9912 98.3151 78.4064 98.9237 78.4064 99.654C78.4064 100.364 78.9912 100.973 79.7171 100.973Z" fill="black"/>
<path d="M100.304 105.476H101.877V98.1528H106.494V96.6921H101.877V76.2025H99.578L85.3225 96.6719V98.1528H100.304V105.476ZM87.0565 96.6921V96.6516L100.223 77.8457H100.304V96.6921H87.0565Z" fill="black"/>
<path d="M117.019 105.476H118.592V76.2025H117.019L109.035 81.3756V83.0594L116.979 77.9674H117.019V105.476Z" fill="black"/>
<path d="M53.293 123.052C54.8972 123.052 56.04 122.145 56.04 120.869V120.858C56.04 119.919 55.3847 119.139 54.4149 118.912V118.891C55.2432 118.632 55.7674 117.999 55.7674 117.198V117.187C55.7674 116.037 54.7242 115.188 53.293 115.188C51.8618 115.188 50.8185 116.037 50.8185 117.187V117.198C50.8185 117.999 51.3428 118.632 52.1711 118.891V118.912C51.2012 119.139 50.5459 119.919 50.5459 120.858V120.869C50.5459 122.145 51.6888 123.052 53.293 123.052ZM53.293 118.537C52.3808 118.537 51.7569 118.015 51.7569 117.277V117.266C51.7569 116.528 52.3808 116.006 53.293 116.006C54.2052 116.006 54.829 116.528 54.829 117.266V117.277C54.829 118.015 54.2052 118.537 53.293 118.537ZM53.293 122.224C52.2497 122.224 51.5053 121.634 51.5053 120.811V120.8C51.5053 119.967 52.2445 119.371 53.293 119.371C54.3415 119.371 55.0806 119.967 55.0806 120.8V120.811C55.0806 121.634 54.3362 122.224 53.293 122.224Z" fill="black"/>
<path d="M59.4379 114.424V115.213H65.0424V114.424H59.4379ZM59.4379 117.028V117.806H65.0854V117.028H59.4379ZM59.352 119.642V120.42H65.0317V119.642H59.352ZM58.944 114.424V117.762C58.944 119.501 58.7615 121.694 57.0329 123.217C57.2047 123.336 57.5268 123.628 57.6449 123.801C59.4916 122.18 59.76 119.631 59.76 117.762V114.424H58.944ZM64.6881 114.424V122.591C64.6881 122.829 64.6022 122.904 64.3553 122.915C64.1083 122.915 63.2279 122.926 62.3368 122.893C62.4764 123.12 62.6267 123.509 62.6804 123.747C63.8399 123.747 64.5485 123.736 64.9673 123.596C65.3752 123.455 65.5256 123.174 65.5256 122.602V114.424H64.6881Z" fill="black"/>
<path d="M70.8762 123.052C72.3913 123.052 73.5027 122.114 73.5027 120.842V120.832C73.5027 119.751 72.7531 119.06 71.6521 118.965V118.944C72.5958 118.743 73.2563 118.1 73.2563 117.161V117.15C73.2563 115.995 72.3074 115.188 70.8658 115.188C69.4503 115.188 68.4752 116.016 68.3546 117.256L68.3494 117.308H69.2563L69.2616 117.256C69.3402 116.486 69.9745 116.011 70.8658 116.011C71.7884 116.011 72.3074 116.47 72.3074 117.266V117.277C72.3074 118.036 71.6784 118.595 70.7766 118.595H69.8697V119.397H70.8186C71.8776 119.397 72.5434 119.919 72.5434 120.853V120.863C72.5434 121.67 71.8671 122.23 70.8762 122.23C69.8697 122.23 69.1829 121.713 69.1095 120.964L69.1043 120.911H68.1973L68.2026 120.974C68.3022 122.177 69.314 123.052 70.8762 123.052Z" fill="black"/>
<path d="M76.8841 122.926H77.8278V115.315H76.8894L74.8763 116.77V117.773L76.8003 116.37H76.8841V122.926Z" fill="black"/>
<path d="M81.0595 114.586V123.671H81.8862V115.407H87.2438V123.628H88.092V114.586H81.0595ZM81.6071 118.335V119.134H87.5981V118.335H81.6071ZM81.5963 122.159V122.969H87.6196V122.159H81.5963Z" fill="black"/>
<path d="M93.5059 116.628V117.438H96.7376V116.628H93.5059ZM97.8864 113.884V122.656C97.8864 122.861 97.8006 122.926 97.5966 122.937C97.3711 122.937 96.6839 122.947 95.9109 122.915C96.0398 123.163 96.2008 123.563 96.233 123.801C97.2315 123.801 97.8542 123.779 98.2193 123.628C98.5736 123.488 98.7239 123.228 98.7239 122.656V113.884H97.8864ZM96.4585 116.628V116.812C96.0075 119.285 94.7728 121.133 93.2375 122.105C93.4308 122.234 93.7529 122.559 93.8924 122.753C95.4707 121.673 96.7698 119.653 97.3174 116.801L96.7698 116.596L96.6303 116.628H96.4585ZM98.681 115.645L98.0368 115.796C98.8313 118.994 100.291 121.748 102.739 122.969C102.879 122.721 103.158 122.397 103.362 122.234C100.957 121.176 99.4218 118.551 98.681 115.645ZM102.181 115.613C101.472 116.574 100.227 117.838 99.3144 118.583L99.8835 119.037C100.818 118.313 102.042 117.125 102.922 116.142L102.181 115.613Z" fill="black"/>
<path d="M107.893 115.613V116.185H110.094V115.613H107.893ZM107.71 114.262V114.846H109.707V116.985H107.7V117.579H110.416V114.262H107.71ZM111.007 115.613V116.185H113.272V115.613H111.007ZM110.856 114.262V114.846H112.907V116.985H110.846V117.579H113.616V114.262H110.856ZM108.666 119.901V120.474H113.433V119.901H108.666ZM108.666 121.305V121.878H113.433V121.305H108.666ZM108.698 122.775V123.401H113.97V122.775H108.698ZM108.913 117.427C108.559 118.324 107.818 119.393 107.034 120.063C107.174 120.193 107.399 120.452 107.517 120.603C108.387 119.858 109.181 118.702 109.665 117.654L108.913 117.427ZM108.977 118.432H108.859L108.237 119.091V123.736H108.977V119.069H113.701V118.432H108.977ZM111.157 117.492C111.05 117.86 110.813 118.421 110.631 118.799L111.232 118.983C111.447 118.648 111.715 118.151 111.951 117.676L111.157 117.492ZM110.642 118.918V123.012H111.361V118.918H110.642ZM104.865 114.532V115.267H106.529V120.981H104.865V121.705H107.26V114.532H104.865ZM104.908 117.698V118.421H106.905V117.698H104.908ZM104.489 114.532V122.602H105.209V114.532H104.489Z" fill="black"/>
<path d="M116.289 114.586V123.671H117.116V115.407H122.473V123.628H123.321V114.586H116.289ZM116.837 118.335V119.134H122.828V118.335H116.837ZM116.826 122.159V122.969H122.849V122.159H116.826Z" fill="black"/>
<path d="M2.08118 141.206C2.08118 137.534 5.0393 134.558 8.68832 134.558H167.26C170.909 134.558 173.867 137.534 173.867 141.206V162.81C173.867 166.482 170.909 169.458 167.26 169.458H8.68832C5.0393 169.458 2.08118 166.482 2.08118 162.81V141.206Z" fill="#EFEFEF"/>
<path d="M10.2032 155.953V156.724H14.0312V155.953H10.2032ZM10.9763 157.285V158.025H13.838V157.285H10.9763ZM10.4114 158.616V159.371H14.1502V158.616H10.4114ZM9.86132 155.953V158.16C9.86132 159.341 9.79442 160.994 9.03625 162.131C9.22208 162.213 9.57143 162.49 9.71266 162.639C10.5526 161.413 10.6864 159.453 10.6864 158.16V155.953H9.86132ZM10.9168 159.109V162.011L11.7047 161.951V159.109H10.9168ZM10.3519 161.757L10.5303 162.52C11.1621 162.385 11.9574 162.22 12.7082 162.048L12.6338 161.338C11.7939 161.502 10.9391 161.66 10.3519 161.757ZM13.6224 159.513C13.3548 159.835 12.8866 160.283 12.5521 160.53L12.9981 160.986C13.3474 160.77 13.8008 160.403 14.2096 160.074L13.6224 159.513ZM12.7528 159.109L12.002 159.199C12.2325 160.837 12.671 162.041 13.7934 162.647C13.9123 162.415 14.1576 162.078 14.3434 161.906C13.3623 161.465 12.9386 160.411 12.7528 159.109ZM7.18542 159.394L7.38612 160.254C8.04022 160.067 8.85786 159.827 9.62346 159.588L9.50453 158.78C8.6646 159.02 7.78007 159.259 7.18542 159.394ZM7.30435 157.053V157.875H9.57886V157.053H7.30435ZM8.09226 155.639V161.704C8.09226 161.809 8.05509 161.832 7.96589 161.832C7.8767 161.839 7.61654 161.839 7.34895 161.824C7.45301 162.071 7.55708 162.437 7.57938 162.662C8.06252 162.662 8.38214 162.632 8.60513 162.49C8.83556 162.355 8.90989 162.123 8.90989 161.704V155.639H8.09226Z" fill="black"/>
<path d="M17.4727 155.946V156.791H19.0411V155.946H17.4727ZM18.5951 155.946V156.342H18.7364C18.8702 158.519 19.3607 160.403 20.944 161.353C21.1075 161.144 21.4346 160.814 21.6427 160.672C20.0892 159.88 19.6432 158.077 19.5317 155.946H18.5951ZM18.5654 157.501C18.3275 158.945 17.7552 160.059 16.7146 160.687C16.9153 160.837 17.2646 161.188 17.3984 161.36C18.4985 160.59 19.16 159.319 19.4871 157.636L18.5654 157.501ZM16.5287 158.548H14.7894V159.379H15.6591V161.301H16.5287V158.548ZM16.5287 160.912H15.7111C15.3692 161.181 14.9678 161.443 14.6333 161.652L15.0719 162.587C15.4733 162.258 15.8077 161.974 16.1348 161.682C16.6179 162.265 17.2349 162.482 18.1492 162.52C19.0411 162.557 20.5426 162.542 21.442 162.497C21.4791 162.228 21.6278 161.794 21.7244 161.585C20.721 161.667 19.0337 161.689 18.164 161.652C17.391 161.622 16.8261 161.405 16.5287 160.912ZM14.8043 156.342C15.2428 156.679 15.778 157.18 16.001 157.531L16.7146 156.941C16.4544 156.589 15.9118 156.118 15.4658 155.804L14.8043 156.342Z" fill="black"/>
<path d="M25.2031 159.169V161.652C25.2031 161.764 25.1585 161.787 25.0173 161.794C24.8686 161.802 24.3111 161.802 23.8726 161.779C23.9989 162.019 24.1476 162.392 24.1996 162.647C24.8389 162.647 25.322 162.632 25.6714 162.505C26.0207 162.385 26.1322 162.146 26.1322 161.682V159.169H25.2031ZM22.9658 156.051V156.873H27.5296V156.051H22.9658ZM27.1952 156.051V156.245C26.8607 156.671 26.0802 157.322 25.4335 157.688C25.5822 157.831 25.8498 158.107 25.9687 158.287C26.764 157.845 27.6411 157.135 28.2729 156.507L27.6337 155.998L27.433 156.051H27.1952ZM22.2448 158.489V159.341H28.3175V158.489H22.2448ZM24.0064 157.831C24.8612 158.152 26.1099 158.668 26.712 158.967L27.1877 158.197C26.541 157.905 25.2626 157.434 24.4524 157.157L24.0064 157.831ZM28.0202 158.489V158.638C27.8121 159.184 27.433 159.842 27.1208 160.261L27.879 160.702C28.3027 160.201 28.7487 159.446 29.0757 158.743L28.3473 158.429L28.1912 158.489H28.0202Z" fill="black"/>
<path d="M33.0004 159.02C33.3794 159.558 33.7734 160.283 33.9072 160.747L34.6877 160.343C34.5241 159.865 34.1004 159.169 33.7139 158.653L33.0004 159.02ZM33.2456 156.903V157.748H35.9141V156.903H33.2456ZM35.535 156.903V157.083C35.4458 160.126 35.3418 161.39 35.0965 161.645C35.0147 161.749 34.9255 161.772 34.7768 161.772C34.5836 161.772 34.1525 161.772 33.6842 161.734C33.8477 161.989 33.9666 162.377 33.9815 162.632C34.4201 162.654 34.8735 162.654 35.1485 162.617C35.4607 162.564 35.6614 162.482 35.8695 162.198C36.1817 161.802 36.2783 160.613 36.3898 157.315C36.3973 157.202 36.3973 156.903 36.3973 156.903H35.535ZM33.2902 155.624C33.045 156.604 32.5915 157.584 32.0266 158.175C32.2496 158.302 32.6436 158.571 32.822 158.72C33.3869 158.04 33.8998 156.941 34.2119 155.826L33.2902 155.624ZM30.6738 155.639C30.5029 156.163 30.1832 156.881 29.9156 157.329L30.5177 157.576C30.8076 157.165 31.157 156.499 31.4617 155.916L30.6738 155.639ZM31.5658 156.522C31.1718 157.322 30.4954 158.421 29.9231 159.094L30.4657 159.371C31.038 158.735 31.7665 157.696 32.3165 156.836L31.5658 156.522ZM29.5291 157.412C29.9082 157.771 30.3616 158.287 30.5475 158.646L31.0009 157.943C30.8076 157.614 30.3468 157.135 29.9454 156.791L29.5291 157.412ZM31.38 158.324C31.6624 158.84 31.9374 159.521 32.0266 159.947L32.703 159.633C32.6064 159.199 32.3091 158.548 32.0118 158.047L31.38 158.324ZM29.5217 158.93L29.596 159.708C30.3319 159.663 31.2982 159.595 32.2348 159.521V158.81C31.2387 158.863 30.213 158.907 29.5217 158.93ZM31.5137 160.201C31.6921 160.657 31.8854 161.263 31.9523 161.652L32.651 161.398C32.5618 161.016 32.3611 160.433 32.1679 159.984L31.5137 160.201ZM29.8413 160.029C29.7818 160.665 29.6629 161.33 29.4474 161.772C29.6332 161.847 29.9677 162.004 30.1238 162.101C30.3393 161.622 30.5029 160.874 30.5772 160.156L29.8413 160.029ZM30.7035 159.326V162.662H31.4989V159.326H30.7035Z" fill="black"/>
<path d="M39.6158 156.484V157.292H43.637V156.484H39.6158ZM39.2738 159.356V160.171H43.9269V159.356H39.2738ZM39.1995 157.95V158.765H43.9864V157.95H39.1995ZM41.1395 155.662V158.369H42.0315V155.662H41.1395ZM42.1579 158.623V161.697C42.1579 161.794 42.1207 161.824 42.0092 161.824C41.8903 161.832 41.4814 161.832 41.1172 161.809C41.2287 162.048 41.3551 162.407 41.3923 162.654C41.9572 162.654 42.366 162.647 42.6707 162.512C42.9681 162.377 43.0498 162.153 43.0498 161.712V158.623H42.1579ZM39.6827 160.598C40.0097 161.001 40.3739 161.562 40.5077 161.921L41.2882 161.495C41.1321 161.129 40.7456 160.598 40.4185 160.216L39.6827 160.598ZM38.6941 157.285C38.2704 158.01 37.5494 158.75 36.9027 159.214C37.0365 159.431 37.2595 159.939 37.3189 160.141C38.0846 159.521 38.9393 158.534 39.4671 157.614L38.6941 157.285ZM38.5157 155.639C38.2035 156.14 37.5494 156.754 36.9845 157.113C37.1108 157.3 37.3264 157.666 37.4156 157.868C38.1068 157.412 38.8576 156.679 39.3407 155.983L38.5157 155.639ZM37.9954 158.952V162.654H38.8502V158.145L38.813 158.122L37.9954 158.952Z" fill="black"/>
<path d="M47.5617 156.021L46.5062 155.976C46.521 156.223 46.5136 156.417 46.4764 156.731C46.3798 157.501 45.9636 159.319 45.4135 160.411L46.2906 160.717C46.3575 160.59 46.417 160.5 46.4987 160.396C46.9373 159.827 47.6955 159.513 48.5503 159.513C49.2787 159.513 49.6652 159.895 49.6652 160.336C49.6652 161.443 48.0225 161.637 46.3872 161.375L46.6474 162.34C49.0557 162.602 50.6687 161.989 50.6687 160.313C50.6687 159.349 49.8659 158.713 48.6692 158.713C48.0002 158.713 47.4204 158.848 46.8184 159.177C47.0414 158.481 47.2643 157.382 47.3833 156.784C47.4427 156.544 47.4873 156.29 47.5617 156.021ZM44.9675 156.896L44.975 157.823C45.4135 157.868 45.9487 157.898 46.5136 157.898C47.5914 157.898 49.1672 157.718 50.1112 157.561L50.0889 156.664C48.8699 156.926 47.4576 157.038 46.5062 157.038C46.0453 157.038 45.4507 156.978 44.9675 156.896Z" fill="black"/>
<path d="M56.0279 156.858L55.0096 156.828C54.9352 157.614 54.7717 158.474 54.5562 159.177C54.244 160.186 53.9615 160.665 53.6419 160.665C53.3594 160.665 53.0621 160.298 53.0621 159.543C53.0621 158.601 53.9243 157.307 55.5001 157.307C56.7861 157.307 57.5145 158.145 57.5145 159.319C57.5145 160.418 56.7712 161.099 55.8272 161.33C55.6265 161.375 55.4184 161.413 55.1285 161.45L55.6934 162.333C57.5665 162.041 58.5254 160.927 58.5254 159.356C58.5254 157.718 57.3584 156.432 55.5224 156.432C53.5973 156.432 52.1033 157.913 52.1033 159.633C52.1033 160.897 52.7871 161.817 53.6196 161.817C54.4298 161.817 55.069 160.889 55.515 159.379C55.7752 158.496 55.9238 157.621 56.0279 156.858Z" fill="black"/>
<path d="M59.6404 157.928V158.601H61.8851V157.928H59.6404ZM59.6627 155.864V156.544H61.8628V155.864H59.6627ZM59.6404 158.945V159.625H61.8851V158.945H59.6404ZM59.2836 156.873V157.584H62.1304V156.873H59.2836ZM60.0269 159.984V160.695H61.1344V161.547H60.0269V162.258H61.8926V159.984H60.0269ZM59.6255 159.984V162.557H60.3762V159.984H59.6255ZM62.3088 156.036V156.679H66.0997V156.036H62.3088ZM62.4946 156.948V157.554H65.9807V156.948H62.4946ZM62.1304 157.845V158.489H66.2409V157.845H62.1304ZM63.7508 155.632V158.391H64.5982V155.632H63.7508ZM62.6359 158.773V162.647H63.4609V159.409H65.4902V158.773H62.6359ZM64.9996 158.773V161.809C64.9996 161.891 64.9773 161.921 64.8806 161.921C64.784 161.921 64.4718 161.929 64.1968 161.914C64.2934 162.108 64.4049 162.415 64.4272 162.632C64.9104 162.632 65.2597 162.624 65.5124 162.512C65.7577 162.392 65.8321 162.198 65.8321 161.817V158.773H64.9996ZM63.0001 159.745V160.328H65.4307V159.745H63.0001ZM63.0001 160.68V161.263H65.4307V160.68H63.0001Z" fill="black"/>
<path d="M66.9247 156.761V157.636H73.5327V156.761H66.9247ZM70.5892 157.531L69.8831 157.733C70.5075 159.663 71.5332 161.308 73.109 162.146C73.2577 161.884 73.5476 161.525 73.7631 161.338C72.2393 160.65 71.1318 159.169 70.5892 157.531ZM72.5144 157.771C72.1427 158.332 71.5035 159.027 71.0278 159.446L71.6744 159.939C72.165 159.536 72.7968 158.9 73.3023 158.332L72.5144 157.771ZM71.1318 156.163C71.5927 156.395 72.2022 156.754 72.4846 157.008L73.0495 156.372C72.7299 156.133 72.1056 155.804 71.6596 155.594L71.1318 156.163ZM67.2146 158.354C67.6309 158.758 68.1289 159.334 68.3296 159.715L69.058 159.184C68.835 158.795 68.3147 158.257 67.8985 157.883L67.2146 158.354ZM69.7344 155.639V161.547C69.7344 161.689 69.6824 161.727 69.5412 161.734C69.3925 161.734 68.9242 161.734 68.4708 161.712C68.6046 161.981 68.7384 162.4 68.783 162.662C69.4445 162.662 69.9277 162.639 70.2399 162.482C70.5446 162.333 70.6561 162.078 70.6561 161.555V155.639H69.7344ZM66.6869 161.129L67.2443 161.951C67.8985 161.57 68.7235 161.061 69.4668 160.575L69.1695 159.76C68.2775 160.283 67.3112 160.822 66.6869 161.129Z" fill="black"/>
<path d="M75.3241 156.342V157.307C75.5545 157.292 75.8667 157.277 76.1268 157.277C76.5877 157.277 78.1189 157.277 78.5574 157.277C78.8102 157.277 79.1 157.292 79.3528 157.307V156.342C79.1 156.372 78.8102 156.395 78.5574 156.395C78.1189 156.395 76.5877 156.395 76.1194 156.395C75.8741 156.395 75.5619 156.372 75.3241 156.342ZM74.4693 158.249V159.229C74.67 159.214 74.9598 159.207 75.1754 159.207C75.6437 159.207 79.6055 159.207 80.044 159.207C80.2522 159.207 80.542 159.214 80.7279 159.229V158.249C80.5272 158.287 80.2001 158.302 80.044 158.302C79.6055 158.302 75.6437 158.302 75.1754 158.302C74.945 158.302 74.6848 158.279 74.4693 158.249ZM78.2675 158.773L77.2343 158.78C77.2343 159.581 77.1377 160.291 76.7661 160.852C76.4687 161.293 75.941 161.719 75.4133 161.929L76.2903 162.564C76.9519 162.228 77.5242 161.645 77.7844 161.129C78.0966 160.5 78.2675 159.753 78.2675 158.773ZM79.7987 155.826L79.2115 156.066C79.4122 156.357 79.6426 156.798 79.7913 157.105L80.3859 156.851C80.2522 156.574 79.9846 156.096 79.7987 155.826ZM80.6758 155.49L80.0886 155.729C80.2968 156.013 80.5346 156.447 80.6907 156.761L81.2779 156.507C81.1441 156.245 80.8691 155.766 80.6758 155.49Z" fill="black"/>
<path d="M82.0435 158.519V159.7C82.326 159.678 82.824 159.655 83.2402 159.655C84.1173 159.655 86.5628 159.655 87.2392 159.655C87.5514 159.655 87.9305 159.693 88.1089 159.7V158.519C87.9082 158.534 87.5811 158.571 87.2318 158.571C86.5702 158.571 84.1173 158.571 83.2402 158.571C82.8537 158.571 82.3185 158.541 82.0435 158.519Z" fill="black"/>
<path d="M91.9815 158.481L91.3199 159.162C92.1896 159.715 93.6019 160.762 94.2486 161.375L94.9621 160.523C94.2709 159.969 92.8957 159.012 91.9815 158.481ZM95.4824 157.21L94.7243 156.739C94.5533 156.791 94.308 156.828 94.0776 156.828H91.9592L91.6173 157.673H94.1296C93.9884 158.257 93.5276 159.117 93.0295 159.708C92.3903 160.455 91.5058 161.241 89.9523 161.727L90.8145 162.475C92.2342 161.936 93.1856 161.099 93.8843 160.224C94.5533 159.394 95.0067 158.436 95.2297 157.748C95.2966 157.561 95.3932 157.352 95.4824 157.21ZM93.0221 156.058L91.9443 155.722C91.8774 155.983 91.7213 156.327 91.6098 156.507C91.2308 157.157 90.5469 158.182 89.2461 158.99L90.0415 159.61C91.1118 158.87 92.0632 157.726 92.5613 156.821C92.6505 156.664 92.8437 156.32 93.0221 156.058Z" fill="black"/>
<path d="M99.6078 156.133L98.5077 156.013C98.5151 156.574 98.4334 157.21 98.2921 157.883C98.084 158.825 97.5265 160.8 96.642 161.996L97.6157 162.385C98.3962 161.121 98.9908 158.99 99.2361 157.935C99.3179 157.554 99.4071 157.09 99.4814 156.754C99.5186 156.567 99.5632 156.327 99.6078 156.133ZM102.172 156.881L101.28 157.262C101.815 157.928 102.343 159.244 102.536 160.074L103.48 159.633C103.25 158.922 102.626 157.531 102.172 156.881ZM96.5974 157.666L96.6866 158.676C96.9096 158.638 97.2961 158.586 97.5117 158.556C97.9205 158.504 99.2064 158.339 99.6449 158.339C100.113 158.339 100.366 158.429 100.366 159.027C100.366 159.76 100.269 160.672 100.061 161.091C99.9497 161.338 99.7564 161.413 99.5037 161.413C99.3105 161.413 98.8868 161.338 98.5969 161.256L98.7604 162.243C99.0131 162.303 99.3625 162.348 99.6524 162.348C100.21 162.348 100.626 162.183 100.871 161.66C101.184 161.016 101.295 159.805 101.295 158.922C101.295 157.838 100.738 157.487 99.9497 157.487C99.3997 157.487 97.9874 157.651 97.3927 157.666C97.1177 157.673 96.865 157.681 96.5974 157.666ZM102.038 155.849L101.444 156.088C101.644 156.38 101.875 156.821 102.031 157.128L102.626 156.873C102.484 156.597 102.224 156.118 102.038 155.849ZM102.915 155.505L102.328 155.751C102.529 156.036 102.774 156.469 102.923 156.784L103.518 156.529C103.384 156.268 103.109 155.789 102.915 155.505Z" fill="black"/>
<path d="M104.196 161.981H107.974V161.094H105.666V161.01L106.635 160.101C107.59 159.213 107.898 158.717 107.898 158.118V158.107C107.898 157.197 107.143 156.577 106.065 156.577C104.918 156.577 104.134 157.271 104.134 158.282L104.138 158.297H105.151V158.278C105.151 157.778 105.503 157.435 106.014 157.435C106.515 157.435 106.82 157.749 106.82 158.198V158.209C106.82 158.578 106.621 158.844 105.884 159.564L104.196 161.24V161.981Z" fill="black"/>
<path d="M112.813 155.729V162.647H113.712V155.729H112.813ZM111.549 156.043C111.378 156.963 111.066 157.913 110.665 158.504C110.88 158.601 111.267 158.803 111.445 158.937C111.839 158.279 112.196 157.232 112.404 156.223L111.549 156.043ZM111.832 157.083L111.616 157.958H115.273V157.083H111.832ZM110.799 159.251V160.134H115.63V159.251H110.799ZM110.249 155.662C109.877 156.731 109.245 157.793 108.584 158.474C108.732 158.691 108.978 159.184 109.059 159.401C109.855 158.541 110.613 157.195 111.089 155.924L110.249 155.662ZM109.513 157.726V162.647H110.36V156.881V156.873L109.513 157.726Z" fill="black"/>
<path d="M119.57 155.968L118.603 155.938C118.611 156.073 118.596 156.245 118.581 156.395C118.499 157.135 118.365 158.234 118.365 159.214C118.365 160.313 118.581 161.42 118.804 162.093L119.659 161.839C119.414 161.084 119.198 160.246 119.198 159.064C119.198 158.137 119.324 157.06 119.466 156.365C119.495 156.245 119.525 156.11 119.57 155.968ZM118.239 156.791C117.786 156.791 117.139 156.731 116.871 156.694L116.894 157.554C117.243 157.569 117.823 157.606 118.217 157.606C119.339 157.606 120.9 157.494 121.918 157.307L121.911 156.447C120.774 156.724 119.651 156.791 118.239 156.791ZM121.45 157.89L120.536 157.666C120.528 157.831 120.476 158.152 120.424 158.309C120.127 159.341 119.622 160.007 119.079 160.508C118.626 160.934 118.128 161.181 117.778 161.181C117.533 161.181 117.436 161.054 117.436 160.807C117.436 160.306 117.964 159.588 118.707 159.236C119.072 159.072 119.607 158.878 120.283 158.878C121.287 158.878 121.829 159.416 121.829 160.052C121.829 160.792 121.242 161.517 119.807 161.674L120.305 162.467C122.127 162.183 122.751 161.158 122.751 160.097C122.751 158.93 121.725 158.122 120.335 158.122C119.778 158.122 119.168 158.234 118.678 158.414C117.496 158.848 116.559 159.947 116.559 161.001C116.559 161.764 117.013 162.093 117.555 162.093C118.202 162.093 118.849 161.764 119.332 161.405C120.038 160.882 120.803 159.872 121.227 158.526C121.279 158.369 121.391 158.025 121.45 157.89Z" fill="black"/>
<path d="M125.999 155.976L124.981 155.938C124.973 156.14 124.951 156.44 124.921 156.716C124.81 157.494 124.713 158.414 124.713 159.117C124.713 159.618 124.758 160.074 124.802 160.366L125.717 160.298C125.68 159.954 125.672 159.715 125.687 159.506C125.717 158.526 126.49 157.195 127.367 157.195C127.984 157.195 128.37 157.838 128.37 158.99C128.37 160.8 127.211 161.353 125.553 161.607L126.118 162.475C128.088 162.108 129.374 161.106 129.374 158.99C129.374 157.344 128.571 156.32 127.538 156.32C126.705 156.32 126.051 156.956 125.694 157.531C125.739 157.113 125.895 156.342 125.999 155.976Z" fill="black"/>
<path d="M135.186 155.938H134.176C134.205 156.081 134.22 156.312 134.22 156.447C134.22 156.873 134.213 157.823 134.213 158.541C134.213 159.266 134.294 160.605 134.294 161.054C134.294 161.488 134.027 161.6 133.633 161.6C133.12 161.6 132.86 161.428 132.86 161.144C132.86 160.882 133.15 160.68 133.67 160.68C134.941 160.68 136.019 161.405 136.725 162.078L137.26 161.241C136.643 160.717 135.424 159.91 133.789 159.91C132.652 159.91 131.96 160.441 131.96 161.196C131.96 161.989 132.585 162.445 133.774 162.445C134.748 162.445 135.231 161.951 135.231 161.308C135.231 160.717 135.112 159.364 135.112 158.541C135.112 157.913 135.12 156.851 135.134 156.469C135.142 156.275 135.164 156.088 135.186 155.938ZM132.102 156.634L132.117 157.494C132.607 157.554 133.469 157.621 133.945 157.621C135.06 157.621 136.242 157.531 137 157.427L137.008 156.574C135.922 156.746 134.949 156.798 133.938 156.798C133.484 156.798 132.629 156.724 132.102 156.634ZM132.057 158.249L132.072 159.132C132.563 159.192 133.402 159.229 133.841 159.229C135.253 159.229 136.064 159.184 137.089 159.064L137.097 158.182C136.182 158.302 135.224 158.391 133.848 158.391C133.455 158.391 132.548 158.339 132.057 158.249Z" fill="black"/>
<path d="M143.036 155.953H141.958C141.973 156.051 142.003 156.305 142.025 156.604C142.055 157 142.055 158.436 142.055 158.9L142.984 159.214C142.976 158.616 142.961 157.09 142.984 156.597C142.991 156.477 143.013 156.081 143.036 155.953ZM138.829 156.888L138.851 157.786C139.973 157.726 141.452 157.666 142.805 157.666C143.898 157.666 144.656 157.688 145.117 157.711L145.132 156.828C144.716 156.821 143.586 156.828 142.828 156.828C141.898 156.828 139.936 156.888 138.829 156.888ZM142.857 159.102L142.159 158.907C142.396 159.797 142.092 160.097 141.742 160.097C141.438 160.097 141.163 159.88 141.163 159.543C141.163 159.147 141.452 158.945 141.742 158.945C142.069 158.945 142.33 159.177 142.33 159.663C142.33 160.972 141.341 161.473 140.077 161.749L140.865 162.542C142.679 162.026 143.251 160.792 143.251 159.812C143.251 158.885 142.738 158.16 141.757 158.16C140.954 158.16 140.271 158.713 140.271 159.558C140.271 160.47 140.984 160.927 141.557 160.927C142.411 160.927 142.857 160.321 142.857 159.102Z" fill="black"/>
<path d="M165.577 141.925C166.178 142.769 167.341 143.806 168.365 144.424C168.457 144.278 168.576 144.112 168.702 143.999C167.664 143.44 166.488 142.417 165.795 141.426H165.299C164.79 142.304 163.674 143.4 162.531 144.072C162.643 144.172 162.782 144.344 162.848 144.464C163.964 143.773 165.041 142.742 165.577 141.925ZM164.156 143.54V144.012H167.05V143.54H164.156ZM163.304 144.85V145.322H167.321V144.85H163.304ZM167.222 144.85V144.909C166.971 145.494 166.442 146.624 166.013 147.442L166.535 147.582C166.944 146.757 167.46 145.681 167.77 144.943L167.38 144.816L167.294 144.85H167.222Z" fill="#7D7D7F"/>
<path d="M7.03699 141.207C7.03699 140.289 7.77652 139.545 8.68877 139.545H15.2959C16.2082 139.545 16.9477 140.289 16.9477 141.207V147.854C16.9477 148.772 16.2082 149.516 15.2959 149.516H8.68877C7.77652 149.516 7.03699 148.772 7.03699 147.854V141.207Z" fill="#20AEE5"/>
<path d="M13.2263 142.301C13.1013 142.095 12.9214 141.923 12.7049 141.804C12.4883 141.685 12.2427 141.622 11.9926 141.622C11.7426 141.622 11.4969 141.685 11.2804 141.804C11.0638 141.923 10.884 142.095 10.7589 142.301L8.87936 145.402C8.75451 145.609 8.68884 145.843 8.68897 146.081C8.68909 146.32 8.75499 146.554 8.88005 146.76C9.00512 146.966 9.18495 147.138 9.40149 147.257C9.61802 147.376 9.86365 147.439 10.1137 147.439H13.8715C14.1216 147.439 14.3673 147.376 14.5838 147.257C14.8004 147.138 14.9802 146.966 15.1053 146.76C15.2303 146.554 15.2961 146.32 15.2961 146.081C15.2961 145.843 15.2303 145.609 15.1052 145.402L13.2263 142.301ZM14.1909 146.256C14.1586 146.31 14.112 146.354 14.056 146.385C13.9999 146.416 13.9363 146.432 13.8715 146.432H10.1137C10.0489 146.432 9.98532 146.416 9.92924 146.385C9.87317 146.354 9.82661 146.31 9.79425 146.256C9.76188 146.203 9.74485 146.142 9.74486 146.081C9.74487 146.019 9.76192 145.958 9.79431 145.905L11.6732 142.803C11.7055 142.75 11.7521 142.705 11.8081 142.674C11.8642 142.643 11.9278 142.627 11.9926 142.627C12.0574 142.627 12.121 142.643 12.1771 142.674C12.2332 142.705 12.2797 142.75 12.312 142.803L14.1909 145.905C14.2233 145.958 14.2403 146.019 14.2403 146.081C14.2403 146.142 14.2233 146.203 14.1909 146.256Z" fill="white"/>
<path d="M20.4736 147.023H21.0834L21.5512 145.683H23.403L23.8708 147.023H24.4805L22.7642 142.34H22.1899L20.4736 147.023ZM22.4513 143.096H22.5029L23.232 145.186H21.7222L22.4513 143.096Z" fill="#7D7D7F"/>
<path d="M25.5225 142.849C25.7355 142.849 25.9097 142.674 25.9097 142.46C25.9097 142.246 25.7355 142.07 25.5225 142.07C25.3096 142.07 25.1354 142.246 25.1354 142.46C25.1354 142.674 25.3096 142.849 25.5225 142.849ZM25.2386 147.023H25.8V143.524H25.2386V147.023Z" fill="#7D7D7F"/>
<path d="M26.8582 147.023H27.4195V144.855C27.4195 144.342 27.8002 144.002 28.3357 144.002C28.4583 144.002 28.5648 144.015 28.6809 144.034V143.485C28.6261 143.476 28.5067 143.463 28.4003 143.463C27.9293 143.463 27.6034 143.677 27.4711 144.044H27.4195V143.524H26.8582V147.023Z" fill="#7D7D7F"/>
<path d="M29.4201 144.624L29.6778 145.142C30.7416 144.81 31.7921 144.325 32.5189 143.873C33.2919 143.387 33.9857 142.829 34.5539 142.237L34.1112 141.818C33.6553 142.377 32.9946 142.949 32.3009 143.387C31.5675 143.846 30.5632 144.318 29.4201 144.624ZM32.1951 143.66V146.525C32.1951 146.771 32.1753 147.103 32.1555 147.23H32.8096C32.7766 147.103 32.7634 146.771 32.7634 146.525V143.487L32.1951 143.66Z" fill="#7D7D7F"/>
<path d="M36.9589 142.157L36.5757 142.563C37.0712 142.889 37.8905 143.607 38.2275 143.952L38.6371 143.527C38.2737 143.161 37.4214 142.47 36.9589 142.157ZM36.3907 146.611L36.7343 147.156C37.8376 146.95 38.6701 146.538 39.3375 146.119C40.3351 145.488 41.1016 144.584 41.5509 143.76L41.2337 143.188C40.8505 144.012 40.051 144.996 39.0269 145.641C38.3993 146.033 37.5403 146.438 36.3907 146.611Z" fill="#7D7D7F"/>
<path d="M47.0282 141.772L46.678 141.925C46.8564 142.177 47.0678 142.556 47.2 142.822L47.5567 142.663C47.4246 142.397 47.1934 142.011 47.0282 141.772ZM47.8078 141.586L47.4643 141.739C47.6493 141.985 47.8541 142.337 47.9994 142.629L48.3562 142.47C48.2307 142.224 47.9862 141.832 47.8078 141.586ZM45.6407 141.905H45.0262C45.046 142.005 45.0725 142.231 45.0725 142.377C45.0725 142.729 45.0725 143.387 45.0725 143.613C45.0725 143.926 45.0725 146.199 45.0659 146.558C45.0659 146.738 44.9932 146.811 44.8148 146.811C44.6364 146.811 44.3391 146.791 44.0484 146.738L44.0946 147.263C44.3655 147.296 44.7553 147.309 45.0328 147.309C45.4359 147.309 45.601 147.13 45.601 146.784C45.601 146.306 45.601 144.152 45.601 143.613C45.601 143.288 45.601 142.729 45.601 142.377C45.601 142.237 45.6275 141.998 45.6407 141.905ZM42.6741 143.022V143.587C42.8459 143.567 43.0309 143.56 43.2357 143.56C43.6387 143.56 46.9621 143.56 47.3585 143.56C47.5171 143.56 47.7153 143.567 47.8871 143.58V143.028C47.7219 143.048 47.5039 143.062 47.3519 143.062C46.9555 143.062 43.6189 143.062 43.2291 143.062C43.0243 143.062 42.8591 143.048 42.6741 143.022ZM44.1937 144.59L43.7246 144.364C43.4669 144.903 42.9053 145.694 42.4626 146.099L42.9185 146.412C43.2951 146.006 43.9096 145.156 44.1937 144.59ZM46.9489 144.364L46.4996 144.61C46.8498 145.029 47.3453 145.854 47.6096 146.379L48.0919 146.106C47.8276 145.621 47.3057 144.79 46.9489 144.364Z" fill="#7D7D7F"/>
<path d="M49.2416 144.624L49.4993 145.142C50.563 144.81 51.6135 144.325 52.3403 143.873C53.1134 143.387 53.8071 142.829 54.3753 142.237L53.9326 141.818C53.4767 142.377 52.816 142.949 52.1223 143.387C51.3889 143.846 50.3846 144.318 49.2416 144.624ZM52.0166 143.66V146.525C52.0166 146.771 51.9967 147.103 51.9769 147.23H52.631C52.598 147.103 52.5848 146.771 52.5848 146.525V143.487L52.0166 143.66Z" fill="#7D7D7F"/>
<path d="M60.3596 142.583L60.0292 142.324C59.9235 142.357 59.7451 142.377 59.5337 142.377C59.2826 142.377 57.241 142.377 56.9833 142.377C56.7785 142.377 56.4019 142.35 56.316 142.337V142.935C56.3887 142.929 56.7455 142.902 56.9833 142.902C57.208 142.902 59.3223 142.902 59.5601 142.902C59.3883 143.454 58.906 144.245 58.4567 144.757C57.7762 145.514 56.8049 146.312 55.7346 146.724L56.1574 147.17C57.2014 146.691 58.1462 145.9 58.8862 145.069C59.4346 144.458 59.9367 143.527 60.201 142.869C60.2341 142.782 60.3199 142.636 60.3596 142.583ZM58.9721 144.723L58.5955 145.096C59.3091 145.727 60.0821 146.578 60.5578 147.21L61.0137 146.804C60.5644 146.252 59.6857 145.322 58.9721 144.723Z" fill="#7D7D7F"/>
</g>
<path fill-rule="evenodd" clip-rule="evenodd" d="M173 151.5C173 198.72 134.72 237 87.5 237C40.2797 237 2 198.72 2 151.5C2 104.28 40.2797 66 87.5 66C134.72 66 173 104.28 173 151.5ZM175 151.5C175 199.825 135.825 239 87.5 239C39.1751 239 0 199.825 0 151.5C0 103.175 39.1751 64 87.5 64C118.063 64 144.965 79.6692 160.613 103.412L179.937 99.7306C180.904 99.5464 181.527 100.723 180.831 101.42L167.114 115.145C172.178 126.217 175 138.529 175 151.5Z" fill="#20AEE5"/>
</svg>
