<svg width="853" height="586" viewBox="0 0 853 586" fill="none" xmlns="http://www.w3.org/2000/svg">
<path d="M843.279 13.5898V176.7C843.279 185.38 836.229 192.43 827.549 192.43H611.719C603.039 192.43 595.989 185.38 595.989 176.7V13.5898L843.279 13.5898Z" fill="white"/>
<path d="M424.93 535.47V317.67H64.9297V535.47H424.93Z" fill="white"/>
<path d="M45.5195 546.83C43.8695 546.83 42.5195 545.48 42.5195 543.83V309.09C42.5195 297.33 52.0895 287.75 63.8595 287.75H371.5C372.55 287.75 373.41 288.61 373.41 289.66V291.85C373.41 292.9 372.55 293.76 371.5 293.76H63.8495C55.3895 293.76 48.5095 300.64 48.5095 309.1V543.69C48.5095 545.21 47.4995 546.52 46.1095 546.78C45.9095 546.82 45.6995 546.84 45.4995 546.84L45.5195 546.83Z" fill="#20A5DC"/>
<path d="M443.061 546.83C441.411 546.83 440.061 545.48 440.061 543.83V481.83C440.061 480.78 440.921 479.92 441.971 479.92H444.161C445.211 479.92 446.071 480.78 446.071 481.83V543.68C446.071 545.2 445.061 546.5 443.681 546.77C443.481 546.81 443.271 546.83 443.071 546.83H443.061Z" fill="#20A5DC"/>
<path d="M50.2 585.03C37.43 585.03 25.38 584.13 16.29 582.49C8.24 581.04 0 578.83 0 573.52V555.52C0 553.87 1.35 552.52 3 552.52H485.58C487.24 552.52 488.58 553.87 488.58 555.52V573.52C488.58 578.83 480.34 581.03 472.28 582.49C463.19 584.13 451.15 585.03 438.37 585.03H50.2ZM6 573.289L7.49 573.969C11.36 575.719 25.26 579.039 50.2 579.039H438.37C463.3 579.039 477.21 575.729 481.08 573.969L482.57 573.289V558.52H6V573.289Z" fill="#20A5DC"/>
<path d="M68.8494 537.05C65.9594 537.05 63.6094 534.72 63.6094 531.85V321.2C63.6094 318.33 65.9594 316 68.8494 316H371.489C372.539 316 373.399 316.85 373.399 317.91V318.31C373.399 319.36 372.539 320.22 371.489 320.22H67.8194V532.85H408.239C408.829 532.85 409.399 533.1 409.799 533.54C410.209 533.99 410.389 534.57 410.329 535.18C410.219 536.24 409.229 537.06 408.059 537.06H68.8494V537.05Z" fill="#20A5DC"/>
<path d="M422.86 527.75C421.7 527.75 420.76 526.81 420.76 525.64V481.82C420.76 480.77 421.62 479.91 422.67 479.91H423.07C424.12 479.91 424.98 480.77 424.98 481.82V525.47C424.98 526.63 424.15 527.63 423.1 527.74C423.02 527.74 422.95 527.75 422.88 527.75H422.86Z" fill="#20A5DC"/>
<path d="M213.651 570.37C212.491 570.37 211.551 569.43 211.551 568.27C211.551 567.11 212.491 566.17 213.651 566.17H274.921C276.081 566.17 277.021 567.11 277.021 568.27C277.021 569.43 276.081 570.37 274.921 570.37H213.651Z" fill="#20A5DC"/>
<path d="M597.289 85.8899V18.1799C597.289 10.3099 603.669 3.91992 611.549 3.91992H829.029C836.899 3.91992 843.289 10.2999 843.289 18.1799V116.39" fill="white"/>
<path d="M597.289 85.8899V18.1799C597.289 10.3099 603.669 3.91992 611.549 3.91992H829.029C836.899 3.91992 843.289 10.2999 843.289 18.1799V116.39" stroke="#20A5DC" stroke-width="6" stroke-linecap="round" stroke-linejoin="round"/>
<path d="M796.259 192.43H611.539C603.669 192.43 597.289 186.05 597.289 178.18V159.37" fill="white"/>
<path d="M796.259 192.43H611.539C603.669 192.43 597.289 186.05 597.289 178.18V159.37" stroke="#20A5DC" stroke-width="6" stroke-linecap="round" stroke-linejoin="round"/>
<path d="M611.769 3.92969H828.799C836.789 3.92969 843.279 10.4197 843.279 18.4097V32.8597H597.289V18.4097C597.289 10.4197 603.779 3.92969 611.769 3.92969Z" fill="#20A5DC"/>
<path d="M614.61 22.9896C617.145 22.9896 619.2 20.9346 619.2 18.3996C619.2 15.8646 617.145 13.8096 614.61 13.8096C612.075 13.8096 610.02 15.8646 610.02 18.3996C610.02 20.9346 612.075 22.9896 614.61 22.9896Z" fill="white"/>
<path d="M629.1 22.9896C631.635 22.9896 633.69 20.9346 633.69 18.3996C633.69 15.8646 631.635 13.8096 629.1 13.8096C626.565 13.8096 624.51 15.8646 624.51 18.3996C624.51 20.9346 626.565 22.9896 629.1 22.9896Z" fill="white"/>
<path d="M643.59 22.9896C646.125 22.9896 648.18 20.9346 648.18 18.3996C648.18 15.8646 646.125 13.8096 643.59 13.8096C641.055 13.8096 639 15.8646 639 18.3996C639 20.9346 641.055 22.9896 643.59 22.9896Z" fill="white"/>
<path d="M824.578 163.75L848.318 130.15" stroke="#20A5DC" stroke-width="8" stroke-linecap="round" stroke-linejoin="round"/>
<path d="M823.819 163.76L799.789 130.36" stroke="#20A5DC" stroke-width="8" stroke-linecap="round" stroke-linejoin="round"/>
<path d="M824.189 162.801L824.319 192.051" stroke="#20A5DC" stroke-width="8" stroke-linecap="round" stroke-linejoin="round"/>
<path d="M800.539 160.73H847.829" stroke="#20A5DC" stroke-width="8" stroke-linecap="round" stroke-linejoin="round"/>
<path d="M800.59 173.71L847.89 173.7" stroke="#20A5DC" stroke-width="8" stroke-linecap="round" stroke-linejoin="round"/>
<path d="M648.66 160.48L690.33 103.06L746.7 127.22L802.17 63.25" stroke="#20A5DC" stroke-width="6" stroke-linecap="round" stroke-linejoin="round"/>
<path d="M802.169 70.9703C806.433 70.9703 809.889 67.5139 809.889 63.2503C809.889 58.9866 806.433 55.5303 802.169 55.5303C797.906 55.5303 794.449 58.9866 794.449 63.2503C794.449 67.5139 797.906 70.9703 802.169 70.9703Z" fill="#20A5DC"/>
<path d="M648.659 168.201C652.923 168.201 656.379 164.744 656.379 160.481C656.379 156.217 652.923 152.761 648.659 152.761C644.396 152.761 640.939 156.217 640.939 160.481C640.939 164.744 644.396 168.201 648.659 168.201Z" fill="#20A5DC"/>
<path d="M346.731 355.41H127.191C120.486 355.41 115.051 360.845 115.051 367.55V485.49C115.051 492.195 120.486 497.63 127.191 497.63H346.731C353.436 497.63 358.871 492.195 358.871 485.49V367.55C358.871 360.845 353.436 355.41 346.731 355.41Z" stroke="#20A5DC" stroke-width="5" stroke-linecap="round" stroke-linejoin="round"/>
<path d="M127.191 355.41H346.731C353.431 355.41 358.871 360.85 358.871 367.55V384.03H115.051V367.55C115.051 360.85 120.491 355.41 127.191 355.41Z" fill="#20A5DC"/>
<path d="M115.34 406.35L344.29 405.09" stroke="#20A5DC" stroke-width="3.21" stroke-linecap="round" stroke-linejoin="round"/>
<path d="M115.49 429.34L329.71 428.08" stroke="#20A5DC" stroke-width="3.21" stroke-linecap="round" stroke-linejoin="round"/>
<path d="M115.641 452.33L315.131 451.07" stroke="#20A5DC" stroke-width="3.21" stroke-linecap="round" stroke-linejoin="round"/>
<path d="M396.459 257.99H524.829C530.349 257.99 534.829 262.47 534.829 267.99V455.95C534.829 461.47 530.349 465.96 524.819 465.96H396.449C390.929 465.96 386.439 461.48 386.439 455.95V267.99C386.439 262.47 390.919 257.98 396.449 257.98L396.459 257.99Z" fill="white"/>
<path d="M524.829 260.99C528.689 260.99 531.839 264.13 531.839 268V455.96C531.839 459.82 528.699 462.97 524.829 462.97H396.459C392.599 462.97 389.449 459.83 389.449 455.96V268C389.449 264.14 392.589 260.99 396.459 260.99H524.829ZM524.829 254.99H396.459C389.279 254.99 383.449 260.81 383.449 268V455.96C383.449 463.14 389.269 468.97 396.459 468.97H524.829C532.009 468.97 537.839 463.15 537.839 455.96V268C537.839 260.82 532.019 254.99 524.829 254.99Z" fill="#20A5DC"/>
<path d="M435.609 388.861C432.959 390.081 429.899 390.691 426.439 390.691C423.289 390.691 420.369 390.171 417.699 389.121C415.029 388.071 412.709 386.601 410.749 384.681C408.789 382.761 407.249 380.471 406.129 377.801C405.009 375.131 404.459 372.191 404.459 368.981C404.459 365.771 405.029 362.711 406.159 360.041C407.289 357.371 408.859 355.101 410.859 353.221C412.859 351.341 415.199 349.901 417.899 348.901C420.589 347.891 423.499 347.391 426.609 347.391C429.489 347.391 432.329 347.901 435.119 348.931C437.909 349.961 440.169 351.461 441.899 353.431L435.209 360.161C434.289 358.881 433.079 357.941 431.579 357.321C430.079 356.701 428.539 356.391 426.959 356.391C425.229 356.391 423.639 356.711 422.199 357.351C420.759 357.991 419.519 358.871 418.479 359.991C417.439 361.111 416.629 362.441 416.059 363.971C415.489 365.501 415.189 367.171 415.189 368.991C415.189 370.811 415.479 372.551 416.059 374.101C416.639 375.651 417.439 376.971 418.449 378.081C419.459 379.191 420.689 380.041 422.109 380.661C423.529 381.281 425.089 381.591 426.779 381.591C428.739 381.591 430.449 381.201 431.909 380.431C433.369 379.661 434.539 378.651 435.429 377.411L442.289 383.911C440.479 386.001 438.249 387.651 435.599 388.871L435.609 388.861Z" fill="#20A5DC"/>
<path d="M469.19 359.171C468.34 358.091 467.24 357.221 465.87 356.591C464.5 355.951 463.19 355.631 461.92 355.631C461.27 355.631 460.6 355.691 459.93 355.801C459.26 355.921 458.65 356.141 458.11 356.471C457.57 356.801 457.12 357.221 456.75 357.751C456.38 358.271 456.2 358.941 456.2 359.751C456.2 360.451 456.34 361.031 456.63 361.491C456.92 361.951 457.34 362.361 457.9 362.711C458.46 363.061 459.12 363.381 459.89 363.671C460.66 363.961 461.52 364.261 462.49 364.571C463.87 365.031 465.32 365.551 466.82 366.111C468.32 366.671 469.68 367.421 470.92 368.351C472.15 369.281 473.17 370.431 473.98 371.801C474.79 373.171 475.19 374.891 475.19 376.941C475.19 379.301 474.76 381.341 473.89 383.061C473.02 384.781 471.86 386.201 470.4 387.331C468.94 388.451 467.27 389.291 465.38 389.831C463.5 390.371 461.55 390.641 459.55 390.641C456.63 390.641 453.8 390.131 451.07 389.101C448.34 388.071 446.07 386.611 444.26 384.721L450.72 378.101C451.72 379.341 453.04 380.371 454.67 381.211C456.3 382.041 457.93 382.461 459.55 382.461C460.28 382.461 460.99 382.381 461.68 382.231C462.37 382.081 462.98 381.821 463.5 381.481C464.02 381.131 464.43 380.671 464.74 380.091C465.05 379.511 465.2 378.811 465.2 378.001C465.2 377.191 465.01 376.571 464.62 376.031C464.24 375.491 463.69 375.001 462.98 374.551C462.27 374.101 461.38 373.701 460.33 373.331C459.27 372.961 458.07 372.571 456.72 372.141C455.41 371.721 454.13 371.211 452.88 370.631C451.63 370.051 450.51 369.301 449.53 368.391C448.55 367.481 447.76 366.381 447.16 365.081C446.56 363.781 446.27 362.211 446.27 360.351C446.27 358.071 446.73 356.111 447.65 354.491C448.57 352.871 449.78 351.531 451.28 350.491C452.78 349.451 454.47 348.681 456.36 348.201C458.24 347.721 460.15 347.471 462.07 347.471C464.38 347.471 466.73 347.901 469.14 348.751C471.54 349.601 473.65 350.861 475.46 352.521L469.17 359.201L469.19 359.171Z" fill="#20A5DC"/>
<path d="M503.049 389.58H493.188L477.729 348.48H488.809L498.268 377.62H498.498L507.898 348.48H518.799L503.049 389.58Z" fill="#20A5DC"/>
<path d="M634.98 115.42L606.92 94.1196C604.42 92.2196 600.83 94.0096 600.83 97.1396V108.31C600.22 108.16 599.58 108.09 598.92 108.13C539.34 111.45 488.21 159 471.55 226.78C470.71 230.21 472.91 233.66 476.37 234.39L484.63 236.13C487.95 236.83 491.21 234.75 492.02 231.46C506.5 173.07 549.65 132.11 599.7 129.12C600.08 129.1 600.45 129.04 600.81 128.95V139.74C600.81 142.88 604.4 144.66 606.9 142.76L634.96 121.46C636.96 119.94 636.96 116.93 634.96 115.41L634.98 115.42Z" fill="#2BA5DC"/>
</svg>
