<svg width="335" height="379" viewBox="0 0 335 379" fill="none" xmlns="http://www.w3.org/2000/svg">
<path d="M168.389 124.987C167.995 125.702 166.967 125.702 166.572 124.987L158.443 110.267C158.061 109.575 158.561 108.727 159.352 108.727L175.61 108.727C176.4 108.727 176.9 109.575 176.518 110.267L168.389 124.987Z" fill="#20AEE5"/>
<path d="M57.5428 35.3732C72.2913 16.5754 100.921 5.4638 154.376 3.86833C207.831 2.27286 261.078 10.5132 277.011 34.9373C303.511 75.5581 262.36 102.451 223.436 111.296C184.512 120.141 81.6059 119.759 59.1309 92.0878C46.2393 76.2172 42.7943 54.171 57.5428 35.3732Z" fill="#20AEE5"/>
<path d="M150.718 19.256C150.682 19.472 150.634 19.988 150.61 20.3C150.598 20.564 150.586 20.852 150.574 21.152C151.366 21.056 152.158 20.9 152.782 20.72L152.818 22.208C152.134 22.364 151.306 22.484 150.526 22.58C150.514 22.94 150.514 23.312 150.514 23.66C150.514 23.804 150.514 23.948 150.514 24.104C151.33 23.9 152.158 23.792 152.818 23.792C154.666 23.792 156.118 24.752 156.118 26.408C156.118 27.824 155.374 28.892 153.466 29.372C152.914 29.492 152.386 29.528 151.894 29.564L151.342 28.016C151.882 28.016 152.398 28.004 152.818 27.932C153.79 27.752 154.558 27.272 154.558 26.396C154.558 25.58 153.838 25.1 152.794 25.1C152.05 25.1 151.27 25.22 150.538 25.436C150.562 26.384 150.586 27.32 150.586 27.728C150.586 29.216 150.058 29.612 149.266 29.612C148.102 29.612 146.458 28.604 146.458 27.332C146.458 26.288 147.658 25.196 149.134 24.56C149.122 24.272 149.122 23.984 149.122 23.708C149.122 23.372 149.122 23.036 149.122 22.7C148.894 22.712 148.678 22.724 148.486 22.724C147.682 22.724 147.214 22.712 146.806 22.664L146.782 21.212C147.49 21.296 148.006 21.308 148.438 21.308C148.654 21.308 148.894 21.296 149.134 21.284C149.146 20.864 149.146 20.516 149.146 20.312C149.146 20.06 149.098 19.472 149.062 19.256H150.718ZM154.138 20.552C155.062 20.996 156.454 21.788 157.09 22.244L156.37 23.468C155.794 22.976 154.222 22.076 153.478 21.716L154.138 20.552ZM147.934 27.272C147.934 27.644 148.498 27.968 148.81 27.968C149.026 27.968 149.194 27.872 149.194 27.464C149.194 27.164 149.182 26.612 149.158 25.964C148.426 26.36 147.934 26.852 147.934 27.272ZM167.494 19.16L168.958 19.484C168.574 20.876 167.938 22.328 167.338 23.252C167.014 23.036 166.33 22.748 165.946 22.604C166.582 21.764 167.158 20.408 167.494 19.16ZM166.21 21.872L164.89 22.292C164.806 21.536 164.482 20.288 164.134 19.34L165.382 18.992C165.754 19.928 166.114 21.128 166.21 21.872ZM164.098 22.22L162.802 22.724C162.67 21.98 162.226 20.768 161.77 19.856L162.982 19.412C163.462 20.288 163.954 21.452 164.098 22.22ZM158.302 21.2L159.262 21.32C159.274 22.46 159.094 23.852 158.674 24.752L157.738 24.332C158.122 23.588 158.29 22.28 158.302 21.2ZM162.334 23.012L161.398 23.468C161.314 23 161.086 22.316 160.81 21.704V30.032H159.43V18.836H160.81V21.128L161.47 20.84C161.842 21.536 162.226 22.424 162.334 23.012ZM167.35 26.372L166.57 27.476C166.342 27.176 166.006 26.816 165.622 26.456C165.262 27.044 164.866 27.56 164.458 27.98C164.23 27.764 163.714 27.356 163.414 27.176C163.87 26.756 164.29 26.216 164.662 25.604C164.254 25.28 163.846 24.968 163.474 24.692L164.182 23.732C164.506 23.96 164.866 24.224 165.226 24.488C165.418 24.044 165.574 23.576 165.706 23.096L166.966 23.372C166.774 24.032 166.522 24.692 166.234 25.304C166.69 25.676 167.086 26.048 167.35 26.372ZM167.362 27.98V23.36H168.766V29.9H167.362V29.276H163.402V29.924H162.034V23.384H163.402V27.98H167.362ZM172.054 19.916C172.378 19.952 172.786 19.976 173.05 19.976C173.734 19.976 175.006 19.916 175.57 19.868C175.87 19.856 176.182 19.784 176.386 19.7L177.346 20.444C177.178 20.624 177.034 20.78 176.938 20.948C176.626 21.464 176.17 22.508 175.738 23.528C176.674 23.672 177.562 23.96 178.342 24.296C178.354 24.152 178.366 24.02 178.378 23.888C178.414 23.42 178.414 22.94 178.378 22.58L179.95 22.76C179.902 23.564 179.842 24.308 179.722 24.98C180.226 25.268 180.658 25.544 181.006 25.784L180.31 27.452C179.998 27.164 179.65 26.888 179.278 26.612C178.75 27.968 177.838 29.024 176.23 29.864L174.958 28.82C176.77 28.04 177.61 26.9 178.006 25.808C177.154 25.34 176.194 24.98 175.162 24.836C174.73 25.856 174.226 27.056 173.806 27.716C173.326 28.436 172.75 28.772 171.934 28.772C170.878 28.772 170.086 28.04 170.086 26.828C170.086 24.968 171.778 23.552 174.19 23.444C174.526 22.652 174.874 21.836 175.15 21.272C174.67 21.296 173.638 21.332 173.086 21.368C172.846 21.38 172.426 21.416 172.114 21.464L172.054 19.916ZM171.49 26.6C171.49 26.996 171.718 27.2 171.994 27.2C172.234 27.2 172.402 27.08 172.618 26.78C172.93 26.336 173.254 25.58 173.59 24.824C172.246 25.028 171.49 25.844 171.49 26.6ZM185.5 29.1875C183.589 29.1875 182.33 28.1621 182.212 26.6504L182.207 26.5742H183.9L183.906 26.6387C183.982 27.2949 184.585 27.7637 185.5 27.7637C186.402 27.7637 186.994 27.2598 186.994 26.5449V26.5332C186.994 25.7246 186.39 25.2793 185.365 25.2793H184.398V24.0195H185.341C186.232 24.0195 186.806 23.5508 186.806 22.8652V22.8535C186.806 22.1504 186.32 21.7168 185.488 21.7168C184.656 21.7168 184.099 22.168 184.029 22.8711L184.023 22.9238H182.394L182.4 22.8535C182.523 21.3418 183.712 20.3574 185.488 20.3574C187.304 20.3574 188.476 21.2715 188.476 22.6191V22.6309C188.476 23.6855 187.703 24.3711 186.712 24.5762V24.6113C187.972 24.7285 188.793 25.4551 188.793 26.6035V26.6152C188.793 28.1504 187.474 29.1875 185.5 29.1875Z" fill="white"/>
<path d="M97.048 49.558L95.194 50.152V56.452C95.194 56.812 95.284 56.92 95.68 57.01C96.13 57.118 96.67 57.154 97.948 57.154C99.982 57.154 100.756 57.082 101.152 56.812C101.35 56.686 101.512 56.38 101.584 55.984C101.638 55.642 101.656 55.426 101.71 54.562C102.502 54.886 102.826 54.976 103.672 55.138C103.456 57.19 103.222 57.892 102.664 58.324C101.98 58.81 100.774 58.972 97.498 58.972C94.132 58.972 93.286 58.612 93.286 57.172V50.782C93.124 50.836 92.998 50.872 92.926 50.89C92.404 51.07 92.224 51.142 91.882 51.304L91.72 49.252C92.152 49.198 92.674 49.072 93.286 48.892V46.768C93.286 45.922 93.268 45.436 93.178 44.86H95.302C95.212 45.382 95.194 45.85 95.194 46.696V48.298L97.048 47.704V44.77C97.048 44.05 97.012 43.582 96.94 42.97H99.028C98.956 43.528 98.92 43.978 98.92 44.716V47.11L101.548 46.264C102.25 46.048 102.664 45.886 103.006 45.724C102.988 46.102 102.988 46.246 102.988 46.696C102.952 48.856 102.826 51.34 102.682 52.51C102.502 53.86 102.052 54.256 100.666 54.256C100.324 54.256 100.126 54.238 99.676 54.202C99.586 53.5 99.478 53.086 99.172 52.366C99.64 52.456 100.108 52.528 100.396 52.528C100.792 52.528 100.864 52.402 100.972 51.556C101.062 50.854 101.116 49.666 101.116 48.226L98.92 48.946V53.626C98.92 54.364 98.938 54.814 99.028 55.426H96.94C97.03 54.868 97.048 54.4 97.048 53.572V49.558ZM89.164 57.316V52.132C89.164 51.7 89.164 51.7 89.218 50.152C88.786 50.89 88.336 51.502 87.706 52.222C87.454 51.466 87.238 50.98 86.77 50.098C88.102 48.784 89.164 47.092 89.956 45.13C90.316 44.23 90.568 43.348 90.658 42.7L92.692 43.312C92.548 43.726 92.512 43.834 92.332 44.338C91.918 45.544 91.666 46.156 91.072 47.308V57.334C91.072 58.18 91.108 58.828 91.162 59.512H89.056C89.128 58.864 89.164 58.288 89.164 57.316ZM116.956 50.152H113.518C112.69 50.152 111.862 50.188 111.304 50.26V48.244C111.844 48.316 112.654 48.352 113.518 48.352H119.638C120.646 48.352 121.366 48.316 121.834 48.244V50.26C121.24 50.188 120.484 50.152 119.692 50.152H118.918V57.316C118.918 58.864 118.396 59.242 116.218 59.242C115.606 59.242 115.066 59.224 114.22 59.188C114.112 58.396 114.004 57.928 113.698 57.172C114.652 57.298 115.588 57.37 116.146 57.37C116.866 57.37 116.956 57.334 116.956 56.938V50.152ZM109.36 42.754L111.088 43.96C110.89 44.176 110.89 44.176 110.548 44.572C109.378 45.976 108.1 47.092 106.408 48.172C106.048 47.47 105.742 47.038 105.274 46.48C106.696 45.706 107.614 44.986 108.496 44.014C108.892 43.546 109.126 43.204 109.36 42.754ZM112.024 45.67V43.672C112.528 43.744 113.194 43.78 114.13 43.78H118.99C119.89 43.78 120.502 43.744 121.042 43.672V45.67C120.412 45.598 119.746 45.562 119.026 45.562H114.13C113.374 45.562 112.618 45.598 112.024 45.67ZM107.74 57.172V54.022C107.74 53.266 107.74 53.158 107.776 51.934C107.308 52.492 106.768 53.014 106.138 53.464C105.868 52.654 105.634 52.186 105.238 51.538C107.128 50.314 108.982 48.334 109.666 46.786L111.358 47.902C111.178 48.1 111.016 48.316 110.764 48.694C110.35 49.288 110.188 49.522 109.72 50.098V57.19C109.72 58.144 109.756 58.864 109.846 59.458H107.614C107.704 58.9 107.74 58.108 107.74 57.172ZM129.754 49.882H127.486C126.514 51.628 125.47 52.906 123.976 54.166C123.688 53.536 123.454 53.158 122.896 52.474C124.21 51.502 125.146 50.386 125.956 48.838C126.406 47.938 126.64 47.326 126.802 46.57L128.8 46.84C128.692 47.11 128.656 47.218 128.512 47.56C128.404 47.848 128.368 47.992 128.278 48.19H129.718C130.33 48.19 130.618 48.172 130.924 48.118L131.77 49.09C131.68 49.324 131.662 49.396 131.572 49.882C131.122 52.078 130.402 53.788 129.304 55.3C128.512 56.38 127.54 57.37 126.46 58.126C125.848 58.576 125.344 58.882 124.228 59.458C123.958 58.846 123.634 58.36 123.004 57.694C124.354 57.1 124.948 56.776 125.74 56.164C126.424 55.624 126.946 55.12 127.522 54.436C126.982 53.824 126.712 53.59 125.902 53.014L127.09 51.592C127.846 52.132 127.99 52.24 128.62 52.834C129.16 51.88 129.412 51.196 129.754 49.882ZM130.33 44.446V43.978C130.33 43.546 130.312 43.24 130.222 42.826H132.436C132.364 43.204 132.328 43.528 132.328 43.978V44.446H137.494C138.448 44.446 138.934 44.428 139.492 44.356C139.438 44.752 139.42 45.094 139.42 45.688V46.894C139.42 47.452 139.438 47.866 139.492 48.298H138.394C138.376 48.676 138.376 48.676 138.358 50.026C138.34 51.952 138.214 53.356 138.016 53.914C137.764 54.634 137.224 54.904 136.054 54.904C135.838 54.904 135.208 54.868 134.92 54.832C134.866 54.13 134.794 53.806 134.56 53.104C135.136 53.194 135.424 53.23 135.712 53.23C136.27 53.23 136.324 53.122 136.396 52.078C136.45 51.376 136.468 50.818 136.468 49.54H133.948V56.686C133.948 57.28 134.092 57.334 135.802 57.334C137.044 57.334 137.494 57.226 137.656 56.848C137.782 56.578 137.854 56.038 137.872 54.868C138.52 55.192 138.826 55.282 139.726 55.462C139.636 57.226 139.402 58.108 138.916 58.54C138.412 58.99 137.8 59.098 135.442 59.098C133.678 59.098 133.048 59.008 132.58 58.684C132.184 58.378 132.058 58.036 132.058 57.226V49.036C132.058 48.532 132.04 48.244 132.004 47.776C132.328 47.812 132.58 47.83 133.138 47.83H137.08C137.206 47.83 137.206 47.83 137.512 47.83V46.174H125.542V48.478H123.544C123.616 48.028 123.634 47.704 123.634 47.128V45.688C123.634 45.112 123.616 44.77 123.562 44.356C124.12 44.428 124.606 44.446 125.56 44.446H130.33ZM156.34 51.106H154.234C154.414 52.33 154.468 52.618 154.702 53.356C155.494 52.834 155.944 52.438 156.538 51.754L157.798 52.996C157.438 53.284 157.438 53.284 156.358 54.166C156.106 54.4 155.818 54.598 155.368 54.886C156.034 56.074 156.682 56.758 157.942 57.676C157.384 58.27 157.042 58.72 156.682 59.368C155.278 58.054 154.504 57.046 153.856 55.678C153.154 54.202 152.884 53.23 152.596 51.106H151.606V56.668C152.434 56.452 152.776 56.362 153.802 56.02V57.766C152.524 58.216 151.516 58.486 149.122 59.062C148.762 59.152 148.672 59.17 148.294 59.296L147.862 57.298C148.384 57.298 148.834 57.244 149.788 57.064V51.106H148.798C148.672 53.464 148.528 54.58 148.15 55.966C147.808 57.208 147.394 58.198 146.764 59.35C146.206 58.684 145.918 58.396 145.252 57.874C146.818 55.354 147.124 53.338 147.124 45.85C147.124 44.608 147.106 44.122 147.052 43.564C147.664 43.618 148.42 43.654 149.176 43.654H155.494C156.34 43.654 156.952 43.618 157.492 43.546V45.472C157.078 45.418 156.556 45.4 155.62 45.4H148.906V47.29C148.906 48.118 148.888 48.568 148.87 49.45H156.124C156.88 49.45 157.276 49.432 157.69 49.36V51.178C157.33 51.124 156.952 51.106 156.34 51.106ZM143.272 48.046H142.624C142.174 48.046 141.814 48.064 141.364 48.136V46.21C141.796 46.282 142.102 46.3 142.642 46.3H143.272V44.77C143.272 43.924 143.254 43.474 143.164 42.952H145.234C145.162 43.51 145.144 43.906 145.144 44.77V46.3H145.702C146.116 46.3 146.332 46.282 146.638 46.228V48.1C146.296 48.064 146.062 48.046 145.72 48.046H145.144V50.764C145.576 50.584 145.828 50.458 146.53 50.116V51.934C145.792 52.312 145.576 52.42 145.144 52.618V57.658C145.144 59.026 144.676 59.422 143.056 59.422C142.714 59.422 142.624 59.422 141.76 59.386C141.67 58.612 141.598 58.306 141.328 57.514C141.832 57.586 142.426 57.64 142.786 57.64C143.182 57.64 143.272 57.55 143.272 57.136V53.374C142.66 53.608 142.246 53.77 141.76 53.932C141.652 53.968 141.598 53.986 141.49 54.04L141.202 52.06C141.76 51.97 142.372 51.808 143.272 51.484V48.046ZM156.754 46.552V48.298C156.394 48.244 156.034 48.226 155.458 48.226H150.76C150.184 48.226 149.914 48.244 149.554 48.28V46.552C149.86 46.606 150.166 46.624 150.76 46.624H155.44C156.07 46.624 156.394 46.606 156.754 46.552ZM168.67 45.346H166.852C166.24 45.346 165.808 45.364 165.358 45.436V43.492C165.754 43.564 166.132 43.582 166.852 43.582H169.426C170.002 43.582 170.398 43.564 170.74 43.51C170.704 43.924 170.704 44.176 170.704 44.482C170.704 46.246 171.118 48.064 171.892 49.702C172.81 51.682 173.89 52.924 175.852 54.328C175.348 54.94 175.042 55.444 174.664 56.218C173.35 55.228 172.612 54.508 171.784 53.41C170.884 52.204 170.38 51.106 169.768 49.144C169.318 51.052 168.814 52.186 167.806 53.536C167.14 54.454 166.582 55.03 165.376 56.002C164.89 55.354 164.62 55.066 163.954 54.436C165.052 53.644 165.592 53.104 166.33 52.132C167.284 50.854 167.968 49.378 168.328 47.848C168.508 47.11 168.58 46.588 168.67 45.346ZM159.616 44.482L161.056 43.132C162.352 44.266 163.324 45.274 164.206 46.426L162.712 47.884C161.596 46.372 161.02 45.742 159.616 44.482ZM159.346 51.61V49.63C159.814 49.702 160.102 49.72 160.786 49.72H162.262C162.802 49.72 163.216 49.702 163.63 49.63C163.576 50.224 163.558 50.602 163.558 51.61V55.372C163.828 55.948 163.99 56.128 164.584 56.524C165.448 57.064 166.384 57.19 169.48 57.19C172.09 57.19 174.376 57.064 176.158 56.812C175.852 57.676 175.744 58.126 175.618 58.954C174.016 59.008 171.406 59.062 170.164 59.062C167.212 59.062 165.754 58.954 164.818 58.648C163.882 58.36 163.234 57.874 162.532 56.956C161.956 57.532 161.524 57.91 160.678 58.558C160.372 58.792 160.264 58.882 160.138 58.99C159.958 59.134 159.958 59.134 159.868 59.206L158.986 57.154C159.76 56.83 160.894 56.074 161.668 55.39V51.52H160.57C160.066 51.52 159.796 51.538 159.346 51.61ZM179.74 46.12L179.65 44.014C180.064 44.086 180.514 44.104 181.468 44.104C182.548 44.104 184.15 44.032 184.816 43.942C185.176 43.906 185.302 43.87 185.536 43.726L186.958 44.95C186.796 45.166 186.706 45.364 186.58 45.706C186.49 45.922 185.392 49.234 185.23 49.792C186.634 49.99 187.84 50.332 189.208 50.926C189.352 50.008 189.388 49.27 189.388 47.596C189.388 47.2 189.37 47.002 189.316 46.642L191.584 46.732C191.512 47.11 191.494 47.254 191.476 47.938C191.422 49.522 191.332 50.602 191.152 51.754C191.728 52.042 192.52 52.456 193.078 52.78C193.564 53.068 193.636 53.086 193.906 53.212L193.096 55.588C192.574 55.138 191.53 54.436 190.612 53.914C190.108 55.246 189.568 56.128 188.65 57.082C187.858 57.91 186.958 58.576 185.932 59.116C185.176 58.18 184.996 58 184.294 57.496C185.644 56.848 186.346 56.38 187.084 55.606C187.804 54.832 188.398 53.86 188.686 52.942C187.408 52.33 186.346 51.988 184.636 51.7C183.844 54.076 183.376 55.228 182.854 56.128C182.188 57.28 181.378 57.838 180.388 57.838C178.732 57.838 177.508 56.38 177.508 54.418C177.508 52.762 178.318 51.358 179.74 50.476C180.676 49.9 181.63 49.666 183.142 49.612C183.61 48.19 183.826 47.506 184.276 45.85C183.358 45.922 182.926 45.94 181.162 46.012C180.424 46.048 180.1 46.066 179.74 46.12ZM182.584 51.502C181.378 51.682 180.748 51.97 180.19 52.582C179.74 53.068 179.506 53.68 179.506 54.31C179.506 55.048 179.902 55.642 180.388 55.642C180.73 55.642 181 55.318 181.414 54.508C181.774 53.788 182.206 52.672 182.584 51.502ZM207.334 48.1L209.152 47.2C210.394 48.91 211.33 50.854 211.852 52.924L209.8 53.95C209.44 52.06 208.324 49.414 207.334 48.1ZM202.042 44.14L202.006 44.374C201.916 44.896 201.79 45.634 201.61 46.606C201.556 46.912 201.556 46.912 201.502 47.146C202.042 47.128 202.294 47.11 202.618 47.11C203.806 47.11 204.688 47.434 205.282 48.064C205.894 48.748 206.128 49.612 206.128 51.25C206.128 54.346 205.606 56.812 204.742 57.802C204.238 58.396 203.698 58.612 202.744 58.612C201.916 58.612 201.178 58.468 199.972 58.072C199.99 57.73 200.008 57.46 200.008 57.28C200.008 56.812 199.972 56.452 199.828 55.75C200.8 56.182 201.826 56.47 202.456 56.47C202.978 56.47 203.266 56.128 203.536 55.246C203.824 54.31 204.004 52.672 204.004 51.142C204.004 49.486 203.59 49 202.204 49C201.826 49 201.538 49.018 201.124 49.054C200.242 52.744 199.432 54.922 197.452 58.846L195.364 57.694C196.75 55.804 198.136 52.564 198.982 49.216C198.712 49.252 198.712 49.252 198.136 49.36L196.498 49.63C196.21 49.684 196.012 49.738 195.76 49.81L195.544 47.686C196.354 47.668 197.29 47.578 199.378 47.308C199.72 45.31 199.846 44.284 199.846 43.672C199.846 43.6 199.846 43.492 199.846 43.348L202.186 43.582C202.132 43.726 202.078 43.96 202.042 44.14ZM206.218 44.266L207.478 43.636C208.27 44.482 208.756 45.166 209.368 46.282L208.108 46.948C207.514 45.85 207.01 45.13 206.218 44.266ZM211.51 45.112L210.268 45.814C209.728 44.824 209.134 43.978 208.432 43.204L209.638 42.574C210.448 43.402 210.952 44.086 211.51 45.112ZM217.828 47.722L219.232 46.732C220.06 47.236 220.456 47.524 221.212 48.082C222.598 47.092 223.246 46.552 224.128 45.598H219.952C218.386 47.02 216.928 47.956 214.894 48.856C214.606 48.28 214.264 47.866 213.706 47.362C215.722 46.57 217.306 45.616 218.584 44.428C219.43 43.636 219.88 43.114 220.186 42.556L222.4 42.952C221.932 43.51 221.842 43.6 221.464 44.032H224.614C225.316 44.032 225.784 43.996 226.216 43.942L227.152 44.932C226.108 46.156 225.586 46.714 224.83 47.416C221.842 50.188 218.818 51.862 214.696 52.996C214.462 52.33 214.174 51.826 213.688 51.268C216.154 50.71 218.026 50.026 219.682 49.054C219.142 48.586 218.62 48.208 217.828 47.722ZM226.792 52.258H222.652C221.338 53.266 220.798 53.608 219.7 54.184C218.476 54.814 217.648 55.156 216.316 55.57C215.938 54.742 215.776 54.472 215.272 53.932C218.746 53.086 222.148 51.034 223.426 48.964L225.334 49.576C224.866 50.134 224.776 50.242 224.38 50.692H226.99C227.692 50.692 228.142 50.674 228.574 50.602L229.636 51.682C229.402 51.97 229.366 52.006 229.024 52.492C227.332 54.814 225.586 56.254 222.778 57.604C220.618 58.648 218.89 59.17 215.776 59.692C215.434 58.81 215.308 58.594 214.696 57.856C217.918 57.55 220.15 56.956 222.22 55.858C221.518 55.192 221.086 54.886 220.204 54.364L221.788 53.374C222.688 53.986 223.066 54.274 223.84 54.904C224.884 54.22 225.568 53.626 226.792 52.258ZM241.57 43.06L243.64 44.644C243.334 44.86 242.992 45.166 241.426 46.624C240.508 47.47 239.248 48.478 237.142 50.08C236.584 50.494 236.458 50.638 236.458 50.836C236.458 51.106 236.494 51.142 238.078 52.33C240.886 54.454 241.408 54.904 243.748 57.028C243.928 57.208 244.036 57.298 244.27 57.478L242.416 59.35C241.948 58.702 241.3 58.018 240.076 56.884C238.798 55.696 238.204 55.21 235.432 53.05C234.244 52.132 233.92 51.646 233.92 50.818C233.92 50.278 234.118 49.792 234.514 49.36C234.748 49.108 234.766 49.09 236.098 48.064C238.042 46.588 239.05 45.724 240.256 44.554C241.066 43.744 241.264 43.51 241.57 43.06ZM121.672 73.956V71.814C119.314 72.03 118.414 72.084 116.056 72.138C115.858 71.4 115.858 71.4 115.39 70.284C115.786 70.284 116.002 70.284 116.272 70.284C118.846 70.284 122.176 70.032 124.336 69.672C126.046 69.384 126.694 69.222 127.666 68.808L129.142 70.608C127.594 71.004 125.146 71.454 123.688 71.616V73.956H127.414C128.44 73.956 129.07 73.92 129.664 73.848V75.864C129.052 75.792 128.368 75.756 127.45 75.756H123.688V77.934H128.296C129.304 77.934 129.898 77.898 130.492 77.826V79.86C129.862 79.788 129.268 79.752 128.296 79.752H123.688V83.28C123.688 84.072 123.436 84.63 122.986 84.828C122.572 85.008 121.798 85.116 120.97 85.116C120.43 85.116 119.548 85.08 118.522 84.99C118.432 84.198 118.324 83.784 117.982 83.028C119.278 83.208 120.25 83.28 120.988 83.28C121.51 83.28 121.672 83.154 121.672 82.722V79.752H116.65C115.66 79.752 115.066 79.788 114.436 79.86V77.826C115.03 77.898 115.624 77.934 116.65 77.934H121.672V75.756H117.658C116.866 75.756 116.02 75.792 115.408 75.864V73.848C116.002 73.92 116.614 73.956 117.64 73.956H121.672ZM148.942 71.886V73.776C148.582 73.722 148.384 73.722 147.682 73.704C147.538 76.692 146.98 78.798 145.846 80.76C146.818 82.002 147.862 82.866 149.266 83.568C148.852 84.126 148.546 84.684 148.222 85.476C146.872 84.684 145.648 83.604 144.712 82.38C143.56 83.694 142.192 84.792 140.626 85.602C140.266 84.666 140.104 84.378 139.654 83.802C140.428 83.424 140.662 83.298 141.076 83.028C142.12 82.344 142.93 81.624 143.632 80.778C142.786 79.248 142.444 78.258 142.12 76.548C141.796 77.052 141.67 77.232 141.292 77.736C140.896 77.214 140.5 76.818 139.996 76.44C141.112 75.036 141.868 73.434 142.426 71.256C142.66 70.41 142.84 69.33 142.858 68.808L144.838 69.204C144.766 69.42 144.73 69.582 144.586 70.194C144.478 70.662 144.316 71.274 144.118 71.976H147.25C148.114 71.976 148.51 71.958 148.942 71.886ZM145.846 73.704H143.524C143.38 74.028 143.38 74.028 143.29 74.262C143.578 76.188 143.956 77.466 144.73 78.996C145.432 77.484 145.756 75.954 145.846 73.704ZM140.194 82.794L139.15 84.468C138.484 83.946 138.232 83.784 137.476 83.37C136.342 84.396 135.28 84.918 133.174 85.512C132.904 84.882 132.634 84.396 132.238 83.856C133.858 83.514 134.812 83.154 135.802 82.524C134.902 82.128 134.416 81.93 133.138 81.462C133.714 80.67 133.876 80.436 134.308 79.68H133.786C133.138 79.68 132.778 79.698 132.364 79.77V77.952C132.76 78.024 133.12 78.042 133.786 78.042H135.136C135.316 77.628 135.388 77.412 135.604 76.764L137.476 77.124C137.314 77.574 137.242 77.7 137.098 78.042H139.942C140.572 78.042 140.932 78.024 141.274 77.952V79.77C140.896 79.698 140.59 79.68 139.816 79.68C139.456 80.814 139.294 81.192 138.736 81.984C139.456 82.326 139.582 82.398 140.194 82.794ZM137.944 79.68H136.234C135.982 80.112 135.928 80.202 135.604 80.688C136.36 80.958 136.594 81.048 137.134 81.282C137.512 80.778 137.764 80.31 137.944 79.68ZM137.872 72.228H140.068C140.608 72.228 141.004 72.21 141.22 72.174V73.83C140.95 73.794 140.626 73.776 140.068 73.776H138.862C139.186 74.172 139.564 74.442 140.446 74.928C139.96 75.45 139.888 75.558 139.402 76.404C138.502 75.648 138.25 75.378 137.8 74.694C137.836 75.072 137.854 75.288 137.854 75.432V76.08C137.854 76.314 137.872 76.53 137.926 76.746H136C136.036 76.548 136.054 76.35 136.054 76.152V75.468C136.054 75.306 136.072 75.018 136.108 74.694C135.136 76.008 134.56 76.566 133.174 77.52C132.778 76.854 132.58 76.602 132.004 76.026C133.444 75.288 134.29 74.64 134.884 73.776H133.912C133.264 73.776 132.814 73.794 132.418 73.866V72.138C132.832 72.21 133.246 72.228 133.93 72.228H136.072V70.104C136.072 69.546 136.054 69.24 135.982 68.88H137.944C137.89 69.222 137.872 69.528 137.872 70.068V72.228ZM132.868 69.636L134.398 69.06C135.082 70.05 135.298 70.482 135.658 71.436L134.074 72.03C133.714 71.022 133.426 70.464 132.868 69.636ZM139.492 69.024L141.112 69.69C140.428 71.076 140.302 71.292 139.744 72.12L138.214 71.436C138.79 70.644 139.186 69.906 139.492 69.024ZM157.636 82.506L157.222 80.58C157.132 80.814 157.114 80.904 157.024 81.192C156.268 80.346 155.764 79.644 155.206 78.654C155.296 79.878 155.314 80.13 155.314 80.706V83.676C155.314 84.54 155.332 85.008 155.422 85.548H153.334C153.424 84.972 153.46 84.432 153.46 83.64V81.318C153.46 80.598 153.496 79.752 153.532 79.158C152.722 81.138 152.146 82.146 151.192 83.208C150.994 82.506 150.67 81.858 150.274 81.354C151.03 80.58 151.606 79.788 152.218 78.69C152.596 78.024 152.668 77.844 153.172 76.656H152.236C151.444 76.656 151.048 76.674 150.616 76.746V74.838C151.03 74.91 151.408 74.928 152.236 74.928H153.442V70.662C153.442 69.852 153.424 69.33 153.352 68.898H155.404C155.332 69.366 155.314 69.78 155.314 70.644V74.928H156.16C156.844 74.928 157.15 74.91 157.546 74.856V76.728C157.114 76.674 156.754 76.656 156.124 76.656H155.476C156.142 77.79 156.808 78.6 157.798 79.41C157.546 79.86 157.474 80.022 157.294 80.418C157.708 80.4 158.338 80.292 158.95 80.166L163.162 79.23V71.004C163.162 69.96 163.144 69.474 163.054 68.916H165.232C165.142 69.51 165.124 69.996 165.124 70.986V78.798C165.862 78.618 166.186 78.528 166.654 78.348L167.032 80.4C166.546 80.454 166.042 80.544 165.304 80.724L165.124 80.76V83.388C165.124 84.396 165.142 84.936 165.232 85.512H163.054C163.144 84.9 163.162 84.468 163.162 83.37V81.192L159.346 82.056C158.554 82.236 158.032 82.38 157.636 82.506ZM150.49 70.572L152.02 69.888C152.596 71.49 152.866 72.408 153.118 73.776L151.606 74.424C151.318 72.768 150.994 71.652 150.49 70.572ZM156.682 69.852L158.194 70.518C157.726 72.174 157.492 72.804 156.754 74.424L155.44 73.74C156.016 72.534 156.322 71.598 156.682 69.852ZM158.392 71.49L159.652 70.104C161.2 71.184 161.776 71.688 162.802 72.75L161.578 74.262C160.246 72.84 160.156 72.768 158.392 71.49ZM157.834 75.936L159.094 74.604C160.516 75.576 161.29 76.242 162.226 77.25L161.002 78.708C159.742 77.358 159.13 76.818 157.834 75.936ZM180.334 74.1L182.152 73.2C183.394 74.91 184.33 76.854 184.852 78.924L182.8 79.95C182.44 78.06 181.324 75.414 180.334 74.1ZM175.042 70.14L175.006 70.374C174.916 70.896 174.79 71.634 174.61 72.606C174.556 72.912 174.556 72.912 174.502 73.146C175.042 73.128 175.294 73.11 175.618 73.11C176.806 73.11 177.688 73.434 178.282 74.064C178.894 74.748 179.128 75.612 179.128 77.25C179.128 80.346 178.606 82.812 177.742 83.802C177.238 84.396 176.698 84.612 175.744 84.612C174.916 84.612 174.178 84.468 172.972 84.072C172.99 83.73 173.008 83.46 173.008 83.28C173.008 82.812 172.972 82.452 172.828 81.75C173.8 82.182 174.826 82.47 175.456 82.47C175.978 82.47 176.266 82.128 176.536 81.246C176.824 80.31 177.004 78.672 177.004 77.142C177.004 75.486 176.59 75 175.204 75C174.826 75 174.538 75.018 174.124 75.054C173.242 78.744 172.432 80.922 170.452 84.846L168.364 83.694C169.75 81.804 171.136 78.564 171.982 75.216C171.712 75.252 171.712 75.252 171.136 75.36L169.498 75.63C169.21 75.684 169.012 75.738 168.76 75.81L168.544 73.686C169.354 73.668 170.29 73.578 172.378 73.308C172.72 71.31 172.846 70.284 172.846 69.672C172.846 69.6 172.846 69.492 172.846 69.348L175.186 69.582C175.132 69.726 175.078 69.96 175.042 70.14ZM179.218 70.266L180.478 69.636C181.27 70.482 181.756 71.166 182.368 72.282L181.108 72.948C180.514 71.85 180.01 71.13 179.218 70.266ZM184.51 71.112L183.268 71.814C182.728 70.824 182.134 69.978 181.432 69.204L182.638 68.574C183.448 69.402 183.952 70.086 184.51 71.112ZM193.366 70.14V69.924C193.366 69.51 193.33 69.15 193.258 68.79H195.472C195.4 69.168 195.364 69.51 195.364 69.906V70.14H200.674C201.484 70.14 201.988 70.104 202.564 70.032V71.85C201.97 71.778 201.52 71.76 200.692 71.76H188.272C187.462 71.76 187.012 71.778 186.418 71.85V70.032C186.994 70.104 187.534 70.14 188.38 70.14H193.366ZM189.154 75.252V73.704C189.154 73.128 189.136 72.822 189.1 72.39C189.622 72.444 190.054 72.462 190.846 72.462H198.334C199.054 72.462 199.432 72.444 199.936 72.39C199.9 72.858 199.882 73.128 199.882 73.704V75.252C199.882 75.954 199.9 76.152 199.936 76.584C199.45 76.53 199.036 76.512 198.244 76.512H190.792C190.09 76.512 189.622 76.53 189.1 76.584C189.136 76.206 189.154 75.864 189.154 75.252ZM191.026 73.92V75.018H197.992V73.92H191.026ZM186.922 83.55V78.762C186.922 78.15 186.904 77.682 186.85 77.124C187.426 77.178 187.948 77.196 188.722 77.196H200.386C201.25 77.196 201.682 77.178 202.15 77.124C202.096 77.682 202.078 78.096 202.078 78.744V83.334C202.078 84.234 201.988 84.576 201.646 84.882C201.286 85.206 200.746 85.314 199.486 85.314C199.108 85.314 199.018 85.314 198.442 85.278C198.154 85.26 198.154 85.26 197.866 85.26C197.83 84.45 197.74 84.036 197.47 83.46C198.46 83.568 199.234 83.622 199.738 83.622C200.08 83.622 200.17 83.532 200.17 83.244V78.762H188.83V83.55C188.83 84.468 188.848 84.9 188.938 85.53H186.814C186.886 85.152 186.922 84.396 186.922 83.55ZM198.334 80.562V82.092C198.334 82.614 198.352 82.974 198.388 83.298C198.046 83.262 197.38 83.244 196.894 83.244H192.358V84.144H190.504C190.558 83.802 190.576 83.406 190.576 82.686V80.598C190.576 80.076 190.558 79.77 190.522 79.41C190.936 79.446 191.314 79.464 191.98 79.464H196.912C197.596 79.464 197.848 79.446 198.388 79.41C198.352 79.752 198.334 80.022 198.334 80.562ZM192.358 80.832V81.822H196.606V80.832H192.358ZM205.426 70.77H207.892C207.802 71.436 207.748 72.318 207.748 73.506C207.748 75.072 207.892 77.232 208.09 78.33C208.396 80.202 208.972 81.354 209.548 81.354C209.818 81.354 210.07 81.084 210.286 80.58C210.718 79.608 211.042 78.528 211.24 77.322C211.87 78.042 212.158 78.312 213.04 78.96C212.104 82.47 211.06 83.928 209.53 83.928C208.324 83.928 207.352 83.046 206.632 81.318C205.894 79.518 205.57 76.908 205.498 71.922C205.48 71.292 205.48 71.166 205.426 70.77ZM214.516 72.48L216.406 71.58C218.674 74.298 219.934 77.304 220.456 81.264L218.224 82.11C218.116 80.418 217.702 78.546 217.072 76.908C216.46 75.27 215.596 73.812 214.516 72.48Z" fill="white"/>
<g clip-path="url(#clip0_1092_24336)">
<g opacity="0.8">
<path d="M209.113 213.902C209.544 210.412 211.074 207.062 213.425 204.445C214.73 202.997 216.274 201.77 217.508 200.259C219.443 197.897 220.549 194.864 220.585 191.809" stroke="#20ABE2" stroke-width="2.21116" stroke-linecap="round" stroke-linejoin="round"/>
<path d="M215.526 215.195C215.958 211.705 217.487 208.355 219.838 205.739C221.143 204.29 222.687 203.063 223.921 201.552C225.856 199.19 226.962 196.157 226.999 193.102" stroke="#20ABE2" stroke-width="2.21116" stroke-linecap="round" stroke-linejoin="round"/>
<path d="M259.767 155.128L259.13 159.108" stroke="#20ABE2" stroke-width="2.21116" stroke-linecap="round" stroke-linejoin="round"/>
<path d="M266.946 159.039L264.138 162.072" stroke="#20ABE2" stroke-width="2.21116" stroke-linecap="round" stroke-linejoin="round"/>
<path d="M271.42 167.08L267.447 167.655" stroke="#20ABE2" stroke-width="2.21116" stroke-linecap="round" stroke-linejoin="round"/>
<path d="M278.298 185.775C278.018 186.527 277.402 187.065 276.779 187.478C276.381 187.743 275.954 187.975 275.508 188.019C275.025 188.067 274.568 187.883 274.137 187.677C272.589 186.936 271.203 185.856 269.825 184.78" stroke="#20ABE2" stroke-width="2.21116" stroke-linecap="round" stroke-linejoin="round"/>
<path d="M281.54 184.366C281.216 184.794 280.836 185.159 280.398 185.406C279.244 186.054 277.932 185.782 276.775 185.372C275.345 184.864 273.959 184.149 272.876 183.014" stroke="#20ABE2" stroke-width="2.21116" stroke-linecap="round" stroke-linejoin="round"/>
<path d="M260.958 183.466C261.666 181.745 262.347 179.884 263.685 178.731C264.33 178.178 265.082 177.828 265.841 177.574C268.141 176.803 270.588 176.859 272.736 177.728C274.918 178.613 276.76 180.157 278.721 181.465" stroke="#20ABE2" stroke-width="2.21116" stroke-linecap="round" stroke-linejoin="round"/>
<path d="M275.393 188.027C274.597 189.353 273.064 190.079 271.777 189.722C271.28 189.582 270.83 189.302 270.377 189.047C269.342 188.461 268.321 187.839 267.3 187.223C266.976 187.028 266.644 186.847 266.316 186.67C265.553 186.258 264.79 186.007 263.92 185.963C263.15 185.922 262.362 186.026 261.595 186.265C261.256 186.372 260.917 186.505 260.589 186.663C260.11 186.895 259.686 186.346 259.937 185.823C259.937 185.815 259.944 185.808 259.948 185.804C260.309 185.042 260.637 184.257 260.958 183.475C261.665 181.754 262.347 179.893 263.685 178.74" stroke="#20ABE2" stroke-width="2.21116" stroke-linecap="round" stroke-linejoin="round"/>
<path d="M184.235 152.166C183.955 152.884 184.062 153.743 184.25 154.52C184.372 155.022 184.534 155.523 184.829 155.917C185.149 156.345 185.599 156.603 186.045 156.824C187.069 157.329 188.134 157.69 189.211 157.996" stroke="#20ABE2" stroke-width="2.21116" stroke-linecap="round" stroke-linejoin="round"/>
<path d="M198.335 164.902C198.924 163.2 199.617 161.427 199.381 159.577C199.267 158.685 198.943 157.841 198.552 157.056C197.369 154.665 195.552 152.693 193.433 151.495C190.374 149.767 186.966 149.472 183.877 147.854C183.38 147.593 182.82 147.961 182.775 148.588C182.735 149.133 182.783 149.682 182.941 150.205C183.365 151.573 184.496 152.476 185.602 153.157C186.398 153.651 187.231 154.082 188.086 154.388" stroke="#20ABE2" stroke-width="2.21116" stroke-linecap="round" stroke-linejoin="round"/>
<path d="M184.906 156.016C184.637 157.534 185.289 159.266 186.454 160.088C186.907 160.409 187.412 160.593 187.906 160.799C189.037 161.267 190.176 161.699 191.311 162.137C191.672 162.277 192.026 162.432 192.383 162.587C193.201 162.944 193.92 163.405 194.58 164.09C195.166 164.698 195.674 165.413 196.08 166.198C196.26 166.548 196.419 166.909 196.555 167.282C196.754 167.823 197.414 167.816 197.569 167.271C197.569 167.263 197.572 167.256 197.576 167.249C197.801 166.456 198.066 165.675 198.331 164.901C198.921 163.198 199.614 161.426 199.378 159.576" stroke="#20ABE2" stroke-width="2.21116" stroke-linecap="round" stroke-linejoin="round"/>
<path d="M256.267 166.463C239.886 163.017 225.256 158.912 209.873 151.873C206.137 160.589 202.647 167.845 199.566 176.815L199.521 177.121C215.81 184.532 233.186 189.547 250.92 191.954" fill="white"/>
<path d="M256.267 166.463C239.886 163.017 225.256 158.912 209.873 151.873C206.137 160.589 202.647 167.845 199.566 176.815L199.521 177.121C215.81 184.532 233.186 189.547 250.92 191.954" stroke="#20A9E0" stroke-width="2.21116" stroke-linecap="round" stroke-linejoin="round"/>
<path d="M251.41 191.983C254.303 185.309 256.4 177.559 258.136 170.288L251.41 191.983Z" fill="white"/>
<path d="M251.41 191.983C254.303 185.309 256.4 177.559 258.136 170.288" stroke="#20A9E0" stroke-width="2.21116" stroke-linecap="round" stroke-linejoin="round"/>
<path d="M133.12 329.61C140.763 330.546 166.873 334.597 177.063 334.283" stroke="#20A9E0" stroke-width="2.21116" stroke-linecap="round" stroke-linejoin="round"/>
<path d="M177.063 332.726C177.701 334.594 181.84 336.153 182.157 334.285C182.473 332.416 182.794 332.416 184.386 333.349C185.978 334.285 187.887 334.594 188.208 332.413C188.525 330.231 190.474 331.115 191.392 331.79C192.667 332.726 194.576 330.854 194.893 328.985" stroke="#20A9E0" stroke-width="2.21116" stroke-linecap="round" stroke-linejoin="round"/>
<path d="M192.347 317.77C192.347 317.77 194.893 320.261 196.168 321.197C197.443 322.133 201.165 329.013 201.582 330.23C202.219 332.098 200.307 333.344 199.035 332.098C197.764 330.852 193.622 326.802 193.622 326.802" stroke="#20A9E0" stroke-width="2.21116" stroke-linecap="round" stroke-linejoin="round"/>
<path d="M189.799 317.147C187.57 317.77 186.615 320.261 185.661 320.574C184.806 320.854 179.93 322.443 177.063 323.688C176.241 324.046 171.97 328.984 171.649 329.607" stroke="#20A9E0" stroke-width="2.21116" stroke-linecap="round" stroke-linejoin="round"/>
<path d="M153.179 332.102C155.725 332.102 168.782 331.479 170.057 330.856" stroke="#20A9E0" stroke-width="2.21116" stroke-linecap="round" stroke-linejoin="round"/>
<path d="M119.109 326.806C121.977 326.183 127.313 325.085 128.024 323.692C128.662 322.446 130.254 322.446 131.525 322.756C132.8 323.069 137.893 329.297 138.214 330.233" stroke="#20A9E0" stroke-width="2.21116" stroke-linecap="round" stroke-linejoin="round"/>
<path d="M139.779 206.45C143.785 212.353 151.705 215.423 158.758 213.813" stroke="#20A9E0" stroke-width="2.21116" stroke-linecap="round" stroke-linejoin="round"/>
<path d="M150.095 202.474C156.68 208.824 165.031 213.401 174.001 215.586" stroke="#20A9E0" stroke-width="2.21116" stroke-linecap="round" stroke-linejoin="round"/>
<path d="M141.806 211.119C141.761 212.586 141.489 214.941 140.228 217.498C139.502 218.968 138.647 220.107 137.914 220.936" stroke="#20A9E0" stroke-width="2.21116" stroke-linecap="round" stroke-linejoin="round"/>
<path d="M134.727 212.982C136.75 221.639 136.842 230.723 134.992 239.416" stroke="#20A9E0" stroke-width="2.21116" stroke-linecap="round" stroke-linejoin="round"/>
<path d="M154.971 180.711C164.762 179.849 173.939 186.549 178.796 194.91C183.653 203.272 185.065 213.064 186.391 222.594C186.892 226.191 187.383 229.924 186.288 233.396C185.194 236.863 182.039 239.996 178.332 239.882" stroke="#20A9E0" stroke-width="2.21116" stroke-linecap="round" stroke-linejoin="round"/>
<path d="M150.596 180.376C143.115 178.179 134.938 182.609 130.49 188.889C126.042 195.168 124.483 202.922 123.027 210.429C121.593 217.833 120.152 225.406 121.321 232.854C122.489 240.302 126.782 247.727 133.873 250.661" stroke="#20A9E0" stroke-width="2.21116" stroke-linecap="round" stroke-linejoin="round"/>
<path d="M136.713 233.074C139.293 237.692 141.935 242.394 145.823 245.991C149.707 249.588 155.113 251.965 160.299 250.94C164.776 250.052 168.461 246.758 170.86 242.892C173.083 239.31 174.354 235.237 175.537 231.18" stroke="#20A9E0" stroke-width="2.21116" stroke-linecap="round" stroke-linejoin="round"/>
<path d="M175.173 221.521C175.88 225.667 176.057 229.902 175.7 234.092" stroke="#20A9E0" stroke-width="2.21116" stroke-linecap="round" stroke-linejoin="round"/>
<path d="M115.029 262.721C120.535 257.886 127.253 254.385 134.428 252.62C137.609 251.835 140.915 251.374 143.863 249.978C143.712 250.055 143.561 250.129 143.406 250.206" stroke="#20A9E0" stroke-width="2.21116" stroke-linecap="round" stroke-linejoin="round"/>
<path d="M203.354 262.721C197.848 257.886 191.13 254.385 183.955 252.62C180.774 251.835 177.469 251.374 174.521 249.978C174.672 250.055 174.823 250.129 174.977 250.206" stroke="#20A9E0" stroke-width="2.21116" stroke-linecap="round" stroke-linejoin="round"/>
<path d="M180.288 255.286C179.112 261.544 174.852 267.178 169.074 270.101C166.184 271.564 162.952 272.334 159.702 272.404H158.773C155.523 272.334 152.287 271.564 149.402 270.101C143.627 267.175 139.363 261.544 138.188 255.286" stroke="#20A9E0" stroke-width="2.21116" stroke-linecap="round" stroke-linejoin="round"/>
<path d="M112.262 268.185C111.661 269.526 111.72 269.084 111.024 271.115C111.024 271.115 110.445 272.511 110.106 274.011C107.851 283.995 107.276 294.726 106.145 304.956C105.419 311.49 104.729 317.888 103.333 324.238C102.537 327.864 101.844 331.803 102.246 335.559" stroke="#20A9E0" stroke-width="2.21116" stroke-linecap="round" stroke-linejoin="round"/>
<path d="M205.915 268.565C210.861 291.214 214.012 312.379 217.144 335.563" stroke="#20A9E0" stroke-width="2.21116" stroke-linecap="round" stroke-linejoin="round"/>
<path d="M171.772 243.146C171.709 247.635 172.63 252.139 174.41 256.063" stroke="#20A9E0" stroke-width="2.21116" stroke-linecap="round" stroke-linejoin="round"/>
<path d="M145.771 246.633C146.892 249.924 146.538 253.664 144.824 256.697" stroke="#20A9E0" stroke-width="2.21116" stroke-linecap="round" stroke-linejoin="round"/>
<path d="M221.811 173.402L216.953 171.825L216.301 173.83C216.017 174.703 215.671 175.013 215.019 175.057C214.355 175.086 213.46 174.836 212.21 174.416C212.262 173.97 212.185 173.236 212.082 172.768C212.981 173.1 214.013 173.435 214.282 173.524C214.569 173.605 214.709 173.553 214.786 173.306L215.431 171.328L210.574 169.75L211.039 168.324L215.896 169.901L216.364 168.464L212.343 167.159L212.8 165.759L216.821 167.064L217.289 165.626C215.973 165.321 214.657 164.978 213.438 164.635C213.526 164.241 213.53 163.592 213.489 163.224C216.493 164.064 219.968 164.827 222.157 164.952L222.82 166.515C221.634 166.441 220.274 166.231 218.87 165.951L218.346 167.561L222.478 168.903L222.021 170.303L217.889 168.962L217.421 170.399L222.279 171.976L221.814 173.402H221.811Z" fill="#20A7DE"/>
<path d="M234.868 173.049C234.02 174.785 233.106 176.174 232.037 177.199C232.321 178.256 232.804 179.189 233.552 179.948C233.125 180.136 232.487 180.552 232.133 180.888C231.459 180.11 230.998 179.24 230.703 178.264C229.764 178.857 228.699 179.244 227.453 179.436C227.435 179.2 227.357 178.806 227.258 178.448L226.521 178.835C226.281 178.444 225.942 177.98 225.54 177.497C224.641 177.803 223.539 177.84 222.135 177.682C222.183 177.236 222.087 176.661 221.947 176.289C222.987 176.476 223.812 176.528 224.497 176.384C224.317 176.189 224.118 176.001 223.919 175.828L223.709 176.016L222.559 175.205C222.968 174.862 223.455 174.409 223.956 173.919L222.788 173.539L223.171 172.36L224.954 172.939C225.201 172.681 225.445 172.43 225.655 172.202L225.905 172.353L226.289 171.173C225.54 171.557 224.708 171.855 223.982 171.999C223.926 171.627 223.775 171.048 223.587 170.702C224.439 170.639 225.452 170.315 226.252 169.869L224.335 169.246L224.711 168.089L225.647 168.391C225.673 167.938 225.585 167.285 225.47 166.758L226.672 166.659C226.841 167.23 226.956 167.96 226.915 168.424L226.016 168.513L227.048 168.848L227.718 166.781L229.056 167.215L228.385 169.283L229.355 169.6L228.658 168.981C229.086 168.631 229.642 168.089 229.988 167.687L231.057 168.579C230.504 168.984 229.955 169.375 229.535 169.662L230.703 170.042L230.328 171.199L228.312 170.543C228.794 171.067 229.498 171.866 229.708 172.139L228.607 172.894C228.419 172.548 228.043 171.951 227.689 171.413L227.206 172.902L226.421 172.647L226.915 172.931L226.429 173.425L229.355 174.376C229.163 174 228.846 173.477 228.632 173.204C230.084 172.29 231.356 170.392 232.362 168.299L233.773 168.977C233.449 169.633 233.095 170.267 232.723 170.864L235.995 171.925L235.557 173.278L234.868 173.053V173.049ZM224.873 174.94C225.194 175.209 225.504 175.47 225.802 175.758C226.097 175.515 226.377 175.198 226.631 174.792L225.437 174.405L224.87 174.94H224.873ZM228.01 175.238C227.652 175.883 227.254 176.392 226.79 176.771C227.099 177.118 227.383 177.453 227.597 177.755C228.662 177.571 229.576 177.188 230.364 176.602C230.258 175.765 230.25 174.866 230.316 173.908C230.04 174.173 229.749 174.402 229.462 174.608C229.428 174.542 229.399 174.464 229.351 174.368L228.968 175.548L228.01 175.235V175.238ZM231.938 172.098C231.772 173.189 231.706 174.24 231.75 175.231C232.329 174.494 232.867 173.595 233.353 172.559L231.938 172.098Z" fill="#20A7DE"/>
<path d="M238.881 180.066C238.826 179.612 238.689 178.861 238.516 178.179L237.112 182.494L235.76 182.056L237.171 177.714C236.405 178.732 235.542 179.712 234.776 180.279C234.798 179.797 234.691 179.03 234.603 178.551C235.461 178.002 236.515 176.889 237.26 175.894L235.859 175.437L236.301 174.073L238.159 174.678L239.463 170.657L240.816 171.096L239.511 175.116L241.332 175.706L240.89 177.07L239.069 176.48L239.04 176.565C239.279 177.036 240.001 178.794 240.149 179.222L238.885 180.062L238.881 180.066ZM236.913 174.029C237.138 173.259 237.278 171.988 237.282 171.011L238.391 171.074C238.424 172.061 238.288 173.311 238.104 174.092L236.913 174.033V174.029ZM242.566 172.658C241.925 173.539 241.192 174.589 240.65 175.205L239.814 174.648C240.311 173.956 241.011 172.809 241.424 171.991L242.566 172.662V172.658ZM244.995 181.414L243.915 184.735L242.537 184.289L243.536 181.215L239.906 180.714L240.127 179.277L243.989 179.811L246.266 172.802L247.645 173.248L245.448 180.01L246.779 180.184L246.558 181.621L244.995 181.411V181.414ZM242.242 175.584C242.832 176.196 243.55 177.084 243.849 177.67L242.732 178.599C242.474 178.013 241.789 177.07 241.214 176.406L242.242 175.584ZM244.169 175.721C243.945 175.116 243.311 174.177 242.784 173.502L243.805 172.747C244.361 173.377 245.032 174.287 245.275 174.869L244.169 175.721Z" fill="#20A7DE"/>
</g>
</g>
<path d="M168.881 377.772C168.093 378.472 166.907 378.472 166.119 377.772L154.703 367.632C153.273 366.362 154.172 363.999 156.084 363.999L178.916 363.999C180.828 363.999 181.727 366.362 180.297 367.632L168.881 377.772Z" fill="#20AEE5"/>
<defs>
<clipPath id="clip0_1092_24336">
<rect width="334" height="223.253" fill="white" transform="translate(0.5 119.746)"/>
</clipPath>
</defs>
</svg>
