<svg width="316" height="197" viewBox="0 0 316 197" fill="none" xmlns="http://www.w3.org/2000/svg">
<g clip-path="url(#clip0_526_11213)">
<g clip-path="url(#clip1_526_11213)">
<path d="M105.417 134.211C104.591 139.988 104.029 190.263 104.591 193.619" stroke="#20AEE5" stroke-width="1.87413" stroke-linecap="round" stroke-linejoin="round"/>
<path d="M157.403 95.4326C164.824 92.1349 168.13 87.1843 168.957 75.6302" stroke="#20AEE5" stroke-width="1.87413" stroke-linecap="round" stroke-linejoin="round"/>
<path d="M135.947 69.8541C136.881 72.6641 137.344 76.4742 137.6 78.1023C139.253 88.83 144.204 94.6071 150.799 95.4253" stroke="#20AEE5" stroke-width="1.87413" stroke-linecap="round" stroke-linejoin="round"/>
<path d="M164.825 90.4823C164.825 93.7799 164.825 101.21 165.651 102.036" stroke="#20AEE5" stroke-width="1.87413" stroke-linecap="round" stroke-linejoin="round"/>
<path d="M170.602 69.0267C171.66 66.6795 173.9 67.6383 173.9 72.3244C173.9 77.0105 171.891 80.5726 169.776 80.5726" stroke="#20AEE5" stroke-width="1.87413" stroke-linecap="round" stroke-linejoin="round"/>
<path d="M135.121 69.0271C130.17 67.3741 132.65 80.5812 137.592 81.3995" stroke="#20AEE5" stroke-width="1.87413" stroke-linecap="round" stroke-linejoin="round"/>
<path d="M142.551 91.3095C142.551 91.3095 142.551 99.5578 141.724 102.864" stroke="#20AEE5" stroke-width="1.87413" stroke-linecap="round" stroke-linejoin="round"/>
<path d="M159.048 46.7536C145.022 40.9765 130.997 52.5307 134.295 68.209" stroke="#20AEE5" stroke-width="1.87413" stroke-linecap="round" stroke-linejoin="round"/>
<path d="M161.527 46.7532C170.602 46.5796 173.957 59.0016 172.453 66.4564" stroke="#20AEE5" stroke-width="1.87413" stroke-linecap="round" stroke-linejoin="round"/>
<path d="M135.948 106.162C132.65 109.459 110.369 120.187 107.897 126.791" stroke="#20AEE5" stroke-width="1.87413" stroke-linecap="round" stroke-linejoin="round"/>
<path d="M169.776 105.334C172.247 107.806 200.306 120.186 201.95 124.31" stroke="#20AEE5" stroke-width="1.87413" stroke-linecap="round" stroke-linejoin="round"/>
<path d="M203.297 129.021C203.925 131.211 204.47 133.558 204.867 144.038" stroke="#20AEE5" stroke-width="1.87413" stroke-linecap="round" stroke-linejoin="round"/>
<path d="M139.245 103.682C140.072 106.153 146.915 109.897 152.444 113.583" stroke="#20AEE5" stroke-width="1.87413" stroke-linecap="round" stroke-linejoin="round"/>
<path d="M167.304 103.682C167.196 105.136 161.874 111.36 156.576 113.583" stroke="#20AEE5" stroke-width="1.87413" stroke-linecap="round" stroke-linejoin="round"/>
<path d="M144.196 52.5312C145.022 54.1841 150.799 55.8288 151.618 55.8288" stroke="#20AEE5" stroke-width="1.87413" stroke-linecap="round" stroke-linejoin="round"/>
<path d="M151.626 51.704C151.626 53.3569 157.404 55.0016 159.048 55.0016" stroke="#20AEE5" stroke-width="1.87413" stroke-linecap="round" stroke-linejoin="round"/>
<path d="M160.701 52.5312C163.172 52.5312 166.478 55.0024 166.478 57.4818" stroke="#20AEE5" stroke-width="1.87413" stroke-linecap="round" stroke-linejoin="round"/>
<path d="M168.948 59.1254C169.758 60.6461 170.411 64.3901 170.601 67.3737" stroke="#20AEE5" stroke-width="1.87413" stroke-linecap="round" stroke-linejoin="round"/>
<path d="M137.6 58.3073C136.773 59.9603 135.947 68.2085 135.947 69.8615" stroke="#20AEE5" stroke-width="1.87413" stroke-linecap="round" stroke-linejoin="round"/>
<path d="M151.833 117.053L148.246 119.45C148.246 119.45 141.179 112.466 137.824 108.64" stroke="#20AEE5" stroke-width="1.87413" stroke-linecap="round" stroke-linejoin="round"/>
<path d="M159.014 117.657L162.006 120.046L168.585 110.475" stroke="#20AEE5" stroke-width="1.87413" stroke-linecap="round" stroke-linejoin="round"/>
<path d="M135.947 111.938L154.22 163.734L171.841 111.021" stroke="#20AEE5" stroke-width="1.87413" stroke-linecap="round" stroke-linejoin="round"/>
<path d="M150.196 121.038L151.849 125.434L146.832 142.79" stroke="#20AEE5" stroke-width="1.87413" stroke-linecap="round" stroke-linejoin="round"/>
<path d="M158.634 121.038L156.981 125.434L161.535 141.865" stroke="#20AEE5" stroke-width="1.87413" stroke-linecap="round" stroke-linejoin="round"/>
<path d="M213.273 142.195C213.315 138.69 213.554 135.409 214.191 132.872C215.232 128.739 217.298 126.401 219.637 123.136C220.125 122.458 220.844 121.698 221.521 122.037C222.141 122.343 222.199 123.318 222.108 124.103C221.885 125.954 221.315 127.756 220.447 129.359C225.811 125.855 231.199 122.384 237.034 119.954C239.993 118.723 239.977 121.21 237.902 122.648C243.34 119.731 243.25 122.789 241.663 123.814C243.084 123.144 243.936 125.161 243.068 125.863C242.613 126.227 240.993 127.326 240.134 127.748C240.679 127.797 241.241 127.946 241.646 128.368C242.547 129.31 241.547 130.211 240.663 130.806C236.613 133.55 234.158 138.178 229.704 140.095C227.513 141.037 224.745 142.12 224.406 144.781" stroke="#20AEE5" stroke-width="1.87413" stroke-linecap="round" stroke-linejoin="round"/>
<path d="M222.406 134.541C222.704 134.285 223.018 134.062 223.348 133.864C224.885 132.946 226.662 132.599 228.348 132.897C229.001 133.012 229.646 133.219 230.307 133.161C231.927 133.029 233.2 131.426 234.63 130.508" stroke="#20AEE5" stroke-width="1.87413" stroke-linecap="round" stroke-linejoin="round"/>
<path d="M200.687 159.707C203.299 155.575 205.778 149.789 209.084 144.004" stroke="#20AEE5" stroke-width="1.87413" stroke-linecap="round" stroke-linejoin="round"/>
<path d="M209.083 144.829C213.216 148.135 221.481 149.788 225.613 148.962C221.481 167.144 214.332 187.418 205.777 192.765C203.067 194.459 200.819 195.245 197.686 195.501" stroke="#20AEE5" stroke-width="1.87413" stroke-linecap="round" stroke-linejoin="round"/>
<path d="M211.563 141.343C214.869 144.004 220.853 145.566 225.068 144.723L223.96 148.963" stroke="#20AEE5" stroke-width="1.87413" stroke-linecap="round" stroke-linejoin="round"/>
</g>
<path d="M34.9805 17.1095L35.1065 15.4435C36.1845 15.6955 37.4305 15.7935 39.3065 15.7935C41.0845 15.7935 42.0785 15.7235 43.0025 15.5275L43.0585 17.0955C42.2185 17.4735 40.7065 18.4115 39.3205 19.4195L38.1025 18.4535C38.8305 17.9915 39.5165 17.5715 40.1605 17.2075C39.5445 17.2915 38.9425 17.3195 38.0605 17.3195C37.3465 17.3195 36.1845 17.2495 35.4985 17.1515C35.2185 17.1235 35.1765 17.1095 34.9805 17.1095ZM36.0165 20.2735L37.2345 21.1975C36.3525 21.9255 35.9605 22.5135 35.9605 23.1155C35.9605 24.0255 36.9825 24.4175 39.3485 24.4175C41.0145 24.4175 42.8485 24.1655 43.7445 23.8295L43.8985 25.7475C43.6605 25.7615 43.5765 25.7615 43.2825 25.8035C41.6025 26.0415 40.7065 26.1115 39.5025 26.1115C37.9765 26.1115 36.7445 25.9575 36.0025 25.6495C34.7985 25.1875 34.2105 24.4035 34.2105 23.3115C34.2105 22.2475 34.7565 21.3235 36.0165 20.2735ZM50.6325 19.4055H50.6465C51.0525 18.9575 51.3465 18.7055 52.3545 17.9495C53.5725 17.0255 54.4545 16.6335 55.3085 16.6335C56.4845 16.6335 57.2685 17.3755 57.2685 18.4955C57.2685 18.9575 57.1705 19.5595 56.9185 20.6375C56.4425 22.7515 56.3305 23.3395 56.3305 23.7875C56.3305 24.2355 56.5405 24.4875 56.9045 24.4875C57.2125 24.4875 57.5905 24.2075 57.8845 23.7735C58.2205 23.2835 58.5285 22.6815 58.6965 22.1775C59.0045 22.9195 59.1725 23.2135 59.6345 23.8575C59.2145 24.5855 59.0185 24.8515 58.6545 25.2435C58.0385 25.9295 57.3525 26.2515 56.5825 26.2515C56.1205 26.2515 55.6865 26.1115 55.3785 25.8875C54.8745 25.4955 54.6505 24.9775 54.6505 24.1235C54.6505 23.3115 54.7065 22.9335 55.2245 20.6095C55.4345 19.7135 55.5185 19.1675 55.5185 18.8455C55.5185 18.5095 55.3225 18.3275 54.9445 18.3275C54.4965 18.3275 53.8945 18.5935 53.2085 19.0835C52.1865 19.8395 51.1925 20.7215 50.6605 21.3655C50.6325 21.9955 50.6325 22.3875 50.6325 22.7795C50.6325 22.8915 50.6325 22.8915 50.6465 24.4455C50.6605 26.1955 50.6605 26.2375 50.7165 26.7555H48.9105C48.9945 26.1815 48.9945 26.1815 49.0085 24.5295C49.0085 23.0315 49.0085 23.0315 49.0365 22.6535L49.0085 22.6675C48.8825 22.8635 48.7285 23.0455 48.0145 23.8435C47.7065 24.1935 47.5105 24.4315 47.3705 24.6415L46.5585 22.9755C46.8805 22.7515 47.1045 22.5415 47.4685 22.1775C48.7845 20.8755 48.7845 20.8755 49.0505 20.5815C49.0645 19.9095 49.0645 19.7555 49.0925 19.2095C49.0925 18.8875 49.1065 18.8595 49.1065 18.4815C47.6225 18.5795 47.3425 18.6075 46.9645 18.6775L46.8805 17.0955C47.1325 17.1235 47.2585 17.1235 47.4545 17.1235C47.7205 17.1235 48.4905 17.0815 49.1485 17.0395C49.1625 16.8295 49.1625 16.8295 49.1765 16.5075C49.1765 16.1155 49.1905 15.6815 49.1905 15.3595C49.1905 14.9955 49.1905 14.8975 49.1485 14.5755L50.9265 14.6035C50.8845 14.7715 50.8845 14.7995 50.8705 15.1215C50.8705 15.1915 50.8565 15.3735 50.8285 15.6535C50.8145 15.9335 50.8005 16.0455 50.7725 16.8995C50.7865 16.8995 50.8425 16.8715 50.9405 16.8435L51.4585 17.4315C51.3185 17.5435 51.2625 17.5995 51.0525 17.8515C50.9825 17.9215 50.9825 17.9215 50.8565 18.1035C50.8005 18.1875 50.7725 18.2155 50.6885 18.3275L50.6605 19.1535C50.6605 19.1535 50.6465 19.2375 50.6325 19.4055ZM64.2405 14.5055L66.0605 14.7015C66.0185 14.8275 65.9765 14.9815 65.9485 15.1355C65.9205 15.3175 65.9065 15.3875 65.8645 15.6115C65.8225 15.9055 65.8225 15.9055 65.6265 16.9555C65.5705 17.2635 65.5705 17.2915 65.5285 17.4735C65.9345 17.4455 66.1305 17.4315 66.3965 17.4315C67.3205 17.4315 68.0065 17.6835 68.4685 18.1735C68.9445 18.7055 69.1265 19.3775 69.1265 20.6515C69.1265 23.0595 68.7205 24.9775 68.0485 25.7475C67.6565 26.2095 67.2365 26.3775 66.4945 26.3775C65.8505 26.3775 65.2765 26.2655 64.3385 25.9715C64.3525 25.6915 64.3665 25.4955 64.3665 25.3555C64.3665 24.9915 64.3385 24.7115 64.2265 24.1655C64.9825 24.5015 65.7805 24.7115 66.2705 24.7115C66.6765 24.7115 66.9005 24.4455 67.1105 23.7595C67.3345 23.0315 67.4745 21.7575 67.4745 20.5675C67.4745 19.2795 67.1525 18.9015 66.0465 18.9015C65.7665 18.9015 65.5565 18.9155 65.2345 18.9435C64.8145 20.6515 64.6885 21.0715 64.3805 21.9815C63.8905 23.3815 63.5125 24.2775 62.7005 25.9155C62.6305 26.0555 62.6305 26.0555 62.4905 26.3355C62.4485 26.4195 62.4485 26.4335 62.3785 26.5735L60.7545 25.6775C61.1745 25.1175 61.7345 24.1095 62.2105 23.0455C62.8125 21.6735 63.0085 21.0855 63.5685 19.0835C62.8545 19.1675 61.5245 19.4055 61.0625 19.5315L60.8945 17.8795C61.4125 17.8795 63.1065 17.7115 63.8765 17.5995C64.1285 16.0875 64.2405 15.2335 64.2405 14.7715C64.2405 14.7155 64.2405 14.6175 64.2405 14.5055ZM69.2525 17.1935L70.6945 16.4935C72.0945 18.1315 72.9765 19.7975 73.5785 21.9535L71.9825 22.7655C71.7165 21.5615 71.3945 20.6375 70.8625 19.5875C70.3585 18.5515 69.9105 17.9075 69.2525 17.1935ZM78.0165 15.9895L78.8285 14.5755C79.7945 15.1075 82.4685 15.9055 84.0505 16.1295L83.4765 17.7395C81.0825 17.1935 79.6125 16.7315 78.0165 15.9895ZM76.8965 17.2215L78.6465 17.3195C78.4365 18.0895 78.1985 19.3915 78.0165 20.7635C77.9885 20.9595 77.9885 20.9595 77.9465 21.1695L77.9745 21.1975C78.7865 20.4135 80.5225 19.8675 82.2165 19.8675C84.5965 19.8675 86.1645 21.0435 86.1645 22.8355C86.1645 23.8575 85.6185 24.8935 84.7225 25.5375C83.8125 26.1955 82.6505 26.4895 81.0265 26.4895C79.8225 26.4895 79.0525 26.3915 77.4565 25.9995C77.4425 25.1315 77.4145 24.8515 77.2465 24.1935C78.6185 24.6695 79.8225 24.8935 81.0125 24.8935C82.9865 24.8935 84.3585 24.0675 84.3585 22.8775C84.3585 21.9395 83.4765 21.3795 81.9925 21.3795C80.7465 21.3795 79.4445 21.7575 78.5065 22.4015C78.2545 22.5835 78.1705 22.6675 77.8765 23.0035L76.1125 22.9475C76.1545 22.6955 76.1545 22.6395 76.2245 22.1075C76.3365 21.2395 76.5605 19.6855 76.8125 18.0335C76.8685 17.6975 76.8825 17.5295 76.8965 17.2215ZM93.0105 18.9575L93.0385 17.3475C93.6965 17.5155 94.4245 17.5715 95.5725 17.5715C96.0625 17.5715 96.3705 17.5715 96.8605 17.5435C96.8605 16.7175 96.8465 16.0175 96.8465 15.4435C96.8465 15.1355 96.8325 14.9255 96.8045 14.7715L98.5545 14.7295C98.4845 15.1215 98.4565 15.7935 98.4565 16.7875C98.4565 16.9415 98.4565 17.1515 98.4565 17.4315C99.1845 17.3475 99.8005 17.2355 100.347 17.0955C100.431 17.0675 100.431 17.0675 100.655 16.9835L100.767 16.9555L100.823 18.5375C100.683 18.5515 100.669 18.5515 100.417 18.6075C99.9405 18.7055 99.2125 18.8315 98.4705 18.9155C98.4705 19.0415 98.4705 19.0415 98.4705 19.2235C98.4705 20.0075 98.4705 20.0355 98.6105 22.3875C99.6185 22.8635 99.9685 23.0595 100.809 23.6615C100.991 23.7875 101.061 23.8295 101.201 23.8995L100.529 25.5935C100.291 25.3135 99.8705 24.9495 99.4785 24.6975C99.0025 24.3895 98.6805 24.1795 98.5965 24.1235C98.5965 24.2075 98.5965 24.2355 98.5965 24.3195C98.5965 24.6275 98.5545 24.9075 98.4845 25.1035C98.1625 25.9295 97.1825 26.4195 95.8245 26.4195C93.9905 26.4195 92.8705 25.5515 92.8705 24.1235C92.8705 22.7655 94.0605 21.8135 95.7545 21.8135C96.2725 21.8135 96.6225 21.8695 97.0005 22.0095C96.9585 21.6595 96.9445 20.9735 96.8885 19.0275C96.3285 19.0415 95.9925 19.0555 95.6285 19.0555C95.1105 19.0555 94.5505 19.0415 93.8925 18.9855C93.6965 18.9855 93.5425 18.9715 93.4725 18.9715C93.3465 18.9575 93.2625 18.9575 93.2345 18.9575C93.1645 18.9435 93.1225 18.9435 93.0945 18.9435C93.0805 18.9435 93.0525 18.9435 93.0105 18.9575ZM97.0285 23.4375C96.5665 23.2695 96.3005 23.2135 95.8805 23.2135C94.9845 23.2135 94.4245 23.5635 94.4245 24.1375C94.4245 24.6555 94.9285 25.0055 95.7125 25.0055C96.2305 25.0055 96.6365 24.8515 96.8465 24.5715C96.9725 24.4035 97.0285 24.1935 97.0285 23.8155C97.0285 23.6615 97.0285 23.4375 97.0285 23.4375ZM91.5545 26.4195L89.8745 26.5175C89.8605 26.3775 89.8605 26.2935 89.8045 25.9715C89.5385 24.3335 89.4265 22.9895 89.4265 21.5195C89.4265 20.2595 89.5105 19.0275 89.6925 17.8095C89.7625 17.3895 89.7625 17.3895 90.0705 15.8075C90.1685 15.3175 90.2245 14.9115 90.2245 14.7715C90.2245 14.7575 90.2245 14.7435 90.2245 14.7155L92.1145 14.9115C91.5405 16.1295 91.0085 19.5035 90.9945 21.9395C90.9805 22.4435 90.9805 22.4435 90.9805 22.6675C90.9805 22.7655 90.9805 22.7655 90.9805 22.8915C90.9805 23.0035 90.9805 23.0315 90.9665 23.1855H90.9805C91.0505 23.0315 91.0505 23.0315 91.1485 22.7795C91.1765 22.6815 91.2465 22.5275 91.3165 22.3035C91.4425 22.0095 91.4425 22.0095 91.5825 21.6735C91.6105 21.6315 91.6245 21.5895 91.7505 21.2395L92.9125 21.7575C92.0865 23.3815 91.5265 25.1175 91.5265 26.0415C91.5265 26.1395 91.5265 26.1535 91.5545 26.4195ZM108.117 15.7515H105.163C104.547 15.7515 104.155 15.7655 103.693 15.8075V14.4495C104.197 14.5055 104.687 14.5335 105.275 14.5335H112.667C113.297 14.5335 113.773 14.5055 114.249 14.4495V15.8075C113.787 15.7655 113.437 15.7515 112.807 15.7515H109.601V16.2835H113.353C114.291 16.2835 114.683 16.2695 115.089 16.2275C115.033 16.5775 115.033 16.8435 115.033 17.3755V18.2575C115.033 18.7475 115.047 18.9855 115.103 19.3635H113.661V17.3895H109.601V18.7755C109.601 19.4475 109.601 19.7135 109.657 20.0915H108.047C108.089 19.6855 108.117 19.3495 108.117 18.7755V17.3895H104.267V19.3635H102.811C102.867 18.9855 102.895 18.7335 102.895 18.2575V17.3755C102.895 16.8715 102.881 16.5915 102.839 16.2275C103.231 16.2695 103.623 16.2835 104.561 16.2835H108.117V15.7515ZM113.955 21.7435V23.8855C114.445 24.1655 114.865 24.3195 115.425 24.4455C115.383 25.6635 115.229 26.2515 114.865 26.5595C114.459 26.9095 113.661 27.0075 111.267 27.0075C108.523 27.0075 108.117 26.8675 108.117 25.9295V24.9775H105.443V25.6915H103.889C103.945 25.2575 103.973 24.8095 103.973 24.3055V21.7295C103.973 21.1975 103.945 20.8055 103.903 20.3855C104.281 20.4275 104.631 20.4415 105.233 20.4415H112.625C113.255 20.4415 113.633 20.4275 114.011 20.3855C113.969 20.7635 113.955 21.1135 113.955 21.7435ZM109.573 24.9775V25.4815C109.573 25.5935 109.601 25.6635 109.671 25.6915C109.853 25.7895 110.511 25.8455 111.645 25.8455C112.667 25.8455 113.409 25.7755 113.633 25.6635C113.801 25.5795 113.857 25.4535 113.899 24.9775H109.573ZM108.117 21.5195H105.443V22.1635H108.117V21.5195ZM109.573 21.5195V22.1635H112.485V21.5195H109.573ZM108.117 23.1575H105.443V23.8575H108.117V23.1575ZM109.573 23.1575V23.8575H112.485V23.1575H109.573ZM104.855 18.6915V17.7535C105.079 17.7955 105.191 17.7955 105.583 17.7955H106.815C107.123 17.7955 107.347 17.7815 107.529 17.7535V18.6915C107.305 18.6635 107.151 18.6495 106.815 18.6495H105.583C105.247 18.6495 105.079 18.6635 104.855 18.6915ZM104.855 20.0075V19.0695C105.079 19.1115 105.191 19.1115 105.583 19.1115H106.815C107.137 19.1115 107.347 19.0975 107.529 19.0695V20.0075C107.333 19.9795 107.165 19.9655 106.815 19.9655H105.583C105.233 19.9655 105.093 19.9795 104.855 20.0075ZM110.231 18.6915V17.7535C110.441 17.7955 110.567 17.7955 110.959 17.7955H112.387C112.709 17.7955 112.905 17.7815 113.101 17.7535V18.6915C112.863 18.6635 112.723 18.6495 112.387 18.6495H110.959C110.623 18.6495 110.441 18.6635 110.231 18.6915ZM110.231 20.0075V19.0695C110.441 19.1115 110.567 19.1115 110.959 19.1115H112.387C112.709 19.1115 112.919 19.0975 113.101 19.0695V20.0075C112.891 19.9795 112.737 19.9655 112.387 19.9655H110.959C110.609 19.9655 110.469 19.9795 110.231 20.0075ZM122.355 19.7555V19.1395C122.355 18.6915 122.341 18.3975 122.313 18.0755H123.041C123.993 17.5155 124.385 17.2075 125.421 16.2835H119.835C119.093 16.2835 118.631 16.3115 118.141 16.3675V14.7155C118.631 14.7715 119.093 14.7995 119.821 14.7995H126.163C126.877 14.7995 127.101 14.7855 127.381 14.7295L128.291 15.7515C127.927 16.0875 127.927 16.0875 126.975 16.9975C126.289 17.6275 125.197 18.4395 123.993 19.1535V19.7555H127.423C128.333 19.7555 128.851 19.7275 129.327 19.6715V21.3655C128.781 21.3095 128.277 21.2815 127.423 21.2815H123.993V25.3695C123.993 26.6015 123.517 26.9095 121.655 26.9095C121.375 26.9095 121.095 26.8955 120.087 26.8535C119.961 26.0275 119.905 25.7755 119.653 25.1735C120.493 25.2995 121.011 25.3415 121.683 25.3415C122.257 25.3415 122.355 25.2855 122.355 24.9775V21.2815H118.589C117.749 21.2815 117.273 21.3095 116.685 21.3655V19.6715C117.203 19.7275 117.721 19.7555 118.631 19.7555H122.355ZM136.551 25.4675V25.6635C136.551 26.3915 136.579 26.8255 136.635 27.1755H134.997C135.053 26.7275 135.081 26.2235 135.081 25.6635V24.3615C133.681 24.7815 132.729 25.0335 132.099 25.1595C131.567 25.2715 131.189 25.3695 130.979 25.4535L130.587 23.8575C130.909 23.8435 131.147 23.8155 131.665 23.7175V16.0735C131.189 16.0875 131.035 16.1015 130.727 16.1295V14.6175C131.119 14.6595 131.511 14.6875 131.987 14.6875H136.257C136.817 14.6875 137.125 14.6735 137.531 14.6175V15.4855C137.783 15.4995 138.077 15.5135 138.427 15.5135H142.095C142.473 15.5135 142.865 15.4855 143.229 15.4435C143.201 15.6255 143.173 15.9055 143.131 16.3255C142.921 18.7195 142.221 21.0715 141.129 22.9755C141.913 24.0535 142.557 24.6415 143.831 25.4395C143.467 25.9855 143.173 26.5175 142.991 27.0075C141.577 25.9855 141.003 25.4395 140.219 24.3615C139.393 25.4675 138.735 26.0695 137.405 27.0215C137.153 26.3775 136.943 25.9995 136.551 25.4675ZM136.551 16.0735V25.4395C137.909 24.6135 138.483 24.0955 139.351 22.9755C138.889 22.1075 138.581 21.3515 138.315 20.4695C138.007 19.4335 137.867 18.6915 137.671 16.9275C137.405 16.9415 137.307 16.9555 137.083 16.9835V16.0875C136.943 16.0735 136.859 16.0735 136.551 16.0735ZM141.577 16.9135H139.099C139.379 19.1955 139.631 20.1335 140.261 21.5055C140.905 20.2315 141.255 18.9855 141.577 16.9135ZM133.135 16.0735V17.6135H135.081V16.0735H133.135ZM133.135 18.8595V20.3575H135.081V18.8595H133.135ZM133.135 21.6315V23.4375C134.059 23.2555 134.157 23.2415 135.081 22.9895V21.6315H133.135ZM146.939 20.8755H150.565C151.069 20.8755 151.377 20.8615 151.713 20.8195C151.685 21.0995 151.671 21.1975 151.657 21.5615C151.573 23.4795 151.279 25.0755 150.831 25.9435C150.481 26.6435 149.879 26.8815 148.535 26.8815C147.877 26.8815 147.219 26.8395 146.323 26.7555C146.253 26.1115 146.169 25.7755 145.959 25.1595C147.023 25.3415 147.807 25.4255 148.549 25.4255C149.095 25.4255 149.333 25.3415 149.459 25.0755C149.739 24.5155 149.907 23.6335 150.019 22.2195H146.155C145.763 22.2195 145.441 22.2335 145.119 22.2615C145.497 20.8475 145.749 19.1675 145.791 17.8095C146.099 17.8515 146.393 17.8655 146.883 17.8655H150.005V16.1575H146.715C146.197 16.1575 145.707 16.1855 145.245 16.2415V14.6875C145.665 14.7435 146.169 14.7715 146.729 14.7715H150.243C150.789 14.7715 151.209 14.7575 151.601 14.7155C151.573 15.0655 151.559 15.3875 151.559 15.8495V18.1455C151.559 18.6075 151.573 18.9015 151.601 19.2375C151.251 19.2095 150.803 19.1955 150.355 19.1955H147.233C147.149 19.7975 147.065 20.2735 146.939 20.8755ZM154.387 14.4355H156.165C156.095 14.9395 156.081 15.2615 156.081 15.9895V25.2995C156.081 26.1395 156.095 26.5315 156.165 27.0915H154.387C154.457 26.5035 154.485 26.1115 154.485 25.2995V15.9895C154.485 15.2615 154.471 14.9815 154.387 14.4355ZM159.133 18.0615L159.035 16.2275C159.343 16.2415 159.497 16.2415 159.567 16.2415C159.819 16.2415 159.819 16.2415 161.877 16.1015C162.899 16.0455 165.293 15.9195 169.031 15.7375C170.179 15.6815 170.249 15.6815 170.473 15.6255L170.571 17.4035C170.417 17.3895 170.417 17.3895 170.277 17.3895C169.437 17.3895 168.401 17.6695 167.505 18.1455C165.727 19.0695 164.677 20.4695 164.677 21.8835C164.677 22.9755 165.363 23.8155 166.539 24.1655C167.225 24.3755 168.121 24.5295 168.625 24.5295C168.639 24.5295 168.765 24.5295 168.905 24.5155L168.653 26.4195C168.471 26.3775 168.443 26.3775 168.177 26.3355C166.637 26.1395 165.755 25.8875 164.901 25.4115C163.613 24.6835 162.899 23.4935 162.899 22.0375C162.899 20.8475 163.375 19.6715 164.229 18.7475C164.761 18.1735 165.265 17.7955 166.175 17.3335C165.041 17.5015 164.173 17.5855 161.457 17.7815C160.211 17.8795 159.567 17.9635 159.133 18.0615ZM167.701 19.4055L168.681 18.9155C169.297 19.5735 169.675 20.1055 170.151 20.9735L169.171 21.4915C168.709 20.6375 168.317 20.0775 167.701 19.4055ZM171.817 20.0635L170.851 20.6095C170.431 19.8395 169.969 19.1815 169.423 18.5795L170.361 18.0895C170.991 18.7335 171.383 19.2655 171.817 20.0635ZM180.665 16.3115H179.237C178.537 16.3115 178.285 16.3255 177.907 16.3675V15.1215C178.313 15.1915 178.565 15.2055 179.237 15.2055H180.665C180.665 14.7295 180.651 14.5195 180.581 14.1695H182.191C182.121 14.5195 182.107 14.7015 182.107 15.2055H183.885C184.585 15.2055 184.837 15.1915 185.243 15.1215V16.3675C184.879 16.3255 184.543 16.3115 183.885 16.3115H182.107V16.8995H183.591C184.179 16.8995 184.417 16.8855 184.753 16.8435V18.0475C184.375 18.0055 184.151 17.9915 183.563 17.9915H182.107V18.5655H184.123C184.795 18.5655 185.103 18.5515 185.509 18.4815V19.7975C185.089 19.7275 184.767 19.7135 184.123 19.7135H179.055C178.383 19.7135 178.075 19.7275 177.641 19.7975V18.4815C177.963 18.5515 178.327 18.5655 179.055 18.5655H180.665V17.9915H179.433C178.887 17.9915 178.635 18.0055 178.257 18.0475V16.8435C178.621 16.8855 178.887 16.8995 179.447 16.8995H180.665V16.3115ZM179.615 24.8795V25.5375C179.615 26.2095 179.643 26.7275 179.699 27.1335H178.117C178.187 26.7135 178.201 26.3495 178.201 25.5375V21.4075C178.201 20.8895 178.187 20.6095 178.159 20.2175C178.523 20.2455 178.761 20.2595 179.279 20.2595H183.451C184.095 20.2595 184.389 20.2455 184.711 20.2035C184.669 20.5675 184.655 20.9735 184.655 21.6455V25.6775C184.655 26.7695 184.305 27.0355 182.891 27.0355C182.457 27.0355 182.219 27.0215 181.757 26.9935C181.673 26.3915 181.603 26.1115 181.421 25.6355C181.827 25.7055 182.471 25.7615 182.779 25.7615C183.157 25.7615 183.241 25.6915 183.241 25.3555V24.8795H179.615ZM179.615 23.7455H183.241V23.1715H179.615V23.7455ZM179.615 22.0515H183.241V21.4495H179.615V22.0515ZM173.091 15.8495V14.5615C173.441 14.6175 173.665 14.6315 174.225 14.6315H176.143C176.689 14.6315 176.913 14.6175 177.277 14.5615V15.8495C176.899 15.8075 176.647 15.7935 176.143 15.7935H174.225C173.735 15.7935 173.441 15.8075 173.091 15.8495ZM172.629 17.9075V16.5215C172.965 16.5775 173.231 16.5915 173.749 16.5915H176.395C176.969 16.5915 177.207 16.5775 177.515 16.5355V17.8935C177.207 17.8655 177.011 17.8515 176.451 17.8515H173.749C173.259 17.8515 172.965 17.8655 172.629 17.9075ZM173.119 19.8815V18.6495C173.385 18.6775 173.567 18.6915 174.001 18.6915H176.367C176.815 18.6915 176.983 18.6775 177.221 18.6495V19.8815C176.955 19.8535 176.773 19.8395 176.367 19.8395H174.001C173.567 19.8395 173.385 19.8535 173.119 19.8815ZM173.119 21.8415V20.6095C173.371 20.6375 173.581 20.6515 174.001 20.6515H176.353C176.801 20.6515 176.983 20.6375 177.221 20.6095V21.8415C176.969 21.8135 176.773 21.7995 176.339 21.7995H173.987C173.567 21.7995 173.385 21.8135 173.119 21.8415ZM174.491 27.0775H173.077C173.119 26.6435 173.147 26.1675 173.147 25.7055V23.6615C173.147 23.1855 173.133 22.9055 173.091 22.5555C173.413 22.5975 173.679 22.6115 174.183 22.6115H176.367C176.871 22.6115 177.109 22.5975 177.319 22.5695C177.291 22.8495 177.277 23.0595 177.277 23.5915V25.7895C177.277 26.3355 177.291 26.5735 177.333 26.8955H175.961V26.4195H174.491V27.0775ZM174.491 23.8295V25.1875H175.961V23.8295H174.491ZM197.605 17.9355H193.811C194.119 18.9575 194.455 19.7135 195.029 20.6095C195.883 19.9375 196.681 19.0835 197.171 18.3135L198.459 19.2935C198.319 19.4335 198.319 19.4335 197.633 20.1615C197.143 20.6515 196.597 21.1415 195.841 21.7435C196.219 22.2055 196.569 22.5695 197.087 23.0175C197.857 23.7035 198.291 23.9975 199.495 24.6695C199.047 25.1595 198.767 25.5375 198.445 26.1115C197.087 25.1735 196.317 24.5015 195.533 23.5775C194.651 22.5415 194.245 21.8975 193.699 20.6795C193.727 21.3235 193.755 22.1215 193.755 22.7235V25.6775C193.755 26.6995 193.349 27.0075 192.019 27.0075C191.473 27.0075 190.885 26.9795 190.255 26.9375C190.185 26.3075 190.115 26.0555 189.877 25.4255C190.577 25.5515 191.151 25.6075 191.711 25.6075C192.145 25.6075 192.243 25.5235 192.243 25.1455V17.9355H188.365C187.749 17.9355 187.273 17.9635 186.839 18.0195V16.4795C187.259 16.5355 187.721 16.5635 188.449 16.5635H192.243V15.7655C192.243 15.0655 192.215 14.6455 192.159 14.2395H193.839C193.783 14.6735 193.755 15.0935 193.755 15.7795V16.5635H196.135C195.659 15.9335 195.365 15.6255 194.651 15.0235L195.743 14.2115C196.681 15.0235 196.681 15.0235 197.479 15.9335L196.639 16.5635H197.605C198.319 16.5635 198.781 16.5355 199.215 16.4795V18.0195C198.781 17.9635 198.319 17.9355 197.605 17.9355ZM187.931 19.1955L189.135 18.2995C189.947 19.1535 190.423 19.7695 191.067 20.7495L189.751 21.6875C189.205 20.6935 188.645 19.9375 187.931 19.1955ZM191.585 21.4355L192.089 22.8355C190.731 23.8435 190.465 24.0115 188.421 25.2155C188.071 25.4255 187.889 25.5375 187.637 25.7195L186.895 24.1375C187.497 23.9415 188.057 23.6755 188.953 23.1855C190.017 22.5835 190.619 22.1915 191.585 21.4355ZM206.201 16.4515V16.0035H203.317C202.687 16.0035 202.309 16.0175 201.945 16.0595V14.8275C202.351 14.8835 202.827 14.9115 203.485 14.9115H206.201C206.187 14.5475 206.173 14.4635 206.117 14.1415H207.755C207.685 14.4215 207.671 14.5335 207.657 14.9115H210.471C211.171 14.9115 211.619 14.8975 212.011 14.8555C211.983 15.1075 211.969 15.3875 211.969 16.0455V16.4515H212.081C212.669 16.4515 212.977 16.4375 213.355 16.3815V17.5995C213.019 17.5435 212.669 17.5295 212.039 17.5295H211.969V18.0755C211.969 18.5095 211.983 18.9015 212.011 19.0695C211.605 19.0415 211.185 19.0275 210.555 19.0275H207.657V19.4615H210.989C211.703 19.4615 212.053 19.4475 212.445 19.4055V20.5815C212.025 20.5255 211.647 20.5115 210.989 20.5115H207.657V20.9595H211.703C212.417 20.9595 212.907 20.9315 213.313 20.8755V22.1775C212.837 22.1215 212.291 22.0935 211.703 22.0935H202.267C201.651 22.0935 201.133 22.1215 200.643 22.1775V20.8755C201.049 20.9315 201.581 20.9595 202.267 20.9595H206.201V20.5115H203.037C202.379 20.5115 201.987 20.5255 201.581 20.5815V19.4055C201.987 19.4475 202.337 19.4615 203.037 19.4615H206.201V19.0275H203.317C202.687 19.0275 202.323 19.0415 201.931 19.0835V17.9355C202.309 17.9775 202.673 17.9915 203.317 17.9915H206.201V17.5295H202.253C201.539 17.5295 201.119 17.5435 200.643 17.5995V16.3815C201.077 16.4235 201.553 16.4515 202.253 16.4515H206.201ZM210.541 17.5295H207.657V17.9915H210.541V17.5295ZM210.541 16.4515V16.0035H207.657V16.4515H210.541ZM202.295 25.6775V23.8575C202.295 23.0595 202.281 22.8215 202.253 22.4855C202.603 22.5135 202.813 22.5135 203.737 22.5135H210.275C211.213 22.5135 211.451 22.5135 211.773 22.4855C211.731 22.7795 211.717 23.1015 211.717 23.8575V25.6635C211.717 26.3915 211.745 26.7975 211.801 27.1195H210.247V26.6435H203.751V27.1195H202.225C202.267 26.7135 202.295 26.2935 202.295 25.6775ZM203.751 23.5635V24.0815H210.247V23.5635H203.751ZM203.751 25.0475V25.5655H210.247V25.0475H203.751ZM215.539 17.5295L215.567 15.9335C216.141 16.0595 217.037 16.1155 218.815 16.1155C219.193 15.2755 219.319 14.8555 219.375 14.3795L221.209 14.5755C221.125 14.7155 221.125 14.7155 220.649 15.8355C220.579 15.9895 220.551 16.0315 220.523 16.0875C220.635 16.0735 220.635 16.0735 221.405 16.0315C223.029 15.9335 224.303 15.7795 225.073 15.5555L225.171 17.1515C224.779 17.1795 224.779 17.1795 224.065 17.2635C223.043 17.3895 221.265 17.5015 219.851 17.5435C219.445 18.3415 219.053 18.9015 218.563 19.4055L218.577 19.4335C218.675 19.3635 218.675 19.3635 218.857 19.2235C219.375 18.8315 220.117 18.5935 220.831 18.5935C221.923 18.5935 222.609 19.1115 222.833 20.0775C223.911 19.6855 224.625 19.4335 224.975 19.3215C225.731 19.0555 225.787 19.0415 226.011 18.9015L226.669 20.5115C226.277 20.5675 225.857 20.6795 225.115 20.8895C224.919 20.9455 224.219 21.1835 223.015 21.6035V21.7575C223.029 22.1215 223.029 22.1215 223.029 22.3175C223.029 22.4575 223.029 22.6955 223.029 22.8775C223.015 23.1155 223.015 23.2415 223.015 23.3395C223.015 23.6475 223.029 23.8435 223.057 24.0815L221.433 24.1235C221.489 23.8715 221.517 23.1575 221.517 22.4995C221.517 22.3035 221.517 22.3035 221.517 22.1635C220.831 22.4855 220.467 22.6815 220.173 22.8915C219.683 23.2555 219.445 23.6335 219.445 24.0395C219.445 24.7675 220.117 25.0615 221.811 25.0615C223.491 25.0615 224.933 24.8515 225.927 24.4735L226.067 26.2795C225.829 26.2795 225.759 26.2935 225.423 26.3355C224.415 26.4895 223.071 26.5875 221.839 26.5875C220.355 26.5875 219.431 26.4195 218.717 25.9995C218.073 25.6355 217.695 24.9635 217.695 24.1935C217.695 23.6195 217.863 23.1715 218.311 22.6395C218.941 21.8555 219.739 21.3235 221.321 20.6655C221.251 20.1475 220.971 19.9095 220.467 19.9095C219.655 19.9095 218.675 20.3995 217.597 21.3515C217.009 21.8415 216.687 22.1915 216.379 22.6255L215.105 21.3655C215.469 21.0855 215.875 20.6935 216.365 20.1195C216.911 19.4755 217.765 18.2575 218.045 17.7255C218.101 17.6135 218.101 17.6135 218.157 17.5435C218.101 17.5435 217.919 17.5575 217.919 17.5575C217.695 17.5575 216.463 17.5295 216.155 17.5295C215.889 17.5155 215.889 17.5155 215.763 17.5155C215.721 17.5155 215.637 17.5155 215.539 17.5295ZM235.923 17.8655H234.145C233.669 17.8655 233.291 17.8935 232.885 17.9355V16.4515C233.277 16.4935 233.697 16.5215 234.159 16.5215H234.705C234.411 15.7795 234.215 15.4155 233.711 14.7155L235.055 14.0855C235.475 14.6735 235.783 15.2195 236.091 15.9195L234.873 16.5215H237.127C237.631 15.6955 237.981 14.9395 238.261 14.0995L239.773 14.6035C239.605 14.8975 239.605 14.8975 239.283 15.5275C239.087 15.8915 238.933 16.1715 238.723 16.5215H239.535C240.039 16.5215 240.375 16.5075 240.767 16.4515V17.9355C240.305 17.8935 239.885 17.8655 239.423 17.8655H237.421C237.421 18.6355 237.407 18.9435 237.351 19.4615H240.011C240.529 19.4615 240.893 19.4475 241.271 19.3915V20.9035C240.809 20.8615 240.375 20.8335 239.885 20.8335H237.617C237.925 21.3795 238.289 21.8135 238.793 22.2195C239.493 22.7795 240.095 23.0735 241.369 23.4655C241.019 23.9695 240.809 24.4035 240.669 24.9495C239.367 24.4875 238.793 24.1655 238.023 23.4935C237.449 23.0035 237.071 22.5415 236.707 21.9255C236.357 22.6535 236.007 23.1155 235.419 23.6195C234.803 24.1655 234.299 24.4875 233.389 24.9075C233.137 24.3615 232.829 23.9415 232.409 23.5775C233.403 23.1995 233.977 22.8915 234.453 22.4715C234.943 22.0515 235.307 21.5055 235.559 20.8335H233.655C233.193 20.8335 232.731 20.8615 232.353 20.9035V19.3915C232.745 19.4335 233.179 19.4615 233.655 19.4615H235.853C235.909 18.9715 235.909 18.8175 235.923 17.8655ZM228.769 15.4575L229.889 14.4215C230.925 15.3455 231.149 15.5835 232.311 16.9415L231.149 18.0755C230.295 16.9415 229.805 16.3815 228.769 15.4575ZM228.671 21.0295V19.5175C229.035 19.5735 229.259 19.5875 229.791 19.5875H230.841C231.205 19.5875 231.583 19.5735 231.905 19.5315C231.863 19.9515 231.849 20.3015 231.849 21.0435V23.9695C232.129 24.4455 232.283 24.6275 232.647 24.8655C233.291 25.2855 234.033 25.3975 236.133 25.3975C238.527 25.3975 240.305 25.2995 241.747 25.0895C241.481 25.8455 241.439 25.9855 241.327 26.7415C240.781 26.7555 240.781 26.7555 239.773 26.7975C239.353 26.8115 237.295 26.8395 236.581 26.8395C234.873 26.8395 233.697 26.7555 233.081 26.5875C232.213 26.3495 231.779 26.0415 231.121 25.2435C230.533 25.8035 230.099 26.1675 229.497 26.5875C229.399 26.6575 229.161 26.8395 229.035 26.9515L228.363 25.3555C228.979 25.0895 229.693 24.5995 230.379 23.9695V20.9595H229.609C229.245 20.9595 229.021 20.9735 228.671 21.0295ZM245.191 14.4635L246.969 14.5615C246.801 15.0375 246.731 15.4015 246.465 17.2635C246.367 17.8515 246.311 18.3275 246.283 18.6635H246.325C246.353 18.5795 246.353 18.5795 246.409 18.3555C246.549 17.8655 246.913 17.1795 247.291 16.6895C248.061 15.7375 248.929 15.2615 249.951 15.2615C250.903 15.2615 251.743 15.7095 252.345 16.5215C253.045 17.4595 253.353 18.5935 253.353 20.2455C253.353 22.9475 252.093 24.9635 249.741 25.9995C249.027 26.3215 248.047 26.6015 246.997 26.7835C246.717 25.9855 246.563 25.6775 246.171 25.1315C247.571 24.9775 248.383 24.7675 249.237 24.3335C250.861 23.5075 251.603 22.1775 251.603 20.0495C251.603 18.0335 250.931 16.9135 249.727 16.9135C249.195 16.9135 248.705 17.1515 248.215 17.6555C247.123 18.7895 246.451 20.5115 246.451 22.1775C246.451 22.2475 246.451 22.3455 246.451 22.4715L244.771 22.4995C244.785 22.4155 244.785 22.3455 244.785 22.3175C244.785 22.2615 244.785 22.1775 244.785 22.0515C244.771 21.6455 244.743 20.6095 244.743 20.3295C244.743 19.1955 244.827 17.6415 244.939 16.6755L245.149 14.9395C245.177 14.7015 245.191 14.6455 245.191 14.4635ZM268.585 24.5155L267.633 26.1535C267.017 25.4675 266.051 24.7535 265.043 24.2355C264.735 24.0675 264.623 24.0255 264.287 23.8855C264.287 23.9555 264.287 24.0115 264.287 24.0395C264.287 24.9215 264.035 25.5235 263.503 25.9295C262.971 26.3355 262.215 26.5315 261.193 26.5315C259.149 26.5315 257.973 25.7335 257.973 24.3475C257.973 22.8215 259.359 21.9255 261.711 21.9255C262.047 21.9255 262.285 21.9395 262.649 21.9815C262.649 21.8135 262.649 21.8135 262.635 21.6455C262.635 21.5755 262.635 21.4775 262.635 21.3375C262.621 21.1415 262.621 21.1415 262.607 20.5815C261.935 20.5955 261.501 20.6095 261.207 20.6095C260.353 20.6095 259.835 20.5955 258.673 20.5115C258.491 20.4975 258.351 20.4975 258.141 20.4975L258.169 18.9855C258.771 19.1255 260.101 19.2235 261.431 19.2235C261.711 19.2235 262.187 19.2095 262.579 19.1955C262.579 19.0695 262.579 18.5935 262.565 17.7955C262.117 17.8095 261.893 17.8095 261.683 17.8095C260.997 17.8095 259.191 17.7395 258.253 17.6695C258.099 17.6555 257.987 17.6555 257.945 17.6555C257.889 17.6555 257.819 17.6555 257.721 17.6555L257.735 16.1015C258.449 16.2835 259.891 16.3955 261.501 16.3955C261.725 16.3955 262.201 16.3815 262.551 16.3675C262.537 14.9675 262.537 14.9535 262.481 14.6035H264.259C264.189 14.9815 264.175 15.1635 264.161 16.3115C266.065 16.1995 267.283 16.0455 268.193 15.7795L268.263 17.3335C267.955 17.3475 267.955 17.3475 267.157 17.4595C265.925 17.6275 265.379 17.6695 264.147 17.7395C264.161 18.0895 264.161 18.2575 264.175 19.1255C264.875 19.0835 264.875 19.0835 266.163 18.9435C267.045 18.8315 267.269 18.8035 267.899 18.6355L267.941 20.1755C267.703 20.1895 267.353 20.2315 267.031 20.2735C266.821 20.3015 266.191 20.3715 265.141 20.4695C264.945 20.4835 264.735 20.4975 264.189 20.5255C264.231 21.8835 264.231 21.8835 264.245 22.2195C265.477 22.5835 266.569 23.1295 268.081 24.1935C268.319 24.3475 268.389 24.4035 268.585 24.5155ZM262.677 23.4375C262.215 23.3395 261.935 23.3115 261.515 23.3115C260.381 23.3115 259.695 23.6755 259.695 24.2775C259.695 24.7955 260.297 25.1175 261.291 25.1175C261.879 25.1175 262.313 24.9495 262.509 24.6695C262.621 24.4875 262.677 24.1935 262.677 23.7735C262.677 23.7175 262.677 23.4375 262.677 23.4375ZM279.029 18.5515L279.015 19.7555C279.015 19.8115 279.029 19.9235 279.029 20.0915C279.337 20.7355 279.477 21.3095 279.477 22.0655C279.477 23.5915 278.749 24.9075 277.391 25.8455C276.803 26.2515 276.159 26.5455 274.857 26.9935C274.465 26.1255 274.325 25.9155 273.863 25.4115C275.011 25.1875 275.585 24.9915 276.243 24.5995C277.195 24.0535 277.755 23.3395 277.867 22.5555C277.461 23.1995 276.733 23.5495 275.809 23.5495C275.165 23.5495 274.661 23.3955 274.185 23.0455C273.527 22.5695 273.219 21.9535 273.219 21.1555C273.219 19.6715 274.381 18.6075 276.005 18.6075C276.607 18.6075 277.139 18.7615 277.461 19.0275C277.447 18.9575 277.447 18.9575 277.447 18.8595C277.433 18.8315 277.433 18.0475 277.433 17.6695C275.431 17.7255 274.115 17.7675 273.499 17.8095C271.385 17.9635 271.385 17.9635 271.007 18.0195L270.951 16.3535C271.259 16.3815 271.385 16.3815 271.637 16.3815C271.987 16.3815 272.211 16.3815 274.017 16.3115C274.927 16.2835 275.067 16.2835 276.215 16.2555C276.677 16.2415 276.677 16.2415 277.405 16.2135C277.391 14.8835 277.391 14.8835 277.321 14.5195L279.085 14.5055C279.029 14.9395 279.029 14.9675 279.015 16.1715C281.451 16.1575 282.543 16.1295 283.061 16.0735L283.075 17.6835C282.557 17.6415 281.885 17.6135 280.723 17.6135C280.387 17.6135 280.135 17.6135 279.029 17.6415V18.5515ZM277.419 20.8615C277.419 20.2735 276.929 19.8955 276.159 19.8955C275.445 19.8955 274.857 20.3995 274.857 21.0155C274.857 21.6595 275.347 22.1215 276.047 22.1215C276.845 22.1215 277.419 21.5895 277.419 20.8615Z" fill="#20AEE5"/>
<path d="M16.0508 33L1.05078 12.5" stroke="#20AEE5" stroke-width="2"/>
<path d="M300 33L315 12.5" stroke="#20AEE5" stroke-width="2"/>
</g>
<defs>
<clipPath id="clip0_526_11213">
<rect width="316" height="197" fill="white"/>
</clipPath>
<clipPath id="clip1_526_11213">
<rect width="141.534" height="152.741" fill="white" transform="translate(103.129 44)"/>
</clipPath>
</defs>
</svg>
