<svg width="306" height="260" viewBox="0 0 306 260" fill="none" xmlns="http://www.w3.org/2000/svg">
<mask id="mask0_2785_32036" style="mask-type:alpha" maskUnits="userSpaceOnUse" x="0" y="0" width="306" height="260">
<rect width="306" height="260" fill="#C4C4C4"/>
</mask>
<g mask="url(#mask0_2785_32036)">
</g>
<g clip-path="url(#clip0_2785_32036)">
<rect x="35.334" y="4" width="115.641" height="166.592" fill="white" stroke="#20AEE5" stroke-width="2" stroke-linejoin="round"/>
<rect x="47.0012" y="15.5615" width="92.3072" height="9.56061" stroke="#20AEE5" stroke-width="2" stroke-linejoin="round"/>
<rect x="47.0012" y="136.948" width="92.3072" height="22.0846" stroke="#20AEE5" stroke-width="2" stroke-linejoin="round"/>
<path d="M46.0012 38.6443L73.2239 38.6443" stroke="#20AEE5" stroke-width="2" stroke-linejoin="round"/>
<path d="M114.057 38.6443H140.308" stroke="#20AEE5" stroke-width="2" stroke-linejoin="round"/>
<path d="M114.057 46.3521H140.308" stroke="#20AEE5" stroke-width="2" stroke-linejoin="round"/>
<path d="M93.6411 115.716L140.309 115.716" stroke="#20AEE5" stroke-width="2" stroke-linejoin="round"/>
<path d="M46.0012 57.9126L140.308 57.9126" stroke="#20AEE5" stroke-width="2" stroke-linejoin="round"/>
<path d="M46.0012 69.4729L140.308 69.4729" stroke="#20AEE5" stroke-width="2" stroke-linejoin="round"/>
<path d="M46.0012 81.0344L140.308 81.0344" stroke="#20AEE5" stroke-width="2" stroke-linejoin="round"/>
<path d="M46.0012 92.595L140.308 92.595" stroke="#20AEE5" stroke-width="2" stroke-linejoin="round"/>
<path d="M84.9739 203.665C82.7682 209.143 68.1243 229.991 61.0781 239.731L114.844 246.122C127.343 234.435 144.407 212.796 151.147 203.665H171.366V193.621V108.707H156.661H151.147H144.254C143.794 108.555 142.232 108.342 139.659 108.707C137.085 109.072 135.523 110.381 135.063 110.99L130.468 115.555L126.332 119.664C124.034 121.338 118.796 125.781 116.222 130.164C112.178 137.468 107.491 141.425 105.653 142.49C104.581 143.251 101.885 144.955 99.679 145.686C96.9218 146.599 95.0837 147.969 92.786 152.99C90.9479 157.008 91.4074 166.229 91.4074 170.795L90.9479 180.838V186.317C90.9479 189.969 89.5693 192.556 89.1097 193.621L87.7311 197.73L84.9739 203.665Z" fill="white"/>
<path d="M61.0781 239.731C68.1243 229.991 82.7682 209.143 84.9739 203.665L87.7311 197.73L89.1097 193.621C89.5693 192.556 90.9479 189.969 90.9479 186.317V180.838L91.4074 170.795C91.4074 166.229 90.9479 157.008 92.786 152.99C95.0837 147.969 96.9218 146.599 99.679 145.686C101.885 144.955 104.581 143.251 105.653 142.49C107.491 141.425 112.178 137.468 116.222 130.164C118.796 125.781 124.034 121.338 126.332 119.664L130.468 115.555L135.063 110.99C135.523 110.381 137.085 109.072 139.659 108.707C142.232 108.342 143.794 108.555 144.254 108.707H151.147H156.661H171.366V193.621V203.665H151.147C144.407 212.796 127.343 234.435 114.844 246.122" stroke="#20AEE5" stroke-width="2" stroke-linecap="round" stroke-linejoin="round"/>
<rect x="132.153" y="22.697" width="88.1205" height="182.14" rx="14" fill="white" stroke="#20AEE5" stroke-width="2"/>
<rect x="136.284" y="26.79" width="79.8592" height="173.954" rx="10" fill="white" stroke="#20AEE5" stroke-width="2"/>
<rect x="136.284" y="26.7905" width="79.8592" height="173.954" rx="10" fill="white"/>
<rect x="145.063" y="63.0911" width="62.3241" height="91.7956" stroke="#20AEE5" stroke-width="2" stroke-linejoin="round"/>
<rect x="151.685" y="69.6567" width="49.0809" height="7.37955" stroke="#20AEE5" stroke-width="2" stroke-linejoin="round"/>
<rect x="151.719" y="138.017" width="49.0233" height="11.0306" stroke="#20AEE5" stroke-width="2" stroke-linejoin="round"/>
<path d="M150.719 84.3721L165.447 84.3721" stroke="#20AEE5" stroke-width="2" stroke-linejoin="round"/>
<path d="M187.54 84.3721H201.742" stroke="#20AEE5" stroke-width="2" stroke-linejoin="round"/>
<path d="M187.54 88.5425H201.742" stroke="#20AEE5" stroke-width="2" stroke-linejoin="round"/>
<path d="M176.493 126.07L201.742 126.07" stroke="#20AEE5" stroke-width="2" stroke-linejoin="round"/>
<path d="M150.719 94.7969L201.742 94.7969" stroke="#20AEE5" stroke-width="2" stroke-linejoin="round"/>
<path d="M150.719 101.052L201.742 101.052" stroke="#20AEE5" stroke-width="2" stroke-linejoin="round"/>
<path d="M150.719 107.307L201.742 107.307" stroke="#20AEE5" stroke-width="2" stroke-linejoin="round"/>
<path d="M150.719 113.562L201.742 113.562" stroke="#20AEE5" stroke-width="2" stroke-linejoin="round"/>
<rect x="136.284" y="26.7905" width="79.8592" height="173.954" rx="10" stroke="#20AEE5" stroke-width="2"/>
<path d="M156.937 26.7905H196.867V29.6122C196.867 31.8214 195.076 33.6122 192.867 33.6122H160.937C158.728 33.6122 156.937 31.8214 156.937 29.6122V26.7905Z" stroke="#20AEE5" stroke-width="2"/>
<rect x="170.706" y="29.5183" width="13.0804" height="1.36435" rx="0.682173" fill="#20AEE5"/>
<rect x="185.163" y="29.5183" width="1.37689" height="1.36435" rx="0.682173" fill="#20AEE5"/>
<path d="M188.34 182.17C188.34 188.316 183.31 193.313 177.086 193.313C170.862 193.313 165.832 188.316 165.832 182.17C165.832 176.025 170.862 171.028 177.086 171.028C183.31 171.028 188.34 176.025 188.34 182.17Z" fill="white" stroke="#20AEE5" stroke-width="2"/>
<mask id="mask1_2785_32036" style="mask-type:alpha" maskUnits="userSpaceOnUse" x="62" y="170" width="217" height="107">
<rect x="62.7122" y="170.028" width="215.675" height="106.855" fill="#C4C4C4"/>
</mask>
<g mask="url(#mask1_2785_32036)">
<path d="M279.203 303.153L250.735 318.896L239.24 297.838L210.772 282.911L193.154 241.967L224.397 225.36L218.614 217.423C218.27 213.67 221.049 212.732 222.481 212.732C225.643 212.237 229.939 215.652 234.083 220.211L234.514 219.982L234.943 219.56C236.662 218.195 238.381 218.277 239.24 218.277C245.686 219.13 256.858 232.355 262.874 246.003C268.89 259.651 270.609 277.99 270.609 285.24C270.609 291.041 271.182 293.06 271.469 293.344C271.325 292.917 271.297 292.662 272.328 295.05C273.359 297.438 277.341 301.447 279.203 303.153Z" fill="white"/>
<path d="M210.02 211.879C217.239 212.561 228.211 228.37 232.794 236.189L219.796 245.806L203.574 216.997C204.262 212.561 208.158 211.737 210.02 211.879Z" fill="white"/>
<path d="M197.988 207.187L216.036 239.175L204.434 257.941L193.691 233.204L180.8 203.775L176.502 195.672C174.439 191.236 173.924 187 173.924 185.436C173.637 184.441 173.752 182.109 176.502 180.745C179.94 179.38 185.096 185.578 187.245 188.848L193.691 199.51L197.988 207.187Z" fill="white"/>
<path d="M187.245 228.939C189.651 228.598 192.545 231.925 193.691 233.631L207.764 265.851L241.711 291.634L257.181 315.325L249.124 319.783L248.264 318.077C246.975 316.229 244.139 311.936 243.108 309.547C241.819 306.562 237.951 303.15 236.232 301.87C234.857 300.847 230.789 298.6 228.927 297.605C227.065 296.468 220.333 293.34 216.466 291.634C209.698 288.649 206.153 284.81 204.004 282.251C203.288 281.114 201.512 278.413 200.137 276.707C198.418 274.574 197.558 272.442 195.84 269.883C193.089 265.788 191.829 261.069 191.542 259.22L190.683 256.235C189.251 250.548 186.214 238.663 185.526 236.616L184.667 232.351C184.524 231.356 184.839 229.28 187.245 228.939Z" fill="white"/>
<path d="M279.203 303.153C277.341 301.447 273.359 297.438 272.328 295.05C271.297 292.662 271.325 292.917 271.469 293.344C271.182 293.06 270.609 291.041 270.609 285.24C270.609 277.99 268.89 259.651 262.874 246.003C256.858 232.355 245.686 219.13 239.24 218.277C238.381 218.277 236.662 218.195 234.943 219.56L234.514 219.982M245.256 235.337C240.386 227.375 229.013 211.709 222.482 212.732C221.049 212.732 218.27 213.67 218.614 217.423" stroke="#20AEE5" stroke-width="2" stroke-linecap="round" stroke-linejoin="round"/>
<path d="M232.794 236.189C228.211 228.37 217.239 212.561 210.02 211.879C208.158 211.737 204.262 212.561 203.574 216.997M216.036 239.175L197.988 207.187L193.691 199.51L187.245 188.848C185.096 185.578 179.94 179.38 176.502 180.745C173.752 182.109 173.637 184.441 173.924 185.436C173.924 187 174.439 191.236 176.502 195.672L180.8 203.775L193.691 233.204L204.434 257.941" stroke="#20AEE5" stroke-width="2" stroke-linecap="round" stroke-linejoin="round"/>
<path d="M193.691 233.631C192.545 231.925 189.651 228.598 187.245 228.939C184.839 229.28 184.524 231.356 184.667 232.351L185.526 236.616C186.214 238.663 189.251 250.548 190.683 256.235L191.542 259.22C191.829 261.069 193.089 265.788 195.84 269.883C197.558 272.442 198.418 274.574 200.137 276.707C201.512 278.413 203.288 281.114 204.004 282.251C206.153 284.81 209.698 288.649 216.466 291.634C220.333 293.34 227.065 296.468 228.927 297.605C230.789 298.6 234.857 300.847 236.232 301.87C237.951 303.15 241.819 306.562 243.108 309.547C244.139 311.936 246.975 316.229 248.264 318.077L249.124 319.783" stroke="#20AEE5" stroke-width="2" stroke-linecap="round" stroke-linejoin="round"/>
</g>
<path d="M124.191 134.834L110.912 141.608L114.896 161.932L123.306 154.706C124.633 153.351 128.174 149.738 130.388 149.738H131.716H141.896C145.083 149.738 148.24 147.931 149.421 147.028L152.519 145.222C153.552 144.469 156.06 142.512 157.831 140.705C159.601 138.898 159.159 136.038 158.716 134.834C158.126 133.78 156.414 131.582 154.29 131.22C152.165 130.859 148.978 132.575 147.65 133.479C145.88 134.382 141.453 135.918 137.912 134.834C131.184 133.027 125.961 134.081 124.191 134.834Z" fill="white"/>
<path d="M110.912 141.608L124.191 134.834C125.961 134.081 131.184 133.027 137.912 134.834C141.453 135.918 145.88 134.382 147.65 133.479C148.978 132.575 152.165 130.859 154.29 131.22C156.414 131.582 158.126 133.78 158.716 134.834C159.159 136.038 159.601 138.898 157.831 140.705C156.06 142.512 153.552 144.469 152.519 145.222L149.421 147.028C148.24 147.931 145.083 149.738 141.896 149.738H131.716H130.388C128.174 149.738 124.633 153.351 123.306 154.706L114.896 161.932" stroke="#20AEE5" stroke-width="2" stroke-linecap="round" stroke-linejoin="round"/>
</g>
<defs>
<clipPath id="clip0_2785_32036">
<rect width="239.324" height="257" fill="white" transform="translate(34.334 3)"/>
</clipPath>
</defs>
</svg>
