<svg width="10" height="18" viewBox="0 0 10 18" fill="none" xmlns="http://www.w3.org/2000/svg">
<g id="Arrow_Right" clip-path="url(#clip0_546_1225)">
<path id="Arrow_Right_2" fill-rule="evenodd" clip-rule="evenodd" d="M2.19235 0.388126L9.625 8.04772C9.87029 8.30052 10 8.63669 10 8.99735C9.99037 9.36132 9.87029 9.69949 9.625 9.95195L2.19235 17.6115C1.94963 17.862 1.62696 18 1.28374 18C0.94084 17.9997 0.61817 17.862 0.375766 17.6115C-0.125416 17.0957 -0.125095 16.2553 0.375766 15.7391L6.91521 8.99967L0.375766 2.26026C-0.125095 1.74408 -0.125095 0.903971 0.375444 0.388126C0.61817 0.137648 0.94084 0 1.28374 0C1.62696 0 1.94963 0.137648 2.19235 0.388126Z" fill="#20AEE5"/>
</g>
<defs>
<clipPath id="clip0_546_1225">
<rect width="10" height="18" fill="white"/>
</clipPath>
</defs>
</svg>
