<svg width="78" height="78" viewBox="0 0 78 78" fill="none" xmlns="http://www.w3.org/2000/svg"><g clip-path="url(#a)"><path d="M26.831 27.704h-10.25a1.941 1.941 0 0 1-1.304-.579 1.86 1.86 0 0 1-.533-1.3c0-.485.19-.951.533-1.302.342-.35.81-.557 1.304-.579h10.25c.495.022.962.23 1.304.58.342.35.533.816.533 1.3 0 .485-.19.95-.533 1.301-.342.35-.81.558-1.304.58ZM26.831 35.239h-10.25c-.26.01-.518-.03-.762-.119a1.929 1.929 0 0 1-.652-.401 1.848 1.848 0 0 1 0-2.72 1.96 1.96 0 0 1 1.414-.52h10.25a1.94 1.94 0 0 1 1.304.579c.342.35.533.816.533 1.3 0 .485-.19.951-.533 1.302a1.94 1.94 0 0 1-1.304.579ZM26.831 42.762h-10.25a1.941 1.941 0 0 1-1.304-.58 1.86 1.86 0 0 1-.533-1.3c0-.485.19-.95.533-1.3a1.94 1.94 0 0 1 1.304-.58h10.25a1.94 1.94 0 0 1 1.304.58c.342.35.533.815.533 1.3 0 .485-.19.95-.533 1.3-.342.35-.81.558-1.304.58Z"/><path d="M39 58.448a1.96 1.96 0 0 1-.687-.122c-10.066-3.745-19.923-3.856-29.275-.33a4.292 4.292 0 0 1-3.954-.48 4.47 4.47 0 0 1-1.446-1.595 4.361 4.361 0 0 1-.518-2.072v-35.55a6.849 6.849 0 0 1 1.455-4.179 7.101 7.101 0 0 1 3.735-2.475c8.131-2.237 25.63-2.218 31.8 1.978.255.174.464.406.608.675.144.27.22.57.22.874v31.963a1.845 1.845 0 0 1-.488 1.45 1.957 1.957 0 0 1-2.85 0 1.843 1.843 0 0 1-.488-1.45V16.218c-5.594-2.828-20.26-3.02-27.749-.961-.685.18-1.29.576-1.724 1.125a3.137 3.137 0 0 0-.678 1.917V53.86a.727.727 0 0 0 .31.577.412.412 0 0 0 .378.07c10.054-3.79 20.595-3.76 31.347.081 10.753-3.84 21.283-3.87 31.348-.081a.414.414 0 0 0 .378-.07.677.677 0 0 0 .31-.577V18.3a3.137 3.137 0 0 0-.674-1.906 3.252 3.252 0 0 0-1.71-1.126c-4.838-1.331-13.18-1.73-19.824-.961a1.95 1.95 0 0 1-1.415-.392 1.852 1.852 0 0 1-.318-2.64 1.931 1.931 0 0 1 1.283-.702c7.176-.836 15.969-.4 21.313 1.072a7.1 7.1 0 0 1 3.737 2.475 6.848 6.848 0 0 1 1.456 4.18v35.56a4.405 4.405 0 0 1-.525 2.077 4.513 4.513 0 0 1-1.45 1.602 4.33 4.33 0 0 1-3.954.48c-9.352-3.527-19.21-3.416-29.275.33a2.008 2.008 0 0 1-.676.099ZM41.58 67.864h-5.133a4.563 4.563 0 0 1-2.304-.625 4.438 4.438 0 0 1-1.65-1.693.568.568 0 0 0-.476-.192H6.96a1.941 1.941 0 0 1-1.304-.58 1.86 1.86 0 0 1-.533-1.3c0-.485.191-.95.533-1.301.343-.35.81-.558 1.304-.58h25.056a4.422 4.422 0 0 1 2.243.566c.682.383 1.244.94 1.628 1.612a.632.632 0 0 0 .559.329h5.133a.632.632 0 0 0 .559-.329 4.317 4.317 0 0 1 1.628-1.612 4.437 4.437 0 0 1 2.243-.569h25.056a1.961 1.961 0 0 1 1.414.52 1.848 1.848 0 0 1 0 2.72 1.931 1.931 0 0 1-1.414.52H46.01a.608.608 0 0 0-.491.192 4.4 4.4 0 0 1-1.64 1.697c-.694.41-1.489.625-2.3.625Z"/></g><defs><clipPath id="a"><path fill="#fff" transform="translate(3.12 10.14)" d="M0 0h71.76v57.72H0z"/></clipPath></defs></svg>
