<svg width="37" height="36" viewBox="0 0 37 36" fill="none" xmlns="http://www.w3.org/2000/svg"><path fill-rule="evenodd" clip-rule="evenodd" d="M23.277 7.003c.78.116 2.918.789 4.613 2.484 1.695 1.694 2.367 3.833 2.483 4.613a.9.9 0 0 0 1.78-.265c-.16-1.085-.972-3.603-2.99-5.621-2.018-2.018-4.537-2.83-5.621-2.991a.9.9 0 0 0-.265 1.78Zm1.043 6.054c-1.03-1.03-2.305-1.46-2.734-1.536A.9.9 0 0 1 21.9 9.75c.728.13 2.359.702 3.692 2.035 1.333 1.333 1.905 2.964 2.035 3.692a.9.9 0 0 1-1.773.315c-.076-.43-.505-1.705-1.535-2.734ZM9.476 3.707c.718.004 1.285.385 1.654.754l4.542 4.542a2.92 2.92 0 0 1-.017 4.146l-.002.002-1.792 1.755c.026.135.1.344.242.63.298.598.774 1.296 1.225 1.944 1.61 2.07 2.052 2.51 3.768 3.998.732.548 1.641 1.127 2.41 1.506.394.195.71.316.925.367l.014.003 1.725-1.724a2.92 2.92 0 0 1 4.128 0l4.59 4.589c.363.364.751.932.746 1.658-.012 1.649-1.131 2.982-2.396 3.864-1.284.895-2.918 1.474-4.368 1.54h-.041c-2.897 0-9.019-1.743-15.155-7.88-6.105-6.104-7.109-10.02-7.268-10.813a.9.9 0 1 1 1.765-.352c.08.396.885 4.002 6.776 9.893 5.842 5.843 11.509 7.344 13.861 7.353 1.077-.054 2.377-.504 3.401-1.218 1.052-.733 1.62-1.598 1.625-2.4 0-.054-.033-.186-.22-.373l-4.588-4.588a1.12 1.12 0 0 0-1.583 0l-1.905 1.904-.004.004-.004.004a1.307 1.307 0 0 1-.832.354 2.289 2.289 0 0 1-.678-.066c-.41-.096-.867-.286-1.311-.505-.898-.443-1.914-1.095-2.72-1.7l-.025-.018-.023-.021c-1.83-1.585-2.346-2.104-4.049-4.293l-.014-.018-.013-.02c-.443-.634-1.004-1.447-1.373-2.19-.183-.367-.351-.779-.414-1.181-.061-.395-.046-.97.397-1.413l.004-.003.003-.004 1.91-1.871h.001a1.12 1.12 0 0 0 .006-1.59L9.857 5.734c-.186-.186-.325-.226-.391-.227-.845-.005-1.634.587-2.324 1.697-.674 1.083-1.111 2.449-1.299 3.47a.9.9 0 0 1-1.77-.326c.217-1.18.718-2.773 1.54-4.095.807-1.296 2.072-2.556 3.863-2.546Zm4.375 11.112v.005-.005Z"/><path fill-rule="evenodd" clip-rule="evenodd" d="M23.277 7.003c.78.116 2.918.789 4.613 2.484 1.695 1.694 2.367 3.833 2.483 4.613a.9.9 0 0 0 1.78-.265c-.16-1.085-.972-3.603-2.99-5.621-2.018-2.018-4.537-2.83-5.621-2.991a.9.9 0 0 0-.265 1.78Zm1.043 6.054c-1.03-1.03-2.305-1.46-2.734-1.536A.9.9 0 0 1 21.9 9.75c.728.13 2.359.702 3.692 2.035 1.333 1.333 1.905 2.964 2.035 3.692a.9.9 0 0 1-1.773.315c-.076-.43-.505-1.705-1.535-2.734ZM9.476 3.707c.718.004 1.285.385 1.654.754l4.542 4.542a2.92 2.92 0 0 1-.017 4.146l-.002.002-1.792 1.755c.026.135.1.344.242.63.298.598.774 1.296 1.225 1.944 1.61 2.07 2.052 2.51 3.768 3.998.732.548 1.641 1.127 2.41 1.506.394.195.71.316.925.367l.014.003 1.725-1.724a2.92 2.92 0 0 1 4.128 0l4.59 4.589c.363.364.751.932.746 1.658-.012 1.649-1.131 2.982-2.396 3.864-1.284.895-2.918 1.474-4.368 1.54h-.041c-2.897 0-9.019-1.743-15.155-7.88-6.105-6.104-7.109-10.02-7.268-10.813a.9.9 0 1 1 1.765-.352c.08.396.885 4.002 6.776 9.893 5.842 5.843 11.509 7.344 13.861 7.353 1.077-.054 2.377-.504 3.401-1.218 1.052-.733 1.62-1.598 1.625-2.4 0-.054-.033-.186-.22-.373l-4.588-4.588a1.12 1.12 0 0 0-1.583 0l-1.905 1.904-.004.004-.004.004a1.307 1.307 0 0 1-.832.354 2.289 2.289 0 0 1-.678-.066c-.41-.096-.867-.286-1.311-.505-.898-.443-1.914-1.095-2.72-1.7l-.025-.018-.023-.021c-1.83-1.585-2.346-2.104-4.049-4.293l-.014-.018-.013-.02c-.443-.634-1.004-1.447-1.373-2.19-.183-.367-.351-.779-.414-1.181-.061-.395-.046-.97.397-1.413l.004-.003.003-.004 1.91-1.871h.001a1.12 1.12 0 0 0 .006-1.59L9.857 5.734c-.186-.186-.325-.226-.391-.227-.845-.005-1.634.587-2.324 1.697-.674 1.083-1.111 2.449-1.299 3.47a.9.9 0 0 1-1.77-.326c.217-1.18.718-2.773 1.54-4.095.807-1.296 2.072-2.556 3.863-2.546Zm4.375 11.112v.005-.005Z" fill-opacity=".6"/></svg>