<svg width="24" height="24" viewBox="0 0 24 24" fill="none" xmlns="http://www.w3.org/2000/svg"><path d="M18.475 9.885a.89.89 0 1 0-.001-1.78.89.89 0 0 0 0 1.78ZM12.026 16.6a4.1 4.1 0 0 1-4.094-4.096 4.1 4.1 0 0 1 4.094-4.096 4.1 4.1 0 0 1 4.093 4.097 4.1 4.1 0 0 1-4.093 4.096Zm0-7.123A3.03 3.03 0 0 0 9 12.505a3.03 3.03 0 0 0 3.026 3.028 3.03 3.03 0 0 0 3.026-3.028 3.03 3.03 0 0 0-3.026-3.028Z" fill="#20AEE5"/><path d="M18.796 5.438h-2.767a.534.534 0 0 1-.495-.337h-.014c-.441-1.141-1.626-1.444-3.014-1.444h-.837c-1.388 0-2.573.303-3.015 1.444h-.006a.533.533 0 0 1-.495.337H6.296a.534.534 0 0 0 0 1.069c.025.003 2.252 0 2.252 0 .498 0 .93-.345 1.041-.83.076-.333.218-.951 2.08-.951h.836c1.862 0 2.004.618 2.08.95.112.486.543.83 1.04.83h3.17c1.178 0 2.136.96 2.136 2.138v8.193a2.139 2.139 0 0 1-2.135 2.137H5.256a2.139 2.139 0 0 1-2.136-2.137V8.644c0-.747.386-1.405.968-1.787l-.004-.005a.533.533 0 1 0-.69-.806 3.202 3.202 0 0 0-1.342 2.598v8.193a3.214 3.214 0 0 0 3.204 3.206h13.54A3.214 3.214 0 0 0 22 16.837V8.644a3.215 3.215 0 0 0-3.204-3.206Z" fill="#20AEE5"/></svg>