<svg width="13" height="10" viewBox="0 0 13 10" fill="none" xmlns="http://www.w3.org/2000/svg"><g clip-path="url(#a)"><path d="M11.993.5a1.037 1.037 0 0 0-.71.283L4.615 7.17l-2.898-2.78a1.029 1.029 0 0 0-.711-.281c-.267 0-.522.101-.711.281a.93.93 0 0 0 0 1.364l3.609 3.462a1.035 1.035 0 0 0 1.421 0l7.379-7.07a.952.952 0 0 0 .275-.494.928.928 0 0 0-.057-.557.975.975 0 0 0-.37-.433 1.038 1.038 0 0 0-.56-.163Z" fill="#20AEE5"/></g><defs><clipPath id="a"><path fill="#fff" transform="translate(0 .5)" d="M0 0h13v9H0z"/></clipPath></defs></svg>