<svg width="78" height="79" viewBox="0 0 78 79" fill="none" xmlns="http://www.w3.org/2000/svg">
<path d="M52.6988 38.8143C49.6265 38.8143 47.1252 36.3277 47.1252 33.2733C47.1252 30.215 49.6265 27.7284 52.6988 27.7284C55.7712 27.7284 58.2724 30.215 58.2724 33.2694C58.2764 36.3277 55.7751 38.8143 52.6988 38.8143ZM52.6988 28.8327C50.237 28.8327 48.236 30.822 48.236 33.2694C48.236 35.7168 50.237 37.7061 52.6988 37.7061C55.1607 37.7061 57.1616 35.7168 57.1616 33.2694C57.1616 30.8259 55.1607 28.8327 52.6988 28.8327Z" fill="#20AEE5" stroke="#20AEE5" stroke-width="2"/>
<path d="M58.655 49.2836H46.4443C45.4714 49.2836 44.6797 48.4965 44.6797 47.5293V45.0857C44.6797 43.0808 45.4241 41.4714 47.0982 39.8698C47.3188 39.6583 47.6693 39.6661 47.886 39.8854C48.0987 40.1047 48.0908 40.4572 47.8702 40.6686C46.4128 42.0627 45.7905 43.3862 45.7905 45.0897V47.5332C45.7905 47.8895 46.0819 48.1832 46.4443 48.1832H58.655C59.0134 48.1832 59.3089 47.8934 59.3089 47.5332V45.0897C59.3089 43.3823 58.6865 42.0588 57.2252 40.6647C57.0046 40.4532 56.9967 40.1047 57.2094 39.8815C57.4221 39.6622 57.7727 39.6544 57.9972 39.8659C59.6752 41.4675 60.4236 43.0769 60.4236 45.0857V47.5293C60.4196 48.4965 59.6279 49.2836 58.655 49.2836Z" fill="#20AEE5" stroke="#20AEE5" stroke-width="2"/>
<rect x="6.05835" y="17.1885" width="65.8835" height="44.4183" rx="5" stroke="#20AEE5" stroke-width="4"/>
<path d="M18.1748 32.2456H35.5923" stroke="#20AEE5" stroke-width="4" stroke-linecap="round"/>
<path d="M18.1748 39.774H35.5923" stroke="#20AEE5" stroke-width="4" stroke-linecap="round"/>
<path d="M18.1748 47.3026H35.5923" stroke="#20AEE5" stroke-width="4" stroke-linecap="round"/>
</svg>
