<svg width="33" height="16" viewBox="0 0 33 16" fill="none" xmlns="http://www.w3.org/2000/svg">
<path d="M0.5 2C0.5 0.895431 1.39543 0 2.5 0H30.5C31.6046 0 32.5 0.895431 32.5 2V14C32.5 15.1046 31.6046 16 30.5 16H2.5C1.39543 16 0.5 15.1046 0.5 14V2Z" fill="white"/>
<path d="M0.5 2C0.5 0.895431 1.39543 0 2.5 0H30.5C31.6046 0 32.5 0.895431 32.5 2V14C32.5 15.1046 31.6046 16 30.5 16H2.5C1.39543 16 0.5 15.1046 0.5 14V2Z" fill="black" fill-opacity="0.6"/>
<path d="M15.02 3.65C13.76 4.1 11.77 4.49 9.97 4.71C10.1 4.99 10.27 5.45 10.32 5.74C12.18 5.54 14.32 5.19 15.9 4.66L15.02 3.65ZM9.68 7.69V8.84H16.14V7.69H9.68ZM10.09 11.41V12.56H16.03V11.41H10.09ZM12.41 5.12V11.77H13.63V5.12H12.41ZM8.16 6.42V12.89H9.35V5.27L9.34 5.25L8.16 6.42ZM9.16 3.54C8.59 5.02 7.64 6.49 6.64 7.41C6.86 7.72 7.22 8.38 7.34 8.68C8.51 7.52 9.65 5.67 10.34 3.92L9.16 3.54ZM19.35 9.29V8.86H23.69V9.29H19.35ZM19.35 8.16V7.73H23.69V8.16H19.35ZM24.88 6.99H18.22V10.03H24.88V6.99ZM24.07 4.99L22.82 4.76C22.74 5.03 22.58 5.41 22.45 5.69L23.51 5.92C23.66 5.68 23.85 5.37 24.07 4.99ZM20.16 4.76L19.06 4.98C19.2 5.28 19.33 5.67 19.37 5.94L20.51 5.68C20.45 5.43 20.31 5.05 20.16 4.76ZM22.09 3.51H20.88V4.71H22.09V3.51ZM25.86 5.69H17.17V6.62H25.86V5.69ZM25.32 4.04H17.65V4.97H25.32V4.04ZM19.09 10.73L18.09 10.36C17.85 11.03 17.4 11.68 16.77 12.07L17.7 12.7C18.41 12.23 18.82 11.49 19.09 10.73ZM24.58 10.24L23.65 10.76C24.26 11.31 24.94 12.1 25.22 12.64L26.22 12.06C25.9 11.5 25.19 10.76 24.58 10.24ZM21.1 9.81L20.46 10.44C21.02 10.71 21.73 11.13 22.08 11.43L22.77 10.73C22.39 10.43 21.66 10.04 21.1 9.81ZM20.52 11.54V10.5H19.35V11.55C19.35 12.5 19.66 12.8 20.93 12.8C21.18 12.8 22.28 12.8 22.55 12.8C23.49 12.8 23.81 12.52 23.93 11.39C23.63 11.33 23.16 11.17 22.92 11.01C22.87 11.72 22.8 11.83 22.44 11.83C22.16 11.83 21.27 11.83 21.06 11.83C20.6 11.83 20.52 11.8 20.52 11.54Z" fill="white"/>
</svg>
