<svg width="91" height="90" viewBox="0 0 91 90" fill="none" xmlns="http://www.w3.org/2000/svg"><path fill-rule="evenodd" clip-rule="evenodd" d="M21.318 17.084c0-3.883 3.156-7.03 7.05-7.03h33.481c3.894 0 7.05 3.147 7.05 7.03v20.653a1.76 1.76 0 0 1-1.763 1.758 1.76 1.76 0 0 1-1.762-1.758V17.084a3.52 3.52 0 0 0-3.524-3.515H28.367a3.52 3.52 0 0 0-3.524 3.515v43.93h22.842c.97 0 1.757.783 1.757 1.748s-.787 1.747-1.757 1.747H24.834v4.806c0 1.93 1.574 3.495 3.515 3.495h26.367c.97 0 1.757.782 1.757 1.747 0 .965-.787 1.748-1.757 1.748H28.349c-3.883 0-7.03-3.13-7.03-6.99v-52.23Zm27.245 51.357c0 .965-.787 1.747-1.758 1.747-.97 0-1.758-.782-1.758-1.747 0-.965.788-1.748 1.758-1.748.971 0 1.758.783 1.758 1.748Z" fill="#20AEE5"/><path fill-rule="evenodd" clip-rule="evenodd" d="M74.423 57.559h1.427a7.975 7.975 0 0 1 5.552 2.244 7.614 7.614 0 0 1 2.319 5.416v6.521a4.562 4.562 0 0 1-1.383 3.263 4.78 4.78 0 0 1-3.34 1.352H64.57a4.78 4.78 0 0 1-3.34-1.352 4.562 4.562 0 0 1-1.383-3.263v-1.302c0-.654-.142-1.3-.417-1.895a4.623 4.623 0 0 0-1.178-1.56c-.702-.58-1.505-1.272-2.27-1.93-.413-.356-.814-.701-1.182-1.014a4.097 4.097 0 0 1-1.484-2.805 4.064 4.064 0 0 1 .98-3.009 4.255 4.255 0 0 1 2.87-1.45 4.288 4.288 0 0 1 3.08.958l2.204 1.272V49.13c0-1.212.492-2.374 1.37-3.23a4.73 4.73 0 0 1 3.305-1.338A4.73 4.73 0 0 1 70.43 45.9a4.516 4.516 0 0 1 1.369 3.23v5.865c0 .68.276 1.332.768 1.813.492.48 1.16.75 1.855.75Zm5.689 15.269a1.52 1.52 0 0 0 .46-1.088V65.22a4.562 4.562 0 0 0-1.382-3.263 4.779 4.779 0 0 0-3.34-1.352h-1.458a5.85 5.85 0 0 1-4.078-1.655 5.585 5.585 0 0 1-1.694-3.985V49.13c0-.396-.16-.775-.447-1.055a1.545 1.545 0 0 0-1.08-.437c-.404 0-.793.157-1.08.437-.286.28-.446.659-.446 1.055l.052 10.797c0 .476-.136.943-.392 1.348a2.602 2.602 0 0 1-1.058.945 2.676 2.676 0 0 1-2.747-.242l-2.897-1.671a1.61 1.61 0 0 1-.262-.185 1.063 1.063 0 0 0-.714-.266h-.063a1.066 1.066 0 0 0-.617.189c-.18.125-.316.302-.387.507a1.003 1.003 0 0 0-.009.632c.066.207.196.388.373.517.374.32.782.66 1.199 1.01.788.66 1.61 1.347 2.296 1.964a7.705 7.705 0 0 1 1.96 2.603c.459.993.695 2.07.695 3.16v1.302c0 .408.165.8.46 1.088.296.288.696.45 1.114.45h14.429c.417 0 .817-.162 1.113-.45Zm-15.9 5.465a1.55 1.55 0 1 0 0 3.102H79.83a1.55 1.55 0 0 0 0-3.102H64.212ZM45.11 47.275c5.816 0 10.53-4.687 10.53-10.468 0-5.782-4.714-10.469-10.53-10.469-5.815 0-10.53 4.687-10.53 10.468 0 5.782 4.715 10.469 10.53 10.469Zm0 3.102c7.54 0 13.65-6.076 13.65-13.57 0-7.495-6.11-13.57-13.65-13.57-7.538 0-13.65 6.075-13.65 13.57 0 7.494 6.112 13.57 13.65 13.57Z" fill="#20AEE5"/><path fill-rule="evenodd" clip-rule="evenodd" d="M50.457 33.341c.633.58.673 1.562.088 2.191l-4.68 5.04a1.567 1.567 0 0 1-2.082.19l-3.12-2.327a1.545 1.545 0 0 1-.312-2.17 1.566 1.566 0 0 1 2.184-.311l1.993 1.486 3.725-4.011a1.566 1.566 0 0 1 2.204-.088Z" fill="#20AEE5"/></svg>