<svg width="90" height="90" viewBox="0 0 90 90" fill="none" xmlns="http://www.w3.org/2000/svg"><path d="M53.552 50.051a1.574 1.574 0 0 0 0-3.147h-2.16l2.414-4.826a1.574 1.574 0 1 0-2.808-1.407l-3.119 6.233h-.646l-3.118-6.233a1.575 1.575 0 0 0-2.982.813c.016.207.073.409.167.594l2.413 4.826h-2.042a1.574 1.574 0 0 0 0 3.147h3.611l.653 1.307h-4.264a1.573 1.573 0 1 0 0 3.147h4.305v3.438a1.574 1.574 0 0 0 3.147 0v-3.438h4.429a1.574 1.574 0 0 0 0-3.147h-4.387l.653-1.307h3.734Z" fill="#20AEE5"/><path fill-rule="evenodd" clip-rule="evenodd" d="M15.8 51.604V40.632c0-6.203 5.029-11.232 11.232-11.232h41.413a7.527 7.527 0 0 0-7.522-7.253h-41.73a7.527 7.527 0 0 0-7.527 7.527v15.21a7.527 7.527 0 0 0 4.134 6.72Zm0 3.949c-4.523-1.437-7.8-5.67-7.8-10.67v-15.21c0-6.181 5.011-11.192 11.193-11.192h41.73c6.182 0 11.193 5.01 11.193 11.192v.237c4.565 1.426 7.878 5.687 7.878 10.722v18.486c0 6.203-5.029 11.232-11.232 11.232h-41.73c-6.203 0-11.232-5.028-11.232-11.232v-3.565Zm3.744-14.92a7.488 7.488 0 0 1 7.488-7.489h41.73a7.488 7.488 0 0 1 7.488 7.488v18.486a7.488 7.488 0 0 1-7.488 7.488h-41.73a7.488 7.488 0 0 1-7.488-7.488V40.632Z" fill="#20AEE5"/></svg>