<svg width="78" height="79" viewBox="0 0 78 79" fill="none" xmlns="http://www.w3.org/2000/svg"><path d="M31.434 37.054a1.932 1.932 0 0 0-2.665-.51l-2.614 1.822-1.55-1.07a1.953 1.953 0 0 0-2.165-.086 1.945 1.945 0 0 0-.878 1.199 1.927 1.927 0 0 0 .749 2.02l2.64 1.822a1.93 1.93 0 0 0 2.178 0l3.767-2.547a1.916 1.916 0 0 0 .822-1.215 1.9 1.9 0 0 0-.284-1.435ZM31.434 21.767a1.932 1.932 0 0 0-2.665-.51l-2.614 1.822-1.55-1.07a1.955 1.955 0 0 0-3.043 1.113 1.927 1.927 0 0 0 .749 2.02l2.64 1.822a1.93 1.93 0 0 0 2.178 0l3.767-2.548a1.916 1.916 0 0 0 .822-1.214 1.899 1.899 0 0 0-.284-1.436ZM28.718 51.844l-2.563 1.809-1.55-1.07a1.958 1.958 0 0 0-2.724.427 1.93 1.93 0 0 0 .43 2.707l2.64 1.822a1.93 1.93 0 0 0 2.178 0l3.767-2.548a1.902 1.902 0 0 0 .444-2.622 1.932 1.932 0 0 0-2.622-.524v-.001Z" fill="#20AEE5"/><path d="m71.518 28.837-1.025-1.427a5.143 5.143 0 0 0-5.352-1.991 5.14 5.14 0 0 0-1.825.832L45.864 38.735a20.835 20.835 0 0 0-6.086 7.644l-.154.37a3.133 3.133 0 0 0 .088 3.368 3.16 3.16 0 0 0 1.353 1.127c.55.24 1.156.32 1.75.23h.82a19.13 19.13 0 0 0 9.29-3.031l4.203-3.007a1.92 1.92 0 0 0 .857-1.276 1.901 1.901 0 0 0-.958-2.004 1.93 1.93 0 0 0-2.218.248l-4.126 2.956a15.912 15.912 0 0 1-6.587 2.242.373.373 0 0 1-.372-.37.342.342 0 0 1 .065-.165 17.566 17.566 0 0 1 4.37-5.223L65.61 29.359c.218-.151.478-.231.743-.23a1.288 1.288 0 0 1 1.051.523l1.025 1.427a1.27 1.27 0 0 1-.294 1.783l-4.588 3.274c-.538.387-.972.9-1.263 1.493a3.98 3.98 0 0 0-.403 1.909v22.154a9.54 9.54 0 0 1-2.818 6.752 9.652 9.652 0 0 1-6.792 2.802H18.953a9.653 9.653 0 0 1-6.792-2.802 9.54 9.54 0 0 1-2.818-6.752V17.104a9.539 9.539 0 0 1 2.805-6.739 9.652 9.652 0 0 1 6.767-2.816h33.317a9.652 9.652 0 0 1 6.792 2.802 9.54 9.54 0 0 1 2.819 6.753v.255c0 .506.202.992.563 1.35a1.928 1.928 0 0 0 2.718 0c.36-.357.563-.844.563-1.35v-.255a13.35 13.35 0 0 0-3.944-9.455 13.508 13.508 0 0 0-9.51-3.921H18.914a13.508 13.508 0 0 0-9.51 3.921 13.35 13.35 0 0 0-3.945 9.455v44.588a13.35 13.35 0 0 0 3.945 9.454 13.508 13.508 0 0 0 9.51 3.922h33.317a13.508 13.508 0 0 0 9.51-3.922 13.35 13.35 0 0 0 3.945-9.454V39.793a.977.977 0 0 1 .461-.841l4.19-2.994a5.079 5.079 0 0 0 2.009-5.308 5.082 5.082 0 0 0-.83-1.813Z" fill="#20AEE5"/></svg>