<svg width="91" height="90" viewBox="0 0 91 90" fill="none" xmlns="http://www.w3.org/2000/svg"><path d="M39.209 43.244a1.723 1.723 0 0 0-1.101-.745 1.685 1.685 0 0 0-1.291.272l-2.346 1.693-1.392-.995a1.702 1.702 0 0 0-1.942-.08 1.77 1.77 0 0 0-.501.477 1.827 1.827 0 0 0-.314 1.34c.036.233.116.457.236.659.12.201.277.377.463.516l2.369 1.693a1.69 1.69 0 0 0 1.955 0l3.38-2.368a1.75 1.75 0 0 0 .478-.488 1.805 1.805 0 0 0 .262-1.333 1.805 1.805 0 0 0-.256-.64ZM39.209 29.04a1.723 1.723 0 0 0-1.101-.745 1.685 1.685 0 0 0-1.291.272l-2.346 1.692-1.392-.994a1.702 1.702 0 0 0-1.942-.08 1.77 1.77 0 0 0-.501.477 1.827 1.827 0 0 0-.314 1.34c.036.233.116.457.236.659.12.201.277.377.463.516l2.369 1.693a1.69 1.69 0 0 0 1.955 0l3.38-2.368a1.75 1.75 0 0 0 .478-.488 1.805 1.805 0 0 0 .262-1.333 1.805 1.805 0 0 0-.256-.64ZM36.77 56.987l-2.3 1.68-1.39-.994a1.711 1.711 0 0 0-1.302-.322c-.459.074-.87.333-1.142.719a1.841 1.841 0 0 0-.314 1.34c.072.471.324.894.699 1.175l2.369 1.693a1.69 1.69 0 0 0 1.955 0l3.38-2.368c.362-.273.605-.68.68-1.135a1.817 1.817 0 0 0-.28-1.301 1.723 1.723 0 0 0-1.082-.734 1.685 1.685 0 0 0-1.272.247Z" fill="#20AEE5"/><path d="m75.18 35.61-.92-1.326a4.655 4.655 0 0 0-1.314-1.267 4.52 4.52 0 0 0-1.687-.65 4.473 4.473 0 0 0-1.8.066 4.542 4.542 0 0 0-1.638.774l-15.663 11.6a19.262 19.262 0 0 0-5.463 7.102l-.138.343a2.99 2.99 0 0 0 .08 3.13c.3.46.72.823 1.214 1.047a2.767 2.767 0 0 0 1.57.214h.736a16.77 16.77 0 0 0 8.337-2.817l3.772-2.793c.201-.132.373-.306.506-.51a1.805 1.805 0 0 0 .242-1.403 1.798 1.798 0 0 0-.304-.658 1.742 1.742 0 0 0-.534-.477 1.692 1.692 0 0 0-1.379-.134 1.715 1.715 0 0 0-.612.365l-3.703 2.746a13.958 13.958 0 0 1-5.911 2.083.329.329 0 0 1-.236-.1.349.349 0 0 1-.098-.243.326.326 0 0 1 .058-.154 16.201 16.201 0 0 1 3.921-4.853l15.663-11.6c.196-.14.429-.215.667-.213.184-.003.365.04.53.125.163.084.305.208.413.36l.92 1.326a1.199 1.199 0 0 1 .203.885 1.204 1.204 0 0 1-.467.772l-4.117 3.042a3.692 3.692 0 0 0-1.134 1.387 3.81 3.81 0 0 0-.361 1.773v20.584a9.023 9.023 0 0 1-2.53 6.274 8.514 8.514 0 0 1-6.095 2.604h-29.9a8.514 8.514 0 0 1-6.095-2.604 9.023 9.023 0 0 1-2.53-6.273v-41.43a9.024 9.024 0 0 1 2.517-6.26 8.516 8.516 0 0 1 6.073-2.617h29.9a8.515 8.515 0 0 1 6.096 2.604 9.023 9.023 0 0 1 2.53 6.274v.237c0 .47.181.922.505 1.255a1.7 1.7 0 0 0 1.22.52 1.7 1.7 0 0 0 1.22-.52c.323-.333.504-.784.504-1.255v-.237c-.003-3.295-1.276-6.455-3.54-8.785-2.263-2.33-5.333-3.64-8.535-3.644h-29.9c-3.201.003-6.27 1.314-8.534 3.644-2.264 2.33-3.537 5.49-3.54 8.785v41.428c.003 3.296 1.276 6.455 3.54 8.785 2.263 2.33 5.333 3.64 8.534 3.644h29.9c3.202-.003 6.272-1.314 8.535-3.644 2.264-2.33 3.537-5.49 3.54-8.785V45.79a.932.932 0 0 1 .109-.446.901.901 0 0 1 .305-.335l3.76-2.782c.493-.362.911-.82 1.23-1.35a4.87 4.87 0 0 0 .573-3.582 4.802 4.802 0 0 0-.744-1.684Z" fill="#20AEE5"/></svg>