<?xml version="1.0" encoding="utf-8"?>
<!-- Generator: Adobe Illustrator 28.0.0, SVG Export Plug-In . SVG Version: 6.00 Build 0)  -->
<svg version="1.1" id="レイヤー_1" xmlns="http://www.w3.org/2000/svg" xmlns:xlink="http://www.w3.org/1999/xlink" x="0px"
	 y="0px" viewBox="0 0 109 35" style="enable-background:new 0 0 109 35;" xml:space="preserve">
<style type="text/css">
	.st0{fill:none;}
	.st1{fill:#73A5FF;}
	.st2{fill:#FFFFFF;}
	.st3{fill:#2864F0;}
</style>
<rect y="0" class="st0" width="109" height="35"/>
<g>
	<path class="st1" d="M16.5,12.4l-4.8,0.9c-0.7,0.1-1.1,0.7-1,1.4L12,21c0.1,0.6,0.8,1.1,1.4,0.9l4.8-0.9c0.7-0.1,1.1-0.7,1-1.4
		l-1.3-6.3C17.8,12.7,17.1,12.3,16.5,12.4z"/>
	<path class="st2" d="M13.4,21.1c0.3,0,0.6-0.3,0.6-0.6c0-0.3-0.3-0.6-0.6-0.6c-0.3,0-0.6,0.3-0.6,0.6
		C12.8,20.8,13.1,21.1,13.4,21.1z"/>
	<path class="st2" d="M15.5,20.7c0.3,0,0.6-0.3,0.6-0.6c0-0.3-0.3-0.6-0.6-0.6c-0.3,0-0.6,0.3-0.6,0.6
		C14.9,20.4,15.2,20.7,15.5,20.7z"/>
	<path class="st2" d="M17.6,20.3c0.3,0,0.6-0.3,0.6-0.6s-0.3-0.6-0.6-0.6c-0.3,0-0.6,0.3-0.6,0.6S17.3,20.3,17.6,20.3z"/>
	<path class="st2" d="M13.1,19.3c0.3,0,0.6-0.3,0.6-0.6c0-0.3-0.3-0.6-0.6-0.6c-0.3,0-0.6,0.3-0.6,0.6
		C12.5,19.1,12.7,19.3,13.1,19.3z"/>
	<path class="st2" d="M12.7,17.6c0.3,0,0.6-0.3,0.6-0.6c0-0.3-0.3-0.6-0.6-0.6c-0.3,0-0.6,0.3-0.6,0.6
		C12.1,17.3,12.4,17.6,12.7,17.6z"/>
	<path class="st2" d="M15.2,18.9c0.3,0,0.6-0.3,0.6-0.6s-0.3-0.6-0.6-0.6s-0.6,0.3-0.6,0.6S14.8,18.9,15.2,18.9z"/>
	<path class="st2" d="M14.8,17.2c0.3,0,0.6-0.3,0.6-0.6S15.2,16,14.8,16c-0.3,0-0.6,0.3-0.6,0.6S14.5,17.2,14.8,17.2z"/>
	<path class="st2" d="M17.3,18.5c0.3,0,0.6-0.3,0.6-0.6c0-0.3-0.3-0.6-0.6-0.6c-0.3,0-0.6,0.3-0.6,0.6
		C16.7,18.3,16.9,18.5,17.3,18.5z"/>
	<path class="st2" d="M16.9,16.8c0.3,0,0.6-0.3,0.6-0.6c0-0.3-0.3-0.6-0.6-0.6s-0.6,0.3-0.6,0.6C16.3,16.5,16.6,16.8,16.9,16.8z"/>
	<path class="st2" d="M16.6,13.3l-4.8,0.9c-0.2,0-0.3,0.2-0.2,0.3l0.2,0.9c0,0.2,0.2,0.3,0.4,0.2l4.8-0.9c0.2,0,0.3-0.2,0.2-0.3
		L17,13.5C17,13.4,16.8,13.2,16.6,13.3z"/>
	<path class="st3" d="M31.6,19.7c-1.7,0-3.4-0.2-5.1-0.5c3.7-1.7,6.5-5,7.4-8.9l-10.4,7.7c-0.6,0.4-0.7,0.3-1.3,0.3
		c-0.9,0-1.7,0.3-2.3,0.9c-0.2,0.2-0.3,0.3-0.6,0.4l-0.7,0.2l1.4,0.3c1.1,0.2,1.3,0.4,2,1.2l7.8,9.7c0.2-2.9-0.7-5.7-2.7-8
		c0.9,0,1.6-0.1,2.4-0.4c0.6-0.2,0.8-0.3,1.6-0.3h4.1c0.1-0.3,0-0.3-0.5-0.4l-3.2-0.4c0.1-0.1,0.3-0.3,0.5-0.4
		c0.3-0.3,0.4-0.3,0.9-0.4c0.9-0.2,1.6-0.4,2.5-0.7c0.4-0.1,0.3-0.2,0.4-0.4C34.2,19.6,33.2,19.7,31.6,19.7L31.6,19.7z"/>
	<path class="st2" d="M22,19.9c-0.3,0-0.5-0.2-0.5-0.5s0.2-0.5,0.5-0.5c0.3,0,0.5,0.2,0.5,0.5S22.3,19.9,22,19.9z"/>
	<path class="st2" d="M27,22.2c-1.8,0-3.5-0.7-4.7-1.8c1.1-0.3,2.5-0.4,4.4-0.2c1.7,0.2,3.1,0.4,4.7,0.4
		C30.2,21.6,28.7,22.2,27,22.2z"/>
	<path class="st3" d="M74.6,19.8c-0.5,1.7-2,2.9-3.3,2.9c-1.4,0-1.6-0.9-1.6-1.4c1.3-0.2,3.4-0.8,3.4-2.3c0-0.7-0.5-1.3-1.7-1.3
		c-1.7,0-2.8,1.5-3.1,2.7c-0.6,1.3-1.9,2.3-3.1,2.3c-1.4,0-1.6-0.9-1.6-1.4c1.3-0.2,3.4-0.8,3.4-2.3c0-0.7-0.5-1.3-1.7-1.3
		c-1.7,0-2.8,1.5-3.1,2.7c-0.6,1.3-1.9,2.3-3.1,2.3c-1.4,0-1.6-0.9-1.6-1.4c1.3-0.2,3.4-0.8,3.4-2.3c0-0.7-0.5-1.3-1.7-1.3
		c-2,0-3.1,1.9-3.2,3.2c-0.3,0-0.5,0.1-0.8,0.1c-0.9,0-0.8-0.7-0.7-1.4c0.2-1-0.4-1.8-1.5-1.8c-1.3,0-2.2,1.2-2.8,2.4
		c0.3-1.5,0-2.4-1.8-2.4c-0.8,0-1.8,0.3-2.8,0.6l0.4-1.9c0.5-2.3,1.1-2.8,1.9-2.8c0.6,0,1,0.4,1.5,1l0.3-1.3
		c-0.6-0.3-1.2-0.5-1.8-0.5c-1.8,0-3.1,1.3-3.6,3.8l-0.5,2.4c-1.7,0.6-3.8,1.3-7.2,1.4l-0.2,0.8c3.3-0.1,5.4-0.7,7.1-1.3l-0.9,4.5
		c-0.5,2.2-1.1,2.8-1.9,2.8c-0.8,0-1.2-0.6-1.5-1c0,0.2-0.3,1.3-0.3,1.3c0.4,0.2,1,0.5,1.9,0.5c1.7,0,3-1.2,3.5-3.8l1-5
		c1-0.4,2.1-0.7,2.6-0.7c0.9,0,1,0.3,0.8,1.4l-0.7,3.6h1.6l0.3-1.6c0.2-1.2,1.1-3,2.3-3c0.6,0,0.7,0.4,0.6,0.9
		c-0.3,1.4,0.6,1.7,1.6,1.7c0.4,0,0.8,0,1.4-0.1c0.1,0.8,0.8,2.2,2.7,2.2c1.4,0,2.6-0.9,3.5-2c0.1,0.8,0.9,2,2.6,2
		c1.4,0,2.6-0.9,3.5-2c0.1,0.8,0.9,2,2.6,2c2,0,3.7-1.7,4.4-3.8L74.6,19.8L74.6,19.8z M71.3,18.4c0.3,0,0.6,0.2,0.6,0.6
		c0,0.9-1.2,1.3-2.1,1.5C69.8,19.8,70.6,18.4,71.3,18.4z M65.2,18.4c0.3,0,0.6,0.2,0.6,0.6c0,0.9-1.2,1.3-2.1,1.5
		C63.7,19.8,64.5,18.4,65.2,18.4z M59.1,18.4c0.3,0,0.6,0.2,0.6,0.6c0,0.9-1.2,1.3-2.1,1.5C57.5,19.8,58.4,18.4,59.1,18.4L59.1,18.4
		z"/>
	<path class="st3" d="M81.1,18.7c-0.6,0.4-1.2,0.7-1.8,1L78.7,19c1.7-0.7,3-1.7,3.9-3.2h1.2c0.9,1.3,2.3,2.3,4.1,3l-0.6,0.8
		c-0.6-0.3-1.2-0.6-1.8-0.9v0.7h-4.4V18.7L81.1,18.7z M82.8,21c-0.3,0.7-0.6,1.3-1,1.8c1.3-0.1,2.3-0.2,3.3-0.3l-0.1-0.1
		c-0.4-0.4-0.6-0.6-0.9-0.9l0.8-0.5c0.9,0.7,1.7,1.6,2.4,2.4l-0.9,0.6l0,0c-0.4-0.5-0.4-0.6-0.7-0.8c-1.9,0.3-4.2,0.5-6.2,0.7
		L79.3,23c0.5,0,1.1,0,1.4-0.1c0.3-0.6,0.7-1.2,0.9-1.9h-2.4v-0.8h8.1V21L82.8,21L82.8,21z M85.3,18.4c-0.8-0.5-1.6-1.2-2.1-1.9
		c-0.5,0.7-1,1.3-1.7,1.9H85.3z"/>
	<path class="st3" d="M89.4,17.1h4.2v0.8h-4.2V17.1z M89.8,21h3.5v3.1h-0.9v-0.4h-1.7v0.4h-0.9L89.8,21L89.8,21z M90,15.8H93v0.8H90
		V15.8z M90,18.4H93v0.7H90V18.4z M90,19.7H93v0.7H90V19.7z M92.3,23v-1.3h-1.7V23H92.3z M95.4,19.4h-1.9v-0.9h1.9v-2.9h1v2.9h1.9
		v0.9h-1.9v4.8h-1V19.4z"/>
</g>
</svg>
