<svg width="177" height="31" viewBox="0 0 177 31" fill="none" xmlns="http://www.w3.org/2000/svg">
<g clip-path="url(#clip0_125_5560)">
<path d="M168.021 14.2744H166.127V19.2754H164.967V14.2744H163.143V13.1878H164.967V10.2119H166.127V13.1878H168.021V14.2744ZM158.727 12.7124H162.832V11.7122H158.727V12.7124ZM162.49 10.2181H159.227V11.138H162.49V10.2181ZM162.458 13.2804H159.208V14.1818H162.458V13.2804ZM159.208 15.6574H162.458V14.756H159.208V15.6574ZM162.655 16.991V18.5036C162.655 19.047 162.376 19.2754 161.799 19.2754H159.867C159.29 19.2754 159.012 19.047 159.012 18.5036V16.991C159.012 16.4477 159.29 16.2316 159.867 16.2316H161.799C162.376 16.2316 162.655 16.4539 162.655 16.991ZM161.603 17.3244C161.603 17.1515 161.533 17.1145 161.356 17.1145H160.298C160.12 17.1145 160.063 17.1515 160.063 17.3244V18.1764C160.063 18.3493 160.127 18.3987 160.298 18.3987H161.356C161.533 18.3987 161.603 18.3493 161.603 18.1764V17.3244ZM150.585 13.0335V14.0583H155.236V13.0335H150.585ZM153.721 10.2613C153.531 10.0638 153.221 9.9588 152.91 9.9588C152.6 9.9588 152.283 10.0576 152.099 10.2613C151.092 11.3788 149.825 12.2864 148.513 12.8853V14.1757C149.052 13.9225 149.901 13.4595 150.42 13.1322L150.68 12.9594C151.472 12.4284 152.201 11.8172 152.746 11.1751C152.796 11.1072 152.86 11.0763 152.91 11.0763C152.961 11.0763 153.024 11.1072 153.075 11.1751C153.614 11.8172 154.348 12.4284 155.14 12.9594L155.4 13.1322C155.92 13.4656 156.769 13.9287 157.314 14.1818V12.8915C156.002 12.2926 154.729 11.385 153.728 10.2675L153.721 10.2613ZM148.507 15.9291H151.117C150.775 16.6885 150.433 17.38 150.065 18.0653C149.698 18.0776 149.419 18.0776 149.052 18.09V19.189C151.402 19.1457 153.265 18.979 155.375 18.6148L155.362 18.5839L155.799 19.2816H157.193L155.54 16.7255H154.209L154.792 17.6578C153.601 17.843 152.448 17.9603 151.409 18.0221C151.751 17.3244 152.042 16.707 152.384 15.9291H157.314V14.9042H148.513V15.9291H148.507ZM145.003 10.3354H143.888V12.1074H145.003V10.3354ZM127.187 10.4589H121.244V11.6937H127.187V10.4589ZM141.924 10.3354H140.549V19.1828H141.924V14.9536C143.464 15.3672 145.123 15.9414 146.574 16.565V14.9968C145.092 14.4164 143.533 13.904 141.924 13.478V10.3354ZM145.573 10.3354V12.1074H146.707V10.3354H145.573ZM136.887 11.632H134.872V10.3354H133.497V11.632H131.533C130.646 11.632 130.203 12.0456 130.203 12.8915V14.8239H131.558V13.2372C131.558 12.9162 131.666 12.8112 132.04 12.8112H136.469C136.824 12.8112 136.95 12.9162 136.95 13.2187V13.2928C136.887 14.4967 136.532 15.5154 135.797 16.3057C135.126 17.0404 133.991 17.5899 132.743 17.8862V19.2013C134.112 19.0037 135.594 18.374 136.659 17.3368C137.723 16.2995 138.268 14.8363 138.35 13.1816C138.35 13.1384 138.35 13.089 138.35 13.0458C138.35 12.1135 137.958 11.6443 136.893 11.6443L136.887 11.632ZM127.085 12.9285H120.369V14.1633H126.521C126.807 14.1633 126.927 14.2683 126.927 14.435C126.927 14.4967 126.914 14.5584 126.895 14.6202C126.445 16.2007 124.995 17.5096 122.302 17.8739V19.189C125.742 18.8864 127.795 16.9663 128.315 14.6202C128.359 14.435 128.378 14.2436 128.378 14.0892C128.378 13.8299 128.327 13.62 128.207 13.4471C127.991 13.1137 127.656 12.9285 127.085 12.9285ZM117.284 11.0948H114.331C114.433 10.854 114.528 10.6009 114.616 10.3354H113.134C112.906 10.9528 112.633 11.4838 112.183 12.0703C111.797 12.5704 111.366 13.0211 110.923 13.3545V14.9845C111.873 14.3917 112.614 13.7188 113.223 12.9655C113.387 12.7556 113.552 12.5272 113.71 12.2802H116.726C117.043 12.2802 117.151 12.379 117.138 12.5642C117.138 12.626 117.125 12.6754 117.119 12.7309C116.568 15.182 114.8 17.0281 112.038 17.8183V19.1704C115.744 18.3369 117.943 15.7871 118.583 12.768C118.614 12.6013 118.64 12.4531 118.64 12.3049C118.64 11.5394 118.183 11.064 117.29 11.0763L117.284 11.0948Z" fill="#4A4A4A"/>
<path d="M33.187 10.2057L34.5238 19.1395H32.7688L32.0592 13.7434H32.0338L30.0064 19.2568H29.4045L27.4467 13.7434H27.4213L26.6294 19.1395H24.8743L26.3823 10.2057H27.6178L29.8226 15.9414L31.9325 10.2057H33.187ZM41.2715 16.3118C41.2715 18.0652 40.0423 19.3247 38.2113 19.3247C36.3802 19.3247 35.1511 18.0652 35.1511 16.3118C35.1511 14.5584 36.3929 13.2866 38.2113 13.2866C40.0297 13.2866 41.2715 14.5461 41.2715 16.3118ZM39.5925 16.3118C39.5925 15.5277 39.073 14.7189 38.2176 14.7189C37.3623 14.7189 36.8427 15.5277 36.8427 16.3118C36.8427 17.0959 37.3623 17.8924 38.2176 17.8924C39.073 17.8924 39.5925 17.0712 39.5925 16.3118ZM45.5419 13.2866C44.9463 13.2866 44.3697 13.4841 44.0276 13.9904H44.0023V13.4718H42.3423V19.1395H44.0023V16.3365C44.0023 15.6574 44.0149 14.5831 44.997 14.5831C45.979 14.5831 45.8967 15.4598 45.8967 16.139V19.1395H47.5567V15.6759C47.5567 14.3608 47.1068 13.2866 45.5419 13.2866ZM54.203 16.3674V16.565H50.3761C50.3761 17.2811 50.6612 18.0899 51.5229 18.0899C52.0678 18.0899 52.4099 17.7689 52.638 17.3182L54.1649 17.559C53.7595 18.6888 52.7457 19.3247 51.5229 19.3247C49.7235 19.3247 48.6211 18.0776 48.6211 16.3612C48.6211 14.6448 49.5588 13.2927 51.4405 13.2927C53.3223 13.2927 54.203 14.6634 54.203 16.3736V16.3674ZM52.638 15.5586C52.5556 14.9782 52.1755 14.4164 51.5356 14.4164C50.8956 14.4164 50.5028 14.9721 50.4205 15.5586H52.638ZM57.732 16.6884L56.3445 13.4656H54.4627L56.94 18.269L55.0203 22.1586H56.845L61.0774 13.4718H59.2273L57.732 16.6946V16.6884ZM74.2242 16.3057C74.2242 18.0591 72.9887 19.3186 71.164 19.3186C69.3393 19.3186 68.1038 18.0591 68.1038 16.3057C68.1038 14.5522 69.3456 13.2804 71.164 13.2804C72.9824 13.2804 74.2242 14.5399 74.2242 16.3057ZM72.5389 16.3057C72.5389 15.5215 72.0194 14.7128 71.164 14.7128C70.3087 14.7128 69.7891 15.5215 69.7891 16.3057C69.7891 17.0898 70.3087 17.8862 71.164 17.8862C72.0194 17.8862 72.5389 17.0651 72.5389 16.3057ZM76.8536 14.0583H76.8283V13.4718H75.1683V19.1395H76.8283V16.5897C76.8283 15.7129 76.9486 14.7189 78.0954 14.7189C78.3425 14.7189 78.5833 14.7868 78.786 14.9288L78.9888 13.4286C78.7734 13.3483 78.5389 13.2927 78.2982 13.2927C77.6836 13.2927 77.1831 13.5706 76.8536 14.0645V14.0583ZM93.9287 13.4718H95.5634V19.1395H93.9287V18.6209H93.9034C93.5486 19.0716 92.9276 19.3247 92.3257 19.3247C90.6214 19.3247 89.6457 17.8121 89.6457 16.281C89.6457 14.7498 90.6277 13.2927 92.3004 13.2927C92.9023 13.2927 93.5232 13.5459 93.9224 14.0089V13.478L93.9287 13.4718ZM94.0934 16.2995C94.0934 15.5339 93.5612 14.7189 92.7059 14.7189C91.8506 14.7189 91.331 15.5401 91.331 16.2995C91.331 17.0589 91.8506 17.8924 92.7059 17.8924C93.5612 17.8924 94.0934 17.0589 94.0934 16.2995ZM98.6172 14.0583H98.5919V13.4718H96.9319V19.1395H98.5919V16.5897C98.5919 15.7129 98.7123 14.7189 99.8591 14.7189C100.106 14.7189 100.347 14.7868 100.543 14.9288L100.746 13.4286C100.531 13.3483 100.296 13.2927 100.055 13.2927C99.4409 13.2927 98.9404 13.5706 98.6109 14.0645L98.6172 14.0583ZM106.968 10.4342V19.1334H105.308V18.6024H105.283C104.94 19.0654 104.326 19.3186 103.718 19.3186C102.013 19.3186 101.038 17.8059 101.038 16.2748C101.038 14.7436 102.02 13.2866 103.692 13.2866C104.294 13.2866 104.915 13.5397 105.283 13.9904H105.308V10.4342H106.968ZM105.473 16.2995C105.473 15.5339 104.953 14.7189 104.098 14.7189C103.242 14.7189 102.723 15.5401 102.723 16.2995C102.723 17.0589 103.242 17.8924 104.098 17.8924C104.953 17.8924 105.473 17.0589 105.473 16.2995ZM63.2442 19.1395H64.9866V15.3116H67.5082V13.836H64.9866V11.9221H67.673V10.4465H63.2379V19.1457L63.2442 19.1395ZM92.0343 12.0641L92.1673 10.4774C91.8252 10.4774 91.4894 10.5206 91.1599 10.6009C89.7724 10.9404 88.6826 11.9036 87.935 13.0581C87.3838 13.9101 86.9783 14.8424 86.5538 15.75L86.3891 16.1019C86.351 16.1822 86.3004 16.281 86.2433 16.3859L84.9255 13.2927H84.0068L82.6636 16.4723L81.3774 13.478H79.5654L82.2454 19.2568H83.1008L84.4883 15.8056L85.7365 19.2568C85.9962 19.2568 86.5791 19.2568 86.5791 19.2568C86.5791 19.2568 86.5918 19.226 86.6045 19.2074C86.8452 18.7259 88.2391 15.6882 88.7903 14.6325C89.0311 14.1756 89.3606 13.6323 89.6964 13.2372C90.3046 12.5272 91.1536 12.0332 92.047 12.0579L92.0343 12.0641ZM18.4181 16.5094C18.0886 16.5217 17.7845 16.3674 17.5944 16.1081L16.5174 14.614L15.6874 16.9786C15.5733 17.3058 15.2819 17.5466 14.9334 17.6022C14.5849 17.6578 14.2301 17.5281 14.0084 17.2564L13.2797 16.355L12.7475 18.0159C12.6208 18.4172 12.2343 18.6765 11.8225 18.6765C11.7275 18.6765 11.6324 18.6641 11.5374 18.6333C11.0242 18.4789 10.7454 17.9479 10.9038 17.454L11.9809 14.083C12.0886 13.7496 12.3737 13.5026 12.7285 13.4347C13.0833 13.373 13.4445 13.5026 13.6662 13.7805L14.4329 14.7313L15.3072 12.2493C15.4276 11.9159 15.7254 11.669 16.0865 11.6196C16.4477 11.5702 16.8025 11.7245 17.0116 12.0147L18.3357 13.8546L20.1161 11.0269C18.9567 9.66858 17.208 8.79805 15.2502 8.79805C11.7655 8.79805 8.93335 11.5517 8.93335 14.9412C8.93335 18.3307 11.7591 21.0905 15.2502 21.0905C18.7412 21.0905 21.567 18.3369 21.567 14.9412C21.567 14.225 21.4403 13.5335 21.2059 12.8976L19.2101 16.0587C19.039 16.3303 18.7412 16.497 18.4118 16.5094H18.4181ZM21.9979 8.71161C21.3073 8.71161 20.7434 9.2611 20.7434 9.93406C20.7434 10.607 21.3073 11.1565 21.9979 11.1565C22.6885 11.1565 23.2524 10.607 23.2524 9.93406C23.2524 9.2611 22.6885 8.71161 21.9979 8.71161Z" fill="#0054AC"/>
</g>
<defs>
<clipPath id="clip0_125_5560">
<rect width="176.949" height="30.8703" fill="white"/>
</clipPath>
</defs>
</svg>
