<svg width="54" height="54" viewBox="0 0 54 54" fill="none" xmlns="http://www.w3.org/2000/svg">
<path d="M27.3445 29.3818C20.489 29.3818 14.908 23.8008 14.908 16.9453C14.908 10.0811 20.489 4.5 27.3445 4.5C34.1999 4.5 39.781 10.0811 39.781 16.9365C39.7898 23.8008 34.2087 29.3818 27.3445 29.3818ZM27.3445 6.97852C21.8513 6.97852 17.3865 11.4434 17.3865 16.9365C17.3865 22.4297 21.8513 26.8945 27.3445 26.8945C32.8376 26.8945 37.3025 22.4297 37.3025 16.9365C37.3025 11.4521 32.8376 6.97852 27.3445 6.97852Z" fill="#20AEE5"/>
<path d="M40.6335 49.5H13.3875C11.2166 49.5 9.44995 47.7334 9.44995 45.5625V40.0782C9.44995 35.5782 11.1111 31.9658 14.8464 28.3711C15.3386 27.8965 16.1208 27.9141 16.6042 28.4063C17.0789 28.8985 17.0613 29.6895 16.5691 30.1641C13.3171 33.293 11.9285 36.2637 11.9285 40.0869V45.5713C11.9285 46.3711 12.5789 47.0303 13.3875 47.0303H40.6335C41.4333 47.0303 42.0925 46.3799 42.0925 45.5713V40.0869C42.0925 36.2549 40.7039 33.2842 37.4431 30.1553C36.9509 29.6807 36.9333 28.8985 37.408 28.3975C37.8826 27.9053 38.6648 27.8877 39.1658 28.3623C42.9099 31.9571 44.5798 35.5694 44.5798 40.0782V45.5625C44.571 47.7334 42.8044 49.5 40.6335 49.5Z" fill="#20AEE5"/>
</svg>
