<svg width="54" height="54" viewBox="0 0 54 54" fill="none" xmlns="http://www.w3.org/2000/svg">
<path fill-rule="evenodd" clip-rule="evenodd" d="M26.9999 6.75C27.7455 6.75 28.3499 7.35442 28.3499 8.1V28.5051L35.7462 20.8031C36.2626 20.2653 37.1172 20.248 37.655 20.7644C38.1928 21.2808 38.2101 22.1354 37.6937 22.6732L27.9737 32.7951C27.7191 33.0602 27.3675 33.21 26.9999 33.21C26.6324 33.21 26.2808 33.0602 26.0262 32.7951L16.3062 22.6732C15.7898 22.1354 15.8071 21.2808 16.3449 20.7644C16.8826 20.248 17.7372 20.2653 18.2537 20.8031L25.6499 28.5051V8.1C25.6499 7.35442 26.2543 6.75 26.9999 6.75Z" fill="#20AEE5"/>
<path fill-rule="evenodd" clip-rule="evenodd" d="M7.55997 33.21C6.51615 33.21 5.66997 34.0562 5.66997 35.1V43.2C5.66997 44.2438 6.51615 45.09 7.55997 45.09H46.44C47.4838 45.09 48.33 44.2438 48.33 43.2V35.1C48.33 34.0562 47.4838 33.21 46.44 33.21H42.552C41.8064 33.21 41.202 32.6056 41.202 31.86C41.202 31.1144 41.8064 30.51 42.552 30.51H46.44C48.975 30.51 51.03 32.565 51.03 35.1V43.2C51.03 45.735 48.975 47.79 46.44 47.79H7.55997C5.02499 47.79 2.96997 45.735 2.96997 43.2V35.1C2.96997 32.565 5.02498 30.51 7.55997 30.51H11.448C12.1936 30.51 12.798 31.1144 12.798 31.86C12.798 32.6056 12.1936 33.21 11.448 33.21H7.55997Z" fill="#20AEE5"/>
</svg>
