<svg width="78" height="79" viewBox="0 0 78 79" fill="none" xmlns="http://www.w3.org/2000/svg">
<path d="M40.9553 64.4408C40.9553 65.4059 40.1684 66.1883 39.1976 66.1883C38.2268 66.1883 37.4398 65.4059 37.4398 64.4408C37.4398 63.4757 38.2268 62.6934 39.1976 62.6934C40.1684 62.6934 40.9553 63.4757 40.9553 64.4408Z" fill="#20AEE5"/>
<rect x="24.1799" y="18.4608" width="28.86" height="3.87719" rx="1.9386" fill="#20AEE5"/>
<rect x="24.1799" y="26.2152" width="28.86" height="3.87719" rx="1.9386" fill="#20AEE5"/>
<rect x="24.1799" y="33.9696" width="28.86" height="3.87719" rx="1.9386" fill="#20AEE5"/>
<rect x="37.4399" y="41.724" width="15.6" height="3.87719" rx="1.93859" fill="#20AEE5"/>
<path fill-rule="evenodd" clip-rule="evenodd" d="M21.869 6.05383C17.976 6.05383 14.8201 9.20156 14.8201 13.0845V57.0143V57.026V65.3148C14.8201 69.1752 17.9679 72.3046 21.8511 72.3046H44.032C44.0958 72.3116 44.1606 72.3152 44.2262 72.3152H55.1462C59.131 72.3152 62.3612 69.1038 62.3612 65.1424V64.7547C62.3612 63.7911 61.5755 63.0099 60.6062 63.0099C59.637 63.0099 58.8512 63.7911 58.8512 64.7547V65.1424C58.8512 67.1767 57.1924 68.8257 55.1462 68.8257H48.4563C48.3781 68.8152 48.2983 68.8097 48.2173 68.8097H21.8511C19.9095 68.8097 18.3356 67.245 18.3356 65.3148V60.5092H39.5192C39.6043 60.5219 39.6914 60.5284 39.7801 60.5284H55.1462C59.131 60.5284 62.3612 57.317 62.3612 53.3556V51.9667C62.3867 51.8478 62.4001 51.7244 62.4001 51.5979V13.0845C62.4001 9.20156 59.2442 6.05383 55.3512 6.05383H21.869ZM58.8756 47.2482V13.0845C58.8756 11.143 57.2977 9.56915 55.3512 9.56915H21.869C19.9225 9.56915 18.3445 11.143 18.3445 13.0845V57.0143H41.1863C41.287 57.0143 41.3858 57.0227 41.4819 57.0389H55.1462C57.1924 57.0389 58.8512 55.3898 58.8512 53.3556V47.5398C58.8512 47.4404 58.8596 47.343 58.8756 47.2482Z" fill="#20AEE5"/>
</svg>
