<svg width="54" height="54" viewBox="0 0 54 54" fill="none" xmlns="http://www.w3.org/2000/svg">
<path fill-rule="evenodd" clip-rule="evenodd" d="M10.2599 8.67603C10.2599 5.97204 12.4448 3.78003 15.1399 3.78003H38.32C41.0151 3.78003 43.2 5.97204 43.2 8.67603V23.058C43.2 23.734 42.6537 24.282 41.98 24.282C41.3062 24.282 40.76 23.734 40.76 23.058V8.67603C40.76 7.32404 39.6675 6.22803 38.32 6.22803H15.1399C13.7924 6.22803 12.6999 7.32404 12.6999 8.67603V39.2679H28.5135C29.1855 39.2679 29.7304 39.8127 29.7304 40.4848C29.7304 41.1569 29.1855 41.7017 28.5135 41.7017H12.6938V45.0482C12.6938 46.3923 13.7834 47.482 15.1276 47.482H33.3811C34.0532 47.482 34.598 48.0268 34.598 48.6989C34.598 49.371 34.0532 49.9158 33.3811 49.9158H15.1276C12.4393 49.9158 10.2599 47.7365 10.2599 45.0482V39.276V39.2679V8.67603ZM29.1216 44.4396C29.1216 45.1117 28.5767 45.6565 27.9047 45.6565C27.2326 45.6565 26.6878 45.1117 26.6878 44.4396C26.6878 43.7675 27.2326 43.2227 27.9047 43.2227C28.5767 43.2227 29.1216 43.7675 29.1216 44.4396Z" fill="#20AEE5"/>
<path fill-rule="evenodd" clip-rule="evenodd" d="M47.0232 36.861H48.0112C49.4519 36.8629 50.8334 37.4248 51.8542 38.4241C52.875 39.4234 53.4522 40.7791 53.4599 42.1952V46.7367C53.4599 47.5889 53.1155 48.4063 52.5024 49.0089C51.8893 49.6115 51.0577 49.9501 50.1907 49.9501H40.2014C39.3344 49.9501 38.5029 49.6115 37.8898 49.0089C37.2767 48.4063 36.9322 47.5889 36.9322 46.7367V45.8298C36.932 45.3747 36.8335 44.9249 36.6431 44.51C36.4528 44.0951 36.1749 43.7248 35.828 43.4234C35.342 43.0199 34.7855 42.5381 34.256 42.0797C33.9703 41.8323 33.6924 41.5917 33.4378 41.374C32.8453 40.8825 32.4757 40.1799 32.4103 39.4206C32.3449 38.6613 32.5891 37.9075 33.0891 37.3252C33.5891 36.7428 34.304 36.3795 35.0765 36.3152C35.849 36.251 36.6158 36.4909 37.2083 36.9824L38.7339 37.8679V30.9913C38.7339 30.1476 39.0749 29.3384 39.6819 28.7418C40.2888 28.1452 41.1121 27.8101 41.9704 27.8101C42.8288 27.8101 43.652 28.1452 44.259 28.7418C44.866 29.3384 45.207 30.1476 45.207 30.9913V35.0758C45.207 35.5493 45.3983 36.0033 45.7389 36.3381C46.0795 36.6729 46.5415 36.861 47.0232 36.861ZM50.9613 47.4941C51.1656 47.2932 51.2804 47.0208 51.2804 46.7367V42.1952C51.2804 41.3429 50.936 40.5256 50.3229 39.923C49.7098 39.3204 48.8783 38.9818 48.0112 38.9818H47.0014C45.9423 38.9799 44.9271 38.5655 44.1781 37.8294C43.4292 37.0933 43.0076 36.0954 43.0057 35.0544V30.9913C43.0057 30.7157 42.8943 30.4515 42.6961 30.2566C42.4979 30.0618 42.229 29.9523 41.9486 29.9523C41.6683 29.9523 41.3994 30.0618 41.2012 30.2566C41.003 30.4515 40.8916 30.7157 40.8916 30.9913L40.9279 38.5105C40.9279 38.8421 40.834 39.167 40.6567 39.4491C40.4794 39.7311 40.2256 39.959 39.9239 40.1073C39.6223 40.2555 39.2845 40.3183 38.9486 40.2885C38.6127 40.2587 38.2918 40.1376 38.022 39.9387L36.0168 38.7747C35.9521 38.738 35.8912 38.6949 35.8352 38.6462C35.7001 38.5255 35.5238 38.4592 35.3412 38.4605H35.2976C35.1445 38.459 34.9948 38.5051 34.87 38.5922C34.7451 38.6792 34.6514 38.8029 34.6023 38.9454C34.5531 39.0879 34.551 39.2421 34.5963 39.3858C34.6416 39.5296 34.732 39.6556 34.8545 39.7459C35.1133 39.9682 35.3955 40.2058 35.6841 40.4488C36.23 40.9084 36.7985 41.387 37.2737 41.8167C37.8518 42.3195 38.3146 42.9373 38.6315 43.6291C38.9483 44.321 39.112 45.0711 39.1117 45.8298V46.7367C39.1117 47.0208 39.2265 47.2932 39.4309 47.4941C39.6352 47.695 39.9124 47.8078 40.2014 47.8078H50.1907C50.4797 47.8078 50.7569 47.695 50.9613 47.4941ZM39.9599 51.3001C39.3634 51.3001 38.8799 51.7836 38.8799 52.3801C38.8799 52.9765 39.3634 53.4601 39.9599 53.4601H50.7599C51.3564 53.4601 51.8399 52.9765 51.8399 52.3801C51.8399 51.7836 51.3564 51.3001 50.7599 51.3001H39.9599Z" fill="#20AEE5"/>
</svg>
