<svg width="78" height="79" viewBox="0 0 78 79" fill="none" xmlns="http://www.w3.org/2000/svg">
<path fill-rule="evenodd" clip-rule="evenodd" d="M14.8199 13.0845C14.8199 9.20156 17.9758 6.05383 21.8688 6.05383H55.351C59.244 6.05383 62.3999 9.20156 62.3999 13.0845V33.737C62.3999 34.7077 61.6109 35.4946 60.6377 35.4946C59.6644 35.4946 58.8755 34.7077 58.8755 33.737V13.0845C58.8755 11.143 57.2975 9.56915 55.351 9.56915H21.8688C19.9223 9.56915 18.3443 11.143 18.3443 13.0845V57.0143H41.1861C42.1569 57.0143 42.9438 57.7967 42.9438 58.7618C42.9438 59.7269 42.1569 60.5092 41.1861 60.5092H18.3354V65.3148C18.3354 67.245 19.9093 68.8097 21.8509 68.8097H48.2171C49.1879 68.8097 49.9748 69.5921 49.9748 70.5572C49.9748 71.5223 49.1879 72.3046 48.2171 72.3046H21.8509C17.9678 72.3046 14.8199 69.1752 14.8199 65.3148V57.026V57.0143V13.0845ZM42.0645 64.4409C42.0645 65.406 41.2775 66.1883 40.3067 66.1883C39.3359 66.1883 38.549 65.406 38.549 64.4409C38.549 63.4758 39.3359 62.6934 40.3067 62.6934C41.2775 62.6934 42.0645 63.4758 42.0645 64.4409Z" fill="#20AEE5"/>
<path fill-rule="evenodd" clip-rule="evenodd" d="M67.9226 53.5579H69.3497C71.4308 53.5606 73.4263 54.3675 74.9007 55.8025C76.3752 57.2376 77.209 59.1843 77.2201 61.2178V67.7394C77.2201 68.9632 76.7225 70.1369 75.837 71.0023C74.9514 71.8676 73.7503 72.3538 72.4979 72.3538H58.0689C56.8165 72.3538 55.6154 71.8676 54.7298 71.0023C53.8443 70.1369 53.3467 68.9632 53.3467 67.7394V66.4371C53.3465 65.7836 53.2041 65.1376 52.9291 64.5419C52.6542 63.9461 52.2528 63.4143 51.7517 62.9815C51.0497 62.4021 50.2459 61.7102 49.4811 61.0519C49.0684 60.6967 48.6671 60.3512 48.2992 60.0385C47.4434 59.3328 46.9096 58.3238 46.8151 57.2334C46.7206 56.1431 47.0733 55.0607 47.7955 54.2244C48.5178 53.3882 49.5504 52.8665 50.6662 52.7742C51.782 52.6819 52.8897 53.0265 53.7455 53.7322L55.9492 55.0038V45.129C55.9492 43.9174 56.4417 42.7555 57.3185 41.8988C58.1952 41.0421 59.3843 40.5608 60.6242 40.5608C61.864 40.5608 63.0531 41.0421 63.9299 41.8988C64.8066 42.7555 65.2991 43.9174 65.2991 45.129V50.9944C65.2991 51.6743 65.5755 52.3263 66.0675 52.8071C66.5595 53.2878 67.2268 53.5579 67.9226 53.5579ZM73.6109 68.827C73.9061 68.5386 74.0719 68.1473 74.0719 67.7394V61.2178C74.0719 59.994 73.5744 58.8203 72.6888 57.9549C71.8032 57.0896 70.6021 56.6034 69.3497 56.6034H67.8911C66.3612 56.6007 64.8948 56.0056 63.813 54.9486C62.7313 53.8915 62.1223 52.4586 62.1195 50.9636V45.129C62.1195 44.7333 61.9587 44.3538 61.6723 44.074C61.386 43.7942 60.9976 43.637 60.5927 43.637C60.1877 43.637 59.7994 43.7942 59.513 44.074C59.2267 44.3538 59.0658 44.7333 59.0658 45.129L59.1183 55.9266C59.1183 56.4027 58.9826 56.8694 58.7265 57.2744C58.4704 57.6793 58.1039 58.0066 57.6681 58.2195C57.2323 58.4324 56.7445 58.5226 56.2593 58.4798C55.774 58.4371 55.3106 58.2631 54.9208 57.9775L52.0245 56.306C51.9309 56.2533 51.8431 56.1914 51.7622 56.1215C51.5671 55.9481 51.3123 55.853 51.0486 55.8548H50.9856C50.7645 55.8527 50.5483 55.9188 50.3679 56.0439C50.1875 56.1689 50.0522 56.3464 49.9812 56.5511C49.9102 56.7558 49.9072 56.9771 49.9727 57.1836C50.0381 57.39 50.1686 57.5709 50.3455 57.7006C50.7194 58.0198 51.1271 58.3611 51.544 58.71C52.3324 59.3699 53.1535 60.0572 53.8399 60.6743C54.675 61.3963 55.3435 62.2834 55.8012 63.2769C56.2589 64.2704 56.4953 65.3476 56.4949 66.4371V67.7394C56.4949 68.1473 56.6607 68.5386 56.9559 68.827C57.2511 69.1155 57.6515 69.2775 58.0689 69.2775H72.4979C72.9153 69.2775 73.3157 69.1155 73.6109 68.827ZM57.7109 74.2924C56.8544 74.2924 56.1601 74.9867 56.1601 75.8432C56.1601 76.6998 56.8544 77.3941 57.7109 77.3941H73.3292C74.1857 77.3941 74.8801 76.6998 74.8801 75.8432C74.8801 74.9867 74.1857 74.2924 73.3292 74.2924H57.7109Z" fill="#20AEE5"/>
<path fill-rule="evenodd" clip-rule="evenodd" d="M38.61 43.2748C44.4255 43.2748 49.14 38.5879 49.14 32.8064C49.14 27.0248 44.4255 22.338 38.61 22.338C32.7944 22.338 28.08 27.0248 28.08 32.8064C28.08 38.5879 32.7944 43.2748 38.61 43.2748ZM38.61 46.3766C46.1487 46.3766 52.26 40.301 52.26 32.8064C52.26 25.3118 46.1487 19.2362 38.61 19.2362C31.0713 19.2362 24.96 25.3118 24.96 32.8064C24.96 40.301 31.0713 46.3766 38.61 46.3766Z" fill="#20AEE5"/>
<path fill-rule="evenodd" clip-rule="evenodd" d="M43.958 29.3405C44.5911 29.9215 44.6306 30.9026 44.0462 31.532L39.3662 36.5724C38.8235 37.1568 37.924 37.2384 37.2839 36.7611L34.1639 34.4348C33.4746 33.9209 33.3349 32.9488 33.8519 32.2636C34.3688 31.5784 35.3466 31.4395 36.0359 31.9534L38.029 33.4395L41.7536 29.4282C42.338 28.7988 43.3249 28.7595 43.958 29.3405Z" fill="#20AEE5"/>
</svg>
