<svg width="149" height="243" viewBox="0 0 149 243" fill="none" xmlns="http://www.w3.org/2000/svg">
<rect x="1" y="1" width="107.569" height="224.383" rx="14" stroke="#20AEE5" stroke-width="2"/>
<rect x="6.04224" y="6.0423" width="97.4848" height="214.299" rx="10" stroke="#20AEE5" stroke-width="2"/>
<path d="M30.4136 6.0423H79.156V10.4462C79.156 12.6553 77.3651 14.4462 75.156 14.4462H34.4136C32.2044 14.4462 30.4136 12.6553 30.4136 10.4462V6.0423Z" stroke="#20AEE5" stroke-width="2"/>
<rect x="47.2212" y="9.40387" width="15.9673" height="1.68077" rx="0.840386" fill="#20AEE5"/>
<rect x="64.8694" y="9.40387" width="1.68077" height="1.68077" rx="0.840385" fill="#20AEE5"/>
<rect x="15.2861" y="67.8115" width="78.9963" height="14.2866" stroke="#20AEE5" stroke-width="2"/>
<path d="M14.8662 62.3486H55.2048" stroke="#20AEE5" stroke-width="2"/>
<rect x="15.2861" y="101.007" width="78.9963" height="14.2866" stroke="#20AEE5" stroke-width="2"/>
<path d="M14.8662 95.5439H55.2048" stroke="#20AEE5" stroke-width="2"/>
<rect x="15.2861" y="134.622" width="78.9963" height="14.2866" stroke="#20AEE5" stroke-width="2"/>
<rect x="52" y="162.354" width="42.0193" height="14.2866" fill="#20AEE5" stroke="#20AEE5" stroke-width="2"/>
<path d="M14.8662 129.159H55.2048" stroke="#20AEE5" stroke-width="2"/>
<mask id="mask0_68_3282" style="mask-type:alpha" maskUnits="userSpaceOnUse" x="46" y="168" width="103" height="75">
<rect x="46" y="168" width="103" height="75" fill="#C4C4C4"/>
</mask>
<g mask="url(#mask0_68_3282)">
<path d="M150 265.098L128.119 277.309L119.284 260.975L97.4036 249.397L83.8623 217.638L107.876 204.756L103.431 198.6C103.167 195.689 105.303 194.961 106.403 194.962C108.834 194.577 112.136 197.226 115.321 200.763L115.651 200.585L115.981 200.257C117.303 199.199 118.624 199.262 119.284 199.262C124.238 199.924 132.826 210.182 137.449 220.768C142.073 231.354 143.394 245.58 143.394 251.204C143.394 255.703 143.835 257.269 144.055 257.489C143.945 257.158 143.923 256.96 144.715 258.812C145.508 260.665 148.569 263.775 150 265.098Z" fill="white"/>
<path d="M96.8254 194.3C102.374 194.829 110.807 207.091 114.33 213.156L104.34 220.615L91.8713 198.269C92.3997 194.829 95.3943 194.189 96.8254 194.3Z" fill="white"/>
<path d="M87.5777 190.661L101.449 215.472L92.5322 230.028L84.275 210.841L74.367 188.014L71.0639 181.729C69.4784 178.288 69.0822 175.002 69.0823 173.789C68.8621 173.017 68.9502 171.209 71.0639 170.15C73.7061 169.091 77.6694 173.899 79.3208 176.435L84.275 184.706L87.5777 190.661Z" fill="white"/>
<path d="M79.3209 207.533C81.1704 207.268 83.3943 209.848 84.275 211.172L95.0918 236.164L121.184 256.163L133.074 274.539L126.881 277.997L126.22 276.674C125.229 275.24 123.05 271.91 122.257 270.057C121.266 267.742 118.294 265.095 116.973 264.103C115.916 263.309 112.789 261.566 111.358 260.794C109.927 259.912 104.752 257.486 101.78 256.163C96.578 253.847 93.8533 250.87 92.2019 248.885C91.6514 248.003 90.2863 245.907 89.2294 244.584C87.9083 242.93 87.2477 241.276 85.9266 239.291C83.8129 236.115 82.8441 232.454 82.6239 231.021L81.9633 228.705C80.8624 224.294 78.5285 215.075 78 213.487L77.3392 210.179C77.2291 209.407 77.4713 207.797 79.3209 207.533Z" fill="white"/>
<path d="M150 265.098C148.569 263.775 145.508 260.665 144.716 258.812C143.923 256.96 143.945 257.158 144.055 257.489C143.835 257.269 143.394 255.703 143.394 251.204C143.394 245.58 142.073 231.354 137.45 220.768C132.826 210.182 124.238 199.924 119.284 199.262C118.624 199.262 117.303 199.199 115.982 200.257L115.651 200.585M123.908 212.495C120.165 206.32 111.424 194.168 106.404 194.962C105.303 194.961 103.167 195.689 103.431 198.6" stroke="#20AEE5" stroke-width="2" stroke-linecap="round" stroke-linejoin="round"/>
<path d="M114.33 213.156C110.807 207.091 102.374 194.829 96.8254 194.3C95.3943 194.189 92.3998 194.829 91.8713 198.269M101.449 215.472L87.5777 190.661L84.275 184.706L79.3208 176.435C77.6694 173.899 73.7061 169.091 71.0639 170.15C68.9502 171.209 68.8621 173.017 69.0823 173.789C69.0822 175.002 69.4784 178.288 71.0639 181.729L74.367 188.014L84.275 210.841L92.5322 230.028" stroke="#20AEE5" stroke-width="2" stroke-linecap="round" stroke-linejoin="round"/>
<path d="M84.275 211.172C83.3943 209.848 81.1704 207.268 79.3209 207.533C77.4713 207.797 77.2291 209.407 77.3392 210.179L78 213.487C78.5285 215.075 80.8624 224.294 81.9633 228.705L82.6239 231.021C82.8441 232.454 83.8129 236.115 85.9266 239.291C87.2477 241.276 87.9083 242.93 89.2294 244.584C90.2863 245.907 91.6514 248.003 92.2019 248.885C93.8533 250.87 96.578 253.847 101.78 256.163C104.752 257.486 109.927 259.912 111.358 260.794C112.789 261.566 115.916 263.309 116.973 264.103C118.294 265.095 121.266 267.742 122.257 270.057C123.05 271.91 125.229 275.24 126.22 276.674L126.881 277.997" stroke="#20AEE5" stroke-width="2" stroke-linecap="round" stroke-linejoin="round"/>
</g>
</svg>
