<svg width="335" height="403" viewBox="0 0 335 403" fill="none" xmlns="http://www.w3.org/2000/svg">
<path d="M168.364 129.063C167.959 129.795 166.907 129.795 166.503 129.063L158.178 113.988C157.786 113.28 158.299 112.411 159.108 112.411L175.758 112.411C176.567 112.411 177.08 113.28 176.689 113.988L168.364 129.063Z" fill="#20AEE5"/>
<path d="M51.5039 38.1512C91.6319 -13.9248 231.214 0.532318 267.355 23.3866C303.496 46.2409 297.65 96.078 259.978 109.552C222.306 123.027 81.5985 130.216 53.1303 95.1701C38.425 77.0669 43.2224 48.8981 51.5039 38.1512Z" fill="#20AEE5"/>
<path d="M151.662 25.256C151.626 25.472 151.578 25.988 151.554 26.3C151.542 26.564 151.53 26.852 151.518 27.152C152.31 27.056 153.102 26.9 153.726 26.72L153.762 28.208C153.078 28.364 152.25 28.484 151.47 28.58C151.458 28.94 151.458 29.312 151.458 29.66C151.458 29.804 151.458 29.948 151.458 30.104C152.274 29.9 153.102 29.792 153.762 29.792C155.61 29.792 157.062 30.752 157.062 32.408C157.062 33.824 156.318 34.892 154.41 35.372C153.858 35.492 153.33 35.528 152.838 35.564L152.286 34.016C152.826 34.016 153.342 34.004 153.762 33.932C154.734 33.752 155.502 33.272 155.502 32.396C155.502 31.58 154.782 31.1 153.738 31.1C152.994 31.1 152.214 31.22 151.482 31.436C151.506 32.384 151.53 33.32 151.53 33.728C151.53 35.216 151.002 35.612 150.21 35.612C149.046 35.612 147.402 34.604 147.402 33.332C147.402 32.288 148.602 31.196 150.078 30.56C150.066 30.272 150.066 29.984 150.066 29.708C150.066 29.372 150.066 29.036 150.066 28.7C149.838 28.712 149.622 28.724 149.43 28.724C148.626 28.724 148.158 28.712 147.75 28.664L147.726 27.212C148.434 27.296 148.95 27.308 149.382 27.308C149.598 27.308 149.838 27.296 150.078 27.284C150.09 26.864 150.09 26.516 150.09 26.312C150.09 26.06 150.042 25.472 150.006 25.256H151.662ZM155.082 26.552C156.006 26.996 157.398 27.788 158.034 28.244L157.314 29.468C156.738 28.976 155.166 28.076 154.422 27.716L155.082 26.552ZM148.878 33.272C148.878 33.644 149.442 33.968 149.754 33.968C149.97 33.968 150.138 33.872 150.138 33.464C150.138 33.164 150.126 32.612 150.102 31.964C149.37 32.36 148.878 32.852 148.878 33.272ZM168.438 25.16L169.902 25.484C169.518 26.876 168.882 28.328 168.282 29.252C167.958 29.036 167.274 28.748 166.89 28.604C167.526 27.764 168.102 26.408 168.438 25.16ZM167.154 27.872L165.834 28.292C165.75 27.536 165.426 26.288 165.078 25.34L166.326 24.992C166.698 25.928 167.058 27.128 167.154 27.872ZM165.042 28.22L163.746 28.724C163.614 27.98 163.17 26.768 162.714 25.856L163.926 25.412C164.406 26.288 164.898 27.452 165.042 28.22ZM159.246 27.2L160.206 27.32C160.218 28.46 160.038 29.852 159.618 30.752L158.682 30.332C159.066 29.588 159.234 28.28 159.246 27.2ZM163.278 29.012L162.342 29.468C162.258 29 162.03 28.316 161.754 27.704V36.032H160.374V24.836H161.754V27.128L162.414 26.84C162.786 27.536 163.17 28.424 163.278 29.012ZM168.294 32.372L167.514 33.476C167.286 33.176 166.95 32.816 166.566 32.456C166.206 33.044 165.81 33.56 165.402 33.98C165.174 33.764 164.658 33.356 164.358 33.176C164.814 32.756 165.234 32.216 165.606 31.604C165.198 31.28 164.79 30.968 164.418 30.692L165.126 29.732C165.45 29.96 165.81 30.224 166.17 30.488C166.362 30.044 166.518 29.576 166.65 29.096L167.91 29.372C167.718 30.032 167.466 30.692 167.178 31.304C167.634 31.676 168.03 32.048 168.294 32.372ZM168.306 33.98V29.36H169.71V35.9H168.306V35.276H164.346V35.924H162.978V29.384H164.346V33.98H168.306ZM172.998 25.916C173.322 25.952 173.73 25.976 173.994 25.976C174.678 25.976 175.95 25.916 176.514 25.868C176.814 25.856 177.126 25.784 177.33 25.7L178.29 26.444C178.122 26.624 177.978 26.78 177.882 26.948C177.57 27.464 177.114 28.508 176.682 29.528C177.618 29.672 178.506 29.96 179.286 30.296C179.298 30.152 179.31 30.02 179.322 29.888C179.358 29.42 179.358 28.94 179.322 28.58L180.894 28.76C180.846 29.564 180.786 30.308 180.666 30.98C181.17 31.268 181.602 31.544 181.95 31.784L181.254 33.452C180.942 33.164 180.594 32.888 180.222 32.612C179.694 33.968 178.782 35.024 177.174 35.864L175.902 34.82C177.714 34.04 178.554 32.9 178.95 31.808C178.098 31.34 177.138 30.98 176.106 30.836C175.674 31.856 175.17 33.056 174.75 33.716C174.27 34.436 173.694 34.772 172.878 34.772C171.822 34.772 171.03 34.04 171.03 32.828C171.03 30.968 172.722 29.552 175.134 29.444C175.47 28.652 175.818 27.836 176.094 27.272C175.614 27.296 174.582 27.332 174.03 27.368C173.79 27.38 173.37 27.416 173.058 27.464L172.998 25.916ZM172.434 32.6C172.434 32.996 172.662 33.2 172.938 33.2C173.178 33.2 173.346 33.08 173.562 32.78C173.874 32.336 174.198 31.58 174.534 30.824C173.19 31.028 172.434 31.844 172.434 32.6ZM185.354 35V28.2148H185.248L183.174 29.6562V28.0625L185.359 26.5449H187.123V35H185.354Z" fill="white"/>
<path d="M85.672 53.956V51.814C83.314 52.03 82.414 52.084 80.056 52.138C79.858 51.4 79.858 51.4 79.39 50.284C79.786 50.284 80.002 50.284 80.272 50.284C82.846 50.284 86.176 50.032 88.336 49.672C90.046 49.384 90.694 49.222 91.666 48.808L93.142 50.608C91.594 51.004 89.146 51.454 87.688 51.616V53.956H91.414C92.44 53.956 93.07 53.92 93.664 53.848V55.864C93.052 55.792 92.368 55.756 91.45 55.756H87.688V57.934H92.296C93.304 57.934 93.898 57.898 94.492 57.826V59.86C93.862 59.788 93.268 59.752 92.296 59.752H87.688V63.28C87.688 64.072 87.436 64.63 86.986 64.828C86.572 65.008 85.798 65.116 84.97 65.116C84.43 65.116 83.548 65.08 82.522 64.99C82.432 64.198 82.324 63.784 81.982 63.028C83.278 63.208 84.25 63.28 84.988 63.28C85.51 63.28 85.672 63.154 85.672 62.722V59.752H80.65C79.66 59.752 79.066 59.788 78.436 59.86V57.826C79.03 57.898 79.624 57.934 80.65 57.934H85.672V55.756H81.658C80.866 55.756 80.02 55.792 79.408 55.864V53.848C80.002 53.92 80.614 53.956 81.64 53.956H85.672ZM105.364 53.2H105.022C104.23 54.802 103.294 56.206 102.07 57.592C101.638 56.854 101.386 56.53 100.774 55.9C102.142 54.496 103.024 53.128 103.798 51.31C104.248 50.23 104.518 49.33 104.608 48.7L106.642 49.294C106.462 49.726 106.408 49.888 106.282 50.248C106.012 51.004 105.994 51.058 105.832 51.454H110.728C111.61 51.454 112.168 51.418 112.672 51.346V53.29C112.15 53.236 111.52 53.2 110.728 53.2H107.308V55.504H110.242C110.998 55.504 111.484 55.468 112.024 55.396V57.34C111.448 57.268 110.908 57.232 110.224 57.232H107.308V59.536H110.26C111.034 59.536 111.52 59.518 112.06 59.428V61.39C111.466 61.318 110.944 61.282 110.26 61.282H107.308V63.352C107.308 64.432 107.344 65.008 107.434 65.512H105.256C105.346 64.99 105.364 64.45 105.364 63.352V53.2ZM100.09 48.646L102.088 49.348C101.89 49.798 101.836 49.924 101.674 50.356C101.386 51.13 101.386 51.13 100.45 53.236V63.208C100.45 64.054 100.486 64.774 100.576 65.44H98.416C98.506 64.756 98.542 64.144 98.542 63.208V58.078C98.542 57.628 98.542 57.538 98.596 56.026C97.966 56.872 97.516 57.43 96.868 58.096C96.616 57.268 96.364 56.746 95.914 55.99C97.246 54.784 98.416 53.092 99.334 51.022C99.73 50.086 99.982 49.348 100.09 48.646ZM121.42 56.08H116.92C116.092 56.08 115.624 56.098 115.066 56.17V54.46C115.57 54.514 116.038 54.532 116.92 54.532H119.098C118.828 53.956 118.63 53.542 118.432 53.2H116.488C115.606 53.2 114.922 53.236 114.346 53.29V51.49C114.904 51.562 115.48 51.598 116.398 51.598H116.974C116.632 50.968 116.416 50.68 115.75 49.924L117.55 49.24C118.162 50.086 118.414 50.518 118.936 51.598H119.962V50.32C119.962 49.78 119.926 49.276 119.872 48.916H121.834C121.798 49.24 121.78 49.636 121.78 50.248V51.598H123.058V50.248C123.058 49.672 123.04 49.258 123.004 48.916H124.966C124.912 49.258 124.876 49.744 124.876 50.32V51.598H126.01C126.64 50.698 126.982 50.068 127.306 49.186L129.16 49.87C128.728 50.59 128.44 51.04 128.044 51.598H128.548C129.484 51.598 130.042 51.562 130.582 51.49V53.29C130.024 53.236 129.322 53.2 128.44 53.2H126.64C126.298 53.92 126.226 54.082 125.974 54.532H128.062C128.944 54.532 129.394 54.514 129.916 54.46V56.17C129.358 56.098 128.908 56.08 128.062 56.08H123.364V56.944H127.126C127.936 56.944 128.476 56.926 128.98 56.854V58.474C128.476 58.402 127.918 58.384 127.126 58.384H123.364V59.284H128.386C129.412 59.284 130.042 59.248 130.564 59.176V60.976C129.898 60.904 129.232 60.868 128.404 60.868H124.786C125.398 61.39 126.208 61.876 127.234 62.308C128.386 62.794 129.322 63.046 130.978 63.334C130.474 64.018 130.258 64.414 129.952 65.17C126.928 64.342 124.894 63.244 123.274 61.606C123.328 62.29 123.328 62.452 123.328 62.884V63.766C123.328 64.522 123.364 65.08 123.454 65.584H121.33C121.402 65.062 121.438 64.468 121.438 63.748V62.884C121.438 62.47 121.438 62.398 121.492 61.66C120.646 62.524 119.98 63.046 118.9 63.64C117.748 64.27 116.65 64.738 115.228 65.152C114.94 64.522 114.598 63.982 114.13 63.424C116.758 62.866 118.576 62.074 120.016 60.868H116.668C115.822 60.868 115.174 60.904 114.49 60.976V59.176C115.066 59.248 115.678 59.284 116.65 59.284H121.42V58.384H117.856C117.064 58.384 116.524 58.402 116.02 58.474V56.854C116.524 56.926 117.046 56.944 117.856 56.944H121.42V56.08ZM121.006 54.532H123.976C124.246 54.01 124.39 53.686 124.57 53.2H120.466C120.718 53.74 120.826 54.01 121.006 54.532ZM136.252 64.432L134.074 64.558C134.056 64.234 134.038 64.126 133.984 63.712C133.642 61.534 133.516 60.148 133.516 58.33C133.516 56.008 133.732 53.956 134.254 51.292C134.452 50.284 134.488 50.104 134.524 49.618L136.9 49.87C136.468 50.932 136.054 52.948 135.766 55.252C135.586 56.602 135.514 57.664 135.496 59.23C135.496 59.626 135.478 59.77 135.46 60.22C135.658 59.59 135.694 59.464 136.396 57.844L137.836 58.492C136.846 60.58 136.234 62.668 136.234 63.946C136.234 64.054 136.234 64.198 136.252 64.432ZM138.736 53.65L138.772 51.49C139.582 51.706 140.536 51.778 142.102 51.778C144.1 51.778 145.81 51.616 146.998 51.292L147.106 53.47C146.962 53.488 146.692 53.524 145.828 53.632C144.676 53.776 143.308 53.848 141.976 53.848C140.662 53.848 140.644 53.848 138.736 53.65ZM139.978 56.62L141.742 57.448C140.842 58.492 140.464 59.266 140.464 60.04C140.464 61.066 141.454 61.606 143.326 61.606C144.91 61.606 146.476 61.354 147.61 60.922L147.79 63.208C147.538 63.226 147.466 63.244 147.052 63.316C145.612 63.55 144.514 63.658 143.326 63.658C141.094 63.658 139.654 63.154 138.862 62.092C138.52 61.642 138.322 60.976 138.322 60.328C138.322 59.158 138.862 57.952 139.978 56.62ZM157.186 49.186L159.544 49.204C159.454 49.798 159.418 50.68 159.418 51.994C159.418 52.246 159.418 52.3 159.436 53.164C161.596 53.146 163.576 52.93 164.71 52.552L164.89 54.73C164.53 54.748 164.53 54.748 163.72 54.838C162.208 55.036 160.912 55.126 159.49 55.162C159.526 56.566 159.562 57.376 159.688 59.14C160.696 59.446 161.542 59.824 162.496 60.364C163.144 60.724 163.45 60.94 164.818 61.894C165.052 62.056 165.142 62.128 165.358 62.254L163.954 64.288C163.63 63.892 163.342 63.622 162.676 63.1C161.812 62.434 161.254 62.074 160.3 61.624C160.066 61.498 159.922 61.426 159.724 61.3C159.742 61.444 159.76 61.606 159.76 61.876C159.76 63.892 158.338 64.954 155.656 64.954C153.82 64.954 152.542 64.432 151.876 63.406C151.606 62.956 151.426 62.362 151.426 61.804C151.426 59.932 153.28 58.582 155.872 58.582C156.538 58.582 157.186 58.654 157.546 58.762C157.528 58.708 157.528 58.708 157.528 58.582C157.456 57.934 157.294 53.02 157.276 50.77C157.258 49.87 157.258 49.69 157.186 49.186ZM157.582 60.706C156.916 60.544 156.592 60.508 155.908 60.508C154.558 60.508 153.658 61.048 153.658 61.84C153.658 62.272 153.856 62.56 154.27 62.776C154.612 62.938 155.098 63.046 155.584 63.046C156.268 63.046 156.862 62.866 157.222 62.56C157.474 62.344 157.6 62.002 157.6 61.552C157.6 61.228 157.582 60.724 157.582 60.706ZM174.592 56.53L174.628 56.566C176.266 55.918 177.058 55.738 178.408 55.738C181.486 55.738 183.466 57.322 183.466 59.788C183.466 61.498 182.62 62.866 181.018 63.766C179.848 64.432 178.318 64.792 176.662 64.792C175.15 64.792 173.89 64.504 173.17 63.964C172.486 63.46 172.09 62.704 172.09 61.894C172.09 60.4 173.386 59.32 175.186 59.32C176.446 59.32 177.544 59.842 178.3 60.796C178.66 61.246 178.858 61.642 179.128 62.416C180.622 61.858 181.27 61.084 181.27 59.806C181.27 58.402 179.884 57.484 177.706 57.484C175.078 57.484 172.45 58.546 170.29 60.508L169.066 58.564C169.696 58.258 170.416 57.772 171.604 56.872C173.278 55.594 175.618 53.578 176.986 52.192C177.022 52.156 177.202 51.976 177.31 51.868L177.292 51.85C176.608 51.94 175.456 52.012 172.198 52.156C171.802 52.174 171.676 52.192 171.334 52.246L171.244 50.086C171.856 50.158 172.378 50.194 173.368 50.194C174.898 50.194 177.094 50.104 178.84 49.978C179.47 49.924 179.668 49.888 179.956 49.744L181.072 51.328C180.766 51.49 180.64 51.598 180.136 52.066C179.236 52.894 177.922 54.064 177.31 54.586C176.986 54.856 175.69 55.828 175.33 56.062C174.88 56.368 174.88 56.368 174.592 56.53ZM177.184 62.938C176.86 61.696 176.176 61.048 175.168 61.048C174.52 61.048 174.106 61.372 174.106 61.876C174.106 62.596 174.916 63.01 176.248 63.01C176.59 63.01 176.68 63.01 177.184 62.938ZM201.34 57.106H199.234C199.414 58.33 199.468 58.618 199.702 59.356C200.494 58.834 200.944 58.438 201.538 57.754L202.798 58.996C202.438 59.284 202.438 59.284 201.358 60.166C201.106 60.4 200.818 60.598 200.368 60.886C201.034 62.074 201.682 62.758 202.942 63.676C202.384 64.27 202.042 64.72 201.682 65.368C200.278 64.054 199.504 63.046 198.856 61.678C198.154 60.202 197.884 59.23 197.596 57.106H196.606V62.668C197.434 62.452 197.776 62.362 198.802 62.02V63.766C197.524 64.216 196.516 64.486 194.122 65.062C193.762 65.152 193.672 65.17 193.294 65.296L192.862 63.298C193.384 63.298 193.834 63.244 194.788 63.064V57.106H193.798C193.672 59.464 193.528 60.58 193.15 61.966C192.808 63.208 192.394 64.198 191.764 65.35C191.206 64.684 190.918 64.396 190.252 63.874C191.818 61.354 192.124 59.338 192.124 51.85C192.124 50.608 192.106 50.122 192.052 49.564C192.664 49.618 193.42 49.654 194.176 49.654H200.494C201.34 49.654 201.952 49.618 202.492 49.546V51.472C202.078 51.418 201.556 51.4 200.62 51.4H193.906V53.29C193.906 54.118 193.888 54.568 193.87 55.45H201.124C201.88 55.45 202.276 55.432 202.69 55.36V57.178C202.33 57.124 201.952 57.106 201.34 57.106ZM188.272 54.046H187.624C187.174 54.046 186.814 54.064 186.364 54.136V52.21C186.796 52.282 187.102 52.3 187.642 52.3H188.272V50.77C188.272 49.924 188.254 49.474 188.164 48.952H190.234C190.162 49.51 190.144 49.906 190.144 50.77V52.3H190.702C191.116 52.3 191.332 52.282 191.638 52.228V54.1C191.296 54.064 191.062 54.046 190.72 54.046H190.144V56.764C190.576 56.584 190.828 56.458 191.53 56.116V57.934C190.792 58.312 190.576 58.42 190.144 58.618V63.658C190.144 65.026 189.676 65.422 188.056 65.422C187.714 65.422 187.624 65.422 186.76 65.386C186.67 64.612 186.598 64.306 186.328 63.514C186.832 63.586 187.426 63.64 187.786 63.64C188.182 63.64 188.272 63.55 188.272 63.136V59.374C187.66 59.608 187.246 59.77 186.76 59.932C186.652 59.968 186.598 59.986 186.49 60.04L186.202 58.06C186.76 57.97 187.372 57.808 188.272 57.484V54.046ZM201.754 52.552V54.298C201.394 54.244 201.034 54.226 200.458 54.226H195.76C195.184 54.226 194.914 54.244 194.554 54.28V52.552C194.86 52.606 195.166 52.624 195.76 52.624H200.44C201.07 52.624 201.394 52.606 201.754 52.552ZM213.67 51.346H211.852C211.24 51.346 210.808 51.364 210.358 51.436V49.492C210.754 49.564 211.132 49.582 211.852 49.582H214.426C215.002 49.582 215.398 49.564 215.74 49.51C215.704 49.924 215.704 50.176 215.704 50.482C215.704 52.246 216.118 54.064 216.892 55.702C217.81 57.682 218.89 58.924 220.852 60.328C220.348 60.94 220.042 61.444 219.664 62.218C218.35 61.228 217.612 60.508 216.784 59.41C215.884 58.204 215.38 57.106 214.768 55.144C214.318 57.052 213.814 58.186 212.806 59.536C212.14 60.454 211.582 61.03 210.376 62.002C209.89 61.354 209.62 61.066 208.954 60.436C210.052 59.644 210.592 59.104 211.33 58.132C212.284 56.854 212.968 55.378 213.328 53.848C213.508 53.11 213.58 52.588 213.67 51.346ZM204.616 50.482L206.056 49.132C207.352 50.266 208.324 51.274 209.206 52.426L207.712 53.884C206.596 52.372 206.02 51.742 204.616 50.482ZM204.346 57.61V55.63C204.814 55.702 205.102 55.72 205.786 55.72H207.262C207.802 55.72 208.216 55.702 208.63 55.63C208.576 56.224 208.558 56.602 208.558 57.61V61.372C208.828 61.948 208.99 62.128 209.584 62.524C210.448 63.064 211.384 63.19 214.48 63.19C217.09 63.19 219.376 63.064 221.158 62.812C220.852 63.676 220.744 64.126 220.618 64.954C219.016 65.008 216.406 65.062 215.164 65.062C212.212 65.062 210.754 64.954 209.818 64.648C208.882 64.36 208.234 63.874 207.532 62.956C206.956 63.532 206.524 63.91 205.678 64.558C205.372 64.792 205.264 64.882 205.138 64.99C204.958 65.134 204.958 65.134 204.868 65.206L203.986 63.154C204.76 62.83 205.894 62.074 206.668 61.39V57.52H205.57C205.066 57.52 204.796 57.538 204.346 57.61ZM224.74 52.12L224.65 50.014C225.064 50.086 225.514 50.104 226.468 50.104C227.548 50.104 229.15 50.032 229.816 49.942C230.176 49.906 230.302 49.87 230.536 49.726L231.958 50.95C231.796 51.166 231.706 51.364 231.58 51.706C231.49 51.922 230.392 55.234 230.23 55.792C231.634 55.99 232.84 56.332 234.208 56.926C234.352 56.008 234.388 55.27 234.388 53.596C234.388 53.2 234.37 53.002 234.316 52.642L236.584 52.732C236.512 53.11 236.494 53.254 236.476 53.938C236.422 55.522 236.332 56.602 236.152 57.754C236.728 58.042 237.52 58.456 238.078 58.78C238.564 59.068 238.636 59.086 238.906 59.212L238.096 61.588C237.574 61.138 236.53 60.436 235.612 59.914C235.108 61.246 234.568 62.128 233.65 63.082C232.858 63.91 231.958 64.576 230.932 65.116C230.176 64.18 229.996 64 229.294 63.496C230.644 62.848 231.346 62.38 232.084 61.606C232.804 60.832 233.398 59.86 233.686 58.942C232.408 58.33 231.346 57.988 229.636 57.7C228.844 60.076 228.376 61.228 227.854 62.128C227.188 63.28 226.378 63.838 225.388 63.838C223.732 63.838 222.508 62.38 222.508 60.418C222.508 58.762 223.318 57.358 224.74 56.476C225.676 55.9 226.63 55.666 228.142 55.612C228.61 54.19 228.826 53.506 229.276 51.85C228.358 51.922 227.926 51.94 226.162 52.012C225.424 52.048 225.1 52.066 224.74 52.12ZM227.584 57.502C226.378 57.682 225.748 57.97 225.19 58.582C224.74 59.068 224.506 59.68 224.506 60.31C224.506 61.048 224.902 61.642 225.388 61.642C225.73 61.642 226 61.318 226.414 60.508C226.774 59.788 227.206 58.672 227.584 57.502ZM240.958 53.794L240.832 51.436C241.228 51.454 241.426 51.454 241.516 51.454C241.84 51.454 241.84 51.454 244.486 51.274C245.8 51.202 248.878 51.04 253.684 50.806C255.16 50.734 255.25 50.734 255.538 50.662L255.664 52.948C255.466 52.93 255.466 52.93 255.286 52.93C254.206 52.93 252.874 53.29 251.722 53.902C249.436 55.09 248.086 56.89 248.086 58.708C248.086 60.112 248.968 61.192 250.48 61.642C251.362 61.912 252.514 62.11 253.162 62.11C253.18 62.11 253.342 62.11 253.522 62.092L253.198 64.54C252.964 64.486 252.928 64.486 252.586 64.432C250.606 64.18 249.472 63.856 248.374 63.244C246.718 62.308 245.8 60.778 245.8 58.906C245.8 57.376 246.412 55.864 247.51 54.676C248.194 53.938 248.842 53.452 250.012 52.858C248.554 53.074 247.438 53.182 243.946 53.434C242.344 53.56 241.516 53.668 240.958 53.794ZM251.974 55.522L253.234 54.892C254.026 55.738 254.512 56.422 255.124 57.538L253.864 58.204C253.27 57.106 252.766 56.386 251.974 55.522ZM257.266 56.368L256.024 57.07C255.484 56.08 254.89 55.234 254.188 54.46L255.394 53.83C256.204 54.658 256.708 55.342 257.266 56.368ZM85.672 79.956V77.814C83.314 78.03 82.414 78.084 80.056 78.138C79.858 77.4 79.858 77.4 79.39 76.284C79.786 76.284 80.002 76.284 80.272 76.284C82.846 76.284 86.176 76.032 88.336 75.672C90.046 75.384 90.694 75.222 91.666 74.808L93.142 76.608C91.594 77.004 89.146 77.454 87.688 77.616V79.956H91.414C92.44 79.956 93.07 79.92 93.664 79.848V81.864C93.052 81.792 92.368 81.756 91.45 81.756H87.688V83.934H92.296C93.304 83.934 93.898 83.898 94.492 83.826V85.86C93.862 85.788 93.268 85.752 92.296 85.752H87.688V89.28C87.688 90.072 87.436 90.63 86.986 90.828C86.572 91.008 85.798 91.116 84.97 91.116C84.43 91.116 83.548 91.08 82.522 90.99C82.432 90.198 82.324 89.784 81.982 89.028C83.278 89.208 84.25 89.28 84.988 89.28C85.51 89.28 85.672 89.154 85.672 88.722V85.752H80.65C79.66 85.752 79.066 85.788 78.436 85.86V83.826C79.03 83.898 79.624 83.934 80.65 83.934H85.672V81.756H81.658C80.866 81.756 80.02 81.792 79.408 81.864V79.848C80.002 79.92 80.614 79.956 81.64 79.956H85.672ZM108.082 84.132V87.786C108.082 88.47 108.1 88.884 108.136 89.352C108.532 89.388 109.18 89.442 109.504 89.442C110.008 89.442 110.17 89.316 110.17 88.956V81.432H106.624C105.994 81.432 105.418 81.45 104.968 81.486C105.004 80.964 105.022 80.622 105.022 79.848V77.094C105.022 76.482 105.004 75.978 104.968 75.42C105.454 75.474 105.886 75.492 106.804 75.492H110.26C111.16 75.492 111.61 75.474 112.114 75.42C112.06 76.068 112.042 76.518 112.042 77.418V89.208C112.042 90.288 111.826 90.756 111.178 91.026C110.8 91.188 110.26 91.242 109.144 91.242C108.892 91.242 108.82 91.242 107.902 91.188C107.794 90.378 107.704 90.054 107.434 89.334C106.912 89.316 106.57 89.316 106.426 89.316H102.61V90.324H100.702C100.774 89.892 100.828 89.172 100.828 88.524V84.132C100.828 83.502 100.81 82.998 100.774 82.512C101.296 82.566 101.71 82.584 102.448 82.584H106.462C107.218 82.584 107.614 82.566 108.136 82.512C108.1 82.98 108.082 83.43 108.082 84.132ZM106.804 76.95V77.85H110.17V76.95H106.804ZM106.804 79.128V80.046H110.17V79.128H106.804ZM102.61 84.096V85.176H106.282V84.096H102.61ZM102.61 86.634V87.804H106.282V86.634H102.61ZM98.848 81.432V89.208C98.848 90.288 98.884 90.936 98.956 91.422H96.85C96.922 90.882 96.958 90.306 96.958 89.19V77.436C96.958 76.5 96.94 75.996 96.886 75.42C97.39 75.474 97.858 75.492 98.74 75.492H101.926C102.862 75.492 103.276 75.474 103.762 75.42C103.726 75.996 103.708 76.392 103.708 77.094V79.848C103.708 80.676 103.726 81.09 103.762 81.486C103.294 81.45 102.736 81.432 102.106 81.432H98.848ZM98.848 76.95V77.85H101.944V76.95H98.848ZM98.848 79.128V80.046H101.944V79.128H98.848ZM119.764 79.218L121.51 78.732C122.014 78.606 122.32 78.534 123.04 78.39C123.04 78.03 123.04 78.03 123.022 77.4C123.004 75.834 123.004 75.708 122.914 75.24H125.182C125.11 75.798 125.11 75.798 125.092 78.12C125.524 78.084 125.776 78.066 126.136 78.066C128.674 78.066 130.348 79.524 130.348 81.738C130.348 82.944 129.808 84.114 128.89 84.87C128.044 85.572 126.928 85.932 125.56 85.932C124.678 85.932 123.724 85.752 122.77 85.428C122.752 84.564 122.698 84.222 122.446 83.214C123.526 83.7 124.408 83.916 125.326 83.916C126.1 83.916 126.802 83.7 127.36 83.322C127.828 82.98 128.098 82.422 128.098 81.792C128.098 80.658 127.216 79.992 125.704 79.992C124.426 79.992 123.346 80.208 120.304 81.108C121.42 85.014 121.51 85.356 122.59 89.856C122.68 90.234 122.716 90.36 122.86 90.72L120.484 91.26C120.394 89.82 119.404 85.554 118.288 81.684C118.054 81.792 118.018 81.792 117.388 82.008C116.74 82.206 115.534 82.692 115.066 82.926L114.364 80.82C114.886 80.712 115.12 80.658 116.002 80.352C116.74 80.1 116.884 80.064 117.748 79.794C117.208 78.03 116.866 77.076 116.524 76.446L118.756 75.816C118.864 76.392 118.864 76.392 119.386 77.94C119.53 78.39 119.602 78.624 119.764 79.218ZM139.42 77.67H137.17C136.684 77.67 136.144 77.706 135.442 77.76V75.6C135.964 75.672 136.342 75.69 137.134 75.69H139.996C140.734 75.69 141.22 75.672 141.634 75.6C141.58 76.122 141.58 76.284 141.58 76.734C141.58 79.29 142.228 81.666 143.506 83.862C144.262 85.122 145.144 86.202 146.386 87.318C147.304 88.164 147.826 88.542 149.05 89.262C148.366 89.928 148.024 90.396 147.52 91.296C145.72 90.036 144.37 88.722 143.146 87.066C142.48 86.184 142.084 85.5 141.562 84.402C141.094 83.412 140.932 82.962 140.644 81.846C139.996 84.15 139.276 85.68 138.07 87.282C136.918 88.776 135.568 90.036 133.606 91.35C133.228 90.558 132.814 90.018 132.13 89.46C133.66 88.578 134.542 87.894 135.748 86.634C137.152 85.176 138.25 83.25 138.826 81.306C139.186 80.064 139.348 79.128 139.42 77.67ZM158.68 78.444H163.234C164.314 78.444 164.944 78.426 165.556 78.354C165.484 79.056 165.484 79.056 165.448 81.072C165.394 83.538 165.214 86.58 165.034 87.768C164.8 89.424 164.548 90.054 163.99 90.45C163.522 90.792 162.856 90.936 161.848 90.936C161.02 90.936 160.228 90.882 159.094 90.738C158.986 89.82 158.86 89.298 158.59 88.56C159.742 88.794 160.786 88.92 161.686 88.92C162.532 88.92 162.802 88.596 163 87.39C163.234 86.04 163.396 83.25 163.414 80.37H158.536C158.23 83.034 157.744 84.852 156.898 86.364C155.854 88.254 154.216 89.766 151.714 91.17C151.318 90.414 150.85 89.838 150.22 89.298C152.686 88.218 154.324 86.778 155.296 84.816C155.854 83.718 156.196 82.332 156.43 80.37H153.298C152.38 80.37 151.678 80.406 151.066 80.478V78.318C151.714 78.408 152.326 78.444 153.352 78.444H156.556C156.592 77.724 156.592 77.544 156.592 76.608C156.592 75.744 156.556 75.222 156.484 74.862H158.878C158.788 75.33 158.788 75.33 158.68 78.444ZM171.496 77.688L172.306 75.6C175.78 76.014 178.03 76.464 182.044 77.544L181.324 79.758C178.354 78.768 174.664 77.994 171.496 77.688ZM171.208 82.638L172.036 80.568C174.916 80.928 177.796 81.576 181.414 82.656L180.712 84.87C179.29 84.312 178.012 83.934 175.762 83.43C174.232 83.07 173.062 82.872 171.208 82.638ZM169.75 87.696L170.596 85.644C174.952 86.22 178.354 87.03 182.548 88.488L181.774 90.756C179.902 89.928 178.246 89.406 175.402 88.74C173.188 88.218 171.712 87.948 169.75 87.696ZM202.294 88.722L200.566 90.594C199.072 88.758 197.002 86.742 195.04 85.248C193.006 87.516 190.936 89.1 188.182 90.45C187.678 89.514 187.462 89.226 186.724 88.452C188.11 87.912 188.974 87.426 190.324 86.472C193.042 84.564 195.202 81.954 196.372 79.146L196.57 78.678C196.282 78.696 196.282 78.696 190.612 78.786C189.748 78.804 189.262 78.84 188.65 78.93L188.578 76.626C189.082 76.716 189.424 76.734 190.162 76.734C190.234 76.734 190.378 76.734 190.594 76.734L196.93 76.644C197.938 76.626 198.082 76.608 198.532 76.446L199.72 77.67C199.486 77.94 199.342 78.192 199.144 78.642C198.316 80.568 197.434 82.134 196.336 83.61C197.47 84.366 198.442 85.122 199.666 86.22C200.116 86.616 200.116 86.616 202.294 88.722ZM213.904 78.462C213.562 81.288 212.932 83.772 212.032 85.806C211.006 88.128 209.854 89.19 208.378 89.19C206.326 89.19 204.85 87.102 204.85 84.204C204.85 82.224 205.552 80.37 206.83 78.966C208.342 77.31 210.466 76.446 213.022 76.446C217.342 76.446 220.15 79.074 220.15 83.124C220.15 86.238 218.53 88.722 215.776 89.838C214.912 90.198 214.21 90.378 212.95 90.594C212.644 89.64 212.428 89.244 211.852 88.488C213.508 88.272 214.588 87.984 215.434 87.498C217 86.634 217.936 84.924 217.936 82.998C217.936 81.27 217.162 79.866 215.722 79.002C215.164 78.678 214.696 78.534 213.904 78.462ZM211.708 78.48C210.772 78.588 210.124 78.84 209.386 79.362C207.874 80.442 206.938 82.296 206.938 84.222C206.938 85.698 207.568 86.868 208.36 86.868C208.954 86.868 209.566 86.112 210.214 84.564C210.898 82.944 211.492 80.514 211.708 78.48ZM227.404 83.916L227.422 82.53C226.864 82.548 226.666 82.566 226.216 82.602V81.81C225.154 82.53 224.488 82.908 223.048 83.556C222.742 82.908 222.472 82.476 221.986 81.9C223.372 81.378 224.218 80.946 225.424 80.154C224.416 78.984 223.804 78.426 222.904 77.796L224.38 76.698C224.668 76.932 224.668 76.932 224.956 77.166V75.294C225.298 75.348 225.82 75.384 226.45 75.384H229.78C230.626 75.384 230.914 75.366 231.328 75.312C231.508 76.032 231.76 76.446 232.444 77.274C233.02 76.698 233.146 76.59 233.506 76.122C233.758 75.798 233.812 75.744 233.884 75.6C233.974 75.456 233.974 75.456 234.028 75.366L235.684 76.284C235.63 76.356 235.396 76.626 234.982 77.112C234.658 77.49 234.1 78.048 233.65 78.462C234.136 78.876 234.334 79.038 234.712 79.326C235.486 78.624 236.152 77.85 236.584 77.148L238.24 78.084C238.132 78.192 238.096 78.246 237.736 78.642C237.268 79.218 236.746 79.74 236.116 80.298C237.088 80.874 237.682 81.162 238.996 81.666C238.582 82.206 238.474 82.404 237.988 83.448C236.512 82.764 235.99 82.476 235.018 81.828V82.602C234.478 82.548 234.154 82.53 233.29 82.53V84.474H236.152C237.034 84.474 237.502 84.456 238.042 84.366V86.292C237.484 86.22 236.962 86.184 236.152 86.184H233.29V88.866C233.29 89.244 233.308 89.28 233.578 89.352C233.812 89.424 234.118 89.442 234.73 89.442C235.72 89.442 236.152 89.352 236.35 89.1C236.512 88.884 236.62 88.29 236.674 87.3C237.376 87.642 237.898 87.822 238.618 87.93C238.222 90.972 237.898 91.242 234.442 91.242C231.994 91.242 231.418 90.936 231.418 89.676V86.184H229.096C228.862 87.264 228.52 88.056 227.98 88.776C227.08 89.964 226 90.684 223.786 91.548C223.444 90.882 223.084 90.36 222.508 89.784C224.182 89.316 225.046 88.902 225.838 88.182C226.468 87.624 226.846 87.048 227.116 86.184H224.812C223.984 86.184 223.516 86.202 222.922 86.292V84.366C223.48 84.456 223.93 84.474 224.812 84.474H227.386C227.404 84.24 227.404 84.114 227.404 83.916ZM229.33 82.53L229.312 84.06C229.312 84.222 229.312 84.294 229.312 84.474H231.418V82.53H229.33ZM228.682 77.094H226.054C225.73 77.094 225.334 77.112 224.956 77.166C225.91 77.958 226.324 78.354 226.918 79.02C227.674 78.336 228.142 77.832 228.682 77.094ZM227.998 80.838H233.236C233.47 80.838 233.47 80.838 233.614 80.838C232.336 79.794 231.544 78.966 230.554 77.58C229.546 78.984 228.79 79.794 227.512 80.838C227.71 80.838 227.8 80.838 227.998 80.838ZM247.69 80.208H244.018C243.28 81.756 242.56 82.836 241.57 83.988C241.102 83.304 240.688 82.872 240.094 82.458C241.444 81.09 242.524 79.2 243.136 77.202C243.37 76.428 243.46 76.05 243.532 75.528L245.584 76.032C245.548 76.176 245.548 76.176 245.422 76.5C245.368 76.626 245.368 76.644 245.242 77.094C245.152 77.364 244.99 77.814 244.756 78.444H247.69V77.076C247.69 76.14 247.654 75.582 247.564 74.916H249.868C249.796 75.51 249.76 76.104 249.76 77.058V78.444H253.504C254.422 78.444 255.196 78.408 255.934 78.336V80.316C255.16 80.244 254.422 80.208 253.558 80.208H249.76V83.52H252.874C253.774 83.52 254.494 83.484 255.088 83.412V85.392C254.44 85.32 253.72 85.284 252.874 85.284H249.76V89.1H254.08C255.106 89.1 255.862 89.064 256.582 88.974V91.026C255.736 90.936 255.088 90.9 254.134 90.9H243.118C242.182 90.9 241.408 90.936 240.562 91.026V88.974C241.336 89.064 242.11 89.1 243.064 89.1H247.69V85.284H244.918C244.072 85.284 243.352 85.32 242.74 85.392V83.412C243.316 83.484 243.91 83.52 244.9 83.52H247.69V80.208Z" fill="white"/>
<path d="M265.728 198.729C245.29 196.178 226.653 210.681 224.102 231.119C223.098 239.165 224.739 246.931 228.342 253.549L225.192 259.127C224.867 259.707 225.353 260.405 226.009 260.295L232.189 259.282C238.041 266.472 246.567 271.507 256.495 272.746C276.933 275.297 295.57 260.794 298.121 240.355C300.673 219.917 286.17 201.28 265.731 198.729H265.728Z" stroke="#20AAE1" stroke-width="1.93028" stroke-linecap="round" stroke-linejoin="round"/>
<path d="M271.966 230.354C274.971 230.354 277.413 232.799 277.413 235.8C277.413 238.802 274.968 241.247 271.966 241.247C268.965 241.247 266.52 238.802 266.52 235.8C266.52 232.799 268.965 230.354 271.966 230.354ZM271.966 229.067C268.247 229.067 265.233 232.081 265.233 235.8C265.233 239.519 268.247 242.534 271.966 242.534C275.685 242.534 278.7 239.519 278.7 235.8C278.7 232.081 275.685 229.067 271.966 229.067Z" fill="#20A7DE"/>
<path d="M287.157 230.354C290.162 230.354 292.604 232.799 292.604 235.8C292.604 238.802 290.159 241.247 287.157 241.247C284.156 241.247 281.711 238.802 281.711 235.8C281.711 232.799 284.156 230.354 287.157 230.354ZM287.157 229.067C283.438 229.067 280.424 232.081 280.424 235.8C280.424 239.519 283.438 242.534 287.157 242.534C290.876 242.534 293.891 239.519 293.891 235.8C293.891 232.081 290.876 229.067 287.157 229.067Z" fill="#20A7DE"/>
<path d="M239.287 231.376C239.02 234.162 238.405 236.363 237.446 238.074C238.074 238.93 238.839 239.647 239.76 240.146C239.415 240.426 238.942 241.002 238.711 241.397C237.842 240.873 237.125 240.22 236.514 239.441C235.86 240.233 235.108 240.873 234.239 241.397C234.046 241.066 233.702 240.593 233.396 240.284V241.488H231.926V239.441C230.456 239.696 228.96 239.927 227.785 240.107L227.493 238.586C227.837 238.547 228.233 238.508 228.67 238.457V231.669H227.802V230.263H234.22V231.17H238.042L238.296 231.132L239.293 231.373L239.287 231.376ZM230.108 231.669V232.882H231.923V231.669H230.108ZM230.108 235.529H231.923V234.252H230.108V235.529ZM230.108 238.277C230.697 238.2 231.311 238.11 231.923 238.036V236.884H230.108V238.277ZM233.393 240.078C234.236 239.605 234.979 238.914 235.603 238.045C234.825 236.626 234.274 234.912 233.879 232.985L235.336 232.692C235.59 234.059 235.976 235.349 236.514 236.475C237.012 235.375 237.395 234.098 237.614 232.666H233.843V231.669H233.396V240.078H233.393Z" fill="#20A7DE"/>
<path d="M245.624 235.671C245.624 235.671 245.611 236.092 245.573 236.298C245.367 239.123 245.139 240.361 244.691 240.86C244.334 241.243 243.977 241.359 243.427 241.41C242.98 241.462 242.201 241.461 241.419 241.436C241.381 240.95 241.152 240.284 240.856 239.837C241.622 239.914 242.443 239.927 242.787 239.927C243.041 239.927 243.195 239.901 243.363 239.773C243.63 239.554 243.797 238.749 243.939 237.077H241.342C241.304 237.282 241.265 237.472 241.226 237.652L239.692 237.408C239.985 236.208 240.306 234.377 240.47 232.907H244.013V231.45H240.165V230.031H245.521V234.326H241.815C241.751 234.773 241.674 235.233 241.6 235.667H245.628L245.624 235.671ZM249.919 229.738V241.487H248.397V229.738H249.919Z" fill="#20A7DE"/>
<path d="M261.038 239.863C261.421 239.863 261.498 239.622 261.55 238.113C261.855 238.367 262.521 238.624 262.93 238.727C262.776 240.748 262.367 241.298 261.18 241.298H259.697C258.265 241.298 257.934 240.825 257.934 239.38V236.272H256.068C255.788 238.547 255.135 240.452 252.194 241.565C252.014 241.156 251.593 240.542 251.249 240.223C253.793 239.393 254.279 237.961 254.469 236.272H251.451V234.802H256.348V232.73H254.15C253.858 233.383 253.523 233.995 253.166 234.468C252.822 234.252 252.181 233.943 251.824 233.802C252.654 232.753 253.256 231.029 253.526 229.722L255.087 230.028C254.971 230.424 254.845 230.832 254.704 231.267H256.354V229.542H257.902V231.267H261.826V232.724H257.902V234.796H262.824V236.266H259.475V239.374C259.475 239.795 259.539 239.86 259.935 239.86H261.048L261.038 239.863Z" fill="#20A7DE"/>
<path d="M150.436 185.539C148.38 165.042 130.1 150.096 109.607 152.151C89.1108 154.207 74.164 172.487 76.2198 192.98C78.2755 213.476 96.5553 228.423 117.048 226.367C122.797 225.792 128.109 223.938 132.732 221.117L138.516 223.401C139.134 223.646 139.758 223.067 139.562 222.433L137.96 217.263C146.672 209.587 151.684 197.97 150.436 185.539Z" stroke="#20AAE1" stroke-width="1.93028" stroke-linecap="round" stroke-linejoin="round"/>
<path d="M127.085 183.875L131.879 192.237H122.292L127.085 183.875ZM127.085 182.247C126.764 182.247 126.442 182.408 126.262 182.727L120.889 192.098C120.526 192.732 120.983 193.523 121.713 193.523H132.461C133.192 193.523 133.648 192.732 133.285 192.098L127.912 182.727C127.729 182.408 127.407 182.247 127.089 182.247H127.085Z" fill="#20A7DE"/>
<path d="M140.742 183.875L145.536 192.237H135.949L140.742 183.875ZM140.742 182.247C140.42 182.247 140.099 182.408 139.919 182.727L134.546 192.098C134.182 192.732 134.639 193.523 135.37 193.523H146.118C146.848 193.523 147.305 192.732 146.942 192.098L141.569 182.727C141.386 182.408 141.064 182.247 140.745 182.247H140.742Z" fill="#20A7DE"/>
<path d="M93.1612 184.525C92.8942 187.312 92.2797 189.512 91.321 191.224C91.9483 192.079 92.714 192.797 93.6341 193.295C93.2899 193.575 92.817 194.151 92.5853 194.547C91.7167 194.022 90.9993 193.369 90.388 192.591C89.7349 193.382 88.9821 194.022 88.1135 194.547C87.9205 194.215 87.5763 193.743 87.2706 193.434V194.637H85.8004V192.591C84.3302 192.845 82.8342 193.077 81.6599 193.257L81.3672 191.735C81.7114 191.696 82.1071 191.658 82.5447 191.606V184.818H81.676V183.412H88.0942V184.32H91.9162L92.1703 184.281L93.1676 184.522L93.1612 184.525ZM83.9827 184.818V186.031H85.7972V184.818H83.9827ZM83.9827 188.679H85.7972V187.402H83.9827V188.679ZM83.9827 191.426C84.5715 191.349 85.1859 191.259 85.7972 191.185V190.033H83.9827V191.426ZM87.2674 193.228C88.1103 192.755 88.8535 192.063 89.4776 191.195C88.699 189.776 88.1489 188.061 87.7532 186.134L89.2106 185.841C89.4647 187.209 89.8508 188.499 90.388 189.625C90.8867 188.524 91.2695 187.247 91.4883 185.816H87.7178V184.818H87.2706V193.228H87.2674Z" fill="#20A7DE"/>
<path d="M100.522 188.82C100.522 188.82 100.509 189.242 100.47 189.448C100.264 192.272 100.036 193.511 99.5888 194.01C99.2317 194.392 98.8746 194.508 98.3244 194.56C97.8773 194.611 97.0987 194.611 96.317 194.585C96.2783 194.1 96.0499 193.434 95.754 192.987C96.5196 193.064 97.34 193.077 97.6842 193.077C97.9384 193.077 98.0928 193.051 98.2601 192.922C98.5271 192.703 98.6944 191.899 98.836 190.226H96.2397C96.2011 190.432 96.1625 190.622 96.1239 190.802L94.5894 190.558C94.8821 189.358 95.2038 187.527 95.3679 186.057H98.91V184.599H95.0623V183.181H100.419V187.476H96.7127C96.6483 187.923 96.5711 188.383 96.4971 188.817H100.525L100.522 188.82ZM104.817 182.888V194.637H103.295V182.888H104.817Z" fill="#20A7DE"/>
<path d="M116.193 193.012C116.576 193.012 116.653 192.771 116.705 191.262C117.01 191.516 117.676 191.774 118.085 191.877C117.93 193.897 117.522 194.447 116.335 194.447H114.852C113.42 194.447 113.089 193.974 113.089 192.53V189.422H111.223C110.943 191.696 110.29 193.601 107.349 194.714C107.169 194.305 106.748 193.691 106.403 193.373C108.948 192.543 109.434 191.111 109.624 189.422H106.606V187.952H111.502V185.88H109.305C109.012 186.533 108.678 187.144 108.321 187.617C107.977 187.402 107.336 187.093 106.979 186.951C107.809 185.902 108.411 184.178 108.681 182.872L110.241 183.177C110.126 183.573 110 183.982 109.859 184.416H111.509V182.692H113.056V184.416H116.981V185.873H113.056V187.945H117.979V189.415H114.63V192.523C114.63 192.945 114.694 193.009 115.09 193.009H116.203L116.193 193.012Z" fill="#20A7DE"/>
<path d="M118.071 272.871L113.4 269.267C113.834 263.609 112.978 257.766 110.659 252.162C102.77 233.136 80.9515 224.102 61.9254 231.991C42.8993 239.879 33.8656 261.698 41.754 280.724C49.6424 299.753 71.461 308.783 90.4871 300.895C101.799 296.208 109.578 286.592 112.37 275.57L117.775 274.264C118.418 274.109 118.598 273.276 118.071 272.871Z" stroke="#20AAE1" stroke-width="1.93028" stroke-linecap="round" stroke-linejoin="round"/>
<path d="M108.288 261.729V271.902H98.1155V261.729H108.288ZM109.575 260.442H96.8286V273.189H109.575V260.442Z" fill="#20A7DE"/>
<path d="M93.6245 261.729V271.902H83.4519V261.729H93.6245ZM94.9113 260.443H82.165V273.189H94.9113V260.443Z" fill="#20A7DE"/>
<path d="M54.7852 261.945C54.5182 264.731 53.9037 266.932 52.945 268.643C53.5724 269.499 54.338 270.216 55.2581 270.715C54.9139 270.995 54.441 271.571 54.2093 271.967C53.3407 271.442 52.6233 270.792 52.012 270.011C51.359 270.802 50.6062 271.442 49.7375 271.967C49.5445 271.635 49.2003 271.162 48.8946 270.853V272.057H47.4244V270.011C45.9542 270.265 44.4582 270.496 43.284 270.676L42.9912 269.155C43.3354 269.116 43.7311 269.078 44.1687 269.026V262.238H43.3001V260.832H49.7182V261.739H53.5402L53.7943 261.701L54.7916 261.945H54.7852ZM45.6067 262.238V263.451H47.4212V262.238H45.6067ZM45.6067 266.098H47.4212V264.821H45.6067V266.098ZM45.6067 268.846C46.1955 268.769 46.8099 268.679 47.4212 268.605V267.453H45.6067V268.846ZM48.8914 270.647C49.7343 270.175 50.4775 269.483 51.1016 268.614C50.3231 267.196 49.7729 265.484 49.3772 263.554L50.8346 263.261C51.0887 264.628 51.4748 265.922 52.012 267.044C52.5107 265.944 52.8935 264.667 53.1123 263.235H49.3418V262.238H48.8946V270.647H48.8914Z" fill="#20A7DE"/>
<path d="M61.3806 266.24C61.3806 266.24 61.3678 266.662 61.3292 266.868C61.1233 269.692 60.8949 270.931 60.4477 271.433C60.0906 271.816 59.7302 271.931 59.1833 271.983C58.7362 272.034 57.9576 272.034 57.1758 272.009C57.1372 271.523 56.9088 270.857 56.6128 270.41C57.3785 270.487 58.1989 270.5 58.5431 270.5C58.7973 270.5 58.9517 270.474 59.119 270.345C59.386 270.127 59.5533 269.322 59.6949 267.649H57.0986C57.06 267.855 57.0214 268.045 56.9828 268.225L55.4482 267.981C55.741 266.781 56.0627 264.95 56.2268 263.48H59.7689V262.023H55.9212V260.604H61.2777V264.899H57.5716C57.5072 265.346 57.43 265.806 57.356 266.24H61.3839H61.3806ZM65.6755 260.308V272.057H64.1538V260.308H65.6755Z" fill="#20A7DE"/>
<path d="M77.0515 270.432C77.4343 270.432 77.5115 270.187 77.563 268.681C77.8686 268.936 78.5345 269.193 78.9431 269.296C78.7887 271.316 78.3801 271.866 77.193 271.866H75.7099C74.2783 271.866 73.9469 271.394 73.9469 269.949V266.841H72.081C71.8011 269.116 71.148 271.02 68.2076 272.133C68.0274 271.725 67.606 271.11 67.2617 270.792C69.8065 269.962 70.2923 268.53 70.4821 266.841H67.4644V265.371H72.3609V263.299H70.1636C69.8708 263.952 69.5362 264.564 69.1791 265.036C68.8349 264.818 68.1947 264.512 67.8376 264.371C68.6676 263.322 69.2692 261.597 69.5394 260.291L71.0998 260.6C70.9839 260.996 70.8585 261.404 70.7169 261.839H72.3641V260.114H73.9115V261.839H77.8364V263.296H73.9115V265.368H78.8337V266.838H75.4847V269.946C75.4847 270.367 75.5491 270.432 75.9448 270.432H77.0579H77.0515Z" fill="#20A7DE"/>
<path d="M161.727 232.645C164.552 238.252 171.047 241.775 177.288 241.083" stroke="#20ACE3" stroke-width="1.93028" stroke-linecap="round" stroke-linejoin="round"/>
<path d="M171.024 230.212C176.024 236.479 182.728 241.369 190.224 244.22" stroke="#20ACE3" stroke-width="1.93028" stroke-linecap="round" stroke-linejoin="round"/>
<path d="M162.979 236.965C162.786 238.249 162.303 240.295 160.949 242.415C160.17 243.634 159.314 244.548 158.594 245.201" stroke="#20ACE3" stroke-width="1.93028" stroke-linecap="round" stroke-linejoin="round"/>
<path d="M156.687 237.876C157.513 245.703 156.635 253.707 154.129 261.168" stroke="#20ACE3" stroke-width="1.93028" stroke-linecap="round" stroke-linejoin="round"/>
<path d="M177.521 211.562C186.039 211.813 193.236 218.656 196.534 226.519C199.831 234.378 200.018 243.142 200.153 251.667C200.205 254.884 200.233 258.221 198.927 261.161C197.621 264.101 194.575 266.53 191.393 266.048" stroke="#20ACE3" stroke-width="1.93028" stroke-linecap="round" stroke-linejoin="round"/>
<path d="M173.788 210.816C167.579 208.114 160.07 211.163 155.579 216.23C151.088 221.297 148.929 227.96 146.883 234.417C144.866 240.784 142.83 247.301 143.048 253.977C143.267 260.653 146.182 267.631 151.979 270.944" stroke="#20ACE3" stroke-width="1.93028" stroke-linecap="round" stroke-linejoin="round"/>
<path d="M156.277 255.76C158.011 260.09 159.79 264.501 162.757 268.068C165.723 271.636 170.127 274.287 174.699 273.917C178.646 273.599 182.169 271.08 184.64 267.927C186.93 265.003 188.455 261.551 189.9 258.102" stroke="#20ACE3" stroke-width="1.93028" stroke-linecap="round" stroke-linejoin="round"/>
<path d="M163.358 270.185C163.41 271.951 163.458 274.399 163.51 276.413" stroke="#20ACE3" stroke-width="1.93028" stroke-linecap="round" stroke-linejoin="round"/>
<path d="M185.733 268.274C185.795 270.43 185.856 275.519 185.917 277.671" stroke="#20ACE3" stroke-width="1.93028" stroke-linecap="round" stroke-linejoin="round"/>
<path d="M190.607 249.564C190.781 253.286 190.485 257.031 189.735 260.682" stroke="#20ACE3" stroke-width="1.93028" stroke-linecap="round" stroke-linejoin="round"/>
<path d="M136.454 284.064C141.228 279.778 147.054 276.677 153.273 275.11C156.03 274.415 158.896 274.007 161.454 272.768C161.322 272.836 161.19 272.903 161.058 272.971" stroke="#20ACE3" stroke-width="1.93028" stroke-linecap="round" stroke-linejoin="round"/>
<path d="M213.037 284.064C208.263 279.779 202.437 276.678 196.218 275.111C193.461 274.416 190.595 274.007 188.037 272.769C188.169 272.836 188.301 272.904 188.433 272.971" stroke="#20ACE3" stroke-width="1.93028" stroke-linecap="round" stroke-linejoin="round"/>
<path d="M193.039 277.472C192.023 283.019 188.326 288.012 183.317 290.605C181.544 291.522 179.621 292.133 177.648 292.432" stroke="#20ACE3" stroke-width="1.93028" stroke-linecap="round" stroke-linejoin="round"/>
<path d="M167.759 309.733C164.809 305.338 160.55 302.835 157.458 298.537C156.812 297.64 156.384 296.684 156.11 295.529C155.843 294.4 156.371 293.988 157.51 294.207C158.649 294.426 159.562 295.246 160.411 296.034C164.108 299.46 167.808 302.887 171.504 306.313" stroke="#20ACE3" stroke-width="1.93028" stroke-linecap="round" stroke-linejoin="round"/>
<path d="M163.645 312.838C160.267 309.785 157.256 306.32 154.702 302.549C154.37 302.06 154.039 301.546 153.923 300.967C153.811 300.384 153.962 299.712 154.444 299.368C155.342 298.724 156.532 299.558 157.311 300.339C160.486 303.531 163.661 306.722 166.837 309.913" stroke="#20ACE3" stroke-width="1.93028" stroke-linecap="round" stroke-linejoin="round"/>
<path d="M157.706 307.018C157.268 309.524 158.452 312.078 160.157 313.964C161.862 315.849 163.96 317.354 166.138 318.67C177.517 325.539 184.62 333.697 191.064 348.927C191.302 349.487 191.515 350.031 191.711 350.562" stroke="#20ACE3" stroke-width="1.93028" stroke-linecap="round" stroke-linejoin="round"/>
<path d="M187.136 318.564C189.517 325.619 196.209 331.435 201.967 336.161C207.343 340.575 213.07 344.838 216.965 350.561" stroke="#20ACE3" stroke-width="1.93028" stroke-linecap="round" stroke-linejoin="round"/>
<path d="M187.137 318.564C185.296 314.874 185.441 310.544 184.56 306.516C183.772 302.897 182.121 299.471 179.782 296.598C179.432 296.167 178.991 295.71 178.434 295.713C177.83 295.716 177.357 296.295 177.257 296.891C177.157 297.486 177.334 298.087 177.511 298.663C178.171 300.816 178.833 302.965 179.493 305.117" stroke="#20ACE3" stroke-width="1.93028" stroke-linecap="round" stroke-linejoin="round"/>
<path d="M189.846 345.72C192.719 347.286 196.367 347.605 199.513 346.566C202.66 345.527 205.24 343.149 206.346 340.27" stroke="#20ACE3" stroke-width="1.93028" stroke-linecap="round" stroke-linejoin="round"/>
<path d="M172.582 304.836C173.142 303.939 172.849 302.777 172.534 301.764C172.023 300.104 171.498 298.421 170.578 296.945C169.928 295.905 169.095 294.989 168.468 293.937C167.898 292.981 167.503 291.923 167.31 290.829C167.21 290.256 167.297 289.478 167.866 289.362C169.764 290.446 171.244 292.119 172.689 293.76C174.104 295.368 175.539 297.003 176.472 298.933C177.292 300.628 178.335 303.363 179.377 304.936" stroke="#20ACE3" stroke-width="1.93028" stroke-linecap="round" stroke-linejoin="round"/>
<path d="M157.005 293.889L156.068 278.984C155.994 277.829 156.873 276.835 158.028 276.761L174.496 275.725C175.651 275.651 176.645 276.529 176.719 277.684L177.852 295.71" stroke="#20ACE3" stroke-width="1.93028" stroke-linecap="round" stroke-linejoin="round"/>
<path d="M201.076 215.442C201.749 214.876 202.447 214.351 203.2 213.901C204.885 212.791 206.626 212.164 208.196 211.121C210.162 209.815 211.033 209.307 210.454 207.657C208.241 202.619 201.842 207.766 199.786 210.233C198.953 211.295 198.261 212.469 197.74 213.714" stroke="#20AAE1" stroke-width="1.93028" stroke-linecap="round" stroke-linejoin="round"/>
<path d="M205.312 223.379C206.146 223.161 206.989 222.99 207.848 222.913C209.813 222.649 211.631 222.852 213.468 222.598C215.765 222.276 216.756 222.199 216.904 220.41C216.955 214.741 209.115 216.617 206.265 217.971C205.084 218.579 203.987 219.355 203.012 220.272" stroke="#20AAE1" stroke-width="1.93028" stroke-linecap="round" stroke-linejoin="round"/>
<path d="M143.895 309.833C144.011 312.876 144.126 315.939 143.663 318.947C143.29 321.379 142.537 323.772 142.55 326.23C142.56 328.144 143.033 330.02 143.499 331.873C145.075 338.101 146.649 344.33 148.225 350.558" stroke="#20ACE3" stroke-width="1.93028" stroke-linecap="round" stroke-linejoin="round"/>
<path d="M204.576 309.833C204.461 312.876 204.345 315.939 204.808 318.947C205.181 321.379 205.934 323.772 205.921 326.23C205.912 328.144 205.439 330.02 204.972 331.873C204.509 333.707 204.042 335.544 203.579 337.378" stroke="#20ACE3" stroke-width="1.93028" stroke-linecap="round" stroke-linejoin="round"/>
<path d="M215.235 288.114C218.674 294.258 220.247 305.666 220.768 312.564C221.293 319.507 222.081 326.427 223.13 333.308C223.689 336.972 228.017 347.582 223.699 349.992" stroke="#20ACE3" stroke-width="1.93028" stroke-linecap="round" stroke-linejoin="round"/>
<path d="M134.34 288.114C130.901 294.258 129.328 305.666 128.807 312.564C128.282 319.507 127.494 326.427 126.445 333.308C125.885 336.972 121.558 347.582 125.876 349.992" stroke="#20ACE3" stroke-width="1.93028" stroke-linecap="round" stroke-linejoin="round"/>
<path d="M168.881 401.361C168.093 402.06 166.907 402.06 166.119 401.361L154.703 391.22C153.273 389.95 154.172 387.587 156.084 387.587L178.916 387.587C180.828 387.587 181.727 389.95 180.297 391.22L168.881 401.361Z" fill="#20AEE5"/>
</svg>
