<svg width="363" height="347" viewBox="0 0 363 347" fill="none" xmlns="http://www.w3.org/2000/svg">
<path d="M190.683 126.06C190.278 126.793 189.224 126.793 188.819 126.06L180.482 110.963C180.09 110.253 180.603 109.383 181.414 109.383L198.089 109.383C198.899 109.383 199.413 110.253 199.021 110.963L190.683 126.06Z" fill="#20AEE5"/>
<path d="M248.408 112.196C151.845 123.418 92.3927 109.231 78.7578 80.2959C48.5614 5.463 197.661 -9.51367 270.129 18.4277C330.816 41.8269 307.359 105.345 248.408 112.196Z" fill="#20AEE5"/>
<path d="M170.607 33.9455C170.571 34.1615 170.523 34.6775 170.499 34.9895C170.487 35.2535 170.475 35.5415 170.463 35.8415C171.255 35.7455 172.047 35.5895 172.671 35.4095L172.707 36.8975C172.023 37.0535 171.195 37.1735 170.415 37.2695C170.403 37.6295 170.403 38.0015 170.403 38.3495C170.403 38.4935 170.403 38.6375 170.403 38.7935C171.219 38.5895 172.047 38.4815 172.707 38.4815C174.555 38.4815 176.007 39.4415 176.007 41.0975C176.007 42.5135 175.263 43.5815 173.355 44.0615C172.803 44.1815 172.275 44.2175 171.783 44.2535L171.231 42.7055C171.771 42.7055 172.287 42.6935 172.707 42.6215C173.679 42.4415 174.447 41.9615 174.447 41.0855C174.447 40.2695 173.727 39.7895 172.683 39.7895C171.939 39.7895 171.159 39.9095 170.427 40.1255C170.451 41.0735 170.475 42.0095 170.475 42.4175C170.475 43.9055 169.947 44.3015 169.155 44.3015C167.991 44.3015 166.347 43.2935 166.347 42.0215C166.347 40.9775 167.547 39.8855 169.023 39.2495C169.011 38.9615 169.011 38.6735 169.011 38.3975C169.011 38.0615 169.011 37.7255 169.011 37.3895C168.783 37.4015 168.567 37.4135 168.375 37.4135C167.571 37.4135 167.103 37.4015 166.695 37.3535L166.671 35.9015C167.379 35.9855 167.895 35.9975 168.327 35.9975C168.543 35.9975 168.783 35.9855 169.023 35.9735C169.035 35.5535 169.035 35.2055 169.035 35.0015C169.035 34.7495 168.987 34.1615 168.951 33.9455H170.607ZM174.027 35.2415C174.951 35.6855 176.343 36.4775 176.979 36.9335L176.259 38.1575C175.683 37.6655 174.111 36.7655 173.367 36.4055L174.027 35.2415ZM167.823 41.9615C167.823 42.3335 168.387 42.6575 168.699 42.6575C168.915 42.6575 169.083 42.5615 169.083 42.1535C169.083 41.8535 169.071 41.3015 169.047 40.6535C168.315 41.0495 167.823 41.5415 167.823 41.9615ZM187.383 33.8495L188.847 34.1735C188.463 35.5655 187.827 37.0175 187.227 37.9415C186.903 37.7255 186.219 37.4375 185.835 37.2935C186.471 36.4535 187.047 35.0975 187.383 33.8495ZM186.099 36.5615L184.779 36.9815C184.695 36.2255 184.371 34.9775 184.023 34.0295L185.271 33.6815C185.643 34.6175 186.003 35.8175 186.099 36.5615ZM183.987 36.9095L182.691 37.4135C182.559 36.6695 182.115 35.4575 181.659 34.5455L182.871 34.1015C183.351 34.9775 183.843 36.1415 183.987 36.9095ZM178.191 35.8895L179.151 36.0095C179.163 37.1495 178.983 38.5415 178.563 39.4415L177.627 39.0215C178.011 38.2775 178.179 36.9695 178.191 35.8895ZM182.223 37.7015L181.287 38.1575C181.203 37.6895 180.975 37.0055 180.699 36.3935V44.7215H179.319V33.5255H180.699V35.8175L181.359 35.5295C181.731 36.2255 182.115 37.1135 182.223 37.7015ZM187.239 41.0615L186.459 42.1655C186.231 41.8655 185.895 41.5055 185.511 41.1455C185.151 41.7335 184.755 42.2495 184.347 42.6695C184.119 42.4535 183.603 42.0455 183.303 41.8655C183.759 41.4455 184.179 40.9055 184.551 40.2935C184.143 39.9695 183.735 39.6575 183.363 39.3815L184.071 38.4215C184.395 38.6495 184.755 38.9135 185.115 39.1775C185.307 38.7335 185.463 38.2655 185.595 37.7855L186.855 38.0615C186.663 38.7215 186.411 39.3815 186.123 39.9935C186.579 40.3655 186.975 40.7375 187.239 41.0615ZM187.251 42.6695V38.0495H188.655V44.5895H187.251V43.9655H183.291V44.6135H181.923V38.0735H183.291V42.6695H187.251ZM191.943 34.6055C192.267 34.6415 192.675 34.6655 192.939 34.6655C193.623 34.6655 194.895 34.6055 195.459 34.5575C195.759 34.5455 196.071 34.4735 196.275 34.3895L197.235 35.1335C197.067 35.3135 196.923 35.4695 196.827 35.6375C196.515 36.1535 196.059 37.1975 195.627 38.2175C196.563 38.3615 197.451 38.6495 198.231 38.9855C198.243 38.8415 198.255 38.7095 198.267 38.5775C198.303 38.1095 198.303 37.6295 198.267 37.2695L199.839 37.4495C199.791 38.2535 199.731 38.9975 199.611 39.6695C200.115 39.9575 200.547 40.2335 200.895 40.4735L200.199 42.1415C199.887 41.8535 199.539 41.5775 199.167 41.3015C198.639 42.6575 197.727 43.7135 196.119 44.5535L194.847 43.5095C196.659 42.7295 197.499 41.5895 197.895 40.4975C197.043 40.0295 196.083 39.6695 195.051 39.5255C194.619 40.5455 194.115 41.7455 193.695 42.4055C193.215 43.1255 192.639 43.4615 191.823 43.4615C190.767 43.4615 189.975 42.7295 189.975 41.5175C189.975 39.6575 191.667 38.2415 194.079 38.1335C194.415 37.3415 194.763 36.5255 195.039 35.9615C194.559 35.9855 193.527 36.0215 192.975 36.0575C192.735 36.0695 192.315 36.1055 192.003 36.1535L191.943 34.6055ZM191.379 41.2895C191.379 41.6855 191.607 41.8895 191.883 41.8895C192.123 41.8895 192.291 41.7695 192.507 41.4695C192.819 41.0255 193.143 40.2695 193.479 39.5135C192.135 39.7175 191.379 40.5335 191.379 41.2895ZM206.15 43.6895V42.1367H202.007V40.748C203.08 38.8438 204.228 36.9688 205.353 35.2344H207.837V40.7188H208.939V42.1367H207.837V43.6895H206.15ZM203.601 40.7656H206.185V36.5762H206.091C205.271 37.8359 204.363 39.3066 203.601 40.6719V40.7656Z" fill="white"/>
<path d="M117.642 60.2335H115.806C114.906 60.2335 114.582 60.2515 114.096 60.3055V58.7035C114.618 58.7935 114.942 58.8115 115.806 58.8115H117.642C117.642 58.1995 117.624 57.9295 117.534 57.4795H119.604C119.514 57.9295 119.496 58.1635 119.496 58.8115H121.782C122.682 58.8115 123.006 58.7935 123.528 58.7035V60.3055C123.06 60.2515 122.628 60.2335 121.782 60.2335H119.496V60.9895H121.404C122.16 60.9895 122.466 60.9715 122.898 60.9175V62.4655C122.412 62.4115 122.124 62.3935 121.368 62.3935H119.496V63.1315H122.088C122.952 63.1315 123.348 63.1135 123.87 63.0235V64.7155C123.33 64.6255 122.916 64.6075 122.088 64.6075H115.572C114.708 64.6075 114.312 64.6255 113.754 64.7155V63.0235C114.168 63.1135 114.636 63.1315 115.572 63.1315H117.642V62.3935H116.058C115.356 62.3935 115.032 62.4115 114.546 62.4655V60.9175C115.014 60.9715 115.356 60.9895 116.076 60.9895H117.642V60.2335ZM116.292 71.2495V72.0955C116.292 72.9595 116.328 73.6255 116.4 74.1475H114.366C114.456 73.6075 114.474 73.1395 114.474 72.0955V66.7855C114.474 66.1195 114.456 65.7595 114.42 65.2555C114.888 65.2915 115.194 65.3095 115.86 65.3095H121.224C122.052 65.3095 122.43 65.2915 122.844 65.2375C122.79 65.7055 122.772 66.2275 122.772 67.0915V72.2755C122.772 73.6795 122.322 74.0215 120.504 74.0215C119.946 74.0215 119.64 74.0035 119.046 73.9675C118.938 73.1935 118.848 72.8335 118.614 72.2215C119.136 72.3115 119.964 72.3835 120.36 72.3835C120.846 72.3835 120.954 72.2935 120.954 71.8615V71.2495H116.292ZM116.292 69.7915H120.954V69.0535H116.292V69.7915ZM116.292 67.6135H120.954V66.8395H116.292V67.6135ZM107.904 59.6395V57.9835C108.354 58.0555 108.642 58.0735 109.362 58.0735H111.828C112.53 58.0735 112.818 58.0555 113.286 57.9835V59.6395C112.8 59.5855 112.476 59.5675 111.828 59.5675H109.362C108.732 59.5675 108.354 59.5855 107.904 59.6395ZM107.31 62.2855V60.5035C107.742 60.5755 108.084 60.5935 108.75 60.5935H112.152C112.89 60.5935 113.196 60.5755 113.592 60.5215V62.2675C113.196 62.2315 112.944 62.2135 112.224 62.2135H108.75C108.12 62.2135 107.742 62.2315 107.31 62.2855ZM107.94 64.8235V63.2395C108.282 63.2755 108.516 63.2935 109.074 63.2935H112.116C112.692 63.2935 112.908 63.2755 113.214 63.2395V64.8235C112.872 64.7875 112.638 64.7695 112.116 64.7695H109.074C108.516 64.7695 108.282 64.7875 107.94 64.8235ZM107.94 67.3435V65.7595C108.264 65.7955 108.534 65.8135 109.074 65.8135H112.098C112.674 65.8135 112.908 65.7955 113.214 65.7595V67.3435C112.89 67.3075 112.638 67.2895 112.08 67.2895H109.056C108.516 67.2895 108.282 67.3075 107.94 67.3435ZM109.704 74.0755H107.886C107.94 73.5175 107.976 72.9055 107.976 72.3115V69.6835C107.976 69.0715 107.958 68.7115 107.904 68.2615C108.318 68.3155 108.66 68.3335 109.308 68.3335H112.116C112.764 68.3335 113.07 68.3155 113.34 68.2795C113.304 68.6395 113.286 68.9095 113.286 69.5935V72.4195C113.286 73.1215 113.304 73.4275 113.358 73.8415H111.594V73.2295H109.704V74.0755ZM109.704 69.8995V71.6455H111.594V69.8995H109.704ZM139.422 62.3215H134.544C134.94 63.6355 135.372 64.6075 136.11 65.7595C137.208 64.8955 138.234 63.7975 138.864 62.8075L140.52 64.0675C140.34 64.2475 140.34 64.2475 139.458 65.1835C138.828 65.8135 138.126 66.4435 137.154 67.2175C137.64 67.8115 138.09 68.2795 138.756 68.8555C139.746 69.7375 140.304 70.1155 141.852 70.9795C141.276 71.6095 140.916 72.0955 140.502 72.8335C138.756 71.6275 137.766 70.7635 136.758 69.5755C135.624 68.2435 135.102 67.4155 134.4 65.8495C134.436 66.6775 134.472 67.7035 134.472 68.4775V72.2755C134.472 73.5895 133.95 73.9855 132.24 73.9855C131.538 73.9855 130.782 73.9495 129.972 73.8955C129.882 73.0855 129.792 72.7615 129.486 71.9515C130.386 72.1135 131.124 72.1855 131.844 72.1855C132.402 72.1855 132.528 72.0775 132.528 71.5915V62.3215H127.542C126.75 62.3215 126.138 62.3575 125.58 62.4295V60.4495C126.12 60.5215 126.714 60.5575 127.65 60.5575H132.528V59.5315C132.528 58.6315 132.492 58.0915 132.42 57.5695H134.58C134.508 58.1275 134.472 58.6675 134.472 59.5495V60.5575H137.532C136.92 59.7475 136.542 59.3515 135.624 58.5775L137.028 57.5335C138.234 58.5775 138.234 58.5775 139.26 59.7475L138.18 60.5575H139.422C140.34 60.5575 140.934 60.5215 141.492 60.4495V62.4295C140.934 62.3575 140.34 62.3215 139.422 62.3215ZM126.984 63.9415L128.532 62.7895C129.576 63.8875 130.188 64.6795 131.016 65.9395L129.324 67.1455C128.622 65.8675 127.902 64.8955 126.984 63.9415ZM131.682 66.8215L132.33 68.6215C130.584 69.9175 130.242 70.1335 127.614 71.6815C127.164 71.9515 126.93 72.0955 126.606 72.3295L125.652 70.2955C126.426 70.0435 127.146 69.7015 128.298 69.0715C129.666 68.2975 130.44 67.7935 131.682 66.8215ZM150.474 60.4135V59.8375H146.766C145.956 59.8375 145.47 59.8555 145.002 59.9095V58.3255C145.524 58.3975 146.136 58.4335 146.982 58.4335H150.474C150.456 57.9655 150.438 57.8575 150.366 57.4435H152.472C152.382 57.8035 152.364 57.9475 152.346 58.4335H155.964C156.864 58.4335 157.44 58.4155 157.944 58.3615C157.908 58.6855 157.89 59.0455 157.89 59.8915V60.4135H158.034C158.79 60.4135 159.186 60.3955 159.672 60.3235V61.8895C159.24 61.8175 158.79 61.7995 157.98 61.7995H157.89V62.5015C157.89 63.0595 157.908 63.5635 157.944 63.7795C157.422 63.7435 156.882 63.7255 156.072 63.7255H152.346V64.2835H156.63C157.548 64.2835 157.998 64.2655 158.502 64.2115V65.7235C157.962 65.6515 157.476 65.6335 156.63 65.6335H152.346V66.2095H157.548C158.466 66.2095 159.096 66.1735 159.618 66.1015V67.7755C159.006 67.7035 158.304 67.6675 157.548 67.6675H145.416C144.624 67.6675 143.958 67.7035 143.328 67.7755V66.1015C143.85 66.1735 144.534 66.2095 145.416 66.2095H150.474V65.6335H146.406C145.56 65.6335 145.056 65.6515 144.534 65.7235V64.2115C145.056 64.2655 145.506 64.2835 146.406 64.2835H150.474V63.7255H146.766C145.956 63.7255 145.488 63.7435 144.984 63.7975V62.3215C145.47 62.3755 145.938 62.3935 146.766 62.3935H150.474V61.7995H145.398C144.48 61.7995 143.94 61.8175 143.328 61.8895V60.3235C143.886 60.3775 144.498 60.4135 145.398 60.4135H150.474ZM156.054 61.7995H152.346V62.3935H156.054V61.7995ZM156.054 60.4135V59.8375H152.346V60.4135H156.054ZM145.452 72.2755V69.9355C145.452 68.9095 145.434 68.6035 145.398 68.1715C145.848 68.2075 146.118 68.2075 147.306 68.2075H155.712C156.918 68.2075 157.224 68.2075 157.638 68.1715C157.584 68.5495 157.566 68.9635 157.566 69.9355V72.2575C157.566 73.1935 157.602 73.7155 157.674 74.1295H155.676V73.5175H147.324V74.1295H145.362C145.416 73.6075 145.452 73.0675 145.452 72.2755ZM147.324 69.5575V70.2235H155.676V69.5575H147.324ZM147.324 71.4655V72.1315H155.676V71.4655H147.324ZM170.904 61.1515C170.562 63.9775 169.932 66.4615 169.032 68.4955C168.006 70.8175 166.854 71.8795 165.378 71.8795C163.326 71.8795 161.85 69.7915 161.85 66.8935C161.85 64.9135 162.552 63.0595 163.83 61.6555C165.342 59.9995 167.466 59.1355 170.022 59.1355C174.342 59.1355 177.15 61.7635 177.15 65.8135C177.15 68.9275 175.53 71.4115 172.776 72.5275C171.912 72.8875 171.21 73.0675 169.95 73.2835C169.644 72.3295 169.428 71.9335 168.852 71.1775C170.508 70.9615 171.588 70.6735 172.434 70.1875C174 69.3235 174.936 67.6135 174.936 65.6875C174.936 63.9595 174.162 62.5555 172.722 61.6915C172.164 61.3675 171.696 61.2235 170.904 61.1515ZM168.708 61.1695C167.772 61.2775 167.124 61.5295 166.386 62.0515C164.874 63.1315 163.938 64.9855 163.938 66.9115C163.938 68.3875 164.568 69.5575 165.36 69.5575C165.954 69.5575 166.566 68.8015 167.214 67.2535C167.898 65.6335 168.492 63.2035 168.708 61.1695ZM183.234 60.3055H182.262C181.686 61.0255 181.326 61.3855 180.516 62.0515C180.03 61.4035 179.922 61.2955 179.202 60.7195C180.552 59.7835 181.506 58.6135 181.938 57.3535L183.864 57.7135C183.612 58.1995 183.54 58.3615 183.324 58.7035H185.79C186.6 58.7035 186.978 58.6855 187.392 58.6135V60.0175C188.202 59.1895 188.706 58.3435 188.958 57.3715L190.884 57.6775C190.596 58.3075 190.56 58.3795 190.398 58.7215H193.944C194.826 58.7215 195.186 58.7035 195.708 58.6315V60.3955C195.222 60.3415 194.826 60.3235 194.034 60.3235H192.36C192.756 60.9715 192.81 61.0615 193.044 61.5475L191.262 62.0695C191.01 61.3855 190.812 60.9895 190.416 60.3235H189.408C189.066 60.7915 188.886 60.9895 188.31 61.5835V61.9435L188.292 62.2315H193.35C194.376 62.2315 194.7 62.2135 195.294 62.1775C195.24 62.5015 195.24 62.7175 195.24 63.2935V64.5535C195.24 65.0935 195.258 65.3995 195.312 65.7415H193.368V63.7795H181.758V65.7415H179.85C179.886 65.3815 179.922 65.0575 179.922 64.5535V63.3295C179.922 62.7895 179.904 62.5195 179.85 62.1775C180.39 62.2135 180.696 62.2315 181.74 62.2315H186.402V61.9435C186.402 61.5475 186.402 61.3495 186.348 61.0795H187.59C187.212 60.7915 187.122 60.7195 186.762 60.5215L187.032 60.3235C186.726 60.3055 186.528 60.3055 186.222 60.3055H185.034C185.322 60.8095 185.43 61.0435 185.646 61.4935L183.9 62.0875C183.702 61.3315 183.54 60.9175 183.234 60.3055ZM184.188 74.1655H182.19C182.262 73.5355 182.298 72.9955 182.298 72.1675V65.6875C182.298 65.1655 182.28 64.8415 182.226 64.4995C182.658 64.5535 183.126 64.5715 183.738 64.5715H191.082C191.748 64.5715 192.198 64.5535 192.63 64.4995C192.576 64.8775 192.576 65.2195 192.576 65.7235V67.0735C192.576 67.7395 192.576 68.0455 192.63 68.4775C192.18 68.4415 191.766 68.4235 191.154 68.4235H184.188V69.2875H191.91C192.576 69.2875 192.972 69.2695 193.386 69.2155C193.332 69.6655 193.314 70.1155 193.314 70.7095V72.5275C193.314 73.1395 193.332 73.6435 193.404 74.1655H191.424V73.3915H184.188V74.1655ZM184.188 66.0475V67.0015H190.704V66.0475H184.188ZM184.188 70.7275V71.8975H191.424V70.7275H184.188ZM207.3 71.8435V69.9895H205.302C204.276 69.9895 203.898 70.0075 203.43 70.0615V68.2255C203.88 68.2975 204.24 68.3155 205.284 68.3155H207.3V66.8395H205.59C204.384 66.8395 203.97 66.8575 203.43 66.8935C203.466 66.4795 203.466 66.4795 203.502 64.6615V60.5935C203.502 59.3695 203.484 58.7755 203.412 58.1815C204.096 58.2535 204.672 58.2715 205.842 58.2715H210.81C212.142 58.2715 212.682 58.2535 213.132 58.1815C213.078 58.7035 213.06 59.5495 213.06 60.6475V64.4815C213.06 65.7415 213.078 66.3715 213.132 66.8935C212.538 66.8395 212.25 66.8395 211.17 66.8395H209.1V68.3155H211.404C212.394 68.3155 212.79 68.2975 213.312 68.2255V70.0795C212.79 70.0075 212.34 69.9895 211.422 69.9895H209.1V71.8435H211.998C212.952 71.8435 213.42 71.8255 213.906 71.7535V73.6795C213.33 73.6075 212.844 73.5895 211.872 73.5895H204.294C203.34 73.5895 202.872 73.6075 202.26 73.6795V71.7535C202.746 71.8255 203.142 71.8435 204.078 71.8435H207.3ZM207.3 60.0175H205.302V61.8175H207.3V60.0175ZM209.1 60.0175V61.8175H211.188V60.0175H209.1ZM207.3 63.3295H205.302V65.1475H207.3V63.3295ZM209.1 63.3295V65.1475H211.188V63.3295H209.1ZM199.29 60.1975H198.606C198.03 60.1975 197.706 60.2155 197.256 60.2875V58.3435C197.688 58.4155 198.156 58.4515 198.894 58.4515H201.432C202.152 58.4515 202.584 58.4335 203.034 58.3435V60.2695C202.584 60.2155 202.206 60.1975 201.702 60.1975H201.162V63.7075H201.576C202.044 63.7075 202.314 63.6895 202.71 63.6175V65.4535C202.35 65.3995 201.99 65.3815 201.576 65.3815H201.162V68.9275C201.918 68.6035 202.134 68.5135 202.926 68.1175L202.98 70.0255C201.414 70.7995 200.712 71.1055 197.922 72.2395C197.832 72.2755 197.742 72.3115 197.562 72.3835L197.076 70.3495C197.688 70.2235 198.066 70.0975 199.29 69.6655V65.3815H198.696C198.174 65.3815 197.886 65.3995 197.472 65.4715V63.6175C197.904 63.6895 198.174 63.7075 198.732 63.7075H199.29V60.1975ZM227.334 62.7895L229.152 61.8895C230.394 63.5995 231.33 65.5435 231.852 67.6135L229.8 68.6395C229.44 66.7495 228.324 64.1035 227.334 62.7895ZM222.042 58.8295L222.006 59.0635C221.916 59.5855 221.79 60.3235 221.61 61.2955C221.556 61.6015 221.556 61.6015 221.502 61.8355C222.042 61.8175 222.294 61.7995 222.618 61.7995C223.806 61.7995 224.688 62.1235 225.282 62.7535C225.894 63.4375 226.128 64.3015 226.128 65.9395C226.128 69.0355 225.606 71.5015 224.742 72.4915C224.238 73.0855 223.698 73.3015 222.744 73.3015C221.916 73.3015 221.178 73.1575 219.972 72.7615C219.99 72.4195 220.008 72.1495 220.008 71.9695C220.008 71.5015 219.972 71.1415 219.828 70.4395C220.8 70.8715 221.826 71.1595 222.456 71.1595C222.978 71.1595 223.266 70.8175 223.536 69.9355C223.824 68.9995 224.004 67.3615 224.004 65.8315C224.004 64.1755 223.59 63.6895 222.204 63.6895C221.826 63.6895 221.538 63.7075 221.124 63.7435C220.242 67.4335 219.432 69.6115 217.452 73.5355L215.364 72.3835C216.75 70.4935 218.136 67.2535 218.982 63.9055C218.712 63.9415 218.712 63.9415 218.136 64.0495L216.498 64.3195C216.21 64.3735 216.012 64.4275 215.76 64.4995L215.544 62.3755C216.354 62.3575 217.29 62.2675 219.378 61.9975C219.72 59.9995 219.846 58.9735 219.846 58.3615C219.846 58.2895 219.846 58.1815 219.846 58.0375L222.186 58.2715C222.132 58.4155 222.078 58.6495 222.042 58.8295ZM226.218 58.9555L227.478 58.3255C228.27 59.1715 228.756 59.8555 229.368 60.9715L228.108 61.6375C227.514 60.5395 227.01 59.8195 226.218 58.9555ZM231.51 59.8015L230.268 60.5035C229.728 59.5135 229.134 58.6675 228.432 57.8935L229.638 57.2635C230.448 58.0915 230.952 58.7755 231.51 59.8015ZM236.064 61.7815H239.376C239.682 61.2235 239.952 60.6475 240.186 59.9455H235.596C234.696 59.9455 234.03 59.9815 233.382 60.0535V58.0555C234.03 58.1275 234.714 58.1635 235.578 58.1635H247.44C248.25 58.1635 248.988 58.1275 249.636 58.0555V60.0535C248.988 59.9815 248.304 59.9455 247.44 59.9455H242.382C242.202 60.5395 241.878 61.2595 241.59 61.7815H246.972C247.926 61.7815 248.484 61.7635 249.096 61.6915C249.006 62.3935 248.988 62.9515 248.988 64.0135V71.8435C248.988 72.8335 249.024 73.6435 249.096 74.2915H247.062V73.4095H235.974V74.2735H233.94C234.03 73.5175 234.048 72.9235 234.048 71.8255V63.9955C234.048 63.1135 234.012 62.4295 233.94 61.6915C234.498 61.7635 235.146 61.7815 236.064 61.7815ZM239.826 71.6635H243.084V69.9175H239.826V71.6635ZM238.044 71.6635V63.4555H235.974V71.6635H238.044ZM239.826 63.4555V65.0575H243.084V63.4555H239.826ZM244.884 63.4555V71.6635H247.062V63.4555H244.884ZM243.084 68.2975V66.6775H239.826V68.2975H243.084ZM259.428 66.8935H260.58C261.12 66.8935 261.426 66.8755 261.786 66.8215V68.6395C261.444 68.6035 261.048 68.5855 260.58 68.5855H259.428V70.5655C260.67 70.3495 260.994 70.2955 262.218 70.0255L262.254 71.7175C260.562 72.1675 258.528 72.5635 256.188 72.9235C255.846 72.9775 255.45 73.0495 255.18 73.1215L254.91 71.1055C254.982 71.1055 255.054 71.1055 255.09 71.1055C255.486 71.1055 256.314 71.0155 257.628 70.8355V68.5855H256.476C256.008 68.5855 255.648 68.6035 255.324 68.6575V66.8035C255.666 66.8755 255.99 66.8935 256.53 66.8935H257.628V66.0835C257.628 65.6695 257.61 65.3815 257.556 65.0215H259.518C259.446 65.3095 259.428 65.5795 259.428 66.0835V66.8935ZM255.63 60.2695V58.4695C255.576 58.6135 255.576 58.6495 255.522 58.8115C255.234 59.8375 255.09 60.2335 254.46 61.8535V72.0055C254.46 72.9595 254.478 73.4815 254.55 74.1655H252.552C252.624 73.4635 252.66 72.9055 252.66 72.0055V67.0915C252.66 66.1735 252.678 65.6875 252.714 64.8775C252.264 65.7595 251.994 66.2095 251.472 66.8575C251.166 65.7955 251.04 65.4895 250.644 64.6975C252.21 62.7895 253.416 60.0355 253.848 57.4435L255.756 58.0915L255.648 58.3795C256.062 58.4515 256.476 58.4695 257.25 58.4695H260.4C261.3 58.4695 261.678 58.4515 262.182 58.3975V60.2515C261.75 60.2155 261.246 60.1975 260.598 60.1975H259.104C258.708 61.2955 258.366 62.1055 257.88 63.0415C259.284 62.9515 259.482 62.9155 260.166 62.8435C259.86 62.2495 259.752 62.0695 259.338 61.3675L260.76 60.7195C261.642 62.1595 262.02 62.8615 262.578 64.0855V60.4315C262.578 59.7835 262.56 59.4235 262.506 58.9015H264.414C264.342 59.3155 264.324 59.7115 264.324 60.4315V68.2435C264.324 68.9815 264.342 69.3775 264.396 69.7915H262.506C262.56 69.3235 262.578 68.9455 262.578 68.2615V64.7155L261.246 65.4715C261.066 64.9315 260.994 64.7335 260.85 64.3555C259.032 64.6435 258.492 64.6975 256.206 64.9135C255.9 64.9315 255.648 64.9675 255.234 65.0395L255 63.1315C255.234 63.1495 255.396 63.1495 255.648 63.1495C255.702 63.1495 255.846 63.1495 256.008 63.1495C256.548 62.1235 256.818 61.4215 257.196 60.1975H256.638C256.17 60.1975 255.9 60.2155 255.63 60.2695ZM267.33 60.0535V72.1315C267.33 73.5535 266.736 73.9855 264.738 73.9855C264.54 73.9855 264.54 73.9855 263.172 73.9675C263.1 73.2475 263.01 72.8515 262.74 72.0775C263.55 72.1855 264.252 72.2395 264.702 72.2395C265.386 72.2395 265.53 72.1495 265.53 71.7715V59.9455C265.53 58.9375 265.512 58.5235 265.422 57.8755H267.438C267.366 58.4695 267.33 59.0275 267.33 60.0535Z" fill="white"/>
<g opacity="0.8">
<path d="M183.774 248.846H214.861" stroke="#20AEE5" stroke-width="1.44621" stroke-linecap="round" stroke-linejoin="round"/>
<path d="M135.984 179.829C129.899 185.491 123.323 190.52 116.366 194.841C129.476 203.099 147.771 207.654 162.508 211.1C169.175 204.892 175.817 195.821 177.989 190.77C164.908 189.504 148.393 185.292 136.266 179.652" stroke="#20AEE5" stroke-width="2.16932" stroke-linecap="round" stroke-linejoin="round"/>
<path d="M103.397 298.467H266.791" stroke="#20AEE5" stroke-width="2.16932" stroke-linecap="round" stroke-linejoin="round"/>
<path d="M215.627 243.128V261.539" stroke="#20AEE5" stroke-width="2.16932" stroke-linecap="round" stroke-linejoin="round"/>
<path d="M156.741 272.842V239.561H212.055" stroke="#20AEE5" stroke-width="2.16932" stroke-linecap="round" stroke-linejoin="round"/>
<path d="M168.181 276.409V298.464H110.958V272.841H164.609" stroke="#20AEE5" stroke-width="2.16932" stroke-linecap="round" stroke-linejoin="round"/>
<path d="M259.231 265.108V298.465H197.065V261.539H255.662" stroke="#20AEE5" stroke-width="2.16932" stroke-linecap="round" stroke-linejoin="round"/>
<path d="M221.969 200.22C222.254 200.545 222.522 200.849 222.775 201.084C224.839 203.018 226.98 204.866 229.189 206.616C231.402 208.365 233.679 210.018 236.019 211.569C238.199 213.015 241.026 214.132 242.968 215.839C241.804 216.33 240.224 216.334 238.976 216.591C237.27 216.941 235.57 217.336 233.882 217.766C230.505 218.626 227.164 219.639 223.856 220.756C217.218 223.001 210.721 225.673 204.274 228.464C203.37 228.855 202.466 229.249 201.566 229.643C192.336 225.438 184.175 217.108 178.524 208.34C190.376 203.448 202.991 200.581 215.562 198.64" stroke="#20AEE5" stroke-width="2.16932" stroke-linecap="round" stroke-linejoin="round"/>
<path d="M111.182 291.451H157.468" stroke="#20AEE5" stroke-width="2.16932" stroke-linecap="round" stroke-linejoin="round"/>
<path d="M222.341 267.266H259.118" stroke="#20AEE5" stroke-width="2.16932" stroke-linecap="round" stroke-linejoin="round"/>
<path d="M208.042 282.21H253.706" stroke="#20AEE5" stroke-width="2.16932" stroke-linecap="round" stroke-linejoin="round"/>
<path d="M183.774 248.846H214.861" stroke="#20AEE5" stroke-width="2.16932" stroke-linecap="round" stroke-linejoin="round"/>
<path d="M194.174 254.948H211.901" stroke="#20AEE5" stroke-width="2.16932" stroke-linecap="round" stroke-linejoin="round"/>
<path d="M185.835 285.352H196.522" stroke="#20AEE5" stroke-width="2.16932" stroke-linecap="round" stroke-linejoin="round"/>
<path d="M177.603 279.249H196.523" stroke="#20AEE5" stroke-width="2.16932" stroke-linecap="round" stroke-linejoin="round"/>
<path d="M259.365 204.194C263.215 204.982 267.109 205.047 270.873 204.386C265.656 197.845 258.439 193.977 251.429 193.962C259.889 200.676 270.041 203.518 279.413 201.79C282.031 201.305 284.898 200.163 285.867 197.1C286.637 194.66 285.906 191.627 284.529 189.403C283.151 187.179 281.221 185.621 279.294 184.226C269.669 177.262 258.909 173.155 248.211 172.363C249.726 175.071 252.188 176.644 254.56 177.978C266.65 184.764 279.615 188.539 292.432 189.005C294.739 189.088 297.538 188.647 298.225 185.936C298.911 183.22 296.93 180.379 295.086 178.404C280.53 162.814 262.127 153.324 243.843 151.982C242.798 151.906 241.453 152.152 241.334 153.45C243.21 156.238 246.013 158.009 248.782 158.161" stroke="#20A7DE" stroke-width="2.16932" stroke-linecap="round" stroke-linejoin="round"/>
</g>
<path d="M188.881 345.774C188.093 346.474 186.907 346.474 186.119 345.774L174.703 335.634C173.273 334.364 174.172 332.001 176.084 332.001L198.916 332.001C200.828 332.001 201.727 334.364 200.297 335.634L188.881 345.774Z" fill="#20AEE5"/>
</svg>
