<svg width="192" height="51" viewBox="0 0 192 51" fill="none" xmlns="http://www.w3.org/2000/svg">
<path d="M3.344 11.096H2.512C1.824 11.096 1.392 11.064 0.96 11V12.104C1.456 12.04 1.856 12.008 2.512 12.008H3.344V14.904H2.912C2.24 14.904 1.776 14.872 1.36 14.808V15.896C1.824 15.832 2.256 15.8 2.864 15.8H13.296C13.936 15.8 14.384 15.832 14.832 15.896V14.808C14.416 14.872 13.984 14.904 13.28 14.904H12.736V12.008H13.6C14.272 12.008 14.704 12.04 15.168 12.104V11C14.736 11.064 14.304 11.096 13.6 11.096H12.736V8.232C13.424 8.232 13.92 8.264 14.512 8.312V7.24C14.048 7.304 13.52 7.336 12.496 7.336H4.32C4.656 6.824 4.8 6.6 5.168 5.944C5.28 5.768 5.312 5.704 5.408 5.56L4.288 5.288C4.224 5.56 4.128 5.8 3.968 6.136C3.296 7.48 2.464 8.44 0.864 9.704C1.2 9.896 1.408 10.088 1.632 10.376C2.4 9.704 2.752 9.336 3.344 8.6V11.096ZM4.272 8.232H6.176V11.096H4.272V8.232ZM4.272 12.008H6.176V14.904H4.272V12.008ZM7.056 14.904V12.008H8.944V14.904H7.056ZM7.056 11.096V8.232H8.944V11.096H7.056ZM9.824 14.904V12.008H11.808V14.904H9.824ZM9.824 11.096V8.232H11.808V11.096H9.824ZM14.928 19.336C14.304 18.152 13.808 17.416 12.896 16.328L12.08 16.76C12.992 17.88 13.44 18.6 14.032 19.912L14.928 19.336ZM10.48 19.656C10.144 18.104 9.968 17.512 9.52 16.456L8.656 16.712C9.104 17.864 9.216 18.344 9.488 19.928L10.48 19.656ZM6.832 19.816C6.752 18.52 6.64 17.736 6.352 16.52L5.456 16.664C5.68 17.736 5.808 18.808 5.824 19.976L6.832 19.816ZM1.92 20.008C2.864 18.984 3.328 18.248 3.968 16.776L3.104 16.296C2.576 17.672 2.096 18.376 1.088 19.304L1.92 20.008ZM28.56 15.048L24.192 16.088C23.584 16.232 23.056 16.328 22.656 16.344L22.864 17.48C23.248 17.336 23.712 17.192 24.352 17.048L28.56 16.024V18.44C28.56 19.352 28.544 19.768 28.464 20.2H29.68C29.616 19.736 29.584 19.224 29.584 18.456V15.784L29.952 15.688C30.576 15.544 31.088 15.448 31.488 15.416L31.296 14.296C30.944 14.44 30.544 14.568 29.824 14.744L29.584 14.792V7.432C29.584 6.68 29.616 6.248 29.68 5.768H28.464C28.528 6.168 28.56 6.6 28.56 7.448V15.048ZM19.68 12.12C19.344 13.112 19.184 13.48 18.784 14.264C18.208 15.384 17.68 16.136 16.88 16.952C17.136 17.224 17.264 17.416 17.488 17.848C18.576 16.616 19.28 15.304 19.952 13.272C19.904 14.12 19.872 15.016 19.872 15.752V18.472C19.872 19.208 19.84 19.704 19.776 20.248H20.944C20.88 19.736 20.848 19.256 20.848 18.488V15.496C20.848 15.192 20.8 13.768 20.768 13.128C21.232 14.2 21.68 14.856 22.64 15.944C22.768 15.688 22.976 15.368 23.2 15.08C22.224 14.216 21.6 13.416 20.912 12.12H21.792C22.288 12.12 22.656 12.136 22.992 12.184V11.176C22.672 11.224 22.352 11.24 21.808 11.24H20.848V7.448C20.848 6.632 20.88 6.152 20.944 5.752H19.776C19.84 6.168 19.872 6.68 19.872 7.464V11.24H18.608C17.904 11.24 17.536 11.224 17.216 11.16V12.2C17.6 12.136 17.936 12.12 18.608 12.12H19.68ZM17.296 7.128C17.792 8.232 18.064 9.096 18.352 10.552L19.2 10.184C18.896 8.824 18.672 8.12 18.128 6.76L17.296 7.128ZM22.464 6.712C22.128 8.296 21.888 9.016 21.296 10.184L22.08 10.552C22.672 9.32 22.672 9.304 23.376 7.064L22.464 6.712ZM24.08 7.672C25.376 8.568 25.92 9.064 26.992 10.264L27.648 9.432C26.688 8.408 26.16 7.944 24.768 6.936L24.08 7.672ZM23.584 11.672C24.864 12.504 25.504 13.048 26.48 14.168L27.152 13.368C26.32 12.44 25.632 11.864 24.288 10.936L23.584 11.672ZM41.248 16.968V18.536C41.248 19.112 41.2 19.64 41.136 20.184H42.304C42.24 19.608 42.208 19.144 42.208 18.536V16.968H43.664C44.24 16.968 44.576 16.984 44.96 17.048V15.992C44.592 16.056 44.24 16.072 43.664 16.072H42.208V12.712C42.208 12.072 42.192 11.64 42.16 10.712C42.96 12.536 43.6 13.56 44.704 14.872C45.456 15.768 46.128 16.456 46.976 17.128C47.248 16.728 47.456 16.472 47.76 16.232C46.544 15.368 45.744 14.632 44.864 13.544C43.984 12.456 43.552 11.8 42.608 10.024H45.632C46.256 10.024 46.8 10.056 47.264 10.12V9C46.8 9.064 46.304 9.096 45.616 9.096H42.208V7.336C42.208 6.744 42.256 6.136 42.336 5.768H41.136C41.2 6.232 41.248 6.856 41.248 7.336V9.096H38.336C37.68 9.096 37.152 9.064 36.736 9V10.12C37.232 10.056 37.728 10.024 38.32 10.024H40.832C40.288 11.24 39.984 11.752 39.216 12.824C38.096 14.36 37.264 15.224 35.888 16.216C36.32 16.584 36.432 16.696 36.656 17.064C37.792 16.12 38.544 15.32 39.36 14.2C40.144 13.16 40.608 12.312 41.28 10.744C41.248 11.432 41.248 11.976 41.248 12.712V16.072H39.92C39.328 16.072 38.96 16.056 38.608 15.992V17.048C38.976 16.984 39.328 16.968 39.904 16.968H41.248ZM34.656 18.264C34.656 19.096 34.624 19.608 34.56 20.184H35.744C35.68 19.64 35.664 19.096 35.664 18.312V9.768C36.176 8.712 36.384 8.264 36.816 7.08C37.024 6.504 37.104 6.312 37.248 5.976L36.128 5.64C36 6.376 35.856 6.872 35.52 7.736C34.816 9.528 33.84 11.064 32.416 12.616C32.768 13.016 32.816 13.096 33.056 13.528C33.808 12.664 34.176 12.136 34.704 11.192C34.656 11.976 34.656 12.424 34.656 13.144V18.264ZM61.408 15.512C61.856 15.512 62.192 15.528 62.608 15.576C62.56 15.272 62.544 15 62.544 14.44V12.616C62.544 12.184 62.56 11.816 62.608 11.496C62.272 11.544 61.936 11.56 61.328 11.56H59.456C59.456 11.384 59.456 10.504 59.456 10.12H60.384C60.96 10.12 61.296 10.136 61.664 10.2V9.24C61.264 9.288 61.024 9.304 60.416 9.304H57.728C57.12 9.304 56.848 9.288 56.448 9.24V10.2C56.848 10.136 57.168 10.12 57.728 10.12H58.56C58.56 10.328 58.56 10.488 58.56 10.6C58.576 10.872 58.576 11.064 58.576 11.144C58.576 11.144 58.576 11.368 58.56 11.56H56.8C56.208 11.56 55.872 11.544 55.536 11.496C55.584 11.928 55.6 12.152 55.6 12.616V14.44C55.6 14.952 55.584 15.24 55.536 15.576C55.92 15.528 56.24 15.512 56.752 15.512H58.192C57.664 17.336 56.592 18.456 54.48 19.432C54.8 19.72 54.944 19.896 55.152 20.248C57.152 19.272 58.4 17.88 58.992 15.976C59.328 16.76 59.728 17.416 60.336 18.136C61.072 19.032 61.776 19.576 63.072 20.28C63.28 19.88 63.44 19.64 63.68 19.368C62.16 18.68 61.312 18.04 60.512 16.984C60.16 16.52 59.936 16.136 59.648 15.512H61.408ZM58.544 12.376C58.512 13.448 58.48 14.04 58.368 14.728H56.496V12.376H58.544ZM61.632 12.376V14.728H59.264C59.376 14.024 59.424 13.288 59.44 12.376H61.632ZM52.816 11.656H53.248C53.792 11.656 54.128 11.672 54.496 11.736V10.824C54.144 10.872 53.856 10.888 53.248 10.888H52.816V9.4H53.248C53.792 9.4 54.096 9.416 54.496 9.48V8.552C54.096 8.616 53.808 8.632 53.248 8.632H52.816V7.112H53.6C54.208 7.112 54.528 7.128 54.912 7.192V6.216C54.512 6.28 54.208 6.296 53.52 6.296H50.88C50.224 6.296 49.824 6.28 49.408 6.216C49.456 6.648 49.472 7.048 49.472 7.752V12.76C49.472 13.32 49.456 13.768 49.424 14.184C49.76 14.152 50.224 14.136 50.688 14.136H53.984C53.888 16.28 53.728 17.768 53.52 18.632C53.424 19.048 53.216 19.224 52.832 19.224C52.4 19.224 51.92 19.16 51.408 19.016C51.52 19.352 51.568 19.624 51.568 20.008C52.08 20.072 52.448 20.104 52.848 20.104C53.6 20.104 53.952 19.912 54.208 19.32C54.496 18.664 54.8 16.392 54.88 14.2C54.912 13.704 54.912 13.56 54.944 13.272C54.64 13.32 54.288 13.336 53.536 13.336H52.816V11.656ZM51.952 11.656V13.336H50.352V11.656H51.952ZM51.952 10.888H50.352V9.4H51.952V10.888ZM51.952 8.632H50.352V7.112H51.952V8.632ZM49.392 14.872C49.2 16.792 49.04 17.512 48.528 18.776L49.296 19.176C49.76 17.896 49.936 16.952 50.112 15.016L49.392 14.872ZM50.528 15.064C50.56 15.688 50.576 15.944 50.576 16.52C50.576 17.208 50.56 17.656 50.512 18.52L51.312 18.408C51.328 18.104 51.328 17.832 51.328 17.72C51.328 16.6 51.296 16.04 51.2 14.952L50.528 15.064ZM51.568 15.016C51.776 16.056 51.856 16.68 51.904 17.96L52.624 17.768C52.528 16.552 52.448 15.992 52.176 14.872L51.568 15.016ZM58.336 5.8C57.552 7.16 56.432 8.168 54.56 9.272C54.832 9.576 54.928 9.704 55.12 10.088C56.944 8.904 57.792 8.12 58.88 6.584C59.6 7.464 59.968 7.864 60.704 8.456C61.488 9.096 62.032 9.464 63.136 10.056C63.296 9.672 63.44 9.432 63.68 9.16C62.336 8.536 61.744 8.168 60.88 7.432C60.208 6.856 59.824 6.44 59.408 5.8H58.336ZM52.592 14.856C52.864 15.72 52.912 15.96 53.04 17.064L53.648 16.84C53.52 15.96 53.408 15.448 53.136 14.696L52.592 14.856ZM77.536 14.984V18.712C77.536 18.968 77.408 19.064 77.024 19.064C76.512 19.064 76.144 19.016 75.264 18.856C75.424 19.336 75.472 19.528 75.52 19.992C76.384 20.04 76.56 20.056 76.784 20.056C77.44 20.056 77.888 19.992 78.08 19.88C78.368 19.72 78.512 19.384 78.512 18.84V8.056C78.512 7.352 78.528 6.872 78.576 6.504C78.144 6.552 77.792 6.568 77.056 6.568H74.848C74.112 6.568 73.76 6.552 73.312 6.504C73.36 6.952 73.376 7.32 73.376 8.392C73.376 11.816 73.264 14.648 73.104 15.816C72.864 17.432 72.48 18.312 71.52 19.432C71.904 19.688 71.92 19.704 72.304 20.168C73.52 18.584 73.968 17.336 74.176 14.984H77.536ZM77.536 11.16V14.088H74.224C74.288 13.064 74.288 12.728 74.32 11.16H77.536ZM77.536 10.264H74.336C74.336 9.976 74.336 9.912 74.336 9.64V7.464H77.536V10.264ZM66.448 7.704H66.352C65.68 7.704 65.264 7.672 64.976 7.608V8.648C65.28 8.584 65.696 8.568 66.352 8.568H66.448V15.4H66C65.392 15.4 65.04 15.384 64.72 15.32V16.344C65.072 16.28 65.376 16.264 66.016 16.264H71.072C71.696 16.264 72.16 16.28 72.528 16.312V15.32C72.24 15.368 71.84 15.4 71.264 15.4V8.568C71.936 8.568 72.256 8.584 72.592 8.632V7.608C72.304 7.672 71.84 7.704 71.264 7.704V7.416C71.264 6.744 71.296 6.28 71.36 5.88H70.256C70.32 6.264 70.336 6.68 70.336 7.4V7.704H67.392V7.416C67.392 6.776 67.408 6.296 67.472 5.88H66.352C66.416 6.328 66.448 6.76 66.448 7.4V7.704ZM67.392 15.4V13.544H70.336V15.4H67.392ZM67.392 12.728V11.048H70.336V12.728H67.392ZM67.392 10.232V8.568H70.336V10.232H67.392ZM67.264 16.824C66.672 17.896 66.064 18.536 64.864 19.32C65.232 19.576 65.392 19.752 65.6 20.088C66.832 19.112 67.312 18.568 68.096 17.32L67.264 16.824ZM69.376 17.304C69.872 18.088 70.24 18.504 70.928 19.144C71.2 18.824 71.344 18.68 71.664 18.456C70.928 17.896 70.608 17.56 70.096 16.808L69.376 17.304ZM82.544 11.192H85.472C86.112 11.192 86.656 11.208 87.088 11.24C87.056 10.84 87.04 10.392 87.04 9.752V7.768C87.04 7.176 87.056 6.696 87.088 6.248C86.64 6.296 86.256 6.312 85.456 6.312H83.168C82.352 6.312 81.936 6.296 81.488 6.248C81.536 6.76 81.552 7.224 81.552 8.008V18.344C81.552 19.208 81.52 19.704 81.456 20.136H82.64C82.576 19.72 82.544 19.24 82.544 18.344V11.192ZM82.544 7.096H86.128V8.376H82.544V7.096ZM82.544 9.128H86.128V10.424H82.544V9.128ZM94.432 8.008C94.432 7.288 94.448 6.872 94.512 6.248C94.048 6.296 93.664 6.312 92.832 6.312H90.192C89.376 6.312 89.008 6.296 88.56 6.248C88.592 6.728 88.608 7.208 88.608 7.768V9.752C88.608 10.344 88.592 10.824 88.56 11.24C88.992 11.208 89.504 11.192 90.176 11.192H93.456V18.52C93.456 18.904 93.328 18.984 92.672 18.984C92.336 18.984 91.664 18.92 90.912 18.824C91.056 19.16 91.136 19.416 91.2 19.848C91.6 19.88 92.464 19.912 92.8 19.912C94.096 19.912 94.432 19.64 94.432 18.584V8.008ZM89.52 7.096H93.456V8.376H89.52V7.096ZM89.52 9.128H93.456V10.424H89.52V9.128ZM90.944 13.96C90.944 13.32 90.96 12.904 90.992 12.456C90.512 12.504 90.144 12.52 89.408 12.52H86.48C85.76 12.52 85.376 12.504 84.896 12.456C84.928 12.92 84.944 13.384 84.944 13.96V17.512C84.944 18.168 84.928 18.584 84.864 19.016H85.856V17.896H89.36C90.016 17.896 90.544 17.912 90.992 17.944C90.96 17.528 90.944 17.096 90.944 16.488V13.96ZM85.856 13.32H90.032V14.744H85.856V13.32ZM85.856 15.544H90.032V17.096H85.856V15.544ZM100.96 6.44C101.056 6.696 101.088 6.776 101.232 7.448C101.648 9.496 101.952 10.616 102.4 11.928C101.408 12.424 100.912 12.728 100.304 13.224C99.36 13.992 98.88 14.92 98.88 15.944C98.88 17.208 99.552 18.088 100.864 18.568C101.632 18.856 102.832 19 104.416 19C105.536 19 106.304 18.952 107.952 18.792C108.832 18.696 108.832 18.696 109.136 18.696L109.008 17.368C108.064 17.704 106.272 17.912 104.432 17.912C101.296 17.912 100.064 17.352 100.064 15.896C100.064 14.568 101.248 13.512 103.984 12.424C105.392 11.848 107.68 11.112 108.8 10.872L108.32 9.656C108 9.816 107.856 9.864 107.296 10.072C104.816 10.936 104.368 11.112 103.424 11.496C102.88 9.896 102.288 7.272 102.224 6.2L100.96 6.44ZM115.712 6.52C115.76 6.84 115.776 7.032 115.776 7.368C115.776 7.624 115.776 7.928 115.76 8.408C115.632 13.448 115.616 13.848 115.616 14.92C115.616 16.6 115.84 17.448 116.496 18.2C117.136 18.936 118.144 19.32 119.504 19.32C121.376 19.32 122.88 18.664 124.016 17.32C124.72 16.504 125.184 15.56 125.792 13.688C125.28 13.432 125.088 13.304 124.64 12.92C124.416 14.04 124.224 14.664 123.856 15.432C122.944 17.256 121.472 18.216 119.568 18.216C118.736 18.216 118.016 17.992 117.568 17.592C117.088 17.16 116.88 16.632 116.816 15.672C116.8 15.304 116.784 14.904 116.784 14.712C116.784 13.992 116.832 11.816 116.896 9.896C116.944 7.88 117.008 7.064 117.104 6.52H115.712ZM128.695 9.704C129.479 9.528 130.903 9.4 134.215 9.176C135.991 9.064 136.791 8.984 137.735 8.824C137.127 9.112 136.711 9.336 136.215 9.672C134.311 10.952 133.223 12.728 133.223 14.584C133.223 15.896 133.863 17.08 134.999 17.848C135.911 18.472 136.871 18.808 138.455 19.08C138.711 19.128 138.775 19.144 138.951 19.176L139.159 17.88C139.095 17.88 139.031 17.88 138.999 17.88C138.391 17.88 137.383 17.656 136.599 17.368C135.175 16.824 134.359 15.752 134.359 14.408C134.359 13.08 135.047 11.784 136.327 10.712C137.207 9.96 138.327 9.384 139.399 9.096C140.007 8.952 140.551 8.888 141.191 8.888L141.095 7.688C140.839 7.768 140.087 7.832 139.191 7.864C137.127 7.96 132.007 8.248 130.103 8.392C129.607 8.424 129.415 8.44 129.191 8.44C129.079 8.44 128.919 8.44 128.615 8.44L128.695 9.704Z" fill="black" fill-opacity="0.87"/>
<path d="M4.288 35.152H2.624C1.856 35.152 1.472 35.136 1.104 35.056V36.144C1.536 36.08 1.968 36.048 2.608 36.048H4.128C3.872 36.832 3.408 37.84 2.896 38.72C2.272 39.776 1.68 40.512 0.72 41.408C0.976 41.664 1.152 41.904 1.376 42.32C2.816 40.768 3.6 39.488 4.352 37.472C4.288 38.848 4.272 39.296 4.272 40.192V43.312C4.272 44.176 4.24 44.704 4.16 45.264H5.344C5.264 44.8 5.248 44.288 5.248 43.312V39.984C5.248 39.264 5.216 38.176 5.168 37.28C5.792 38.56 6.256 39.216 7.44 40.448C7.616 40.096 7.76 39.888 8.032 39.584C7.056 38.72 6.544 38.176 6.048 37.456C5.68 36.944 5.552 36.72 5.28 36.048H6.784C7.424 36.048 7.808 36.064 8.208 36.128V35.072C7.792 35.136 7.376 35.152 6.816 35.152H5.248V32.656C6.048 32.432 6.608 32.24 7.344 31.968C7.728 31.84 7.728 31.84 7.984 31.744L7.264 30.896C6.992 31.072 6.8 31.168 6.224 31.36C4.4 32.016 3.12 32.32 1.152 32.576C1.376 32.896 1.488 33.12 1.616 33.488C2.8 33.28 3.296 33.168 4.288 32.928V35.152ZM9.328 31.856C9.392 32.352 9.424 32.784 9.424 33.68V39.856C9.424 40.928 9.408 41.264 9.344 41.712H10.528C10.464 41.264 10.448 40.944 10.448 39.856V33.68C10.448 32.752 10.464 32.368 10.528 31.856H9.328ZM13.248 30.96C13.312 31.472 13.344 32.064 13.344 32.976V43.456C13.344 43.856 13.216 43.936 12.576 43.936C12.048 43.936 11.36 43.888 10.512 43.792C10.688 44.192 10.768 44.432 10.848 44.848C11.36 44.88 12.032 44.896 12.48 44.896C14 44.896 14.384 44.624 14.384 43.488V32.976C14.384 32.08 14.416 31.488 14.496 30.96H13.248ZM24.592 39.872H29.28V43.488C29.28 43.888 29.136 43.968 28.432 43.968C27.856 43.968 27.072 43.904 26.144 43.792C26.288 44.192 26.352 44.464 26.384 44.832C27.056 44.88 27.856 44.912 28.368 44.912C29.92 44.912 30.288 44.672 30.288 43.664V32.928C30.288 32.208 30.304 31.792 30.352 31.36C29.888 31.408 29.456 31.424 28.656 31.424H20.048C19.248 31.424 18.768 31.408 18.288 31.36C18.352 32.048 18.352 32.352 18.352 33.968C18.352 37.92 18.208 40.256 17.856 41.728C17.6 42.816 17.248 43.536 16.56 44.432C16.976 44.672 17.136 44.784 17.488 45.12C18.56 43.6 18.976 42.288 19.216 39.872H23.6V42.896C23.6 43.744 23.584 44.224 23.52 44.64H24.672C24.608 44.256 24.592 43.744 24.592 42.896V39.872ZM24.592 35.184V32.384H29.28V35.184H24.592ZM23.6 35.184H19.376L19.392 34.288V32.384H23.6V35.184ZM24.592 36.096H29.28V38.944H24.592V36.096ZM23.6 36.096V38.944H19.28C19.328 38.208 19.328 38.144 19.344 37.152C19.344 36.928 19.344 36.544 19.36 36.096H23.6ZM37.92 38.08C37.904 39.296 37.904 39.296 37.856 40.064H37.216C36.496 40.064 36.064 40.048 35.68 39.984V40.944C36.08 40.88 36.512 40.864 37.216 40.864H37.776C37.68 41.632 37.488 42.256 37.168 42.768C36.864 43.28 36.528 43.616 35.776 44.176C36.128 44.384 36.32 44.544 36.576 44.832C37.936 43.664 38.48 42.656 38.688 40.864H41.104V43.328C41.104 44 41.088 44.368 41.008 44.704H42.112C42.032 44.4 42.016 44.048 42.016 43.328V40.864H42.816C43.52 40.864 43.952 40.88 44.352 40.944V39.984C43.968 40.048 43.552 40.064 42.816 40.064H42.016V38.08H42.592C43.264 38.08 43.744 38.096 44.112 38.144V37.2C43.664 37.264 43.312 37.28 42.576 37.28H37.504C36.784 37.28 36.416 37.264 35.984 37.2V38.144C36.352 38.096 36.832 38.08 37.504 38.08H37.92ZM41.104 38.08V40.064H38.768C38.8 39.52 38.832 38.944 38.832 38.448C38.832 38.224 38.832 38.224 38.832 38.08H41.104ZM34.528 36H37.584C38.272 36 38.816 36.016 39.2 36.048C39.168 35.648 39.152 35.2 39.152 34.56V32.592C39.152 32 39.168 31.52 39.2 31.072C38.752 31.12 38.368 31.136 37.584 31.136H35.152C34.352 31.136 33.904 31.12 33.472 31.072C33.52 31.584 33.536 32.048 33.536 32.832V43.344C33.536 44.208 33.504 44.704 33.44 45.136H34.624C34.56 44.72 34.528 44.224 34.528 43.344V36ZM34.528 31.92H38.24V33.152H34.528V31.92ZM34.528 33.92H38.24V35.216H34.528V33.92ZM46.512 32.832C46.512 32.112 46.528 31.664 46.592 31.072C46.144 31.12 45.712 31.136 44.912 31.136H42.272C41.472 31.136 41.072 31.12 40.624 31.072C40.656 31.6 40.672 32 40.672 32.592V34.56C40.672 35.2 40.656 35.584 40.624 36.048C41.072 36.016 41.584 36 42.256 36H45.536V43.504C45.536 43.872 45.424 43.952 44.912 43.952C44.48 43.952 43.76 43.888 43.136 43.792C43.312 44.16 43.376 44.4 43.44 44.816C43.76 44.832 44.608 44.864 44.8 44.864C45.472 44.864 45.712 44.832 45.936 44.752C46.352 44.576 46.512 44.24 46.512 43.552V32.832ZM41.6 31.92H45.536V33.152H41.6V31.92ZM41.6 33.92H45.536V35.216H41.6V33.92ZM54.624 37.488C54.88 37.408 55.088 37.376 55.632 37.328C58.512 37.072 59.184 36.992 61.776 36.64C62.048 37.184 62.128 37.344 62.432 38.016L63.344 37.472C62.352 35.552 61.856 34.736 60.464 32.848L59.584 33.296C60.48 34.432 60.816 34.928 61.344 35.824C59.328 36.08 58.976 36.112 56.672 36.304C57.52 34.416 57.84 33.632 58.176 32.672C58.624 31.296 58.624 31.296 58.784 30.944L57.568 30.64C57.456 31.744 56.72 33.936 55.616 36.368C55.392 36.368 55.152 36.384 55.056 36.384C54.768 36.384 54.608 36.368 54.384 36.352L54.624 37.488ZM51.952 33.952C52.144 33.008 52.272 32.288 52.368 31.744C52.448 31.248 52.464 31.104 52.544 30.816L51.392 30.704C51.408 30.784 51.408 30.848 51.408 30.896C51.408 31.52 51.264 32.56 50.976 33.952H50.288C49.76 33.952 49.392 33.92 48.976 33.856V34.944C49.376 34.88 49.776 34.848 50.256 34.848H50.784C50.368 36.64 49.936 37.936 49.328 39.296C50.464 39.984 50.928 40.304 51.712 40.944C50.96 42.192 50.144 43.056 48.768 44.064C49.072 44.288 49.28 44.512 49.504 44.848C50.912 43.776 51.664 42.944 52.464 41.6C53.056 42.144 53.328 42.448 54 43.232L54.64 42.352C53.84 41.52 53.52 41.2 52.944 40.704C53.536 39.424 53.888 38.192 54.16 36.416C54.272 35.712 54.272 35.712 54.448 33.888C54.112 33.936 53.712 33.952 52.976 33.952H51.952ZM53.392 34.848C53.136 37.392 52.832 38.672 52.176 40.08C51.664 39.696 51.376 39.504 50.512 38.912C51.024 37.632 51.44 36.24 51.76 34.848H53.392ZM56.416 44.272H61.152V45.2H62.256C62.176 44.816 62.16 44.384 62.16 43.536V39.52C62.16 39.28 62.192 38.736 62.24 38.48C61.936 38.528 61.488 38.544 60.72 38.544H56.784C56.192 38.544 55.744 38.528 55.36 38.48C55.408 38.848 55.424 39.296 55.424 39.968V43.776C55.424 44.448 55.408 44.864 55.36 45.2H56.416V44.272ZM56.416 39.456H61.152V43.36H56.416V39.456ZM75.872 39.92V43.456C75.872 43.856 75.744 43.952 75.28 43.952C74.512 43.952 73.792 43.904 72.992 43.792C73.136 44.208 73.2 44.464 73.248 44.88C73.968 44.928 74.64 44.944 75.168 44.944C75.888 44.944 76.192 44.896 76.448 44.736C76.752 44.528 76.896 44.192 76.896 43.616V33.088C76.896 32.272 76.912 31.872 76.96 31.44C76.416 31.504 76 31.52 75.296 31.52H69.28C68.592 31.52 68.176 31.504 67.6 31.44C67.648 32.048 67.664 32.688 67.664 34.16C67.664 37.712 67.488 39.68 67.04 41.2C66.656 42.496 66.144 43.344 65.152 44.336C65.52 44.592 65.744 44.816 66.032 45.184C66.928 44.16 67.376 43.456 67.792 42.4C68.096 41.648 68.304 40.848 68.448 39.92H75.872ZM68.56 38.96C68.688 37.6 68.72 36.992 68.736 36.112H75.872V38.96H68.56ZM68.736 35.152V34.768L68.752 32.496H75.872V35.152H68.736ZM84.96 31.44C85.056 31.696 85.088 31.776 85.232 32.448C85.648 34.496 85.952 35.616 86.4 36.928C85.408 37.424 84.912 37.728 84.304 38.224C83.36 38.992 82.88 39.92 82.88 40.944C82.88 42.208 83.552 43.088 84.864 43.568C85.632 43.856 86.832 44 88.416 44C89.536 44 90.304 43.952 91.952 43.792C92.832 43.696 92.832 43.696 93.136 43.696L93.008 42.368C92.064 42.704 90.272 42.912 88.432 42.912C85.296 42.912 84.064 42.352 84.064 40.896C84.064 39.568 85.248 38.512 87.984 37.424C89.392 36.848 91.68 36.112 92.8 35.872L92.32 34.656C92 34.816 91.856 34.864 91.296 35.072C88.816 35.936 88.368 36.112 87.424 36.496C86.88 34.896 86.288 32.272 86.224 31.2L84.96 31.44ZM104.464 39.248V38.704C104.464 38.304 104.48 38.032 104.528 37.744H103.472C103.504 38.048 103.52 38.336 103.52 38.704V39.248H99.456C98.784 39.248 98.336 39.216 97.888 39.152V40.208C98.336 40.144 98.768 40.128 99.52 40.128H108.528C109.248 40.128 109.664 40.144 110.112 40.208V39.152C109.68 39.216 109.184 39.248 108.48 39.248H104.464ZM106.256 43.744C106.832 42.784 107.248 41.968 107.776 40.752L106.768 40.368C106.368 41.648 106 42.432 105.232 43.744H98.736C98.048 43.744 97.52 43.712 97.088 43.648V44.736C97.552 44.672 98.08 44.64 98.768 44.64H109.2C109.904 44.64 110.432 44.672 110.88 44.736V43.648C110.448 43.712 109.936 43.744 109.232 43.744H106.256ZM102.736 32.336V36.56C102.736 36.928 102.608 37.024 102.176 37.024C101.712 37.024 101.152 36.976 100.528 36.864C100.656 37.232 100.688 37.424 100.736 37.824C101.28 37.872 101.712 37.888 102.224 37.888C103.296 37.888 103.68 37.568 103.68 36.672V32.928C103.68 32.16 103.696 31.808 103.744 31.376C103.408 31.424 103.024 31.44 102.208 31.44H98.848C98.144 31.44 97.696 31.408 97.264 31.344V32.432C97.728 32.352 98.08 32.336 98.784 32.336H102.736ZM100.96 34.208C100.064 33.552 99.536 33.216 98.608 32.736L97.968 33.392C99.008 33.904 99.552 34.256 100.32 34.928L100.96 34.208ZM109.616 32.352V36.64C109.616 37.008 109.504 37.088 109.024 37.088C108.592 37.088 107.984 37.024 107.36 36.928C107.488 37.28 107.552 37.584 107.568 37.888C108.208 37.936 108.672 37.968 109.088 37.968C110.16 37.968 110.576 37.632 110.576 36.752V32.944C110.576 32.224 110.592 31.776 110.64 31.392C110.368 31.44 109.952 31.456 109.136 31.456H105.84C105.104 31.456 104.64 31.424 104.24 31.36V32.448C104.736 32.368 105.072 32.352 105.76 32.352H109.616ZM107.76 34.256C106.8 33.568 106.336 33.28 105.312 32.752L104.704 33.408C105.712 33.904 106.24 34.256 107.136 34.944L107.76 34.256ZM102.432 43.136C101.984 41.824 101.744 41.296 101.264 40.416L100.368 40.752C100.928 41.728 101.216 42.432 101.488 43.52L102.432 43.136ZM101.952 34.64C100 35.792 98.32 36.544 97.216 36.784L97.68 37.808C97.936 37.664 98.064 37.6 98.352 37.456C99.984 36.72 100.528 36.448 102.048 35.584L101.952 34.64ZM108.864 34.672C107.04 35.664 105.52 36.256 104.4 36.432L104.768 37.472C105.024 37.36 105.136 37.312 105.456 37.184C107.2 36.48 107.712 36.24 108.944 35.6L108.864 34.672ZM123.872 39.92V43.456C123.872 43.856 123.744 43.952 123.28 43.952C122.512 43.952 121.792 43.904 120.992 43.792C121.136 44.208 121.2 44.464 121.248 44.88C121.968 44.928 122.64 44.944 123.168 44.944C123.888 44.944 124.192 44.896 124.448 44.736C124.752 44.528 124.896 44.192 124.896 43.616V33.088C124.896 32.272 124.912 31.872 124.96 31.44C124.416 31.504 124 31.52 123.296 31.52H117.28C116.592 31.52 116.176 31.504 115.6 31.44C115.648 32.048 115.664 32.688 115.664 34.16C115.664 37.712 115.488 39.68 115.04 41.2C114.656 42.496 114.144 43.344 113.152 44.336C113.52 44.592 113.744 44.816 114.032 45.184C114.928 44.16 115.376 43.456 115.792 42.4C116.096 41.648 116.304 40.848 116.448 39.92H123.872ZM116.56 38.96C116.688 37.6 116.72 36.992 116.736 36.112H123.872V38.96H116.56ZM116.736 35.152V34.768L116.752 32.496H123.872V35.152H116.736ZM139.648 31.44C140.128 31.952 140.896 33.136 141.296 33.984L142.096 33.504C141.616 32.56 141.168 31.888 140.448 31.024L139.648 31.44ZM129.344 36.368C130.064 36.16 130.512 36.08 132.56 35.792C131.84 38.816 130.464 42.016 129.136 43.76L130.224 44.4C131.888 41.472 133.008 38.688 133.68 35.696C134.272 35.632 134.48 35.616 134.832 35.616C136.32 35.616 136.8 36.16 136.8 37.856C136.8 39.648 136.56 41.28 136.128 42.304C135.92 42.816 135.616 43.072 135.216 43.072C134.64 43.072 133.744 42.8 132.832 42.336C132.88 42.624 132.88 42.72 132.88 42.96C132.88 43.184 132.88 43.296 132.848 43.536C133.904 43.984 134.576 44.16 135.264 44.16C136.016 44.16 136.448 43.952 136.832 43.408C137.488 42.48 137.904 40.352 137.904 37.904C137.904 36.592 137.68 35.856 137.12 35.328C136.624 34.848 135.952 34.656 134.816 34.656C134.448 34.656 134.24 34.672 133.872 34.704C134 34.016 134.144 33.28 134.208 32.88C134.336 32.016 134.416 31.648 134.512 31.344L133.232 31.2C133.232 31.296 133.232 31.376 133.232 31.408C133.232 32.08 133.024 33.6 132.752 34.8C130.4 35.136 129.792 35.2 129.216 35.216L129.344 36.368ZM141.472 30.592C142.096 31.312 142.768 32.352 143.104 33.104L143.904 32.64C143.376 31.632 142.976 31.04 142.256 30.16L141.472 30.592ZM138.784 34.24C140.224 35.664 141.52 37.952 142.048 39.984L143.072 39.408C142.4 37.296 141.312 35.44 139.728 33.744L138.784 34.24Z" fill="black" fill-opacity="0.87"/>
<path d="M179.248 39.04H188.768V42.944C188.768 43.328 188.672 43.376 188.048 43.376C187.472 43.376 186.672 43.312 185.616 43.2C185.904 43.856 186.016 44.304 186.112 44.928C186.736 44.96 187.616 44.992 188.24 44.992C189.104 44.992 189.616 44.928 189.92 44.768C190.384 44.528 190.576 44.08 190.576 43.264V33.008C190.576 32.144 190.592 31.728 190.64 31.264C190.256 31.312 189.776 31.328 188.896 31.328H179.168C178.32 31.328 177.904 31.312 177.392 31.264C177.44 31.728 177.456 32.128 177.456 32.8V43.264C177.456 44.096 177.424 44.672 177.36 45.184H179.328C179.264 44.816 179.248 44.336 179.248 43.328V39.04ZM183.04 37.36H179.248V33.024H183.04V37.36ZM184.768 37.36V33.024H188.768V37.36H184.768Z" fill="black" fill-opacity="0.87"/>
<path d="M170.2 32.84C170.2 35.1333 169.973 37.2 169.52 39.04C169.093 40.88 168.453 42.44 167.6 43.72C166.773 45 165.733 45.9867 164.48 46.68C163.253 47.3733 161.84 47.72 160.24 47.72C158.64 47.72 157.213 47.3733 155.96 46.68C154.707 45.9867 153.653 45 152.8 43.72C151.947 42.44 151.293 40.88 150.84 39.04C150.413 37.2 150.2 35.1333 150.2 32.84C150.2 30.5467 150.413 28.48 150.84 26.64C151.293 24.8 151.947 23.24 152.8 21.96C153.653 20.68 154.707 19.6933 155.96 19C157.213 18.3067 158.64 17.96 160.24 17.96C161.84 17.96 163.253 18.3067 164.48 19C165.733 19.6933 166.773 20.68 167.6 21.96C168.453 23.24 169.093 24.8 169.52 26.64C169.973 28.48 170.2 30.5467 170.2 32.84ZM165.28 32.84C165.28 31.8533 165.213 30.7333 165.08 29.48C164.973 28.2267 164.733 27.04 164.36 25.92C164.013 24.8 163.507 23.8667 162.84 23.12C162.173 22.3467 161.307 21.96 160.24 21.96C159.147 21.96 158.267 22.3467 157.6 23.12C156.933 23.8667 156.413 24.8 156.04 25.92C155.693 27.04 155.453 28.2267 155.32 29.48C155.187 30.7333 155.12 31.8533 155.12 32.84C155.12 33.8267 155.187 34.9467 155.32 36.2C155.453 37.4533 155.693 38.6267 156.04 39.72C156.413 40.8133 156.933 41.7467 157.6 42.52C158.267 43.2667 159.147 43.64 160.24 43.64C161.307 43.64 162.173 43.2667 162.84 42.52C163.507 41.7467 164.013 40.8133 164.36 39.72C164.733 38.6267 164.973 37.4533 165.08 36.2C165.213 34.9467 165.28 33.8267 165.28 32.84Z" fill="black" fill-opacity="0.87"/>
</svg>
