<svg width="351" height="35" viewBox="0 0 351 35" fill="none" xmlns="http://www.w3.org/2000/svg">
<path d="M3.344 20.096H2.512C1.824 20.096 1.392 20.064 0.96 20V21.104C1.456 21.04 1.856 21.008 2.512 21.008H3.344V23.904H2.912C2.24 23.904 1.776 23.872 1.36 23.808V24.896C1.824 24.832 2.256 24.8 2.864 24.8H13.296C13.936 24.8 14.384 24.832 14.832 24.896V23.808C14.416 23.872 13.984 23.904 13.28 23.904H12.736V21.008H13.6C14.272 21.008 14.704 21.04 15.168 21.104V20C14.736 20.064 14.304 20.096 13.6 20.096H12.736V17.232C13.424 17.232 13.92 17.264 14.512 17.312V16.24C14.048 16.304 13.52 16.336 12.496 16.336H4.32C4.656 15.824 4.8 15.6 5.168 14.944C5.28 14.768 5.312 14.704 5.408 14.56L4.288 14.288C4.224 14.56 4.128 14.8 3.968 15.136C3.296 16.48 2.464 17.44 0.864 18.704C1.2 18.896 1.408 19.088 1.632 19.376C2.4 18.704 2.752 18.336 3.344 17.6V20.096ZM4.272 17.232H6.176V20.096H4.272V17.232ZM4.272 21.008H6.176V23.904H4.272V21.008ZM7.056 23.904V21.008H8.944V23.904H7.056ZM7.056 20.096V17.232H8.944V20.096H7.056ZM9.824 23.904V21.008H11.808V23.904H9.824ZM9.824 20.096V17.232H11.808V20.096H9.824ZM14.928 28.336C14.304 27.152 13.808 26.416 12.896 25.328L12.08 25.76C12.992 26.88 13.44 27.6 14.032 28.912L14.928 28.336ZM10.48 28.656C10.144 27.104 9.968 26.512 9.52 25.456L8.656 25.712C9.104 26.864 9.216 27.344 9.488 28.928L10.48 28.656ZM6.832 28.816C6.752 27.52 6.64 26.736 6.352 25.52L5.456 25.664C5.68 26.736 5.808 27.808 5.824 28.976L6.832 28.816ZM1.92 29.008C2.864 27.984 3.328 27.248 3.968 25.776L3.104 25.296C2.576 26.672 2.096 27.376 1.088 28.304L1.92 29.008ZM28.56 24.048L24.192 25.088C23.584 25.232 23.056 25.328 22.656 25.344L22.864 26.48C23.248 26.336 23.712 26.192 24.352 26.048L28.56 25.024V27.44C28.56 28.352 28.544 28.768 28.464 29.2H29.68C29.616 28.736 29.584 28.224 29.584 27.456V24.784L29.952 24.688C30.576 24.544 31.088 24.448 31.488 24.416L31.296 23.296C30.944 23.44 30.544 23.568 29.824 23.744L29.584 23.792V16.432C29.584 15.68 29.616 15.248 29.68 14.768H28.464C28.528 15.168 28.56 15.6 28.56 16.448V24.048ZM19.68 21.12C19.344 22.112 19.184 22.48 18.784 23.264C18.208 24.384 17.68 25.136 16.88 25.952C17.136 26.224 17.264 26.416 17.488 26.848C18.576 25.616 19.28 24.304 19.952 22.272C19.904 23.12 19.872 24.016 19.872 24.752V27.472C19.872 28.208 19.84 28.704 19.776 29.248H20.944C20.88 28.736 20.848 28.256 20.848 27.488V24.496C20.848 24.192 20.8 22.768 20.768 22.128C21.232 23.2 21.68 23.856 22.64 24.944C22.768 24.688 22.976 24.368 23.2 24.08C22.224 23.216 21.6 22.416 20.912 21.12H21.792C22.288 21.12 22.656 21.136 22.992 21.184V20.176C22.672 20.224 22.352 20.24 21.808 20.24H20.848V16.448C20.848 15.632 20.88 15.152 20.944 14.752H19.776C19.84 15.168 19.872 15.68 19.872 16.464V20.24H18.608C17.904 20.24 17.536 20.224 17.216 20.16V21.2C17.6 21.136 17.936 21.12 18.608 21.12H19.68ZM17.296 16.128C17.792 17.232 18.064 18.096 18.352 19.552L19.2 19.184C18.896 17.824 18.672 17.12 18.128 15.76L17.296 16.128ZM22.464 15.712C22.128 17.296 21.888 18.016 21.296 19.184L22.08 19.552C22.672 18.32 22.672 18.304 23.376 16.064L22.464 15.712ZM24.08 16.672C25.376 17.568 25.92 18.064 26.992 19.264L27.648 18.432C26.688 17.408 26.16 16.944 24.768 15.936L24.08 16.672ZM23.584 20.672C24.864 21.504 25.504 22.048 26.48 23.168L27.152 22.368C26.32 21.44 25.632 20.864 24.288 19.936L23.584 20.672ZM41.248 25.968V27.536C41.248 28.112 41.2 28.64 41.136 29.184H42.304C42.24 28.608 42.208 28.144 42.208 27.536V25.968H43.664C44.24 25.968 44.576 25.984 44.96 26.048V24.992C44.592 25.056 44.24 25.072 43.664 25.072H42.208V21.712C42.208 21.072 42.192 20.64 42.16 19.712C42.96 21.536 43.6 22.56 44.704 23.872C45.456 24.768 46.128 25.456 46.976 26.128C47.248 25.728 47.456 25.472 47.76 25.232C46.544 24.368 45.744 23.632 44.864 22.544C43.984 21.456 43.552 20.8 42.608 19.024H45.632C46.256 19.024 46.8 19.056 47.264 19.12V18C46.8 18.064 46.304 18.096 45.616 18.096H42.208V16.336C42.208 15.744 42.256 15.136 42.336 14.768H41.136C41.2 15.232 41.248 15.856 41.248 16.336V18.096H38.336C37.68 18.096 37.152 18.064 36.736 18V19.12C37.232 19.056 37.728 19.024 38.32 19.024H40.832C40.288 20.24 39.984 20.752 39.216 21.824C38.096 23.36 37.264 24.224 35.888 25.216C36.32 25.584 36.432 25.696 36.656 26.064C37.792 25.12 38.544 24.32 39.36 23.2C40.144 22.16 40.608 21.312 41.28 19.744C41.248 20.432 41.248 20.976 41.248 21.712V25.072H39.92C39.328 25.072 38.96 25.056 38.608 24.992V26.048C38.976 25.984 39.328 25.968 39.904 25.968H41.248ZM34.656 27.264C34.656 28.096 34.624 28.608 34.56 29.184H35.744C35.68 28.64 35.664 28.096 35.664 27.312V18.768C36.176 17.712 36.384 17.264 36.816 16.08C37.024 15.504 37.104 15.312 37.248 14.976L36.128 14.64C36 15.376 35.856 15.872 35.52 16.736C34.816 18.528 33.84 20.064 32.416 21.616C32.768 22.016 32.816 22.096 33.056 22.528C33.808 21.664 34.176 21.136 34.704 20.192C34.656 20.976 34.656 21.424 34.656 22.144V27.264ZM61.408 24.512C61.856 24.512 62.192 24.528 62.608 24.576C62.56 24.272 62.544 24 62.544 23.44V21.616C62.544 21.184 62.56 20.816 62.608 20.496C62.272 20.544 61.936 20.56 61.328 20.56H59.456C59.456 20.384 59.456 19.504 59.456 19.12H60.384C60.96 19.12 61.296 19.136 61.664 19.2V18.24C61.264 18.288 61.024 18.304 60.416 18.304H57.728C57.12 18.304 56.848 18.288 56.448 18.24V19.2C56.848 19.136 57.168 19.12 57.728 19.12H58.56C58.56 19.328 58.56 19.488 58.56 19.6C58.576 19.872 58.576 20.064 58.576 20.144C58.576 20.144 58.576 20.368 58.56 20.56H56.8C56.208 20.56 55.872 20.544 55.536 20.496C55.584 20.928 55.6 21.152 55.6 21.616V23.44C55.6 23.952 55.584 24.24 55.536 24.576C55.92 24.528 56.24 24.512 56.752 24.512H58.192C57.664 26.336 56.592 27.456 54.48 28.432C54.8 28.72 54.944 28.896 55.152 29.248C57.152 28.272 58.4 26.88 58.992 24.976C59.328 25.76 59.728 26.416 60.336 27.136C61.072 28.032 61.776 28.576 63.072 29.28C63.28 28.88 63.44 28.64 63.68 28.368C62.16 27.68 61.312 27.04 60.512 25.984C60.16 25.52 59.936 25.136 59.648 24.512H61.408ZM58.544 21.376C58.512 22.448 58.48 23.04 58.368 23.728H56.496V21.376H58.544ZM61.632 21.376V23.728H59.264C59.376 23.024 59.424 22.288 59.44 21.376H61.632ZM52.816 20.656H53.248C53.792 20.656 54.128 20.672 54.496 20.736V19.824C54.144 19.872 53.856 19.888 53.248 19.888H52.816V18.4H53.248C53.792 18.4 54.096 18.416 54.496 18.48V17.552C54.096 17.616 53.808 17.632 53.248 17.632H52.816V16.112H53.6C54.208 16.112 54.528 16.128 54.912 16.192V15.216C54.512 15.28 54.208 15.296 53.52 15.296H50.88C50.224 15.296 49.824 15.28 49.408 15.216C49.456 15.648 49.472 16.048 49.472 16.752V21.76C49.472 22.32 49.456 22.768 49.424 23.184C49.76 23.152 50.224 23.136 50.688 23.136H53.984C53.888 25.28 53.728 26.768 53.52 27.632C53.424 28.048 53.216 28.224 52.832 28.224C52.4 28.224 51.92 28.16 51.408 28.016C51.52 28.352 51.568 28.624 51.568 29.008C52.08 29.072 52.448 29.104 52.848 29.104C53.6 29.104 53.952 28.912 54.208 28.32C54.496 27.664 54.8 25.392 54.88 23.2C54.912 22.704 54.912 22.56 54.944 22.272C54.64 22.32 54.288 22.336 53.536 22.336H52.816V20.656ZM51.952 20.656V22.336H50.352V20.656H51.952ZM51.952 19.888H50.352V18.4H51.952V19.888ZM51.952 17.632H50.352V16.112H51.952V17.632ZM49.392 23.872C49.2 25.792 49.04 26.512 48.528 27.776L49.296 28.176C49.76 26.896 49.936 25.952 50.112 24.016L49.392 23.872ZM50.528 24.064C50.56 24.688 50.576 24.944 50.576 25.52C50.576 26.208 50.56 26.656 50.512 27.52L51.312 27.408C51.328 27.104 51.328 26.832 51.328 26.72C51.328 25.6 51.296 25.04 51.2 23.952L50.528 24.064ZM51.568 24.016C51.776 25.056 51.856 25.68 51.904 26.96L52.624 26.768C52.528 25.552 52.448 24.992 52.176 23.872L51.568 24.016ZM58.336 14.8C57.552 16.16 56.432 17.168 54.56 18.272C54.832 18.576 54.928 18.704 55.12 19.088C56.944 17.904 57.792 17.12 58.88 15.584C59.6 16.464 59.968 16.864 60.704 17.456C61.488 18.096 62.032 18.464 63.136 19.056C63.296 18.672 63.44 18.432 63.68 18.16C62.336 17.536 61.744 17.168 60.88 16.432C60.208 15.856 59.824 15.44 59.408 14.8H58.336ZM52.592 23.856C52.864 24.72 52.912 24.96 53.04 26.064L53.648 25.84C53.52 24.96 53.408 24.448 53.136 23.696L52.592 23.856ZM77.536 23.984V27.712C77.536 27.968 77.408 28.064 77.024 28.064C76.512 28.064 76.144 28.016 75.264 27.856C75.424 28.336 75.472 28.528 75.52 28.992C76.384 29.04 76.56 29.056 76.784 29.056C77.44 29.056 77.888 28.992 78.08 28.88C78.368 28.72 78.512 28.384 78.512 27.84V17.056C78.512 16.352 78.528 15.872 78.576 15.504C78.144 15.552 77.792 15.568 77.056 15.568H74.848C74.112 15.568 73.76 15.552 73.312 15.504C73.36 15.952 73.376 16.32 73.376 17.392C73.376 20.816 73.264 23.648 73.104 24.816C72.864 26.432 72.48 27.312 71.52 28.432C71.904 28.688 71.92 28.704 72.304 29.168C73.52 27.584 73.968 26.336 74.176 23.984H77.536ZM77.536 20.16V23.088H74.224C74.288 22.064 74.288 21.728 74.32 20.16H77.536ZM77.536 19.264H74.336C74.336 18.976 74.336 18.912 74.336 18.64V16.464H77.536V19.264ZM66.448 16.704H66.352C65.68 16.704 65.264 16.672 64.976 16.608V17.648C65.28 17.584 65.696 17.568 66.352 17.568H66.448V24.4H66C65.392 24.4 65.04 24.384 64.72 24.32V25.344C65.072 25.28 65.376 25.264 66.016 25.264H71.072C71.696 25.264 72.16 25.28 72.528 25.312V24.32C72.24 24.368 71.84 24.4 71.264 24.4V17.568C71.936 17.568 72.256 17.584 72.592 17.632V16.608C72.304 16.672 71.84 16.704 71.264 16.704V16.416C71.264 15.744 71.296 15.28 71.36 14.88H70.256C70.32 15.264 70.336 15.68 70.336 16.4V16.704H67.392V16.416C67.392 15.776 67.408 15.296 67.472 14.88H66.352C66.416 15.328 66.448 15.76 66.448 16.4V16.704ZM67.392 24.4V22.544H70.336V24.4H67.392ZM67.392 21.728V20.048H70.336V21.728H67.392ZM67.392 19.232V17.568H70.336V19.232H67.392ZM67.264 25.824C66.672 26.896 66.064 27.536 64.864 28.32C65.232 28.576 65.392 28.752 65.6 29.088C66.832 28.112 67.312 27.568 68.096 26.32L67.264 25.824ZM69.376 26.304C69.872 27.088 70.24 27.504 70.928 28.144C71.2 27.824 71.344 27.68 71.664 27.456C70.928 26.896 70.608 26.56 70.096 25.808L69.376 26.304ZM82.544 20.192H85.472C86.112 20.192 86.656 20.208 87.088 20.24C87.056 19.84 87.04 19.392 87.04 18.752V16.768C87.04 16.176 87.056 15.696 87.088 15.248C86.64 15.296 86.256 15.312 85.456 15.312H83.168C82.352 15.312 81.936 15.296 81.488 15.248C81.536 15.76 81.552 16.224 81.552 17.008V27.344C81.552 28.208 81.52 28.704 81.456 29.136H82.64C82.576 28.72 82.544 28.24 82.544 27.344V20.192ZM82.544 16.096H86.128V17.376H82.544V16.096ZM82.544 18.128H86.128V19.424H82.544V18.128ZM94.432 17.008C94.432 16.288 94.448 15.872 94.512 15.248C94.048 15.296 93.664 15.312 92.832 15.312H90.192C89.376 15.312 89.008 15.296 88.56 15.248C88.592 15.728 88.608 16.208 88.608 16.768V18.752C88.608 19.344 88.592 19.824 88.56 20.24C88.992 20.208 89.504 20.192 90.176 20.192H93.456V27.52C93.456 27.904 93.328 27.984 92.672 27.984C92.336 27.984 91.664 27.92 90.912 27.824C91.056 28.16 91.136 28.416 91.2 28.848C91.6 28.88 92.464 28.912 92.8 28.912C94.096 28.912 94.432 28.64 94.432 27.584V17.008ZM89.52 16.096H93.456V17.376H89.52V16.096ZM89.52 18.128H93.456V19.424H89.52V18.128ZM90.944 22.96C90.944 22.32 90.96 21.904 90.992 21.456C90.512 21.504 90.144 21.52 89.408 21.52H86.48C85.76 21.52 85.376 21.504 84.896 21.456C84.928 21.92 84.944 22.384 84.944 22.96V26.512C84.944 27.168 84.928 27.584 84.864 28.016H85.856V26.896H89.36C90.016 26.896 90.544 26.912 90.992 26.944C90.96 26.528 90.944 26.096 90.944 25.488V22.96ZM85.856 22.32H90.032V23.744H85.856V22.32ZM85.856 24.544H90.032V26.096H85.856V24.544ZM100.96 15.44C101.056 15.696 101.088 15.776 101.232 16.448C101.648 18.496 101.952 19.616 102.4 20.928C101.408 21.424 100.912 21.728 100.304 22.224C99.36 22.992 98.88 23.92 98.88 24.944C98.88 26.208 99.552 27.088 100.864 27.568C101.632 27.856 102.832 28 104.416 28C105.536 28 106.304 27.952 107.952 27.792C108.832 27.696 108.832 27.696 109.136 27.696L109.008 26.368C108.064 26.704 106.272 26.912 104.432 26.912C101.296 26.912 100.064 26.352 100.064 24.896C100.064 23.568 101.248 22.512 103.984 21.424C105.392 20.848 107.68 20.112 108.8 19.872L108.32 18.656C108 18.816 107.856 18.864 107.296 19.072C104.816 19.936 104.368 20.112 103.424 20.496C102.88 18.896 102.288 16.272 102.224 15.2L100.96 15.44ZM115.712 15.52C115.76 15.84 115.776 16.032 115.776 16.368C115.776 16.624 115.776 16.928 115.76 17.408C115.632 22.448 115.616 22.848 115.616 23.92C115.616 25.6 115.84 26.448 116.496 27.2C117.136 27.936 118.144 28.32 119.504 28.32C121.376 28.32 122.88 27.664 124.016 26.32C124.72 25.504 125.184 24.56 125.792 22.688C125.28 22.432 125.088 22.304 124.64 21.92C124.416 23.04 124.224 23.664 123.856 24.432C122.944 26.256 121.472 27.216 119.568 27.216C118.736 27.216 118.016 26.992 117.568 26.592C117.088 26.16 116.88 25.632 116.816 24.672C116.8 24.304 116.784 23.904 116.784 23.712C116.784 22.992 116.832 20.816 116.896 18.896C116.944 16.88 117.008 16.064 117.104 15.52H115.712ZM128.695 18.704C129.479 18.528 130.903 18.4 134.215 18.176C135.991 18.064 136.791 17.984 137.735 17.824C137.127 18.112 136.711 18.336 136.215 18.672C134.311 19.952 133.223 21.728 133.223 23.584C133.223 24.896 133.863 26.08 134.999 26.848C135.911 27.472 136.871 27.808 138.455 28.08C138.711 28.128 138.775 28.144 138.951 28.176L139.159 26.88C139.095 26.88 139.031 26.88 138.999 26.88C138.391 26.88 137.383 26.656 136.599 26.368C135.175 25.824 134.359 24.752 134.359 23.408C134.359 22.08 135.047 20.784 136.327 19.712C137.207 18.96 138.327 18.384 139.399 18.096C140.007 17.952 140.551 17.888 141.191 17.888L141.095 16.688C140.839 16.768 140.087 16.832 139.191 16.864C137.127 16.96 132.007 17.248 130.103 17.392C129.607 17.424 129.415 17.44 129.191 17.44C129.079 17.44 128.919 17.44 128.615 17.44L128.695 18.704ZM143.142 25.568C144.342 26.56 145.27 27.568 146.294 29.056L147.19 28.208C146.102 26.736 145.286 25.872 143.974 24.816L143.142 25.568ZM162.694 19.152H161.03C160.262 19.152 159.878 19.136 159.51 19.056V20.144C159.942 20.08 160.374 20.048 161.014 20.048H162.534C162.278 20.832 161.814 21.84 161.302 22.72C160.678 23.776 160.086 24.512 159.126 25.408C159.382 25.664 159.558 25.904 159.782 26.32C161.222 24.768 162.006 23.488 162.758 21.472C162.694 22.848 162.678 23.296 162.678 24.192V27.312C162.678 28.176 162.646 28.704 162.566 29.264H163.75C163.67 28.8 163.654 28.288 163.654 27.312V23.984C163.654 23.264 163.622 22.176 163.574 21.28C164.198 22.56 164.662 23.216 165.846 24.448C166.022 24.096 166.166 23.888 166.438 23.584C165.462 22.72 164.95 22.176 164.454 21.456C164.086 20.944 163.958 20.72 163.686 20.048H165.19C165.83 20.048 166.214 20.064 166.614 20.128V19.072C166.198 19.136 165.782 19.152 165.222 19.152H163.654V16.656C164.454 16.432 165.014 16.24 165.75 15.968C166.134 15.84 166.134 15.84 166.39 15.744L165.67 14.896C165.398 15.072 165.206 15.168 164.63 15.36C162.806 16.016 161.526 16.32 159.558 16.576C159.782 16.896 159.894 17.12 160.022 17.488C161.206 17.28 161.702 17.168 162.694 16.928V19.152ZM167.734 15.856C167.798 16.352 167.83 16.784 167.83 17.68V23.856C167.83 24.928 167.814 25.264 167.75 25.712H168.934C168.87 25.264 168.854 24.944 168.854 23.856V17.68C168.854 16.752 168.87 16.368 168.934 15.856H167.734ZM171.654 14.96C171.718 15.472 171.75 16.064 171.75 16.976V27.456C171.75 27.856 171.622 27.936 170.982 27.936C170.454 27.936 169.766 27.888 168.918 27.792C169.094 28.192 169.174 28.432 169.254 28.848C169.766 28.88 170.438 28.896 170.886 28.896C172.406 28.896 172.79 28.624 172.79 27.488V16.976C172.79 16.08 172.822 15.488 172.902 14.96H171.654ZM182.998 23.872H187.686V27.488C187.686 27.888 187.542 27.968 186.838 27.968C186.262 27.968 185.478 27.904 184.55 27.792C184.694 28.192 184.758 28.464 184.79 28.832C185.462 28.88 186.262 28.912 186.774 28.912C188.326 28.912 188.694 28.672 188.694 27.664V16.928C188.694 16.208 188.71 15.792 188.758 15.36C188.294 15.408 187.862 15.424 187.062 15.424H178.454C177.654 15.424 177.174 15.408 176.694 15.36C176.758 16.048 176.758 16.352 176.758 17.968C176.758 21.92 176.614 24.256 176.262 25.728C176.006 26.816 175.654 27.536 174.966 28.432C175.382 28.672 175.542 28.784 175.894 29.12C176.966 27.6 177.382 26.288 177.622 23.872H182.006V26.896C182.006 27.744 181.99 28.224 181.926 28.64H183.078C183.014 28.256 182.998 27.744 182.998 26.896V23.872ZM182.998 19.184V16.384H187.686V19.184H182.998ZM182.006 19.184H177.782L177.798 18.288V16.384H182.006V19.184ZM182.998 20.096H187.686V22.944H182.998V20.096ZM182.006 20.096V22.944H177.686C177.734 22.208 177.734 22.144 177.75 21.152C177.75 20.928 177.75 20.544 177.766 20.096H182.006ZM196.326 22.08C196.31 23.296 196.31 23.296 196.262 24.064H195.622C194.902 24.064 194.47 24.048 194.086 23.984V24.944C194.486 24.88 194.918 24.864 195.622 24.864H196.182C196.086 25.632 195.894 26.256 195.574 26.768C195.27 27.28 194.934 27.616 194.182 28.176C194.534 28.384 194.726 28.544 194.982 28.832C196.342 27.664 196.886 26.656 197.094 24.864H199.51V27.328C199.51 28 199.494 28.368 199.414 28.704H200.518C200.438 28.4 200.422 28.048 200.422 27.328V24.864H201.222C201.926 24.864 202.358 24.88 202.758 24.944V23.984C202.374 24.048 201.958 24.064 201.222 24.064H200.422V22.08H200.998C201.67 22.08 202.15 22.096 202.518 22.144V21.2C202.07 21.264 201.718 21.28 200.982 21.28H195.91C195.19 21.28 194.822 21.264 194.39 21.2V22.144C194.758 22.096 195.238 22.08 195.91 22.08H196.326ZM199.51 22.08V24.064H197.174C197.206 23.52 197.238 22.944 197.238 22.448C197.238 22.224 197.238 22.224 197.238 22.08H199.51ZM192.934 20H195.99C196.678 20 197.222 20.016 197.606 20.048C197.574 19.648 197.558 19.2 197.558 18.56V16.592C197.558 16 197.574 15.52 197.606 15.072C197.158 15.12 196.774 15.136 195.99 15.136H193.558C192.758 15.136 192.31 15.12 191.878 15.072C191.926 15.584 191.942 16.048 191.942 16.832V27.344C191.942 28.208 191.91 28.704 191.846 29.136H193.03C192.966 28.72 192.934 28.224 192.934 27.344V20ZM192.934 15.92H196.646V17.152H192.934V15.92ZM192.934 17.92H196.646V19.216H192.934V17.92ZM204.918 16.832C204.918 16.112 204.934 15.664 204.998 15.072C204.55 15.12 204.118 15.136 203.318 15.136H200.678C199.878 15.136 199.478 15.12 199.03 15.072C199.062 15.6 199.078 16 199.078 16.592V18.56C199.078 19.2 199.062 19.584 199.03 20.048C199.478 20.016 199.99 20 200.662 20H203.942V27.504C203.942 27.872 203.83 27.952 203.318 27.952C202.886 27.952 202.166 27.888 201.542 27.792C201.718 28.16 201.782 28.4 201.846 28.816C202.166 28.832 203.014 28.864 203.206 28.864C203.878 28.864 204.118 28.832 204.342 28.752C204.758 28.576 204.918 28.24 204.918 27.552V16.832ZM200.006 15.92H203.942V17.152H200.006V15.92ZM200.006 17.92H203.942V19.216H200.006V17.92ZM213.03 21.488C213.286 21.408 213.494 21.376 214.038 21.328C216.918 21.072 217.59 20.992 220.182 20.64C220.454 21.184 220.534 21.344 220.838 22.016L221.75 21.472C220.758 19.552 220.262 18.736 218.87 16.848L217.99 17.296C218.886 18.432 219.222 18.928 219.75 19.824C217.734 20.08 217.382 20.112 215.078 20.304C215.926 18.416 216.246 17.632 216.582 16.672C217.03 15.296 217.03 15.296 217.19 14.944L215.974 14.64C215.862 15.744 215.126 17.936 214.022 20.368C213.798 20.368 213.558 20.384 213.462 20.384C213.174 20.384 213.014 20.368 212.79 20.352L213.03 21.488ZM210.358 17.952C210.55 17.008 210.678 16.288 210.774 15.744C210.854 15.248 210.87 15.104 210.95 14.816L209.798 14.704C209.814 14.784 209.814 14.848 209.814 14.896C209.814 15.52 209.67 16.56 209.382 17.952H208.694C208.166 17.952 207.798 17.92 207.382 17.856V18.944C207.782 18.88 208.182 18.848 208.662 18.848H209.19C208.774 20.64 208.342 21.936 207.734 23.296C208.87 23.984 209.334 24.304 210.118 24.944C209.366 26.192 208.55 27.056 207.174 28.064C207.478 28.288 207.686 28.512 207.91 28.848C209.318 27.776 210.07 26.944 210.87 25.6C211.462 26.144 211.734 26.448 212.406 27.232L213.046 26.352C212.246 25.52 211.926 25.2 211.35 24.704C211.942 23.424 212.294 22.192 212.566 20.416C212.678 19.712 212.678 19.712 212.854 17.888C212.518 17.936 212.118 17.952 211.382 17.952H210.358ZM211.798 18.848C211.542 21.392 211.238 22.672 210.582 24.08C210.07 23.696 209.782 23.504 208.918 22.912C209.43 21.632 209.846 20.24 210.166 18.848H211.798ZM214.822 28.272H219.558V29.2H220.662C220.582 28.816 220.566 28.384 220.566 27.536V23.52C220.566 23.28 220.598 22.736 220.646 22.48C220.342 22.528 219.894 22.544 219.126 22.544H215.19C214.598 22.544 214.15 22.528 213.766 22.48C213.814 22.848 213.83 23.296 213.83 23.968V27.776C213.83 28.448 213.814 28.864 213.766 29.2H214.822V28.272ZM214.822 23.456H219.558V27.36H214.822V23.456ZM234.278 23.92V27.456C234.278 27.856 234.15 27.952 233.686 27.952C232.918 27.952 232.198 27.904 231.398 27.792C231.542 28.208 231.606 28.464 231.654 28.88C232.374 28.928 233.046 28.944 233.574 28.944C234.294 28.944 234.598 28.896 234.854 28.736C235.158 28.528 235.302 28.192 235.302 27.616V17.088C235.302 16.272 235.318 15.872 235.366 15.44C234.822 15.504 234.406 15.52 233.702 15.52H227.686C226.998 15.52 226.582 15.504 226.006 15.44C226.054 16.048 226.07 16.688 226.07 18.16C226.07 21.712 225.894 23.68 225.446 25.2C225.062 26.496 224.55 27.344 223.558 28.336C223.926 28.592 224.15 28.816 224.438 29.184C225.334 28.16 225.782 27.456 226.198 26.4C226.502 25.648 226.71 24.848 226.854 23.92H234.278ZM226.966 22.96C227.094 21.6 227.126 20.992 227.142 20.112H234.278V22.96H226.966ZM227.142 19.152V18.768L227.158 16.496H234.278V19.152H227.142ZM243.366 15.44C243.462 15.696 243.494 15.776 243.638 16.448C244.054 18.496 244.358 19.616 244.806 20.928C243.814 21.424 243.318 21.728 242.71 22.224C241.766 22.992 241.286 23.92 241.286 24.944C241.286 26.208 241.958 27.088 243.27 27.568C244.038 27.856 245.238 28 246.822 28C247.942 28 248.71 27.952 250.358 27.792C251.238 27.696 251.238 27.696 251.542 27.696L251.414 26.368C250.47 26.704 248.678 26.912 246.838 26.912C243.702 26.912 242.47 26.352 242.47 24.896C242.47 23.568 243.654 22.512 246.39 21.424C247.798 20.848 250.086 20.112 251.206 19.872L250.726 18.656C250.406 18.816 250.262 18.864 249.702 19.072C247.222 19.936 246.774 20.112 245.83 20.496C245.286 18.896 244.694 16.272 244.63 15.2L243.366 15.44ZM262.87 23.248V22.704C262.87 22.304 262.886 22.032 262.934 21.744H261.878C261.91 22.048 261.926 22.336 261.926 22.704V23.248H257.862C257.19 23.248 256.742 23.216 256.294 23.152V24.208C256.742 24.144 257.174 24.128 257.926 24.128H266.934C267.654 24.128 268.07 24.144 268.518 24.208V23.152C268.086 23.216 267.59 23.248 266.886 23.248H262.87ZM264.662 27.744C265.238 26.784 265.654 25.968 266.182 24.752L265.174 24.368C264.774 25.648 264.406 26.432 263.638 27.744H257.142C256.454 27.744 255.926 27.712 255.494 27.648V28.736C255.958 28.672 256.486 28.64 257.174 28.64H267.606C268.31 28.64 268.838 28.672 269.286 28.736V27.648C268.854 27.712 268.342 27.744 267.638 27.744H264.662ZM261.142 16.336V20.56C261.142 20.928 261.014 21.024 260.582 21.024C260.118 21.024 259.558 20.976 258.934 20.864C259.062 21.232 259.094 21.424 259.142 21.824C259.686 21.872 260.118 21.888 260.63 21.888C261.702 21.888 262.086 21.568 262.086 20.672V16.928C262.086 16.16 262.102 15.808 262.15 15.376C261.814 15.424 261.43 15.44 260.614 15.44H257.254C256.55 15.44 256.102 15.408 255.67 15.344V16.432C256.134 16.352 256.486 16.336 257.19 16.336H261.142ZM259.366 18.208C258.47 17.552 257.942 17.216 257.014 16.736L256.374 17.392C257.414 17.904 257.958 18.256 258.726 18.928L259.366 18.208ZM268.022 16.352V20.64C268.022 21.008 267.91 21.088 267.43 21.088C266.998 21.088 266.39 21.024 265.766 20.928C265.894 21.28 265.958 21.584 265.974 21.888C266.614 21.936 267.078 21.968 267.494 21.968C268.566 21.968 268.982 21.632 268.982 20.752V16.944C268.982 16.224 268.998 15.776 269.046 15.392C268.774 15.44 268.358 15.456 267.542 15.456H264.246C263.51 15.456 263.046 15.424 262.646 15.36V16.448C263.142 16.368 263.478 16.352 264.166 16.352H268.022ZM266.166 18.256C265.206 17.568 264.742 17.28 263.718 16.752L263.11 17.408C264.118 17.904 264.646 18.256 265.542 18.944L266.166 18.256ZM260.838 27.136C260.39 25.824 260.15 25.296 259.67 24.416L258.774 24.752C259.334 25.728 259.622 26.432 259.894 27.52L260.838 27.136ZM260.358 18.64C258.406 19.792 256.726 20.544 255.622 20.784L256.086 21.808C256.342 21.664 256.47 21.6 256.758 21.456C258.39 20.72 258.934 20.448 260.454 19.584L260.358 18.64ZM267.27 18.672C265.446 19.664 263.926 20.256 262.806 20.432L263.174 21.472C263.43 21.36 263.542 21.312 263.862 21.184C265.606 20.48 266.118 20.24 267.35 19.6L267.27 18.672ZM282.278 23.92V27.456C282.278 27.856 282.15 27.952 281.686 27.952C280.918 27.952 280.198 27.904 279.398 27.792C279.542 28.208 279.606 28.464 279.654 28.88C280.374 28.928 281.046 28.944 281.574 28.944C282.294 28.944 282.598 28.896 282.854 28.736C283.158 28.528 283.302 28.192 283.302 27.616V17.088C283.302 16.272 283.318 15.872 283.366 15.44C282.822 15.504 282.406 15.52 281.702 15.52H275.686C274.998 15.52 274.582 15.504 274.006 15.44C274.054 16.048 274.07 16.688 274.07 18.16C274.07 21.712 273.894 23.68 273.446 25.2C273.062 26.496 272.55 27.344 271.558 28.336C271.926 28.592 272.15 28.816 272.438 29.184C273.334 28.16 273.782 27.456 274.198 26.4C274.502 25.648 274.71 24.848 274.854 23.92H282.278ZM274.966 22.96C275.094 21.6 275.126 20.992 275.142 20.112H282.278V22.96H274.966ZM275.142 19.152V18.768L275.158 16.496H282.278V19.152H275.142ZM298.054 15.44C298.534 15.952 299.302 17.136 299.702 17.984L300.502 17.504C300.022 16.56 299.574 15.888 298.854 15.024L298.054 15.44ZM287.75 20.368C288.47 20.16 288.918 20.08 290.966 19.792C290.246 22.816 288.87 26.016 287.542 27.76L288.63 28.4C290.294 25.472 291.414 22.688 292.086 19.696C292.678 19.632 292.886 19.616 293.238 19.616C294.726 19.616 295.206 20.16 295.206 21.856C295.206 23.648 294.966 25.28 294.534 26.304C294.326 26.816 294.022 27.072 293.622 27.072C293.046 27.072 292.15 26.8 291.238 26.336C291.286 26.624 291.286 26.72 291.286 26.96C291.286 27.184 291.286 27.296 291.254 27.536C292.31 27.984 292.982 28.16 293.67 28.16C294.422 28.16 294.854 27.952 295.238 27.408C295.894 26.48 296.31 24.352 296.31 21.904C296.31 20.592 296.086 19.856 295.526 19.328C295.03 18.848 294.358 18.656 293.222 18.656C292.854 18.656 292.646 18.672 292.278 18.704C292.406 18.016 292.55 17.28 292.614 16.88C292.742 16.016 292.822 15.648 292.918 15.344L291.638 15.2C291.638 15.296 291.638 15.376 291.638 15.408C291.638 16.08 291.43 17.6 291.158 18.8C288.806 19.136 288.198 19.2 287.622 19.216L287.75 20.368ZM299.878 14.592C300.502 15.312 301.174 16.352 301.51 17.104L302.31 16.64C301.782 15.632 301.382 15.04 300.662 14.16L299.878 14.592ZM297.19 18.24C298.63 19.664 299.926 21.952 300.454 23.984L301.478 23.408C300.806 21.296 299.718 19.44 298.134 17.744L297.19 18.24Z" fill="black" fill-opacity="0.87"/>
<path d="M338.248 23.04H347.768V26.944C347.768 27.328 347.672 27.376 347.048 27.376C346.472 27.376 345.672 27.312 344.616 27.2C344.904 27.856 345.016 28.304 345.112 28.928C345.736 28.96 346.616 28.992 347.24 28.992C348.104 28.992 348.616 28.928 348.92 28.768C349.384 28.528 349.576 28.08 349.576 27.264V17.008C349.576 16.144 349.592 15.728 349.64 15.264C349.256 15.312 348.776 15.328 347.896 15.328H338.168C337.32 15.328 336.904 15.312 336.392 15.264C336.44 15.728 336.456 16.128 336.456 16.8V27.264C336.456 28.096 336.424 28.672 336.36 29.184H338.328C338.264 28.816 338.248 28.336 338.248 27.328V23.04ZM342.04 21.36H338.248V17.024H342.04V21.36ZM343.768 21.36V17.024H347.768V21.36H343.768Z" fill="black" fill-opacity="0.87"/>
<path d="M329.2 15.84C329.2 18.1333 328.973 20.2 328.52 22.04C328.093 23.88 327.453 25.44 326.6 26.72C325.773 28 324.733 28.9867 323.48 29.68C322.253 30.3733 320.84 30.72 319.24 30.72C317.64 30.72 316.213 30.3733 314.96 29.68C313.707 28.9867 312.653 28 311.8 26.72C310.947 25.44 310.293 23.88 309.84 22.04C309.413 20.2 309.2 18.1333 309.2 15.84C309.2 13.5467 309.413 11.48 309.84 9.64C310.293 7.8 310.947 6.24 311.8 4.96C312.653 3.68 313.707 2.69333 314.96 2C316.213 1.30667 317.64 0.96 319.24 0.96C320.84 0.96 322.253 1.30667 323.48 2C324.733 2.69333 325.773 3.68 326.6 4.96C327.453 6.24 328.093 7.8 328.52 9.64C328.973 11.48 329.2 13.5467 329.2 15.84ZM324.28 15.84C324.28 14.8533 324.213 13.7333 324.08 12.48C323.973 11.2267 323.733 10.04 323.36 8.92C323.013 7.8 322.507 6.86667 321.84 6.12C321.173 5.34667 320.307 4.96 319.24 4.96C318.147 4.96 317.267 5.34667 316.6 6.12C315.933 6.86667 315.413 7.8 315.04 8.92C314.693 10.04 314.453 11.2267 314.32 12.48C314.187 13.7333 314.12 14.8533 314.12 15.84C314.12 16.8267 314.187 17.9467 314.32 19.2C314.453 20.4533 314.693 21.6267 315.04 22.72C315.413 23.8133 315.933 24.7467 316.6 25.52C317.267 26.2667 318.147 26.64 319.24 26.64C320.307 26.64 321.173 26.2667 321.84 25.52C322.507 24.7467 323.013 23.8133 323.36 22.72C323.733 21.6267 323.973 20.4533 324.08 19.2C324.213 17.9467 324.28 16.8267 324.28 15.84Z" fill="black" fill-opacity="0.87"/>
</svg>
