<?xml version="1.0" encoding="utf-8"?>
<!-- Generator: Adobe Illustrator 26.0.3, SVG Export Plug-In . SVG Version: 6.00 Build 0)  -->
<svg version="1.1" id="レイヤー_1" xmlns="http://www.w3.org/2000/svg" xmlns:xlink="http://www.w3.org/1999/xlink" x="0px"
	 y="0px" viewBox="0 0 145 22.7" style="enable-background:new 0 0 145 22.7;" xml:space="preserve">
<style type="text/css">
	.st0{fill:#FFFFFF;}
</style>
<g>
	<path class="st0" d="M16.9,2.7C15.9,1,14.2,0,12.3,0c-1.9,0-3.6,1-4.6,2.7l-7,12.1c-0.9,1.6-0.9,3.7,0,5.3c0.9,1.6,2.7,2.7,4.6,2.7
		h14c1.9,0,3.6-1,4.6-2.6c0.9-1.6,0.9-3.7,0-5.3L16.9,2.7z M20.5,18.1c-0.2,0.4-0.7,0.7-1.2,0.7h-14c-0.5,0-0.9-0.3-1.2-0.7
		c-0.2-0.4-0.2-0.9,0-1.4l7-12.1c0.2-0.4,0.7-0.7,1.2-0.7c0.5,0,0.9,0.3,1.2,0.7l7,12.1C20.7,17.2,20.7,17.7,20.5,18.1z"/>
	<path class="st0" d="M34.9,3.1l-6.3,16.6h3l1.6-4.3h7.1l1.7,4.3h3L38.6,3.1H34.9z M34.1,12.8l2.6-6.9l2.6,6.9H34.1z"/>
	<rect x="46.3" y="8.6" class="st0" width="2.7" height="11.1"/>
	<path class="st0" d="M47.6,3.5c-1,0-1.8,0.8-1.8,1.9c0,1,0.8,1.8,1.8,1.8c1.1,0,1.9-0.8,1.9-1.8C49.5,4.4,48.7,3.5,47.6,3.5z"/>
	<path class="st0" d="M51.2,14v5.6H54V14c0-1.5,1.3-2.9,2.9-2.9h0.8V8.6h-0.8C53.8,8.6,51.2,11,51.2,14z"/>
	<polygon class="st0" points="145,5.6 145,3.1 133.5,3.1 133.5,19.6 145,19.6 145,17.1 136.3,17.1 136.3,12.6 144,12.6 144,10.1 
		136.3,10.1 136.3,5.6 	"/>
	<rect x="60.2" y="3.1" class="st0" width="2.7" height="16.6"/>
	<polygon class="st0" points="92.6,3.1 87.4,16.9 82.2,3.1 79.3,3.1 85.7,19.6 89.2,19.6 95.6,3.1 	"/>
	<path class="st0" d="M103.8,2.9c-4.7,0-8.5,3.8-8.5,8.5c0,4.7,3.8,8.5,8.5,8.5c4.7,0,8.5-3.8,8.5-8.5
		C112.3,6.7,108.5,2.9,103.8,2.9z M103.8,17.3c-3.2,0-5.7-2.7-5.7-5.9c0-3.2,2.6-5.9,5.7-5.9c3.2,0,5.8,2.7,5.8,5.9
		C109.5,14.6,107,17.3,103.8,17.3z"/>
	<rect x="114.1" y="3.1" class="st0" width="2.7" height="16.6"/>
	<path class="st0" d="M118.6,11.4c0,4.6,3.7,8.3,8.3,8.3h4.6v-2.6h-4.6c-3,0-5.5-2.7-5.5-5.7c0-3,2.5-5.7,5.5-5.7h4.6V3.1h-4.6
		C122.3,3.1,118.6,6.9,118.6,11.4z"/>
	<path class="st0" d="M72.3,3.1h-6.7v16.6h2.7v-14h3.9c2.1,0,4,1.9,4,4.1v9.9H79V9.7C79,6,75.9,3.1,72.3,3.1z"/>
</g>
</svg>
