<svg width="750" height="518" viewBox="0 0 750 518" fill="none" xmlns="http://www.w3.org/2000/svg">
<g clip-path="url(#clip0_248_8498)">
<rect width="750" height="518" fill="white"/>
<rect y="2" width="330" height="92" rx="4" fill="#5F6E7F" fill-opacity="0.15"/>
<path d="M111.66 35.87V39.53C110.73 39.41 110.31 39.38 107.85 39.38H98.91C96.45 39.38 96.06 39.41 95.1 39.53V35.87C96.12 36.05 96.72 36.08 98.97 36.08H107.79C110.07 36.08 110.67 36.05 111.66 35.87ZM113.55 46.88H107.13C106.8 54.29 103.98 58.25 97.2 60.86C96.48 59.36 95.97 58.7 94.74 57.53C100.62 55.67 102.96 52.7 103.17 46.88H95.88C93.54 46.88 93.09 46.91 92.07 47.03V43.46C93.12 43.64 93.72 43.67 95.94 43.67H113.49C115.71 43.67 116.31 43.64 117.36 43.46V47.03C116.34 46.91 115.89 46.88 113.55 46.88ZM119.91 37.31L117.69 38.18C117 36.47 116.13 34.94 115.11 33.53L117.27 32.75C118.47 34.34 119.19 35.54 119.91 37.31ZM111.18 34.7L113.4 33.92C114.54 35.48 115.23 36.68 116.07 38.66L113.82 39.5C112.98 37.49 112.29 36.26 111.18 34.7ZM122.13 49.58V45.41C123.45 45.59 124.02 45.62 126.99 45.62H142.98C145.95 45.62 146.52 45.59 147.84 45.41V49.58C146.64 49.43 146.31 49.43 142.95 49.43H127.02C123.66 49.43 123.33 49.43 122.13 49.58ZM174.33 37.46L176.34 39.47C175.95 39.98 175.89 40.1 175.41 41.48C174.45 44.21 172.8 47.72 171.57 49.73C168.51 54.71 164.28 58.25 157.89 61.19C156.93 59.57 156.54 59.06 155.4 58.1C157.95 57.05 159.45 56.3 161.25 55.1C163.38 53.72 164.64 52.64 166.17 50.93C164.07 49.13 162.27 47.87 160.02 46.64L162.3 43.97C164.82 45.38 166.08 46.22 168.33 47.99C169.74 45.83 170.76 43.73 171.69 40.91L162.36 41C160.5 44.09 158.37 46.52 155.34 49.07C154.35 47.96 153.9 47.57 152.34 46.67C155.64 44.21 158.04 41.48 159.87 38.12C160.74 36.53 161.34 35.06 161.61 33.95L165.51 34.82C165.18 35.36 165.18 35.36 164.61 36.5C164.25 37.31 164.04 37.67 163.89 37.94C164.37 37.88 164.37 37.88 171.69 37.82C172.92 37.79 173.55 37.73 174.33 37.46ZM193.2 38.45H189.45C188.64 38.45 187.74 38.51 186.57 38.6V35C187.44 35.12 188.07 35.15 189.39 35.15H194.16C195.39 35.15 196.2 35.12 196.89 35C196.8 35.87 196.8 36.14 196.8 36.89C196.8 41.15 197.88 45.11 200.01 48.77C201.27 50.87 202.74 52.67 204.81 54.53C206.34 55.94 207.21 56.57 209.25 57.77C208.11 58.88 207.54 59.66 206.7 61.16C203.7 59.06 201.45 56.87 199.41 54.11C198.3 52.64 197.64 51.5 196.77 49.67C195.99 48.02 195.72 47.27 195.24 45.41C194.16 49.25 192.96 51.8 190.95 54.47C189.03 56.96 186.78 59.06 183.51 61.25C182.88 59.93 182.19 59.03 181.05 58.1C183.6 56.63 185.07 55.49 187.08 53.39C189.42 50.96 191.25 47.75 192.21 44.51C192.81 42.44 193.08 40.88 193.2 38.45ZM225.3 39.74H232.89C234.69 39.74 235.74 39.71 236.76 39.59C236.64 40.76 236.64 40.76 236.58 44.12C236.49 48.23 236.19 53.3 235.89 55.28C235.5 58.04 235.08 59.09 234.15 59.75C233.37 60.32 232.26 60.56 230.58 60.56C229.2 60.56 227.88 60.47 225.99 60.23C225.81 58.7 225.6 57.83 225.15 56.6C227.07 56.99 228.81 57.2 230.31 57.2C231.72 57.2 232.17 56.66 232.5 54.65C232.89 52.4 233.16 47.75 233.19 42.95H225.06C224.55 47.39 223.74 50.42 222.33 52.94C220.59 56.09 217.86 58.61 213.69 60.95C213.03 59.69 212.25 58.73 211.2 57.83C215.31 56.03 218.04 53.63 219.66 50.36C220.59 48.53 221.16 46.22 221.55 42.95H216.33C214.8 42.95 213.63 43.01 212.61 43.13V39.53C213.69 39.68 214.71 39.74 216.42 39.74H221.76C221.82 38.54 221.82 38.24 221.82 36.68C221.82 35.24 221.76 34.37 221.64 33.77H225.63C225.48 34.55 225.48 34.55 225.3 39.74Z" fill="black" fill-opacity="0.87"/>
<rect y="97" width="330" height="92" rx="4" fill="#5F6E7F" fill-opacity="0.15"/>
<path d="M146.4 142.51H142.89C143.19 144.55 143.28 145.03 143.67 146.26C144.99 145.39 145.74 144.73 146.73 143.59L148.83 145.66C148.23 146.14 148.23 146.14 146.43 147.61C146.01 148 145.53 148.33 144.78 148.81C145.89 150.79 146.97 151.93 149.07 153.46C148.14 154.45 147.57 155.2 146.97 156.28C144.63 154.09 143.34 152.41 142.26 150.13C141.09 147.67 140.64 146.05 140.16 142.51H138.51V151.78C139.89 151.42 140.46 151.27 142.17 150.7V153.61C140.04 154.36 138.36 154.81 134.37 155.77C133.77 155.92 133.62 155.95 132.99 156.16L132.27 152.83C133.14 152.83 133.89 152.74 135.48 152.44V142.51H133.83C133.62 146.44 133.38 148.3 132.75 150.61C132.18 152.68 131.49 154.33 130.44 156.25C129.51 155.14 129.03 154.66 127.92 153.79C130.53 149.59 131.04 146.23 131.04 133.75C131.04 131.68 131.01 130.87 130.92 129.94C131.94 130.03 133.2 130.09 134.46 130.09H144.99C146.4 130.09 147.42 130.03 148.32 129.91V133.12C147.63 133.03 146.76 133 145.2 133H134.01V136.15C134.01 137.53 133.98 138.28 133.95 139.75H146.04C147.3 139.75 147.96 139.72 148.65 139.6V142.63C148.05 142.54 147.42 142.51 146.4 142.51ZM124.62 137.41H123.54C122.79 137.41 122.19 137.44 121.44 137.56V134.35C122.16 134.47 122.67 134.5 123.57 134.5H124.62V131.95C124.62 130.54 124.59 129.79 124.44 128.92H127.89C127.77 129.85 127.74 130.51 127.74 131.95V134.5H128.67C129.36 134.5 129.72 134.47 130.23 134.38V137.5C129.66 137.44 129.27 137.41 128.7 137.41H127.74V141.94C128.46 141.64 128.88 141.43 130.05 140.86V143.89C128.82 144.52 128.46 144.7 127.74 145.03V153.43C127.74 155.71 126.96 156.37 124.26 156.37C123.69 156.37 123.54 156.37 122.1 156.31C121.95 155.02 121.83 154.51 121.38 153.19C122.22 153.31 123.21 153.4 123.81 153.4C124.47 153.4 124.62 153.25 124.62 152.56V146.29C123.6 146.68 122.91 146.95 122.1 147.22C121.92 147.28 121.83 147.31 121.65 147.4L121.17 144.1C122.1 143.95 123.12 143.68 124.62 143.14V137.41ZM147.09 134.92V137.83C146.49 137.74 145.89 137.71 144.93 137.71H137.1C136.14 137.71 135.69 137.74 135.09 137.8V134.92C135.6 135.01 136.11 135.04 137.1 135.04H144.9C145.95 135.04 146.49 135.01 147.09 134.92ZM166.95 132.91H163.92C162.9 132.91 162.18 132.94 161.43 133.06V129.82C162.09 129.94 162.72 129.97 163.92 129.97H168.21C169.17 129.97 169.83 129.94 170.4 129.85C170.34 130.54 170.34 130.96 170.34 131.47C170.34 134.41 171.03 137.44 172.32 140.17C173.85 143.47 175.65 145.54 178.92 147.88C178.08 148.9 177.57 149.74 176.94 151.03C174.75 149.38 173.52 148.18 172.14 146.35C170.64 144.34 169.8 142.51 168.78 139.24C168.03 142.42 167.19 144.31 165.51 146.56C164.4 148.09 163.47 149.05 161.46 150.67C160.65 149.59 160.2 149.11 159.09 148.06C160.92 146.74 161.82 145.84 163.05 144.22C164.64 142.09 165.78 139.63 166.38 137.08C166.68 135.85 166.8 134.98 166.95 132.91ZM151.86 131.47L154.26 129.22C156.42 131.11 158.04 132.79 159.51 134.71L157.02 137.14C155.16 134.62 154.2 133.57 151.86 131.47ZM151.41 143.35V140.05C152.19 140.17 152.67 140.2 153.81 140.2H156.27C157.17 140.2 157.86 140.17 158.55 140.05C158.46 141.04 158.43 141.67 158.43 143.35V149.62C158.88 150.58 159.15 150.88 160.14 151.54C161.58 152.44 163.14 152.65 168.3 152.65C172.65 152.65 176.46 152.44 179.43 152.02C178.92 153.46 178.74 154.21 178.53 155.59C175.86 155.68 171.51 155.77 169.44 155.77C164.52 155.77 162.09 155.59 160.53 155.08C158.97 154.6 157.89 153.79 156.72 152.26C155.76 153.22 155.04 153.85 153.63 154.93C153.12 155.32 152.94 155.47 152.73 155.65C152.43 155.89 152.43 155.89 152.28 156.01L150.81 152.59C152.1 152.05 153.99 150.79 155.28 149.65V143.2H153.45C152.61 143.2 152.16 143.23 151.41 143.35ZM185.4 134.2L185.25 130.69C185.94 130.81 186.69 130.84 188.28 130.84C190.08 130.84 192.75 130.72 193.86 130.57C194.46 130.51 194.67 130.45 195.06 130.21L197.43 132.25C197.16 132.61 197.01 132.94 196.8 133.51C196.65 133.87 194.82 139.39 194.55 140.32C196.89 140.65 198.9 141.22 201.18 142.21C201.42 140.68 201.48 139.45 201.48 136.66C201.48 136 201.45 135.67 201.36 135.07L205.14 135.22C205.02 135.85 204.99 136.09 204.96 137.23C204.87 139.87 204.72 141.67 204.42 143.59C205.38 144.07 206.7 144.76 207.63 145.3C208.44 145.78 208.56 145.81 209.01 146.02L207.66 149.98C206.79 149.23 205.05 148.06 203.52 147.19C202.68 149.41 201.78 150.88 200.25 152.47C198.93 153.85 197.43 154.96 195.72 155.86C194.46 154.3 194.16 154 192.99 153.16C195.24 152.08 196.41 151.3 197.64 150.01C198.84 148.72 199.83 147.1 200.31 145.57C198.18 144.55 196.41 143.98 193.56 143.5C192.24 147.46 191.46 149.38 190.59 150.88C189.48 152.8 188.13 153.73 186.48 153.73C183.72 153.73 181.68 151.3 181.68 148.03C181.68 145.27 183.03 142.93 185.4 141.46C186.96 140.5 188.55 140.11 191.07 140.02C191.85 137.65 192.21 136.51 192.96 133.75C191.43 133.87 190.71 133.9 187.77 134.02C186.54 134.08 186 134.11 185.4 134.2ZM190.14 143.17C188.13 143.47 187.08 143.95 186.15 144.97C185.4 145.78 185.01 146.8 185.01 147.85C185.01 149.08 185.67 150.07 186.48 150.07C187.05 150.07 187.5 149.53 188.19 148.18C188.79 146.98 189.51 145.12 190.14 143.17Z" fill="black" fill-opacity="0.87"/>
<rect y="192" width="330" height="92" rx="4" fill="#5F6E7F" fill-opacity="0.15"/>
<path d="M67.41 235.92V233.61C65.55 234.81 64.71 235.26 62.61 236.19C62.1 234.99 61.62 234.15 60.87 233.13C64.11 231.84 66.12 230.73 68.4 228.96C70.38 227.43 71.91 225.84 73.14 223.92H76.71C78.3 226.14 79.5 227.31 81.78 228.9C84.33 230.7 86.76 231.96 89.49 232.95C88.65 234.24 88.26 235.08 87.84 236.31C85.95 235.5 84.81 234.9 82.71 233.58V235.92C81.93 235.83 81.15 235.8 80.01 235.8H69.99C69.12 235.8 68.22 235.83 67.41 235.92ZM70.02 232.68H79.98C80.46 232.68 80.73 232.68 81.3 232.65C78.54 230.76 76.83 229.2 75.03 226.83C73.44 228.96 71.58 230.7 68.79 232.65C69.3 232.68 69.48 232.68 70.02 232.68ZM70.32 241.35H65.76C64.23 241.35 63.21 241.41 62.22 241.53V238.05C63.21 238.17 64.35 238.23 65.76 238.23H84.45C85.92 238.23 86.97 238.17 87.96 238.05V241.53C86.97 241.41 85.95 241.35 84.45 241.35H74.13C73.2 243.54 72.27 245.31 71.01 247.17C76.32 246.87 76.32 246.87 80.52 246.42C79.56 245.37 79.05 244.83 77.37 243.09L80.34 241.77C83.55 245.01 84.84 246.51 87.27 249.78L84.39 251.67C83.4 250.2 83.1 249.78 82.59 249.06C80.1 249.39 78.3 249.6 77.19 249.72C74.22 249.99 68.28 250.53 67.08 250.62C65.4 250.74 63.9 250.89 63.21 251.04L62.73 247.38C63.54 247.44 64.05 247.47 64.47 247.47C64.68 247.47 65.58 247.44 67.11 247.35C68.58 245.13 69.51 243.39 70.32 241.35ZM109.86 232.92V227.49C109.86 225.81 109.83 225.03 109.65 223.89H113.4C113.25 224.91 113.19 225.87 113.19 227.49V232.92H115.32C116.94 232.92 117.96 232.86 118.95 232.74V236.19C117.78 236.07 116.73 236.01 115.29 236.01H113.19V246.96C113.19 249.03 113.25 250.26 113.4 251.49H109.65C109.8 250.29 109.86 249.15 109.86 246.96V236.01H108C106.68 236.01 105.39 236.07 104.34 236.19V232.74C105.3 232.86 106.38 232.92 107.97 232.92H109.86ZM92.85 227.58V224.64C93.6 224.76 94.2 224.79 95.43 224.79H100.62C101.82 224.79 102.39 224.76 103.17 224.64V227.58C102.33 227.49 101.76 227.46 100.62 227.46H95.43C94.35 227.46 93.6 227.49 92.85 227.58ZM91.59 231.87V228.81C92.34 228.93 93.03 228.99 94.14 228.99H101.85C103.02 228.99 103.68 228.96 104.4 228.84V231.84C103.71 231.75 103.11 231.72 101.85 231.72H94.11C93.12 231.72 92.46 231.75 91.59 231.87ZM92.88 236.04V233.19C93.51 233.25 93.87 233.28 94.86 233.28H101.22C102.24 233.28 102.51 233.28 103.14 233.19V236.04C102.45 235.95 102.18 235.95 101.22 235.95H94.86C93.87 235.95 93.57 235.95 92.88 236.04ZM92.88 240.3V237.45C93.42 237.51 93.81 237.54 94.86 237.54H101.22C102.24 237.54 102.51 237.54 103.14 237.45V240.3C102.54 240.24 102.15 240.21 101.16 240.21H94.83C93.87 240.21 93.51 240.24 92.88 240.3ZM96.03 250.14V251.49H92.85C92.97 250.62 93 249.78 93 248.61V244.08C93 243.12 92.97 242.55 92.88 241.74C93.45 241.8 93.87 241.83 94.98 241.83H101.43C102.36 241.83 102.81 241.8 103.38 241.74C103.29 242.43 103.26 243 103.26 244.05V248.46C103.26 249.6 103.29 250.32 103.41 251.07H100.2V250.14H96.03ZM95.97 244.56V247.47H100.23V244.56H95.97ZM123.6 227.85L127.26 226.59C129.09 229.83 129.99 231.96 131.31 236.16L127.41 237.54C126.57 234.12 125.13 230.46 123.6 227.85ZM142.02 226.53L146.16 227.49C145.89 228.12 145.8 228.39 145.35 230.43C144.18 235.83 141.81 240.75 138.69 244.26C136.32 246.96 133.74 248.91 130.05 250.8C129.06 249.21 128.61 248.7 127.29 247.56C130.8 246.06 133.32 244.32 135.63 241.83C137.79 239.49 139.29 236.91 140.52 233.31C141.39 230.7 141.93 228.36 142.02 226.53ZM174.54 226.83L176.58 228.78C176.31 229.29 176.22 229.5 176.07 230.13C174.57 235.86 172.8 239.46 169.92 242.7C166.98 246 163.77 248.19 158.76 250.35C157.92 248.73 157.53 248.16 156.12 246.78C158.76 245.94 160.47 245.16 162.69 243.72C167.37 240.69 170.31 236.46 171.78 230.64H157.5C155.49 230.64 154.8 230.67 153.72 230.82V226.92C154.89 227.1 155.52 227.13 157.56 227.13H171.33C173.01 227.13 173.61 227.07 174.54 226.83ZM192.06 250.35H187.95C188.1 249.39 188.13 248.58 188.13 246.99V227.76C188.13 226.29 188.07 225.51 187.95 224.7H192.06C191.94 225.6 191.94 225.99 191.94 227.85V233.43C196.05 234.87 200.76 237.06 205.56 239.76L203.46 243.3C200.97 241.59 197.85 239.88 192.84 237.57C192.15 237.24 192.06 237.21 191.82 237.06C191.91 237.9 191.94 238.26 191.94 239.1V247.02C191.94 248.58 191.97 249.36 192.06 250.35ZM223.2 228.45H219.45C218.64 228.45 217.74 228.51 216.57 228.6V225C217.44 225.12 218.07 225.15 219.39 225.15H224.16C225.39 225.15 226.2 225.12 226.89 225C226.8 225.87 226.8 226.14 226.8 226.89C226.8 231.15 227.88 235.11 230.01 238.77C231.27 240.87 232.74 242.67 234.81 244.53C236.34 245.94 237.21 246.57 239.25 247.77C238.11 248.88 237.54 249.66 236.7 251.16C233.7 249.06 231.45 246.87 229.41 244.11C228.3 242.64 227.64 241.5 226.77 239.67C225.99 238.02 225.72 237.27 225.24 235.41C224.16 239.25 222.96 241.8 220.95 244.47C219.03 246.96 216.78 249.06 213.51 251.25C212.88 249.93 212.19 249.03 211.05 248.1C213.6 246.63 215.07 245.49 217.08 243.39C219.42 240.96 221.25 237.75 222.21 234.51C222.81 232.44 223.08 230.88 223.2 228.45ZM255.3 229.74H262.89C264.69 229.74 265.74 229.71 266.76 229.59C266.64 230.76 266.64 230.76 266.58 234.12C266.49 238.23 266.19 243.3 265.89 245.28C265.5 248.04 265.08 249.09 264.15 249.75C263.37 250.32 262.26 250.56 260.58 250.56C259.2 250.56 257.88 250.47 255.99 250.23C255.81 248.7 255.6 247.83 255.15 246.6C257.07 246.99 258.81 247.2 260.31 247.2C261.72 247.2 262.17 246.66 262.5 244.65C262.89 242.4 263.16 237.75 263.19 232.95H255.06C254.55 237.39 253.74 240.42 252.33 242.94C250.59 246.09 247.86 248.61 243.69 250.95C243.03 249.69 242.25 248.73 241.2 247.83C245.31 246.03 248.04 243.63 249.66 240.36C250.59 238.53 251.16 236.22 251.55 232.95H246.33C244.8 232.95 243.63 233.01 242.61 233.13V229.53C243.69 229.68 244.71 229.74 246.42 229.74H251.76C251.82 228.54 251.82 228.24 251.82 226.68C251.82 225.24 251.76 224.37 251.64 223.77H255.63C255.48 224.55 255.48 224.55 255.3 229.74Z" fill="black" fill-opacity="0.87"/>
<rect y="287" width="330" height="92" rx="4" fill="#5F6E7F" fill-opacity="0.15"/>
<path d="M65.73 326.57V323.36C64.71 323.57 64.17 323.66 62.61 323.9C62.46 323.09 62.13 322.34 61.44 321.14C64.77 320.75 66.99 320.21 69.3 319.25C69.75 319.07 70.2 318.83 70.59 318.56L72.45 321.17C72.15 321.29 72.12 321.32 71.67 321.53C70.65 321.95 69.93 322.22 68.85 322.55V326.57H69.78C70.77 326.57 71.31 326.54 71.88 326.45V329.57C71.28 329.48 70.74 329.45 69.78 329.45H68.94C69 329.6 69 329.6 69.15 329.87C70.05 331.85 70.77 332.9 72.33 334.49L72.06 335.03C71.52 336.05 71.43 336.26 70.98 337.37C69.93 336.02 69.69 335.6 68.67 333.41C68.76 334.13 68.85 335.87 68.85 336.83V342.83C68.85 344.57 68.88 345.53 69.03 346.52H65.55C65.67 345.47 65.73 344.51 65.73 342.83V337.64C65.73 337.07 65.85 334.7 65.91 333.95C65.1 336.62 64.02 338.69 62.28 340.85C61.77 339.41 61.44 338.69 60.75 337.73C62.01 336.26 62.7 335.21 63.57 333.62C64.23 332.39 64.98 330.59 65.31 329.45H63.81C62.64 329.45 62.07 329.48 61.41 329.6V326.42C62.1 326.54 62.64 326.57 63.81 326.57H65.73ZM75.09 324.8H80.85C82.05 322.58 82.59 321.2 83.28 318.71L86.61 319.79C85.23 322.82 84.93 323.45 84.12 324.8H85.05C86.1 324.8 86.7 324.77 87.54 324.68C87.45 325.4 87.42 325.88 87.42 326.78V332.3C87.42 333.2 87.45 333.8 87.54 334.52C86.73 334.43 86.01 334.4 85.05 334.4H83.7V342.56C83.7 343.13 83.85 343.19 84.99 343.19C86.22 343.19 86.28 343.04 86.34 338.9C87.48 339.65 88.26 340.04 89.16 340.25C88.95 343.52 88.77 344.45 88.23 345.17C87.66 345.98 86.7 346.19 83.88 346.19C81.3 346.19 80.58 345.62 80.58 343.64V334.4H78.69C78.45 337.67 78.12 339.32 77.28 341.18C76.14 343.73 74.7 345.23 72.06 346.67C71.4 345.53 70.98 345.02 69.84 344.03C73.71 342.26 75.51 339.2 75.51 334.4H75.06C74.1 334.4 73.5 334.43 72.69 334.52C72.75 333.83 72.78 333.11 72.78 332.27V326.87C72.78 326.15 72.75 325.37 72.69 324.68C73.56 324.77 74.04 324.8 75.09 324.8ZM75.78 327.68V331.46H84.21V327.68H75.78ZM78.9 323.33L75.96 324.65C75.03 322.43 74.43 321.29 73.5 320.03L76.41 318.68C77.55 320.42 78.21 321.68 78.9 323.33ZM108 342.59V339.5H104.67C102.96 339.5 102.33 339.53 101.55 339.62V336.56C102.3 336.68 102.9 336.71 104.64 336.71H108V334.25H105.15C103.14 334.25 102.45 334.28 101.55 334.34C101.61 333.65 101.61 333.65 101.67 330.62V323.84C101.67 321.8 101.64 320.81 101.52 319.82C102.66 319.94 103.62 319.97 105.57 319.97H113.85C116.07 319.97 116.97 319.94 117.72 319.82C117.63 320.69 117.6 322.1 117.6 323.93V330.32C117.6 332.42 117.63 333.47 117.72 334.34C116.73 334.25 116.25 334.25 114.45 334.25H111V336.71H114.84C116.49 336.71 117.15 336.68 118.02 336.56V339.65C117.15 339.53 116.4 339.5 114.87 339.5H111V342.59H115.83C117.42 342.59 118.2 342.56 119.01 342.44V345.65C118.05 345.53 117.24 345.5 115.62 345.5H102.99C101.4 345.5 100.62 345.53 99.6 345.65V342.44C100.41 342.56 101.07 342.59 102.63 342.59H108ZM108 322.88H104.67V325.88H108V322.88ZM111 322.88V325.88H114.48V322.88H111ZM108 328.4H104.67V331.43H108V328.4ZM111 328.4V331.43H114.48V328.4H111ZM94.65 323.18H93.51C92.55 323.18 92.01 323.21 91.26 323.33V320.09C91.98 320.21 92.76 320.27 93.99 320.27H98.22C99.42 320.27 100.14 320.24 100.89 320.09V323.3C100.14 323.21 99.51 323.18 98.67 323.18H97.77V329.03H98.46C99.24 329.03 99.69 329 100.35 328.88V331.94C99.75 331.85 99.15 331.82 98.46 331.82H97.77V337.73C99.03 337.19 99.39 337.04 100.71 336.38L100.8 339.56C98.19 340.85 97.02 341.36 92.37 343.25C92.22 343.31 92.07 343.37 91.77 343.49L90.96 340.1C91.98 339.89 92.61 339.68 94.65 338.96V331.82H93.66C92.79 331.82 92.31 331.85 91.62 331.97V328.88C92.34 329 92.79 329.03 93.72 329.03H94.65V323.18ZM132.96 327.59V322.37C132.96 320.96 132.9 320.03 132.78 318.95H136.77C136.65 320.03 136.59 320.99 136.59 322.4V327.59H144.21C145.68 327.59 147.03 327.53 148.38 327.38V331.1C147.03 330.95 145.89 330.89 144.33 330.89H136.59V341.66H142.95C144.78 341.66 145.65 341.63 146.73 341.48V345.11C145.62 344.96 144.69 344.93 142.98 344.93H126.96C125.28 344.93 124.26 344.99 123.18 345.11V341.48C124.17 341.6 125.13 341.66 126.93 341.66H132.96V330.89H126C124.35 330.89 123.09 330.95 121.62 331.1V327.38C122.94 327.53 124.23 327.59 126 327.59H132.96ZM158.94 319.97L162.84 319.34C162.96 321.35 163.86 325.67 164.82 328.73C166.77 328.01 166.77 328.01 172.59 326.09C173.13 325.91 173.28 325.85 173.73 325.64L175.02 329.42C172.41 329.93 168.48 331.07 165.12 332.3C160.74 333.92 158.55 335.84 158.55 338C158.55 340.19 160.59 341.12 165.42 341.12C169.17 341.12 172.86 340.67 175.11 339.89L175.44 344C174.78 344 174.63 344.03 173.01 344.21C169.77 344.54 168.09 344.66 165.99 344.66C161.82 344.66 159.21 344.15 157.29 343.01C155.64 342.02 154.68 340.16 154.68 338C154.68 335.99 155.64 334.07 157.35 332.63C158.52 331.64 159.48 331.04 161.43 330.05C160.68 327.62 160.17 325.61 159.42 321.92C159.12 320.48 159.09 320.42 158.94 319.97ZM197.34 324.77C196.77 329.48 195.72 333.62 194.22 337.01C192.51 340.88 190.59 342.65 188.13 342.65C184.71 342.65 182.25 339.17 182.25 334.34C182.25 331.04 183.42 327.95 185.55 325.61C188.07 322.85 191.61 321.41 195.87 321.41C203.07 321.41 207.75 325.79 207.75 332.54C207.75 337.73 205.05 341.87 200.46 343.73C199.02 344.33 197.85 344.63 195.75 344.99C195.24 343.4 194.88 342.74 193.92 341.48C196.68 341.12 198.48 340.64 199.89 339.83C202.5 338.39 204.06 335.54 204.06 332.33C204.06 329.45 202.77 327.11 200.37 325.67C199.44 325.13 198.66 324.89 197.34 324.77ZM193.68 324.8C192.12 324.98 191.04 325.4 189.81 326.27C187.29 328.07 185.73 331.16 185.73 334.37C185.73 336.83 186.78 338.78 188.1 338.78C189.09 338.78 190.11 337.52 191.19 334.94C192.33 332.24 193.32 328.19 193.68 324.8ZM227.04 323.69H221.55C220.23 323.69 219.63 323.72 219.09 323.84V320.87C219.96 320.99 220.89 321.02 222.48 321.02H227.01C226.98 320 226.95 319.58 226.83 318.77H230.19C230.07 319.52 230.04 320.03 230.01 321.02H234.96C236.4 321.02 237.51 320.96 238.38 320.87V323.84C237.66 323.72 236.88 323.69 235.35 323.69H230.01V325.13H234.66C235.74 325.13 236.28 325.1 237.15 325.01C237.06 325.76 237.03 326.3 237.03 327.32V333.5C237.03 334.46 237.06 335 237.15 335.69C236.31 335.63 235.65 335.6 234.66 335.6H230.01V337.04H235.5C237.03 337.04 237.78 337.01 238.5 336.92V339.83C237.75 339.71 236.97 339.68 235.5 339.68H230.01C230.01 340.67 230.07 341.36 230.19 342.2H226.83C226.98 341.33 227.01 340.82 227.04 339.68H222.27C221.19 339.68 219.96 339.71 219.3 339.8V336.92C219.93 337.01 220.65 337.04 222.27 337.04H227.04V335.6H222.78C221.88 335.6 221.04 335.63 220.29 335.69C220.38 334.94 220.41 334.43 220.41 333.5V327.14C220.41 326.24 220.38 325.82 220.29 325.01C221.04 325.1 221.73 325.13 222.75 325.13H227.04V323.69ZM227.04 327.53H223.35V329.21H227.04V327.53ZM230.01 327.53V329.21H234V327.53H230.01ZM227.04 331.43H223.35V333.17H227.04V331.43ZM230.01 331.43V333.17H234V331.43H230.01ZM211.41 321.26L213.81 319.04C215.88 320.81 216.99 321.98 219.03 324.44L216.51 326.87C214.68 324.38 213.69 323.3 211.41 321.26ZM211.35 333.44V330.2C212.13 330.32 212.61 330.35 213.75 330.35H216C216.87 330.35 217.53 330.32 218.28 330.2C218.19 331.13 218.16 331.85 218.16 333.47V339.89C218.64 340.7 218.97 341.06 219.54 341.45C221.01 342.41 222.75 342.74 226.5 342.74C232.53 342.74 236.1 342.59 239.34 342.14C238.77 343.76 238.71 343.97 238.44 345.68C235.92 345.8 231.57 345.86 228 345.86C222.81 345.86 221.13 345.65 219.24 344.72C218.16 344.24 217.5 343.67 216.6 342.56C215.13 343.91 214.53 344.42 213.09 345.44C212.76 345.71 212.49 345.89 212.22 346.13L210.75 342.71C211.83 342.26 213.48 341.15 215.01 339.8V333.29H213.36C212.55 333.29 212.13 333.32 211.35 333.44ZM252.75 334.37L250.89 335.06C250.8 334.64 250.68 334.19 250.56 333.68C249.81 333.8 249.54 333.83 248.79 333.89V343.34C248.79 344.84 248.82 345.59 248.97 346.52H245.73C245.88 345.59 245.91 344.84 245.91 343.34V334.13C245.37 334.16 244.86 334.22 244.59 334.22C243.96 334.28 243.51 334.31 243.36 334.34C242.28 334.4 242.01 334.43 241.53 334.49L241.2 331.37C241.65 331.46 241.83 331.46 242.4 331.46C242.58 331.46 243.36 331.43 243.63 331.43C244.17 330.71 244.35 330.47 244.92 329.63C243.12 326.93 242.4 326 241.17 324.74L242.73 322.16C243.24 322.73 243.51 323.06 243.78 323.39C244.86 321.53 245.67 319.64 245.88 318.47L248.85 319.61C248.64 319.91 248.49 320.18 248.22 320.72C247.02 323.15 246.33 324.41 245.55 325.64C246.21 326.48 246.3 326.57 246.63 327.08C248.01 324.92 249.12 322.85 249.48 321.77L252.33 323.18C252.24 323.3 251.7 324.14 250.77 325.64C249.93 326.99 248.1 329.57 246.75 331.31C248.4 331.22 248.82 331.19 249.81 331.07C249.54 330.29 249.42 330.02 248.97 329.09L251.22 328.28C252.03 329.9 252.36 330.77 252.87 332.33C254.88 331.67 256.47 330.86 258.24 329.63C257.4 328.79 256.8 328.07 255.81 326.72C254.82 327.8 254.25 328.31 253.14 329.18C252.63 328.28 252.15 327.71 251.1 326.87C252.69 325.88 254.13 324.44 255.48 322.55C256.41 321.23 257.31 319.52 257.49 318.68L260.67 319.79C260.55 320 260.52 320.06 260.22 320.57C260.1 320.75 260.04 320.81 259.71 321.41H263.43C264.72 321.41 265.41 321.38 266.04 321.26L267.63 323.12C267.33 323.54 267.3 323.6 266.94 324.2C265.53 326.57 264.51 327.98 262.98 329.57C265.08 330.86 267.03 331.64 269.67 332.3C268.98 333.38 268.65 334.1 268.23 335.54C267.69 335.36 267.57 335.3 267.15 335.18C267.09 335.63 267.09 336.02 267.09 336.83V343.43C267.09 344.87 267.12 345.65 267.24 346.46H263.94V345.05H257.49V346.46H254.25C254.37 345.68 254.4 344.9 254.4 343.49V336.86C254.4 336.14 254.4 335.66 254.34 335.24C254.01 335.36 253.83 335.45 253.29 335.63C253.05 335 252.96 334.79 252.75 334.37ZM256.62 334.88H264.84C265.44 334.88 265.65 334.88 266.25 334.85C264.18 334.1 262.32 333.05 260.61 331.73C258.84 333.05 257.28 333.98 255.24 334.85C255.75 334.88 256.02 334.88 256.62 334.88ZM257.91 324.14L257.76 324.35C258.63 325.79 259.38 326.69 260.52 327.71C261.75 326.48 262.35 325.7 263.28 324.14H257.91ZM257.49 337.73V342.17H263.94V337.73H257.49ZM242.37 335.39L244.98 336.02C244.71 340.52 244.53 342.08 243.81 344.96L241.14 343.91C241.95 341.36 242.28 338.93 242.37 335.39ZM249.54 335.99L251.85 335.48C252.45 338.09 252.72 339.89 252.99 342.56L250.53 343.28C250.35 340.28 250.05 338.21 249.54 335.99Z" fill="black" fill-opacity="0.87"/>
<rect y="382" width="330" height="92" rx="4" fill="#5F6E7F" fill-opacity="0.15"/>
<path d="M118.29 418.54V417.58H112.11C110.76 417.58 109.95 417.61 109.17 417.7V415.06C110.04 415.18 111.06 415.24 112.47 415.24H118.29C118.26 414.46 118.23 414.28 118.11 413.59H121.62C121.47 414.19 121.44 414.43 121.41 415.24H127.44C128.94 415.24 129.9 415.21 130.74 415.12C130.68 415.66 130.65 416.26 130.65 417.67V418.54H130.89C132.15 418.54 132.81 418.51 133.62 418.39V421C132.9 420.88 132.15 420.85 130.8 420.85H130.65V422.02C130.65 422.95 130.68 423.79 130.74 424.15C129.87 424.09 128.97 424.06 127.62 424.06H121.41V424.99H128.55C130.08 424.99 130.83 424.96 131.67 424.87V427.39C130.77 427.27 129.96 427.24 128.55 427.24H121.41V428.2H130.08C131.61 428.2 132.66 428.14 133.53 428.02V430.81C132.51 430.69 131.34 430.63 130.08 430.63H109.86C108.54 430.63 107.43 430.69 106.38 430.81V428.02C107.25 428.14 108.39 428.2 109.86 428.2H118.29V427.24H111.51C110.1 427.24 109.26 427.27 108.39 427.39V424.87C109.26 424.96 110.01 424.99 111.51 424.99H118.29V424.06H112.11C110.76 424.06 109.98 424.09 109.14 424.18V421.72C109.95 421.81 110.73 421.84 112.11 421.84H118.29V420.85H109.83C108.3 420.85 107.4 420.88 106.38 421V418.39C107.31 418.48 108.33 418.54 109.83 418.54H118.29ZM127.59 420.85H121.41V421.84H127.59V420.85ZM127.59 418.54V417.58H121.41V418.54H127.59ZM109.92 438.31V434.41C109.92 432.7 109.89 432.19 109.83 431.47C110.58 431.53 111.03 431.53 113.01 431.53H127.02C129.03 431.53 129.54 431.53 130.23 431.47C130.14 432.1 130.11 432.79 130.11 434.41V438.28C130.11 439.84 130.17 440.71 130.29 441.4H126.96V440.38H113.04V441.4H109.77C109.86 440.53 109.92 439.63 109.92 438.31ZM113.04 433.78V434.89H126.96V433.78H113.04ZM113.04 436.96V438.07H126.96V436.96H113.04ZM146.88 433.24H145.05C146.01 434.74 147.18 435.7 149.22 436.69C148.53 437.53 148.11 438.25 147.54 439.51C145.32 437.92 144.54 437.17 143.46 435.49C142.38 437.89 140.82 439.42 137.85 441.01C137.28 439.87 136.89 439.36 135.93 438.34C137.46 437.68 138.12 437.26 138.99 436.51C140.13 435.55 140.76 434.62 141.21 433.24H139.26C137.94 433.24 137.19 433.27 136.41 433.39V430.3C137.13 430.39 137.97 430.45 139.29 430.45H141.72C141.72 430.15 141.72 430.03 141.72 429.73C141.72 429.22 141.69 428.92 141.63 428.53H144.81C144.75 428.8 144.75 428.83 144.69 429.4C144.66 429.73 144.66 429.85 144.6 430.45H147.06C148.2 430.45 148.95 430.42 149.64 430.3V433.39C148.92 433.3 147.99 433.24 146.88 433.24ZM153.66 435.64H152.94C152.01 435.64 151.35 435.67 150.57 435.73C150.63 434.89 150.66 433.96 150.66 432.97V422.71C150.66 421.57 150.63 420.46 150.57 419.83C151.29 419.92 151.77 419.92 153.09 419.92H154.5C154.92 418.99 155.04 418.69 155.28 417.79H152.79C151.44 417.79 150.69 417.82 149.94 417.94V414.73C150.78 414.88 151.5 414.91 153.12 414.91H160.65C162.27 414.91 163.05 414.88 163.86 414.73V417.94C162.96 417.82 162.21 417.79 160.65 417.79H158.52C158.22 418.72 158.07 419.08 157.68 419.92H159.96C161.58 419.92 162.18 419.89 162.9 419.83C162.84 420.7 162.81 421.51 162.81 422.68V432.61C162.81 433.81 162.84 434.86 162.9 435.73C161.82 435.67 161.19 435.64 160.32 435.64H159.3C161.01 437.29 161.88 437.92 164.46 439.27C163.59 440.14 162.99 440.86 162.36 441.82C160.08 440.38 158.82 439.39 156.93 437.44L158.97 435.64H153.96L155.94 437.62C154.08 439.51 152.61 440.53 149.94 441.85C149.46 441.16 149.22 440.86 148.95 440.47C148.86 440.38 148.65 440.14 148.35 439.78C148.23 439.66 148.08 439.48 147.9 439.27C150.57 438.25 151.83 437.47 153.66 435.64ZM153.6 422.56V424.33H159.81V422.56H153.6ZM153.6 426.79V428.59H159.81V426.79H153.6ZM153.6 431.05V432.85H159.81V431.05H153.6ZM144.66 419.83H147.66C148.83 419.83 149.04 419.83 149.58 419.74V422.47C149.1 422.41 148.68 422.38 147.69 422.38H145.68C146.64 423.52 147.87 424.39 150.09 425.56C149.58 426.16 149.13 426.97 148.68 428.08C146.61 426.58 145.56 425.59 144.54 424.21C144.63 424.69 144.66 425.32 144.66 425.77V426.46C144.66 427.06 144.69 427.42 144.75 427.81H141.69C141.75 427.36 141.78 427.03 141.78 426.52V425.83C141.78 425.44 141.81 425.02 141.87 424.48C140.43 426.4 139.35 427.45 137.37 428.8C136.89 427.63 136.59 427.06 135.93 426.22C138 425.14 139.59 423.91 140.73 422.38H138.99C137.91 422.38 137.19 422.41 136.47 422.5V419.71C137.19 419.8 137.82 419.83 139.02 419.83H141.78V416.05C141.78 415.18 141.75 414.64 141.66 414.07H144.81C144.69 414.61 144.66 415.18 144.66 416.05V419.83ZM136.62 415.66L138.84 414.49C139.95 415.93 140.31 416.5 141.21 418.18L138.9 419.41C138.24 417.91 137.61 416.83 136.62 415.66ZM147.42 414.46L149.67 415.63C148.68 417.46 148.14 418.27 147.21 419.5L145.17 418.24C146.07 417.19 146.73 416.11 147.42 414.46ZM181.95 427.24V424.78H178.77C177.45 424.78 176.52 424.81 175.71 424.9C175.8 424 175.83 423.25 175.83 421.99V417.61C175.83 416.47 175.8 415.75 175.71 414.88C176.58 415 177.42 415.03 179.04 415.03H188.61C190.05 415.03 191.04 415 191.91 414.88C191.82 415.81 191.79 416.41 191.79 417.79V422.05C191.79 423.31 191.82 424.03 191.91 424.87C191.58 424.84 191.58 424.84 191.04 424.84C190.92 424.84 190.68 424.84 190.38 424.81C189.81 424.78 189.33 424.78 188.94 424.78H185.13V427.24H190.38C191.49 427.24 192.66 427.18 193.65 427.06V430.42C192.54 430.3 191.4 430.24 190.47 430.24H186.45C187.71 431.8 188.37 432.46 189.66 433.54C191.28 434.89 192.57 435.7 194.46 436.6C193.59 437.74 193.14 438.43 192.45 439.81C190.32 438.37 189.69 437.89 188.64 436.96C187.11 435.61 186.27 434.62 185.04 432.7C185.1 433.69 185.13 435.1 185.13 435.91V438.7C185.13 439.66 185.19 440.53 185.31 441.46H181.77C181.89 440.5 181.95 439.66 181.95 438.67V435.85C181.95 435.61 181.98 434.53 182.01 432.67C180.81 434.68 179.94 435.73 178.17 437.32C176.82 438.52 175.92 439.18 174.57 439.99C173.82 438.52 173.64 438.25 172.53 437.02C174.48 436 176.04 434.92 177.69 433.42C178.86 432.37 179.4 431.77 180.57 430.24H177C175.83 430.24 174.69 430.3 173.73 430.42V427.09C174.69 427.18 175.65 427.24 177 427.24H181.95ZM178.98 417.97V421.84H188.58V417.97H178.98ZM169.2 437.92V429.4C169.2 428.41 169.2 427.72 169.26 426.1C168.51 427.33 168.03 427.99 166.95 429.13C166.38 427.3 166.23 426.88 165.51 425.5C167.73 423.31 169.35 420.79 170.58 417.55C171.15 416.05 171.57 414.52 171.72 413.47L175.08 414.55C174.9 414.97 174.9 414.97 174.63 415.9C174 417.94 173.43 419.29 172.32 421.48V437.95C172.32 439.24 172.35 440.23 172.47 441.43H169.02C169.14 440.23 169.2 439.33 169.2 437.92ZM202.89 418.36H201.27C200.31 419.56 199.71 420.16 198.36 421.27C197.55 420.19 197.37 420.01 196.17 419.05C198.42 417.49 200.01 415.54 200.73 413.44L203.94 414.04C203.52 414.85 203.4 415.12 203.04 415.69H207.15C208.5 415.69 209.13 415.66 209.82 415.54V417.88C211.17 416.5 212.01 415.09 212.43 413.47L215.64 413.98C215.16 415.03 215.1 415.15 214.83 415.72H220.74C222.21 415.72 222.81 415.69 223.68 415.57V418.51C222.87 418.42 222.21 418.39 220.89 418.39H218.1C218.76 419.47 218.85 419.62 219.24 420.43L216.27 421.3C215.85 420.16 215.52 419.5 214.86 418.39H213.18C212.61 419.17 212.31 419.5 211.35 420.49V421.09L211.32 421.57H219.75C221.46 421.57 222 421.54 222.99 421.48C222.9 422.02 222.9 422.38 222.9 423.34V425.44C222.9 426.34 222.93 426.85 223.02 427.42H219.78V424.15H200.43V427.42H197.25C197.31 426.82 197.37 426.28 197.37 425.44V423.4C197.37 422.5 197.34 422.05 197.25 421.48C198.15 421.54 198.66 421.57 200.4 421.57H208.17V421.09C208.17 420.43 208.17 420.1 208.08 419.65H210.15C209.52 419.17 209.37 419.05 208.77 418.72L209.22 418.39C208.71 418.36 208.38 418.36 207.87 418.36H205.89C206.37 419.2 206.55 419.59 206.91 420.34L204 421.33C203.67 420.07 203.4 419.38 202.89 418.36ZM204.48 441.46H201.15C201.27 440.41 201.33 439.51 201.33 438.13V427.33C201.33 426.46 201.3 425.92 201.21 425.35C201.93 425.44 202.71 425.47 203.73 425.47H215.97C217.08 425.47 217.83 425.44 218.55 425.35C218.46 425.98 218.46 426.55 218.46 427.39V429.64C218.46 430.75 218.46 431.26 218.55 431.98C217.8 431.92 217.11 431.89 216.09 431.89H204.48V433.33H217.35C218.46 433.33 219.12 433.3 219.81 433.21C219.72 433.96 219.69 434.71 219.69 435.7V438.73C219.69 439.75 219.72 440.59 219.84 441.46H216.54V440.17H204.48V441.46ZM204.48 427.93V429.52H215.34V427.93H204.48ZM204.48 435.73V437.68H216.54V435.73H204.48Z" fill="black" fill-opacity="0.87"/>
<path d="M420 434H750V470C750 472.209 748.209 474 746 474H424C421.791 474 420 472.209 420 470V434Z" fill="#20AEE5"/>
<rect x="420" y="404" width="330" height="30" fill="#4DBEEA"/>
<path d="M420 388C420 385.791 421.791 384 424 384H746C748.209 384 750 385.791 750 388V404H420V388Z" fill="#79CEEF"/>
<mask id="path-15-inside-1_248_8498" fill="white">
<path fill-rule="evenodd" clip-rule="evenodd" d="M444 112C437.373 112 432 117.373 432 124V307C432 313.627 437.373 319 444 319H561.782L578.542 337.538C579.733 338.856 581.801 338.856 582.992 337.538L599.752 319H719C725.627 319 731 313.627 731 307V124C731 117.373 725.627 112 719 112H444Z"/>
</mask>
<path fill-rule="evenodd" clip-rule="evenodd" d="M444 112C437.373 112 432 117.373 432 124V307C432 313.627 437.373 319 444 319H561.782L578.542 337.538C579.733 338.856 581.801 338.856 582.992 337.538L599.752 319H719C725.627 319 731 313.627 731 307V124C731 117.373 725.627 112 719 112H444Z" fill="white"/>
<path fill-rule="evenodd" clip-rule="evenodd" d="M444 112C437.373 112 432 117.373 432 124V307C432 313.627 437.373 319 444 319H561.782L578.542 337.538C579.733 338.856 581.801 338.856 582.992 337.538L599.752 319H719C725.627 319 731 313.627 731 307V124C731 117.373 725.627 112 719 112H444Z" fill="#20AEE5" fill-opacity="0.03"/>
<path d="M561.782 319L564.749 316.317L563.558 315H561.782V319ZM578.542 337.538L575.574 340.221V340.221L578.542 337.538ZM582.992 337.538L585.96 340.221V340.221L582.992 337.538ZM599.752 319V315H597.976L596.785 316.317L599.752 319ZM436 124C436 119.582 439.582 116 444 116V108C435.163 108 428 115.163 428 124H436ZM436 307V124H428V307H436ZM444 315C439.582 315 436 311.418 436 307H428C428 315.837 435.163 323 444 323V315ZM561.782 315H444V323H561.782V315ZM581.509 334.856L564.749 316.317L558.814 321.683L575.574 340.221L581.509 334.856ZM580.025 334.856C580.422 334.417 581.112 334.417 581.509 334.856L575.574 340.221C578.354 343.295 583.18 343.295 585.96 340.221L580.025 334.856ZM596.785 316.317L580.025 334.856L585.96 340.221L602.72 321.683L596.785 316.317ZM719 315H599.752V323H719V315ZM727 307C727 311.418 723.418 315 719 315V323C727.837 323 735 315.837 735 307H727ZM727 124V307H735V124H727ZM719 116C723.418 116 727 119.582 727 124H735C735 115.163 727.837 108 719 108V116ZM444 116H719V108H444V116Z" fill="#20AEE5" mask="url(#path-15-inside-1_248_8498)"/>
<path d="M502.716 253.478C502.716 256.347 502.153 258.857 501.026 261.009C499.899 263.109 498.387 264.876 496.492 266.311C494.648 267.694 492.471 268.718 489.96 269.384C487.502 270.101 484.94 270.46 482.276 270.46C479.561 270.46 476.974 270.101 474.515 269.384C472.057 268.718 469.879 267.694 467.984 266.311C466.14 264.927 464.654 263.186 463.527 261.085C462.4 258.934 461.837 256.424 461.837 253.555C461.837 251.916 462.093 250.405 462.605 249.021C463.117 247.587 463.809 246.332 464.68 245.256C465.602 244.129 466.652 243.181 467.83 242.413C469.009 241.593 470.264 240.979 471.596 240.569V240.415C469.239 239.544 467.267 238.136 465.679 236.189C464.091 234.191 463.297 231.681 463.297 228.659C463.297 226.148 463.809 223.92 464.834 221.973C465.858 220.027 467.241 218.413 468.983 217.132C470.725 215.8 472.748 214.802 475.053 214.136C477.359 213.47 479.766 213.137 482.276 213.137C484.787 213.137 487.169 213.47 489.423 214.136C491.728 214.75 493.751 215.698 495.493 216.979C497.235 218.259 498.618 219.873 499.642 221.82C500.718 223.715 501.256 225.918 501.256 228.428C501.256 231.45 500.488 233.986 498.951 236.035C497.414 238.084 495.416 239.519 492.957 240.338V240.569C494.34 240.979 495.621 241.593 496.799 242.413C497.978 243.181 499.002 244.129 499.873 245.256C500.744 246.332 501.435 247.587 501.948 249.021C502.46 250.405 502.716 251.89 502.716 253.478ZM488.808 229.35C488.808 227.557 488.168 226.072 486.887 224.893C485.606 223.715 484.069 223.126 482.276 223.126C480.33 223.126 478.767 223.715 477.589 224.893C476.411 226.072 475.822 227.557 475.822 229.35C475.822 231.092 476.385 232.603 477.512 233.884C478.69 235.164 480.279 235.805 482.276 235.805C484.172 235.805 485.734 235.164 486.964 233.884C488.193 232.603 488.808 231.092 488.808 229.35ZM489.807 253.017C489.807 250.917 489.09 249.175 487.655 247.792C486.272 246.358 484.479 245.64 482.276 245.64C480.022 245.64 478.178 246.332 476.744 247.715C475.361 249.098 474.669 250.866 474.669 253.017C474.669 255.22 475.361 256.987 476.744 258.319C478.178 259.6 480.022 260.24 482.276 260.24C484.53 260.24 486.349 259.6 487.732 258.319C489.115 256.987 489.807 255.22 489.807 253.017ZM551.238 241.645C551.238 245.487 550.854 249.149 550.085 252.633C549.317 256.116 548.087 259.19 546.397 261.854C544.706 264.466 542.504 266.567 539.788 268.155C537.125 269.692 533.872 270.46 530.03 270.46C526.188 270.46 522.909 269.692 520.194 268.155C517.479 266.567 515.251 264.466 513.509 261.854C511.818 259.19 510.589 256.116 509.821 252.633C509.052 249.149 508.668 245.487 508.668 241.645C508.668 237.803 509.052 234.165 509.821 230.733C510.589 227.25 511.818 224.227 513.509 221.666C515.251 219.053 517.479 216.979 520.194 215.442C522.909 213.905 526.188 213.137 530.03 213.137C533.872 213.137 537.125 213.905 539.788 215.442C542.504 216.979 544.706 219.053 546.397 221.666C548.087 224.227 549.317 227.25 550.085 230.733C550.854 234.165 551.238 237.803 551.238 241.645ZM538.021 241.645C538.021 239.954 537.919 238.084 537.714 236.035C537.509 233.986 537.125 232.091 536.561 230.349C535.998 228.556 535.178 227.07 534.102 225.892C533.078 224.663 531.72 224.048 530.03 224.048C528.339 224.048 526.956 224.663 525.88 225.892C524.805 227.07 523.959 228.556 523.345 230.349C522.781 232.091 522.397 233.986 522.192 236.035C521.987 238.084 521.885 239.954 521.885 241.645C521.885 243.386 521.987 245.307 522.192 247.408C522.397 249.457 522.781 251.378 523.345 253.171C523.959 254.913 524.805 256.398 525.88 257.628C526.956 258.806 528.339 259.395 530.03 259.395C531.72 259.395 533.078 258.806 534.102 257.628C535.178 256.398 535.998 254.913 536.561 253.171C537.125 251.378 537.509 249.457 537.714 247.408C537.919 245.307 538.021 243.386 538.021 241.645ZM603.311 259.144C603.311 260.592 603.032 261.966 602.476 263.265C601.919 264.527 601.158 265.641 600.193 266.606C599.265 267.534 598.151 268.276 596.852 268.833C595.552 269.39 594.179 269.668 592.731 269.668C591.284 269.668 589.91 269.39 588.611 268.833C587.312 268.276 586.179 267.534 585.214 266.606C584.286 265.641 583.544 264.527 582.987 263.265C582.43 261.966 582.152 260.592 582.152 259.144C582.152 257.697 582.43 256.342 582.987 255.08C583.544 253.78 584.286 252.667 585.214 251.739C586.179 250.773 587.312 250.012 588.611 249.456C589.91 248.899 591.284 248.62 592.731 248.62C594.179 248.62 595.552 248.899 596.852 249.456C598.151 250.012 599.265 250.773 600.193 251.739C601.158 252.667 601.919 253.78 602.476 255.08C603.032 256.342 603.311 257.697 603.311 259.144ZM597.074 259.144C597.074 258.55 596.945 257.994 596.685 257.474C596.462 256.917 596.146 256.453 595.738 256.082C595.367 255.673 594.921 255.358 594.402 255.135C593.882 254.912 593.325 254.801 592.731 254.801C591.543 254.801 590.523 255.228 589.669 256.082C588.815 256.936 588.388 257.956 588.388 259.144C588.388 260.332 588.815 261.353 589.669 262.207C590.523 263.023 591.543 263.432 592.731 263.432C593.325 263.432 593.882 263.32 594.402 263.098C594.921 262.875 595.367 262.578 595.738 262.207C596.146 261.798 596.462 261.334 596.685 260.815C596.945 260.295 597.074 259.738 597.074 259.144ZM576.584 239.433C576.584 240.881 576.305 242.254 575.748 243.553C575.191 244.816 574.431 245.929 573.465 246.894C572.537 247.822 571.424 248.565 570.124 249.122C568.825 249.678 567.452 249.957 566.004 249.957C564.556 249.957 563.183 249.678 561.884 249.122C560.584 248.565 559.452 247.822 558.487 246.894C557.559 245.929 556.816 244.816 556.26 243.553C555.703 242.254 555.424 240.881 555.424 239.433C555.424 237.948 555.703 236.575 556.26 235.313C556.816 234.013 557.559 232.9 558.487 231.972C559.452 231.006 560.584 230.264 561.884 229.744C563.183 229.187 564.556 228.909 566.004 228.909C567.452 228.909 568.825 229.187 570.124 229.744C571.424 230.264 572.537 231.006 573.465 231.972C574.431 232.9 575.191 234.013 575.748 235.313C576.305 236.575 576.584 237.948 576.584 239.433ZM570.347 239.433C570.347 238.245 569.92 237.224 569.066 236.37C568.213 235.517 567.192 235.09 566.004 235.09C564.816 235.09 563.795 235.517 562.941 236.37C562.088 237.224 561.661 238.245 561.661 239.433C561.661 240.621 562.088 241.642 562.941 242.495C563.795 243.312 564.816 243.72 566.004 243.72C567.192 243.72 568.213 243.312 569.066 242.495C569.92 241.642 570.347 240.621 570.347 239.433ZM570.291 270.893L565.336 268.443L588.332 227.795L593.511 230.301L570.291 270.893Z" fill="#20AEE5"/>
<path d="M488.329 171.744H479.66C478.065 171.744 477.164 171.778 476.089 171.917V168.623C477.06 168.727 477.961 168.762 479.66 168.762H483.856C483.336 167.652 482.954 166.855 482.573 166.196H478.828C477.129 166.196 475.812 166.265 474.702 166.369V162.902C475.777 163.041 476.887 163.11 478.655 163.11H479.764C479.106 161.897 478.69 161.342 477.407 159.886L480.874 158.568C482.053 160.198 482.538 161.03 483.544 163.11H485.52V160.648C485.52 159.608 485.451 158.637 485.347 157.944H489.126C489.057 158.568 489.022 159.331 489.022 160.51V163.11H491.484V160.51C491.484 159.4 491.449 158.603 491.38 157.944H495.159C495.055 158.603 494.986 159.539 494.986 160.648V163.11H497.17C498.384 161.376 499.043 160.163 499.667 158.464L503.238 159.782C502.406 161.168 501.851 162.035 501.088 163.11H502.059C503.862 163.11 504.937 163.041 505.977 162.902V166.369C504.903 166.265 503.55 166.196 501.851 166.196H498.384C497.725 167.583 497.586 167.895 497.101 168.762H501.123C502.822 168.762 503.689 168.727 504.694 168.623V171.917C503.62 171.778 502.753 171.744 501.123 171.744H492.073V173.408H499.32C500.88 173.408 501.921 173.373 502.891 173.235V176.355C501.921 176.217 500.846 176.182 499.32 176.182H492.073V177.916H501.747C503.724 177.916 504.937 177.846 505.943 177.708V181.175C504.66 181.036 503.377 180.967 501.782 180.967H494.813C495.991 181.972 497.552 182.909 499.528 183.741C501.747 184.677 503.55 185.162 506.74 185.717C505.769 187.035 505.353 187.797 504.764 189.254C498.939 187.659 495.021 185.544 491.9 182.388C492.004 183.706 492.004 184.018 492.004 184.85V186.549C492.004 188.006 492.073 189.08 492.247 190.051H488.155C488.294 189.046 488.363 187.902 488.363 186.515V184.85C488.363 184.053 488.363 183.914 488.467 182.492C486.838 184.157 485.555 185.162 483.474 186.307C481.255 187.52 479.14 188.422 476.401 189.219C475.846 188.006 475.188 186.965 474.286 185.89C479.348 184.816 482.85 183.29 485.624 180.967H479.175C477.545 180.967 476.297 181.036 474.98 181.175V177.708C476.089 177.846 477.268 177.916 479.14 177.916H488.329V176.182H481.463C479.938 176.182 478.898 176.217 477.927 176.355V173.235C478.898 173.373 479.903 173.408 481.463 173.408H488.329V171.744ZM487.531 168.762H493.252C493.772 167.756 494.05 167.132 494.397 166.196H486.491C486.976 167.236 487.184 167.756 487.531 168.762ZM528.819 179.927H526.149C524.797 179.927 524.173 179.961 523.41 180.065V176.737C523.064 177.604 522.925 177.846 522.474 178.782C521.503 177.812 521.087 177.5 519.943 176.875C520.81 175.454 521.469 173.998 521.919 172.472H519.735L519.804 186.515C519.804 187.589 519.596 188.318 519.076 188.838C518.591 189.288 517.516 189.531 515.852 189.531C515.089 189.531 514.014 189.496 512.974 189.427C512.904 188.11 512.731 187.312 512.246 186.029C513.667 186.272 514.673 186.376 515.331 186.376C516.268 186.376 516.476 186.237 516.441 185.544L516.406 177.257C515.089 180.308 513.494 182.597 511.309 184.608C510.789 182.978 510.373 182.111 509.576 180.828C512.384 178.436 513.945 176.217 515.435 172.472H513.043C511.725 172.472 510.928 172.507 510.13 172.645V168.97C510.997 169.109 511.829 169.143 513.251 169.143H516.718C515.054 167.514 513.702 166.369 512.107 165.225L514.257 163.145C516.198 164.601 516.372 164.705 517.238 165.468C518.383 164.566 519.145 163.7 520.047 162.417H514.014C512.8 162.417 511.933 162.451 511.032 162.555V158.984C511.968 159.088 512.766 159.123 514.291 159.123H520.22C521.989 159.123 522.439 159.088 523.168 159.019L525.04 161.03C524.901 161.203 524.624 161.55 524.277 162.035C522.786 164.081 520.775 166.369 519.423 167.479C519.735 167.826 519.874 167.93 520.186 168.311L519.423 169.143H521.503C522.717 169.143 523.376 169.109 524.034 169.039L525.525 170.877C525.387 171.154 525.283 171.397 525.109 171.952C527.294 171.432 529.097 170.738 530.796 169.802C529.582 168.623 528.681 167.514 527.952 166.231C527.12 167.34 526.635 167.86 525.283 169.282C524.485 168.311 523.722 167.652 522.647 166.924C525.248 164.67 526.635 162.867 527.814 160.232C528.299 159.157 528.473 158.672 528.681 157.597L532.287 158.291C532.183 158.464 531.975 158.949 531.767 159.504C531.593 159.955 531.454 160.267 531.177 160.856H538.354C539.984 160.856 541.128 160.787 542.03 160.683V164.22C541.232 164.116 540.608 164.081 539.533 164.081C538.458 166.647 537.73 167.791 536.101 169.525C538.146 170.496 539.776 170.946 542.758 171.466C541.926 172.819 541.683 173.408 541.163 175.072C537.384 173.998 535.373 173.165 533.362 171.848C532.425 172.507 531.628 172.923 530.137 173.616L533.674 173.651C533.639 173.894 533.639 173.894 533.639 174.102C533.604 174.275 533.57 174.483 533.535 174.726C533.535 174.899 533.5 174.968 533.466 175.28C533.431 175.766 533.362 176.009 533.292 176.633H538.216C539.741 176.633 540.331 176.598 540.955 176.494C540.851 177.291 540.851 177.291 540.816 178.02C540.539 182.146 540.088 185.301 539.603 186.723C538.909 188.838 538.008 189.392 535.303 189.392C534.332 189.392 533.223 189.323 531.628 189.15C531.524 187.763 531.35 187 530.83 185.544C532.425 185.856 533.778 186.029 534.818 186.029C535.927 186.029 536.274 185.613 536.655 183.845C536.898 182.701 537.002 181.66 537.106 179.927H532.564C531.073 184.677 528.334 187.52 522.856 189.913C522.231 188.734 521.642 187.867 520.706 186.827C525.144 185.162 527.432 183.221 528.819 179.927ZM526.358 176.633H529.686C529.79 175.662 529.86 174.864 529.86 174.032C529.86 173.894 529.86 173.859 529.825 173.755C528.507 174.31 527.779 174.552 525.872 175.176C525.456 174.24 525.283 173.963 524.728 173.096C524.277 174.552 524 175.28 523.514 176.529C524.138 176.598 524.797 176.633 526.358 176.633ZM535.823 164.081H530.38C531.038 165.433 532.009 166.612 533.362 167.826C534.61 166.543 535.165 165.745 535.823 164.081ZM553.672 162.105H557.417C558.735 162.105 559.428 162.07 560.226 161.966C560.156 162.729 560.156 162.729 560.052 163.977C559.636 170.946 558.769 174.691 556.516 179.199C558.076 181.522 559.324 182.701 561.162 183.567C563.346 184.608 566.813 185.093 571.772 185.093C573.401 185.093 575.412 185.024 578.325 184.816C577.666 186.411 577.458 187.208 577.25 188.838C576.071 188.907 573.887 188.976 572.743 188.976C569.587 188.976 565.843 188.664 563.311 188.144C559.844 187.485 557.07 185.648 554.608 182.388C552.459 185.405 550.586 187.381 547.5 189.913C546.876 188.352 546.287 187.347 545.316 186.411C548.749 183.845 550.725 181.799 552.597 178.956C551.384 176.494 551.037 175.627 550.205 172.957C549.338 174.795 548.749 175.731 547.466 177.534C546.772 175.835 546.356 175.142 545.247 173.963C547.084 171.64 548.298 169.109 549.303 165.676C550.032 163.145 550.586 159.92 550.586 158.291C550.586 158.083 550.586 158.013 550.552 157.77L554.4 158.117C554.262 158.672 554.158 159.157 554.019 160.059C553.915 160.752 553.846 161.134 553.672 162.105ZM556.446 165.399H552.944C552.667 166.473 552.459 167.132 552.077 168.311C553.187 172.333 553.43 173.061 554.47 175.384C555.614 172.507 556.099 170.079 556.446 165.399ZM568.998 163.145H565.912C565.877 168.866 565.704 171.917 565.184 174.968C564.594 178.262 563.832 180.239 562.098 182.735C561.092 181.626 560.468 181.071 559.012 180.204C561.821 176.737 562.445 173.547 562.445 162.243C562.445 160.995 562.41 160.267 562.306 159.539C562.965 159.643 563.589 159.678 564.906 159.678H569.449C570.974 159.678 571.945 159.643 572.569 159.539C572.465 160.267 572.431 161.238 572.431 162.694V177.742C572.431 178.228 572.569 178.332 573.263 178.332C574.06 178.332 574.199 178.193 574.372 177.118C574.546 176.113 574.615 174.691 574.684 171.709C575.759 172.264 576.591 172.576 577.666 172.749C577.527 177.118 577.25 179.268 576.73 180.412C576.21 181.487 575.239 181.868 572.985 181.868C569.795 181.868 568.998 181.348 568.998 179.303V163.145ZM600.786 185.37V181.799H596.937C594.96 181.799 594.232 181.834 593.331 181.938V178.401C594.198 178.54 594.891 178.574 596.902 178.574H600.786V175.731H597.492C595.168 175.731 594.371 175.766 593.331 175.835C593.4 175.038 593.4 175.038 593.469 171.536V163.7C593.469 161.342 593.435 160.198 593.296 159.053C594.614 159.192 595.723 159.227 597.977 159.227H607.547C610.113 159.227 611.153 159.192 612.02 159.053C611.916 160.059 611.881 161.689 611.881 163.804V171.189C611.881 173.616 611.916 174.83 612.02 175.835C610.875 175.731 610.321 175.731 608.24 175.731H604.253V178.574H608.691C610.598 178.574 611.361 178.54 612.366 178.401V181.972C611.361 181.834 610.494 181.799 608.726 181.799H604.253V185.37H609.835C611.673 185.37 612.574 185.336 613.511 185.197V188.907C612.401 188.768 611.465 188.734 609.593 188.734H594.995C593.157 188.734 592.256 188.768 591.077 188.907V185.197C592.013 185.336 592.776 185.37 594.579 185.37H600.786ZM600.786 162.59H596.937V166.057H600.786V162.59ZM604.253 162.59V166.057H608.275V162.59H604.253ZM600.786 168.97H596.937V172.472H600.786V168.97ZM604.253 168.97V172.472H608.275V168.97H604.253ZM585.356 162.937H584.038C582.929 162.937 582.305 162.971 581.438 163.11V159.365C582.27 159.504 583.172 159.573 584.593 159.573H589.482C590.869 159.573 591.701 159.539 592.568 159.365V163.075C591.701 162.971 590.973 162.937 590.002 162.937H588.962V169.698H589.759C590.661 169.698 591.181 169.663 591.944 169.525V173.061C591.25 172.957 590.557 172.923 589.759 172.923H588.962V179.753C590.418 179.129 590.834 178.956 592.36 178.193L592.464 181.868C589.447 183.359 588.095 183.949 582.721 186.133C582.547 186.203 582.374 186.272 582.027 186.411L581.091 182.492C582.27 182.25 582.998 182.007 585.356 181.175V172.923H584.212C583.206 172.923 582.651 172.957 581.854 173.096V169.525C582.686 169.663 583.206 169.698 584.281 169.698H585.356V162.937ZM636.734 164.948H633.787C630.909 165.017 630.909 165.017 630.077 165.121V161.446C631.048 161.585 632.157 161.654 633.683 161.654H636.734V160.718C636.734 159.747 636.665 158.984 636.526 158.117H640.513C640.409 158.915 640.34 159.643 640.34 160.718V161.654H644.119C645.61 161.654 646.755 161.585 647.725 161.446V165.121C646.755 164.983 645.714 164.948 644.154 164.948H640.34V168.242H645.125C646.789 168.242 648.037 168.172 648.904 168.034V171.709C647.968 171.57 647.032 171.536 645.506 171.536H644.917V174.483H645.368C647.032 174.483 647.968 174.448 648.8 174.31V178.089C647.795 177.916 646.928 177.881 645.368 177.881H644.917V185.717C644.917 187.728 644.57 188.56 643.53 189.046C642.663 189.427 641.449 189.6 639.716 189.6C639.404 189.6 639.404 189.6 637.011 189.566C636.942 188.075 636.699 187.035 636.179 185.925C637.046 186.064 638.849 186.203 640.063 186.203C641.137 186.203 641.345 186.029 641.345 185.266V177.881H633.059C631.776 177.881 630.458 177.95 629.349 178.089V174.31C630.25 174.448 631.325 174.483 633.128 174.483H641.345V171.536H633.128C631.672 171.536 630.389 171.605 629.314 171.709V168.034C630.181 168.172 631.498 168.242 633.163 168.242H636.734V164.948ZM618.392 183.498V163.214C618.392 161.654 618.357 160.752 618.253 159.712C619.016 159.782 619.675 159.816 621.304 159.816H625.5C627.06 159.816 627.684 159.782 628.516 159.712C628.412 160.51 628.412 161.134 628.412 163.145V182.978C628.412 184.816 628.447 185.578 628.516 186.445H624.98V184.712H621.824V187.624H618.184C618.322 186.549 618.392 185.336 618.392 183.498ZM621.859 163.11V170.357H624.98V163.11H621.859ZM621.859 173.547V181.348H624.98V173.547H621.859ZM638.19 183.602L635.139 185.925C633.752 183.602 632.434 181.938 630.701 180.239L633.648 178.297C635.347 179.823 636.734 181.418 638.19 183.602ZM675.491 175.697V182.735C675.491 184.053 675.526 184.85 675.595 185.752C676.358 185.821 677.606 185.925 678.23 185.925C679.201 185.925 679.513 185.682 679.513 184.989V170.496H672.682C671.469 170.496 670.359 170.53 669.492 170.6C669.562 169.594 669.596 168.935 669.596 167.444V162.139C669.596 160.96 669.562 159.99 669.492 158.915C670.429 159.019 671.261 159.053 673.029 159.053H679.686C681.42 159.053 682.287 159.019 683.258 158.915C683.154 160.163 683.119 161.03 683.119 162.763V185.474C683.119 187.555 682.703 188.456 681.455 188.976C680.727 189.288 679.686 189.392 677.537 189.392C677.051 189.392 676.912 189.392 675.144 189.288C674.936 187.728 674.763 187.104 674.243 185.717C673.237 185.682 672.578 185.682 672.301 185.682H664.95V187.624H661.275C661.414 186.792 661.518 185.405 661.518 184.157V175.697C661.518 174.483 661.483 173.512 661.414 172.576C662.419 172.68 663.217 172.715 664.638 172.715H672.37C673.827 172.715 674.589 172.68 675.595 172.576C675.526 173.477 675.491 174.344 675.491 175.697ZM673.029 161.862V163.596H679.513V161.862H673.029ZM673.029 166.057V167.826H679.513V166.057H673.029ZM664.95 175.627V177.708H672.024V175.627H664.95ZM664.95 180.516V182.77H672.024V180.516H664.95ZM657.704 170.496V185.474C657.704 187.555 657.773 188.803 657.912 189.739H653.855C653.993 188.699 654.063 187.589 654.063 185.44V162.798C654.063 160.995 654.028 160.024 653.924 158.915C654.895 159.019 655.796 159.053 657.495 159.053H663.633C665.436 159.053 666.233 159.019 667.169 158.915C667.1 160.024 667.065 160.787 667.065 162.139V167.444C667.065 169.039 667.1 169.837 667.169 170.6C666.268 170.53 665.193 170.496 663.979 170.496H657.704ZM657.704 161.862V163.596H663.667V161.862H657.704ZM657.704 166.057V167.826H663.667V166.057H657.704Z" fill="black" fill-opacity="0.87"/>
<path d="M623.862 239.48V230.453C623.862 228.769 623.768 227.6 623.581 226.617H629.194C629.007 227.693 628.913 228.722 628.913 230.406V239.48H632.889C634.619 239.48 635.648 239.433 637.051 239.293C636.911 240.462 636.864 241.538 636.864 243.128V264.784C636.864 266.608 636.537 267.59 635.742 268.339C634.9 269.087 633.824 269.368 631.579 269.368C630.176 269.368 629.521 269.321 626.902 269.134C626.715 267.263 626.481 266.281 625.873 264.503C628.305 264.831 629.708 264.971 630.784 264.971C631.719 264.971 632 264.737 632 263.989V259.452H620.4V264.363C620.4 266.468 620.494 268.198 620.681 269.835H615.162C615.396 268.058 615.489 266.515 615.489 264.41V243.268C615.489 241.538 615.442 240.462 615.302 239.293C616.518 239.433 617.734 239.48 618.904 239.48H623.862ZM620.4 251.734V255.149H632V251.734H620.4ZM632 247.384V243.923H620.4V247.384H632ZM613.665 229.938L617.828 227.646C620.073 231.295 620.821 232.838 622.318 236.72L618.155 238.919C616.846 235.224 615.863 233.259 613.665 229.938ZM634.198 227.787L638.782 229.938C636.584 234.803 635.835 236.206 633.964 239.152L629.755 236.954C631.906 233.68 632.748 231.903 634.198 227.787ZM640.326 230.359H645.658C645.471 231.669 645.424 232.838 645.424 235.224V254.026C645.424 256.739 645.471 257.768 645.658 258.984H640.326C640.513 257.628 640.559 256.645 640.559 253.979V235.317C640.559 233.025 640.513 231.669 640.326 230.359ZM649.68 227.179H655.199C654.965 228.442 654.872 230.032 654.872 232.838V263.989C654.872 266.561 654.498 267.59 653.235 268.385C652.159 269.087 650.522 269.368 647.856 269.368C646.733 269.368 645.798 269.321 643.225 269.181C642.898 266.935 642.617 266 641.869 264.176C644.208 264.503 645.985 264.644 647.716 264.644C649.587 264.644 649.961 264.41 649.961 263.24V232.932C649.961 230.266 649.867 228.582 649.68 227.179ZM688.976 249.536V258.376C688.976 259.452 688.976 260.2 689.022 260.855C689.911 259.826 690.753 258.657 692.063 256.552C690.706 251.454 689.911 244.905 689.631 236.674H676.628C676.628 249.583 676.347 255.196 675.412 260.434C674.757 264.316 673.775 266.889 671.904 269.929C670.454 268.432 669.425 267.637 667.741 266.608C669.565 263.848 670.313 261.884 671.015 258.142C671.81 253.886 672.184 247.384 672.184 238.17C672.184 236.299 672.138 234.569 672.044 233.353L668.442 236.907C666.151 234.241 664.28 232.558 661.38 230.593L664.981 227.272C668.115 229.424 669.705 230.78 672.044 233.353C671.95 232.745 671.95 232.558 671.857 231.903C672.886 232.043 674.71 232.137 677.095 232.137H689.584C689.537 228.816 689.49 227.74 689.303 226.664H694.448C694.214 227.974 694.121 229.237 694.121 231.435C694.121 231.529 694.121 231.809 694.167 232.137H698.003C698.237 232.137 698.33 232.137 699.219 232.137C698.05 231.061 696.553 229.938 694.869 228.909L697.863 226.15C699.827 227.319 700.575 227.88 702.727 229.658L700.201 232.09C701.417 232.09 701.932 232.043 702.961 231.856V236.861C701.417 236.72 700.622 236.674 698.003 236.674H694.214C694.355 241.772 694.682 246.402 695.243 250.378C696.646 246.917 697.722 242.473 697.769 239.901L702.54 241.585C702.259 242.473 702.072 243.035 701.745 244.251C700.435 249.162 698.985 252.95 696.787 256.973C697.488 259.218 699.079 262.492 699.921 263.381C700.014 263.474 700.061 263.521 700.061 263.521C700.108 263.568 700.108 263.568 700.154 263.568C700.529 263.568 700.903 260.528 700.95 257.113C702.166 258.095 703.335 258.844 704.691 259.499C704.504 262.492 704.224 264.176 703.662 265.86C702.961 267.964 701.745 269.181 700.295 269.181C698.096 269.181 695.945 266.702 693.84 261.837C691.501 265.065 688.602 267.918 685.187 270.163C684.018 268.713 683.176 267.964 681.492 266.748C684.111 265.252 686.684 263.287 688.555 261.416C687.713 261.323 687.011 261.323 686.123 261.323H681.819V263.848H677.844C678.031 262.96 678.078 261.931 678.078 259.779V250.378C678.078 249.209 678.031 247.805 677.937 247.197C678.545 247.244 679.621 247.291 681.165 247.291H686.403C687.385 247.291 688.368 247.244 689.116 247.197C689.022 247.572 688.976 248.554 688.976 249.536ZM681.819 251.173V257.066H685.281V251.173H681.819ZM660.07 242.567L663.438 239.059C666.525 240.93 668.396 242.333 670.781 244.625L667.507 248.413C664.888 245.841 663.204 244.531 660.07 242.567ZM665.589 251.407L669.378 254.541C667.694 260.949 666.805 263.661 664.841 268.105C664.654 268.526 664.607 268.713 664.42 269.181L660.117 265.392C660.585 264.831 660.772 264.597 661.239 263.755C661.801 262.773 662.689 260.621 663.531 258.423C664.42 256.037 664.841 254.587 665.589 251.407ZM677.47 244.344V239.901C678.218 239.994 678.779 240.041 680.042 240.041H686.403C687.76 240.041 688.414 239.994 689.069 239.901V244.344C688.508 244.251 687.619 244.204 686.45 244.204H680.042C678.92 244.204 678.124 244.251 677.47 244.344Z" fill="black" fill-opacity="0.87"/>
<path d="M337 474L411 474" stroke="#9BA4AD" stroke-width="4" stroke-linecap="round" stroke-dasharray="5 10"/>
<line x1="335.371" y1="2.54224" x2="413.425" y2="371.105" stroke="#9BA4AD" stroke-width="4" stroke-linecap="round" stroke-dasharray="5 10"/>
<path d="M138.624 492.568H139.8C139.44 491.944 139.128 491.512 138.672 490.984L141.24 490.528C141.792 491.272 142.224 491.992 142.512 492.568H144.864C145.416 491.824 145.68 491.368 146.064 490.576L148.704 491.08C148.2 491.824 147.96 492.16 147.672 492.568H149.184C150.408 492.568 150.984 492.544 151.584 492.448V494.656C151.032 494.584 150.312 494.56 149.184 494.56H144.984C144.816 494.896 144.816 494.944 144.648 495.232H147.864C148.92 495.232 149.544 495.208 150.048 495.16C149.976 495.736 149.952 496.192 149.952 497.032V501.232C149.952 502.096 149.976 502.72 150.048 503.152C149.448 503.104 149.136 503.104 148.2 503.104H139.968C138.888 503.104 138.336 503.128 137.712 503.152C137.76 502.72 137.784 502.288 137.784 501.376V497.008C137.784 496.168 137.76 495.592 137.688 495.16C138.144 495.208 138.96 495.232 140.04 495.232H141.96C142.104 494.968 142.152 494.872 142.32 494.56H138.768C137.64 494.56 136.92 494.584 136.344 494.656V492.448C136.896 492.544 137.448 492.568 138.624 492.568ZM140.136 496.864V497.536H147.552V496.864H140.136ZM140.136 498.76V499.456H147.552V498.76H140.136ZM140.136 500.752V501.424H147.552V500.752H140.136ZM145.032 506.68V505.888C142.728 505.936 142.728 505.936 142.272 505.936C137.424 505.936 135.768 505.456 134.664 503.704C133.92 504.352 132.696 505.12 131.088 506.032L130.08 503.608C130.8 503.416 132.36 502.6 133.488 501.856V499.024H132.096C131.4 499.024 131.04 499.048 130.464 499.12V496.768C131.088 496.864 131.472 496.888 132.384 496.888H134.184C134.976 496.888 135.456 496.864 136.008 496.792C135.936 497.344 135.912 497.8 135.912 499.048V501.952C136.344 502.816 136.824 503.224 137.736 503.536C138.552 503.776 139.752 503.872 142.224 503.872C147.096 503.872 150.144 503.776 152.328 503.584C151.824 504.688 151.824 504.688 151.632 505.792C150.912 505.816 150.912 505.816 147.6 505.864V506.68H148.896C150.264 506.68 150.984 506.632 151.752 506.536V508.96C150.984 508.864 150.192 508.816 148.848 508.816H147.6V510.976C147.6 512.608 146.88 512.992 143.928 512.992C143.4 512.992 143.016 512.992 142.104 512.944C142.008 511.912 141.84 511.36 141.384 510.472C142.416 510.592 143.28 510.664 144.072 510.664C144.864 510.664 145.032 510.568 145.032 510.112V508.816H137.352C138.432 509.56 139.152 510.16 140.184 511.144L138.216 512.872C137.112 511.552 136.296 510.808 134.88 509.848L136.272 508.816H133.344C132 508.816 131.256 508.864 130.44 508.96V506.536C131.184 506.632 131.928 506.68 133.296 506.68H145.032ZM130.608 492.544L132.312 490.912C134.04 492.136 134.592 492.592 136.056 494.056L134.304 495.904C133.08 494.512 132.192 493.696 130.608 492.544ZM163.56 494.56H160.56C159.912 494.56 159.192 494.608 158.256 494.68V491.8C158.952 491.896 159.456 491.92 160.512 491.92H164.328C165.312 491.92 165.96 491.896 166.512 491.8C166.44 492.496 166.44 492.712 166.44 493.312C166.44 496.72 167.304 499.888 169.008 502.816C170.016 504.496 171.192 505.936 172.848 507.424C174.072 508.552 174.768 509.056 176.4 510.016C175.488 510.904 175.032 511.528 174.36 512.728C171.96 511.048 170.16 509.296 168.528 507.088C167.64 505.912 167.112 505 166.416 503.536C165.792 502.216 165.576 501.616 165.192 500.128C164.328 503.2 163.368 505.24 161.76 507.376C160.224 509.368 158.424 511.048 155.808 512.8C155.304 511.744 154.752 511.024 153.84 510.28C155.88 509.104 157.056 508.192 158.664 506.512C160.536 504.568 162 502 162.768 499.408C163.248 497.752 163.464 496.504 163.56 494.56ZM180.864 493.888H184.44C183.84 492.88 183.48 492.376 182.496 491.248L185.088 490.504C186.288 492.088 186.6 492.544 187.32 493.888H190.56C191.52 492.76 192.072 491.872 192.672 490.528L195.384 491.272C194.76 492.256 194.04 493.216 193.464 493.888H197.16C198.336 493.888 199.056 493.84 199.728 493.744V496.336C199.008 496.216 198.384 496.192 197.16 496.192H180.864C179.712 496.192 179.04 496.216 178.296 496.336V493.744C179.232 493.864 179.64 493.888 180.864 493.888ZM182.112 507.832V510.28C182.112 511.504 182.136 512.152 182.256 512.848H179.496C179.592 512.056 179.616 511.36 179.616 510.112V499.768C179.616 498.592 179.592 498.208 179.544 497.608C180.264 497.68 180.84 497.704 181.8 497.704H186.456C187.68 497.704 188.064 497.68 188.592 497.608C188.544 498.184 188.52 498.736 188.52 500.008V510.328C188.52 512.176 187.992 512.632 185.76 512.632C185.4 512.632 185.112 512.632 184.248 512.608C184.08 511.48 184.008 511.192 183.672 510.256C184.464 510.352 184.92 510.4 185.352 510.4C185.928 510.4 186.048 510.304 186.048 509.872V507.832H182.112ZM182.112 505.576H186.048V503.896H182.112V505.576ZM182.112 501.64H186.048V499.96H182.112V501.64ZM190.68 498.04H193.44C193.344 498.712 193.32 499.12 193.32 500.32V505.456C193.32 506.992 193.344 507.352 193.416 508.048H190.704C190.776 507.352 190.8 506.92 190.8 505.48V500.296C190.8 499.192 190.776 498.76 190.68 498.04ZM195.744 497.392H198.552C198.432 498.064 198.408 498.736 198.408 499.936V510.04C198.408 511.096 198.24 511.72 197.856 512.104C197.352 512.584 196.704 512.752 195.168 512.752C194.592 512.752 194.088 512.728 192.576 512.656C192.432 511.672 192.264 511.096 191.832 510.112C193.152 510.304 194.04 510.376 194.76 510.376C195.744 510.376 195.864 510.28 195.864 509.608V499.864C195.864 498.52 195.84 498.088 195.744 497.392Z" fill="black" fill-opacity="0.87"/>
<path d="M558.624 492.568H559.8C559.44 491.944 559.128 491.512 558.672 490.984L561.24 490.528C561.792 491.272 562.224 491.992 562.512 492.568H564.864C565.416 491.824 565.68 491.368 566.064 490.576L568.704 491.08C568.2 491.824 567.96 492.16 567.672 492.568H569.184C570.408 492.568 570.984 492.544 571.584 492.448V494.656C571.032 494.584 570.312 494.56 569.184 494.56H564.984C564.816 494.896 564.816 494.944 564.648 495.232H567.864C568.92 495.232 569.544 495.208 570.048 495.16C569.976 495.736 569.952 496.192 569.952 497.032V501.232C569.952 502.096 569.976 502.72 570.048 503.152C569.448 503.104 569.136 503.104 568.2 503.104H559.968C558.888 503.104 558.336 503.128 557.712 503.152C557.76 502.72 557.784 502.288 557.784 501.376V497.008C557.784 496.168 557.76 495.592 557.688 495.16C558.144 495.208 558.96 495.232 560.04 495.232H561.96C562.104 494.968 562.152 494.872 562.32 494.56H558.768C557.64 494.56 556.92 494.584 556.344 494.656V492.448C556.896 492.544 557.448 492.568 558.624 492.568ZM560.136 496.864V497.536H567.552V496.864H560.136ZM560.136 498.76V499.456H567.552V498.76H560.136ZM560.136 500.752V501.424H567.552V500.752H560.136ZM565.032 506.68V505.888C562.728 505.936 562.728 505.936 562.272 505.936C557.424 505.936 555.768 505.456 554.664 503.704C553.92 504.352 552.696 505.12 551.088 506.032L550.08 503.608C550.8 503.416 552.36 502.6 553.488 501.856V499.024H552.096C551.4 499.024 551.04 499.048 550.464 499.12V496.768C551.088 496.864 551.472 496.888 552.384 496.888H554.184C554.976 496.888 555.456 496.864 556.008 496.792C555.936 497.344 555.912 497.8 555.912 499.048V501.952C556.344 502.816 556.824 503.224 557.736 503.536C558.552 503.776 559.752 503.872 562.224 503.872C567.096 503.872 570.144 503.776 572.328 503.584C571.824 504.688 571.824 504.688 571.632 505.792C570.912 505.816 570.912 505.816 567.6 505.864V506.68H568.896C570.264 506.68 570.984 506.632 571.752 506.536V508.96C570.984 508.864 570.192 508.816 568.848 508.816H567.6V510.976C567.6 512.608 566.88 512.992 563.928 512.992C563.4 512.992 563.016 512.992 562.104 512.944C562.008 511.912 561.84 511.36 561.384 510.472C562.416 510.592 563.28 510.664 564.072 510.664C564.864 510.664 565.032 510.568 565.032 510.112V508.816H557.352C558.432 509.56 559.152 510.16 560.184 511.144L558.216 512.872C557.112 511.552 556.296 510.808 554.88 509.848L556.272 508.816H553.344C552 508.816 551.256 508.864 550.44 508.96V506.536C551.184 506.632 551.928 506.68 553.296 506.68H565.032ZM550.608 492.544L552.312 490.912C554.04 492.136 554.592 492.592 556.056 494.056L554.304 495.904C553.08 494.512 552.192 493.696 550.608 492.544ZM583.56 494.56H580.56C579.912 494.56 579.192 494.608 578.256 494.68V491.8C578.952 491.896 579.456 491.92 580.512 491.92H584.328C585.312 491.92 585.96 491.896 586.512 491.8C586.44 492.496 586.44 492.712 586.44 493.312C586.44 496.72 587.304 499.888 589.008 502.816C590.016 504.496 591.192 505.936 592.848 507.424C594.072 508.552 594.768 509.056 596.4 510.016C595.488 510.904 595.032 511.528 594.36 512.728C591.96 511.048 590.16 509.296 588.528 507.088C587.64 505.912 587.112 505 586.416 503.536C585.792 502.216 585.576 501.616 585.192 500.128C584.328 503.2 583.368 505.24 581.76 507.376C580.224 509.368 578.424 511.048 575.808 512.8C575.304 511.744 574.752 511.024 573.84 510.28C575.88 509.104 577.056 508.192 578.664 506.512C580.536 504.568 582 502 582.768 499.408C583.248 497.752 583.464 496.504 583.56 494.56ZM610.176 490.6L612.576 491.704C612.36 491.968 612.36 491.968 611.952 492.52C611.352 493.36 610.296 494.632 609.408 495.592C610.08 496.168 610.32 496.384 610.848 496.912C612.84 494.752 613.968 493.312 614.448 492.352L616.896 493.672C616.728 493.84 616.56 494.056 616.032 494.704C614.784 496.192 612.936 498.136 611.328 499.624C613.2 499.552 613.2 499.552 615.888 499.336C615.504 498.808 615.288 498.52 614.616 497.68L616.608 496.456C617.952 498.112 618.912 499.504 620.304 501.736L618.144 503.128C617.568 502.096 617.424 501.808 617.088 501.232C613.68 501.616 613.68 501.616 611.496 501.784C611.208 502.36 611.088 502.576 610.776 503.056H614.472C615.264 503.056 615.984 503.008 616.416 502.96L617.904 504.328C617.736 504.544 617.688 504.592 617.52 504.832C616.584 506.104 615.336 507.4 613.968 508.552C615.816 509.392 617.952 509.968 620.376 510.256C619.8 511.288 619.584 511.744 619.2 512.872C616.344 512.368 613.704 511.408 611.712 510.16C609.48 511.576 607.344 512.416 604.44 512.992C603.984 511.816 603.816 511.48 603.24 510.664C605.736 510.28 607.632 509.656 609.6 508.576C608.664 507.76 608.088 507.184 607.608 506.56C606.672 507.352 606.048 507.76 604.776 508.48C604.104 507.376 603.984 507.208 603.192 506.392C605.736 505.264 607.608 503.728 608.616 501.976C604.992 502.192 604.992 502.192 604.32 502.312L604.008 499.72C604.464 499.768 604.896 499.792 605.472 499.792C605.664 499.792 605.928 499.792 606.336 499.792C606.696 499.768 606.696 499.768 607.968 499.744L609.12 498.688C607.728 497.344 606.912 496.672 604.704 495.112L606.408 493.264C607.032 493.72 607.2 493.84 607.656 494.176C608.808 492.928 609.888 491.416 610.176 490.6ZM614.088 505.072H609.48C610.2 506.008 610.752 506.536 611.736 507.232C612.792 506.44 613.368 505.912 614.088 505.072ZM602.784 490.504L604.92 492.016C604.032 493.168 604.008 493.192 603.408 493.888C602.232 495.208 600.816 496.408 599.232 497.416C598.824 496.48 598.512 496 597.888 495.208C600.192 493.912 601.8 492.376 602.784 490.504ZM600.432 505.84L600.456 502.888C600 503.464 599.496 503.944 598.68 504.616C598.272 503.344 598.08 502.96 597.552 502.072C599.088 500.992 600.432 499.672 601.536 498.208C602.232 497.296 602.712 496.48 602.976 495.832L605.136 497.248C604.92 497.536 604.704 497.872 604.488 498.232C604.44 498.28 604.344 498.424 604.2 498.616C603.768 499.24 603.168 500.056 602.976 500.344V510.064C602.976 511.408 603 512.104 603.072 512.896H600.288C600.384 512.248 600.432 511.456 600.432 510.256V505.84Z" fill="black" fill-opacity="0.87"/>
</g>
<defs>
<clipPath id="clip0_248_8498">
<rect width="750" height="518" fill="white"/>
</clipPath>
</defs>
</svg>
