<svg
  xmlns="http://www.w3.org/2000/svg"
  width="122"
  height="122"
  fill="none"
  viewBox="0 0 122 122"
>
  <circle cx="61" cy="61" r="61" fill="#E1F0F8"></circle>
  <path
    fill="#20AEE5"
    d="M27.389 45.848h21.164v4.84L36.1 77h-6.204l13.112-26.4h-15.62v-4.752zM74.22 50.6H61.504l-.308 6.732a9.076 9.076 0 011.76-.308 23.005 23.005 0 011.892-.088c1.525 0 2.933.22 4.224.66 1.32.44 2.464 1.085 3.432 1.936.968.821 1.716 1.848 2.244 3.08.557 1.203.836 2.596.836 4.18 0 1.73-.308 3.285-.924 4.664-.587 1.35-1.393 2.493-2.42 3.432-1.027.939-2.23 1.657-3.608 2.156a12.836 12.836 0 01-4.4.748c-2.61 0-4.81-.601-6.6-1.804-1.79-1.232-3.095-2.904-3.916-5.016l4.796-1.76a6.265 6.265 0 002.2 2.992c1.027.733 2.244 1.1 3.652 1.1.792 0 1.54-.132 2.244-.396a5.443 5.443 0 001.848-1.144 5.112 5.112 0 001.232-1.848c.323-.763.484-1.613.484-2.552 0-1.203-.205-2.2-.616-2.992-.41-.792-.953-1.423-1.628-1.892a5.399 5.399 0 00-2.2-1.012 10.303 10.303 0 00-2.508-.308 14.678 14.678 0 00-3.828.528c-.616.147-1.232.323-1.848.528-.587.205-1.115.425-1.584.66l.528-17.028H74.22V50.6zm19.662 20.876c0-.676.121-1.3.364-1.872.26-.59.607-1.1 1.04-1.534a4.81 4.81 0 011.534-1.04 4.65 4.65 0 011.898-.39c.676 0 1.3.13 1.872.39.589.243 1.101.59 1.534 1.04.451.433.797.945 1.04 1.534.26.572.39 1.196.39 1.872a4.65 4.65 0 01-.39 1.898 4.81 4.81 0 01-1.04 1.534 5 5 0 01-1.534 1.04 4.743 4.743 0 01-1.872.364 4.935 4.935 0 01-1.898-.364 5.451 5.451 0 01-1.534-1.04 5.45 5.45 0 01-1.04-1.534 4.935 4.935 0 01-.364-1.898zm7.176 0c0-.659-.225-1.213-.676-1.664-.45-.45-1.005-.676-1.664-.676s-1.213.225-1.664.676c-.45.45-.676 1.005-.676 1.664s.225 1.213.676 1.664c.45.45 1.005.676 1.664.676s1.213-.225 1.664-.676c.451-.45.676-1.005.676-1.664zm-19.604-9.36c0-.676.121-1.3.364-1.872.26-.59.607-1.1 1.04-1.534a4.81 4.81 0 011.534-1.04 4.65 4.65 0 011.898-.39c.676 0 1.3.13 1.872.39.59.243 1.1.59 1.534 1.04.45.433.797.945 1.04 1.534.26.572.39 1.196.39 1.872a4.65 4.65 0 01-.39 1.898 4.812 4.812 0 01-1.04 1.534 5 5 0 01-1.534 1.04 4.743 4.743 0 01-1.872.364 4.935 4.935 0 01-1.898-.364 5.451 5.451 0 01-1.534-1.04 5.45 5.45 0 01-1.04-1.534 4.935 4.935 0 01-.364-1.898zm7.176 0c0-.659-.225-1.213-.676-1.664-.45-.45-1.005-.676-1.664-.676s-1.213.225-1.664.676c-.45.45-.676 1.005-.676 1.664s.225 1.213.676 1.664c.45.45 1.005.676 1.664.676s1.213-.225 1.664-.676c.45-.45.676-1.005.676-1.664zm8.19-5.356l2.158.988-10.816 19.084-2.158-.988L96.82 56.76zM46.56 24.68v5.44c-.672.064-1.216.096-1.488.096H44.8l.256 1.056c.464-.112.768-.16 1.184-.224 2.464-.336 2.464-.336 4.496-.704v.4c0 .704-.032 1.104-.096 1.488h1.104c-.08-.4-.096-.768-.096-1.488V24.68h6.112c.624 0 .976.016 1.472.096v-1.04c-.416.08-.768.096-1.488.096H46.256c-.704 0-1.072-.016-1.456-.096v1.04c.496-.08.832-.096 1.44-.096h.32zm.944 0h3.232v1.136h-3.232V24.68zm0 1.888h3.232v1.184h-3.232v-1.184zm0 1.936h3.232v1.024c-1.392.256-1.872.336-3.232.48v-1.504zm10.24-2.768c-.24.048-.624.064-1.216.064h-2.976c-.64 0-.992-.016-1.36-.064v.944c.336-.032.528-.048.784-.064.528 1.36.944 2.032 1.76 2.928-.816.672-1.472 1.04-2.752 1.568.304.288.416.432.624.816 1.264-.608 1.824-.96 2.768-1.76.864.752 1.792 1.312 3.152 1.888.176-.32.4-.656.608-.88-1.296-.448-2.224-.928-3.088-1.632.72-.72 1.2-1.392 1.968-2.752a4.9 4.9 0 01.288-.464l-.56-.592zm-.688.88c-.624 1.12-1.008 1.648-1.68 2.336-.688-.736-1.008-1.232-1.504-2.336h3.184zm.288-7.12c0-.576.016-.896.064-1.28-.544.048-.992.064-1.728.064h-7.232c-.736 0-1.2-.016-1.744-.064.048.368.064.752.064 1.28v2.176c0 .512-.016.896-.064 1.264a18.864 18.864 0 011.728-.064h7.328c.624 0 1.136.016 1.648.064a9.306 9.306 0 01-.064-1.264v-2.176zm-9.632-.4H56.4v1.12h-8.688v-1.12zm0 1.888H56.4v1.12h-8.688v-1.12zm27.472 1.648c.8 0 1.248.032 1.76.112v-1.248c-.432.08-.96.112-1.776.112H70.32c.048-.688.064-1.152.08-1.968 0-.784.032-1.136.112-1.664H69.2c.064.432.112 1.008.112 1.744 0 .624-.016 1.12-.064 1.888h-4.416c-.848 0-1.376-.032-1.792-.112v1.248c.464-.08.912-.112 1.76-.112h4.352c-.304 2.448-.976 4.144-2.224 5.584-1.04 1.2-2.208 1.984-4.208 2.8.336.352.464.528.688.976 1.568-.72 2.448-1.28 3.456-2.176 1.632-1.472 2.688-3.408 3.12-5.744 1.152 3.664 3.136 6 6.72 7.904.256-.512.384-.688.704-1.072-1.824-.784-3.168-1.76-4.336-3.12-1.216-1.424-2.064-3.104-2.608-5.152h4.72zM49.312 95.448c-.368.8-.64 1.296-1.04 1.856a5.698 5.698 0 01-.64-.864 17.498 17.498 0 001.664-2.992 3.56 3.56 0 01.256-.512l-.448-.56c-.16.032-.304.048-.752.048h-.704v-1.552c0-.432.032-.864.08-1.2H46.64c.048.32.08.688.08 1.216v1.536h-.544c-.64 0-.928-.016-1.248-.08v1.04c.368-.048.784-.08 1.296-.08h2.112c-.736 2.016-2.048 3.84-3.776 5.248.272.336.384.528.512.88a12.175 12.175 0 001.696-1.84 89.89 89.89 0 00-.048 1.584v3.424c0 .608-.032 1.216-.096 1.648h1.12c-.064-.4-.096-.992-.096-1.664v-3.696c0-.16-.016-.576-.032-1.264.56.8.944 1.216 1.696 1.92.192-.4.24-.464.528-.784a7.513 7.513 0 01-1.04-.896c.4-.528.736-1.04 1.232-1.856l-.72-.56zm1.904 5.072h2.528v2.128c0 .656-.016 1.024-.064 1.392h1.072c-.048-.384-.064-.752-.064-1.408v-2.112h2.848v2.048c0 .336-.064.4-.416.4-.432 0-.608-.016-1.424-.112.176.4.208.576.256 1.008.48.032.72.048 1.088.048.72 0 .944-.032 1.136-.208.224-.176.304-.432.304-.896v-7.2c0-.768.016-1.184.064-1.552-.368.064-.848.08-1.52.08h-2.336v-1.6h2.88c.656 0 1.056.016 1.424.064v-1.056c-.4.064-.832.096-1.408.096h-2.896v-.496c0-.624.032-1.024.096-1.472h-1.136c.064.432.096.88.096 1.456v.512h-2.72c-.592 0-.912-.016-1.296-.08v1.04c.4-.048.768-.064 1.264-.064h2.752v1.6h-2.016c-.608 0-1.104-.016-1.52-.08.048.368.064.656.064 1.52v7.04c0 .688-.032 1.168-.096 1.632h1.12c-.048-.336-.08-.88-.08-1.648v-2.08zm0-.832v-2h2.528v2h-2.528zm0-2.832v-1.872h2.528v1.872h-2.528zm3.472 2.832v-2h2.848v2h-2.848zm0-2.832v-1.872h2.848v1.872h-2.848zm3.392-6.016c-.832-.608-1.04-.736-2.016-1.232l-.656.544c.784.4 1.28.72 2.016 1.296l.656-.608zm15.072 2.528c.032-.752.048-1.392.048-2.288.016-.608.032-.848.096-1.248H72.08c.08.416.096.72.096 1.68 0 .64-.016 1.2-.032 1.856h-.928c-.736 0-1.2-.032-1.68-.096v1.152c.48-.064 1.008-.096 1.648-.096h.896c-.208 2.976-.72 4.864-1.712 6.496-.624 1.008-1.2 1.616-2.48 2.544.384.272.576.448.848.784 1.088-.896 1.552-1.376 2.144-2.24.672-.944 1.152-1.952 1.504-3.12.368-1.232.592-2.64.72-4.464h2.656c-.048 1.936-.064 2.416-.112 3.328-.096 1.76-.304 3.344-.544 4.24-.176.656-.336.784-.96.784-.56 0-1.184-.048-2.016-.176.096.384.144.672.176 1.072 1.28.08 1.28.08 1.808.08.832 0 1.2-.096 1.472-.352.272-.288.464-.784.624-1.712.304-1.664.464-3.52.544-6.24.048-1.616.048-1.744.096-2.064-.48.064-.88.08-1.52.08h-2.176zm-4.208 6.896v-7.856c0-.8.016-1.376.064-1.76a9.306 9.306 0 01-1.264.064h-2.656c-.56 0-.912-.016-1.28-.064.048.416.064.992.064 1.76v9.184c-.688.144-.912.176-1.296.208l.256 1.12c.336-.112.48-.16.816-.24 2.912-.752 3.632-.96 6.304-1.808v-.928l-1.008.32zm-4.08-1.952h3.104v2.24c-1.104.304-2.048.56-3.104.816v-3.056zm0-.88v-2.448h3.104v2.448h-3.104zm0-3.328V91.64h3.104v2.464h-3.104z"
  ></path>
</svg>