<svg width="31" height="31" viewBox="0 0 31 31" fill="none" xmlns="http://www.w3.org/2000/svg">
<circle cx="15.0167" cy="15.0102" r="15.0017" transform="rotate(-0.0571033 15.0167 15.0102)" fill="white"/>
<path fill-rule="evenodd" clip-rule="evenodd" d="M19.4187 17.6512C19.9075 18.14 19.9075 18.93 19.4187 19.4187C19.175 19.6625 18.855 19.785 18.535 19.785C18.215 19.785 17.895 19.6625 17.6512 19.4187L15 16.7675L12.3487 19.4187C12.1037 19.6625 11.785 19.785 11.465 19.785C11.145 19.785 10.825 19.6625 10.5812 19.4187C10.0925 18.93 10.0925 18.14 10.5812 17.6512L13.2325 15L10.5812 12.3475C10.0925 11.86 10.0925 11.0687 10.5812 10.58C11.0687 10.0925 11.86 10.0925 12.3487 10.58L15 13.2312L17.6512 10.58C18.14 10.0925 18.93 10.0925 19.4187 10.58C19.9075 11.0687 19.9075 11.86 19.4187 12.3475L16.7675 15L19.4187 17.6512ZM15 2.5C8.09625 2.5 2.5 8.09625 2.5 15C2.5 21.9025 8.09625 27.5 15 27.5C21.9025 27.5 27.5 21.9025 27.5 15C27.5 8.09625 21.9025 2.5 15 2.5Z" fill="#CCCCCC"/>
</svg>
