<svg width="403" height="148" viewBox="0 0 403 148" fill="none" xmlns="http://www.w3.org/2000/svg">
<rect x="1" y="1" width="401" height="146" rx="8" fill="white" stroke="#20AEE5" stroke-width="2"/>
<rect x="176" y="105" width="161" height="27" rx="4" fill="#20AEE5"/>
<rect x="176.5" y="105.5" width="160" height="25" rx="3.5" fill="white" stroke="#20AEE5"/>
<path d="M201.956 119.328L201.968 121.692C201.968 122.184 201.944 122.472 201.872 122.712C201.764 123.132 201.332 123.408 200.768 123.408C200.012 123.408 199.1 123.072 198.5 122.556C198.068 122.184 197.84 121.716 197.84 121.2C197.84 120.636 198.212 120 198.872 119.424C199.304 119.052 199.832 118.74 200.624 118.404L200.612 116.556C200.516 116.556 200.516 116.556 200.12 116.58C199.94 116.592 199.772 116.592 199.472 116.592C199.292 116.592 198.956 116.58 198.812 116.58C198.656 116.568 198.548 116.568 198.512 116.568C198.464 116.568 198.368 116.568 198.26 116.58L198.248 115.236C198.584 115.308 199.064 115.344 199.7 115.344C199.82 115.344 199.952 115.344 200.12 115.332C200.408 115.32 200.468 115.32 200.6 115.32V114.528C200.6 113.844 200.588 113.532 200.528 113.148H202.028C201.968 113.532 201.956 113.784 201.956 114.456V115.224C202.856 115.116 203.66 114.96 204.272 114.768L204.32 116.112C204.104 116.148 203.876 116.184 203.048 116.328C202.652 116.4 202.412 116.436 201.956 116.484V118.044C202.772 117.804 203.528 117.708 204.404 117.708C206.408 117.708 207.836 118.932 207.836 120.636C207.836 122.196 206.672 123.372 205.112 123.372C204.14 123.372 203.456 122.904 203.144 122.04C202.988 121.632 202.94 121.236 202.94 120.504C203.552 120.336 203.756 120.252 204.272 119.976C204.248 120.204 204.248 120.312 204.248 120.504C204.248 121.008 204.296 121.332 204.416 121.56C204.548 121.812 204.836 121.968 205.172 121.968C205.88 121.968 206.384 121.404 206.384 120.636C206.384 119.604 205.544 118.932 204.26 118.932C203.54 118.932 202.808 119.064 201.956 119.328ZM200.612 121.512V119.76C199.712 120.24 199.184 120.768 199.184 121.2C199.184 121.404 199.304 121.584 199.58 121.752C199.82 121.92 200.12 122.016 200.348 122.016C200.552 122.016 200.612 121.908 200.612 121.512ZM208.364 116.448L207.26 117.336C206.66 116.388 205.784 115.44 204.86 114.744L205.988 113.988C207.032 114.792 207.728 115.512 208.364 116.448ZM211.268 117.384V122.46C211.268 123.18 211.292 123.624 211.34 123.936H209.936C209.984 123.576 210.008 123.192 210.008 122.448V114.588C210.008 113.952 209.996 113.616 209.96 113.232C210.332 113.268 210.608 113.28 211.184 113.28H213.308C213.932 113.28 214.208 113.268 214.532 113.232C214.508 113.616 214.496 113.892 214.496 114.36V116.34C214.496 116.88 214.508 117.156 214.532 117.42C214.244 117.396 213.824 117.384 213.428 117.384H211.268ZM211.268 114.264V114.888H213.32V114.264H211.268ZM211.268 115.812V116.448H213.32V115.812H211.268ZM220.04 114.576V122.46C220.04 123.12 219.932 123.432 219.62 123.624C219.38 123.768 219.056 123.816 218.36 123.816C218.168 123.816 218.036 123.816 217.244 123.768C217.16 123.192 217.1 122.94 216.908 122.496C217.412 122.556 217.988 122.604 218.384 122.604C218.72 122.604 218.78 122.556 218.78 122.292V117.384H216.464C216.068 117.384 215.636 117.396 215.372 117.42C215.384 117.096 215.396 116.856 215.396 116.34V114.36C215.396 113.904 215.384 113.58 215.36 113.232C215.72 113.268 215.984 113.28 216.584 113.28H218.864C219.44 113.28 219.728 113.268 220.1 113.232C220.052 113.628 220.04 113.988 220.04 114.576ZM216.584 114.264V114.888H218.78V114.264H216.584ZM216.584 115.812V116.448H218.78V115.812H216.584ZM217.34 119.04V121.2C217.34 121.548 217.352 121.788 217.376 122.016C217.124 121.992 216.872 121.98 216.524 121.98H213.848V122.784H212.576C212.612 122.448 212.636 122.076 212.636 121.62V119.052C212.636 118.728 212.624 118.464 212.6 118.212C212.864 118.236 213.14 118.248 213.488 118.248H216.452C216.824 118.248 217.124 118.236 217.376 118.212C217.352 118.452 217.34 118.692 217.34 119.04ZM213.848 119.316V120.888H216.128V119.316H213.848ZM222.284 114.18H223.928C223.868 114.624 223.832 115.212 223.832 116.004C223.832 117.048 223.928 118.488 224.06 119.22C224.264 120.468 224.648 121.236 225.032 121.236C225.212 121.236 225.38 121.056 225.524 120.72C225.812 120.072 226.028 119.352 226.16 118.548C226.58 119.028 226.772 119.208 227.36 119.64C226.736 121.98 226.04 122.952 225.02 122.952C224.216 122.952 223.568 122.364 223.088 121.212C222.596 120.012 222.38 118.272 222.332 114.948C222.32 114.528 222.32 114.444 222.284 114.18ZM228.344 115.32L229.604 114.72C231.116 116.532 231.956 118.536 232.304 121.176L230.816 121.74C230.744 120.612 230.468 119.364 230.048 118.272C229.64 117.18 229.064 116.208 228.344 115.32ZM235.916 117.72V116.892C235.136 117.372 234.824 117.54 233.996 117.9C233.792 117.396 233.648 117.144 233.3 116.676C234.416 116.244 235.436 115.668 236.36 114.948C237.188 114.288 237.752 113.688 238.244 112.944H239.672C240.188 113.712 240.728 114.252 241.688 114.972C242.624 115.68 243.524 116.16 244.748 116.616C244.436 117.12 244.316 117.348 244.088 117.936C243.236 117.552 242.864 117.36 242.132 116.88V117.72C241.832 117.684 241.532 117.672 241.052 117.672H236.948C236.564 117.672 236.228 117.684 235.916 117.72ZM236.96 116.424H241.04C241.184 116.424 241.232 116.424 241.448 116.424C240.392 115.668 239.732 115.044 238.976 114.084C238.256 115.116 237.728 115.632 236.624 116.424C236.768 116.424 236.828 116.424 236.96 116.424ZM236.372 123.912H234.944C234.992 123.528 235.016 123.168 235.016 122.64V119.844C235.016 119.352 234.992 119.004 234.956 118.656C235.22 118.692 235.508 118.704 235.988 118.704H241.988C242.468 118.704 242.756 118.692 243.032 118.656C242.984 118.992 242.972 119.328 242.972 119.844V122.652C242.972 123.204 242.984 123.54 243.044 123.912H241.616V123.3H236.372V123.912ZM236.372 119.868V122.124H241.616V119.868H236.372ZM246.236 121.536L245.54 120.156C245.816 119.964 246.284 119.556 247.712 118.236C247.736 117.504 247.736 117.492 247.76 116.508C246.308 116.616 246.308 116.616 245.936 116.688L245.852 115.332C246.044 115.344 246.14 115.356 246.248 115.356C246.464 115.356 247.124 115.32 247.796 115.272C247.82 114.96 247.832 114.804 247.832 114.372C247.832 114.144 247.844 113.976 247.844 113.868C247.844 113.808 247.844 113.76 247.844 113.748C247.844 113.556 247.832 113.46 247.796 113.22L249.344 113.232C249.272 113.544 249.272 113.556 249.224 114.384C249.212 114.612 249.212 114.612 249.188 114.948C249.188 115.044 249.188 115.044 249.188 115.164C249.272 115.14 249.296 115.14 249.356 115.104L249.812 115.596C249.644 115.74 249.56 115.836 249.128 116.376C249.104 116.892 249.092 117.156 249.08 117.192L249.104 117.18C249.152 117.132 249.236 117.06 249.392 116.952C250.7 116.004 251.672 115.632 252.848 115.632C253.712 115.632 254.588 116.004 255.188 116.616C255.788 117.24 256.112 118.116 256.112 119.088C256.112 120.6 255.392 121.872 254.204 122.484C253.592 122.784 252.884 122.94 252.068 122.94C251.456 122.94 250.892 122.856 250.28 122.676C250.28 122.04 250.244 121.776 250.052 121.116C250.724 121.404 251.468 121.56 252.188 121.56C253.628 121.56 254.636 120.54 254.636 119.076C254.636 117.792 253.844 116.988 252.584 116.988C251.588 116.988 250.412 117.6 249.092 118.8L249.08 120.048C249.08 121.764 249.116 123.108 249.176 123.636H247.616C247.676 123.276 247.688 122.928 247.688 121.716V120.648C247.688 120.312 247.688 120.18 247.712 119.94H247.688C247.604 120.06 247.52 120.156 247.16 120.504C246.728 120.924 246.392 121.296 246.236 121.536ZM267.284 121.428L267.38 123.036C267.248 123.048 267.248 123.048 266.84 123.096C265.964 123.192 264.38 123.276 263.588 123.276C261.344 123.276 260.372 122.844 260.012 121.692C259.844 121.152 259.796 120.48 259.796 118.416C259.796 118.236 259.796 118.188 259.808 117.252C258.128 117.372 258.128 117.372 257.588 117.468L257.492 116.064C257.66 116.076 257.78 116.076 257.84 116.076C257.948 116.076 258.608 116.04 259.796 115.968C259.808 115.776 259.808 115.668 259.808 115.596C259.808 114.324 259.796 113.988 259.724 113.556H261.332C261.26 114 261.26 114 261.224 115.896C262.904 115.812 262.904 115.812 264.692 115.728C264.692 113.82 264.692 113.82 264.62 113.352H266.12C266.072 113.736 266.06 113.88 266.06 114.18V114.936C266.06 115.116 266.06 115.224 266.06 115.296C266.06 115.44 266.06 115.524 266.06 115.548C266.06 115.572 266.06 115.62 266.06 115.68C267.992 115.62 267.992 115.62 268.388 115.572L268.412 117C268.136 116.964 268.028 116.964 267.728 116.964C267.308 116.964 266.624 116.976 266.06 116.976C266.048 118.188 265.94 119.088 265.748 119.52C265.484 120.12 264.992 120.42 264.284 120.42C263.72 120.42 263.192 120.3 262.568 120.012C262.58 119.772 262.58 119.7 262.58 119.532C262.58 119.208 262.556 118.98 262.496 118.548C263.144 118.92 263.708 119.136 264.068 119.136C264.38 119.136 264.512 118.98 264.584 118.512C264.644 118.164 264.68 117.684 264.692 117.012C262.868 117.084 262.868 117.084 261.2 117.18C261.2 117.336 261.2 117.348 261.2 117.504C261.2 117.564 261.2 117.564 261.188 118.2C261.188 118.272 261.188 118.392 261.188 118.452C261.188 119.076 261.224 120.384 261.248 120.624C261.344 121.632 261.86 121.884 263.816 121.884C265.376 121.884 266.504 121.74 267.284 121.428ZM273.296 116.964L273.32 115.584C273.884 115.728 274.508 115.776 275.492 115.776C275.912 115.776 276.176 115.776 276.596 115.752C276.596 115.044 276.584 114.444 276.584 113.952C276.584 113.688 276.572 113.508 276.548 113.376L278.048 113.34C277.988 113.676 277.964 114.252 277.964 115.104C277.964 115.236 277.964 115.416 277.964 115.656C278.588 115.584 279.116 115.488 279.584 115.368C279.656 115.344 279.656 115.344 279.848 115.272L279.944 115.248L279.992 116.604C279.872 116.616 279.86 116.616 279.644 116.664C279.236 116.748 278.612 116.856 277.976 116.928C277.976 117.036 277.976 117.036 277.976 117.192C277.976 117.864 277.976 117.888 278.096 119.904C278.96 120.312 279.26 120.48 279.98 120.996C280.136 121.104 280.196 121.14 280.316 121.2L279.74 122.652C279.536 122.412 279.176 122.1 278.84 121.884C278.432 121.62 278.156 121.44 278.084 121.392C278.084 121.464 278.084 121.488 278.084 121.56C278.084 121.824 278.048 122.064 277.988 122.232C277.712 122.94 276.872 123.36 275.708 123.36C274.136 123.36 273.176 122.616 273.176 121.392C273.176 120.228 274.196 119.412 275.648 119.412C276.092 119.412 276.392 119.46 276.716 119.58C276.68 119.28 276.668 118.692 276.62 117.024C276.14 117.036 275.852 117.048 275.54 117.048C275.096 117.048 274.616 117.036 274.052 116.988C273.884 116.988 273.752 116.976 273.692 116.976C273.584 116.964 273.512 116.964 273.488 116.964C273.428 116.952 273.392 116.952 273.368 116.952C273.356 116.952 273.332 116.952 273.296 116.964ZM276.74 120.804C276.344 120.66 276.116 120.612 275.756 120.612C274.988 120.612 274.508 120.912 274.508 121.404C274.508 121.848 274.94 122.148 275.612 122.148C276.056 122.148 276.404 122.016 276.584 121.776C276.692 121.632 276.74 121.452 276.74 121.128C276.74 120.996 276.74 120.804 276.74 120.804ZM272.048 123.36L270.608 123.444C270.596 123.324 270.596 123.252 270.548 122.976C270.32 121.572 270.224 120.42 270.224 119.16C270.224 118.08 270.296 117.024 270.452 115.98C270.512 115.62 270.512 115.62 270.776 114.264C270.86 113.844 270.908 113.496 270.908 113.376C270.908 113.364 270.908 113.352 270.908 113.328L272.528 113.496C272.036 114.54 271.58 117.432 271.568 119.52C271.556 119.952 271.556 119.952 271.556 120.144C271.556 120.228 271.556 120.228 271.556 120.336C271.556 120.432 271.556 120.456 271.544 120.588H271.556C271.616 120.456 271.616 120.456 271.7 120.24C271.724 120.156 271.784 120.024 271.844 119.832C271.952 119.58 271.952 119.58 272.072 119.292C272.096 119.256 272.108 119.22 272.216 118.92L273.212 119.364C272.504 120.756 272.024 122.244 272.024 123.036C272.024 123.12 272.024 123.132 272.048 123.36ZM283.556 115.38L283.664 113.952C284.588 114.168 285.656 114.252 287.264 114.252C288.788 114.252 289.64 114.192 290.432 114.024L290.48 115.368C289.76 115.692 288.464 116.496 287.276 117.36L286.232 116.532C286.856 116.136 287.444 115.776 287.996 115.464C287.468 115.536 286.952 115.56 286.196 115.56C285.584 115.56 284.588 115.5 284 115.416C283.76 115.392 283.724 115.38 283.556 115.38ZM284.444 118.092L285.488 118.884C284.732 119.508 284.396 120.012 284.396 120.528C284.396 121.308 285.272 121.644 287.3 121.644C288.728 121.644 290.3 121.428 291.068 121.14L291.2 122.784C290.996 122.796 290.924 122.796 290.672 122.832C289.232 123.036 288.464 123.096 287.432 123.096C286.124 123.096 285.068 122.964 284.432 122.7C283.4 122.304 282.896 121.632 282.896 120.696C282.896 119.784 283.364 118.992 284.444 118.092ZM294.224 116.256L294.248 114.852C294.8 114.996 295.604 115.056 296.84 115.056C297.068 114.096 297.152 113.592 297.176 113.076L298.784 113.208C298.712 113.424 298.712 113.424 298.592 113.904C298.376 114.804 298.376 114.804 298.304 115.032C299.216 115.008 300.572 114.912 301.364 114.816C302.252 114.708 302.48 114.66 302.9 114.54L302.972 115.992C302.696 116.004 302.588 116.016 302.276 116.052C300.536 116.244 299.48 116.328 297.98 116.364C297.728 117.216 297.272 118.368 297.032 118.8V118.824C297.836 118.308 298.88 118.044 300.056 118.044C302.168 118.044 303.428 118.956 303.428 120.48C303.428 122.256 301.712 123.408 299.084 123.408C298.016 123.408 296.96 123.264 296.024 122.988C296.024 122.304 296.012 122.064 295.904 121.464C296.984 121.848 297.992 122.04 299 122.04C300.74 122.04 301.868 121.428 301.868 120.468C301.868 119.724 301.148 119.316 299.852 119.316C298.964 119.316 298.04 119.532 297.272 119.904C296.828 120.12 296.612 120.3 296.396 120.6L294.944 120.096C295.124 119.808 295.328 119.436 295.508 119.016C295.904 118.104 296.348 116.94 296.516 116.352C295.88 116.34 295.34 116.316 294.704 116.268C294.536 116.256 294.416 116.256 294.32 116.256C294.308 116.256 294.272 116.256 294.224 116.256ZM308.444 114.42L309.14 113.208C309.968 113.664 312.26 114.348 313.616 114.54L313.124 115.92C311.072 115.452 309.812 115.056 308.444 114.42ZM307.484 115.476L308.984 115.56C308.804 116.22 308.6 117.336 308.444 118.512C308.42 118.68 308.42 118.68 308.384 118.86L308.408 118.884C309.104 118.212 310.592 117.744 312.044 117.744C314.084 117.744 315.428 118.752 315.428 120.288C315.428 121.164 314.96 122.052 314.192 122.604C313.412 123.168 312.416 123.42 311.024 123.42C309.992 123.42 309.332 123.336 307.964 123C307.952 122.256 307.928 122.016 307.784 121.452C308.96 121.86 309.992 122.052 311.012 122.052C312.704 122.052 313.88 121.344 313.88 120.324C313.88 119.52 313.124 119.04 311.852 119.04C310.784 119.04 309.668 119.364 308.864 119.916C308.648 120.072 308.576 120.144 308.324 120.432L306.812 120.384C306.848 120.168 306.848 120.12 306.908 119.664C307.004 118.92 307.196 117.588 307.412 116.172C307.46 115.884 307.472 115.74 307.484 115.476Z" fill="#20AEE5"/>
<path d="M157.795 27.52H156.843V20.226H160.553V21.094H157.795V27.52ZM163.289 21.276H164.619C164.535 21.738 164.493 22.256 164.493 22.844V30.348C164.493 30.964 164.535 31.44 164.619 31.916H163.289C163.373 31.398 163.401 31.048 163.401 30.348V22.844C163.401 22.144 163.373 21.78 163.289 21.276ZM171.779 22.256V30.334C171.779 31.02 171.807 31.412 171.891 31.916H170.575C170.659 31.482 170.687 30.992 170.687 30.334V22.256H168.503C167.789 22.256 167.355 22.284 166.893 22.354V21.178C167.383 21.248 167.747 21.276 168.489 21.276H173.949C174.761 21.276 175.139 21.248 175.601 21.178V22.354C175.139 22.284 174.733 22.256 173.949 22.256H171.779ZM182.543 21.528H183.565C183.341 21.136 183.089 20.772 182.739 20.38L183.565 20.17C183.873 20.562 184.167 21.024 184.419 21.528H186.099C186.463 21.108 186.743 20.73 187.065 20.198L187.905 20.464C187.569 20.912 187.331 21.206 187.037 21.528H188.423C189.109 21.528 189.487 21.514 189.809 21.458V22.27C189.445 22.228 189.039 22.214 188.423 22.214H185.735C185.581 22.536 185.455 22.774 185.329 23.012H187.401C188.101 23.012 188.451 22.998 188.759 22.956C188.717 23.306 188.703 23.628 188.703 24.174V26.288C188.703 26.862 188.717 27.24 188.759 27.534C188.451 27.506 188.129 27.492 187.639 27.492H183.425C182.893 27.492 182.473 27.506 182.039 27.534C182.067 27.268 182.081 26.988 182.081 26.386V24.146C182.081 23.6 182.067 23.25 182.025 22.956C182.333 22.998 182.767 23.012 183.509 23.012H184.433C184.601 22.732 184.713 22.536 184.853 22.214H182.571C181.941 22.214 181.535 22.228 181.129 22.27V21.458C181.493 21.514 181.843 21.528 182.543 21.528ZM182.879 23.642V24.314H187.891V23.642H182.879ZM182.879 24.902V25.574H187.891V24.902H182.879ZM182.879 26.162V26.862H187.891V26.162H182.879ZM186.547 29.69V28.892C185.525 28.892 185.525 28.892 185.343 28.892C181.787 28.892 181.045 28.71 180.247 27.632C179.701 28.066 179.533 28.178 178.385 28.878C178.301 28.92 178.259 28.948 178.035 29.088L177.601 28.29C177.741 28.248 177.741 28.248 177.867 28.178C177.881 28.164 177.937 28.15 178.021 28.108C178.637 27.814 179.169 27.492 179.785 27.058V24.888H178.777C178.231 24.888 178.035 24.902 177.741 24.944V24.118C178.063 24.174 178.301 24.188 178.833 24.188H179.617C180.093 24.188 180.387 24.174 180.681 24.132C180.639 24.454 180.625 24.692 180.625 25.392V26.974C180.947 27.52 181.269 27.8 181.787 27.968C182.263 28.136 182.977 28.192 184.615 28.192C187.513 28.192 189.179 28.136 190.313 27.996C190.131 28.304 190.061 28.472 189.991 28.822C189.487 28.85 188.353 28.864 187.401 28.878V29.69H188.437C189.095 29.69 189.501 29.662 189.893 29.606V30.516C189.487 30.46 189.067 30.432 188.423 30.432H187.401V32.014C187.401 32.854 187.177 32.994 185.819 32.994C185.399 32.994 185.035 32.98 184.601 32.966C184.545 32.602 184.489 32.42 184.321 32.112C184.993 32.182 185.469 32.21 185.931 32.21C186.435 32.21 186.547 32.154 186.547 31.86V30.432H179.211C178.581 30.432 178.175 30.46 177.755 30.516V29.606C178.147 29.662 178.553 29.69 179.211 29.69H186.547ZM178.035 21.01L178.623 20.492C179.519 21.178 179.883 21.514 180.639 22.354L180.023 22.984C179.365 22.144 178.917 21.71 178.035 21.01ZM183.201 32.14L182.543 32.756C181.913 31.986 181.437 31.552 180.625 31.006L181.241 30.502C182.039 31.034 182.529 31.454 183.201 32.14ZM198.369 22.088H196.269C196.003 22.088 195.667 22.116 195.205 22.158V21.15C195.485 21.206 195.765 21.22 196.269 21.22H198.117C198.789 21.22 199.139 21.192 199.419 21.136C199.377 21.486 199.363 21.752 199.363 22.06C199.363 23.824 199.741 25.392 200.553 26.946C201.099 27.996 201.785 28.934 202.653 29.844C203.479 30.684 204.011 31.104 205.271 31.874C204.893 32.196 204.795 32.294 204.487 32.77C203.269 31.916 202.611 31.342 201.771 30.376C200.959 29.452 200.245 28.388 199.769 27.352C199.349 26.47 199.139 25.854 198.887 24.762C198.453 26.624 197.879 27.954 196.927 29.298C196.409 30.04 195.765 30.754 195.037 31.426C194.519 31.902 194.155 32.196 193.273 32.798C193.049 32.434 192.867 32.224 192.517 31.972C194.043 31.02 194.841 30.334 195.765 29.214C196.773 27.982 197.487 26.638 197.921 25.14C198.187 24.188 198.299 23.488 198.369 22.088ZM211.437 25.392L212.067 25.882C211.633 26.596 211.339 27.044 210.989 27.506C211.311 27.828 211.465 27.968 211.899 28.29C211.647 28.57 211.605 28.626 211.437 28.976C210.779 28.36 210.443 27.996 209.953 27.296C209.967 27.898 209.981 28.262 209.981 28.402V31.636C209.981 32.224 210.009 32.742 210.065 33.092H209.085C209.141 32.714 209.169 32.182 209.169 31.65V28.654C209.169 28.472 209.197 27.646 209.211 27.268C208.763 27.87 208.315 28.346 207.727 28.878C207.615 28.57 207.517 28.402 207.279 28.108C208.791 26.876 209.939 25.28 210.583 23.516H208.735C208.287 23.516 207.923 23.544 207.601 23.586V22.676C207.881 22.732 208.133 22.746 208.693 22.746H209.169V21.402C209.169 20.94 209.141 20.618 209.099 20.338H210.051C210.009 20.632 209.981 21.01 209.981 21.388V22.746H210.597C210.989 22.746 211.115 22.732 211.255 22.704L211.647 23.194C211.605 23.25 211.521 23.418 211.423 23.642C210.961 24.678 210.583 25.35 209.967 26.26C210.163 26.568 210.247 26.694 210.527 27.016C210.877 26.526 211.115 26.092 211.437 25.392ZM213.103 29.83V31.65C213.103 32.322 213.131 32.798 213.173 33.092H212.193C212.249 32.686 212.277 32.266 212.277 31.664V25.504C212.277 24.748 212.263 24.496 212.221 24.174C212.585 24.23 213.019 24.244 213.551 24.244H215.315V22.844H212.907C212.473 22.844 212.151 22.858 211.801 22.9V21.99C212.137 22.046 212.417 22.06 212.935 22.06H215.315V21.612C215.315 21.108 215.287 20.716 215.231 20.338H216.225C216.169 20.73 216.141 21.08 216.141 21.626V22.06H218.675C219.179 22.06 219.557 22.032 219.907 21.976V22.9C219.585 22.858 219.235 22.844 218.661 22.844H216.141V24.244H218.185C218.773 24.244 219.193 24.23 219.515 24.174C219.473 24.496 219.459 24.86 219.459 25.532V31.832C219.459 32.238 219.389 32.462 219.193 32.616C219.025 32.77 218.829 32.798 218.199 32.798C217.877 32.798 217.667 32.784 217.247 32.756C217.205 32.378 217.177 32.224 217.023 31.874C217.737 31.958 217.891 31.972 218.269 31.972C218.577 31.972 218.633 31.916 218.633 31.622V29.83H216.141V31.678C216.141 32.252 216.155 32.574 216.197 32.91H215.259C215.301 32.588 215.315 32.266 215.315 31.692V29.83H213.103ZM213.103 29.102H215.315V27.352H213.103V29.102ZM213.103 26.624H215.315V24.986H213.103V26.624ZM216.141 29.102H218.633V27.352H216.141V29.102ZM216.141 26.624H218.633V24.986H216.141V26.624ZM219.109 21.36L218.535 21.892C217.891 21.388 217.457 21.108 216.771 20.758L217.345 20.282C218.199 20.716 218.381 20.828 219.109 21.36ZM231.547 23.572H233.451C234.011 23.572 234.361 23.558 234.781 23.502C234.739 23.782 234.739 23.894 234.697 25.308C234.627 27.688 234.487 29.312 234.221 30.768C234.081 31.58 233.913 32.014 233.675 32.266C233.437 32.49 233.115 32.574 232.387 32.574C231.925 32.574 231.925 32.574 230.805 32.504C230.777 32.154 230.735 31.902 230.651 31.566C231.379 31.678 231.925 31.72 232.415 31.72C232.961 31.72 233.101 31.608 233.255 31.034C233.465 30.25 233.647 28.864 233.731 27.324C233.773 26.526 233.787 26.106 233.829 24.412H231.505C231.393 26.008 231.197 27.24 230.875 28.318C230.567 29.34 230.147 30.222 229.559 31.048C229.041 31.804 228.635 32.224 227.683 33.008C227.445 32.714 227.277 32.56 226.941 32.322C228.061 31.51 228.565 30.978 229.111 30.096C229.979 28.668 230.427 27.016 230.609 24.412H229.825C229.265 24.412 228.803 24.44 228.383 24.496V23.488C228.803 23.544 229.209 23.572 229.853 23.572H230.665C230.679 22.998 230.693 22.508 230.693 21.948C230.693 21.108 230.679 20.842 230.609 20.478H231.673C231.617 20.828 231.603 21.038 231.589 21.57C231.589 22.354 231.575 22.914 231.547 23.572ZM227.865 29.606L228.747 29.326V30.138C226.409 30.88 225.779 31.062 223.231 31.72C222.937 31.79 222.811 31.832 222.517 31.93L222.293 30.95C222.629 30.922 222.825 30.894 223.427 30.768V22.732C223.427 22.06 223.413 21.556 223.371 21.192C223.693 21.234 224.001 21.248 224.491 21.248H226.815C227.305 21.248 227.585 21.234 227.921 21.192C227.879 21.528 227.865 22.032 227.865 22.732V29.606ZM224.295 27.898V30.572C225.219 30.348 226.045 30.124 227.011 29.858V27.898H224.295ZM224.295 27.128H227.011V24.986H224.295V27.128ZM224.295 24.216H227.011V22.06H224.295V24.216ZM243.215 25.238H241.703C241.129 25.238 240.779 25.252 240.401 25.308V24.468C239.519 25.056 238.889 25.392 237.853 25.826C237.671 25.476 237.587 25.35 237.265 25C239.995 23.964 242.025 22.438 243.173 20.562H244.251C244.839 21.472 245.595 22.242 246.757 23.096C247.933 23.95 248.983 24.496 250.411 24.972C250.173 25.266 250.005 25.546 249.851 25.868C248.759 25.42 248.185 25.112 247.121 24.44V25.308C246.757 25.252 246.421 25.238 245.833 25.238H244.125V27.142H248.031C248.647 27.142 249.011 27.114 249.403 27.058V28.038C248.997 27.982 248.605 27.954 248.031 27.954H244.125V31.65H248.227C248.843 31.65 249.319 31.622 249.753 31.566V32.574C249.291 32.504 248.787 32.476 248.213 32.476H239.393C238.847 32.476 238.343 32.504 237.797 32.574V31.566C238.259 31.622 238.749 31.65 239.393 31.65H243.215V27.954H239.575C239.043 27.954 238.609 27.982 238.217 28.038V27.058C238.609 27.114 239.001 27.142 239.589 27.142H243.215V25.238ZM241.689 24.468H245.833C246.421 24.468 246.757 24.454 247.065 24.412C245.623 23.46 244.615 22.536 243.719 21.346C242.851 22.564 241.913 23.46 240.499 24.412C240.779 24.454 241.143 24.468 241.689 24.468ZM239.631 28.752L240.429 28.388C240.947 29.228 241.241 29.858 241.661 30.922L240.849 31.244C240.499 30.264 240.149 29.522 239.631 28.752ZM246.981 28.416L247.863 28.78C247.219 30.082 246.981 30.488 246.365 31.384L245.581 31.062C246.169 30.292 246.589 29.494 246.981 28.416ZM255.205 25.84H256.157V33.134H252.447V32.266H255.205V25.84ZM268.545 22.718C268.335 24.664 267.803 26.806 267.173 28.276C266.361 30.124 265.535 30.964 264.527 30.964C263.197 30.964 262.203 29.508 262.203 27.548C262.203 26.12 262.735 24.734 263.673 23.684C264.793 22.452 266.319 21.822 268.195 21.822C269.763 21.822 271.135 22.312 272.045 23.208C272.927 24.062 273.403 25.28 273.403 26.624C273.403 28.794 272.227 30.586 270.197 31.454C269.567 31.72 269.035 31.888 268.069 32.098C267.929 31.636 267.845 31.496 267.579 31.16C268.601 30.992 269.259 30.81 269.917 30.502C271.457 29.802 272.395 28.304 272.395 26.582C272.395 24.986 271.583 23.698 270.169 23.068C269.651 22.844 269.245 22.746 268.545 22.718ZM267.537 22.732C266.697 22.802 266.095 22.998 265.451 23.39C264.037 24.244 263.169 25.826 263.169 27.562C263.169 28.906 263.757 29.942 264.513 29.942C265.101 29.942 265.661 29.284 266.263 27.912C266.837 26.596 267.355 24.524 267.537 22.732ZM279.709 26.512L280.423 27.044C279.513 27.8 279.093 28.444 279.093 29.102C279.093 29.746 279.499 30.208 280.283 30.474C280.815 30.656 281.739 30.754 282.845 30.754C284.595 30.754 286.261 30.544 287.045 30.222L287.171 31.37C286.975 31.384 286.961 31.398 286.695 31.44C285.477 31.65 284.147 31.762 282.915 31.762C281.571 31.762 280.381 31.594 279.695 31.328C278.645 30.894 278.099 30.18 278.099 29.214C278.099 28.304 278.631 27.422 279.709 26.512ZM278.869 22.928L278.953 21.934C279.975 22.172 281.081 22.27 282.677 22.27C284.315 22.27 285.449 22.172 286.219 21.976L286.289 22.9C285.435 23.264 283.965 24.146 282.761 25.028L282.047 24.454C283.181 23.698 283.517 23.502 284.525 22.97C283.685 23.11 283.209 23.152 282.411 23.152C281.431 23.152 280.241 23.082 279.331 22.97C279.065 22.942 279.065 22.942 278.869 22.928ZM285.239 24.72L285.939 24.356C286.555 25.112 286.947 25.7 287.367 26.526L286.667 26.946C286.317 26.204 285.645 25.154 285.239 24.72ZM286.793 23.908L287.465 23.53C288.109 24.3 288.459 24.832 288.921 25.714L288.221 26.106C287.913 25.448 287.325 24.552 286.793 23.908ZM298.979 24.58V22.312C297.775 22.508 296.837 22.606 295.773 22.662C295.689 22.34 295.619 22.158 295.409 21.808C297.355 21.78 299.371 21.514 301.331 21.01C302.115 20.814 302.521 20.674 302.941 20.45L303.585 21.29C303.431 21.332 303.431 21.332 303.123 21.416C302.311 21.654 301.219 21.906 299.875 22.158V24.58H302.605C303.221 24.58 303.655 24.552 304.033 24.496V25.49C303.627 25.434 303.179 25.406 302.605 25.406H299.875V27.786H302.115C302.619 27.786 302.955 27.772 303.193 27.73C303.151 28.01 303.137 28.388 303.137 29.004V31.664C303.137 32.224 303.165 32.728 303.207 33.022H302.255V32.224H296.837V33.022H295.885C295.941 32.644 295.955 32.238 295.955 31.65V28.962C295.955 28.486 295.941 28.08 295.899 27.73C296.179 27.772 296.473 27.786 296.921 27.786H298.979V25.406H296.319C295.787 25.406 295.297 25.434 294.905 25.49V24.496C295.269 24.552 295.717 24.58 296.319 24.58H298.979ZM296.837 28.584V31.398H302.255V28.584H296.837ZM291.937 21.192L292.511 20.548C293.589 21.262 294.163 21.71 294.919 22.41L294.373 23.152C293.603 22.396 293.043 21.934 291.937 21.192ZM291.405 24.762L291.895 24.076C293.001 24.622 293.477 24.916 294.471 25.686L293.981 26.498C293.057 25.7 292.427 25.28 291.405 24.762ZM293.897 28.038L294.611 28.598C293.897 30.18 293.435 31.006 292.287 32.77L291.489 32.042C291.643 31.902 291.755 31.776 291.923 31.566C292.707 30.558 293.225 29.634 293.897 28.038ZM313.307 28.388V31.034C313.307 31.776 313.321 32.224 313.377 32.56H312.369C312.425 32.196 312.439 31.776 312.439 31.034V28.388H308.603C308.393 30.502 308.029 31.65 307.091 32.98C306.783 32.686 306.643 32.588 306.279 32.378C306.881 31.594 307.189 30.964 307.413 30.012C307.721 28.724 307.847 26.68 307.847 23.222C307.847 21.808 307.847 21.542 307.791 20.94C308.211 20.982 308.631 20.996 309.331 20.996H316.863C317.563 20.996 317.941 20.982 318.347 20.94C318.305 21.318 318.291 21.682 318.291 22.312V31.706C318.291 32.588 317.969 32.798 316.611 32.798C316.163 32.798 315.463 32.77 314.875 32.728C314.847 32.406 314.791 32.168 314.665 31.818C315.477 31.916 316.163 31.972 316.667 31.972C317.283 31.972 317.409 31.902 317.409 31.552V28.388H313.307ZM313.307 24.286H317.409V21.836H313.307V24.286ZM312.439 24.286V21.836H308.757V23.502L308.743 24.286H312.439ZM313.307 25.084V27.576H317.409V25.084H313.307ZM312.439 25.084H308.729C308.715 25.476 308.715 25.812 308.715 26.008C308.701 26.876 308.701 26.932 308.659 27.576H312.439V25.084ZM323.505 21.08L324.611 21.248C324.401 21.85 324.233 22.536 324.023 23.488C323.729 24.958 323.603 26.19 323.603 27.87C323.603 28.962 323.631 29.788 323.687 30.53C323.883 29.592 324.149 28.822 324.597 27.8L325.269 28.122C324.639 29.508 324.135 31.188 324.135 31.972C324.135 32.014 324.135 32.084 324.135 32.182L323.127 32.266C323.099 32.042 323.085 31.972 323.043 31.706C322.777 30.222 322.679 29.214 322.679 27.744C322.679 25.756 322.847 24.272 323.309 22.2C323.449 21.542 323.477 21.402 323.505 21.08ZM326.389 23.726L326.403 22.732C327.005 22.886 327.691 22.942 328.783 22.942C330.337 22.942 331.597 22.816 332.535 22.564L332.605 23.558C332.577 23.558 332.255 23.6 331.639 23.684C330.827 23.796 329.707 23.866 328.629 23.866C327.845 23.866 327.299 23.824 326.389 23.726ZM327.411 26.456L328.181 26.876C327.481 27.646 327.131 28.318 327.131 28.934C327.131 29.97 328.013 30.474 329.819 30.474C331.093 30.474 332.283 30.292 333.039 29.984L333.179 31.062C332.997 31.076 332.969 31.09 332.689 31.132C331.709 31.328 330.771 31.412 329.819 31.412C328.223 31.412 327.215 31.076 326.613 30.348C326.333 29.998 326.193 29.578 326.193 29.06C326.193 28.206 326.543 27.45 327.411 26.456ZM342.061 20.716H343.181C343.111 21.066 343.097 21.472 343.097 22.564C343.097 22.872 343.097 23.026 343.125 24.02C344.665 24.02 346.457 23.796 347.227 23.488L347.353 24.524C347.115 24.538 347.115 24.538 346.513 24.622C345.253 24.818 344.301 24.902 343.139 24.93C343.181 26.288 343.251 27.646 343.321 28.542C344.455 28.864 345.603 29.48 347.059 30.53C347.353 30.74 347.353 30.754 347.703 30.964L347.045 31.944C346.751 31.58 346.345 31.23 345.589 30.726C344.945 30.292 344.175 29.858 343.699 29.648C343.503 29.564 343.489 29.564 343.363 29.494C343.391 29.648 343.419 29.914 343.419 30.096C343.419 30.684 343.293 31.202 343.069 31.51C342.635 32.126 341.739 32.476 340.577 32.476C338.771 32.476 337.665 31.692 337.665 30.404C337.665 29.06 338.967 28.192 340.955 28.192C341.375 28.192 341.879 28.248 342.173 28.318C342.243 28.332 342.243 28.346 342.299 28.346C342.327 28.346 342.327 28.346 342.369 28.374C342.369 28.318 342.369 28.304 342.355 28.248C342.355 28.234 342.355 28.206 342.355 28.164C342.243 26.554 342.145 23.852 342.131 21.85C342.117 21.164 342.117 21.052 342.061 20.716ZM342.383 29.27C341.809 29.116 341.487 29.074 340.941 29.074C339.513 29.074 338.645 29.578 338.645 30.39C338.645 30.614 338.729 30.852 338.855 30.992C339.149 31.342 339.793 31.552 340.535 31.552C341.207 31.552 341.753 31.384 342.089 31.09C342.327 30.866 342.425 30.572 342.425 30.04C342.425 29.83 342.397 29.27 342.383 29.27ZM354.513 20.66L355.605 20.772C355.493 21.066 355.409 21.458 355.283 22.214C355.059 23.628 354.863 25.154 354.821 25.868L354.877 25.882C354.905 25.77 354.905 25.77 354.975 25.476C355.143 24.706 355.423 24.02 355.829 23.39C356.613 22.186 357.537 21.584 358.629 21.584C359.539 21.584 360.323 22.018 360.869 22.83C361.457 23.698 361.709 24.734 361.709 26.232C361.709 28.766 360.575 30.684 358.475 31.734C357.803 32.07 356.963 32.35 355.983 32.56C355.815 32.14 355.731 31.986 355.423 31.608C356.725 31.412 357.453 31.188 358.265 30.726C359.903 29.788 360.673 28.318 360.673 26.078C360.673 23.824 359.889 22.522 358.545 22.522C357.481 22.522 356.585 23.32 355.787 24.958C355.297 25.98 355.031 27.058 355.031 28.08C355.031 28.136 355.031 28.206 355.045 28.416L354.037 28.458C354.037 28.388 354.037 28.332 354.037 28.304L354.023 28.052L353.995 26.596C353.995 26.47 353.995 26.344 353.995 26.274C353.995 24.902 354.121 23.586 354.471 21.108C354.499 20.898 354.513 20.828 354.513 20.66ZM156.787 48.43H150.291C150.165 49.242 149.983 49.942 149.717 50.6C149.353 51.524 148.961 52.14 148.177 53.036C147.925 52.714 147.729 52.518 147.407 52.294C148.275 51.426 148.723 50.684 149.059 49.55C149.451 48.22 149.605 46.498 149.605 43.39C149.605 42.102 149.591 41.542 149.549 41.01C150.053 41.066 150.417 41.08 151.019 41.08H156.283C156.899 41.08 157.263 41.066 157.739 41.01C157.697 41.388 157.683 41.738 157.683 42.452V51.664C157.683 52.168 157.557 52.462 157.291 52.644C157.067 52.784 156.801 52.826 156.171 52.826C155.709 52.826 155.121 52.812 154.491 52.77C154.449 52.406 154.393 52.182 154.267 51.818C154.967 51.916 155.597 51.958 156.269 51.958C156.675 51.958 156.787 51.874 156.787 51.524V48.43ZM150.389 47.59H156.787V45.098H150.543C150.529 45.868 150.501 46.4 150.389 47.59ZM150.543 44.258H156.787V41.934H150.557L150.543 43.922V44.258ZM163.233 51.65V49.536C163.233 49.242 163.219 48.962 163.205 48.654C162.925 48.822 162.757 48.92 162.281 49.158C162.155 48.85 162.029 48.654 161.805 48.444C162.995 47.94 164.003 47.324 164.829 46.568C164.395 46.176 164.115 45.854 163.751 45.364C163.401 45.784 163.009 46.176 162.519 46.582C162.351 46.33 162.183 46.148 161.973 45.98C162.897 45.294 163.415 44.706 163.975 43.768C164.241 43.334 164.367 43.04 164.451 42.704L165.263 42.942C165.193 43.054 165.193 43.054 165.025 43.376C164.955 43.516 164.913 43.586 164.829 43.74H166.313C166.649 43.74 166.915 43.712 167.125 43.67L167.601 44.16C167.475 44.328 167.475 44.328 167.279 44.65C166.733 45.532 166.439 45.938 165.907 46.526C166.635 47.058 167.293 47.422 168.413 47.87C168.245 48.108 168.147 48.29 168.035 48.64C166.943 48.136 166.201 47.688 165.389 47.044C164.843 47.548 164.423 47.884 163.625 48.402C163.835 48.416 163.947 48.416 164.227 48.416H166.397C166.901 48.416 167.139 48.402 167.391 48.36C167.349 48.668 167.335 49.018 167.335 49.592V50.838C167.335 51.776 167.335 51.776 167.363 52.07C167.223 52.056 166.887 52.056 166.327 52.042H164.045V52.924H163.177C163.205 52.63 163.233 52.196 163.233 51.65ZM166.537 44.44H164.409C164.339 44.566 164.297 44.608 164.185 44.79C164.619 45.392 164.843 45.63 165.333 46.064C165.851 45.518 166.131 45.14 166.537 44.44ZM164.045 49.13V51.314H166.537V49.13H164.045ZM164.871 41.808V41.36C164.871 40.954 164.843 40.716 164.787 40.422H165.809C165.739 40.716 165.725 40.94 165.725 41.374V41.808H167.125C167.769 41.808 168.035 41.794 168.259 41.766C168.231 42.004 168.217 42.228 168.217 42.606V43.068C168.217 43.362 168.231 43.712 168.259 43.866H167.461V42.536H163.093V44.048H162.239C162.281 43.796 162.295 43.558 162.295 43.25V42.634C162.295 42.354 162.281 42.102 162.239 41.766C162.449 41.794 162.743 41.808 163.387 41.808H164.871ZM171.087 41.626H169.547C168.903 41.626 168.525 41.654 168.175 41.71V40.758C168.567 40.828 168.847 40.842 169.547 40.842H173.299C173.985 40.842 174.363 40.814 174.671 40.758V41.71C174.237 41.64 173.957 41.626 173.299 41.626H171.955C171.787 42.2 171.647 42.606 171.409 43.152H172.809C173.453 43.152 173.803 43.138 174.069 43.096C174.041 43.488 174.027 43.81 174.027 44.37V49.004C174.027 49.578 174.041 49.914 174.069 50.348C173.649 50.32 173.299 50.306 172.865 50.306H169.813C169.393 50.306 169.043 50.32 168.609 50.348C168.637 49.928 168.651 49.536 168.651 49.074V44.426C168.651 43.852 168.637 43.418 168.595 43.11C168.931 43.138 169.225 43.152 169.813 43.152H170.569C170.793 42.592 170.947 42.144 171.087 41.626ZM169.463 43.908V45.252H173.201V43.908H169.463ZM169.463 45.994V47.38H173.201V45.994H169.463ZM169.463 48.122V49.564H173.201V48.122H169.463ZM171.675 51.048L172.319 50.53C173.201 51.356 173.803 51.762 175.063 52.35C174.825 52.602 174.643 52.84 174.489 53.134C173.257 52.476 172.571 51.958 171.675 51.048ZM170.037 50.516L170.723 51.048C169.785 52 169.057 52.518 167.797 53.134C167.643 52.854 167.447 52.644 167.209 52.42C168.469 51.902 169.169 51.426 170.037 50.516ZM180.151 44.258V42.312C179.283 42.522 178.849 42.62 177.813 42.802C177.701 42.48 177.603 42.284 177.407 42.004C179.129 41.78 180.249 41.514 181.845 40.94C182.349 40.772 182.517 40.688 182.755 40.534L183.385 41.276C183.161 41.36 183.161 41.36 182.825 41.472C182.181 41.71 181.691 41.878 180.991 42.074V44.258H182.363C182.853 44.258 183.217 44.244 183.581 44.188V45.112C183.231 45.056 182.895 45.042 182.335 45.042H181.019C181.257 45.63 181.369 45.826 181.691 46.274C182.125 46.904 182.573 47.38 183.427 48.136C183.189 48.402 183.063 48.584 182.909 48.892C181.873 47.814 181.467 47.24 180.921 46.12C180.963 46.904 180.991 47.856 180.991 48.486V51.398C180.991 52.252 181.005 52.7 181.075 53.106H180.039C180.109 52.616 180.137 52.154 180.137 51.398V48.668C180.137 47.884 180.151 47.492 180.207 46.288C179.549 48.052 178.863 49.172 177.603 50.53C177.407 50.166 177.253 49.956 177.029 49.732C177.869 48.948 178.387 48.304 178.933 47.38C179.381 46.61 179.787 45.728 180.011 45.042H178.681C178.121 45.042 177.743 45.07 177.365 45.126V44.174C177.687 44.244 178.023 44.258 178.695 44.258H180.151ZM184.561 41.374H185.611C185.555 41.822 185.541 42.158 185.541 42.97V48.374C185.541 49.326 185.555 49.606 185.611 49.998H184.575C184.631 49.606 184.645 49.312 184.645 48.374V42.97C184.645 42.186 184.617 41.808 184.561 41.374ZM187.991 40.59H189.083C189.013 41.052 188.985 41.57 188.985 42.354V51.552C188.985 52.546 188.649 52.784 187.319 52.784C186.927 52.784 186.339 52.77 185.891 52.742C185.821 52.378 185.751 52.168 185.597 51.818C186.339 51.902 186.941 51.944 187.403 51.944C187.963 51.944 188.075 51.874 188.075 51.524V42.354C188.075 41.556 188.047 41.038 187.991 40.59ZM198.917 48.388V51.034C198.917 51.776 198.931 52.224 198.987 52.56H197.979C198.035 52.196 198.049 51.776 198.049 51.034V48.388H194.213C194.003 50.502 193.639 51.65 192.701 52.98C192.393 52.686 192.253 52.588 191.889 52.378C192.491 51.594 192.799 50.964 193.023 50.012C193.331 48.724 193.457 46.68 193.457 43.222C193.457 41.808 193.457 41.542 193.401 40.94C193.821 40.982 194.241 40.996 194.941 40.996H202.473C203.173 40.996 203.551 40.982 203.957 40.94C203.915 41.318 203.901 41.682 203.901 42.312V51.706C203.901 52.588 203.579 52.798 202.221 52.798C201.773 52.798 201.073 52.77 200.485 52.728C200.457 52.406 200.401 52.168 200.275 51.818C201.087 51.916 201.773 51.972 202.277 51.972C202.893 51.972 203.019 51.902 203.019 51.552V48.388H198.917ZM198.917 44.286H203.019V41.836H198.917V44.286ZM198.049 44.286V41.836H194.367V43.502L194.353 44.286H198.049ZM198.917 45.084V47.576H203.019V45.084H198.917ZM198.049 45.084H194.339C194.325 45.476 194.325 45.812 194.325 46.008C194.311 46.876 194.311 46.932 194.269 47.576H198.049V45.084ZM217.389 48.542V41.892C217.389 41.15 217.361 40.772 217.305 40.422H218.369C218.313 40.842 218.285 41.22 218.285 41.878V48.318L218.495 48.276C219.125 48.122 219.475 48.01 219.783 47.884L219.951 48.864C219.601 48.892 219.153 48.976 218.607 49.102L218.285 49.186V51.524C218.285 52.196 218.313 52.644 218.369 53.05H217.305C217.375 52.672 217.389 52.308 217.389 51.51V49.396L213.707 50.292C213.147 50.418 212.741 50.544 212.405 50.67L212.223 49.676C212.573 49.662 213.035 49.578 213.567 49.452L217.389 48.542ZM209.619 45.98H208.681C208.093 45.98 207.799 45.994 207.463 46.05V45.14C207.743 45.196 208.065 45.21 208.681 45.21H209.787V41.906C209.787 41.22 209.759 40.772 209.703 40.408H210.725C210.669 40.758 210.641 41.178 210.641 41.892V45.21H211.481C211.957 45.21 212.237 45.196 212.517 45.154V46.036C212.223 45.994 211.901 45.98 211.467 45.98H210.697C211.299 47.114 211.845 47.814 212.699 48.57C212.503 48.822 212.321 49.102 212.209 49.326C211.369 48.374 210.977 47.8 210.571 46.862C210.599 47.422 210.641 48.668 210.641 48.934V51.552C210.641 52.224 210.669 52.644 210.725 53.092H209.703C209.759 52.616 209.787 52.182 209.787 51.538V49.158C209.787 48.514 209.815 47.73 209.857 46.988C209.269 48.766 208.653 49.914 207.701 50.992C207.505 50.614 207.393 50.446 207.169 50.208C207.869 49.494 208.331 48.836 208.835 47.856C209.185 47.17 209.325 46.848 209.619 45.98ZM207.533 41.612L208.261 41.29C208.737 42.48 208.933 43.096 209.199 44.286L208.457 44.608C208.205 43.334 207.967 42.578 207.533 41.612ZM212.055 41.248L212.853 41.556C212.237 43.516 212.237 43.53 211.719 44.608L211.033 44.286C211.551 43.264 211.761 42.634 212.055 41.248ZM213.469 42.088L214.071 41.444C215.289 42.326 215.751 42.732 216.591 43.628L216.017 44.356C215.079 43.306 214.603 42.872 213.469 42.088ZM213.035 45.588L213.651 44.944C214.827 45.756 215.429 46.26 216.157 47.072L215.569 47.772C214.715 46.792 214.155 46.316 213.035 45.588ZM229.155 42.718C228.945 44.664 228.413 46.806 227.783 48.276C226.971 50.124 226.145 50.964 225.137 50.964C223.807 50.964 222.813 49.508 222.813 47.548C222.813 46.12 223.345 44.734 224.283 43.684C225.403 42.452 226.929 41.822 228.805 41.822C230.373 41.822 231.745 42.312 232.655 43.208C233.537 44.062 234.013 45.28 234.013 46.624C234.013 48.794 232.837 50.586 230.807 51.454C230.177 51.72 229.645 51.888 228.679 52.098C228.539 51.636 228.455 51.496 228.189 51.16C229.211 50.992 229.869 50.81 230.527 50.502C232.067 49.802 233.005 48.304 233.005 46.582C233.005 44.986 232.193 43.698 230.779 43.068C230.261 42.844 229.855 42.746 229.155 42.718ZM228.147 42.732C227.307 42.802 226.705 42.998 226.061 43.39C224.647 44.244 223.779 45.826 223.779 47.562C223.779 48.906 224.367 49.942 225.123 49.942C225.711 49.942 226.271 49.284 226.873 47.912C227.447 46.596 227.965 44.524 228.147 42.732ZM238.639 46.47H238.359C237.827 46.47 237.533 46.484 237.099 46.554V45.644C237.435 45.714 237.757 45.728 238.373 45.728H248.425C249.055 45.728 249.363 45.714 249.727 45.644V46.554C249.293 46.484 248.985 46.47 248.439 46.47H243.091V51.776C243.091 52.406 243.105 52.728 243.175 53.078H242.209C242.265 52.742 242.293 52.392 242.293 51.776V51.426C240.515 51.748 240.515 51.748 238.359 52.042C237.995 52.098 237.729 52.14 237.323 52.238L237.099 51.314C237.309 51.314 237.309 51.314 237.337 51.314C237.575 51.314 238.051 51.286 238.639 51.23V46.47ZM239.465 46.47V47.464H242.293V46.47H239.465ZM239.465 48.122V49.158H242.293V48.122H239.465ZM239.465 49.816V51.132C240.655 51.006 241.075 50.936 242.293 50.712V49.816H239.465ZM248.425 47.394L248.915 47.912C248.817 48.052 248.775 48.122 248.663 48.318C247.991 49.508 247.571 50.096 246.941 50.726C247.697 51.342 248.509 51.762 249.643 52.154C249.461 52.35 249.265 52.644 249.111 52.924C247.921 52.42 247.109 51.93 246.353 51.272C245.527 51.972 245.037 52.28 243.931 52.812C243.749 52.476 243.651 52.35 243.385 52.098C244.505 51.636 245.079 51.314 245.793 50.726C245.079 49.942 244.715 49.354 244.253 48.164C244.029 48.178 243.861 48.192 243.567 48.22V47.394C243.889 47.436 244.197 47.45 244.757 47.45H247.361C247.879 47.45 248.215 47.436 248.425 47.394ZM247.823 48.164H245.037C245.471 49.13 245.751 49.564 246.353 50.208C246.941 49.606 247.277 49.144 247.823 48.164ZM248.075 41.934V43.838C248.075 44.342 248.089 44.594 248.131 44.944C247.683 44.902 247.235 44.888 246.689 44.888H240.277C239.661 44.888 239.269 44.902 238.765 44.944C238.807 44.622 238.821 44.286 238.821 43.838V41.934C238.821 41.472 238.807 41.136 238.765 40.814C239.241 40.856 239.647 40.87 240.291 40.87H246.619C247.263 40.87 247.655 40.856 248.131 40.814C248.089 41.15 248.075 41.43 248.075 41.934ZM239.647 41.584V42.564H247.249V41.584H239.647ZM239.647 43.236V44.216H247.249V43.236H239.647ZM262.935 44.678H258.805C259.281 46.47 260.023 47.94 261.087 49.186C262.109 50.376 263.285 51.23 264.881 51.916C264.601 52.252 264.489 52.406 264.265 52.854C261.129 51.188 259.393 49.144 258.385 45.938C258.007 47.982 257.083 49.676 255.655 50.964C254.773 51.748 254.003 52.238 252.631 52.868C252.435 52.476 252.323 52.322 252.029 52.014C253.779 51.3 254.801 50.614 255.711 49.564C256.803 48.304 257.391 46.82 257.657 44.678H253.849C253.107 44.678 252.715 44.706 252.309 44.776V43.684C252.673 43.754 253.135 43.782 253.877 43.782H257.741C257.783 43.11 257.797 42.676 257.797 42.13C257.797 41.486 257.755 40.982 257.699 40.604H258.847C258.777 41.066 258.749 41.374 258.749 42.06C258.735 42.774 258.721 43.18 258.679 43.782H262.921C263.635 43.782 264.097 43.754 264.475 43.684V44.776C264.027 44.706 263.635 44.678 262.935 44.678ZM273.021 51.916H268.765C267.883 51.916 267.673 51.93 267.225 51.986C267.379 50.88 267.421 50.67 267.631 50.138C267.981 49.256 268.569 48.486 269.451 47.73C269.941 47.31 269.969 47.296 271.593 46.19C272.979 45.252 273.441 44.636 273.441 43.782C273.441 42.718 272.545 42.032 271.117 42.032C270.193 42.032 269.507 42.34 269.087 42.942C268.821 43.32 268.695 43.656 268.597 44.356L267.421 44.16C267.631 43.152 267.841 42.662 268.303 42.144C268.933 41.43 269.885 41.066 271.117 41.066C273.231 41.066 274.589 42.13 274.589 43.782C274.589 44.496 274.309 45.168 273.763 45.77C273.343 46.246 272.979 46.512 271.383 47.576C270.277 48.318 269.829 48.71 269.367 49.298C268.933 49.872 268.737 50.25 268.569 50.922H273.035C273.735 50.922 274.211 50.894 274.743 50.824V52C274.183 51.944 273.721 51.916 273.021 51.916ZM279.849 48.626V45.868C279.849 45.56 279.835 45.322 279.807 45.042C280.101 45.07 280.409 45.084 280.801 45.084H283.839V42.802H280.549C279.835 43.992 279.163 44.818 278.225 45.658C278.001 45.336 277.861 45.196 277.553 44.986C278.939 43.81 279.695 42.788 280.353 41.22C280.535 40.814 280.633 40.492 280.703 40.198L281.697 40.478C281.641 40.59 281.599 40.688 281.515 40.856L280.983 41.99H287.927C288.543 41.99 288.837 41.976 289.187 41.92V42.872C288.837 42.816 288.501 42.802 287.927 42.802H284.763V45.084H287.297C287.871 45.084 288.179 45.07 288.543 45.014V45.938C288.179 45.896 287.843 45.882 287.311 45.882H284.763V48.626H288.291C288.921 48.626 289.313 48.598 289.705 48.542V49.55C289.299 49.494 288.865 49.466 288.291 49.466H284.763V51.776C284.763 52.378 284.791 52.714 284.861 53.078H283.755C283.825 52.728 283.839 52.42 283.839 51.776V49.466H278.785C278.211 49.466 277.777 49.494 277.371 49.55V48.542C277.777 48.598 278.169 48.626 278.785 48.626H279.849ZM280.759 48.626H283.839V45.882H280.759V48.626ZM297.089 46.232H296.207C295.675 46.232 295.199 46.26 294.765 46.316V45.322C295.171 45.378 295.647 45.406 296.221 45.406H300.827C301.471 45.406 301.891 45.392 302.297 45.336C302.255 45.588 302.255 45.7 302.241 46.33C302.241 49.046 301.975 51.412 301.611 52.07C301.373 52.49 301.037 52.63 300.225 52.63C299.763 52.63 299.273 52.602 298.391 52.518C298.349 52.14 298.307 51.93 298.167 51.524C298.937 51.678 299.637 51.762 300.141 51.762C300.589 51.762 300.743 51.678 300.841 51.412C301.135 50.558 301.303 48.654 301.303 46.232H298.041C297.915 47.772 297.593 48.822 296.949 49.914C296.221 51.132 295.129 52.084 293.421 52.966C293.239 52.644 293.099 52.462 292.805 52.182C294.597 51.314 295.661 50.39 296.333 49.116C296.795 48.234 296.991 47.464 297.089 46.232ZM296.515 40.422L297.565 40.786C297.439 40.954 297.383 41.066 297.173 41.5C296.095 43.67 294.737 45.294 292.763 46.75C292.581 46.47 292.399 46.26 292.077 45.994C293.771 44.86 294.975 43.572 295.913 41.892C296.263 41.276 296.445 40.842 296.515 40.422ZM299.623 40.814L300.561 40.45C300.673 40.814 300.799 41.094 301.093 41.626C302.115 43.46 303.305 44.72 305.223 45.98C304.957 46.232 304.775 46.47 304.565 46.834C302.353 45.196 301.163 43.782 299.847 41.206C299.777 41.08 299.693 40.926 299.623 40.814ZM314.357 42.718C314.147 44.664 313.615 46.806 312.985 48.276C312.173 50.124 311.347 50.964 310.339 50.964C309.009 50.964 308.015 49.508 308.015 47.548C308.015 46.12 308.547 44.734 309.485 43.684C310.605 42.452 312.131 41.822 314.007 41.822C315.575 41.822 316.947 42.312 317.857 43.208C318.739 44.062 319.215 45.28 319.215 46.624C319.215 48.794 318.039 50.586 316.009 51.454C315.379 51.72 314.847 51.888 313.881 52.098C313.741 51.636 313.657 51.496 313.391 51.16C314.413 50.992 315.071 50.81 315.729 50.502C317.269 49.802 318.207 48.304 318.207 46.582C318.207 44.986 317.395 43.698 315.981 43.068C315.463 42.844 315.057 42.746 314.357 42.718ZM313.349 42.732C312.509 42.802 311.907 42.998 311.263 43.39C309.849 44.244 308.981 45.826 308.981 47.562C308.981 48.906 309.569 49.942 310.325 49.942C310.913 49.942 311.473 49.284 312.075 47.912C312.649 46.596 313.167 44.524 313.349 42.732ZM326.249 45.392L326.879 45.882C326.445 46.596 326.151 47.044 325.801 47.506C326.123 47.828 326.277 47.968 326.711 48.29C326.459 48.57 326.417 48.626 326.249 48.976C325.591 48.36 325.255 47.996 324.765 47.296C324.779 47.898 324.793 48.262 324.793 48.402V51.636C324.793 52.224 324.821 52.742 324.877 53.092H323.897C323.953 52.714 323.981 52.182 323.981 51.65V48.654C323.981 48.472 324.009 47.646 324.023 47.268C323.575 47.87 323.127 48.346 322.539 48.878C322.427 48.57 322.329 48.402 322.091 48.108C323.603 46.876 324.751 45.28 325.395 43.516H323.547C323.099 43.516 322.735 43.544 322.413 43.586V42.676C322.693 42.732 322.945 42.746 323.505 42.746H323.981V41.402C323.981 40.94 323.953 40.618 323.911 40.338H324.863C324.821 40.632 324.793 41.01 324.793 41.388V42.746H325.409C325.801 42.746 325.927 42.732 326.067 42.704L326.459 43.194C326.417 43.25 326.333 43.418 326.235 43.642C325.773 44.678 325.395 45.35 324.779 46.26C324.975 46.568 325.059 46.694 325.339 47.016C325.689 46.526 325.927 46.092 326.249 45.392ZM327.915 49.83V51.65C327.915 52.322 327.943 52.798 327.985 53.092H327.005C327.061 52.686 327.089 52.266 327.089 51.664V45.504C327.089 44.748 327.075 44.496 327.033 44.174C327.397 44.23 327.831 44.244 328.363 44.244H330.127V42.844H327.719C327.285 42.844 326.963 42.858 326.613 42.9V41.99C326.949 42.046 327.229 42.06 327.747 42.06H330.127V41.612C330.127 41.108 330.099 40.716 330.043 40.338H331.037C330.981 40.73 330.953 41.08 330.953 41.626V42.06H333.487C333.991 42.06 334.369 42.032 334.719 41.976V42.9C334.397 42.858 334.047 42.844 333.473 42.844H330.953V44.244H332.997C333.585 44.244 334.005 44.23 334.327 44.174C334.285 44.496 334.271 44.86 334.271 45.532V51.832C334.271 52.238 334.201 52.462 334.005 52.616C333.837 52.77 333.641 52.798 333.011 52.798C332.689 52.798 332.479 52.784 332.059 52.756C332.017 52.378 331.989 52.224 331.835 51.874C332.549 51.958 332.703 51.972 333.081 51.972C333.389 51.972 333.445 51.916 333.445 51.622V49.83H330.953V51.678C330.953 52.252 330.967 52.574 331.009 52.91H330.071C330.113 52.588 330.127 52.266 330.127 51.692V49.83H327.915ZM327.915 49.102H330.127V47.352H327.915V49.102ZM327.915 46.624H330.127V44.986H327.915V46.624ZM330.953 49.102H333.445V47.352H330.953V49.102ZM330.953 46.624H333.445V44.986H330.953V46.624ZM333.921 41.36L333.347 41.892C332.703 41.388 332.269 41.108 331.583 40.758L332.157 40.282C333.011 40.716 333.193 40.828 333.921 41.36ZM346.359 43.572H348.263C348.823 43.572 349.173 43.558 349.593 43.502C349.551 43.782 349.551 43.894 349.509 45.308C349.439 47.688 349.299 49.312 349.033 50.768C348.893 51.58 348.725 52.014 348.487 52.266C348.249 52.49 347.927 52.574 347.199 52.574C346.737 52.574 346.737 52.574 345.617 52.504C345.589 52.154 345.547 51.902 345.463 51.566C346.191 51.678 346.737 51.72 347.227 51.72C347.773 51.72 347.913 51.608 348.067 51.034C348.277 50.25 348.459 48.864 348.543 47.324C348.585 46.526 348.599 46.106 348.641 44.412H346.317C346.205 46.008 346.009 47.24 345.687 48.318C345.379 49.34 344.959 50.222 344.371 51.048C343.853 51.804 343.447 52.224 342.495 53.008C342.257 52.714 342.089 52.56 341.753 52.322C342.873 51.51 343.377 50.978 343.923 50.096C344.791 48.668 345.239 47.016 345.421 44.412H344.637C344.077 44.412 343.615 44.44 343.195 44.496V43.488C343.615 43.544 344.021 43.572 344.665 43.572H345.477C345.491 42.998 345.505 42.508 345.505 41.948C345.505 41.108 345.491 40.842 345.421 40.478H346.485C346.429 40.828 346.415 41.038 346.401 41.57C346.401 42.354 346.387 42.914 346.359 43.572ZM342.677 49.606L343.559 49.326V50.138C341.221 50.88 340.591 51.062 338.043 51.72C337.749 51.79 337.623 51.832 337.329 51.93L337.105 50.95C337.441 50.922 337.637 50.894 338.239 50.768V42.732C338.239 42.06 338.225 41.556 338.183 41.192C338.505 41.234 338.813 41.248 339.303 41.248H341.627C342.117 41.248 342.397 41.234 342.733 41.192C342.691 41.528 342.677 42.032 342.677 42.732V49.606ZM339.107 47.898V50.572C340.031 50.348 340.857 50.124 341.823 49.858V47.898H339.107ZM339.107 47.128H341.823V44.986H339.107V47.128ZM339.107 44.216H341.823V42.06H339.107V44.216ZM352.931 43.838L352.861 42.732C353.127 42.746 353.267 42.746 353.365 42.746C353.561 42.746 353.729 42.732 354.163 42.704C354.947 42.648 355.031 42.634 356.753 42.536L358.951 42.396C360.673 42.298 360.855 42.284 361.317 42.27L362.115 42.242C363.319 42.172 363.585 42.144 363.781 42.088L363.865 43.124C363.305 43.124 362.829 43.18 362.297 43.32C361.359 43.558 360.379 44.062 359.609 44.72C358.489 45.658 357.887 46.792 357.887 47.954C357.887 49.13 358.601 50.068 359.847 50.544C360.533 50.796 361.415 50.992 361.947 50.992C361.975 50.992 362.031 50.992 362.087 50.992L361.905 52.126C361.751 52.098 361.723 52.084 361.471 52.042C360.085 51.804 359.245 51.51 358.447 50.964C357.453 50.292 356.893 49.27 356.893 48.108C356.893 46.484 357.845 44.944 359.511 43.81C359.945 43.516 360.309 43.32 360.841 43.068C360.043 43.208 359.231 43.278 357.761 43.376C354.975 43.572 353.435 43.712 352.931 43.838ZM361.527 45.182L362.227 44.818C362.857 45.574 363.249 46.162 363.669 46.988L362.955 47.408C362.619 46.666 361.947 45.616 361.527 45.182ZM363.123 44.426L363.809 44.048C364.439 44.818 364.789 45.35 365.251 46.232L364.551 46.624C364.243 45.966 363.669 45.07 363.123 44.426Z" fill="#20AEE5"/>
<path d="M217.56 75.18C217.18 78.32 216.48 81.08 215.48 83.34C214.34 85.92 213.06 87.1 211.42 87.1C209.14 87.1 207.5 84.78 207.5 81.56C207.5 79.36 208.28 77.3 209.7 75.74C211.38 73.9 213.74 72.94 216.58 72.94C221.38 72.94 224.5 75.86 224.5 80.36C224.5 83.82 222.7 86.58 219.64 87.82C218.68 88.22 217.9 88.42 216.5 88.66C216.16 87.6 215.92 87.16 215.28 86.32C217.12 86.08 218.32 85.76 219.26 85.22C221 84.26 222.04 82.36 222.04 80.22C222.04 78.3 221.18 76.74 219.58 75.78C218.96 75.42 218.44 75.26 217.56 75.18ZM215.12 75.2C214.08 75.32 213.36 75.6 212.54 76.18C210.86 77.38 209.82 79.44 209.82 81.58C209.82 83.22 210.52 84.52 211.4 84.52C212.06 84.52 212.74 83.68 213.46 81.96C214.22 80.16 214.88 77.46 215.12 75.2ZM235.8 78.22H232.06C231.14 78.22 230.64 78.24 230.18 78.32V77.26H228.34C228.42 76.8 228.44 76.44 228.44 75.78V74.3C228.44 73.76 228.42 73.32 228.36 72.8C229 72.86 229.56 72.88 230.56 72.88H235.76V72.42C235.76 71.92 235.72 71.6 235.64 71.16H238.1C238.02 71.56 238 71.92 238 72.42V72.88H243.48C244.5 72.88 245.02 72.86 245.7 72.8C245.64 73.3 245.62 73.72 245.62 74.26V75.78C245.62 76.36 245.64 76.8 245.7 77.26H243.86V78.32C243.36 78.24 242.9 78.22 241.96 78.22H237.94C237.92 78.86 237.92 78.86 237.9 79.32H241.64C242.62 79.32 242.94 79.3 243.42 79.24V81.14C242.9 81.08 242.58 81.06 241.64 81.06H237.78C237.72 81.56 237.7 81.72 237.62 82.14H243.86C244.86 82.14 245.36 82.12 245.92 82.04V84.14C245.2 84.06 244.64 84.02 243.76 84.02H238.66C239.38 84.88 239.76 85.22 240.52 85.7C241.4 86.24 242.64 86.72 244.04 87.06C244.54 87.2 245.16 87.32 246.26 87.52C245.8 88.22 245.48 88.84 245.22 89.68C243.36 89.24 242.54 88.98 241.48 88.52C239.34 87.56 237.98 86.48 236.74 84.72C236.02 86.08 235.16 87 233.82 87.86C232.42 88.74 231.16 89.22 228.94 89.66C228.58 88.64 228.46 88.42 227.88 87.58C229.98 87.28 231.02 86.98 232.22 86.36C233.38 85.76 234.16 85.04 234.76 84.02H230.34C229.56 84.02 228.92 84.06 228.2 84.14V82.04C228.74 82.12 229.22 82.14 230.22 82.14H235.46C235.54 81.76 235.58 81.54 235.64 81.06H232.26C231.3 81.06 230.98 81.08 230.46 81.14V79.24C230.94 79.3 231.28 79.32 232.26 79.32H235.78C235.8 78.76 235.8 78.76 235.8 78.22ZM232.06 76.46H235.82C235.8 75.82 235.8 75.56 235.74 75.18H238.06C238 75.42 238 75.66 237.98 76.46H241.96C242.72 76.46 243.04 76.44 243.54 76.4V74.76H230.52V76.4C230.88 76.44 231.32 76.46 232.06 76.46ZM260.44 73.98H265.42C266.06 73.98 266.48 73.96 266.96 73.9V75.86C266.46 75.78 266.06 75.76 265.44 75.76H264.12V77.48C264.54 77.46 264.6 77.46 264.94 77.42C264.86 78.06 264.84 78.6 264.84 80.12V84.2C264.84 85.36 264.86 86.02 264.94 86.48C264.38 86.42 263.76 86.4 262.8 86.4H261.36C263.36 87.32 264.44 87.58 267.12 87.82C266.62 88.56 266.58 88.66 266.1 89.86C263.06 89.34 261.7 88.88 259.46 87.58L261.08 86.4H254.82L256.44 87.66C253.96 88.98 252.76 89.38 249.9 89.84C249.56 88.98 249.42 88.7 248.82 87.82C251.86 87.5 252.9 87.24 254.42 86.4H253.26C252.32 86.4 251.68 86.42 251.1 86.48C251.18 85.92 251.2 85.2 251.2 84.12V80.1C251.2 79.14 251.2 78.86 251.16 78.16C250.94 78.64 250.76 78.88 250.2 79.58C249.58 78.82 249.24 78.46 248.54 77.88C249.7 76.7 250.14 75.32 250.14 72.72C250.14 72.54 250.1 72.02 250.06 71.8H250.4C250.6 71.82 250.76 71.82 250.8 71.82C251.86 71.82 253.54 71.66 254.5 71.48C255.3 71.32 255.86 71.16 256.5 70.88L257.72 72.56C255.86 73.08 255.06 73.2 252.2 73.38C252.2 73.68 252.2 73.76 252.18 73.98H256.16C256.8 73.98 257.24 73.96 257.62 73.9V75.84C257.18 75.78 256.76 75.76 256.2 75.76H255.68V77.28C255.68 77.36 255.68 77.4 255.68 77.5H258.22C257.82 77.12 257.68 76.98 257.26 76.68C258.08 75.64 258.42 74.44 258.42 72.5C258.42 72.22 258.4 72.06 258.36 71.78C258.68 71.82 258.82 71.82 258.98 71.82C259.64 71.82 261.48 71.68 262.26 71.58C263.36 71.42 264.1 71.24 265.06 70.92L266.34 72.6C263.04 73.22 262.84 73.24 260.48 73.36C260.46 73.66 260.46 73.82 260.44 73.98ZM262.1 75.76H260.16C259.96 76.48 259.78 76.92 259.46 77.5H262.1V75.76ZM253.2 77.5H253.68C253.68 77.38 253.68 77.36 253.68 77.3V75.76H252C251.9 76.36 251.76 76.82 251.48 77.46C252.14 77.5 252.48 77.5 253.2 77.5ZM253.32 79.16V80.02H262.72V79.16H253.32ZM253.32 81.5V82.34H262.72V81.5H253.32ZM253.32 83.84V84.7H262.72V83.84H253.32ZM282.22 76.74H286.28C287.16 76.74 287.52 76.72 287.98 76.68C287.92 77.02 287.92 77.02 287.8 78.04C287.56 79.72 287.24 80.1 285.88 80.18C285.88 80.72 285.88 81.04 285.88 81.34V84.78C285.88 85.66 285.9 86.38 285.96 86.9C285.54 86.86 284.66 86.84 283.84 86.84H282.88C284.32 87.58 285.92 87.96 288.34 88.14C287.8 88.78 287.58 89.1 287.1 89.94C284.26 89.48 282.86 88.98 280.58 87.66L281.68 86.84H276.48L277.48 87.66C275.32 88.94 274.06 89.4 271.16 89.96C270.74 89.2 270.56 88.94 269.94 88.22C272.34 87.94 273.7 87.58 275.28 86.84H274.34C273.48 86.84 272.68 86.86 272.22 86.9C272.26 86.54 272.3 85.76 272.3 84.9V81.18C271.76 81.38 271.48 81.46 270.7 81.7L270.54 81.34C270.28 80.7 270.2 80.54 269.74 79.92C272.28 79.38 273.26 79.02 274.32 78.2H272.1C271.68 78.2 271 78.22 270.44 78.24C271.02 77.06 271.42 75.84 271.6 74.6C272 74.64 272.48 74.66 273.28 74.66H275.9C275.94 74.18 275.96 74.18 275.96 73.96H272.72C271.82 73.96 271.22 73.98 270.8 74.06V72.32C271.32 72.4 271.78 72.42 272.72 72.42H276.02C276.02 71.88 276 71.56 275.94 71.16H278.08C278.04 71.4 278.04 71.5 278 72.42H280.24C280.24 71.8 280.22 71.58 280.14 71.16H282.32C282.24 71.6 282.22 71.84 282.22 72.42H284.94C285.6 72.42 286.44 72.38 286.9 72.32C286.84 72.78 286.82 73.08 286.82 73.88V74.68C286.82 75.42 286.82 75.62 286.88 76.1C286.24 76.06 285.64 76.04 284.92 76.04H282.22V76.74ZM283.92 79.18H284.28C284.22 78.96 284.2 78.88 284.08 78.64C284.5 78.76 284.94 78.82 285.2 78.82C285.6 78.82 285.68 78.74 285.74 78.2H282.22V79.18H283.92ZM280.24 79.18V78.2H276.8C276.52 78.6 276.34 78.8 275.9 79.18H280.24ZM275.68 76.04H273.32C273.22 76.4 273.18 76.5 273.08 76.74H275.44C275.54 76.46 275.58 76.34 275.68 76.04ZM280.24 76.04H277.68C277.6 76.34 277.58 76.44 277.5 76.74H280.24V76.04ZM280.24 73.96H277.94C277.94 74.24 277.92 74.34 277.9 74.66H280.24V73.96ZM282.22 73.96V74.66H284.74V73.96H282.22ZM274.36 80.56V81.26H283.8V80.56H274.36ZM274.36 82.54V83.28H283.8V82.54H274.36ZM274.36 84.56V85.3H283.8V84.56H274.36ZM299.14 83.36H294.54C294.26 86.02 293.66 87.9 292.5 89.68C291.66 88.88 291.38 88.66 290.56 88.1C291.28 87.06 291.74 86 292.02 84.72C292.22 83.78 292.36 82.74 292.42 81.66C292.52 79.98 292.6 77.14 292.6 74.78C292.6 73.34 292.58 72.7 292.5 71.88C293.2 71.94 293.72 71.96 294.8 71.96H306.02C307.14 71.96 307.7 71.94 308.32 71.88C308.26 72.56 308.24 73.06 308.24 74.14V87.28C308.24 88.94 307.64 89.36 305.36 89.36C304.74 89.36 303.72 89.32 303.12 89.28C303.02 88.52 302.88 88.04 302.56 87.2C303.56 87.3 304.44 87.36 305.08 87.36C305.9 87.36 306.08 87.28 306.08 86.86V83.36H301.28V86.64C301.28 87.8 301.3 88.44 301.38 89.02H299.02C299.1 88.42 299.14 87.84 299.14 86.66V83.36ZM299.14 81.38V78.64H294.72C294.72 79.22 294.7 79.62 294.7 79.9C294.68 80.84 294.68 80.98 294.68 81.38H299.14ZM301.28 81.38H306.08V78.64H301.28V81.38ZM299.14 76.68V74.06H294.78V76.12L294.76 76.68H299.14ZM301.28 76.68H306.08V74.06H301.28V76.68ZM323.92 75.56H325.9C327.06 75.56 327.42 75.54 328.14 75.5C328.06 76.12 328.04 76.48 328.04 77.58V83.8C328.04 85.04 328.06 85.6 328.14 86.12C327.46 86.04 326.8 86.02 325.98 86.02H324.54C324.98 86.28 325.24 86.4 325.7 86.58C327.18 87.16 328.3 87.44 330.32 87.7C329.86 88.36 329.58 88.88 329.2 89.72C327.4 89.38 326.54 89.12 325.18 88.58C324.1 88.14 323.56 87.86 322.38 87.12L323.56 86.02H318.54L319.68 87.1C318.54 87.88 318 88.18 317.06 88.6C315.88 89.1 315 89.38 313.18 89.76C312.78 88.9 312.5 88.46 311.94 87.8C314.44 87.44 316.02 86.94 317.46 86.02H316.44C315.6 86.02 314.98 86.04 314.26 86.12C314.34 85.54 314.36 85 314.36 83.8V77.58C314.36 77.54 314.36 77.34 314.36 77.12C313.92 77.44 313.64 77.62 312.84 78.12C312.56 77.36 312.26 76.8 311.78 76.2C313.3 75.38 314.36 74.58 315.46 73.46C316.5 72.4 317.1 71.56 317.38 70.82L319.9 71.26C319.84 71.34 319.6 71.68 319.22 72.26H322.84C323.86 72.26 324.38 72.24 324.8 72.18L325.9 73.18C325.78 73.3 325.78 73.3 325.58 73.52C325.58 73.54 325.52 73.6 325.42 73.72C325.38 73.78 325.38 73.78 324.8 74.5C324.36 75.08 324.22 75.22 323.92 75.56ZM316.24 75.56H321.34C321.84 75 322.02 74.74 322.5 74.1H317.76C317.24 74.64 316.92 74.96 316.24 75.56ZM316.46 77.38V78.46H325.94V77.38H316.46ZM316.46 80.2V81.28H325.94V80.2H316.46ZM316.46 83.04V84.12H325.94V83.04H316.46ZM335.58 76.92H334.66C334.16 76.92 333.72 76.94 333.1 77.02V74.86C333.6 74.96 334.02 74.98 334.66 74.98H335.58V73.34C335.58 72.4 335.56 71.88 335.46 71.3H337.84C337.74 71.9 337.72 72.36 337.72 73.32V74.98H338.48C338.92 74.98 339.3 74.96 339.68 74.9V77C339.24 76.94 338.88 76.92 338.46 76.92H337.72V79.94C338.54 79.68 338.76 79.6 339.66 79.28V81.24C338.74 81.6 338.58 81.66 337.72 81.96V87.64C337.72 89.02 337.02 89.54 335.16 89.54C334.72 89.54 334.16 89.52 333.52 89.48C333.46 88.66 333.36 88.22 333.06 87.36C333.8 87.44 334.44 87.48 334.94 87.48C335.46 87.48 335.58 87.38 335.58 86.9V82.7C334.76 82.96 334.76 82.96 334.18 83.14C333.72 83.28 333.64 83.3 333.34 83.44L332.92 81.2C333.58 81.14 334.04 81.04 335.58 80.6V76.92ZM347.9 84.96H342.34C341.6 84.96 340.92 84.98 340.32 85.04C340.36 84.58 340.38 84 340.38 83.14V74.26C340.38 73.26 340.36 72.64 340.32 72.1C340.84 72.16 341.36 72.18 342.38 72.18H347.8C348.9 72.18 349.42 72.16 349.94 72.1C349.88 72.76 349.86 73.34 349.86 74.52V82.72C349.86 83.74 349.88 84.3 349.94 85.04C349.46 84.98 348.76 84.96 347.9 84.96ZM342.5 74.14V77.6H347.68V74.14H342.5ZM342.5 79.52V83.02H347.68V79.52H342.5ZM338.66 89V86.76C339.32 86.84 340.08 86.88 341 86.88H349C349.96 86.88 350.62 86.84 351.3 86.76V89.02C350.58 88.94 349.92 88.9 348.98 88.9H341C340 88.9 339.3 88.94 338.66 89ZM358.28 88.48L355.86 88.62C355.84 88.26 355.82 88.14 355.76 87.68C355.38 85.26 355.24 83.72 355.24 81.7C355.24 79.12 355.48 76.84 356.06 73.88C356.28 72.76 356.32 72.56 356.36 72.02L359 72.3C358.52 73.48 358.06 75.72 357.74 78.28C357.54 79.78 357.46 80.96 357.44 82.7C357.44 83.14 357.42 83.3 357.4 83.8C357.62 83.1 357.66 82.96 358.44 81.16L360.04 81.88C358.94 84.2 358.26 86.52 358.26 87.94C358.26 88.06 358.26 88.22 358.28 88.48ZM361.04 76.5L361.08 74.1C361.98 74.34 363.04 74.42 364.78 74.42C367 74.42 368.9 74.24 370.22 73.88L370.34 76.3C370.18 76.32 369.88 76.36 368.92 76.48C367.64 76.64 366.12 76.72 364.64 76.72C363.18 76.72 363.16 76.72 361.04 76.5ZM362.42 79.8L364.38 80.72C363.38 81.88 362.96 82.74 362.96 83.6C362.96 84.74 364.06 85.34 366.14 85.34C367.9 85.34 369.64 85.06 370.9 84.58L371.1 87.12C370.82 87.14 370.74 87.16 370.28 87.24C368.68 87.5 367.46 87.62 366.14 87.62C363.66 87.62 362.06 87.06 361.18 85.88C360.8 85.38 360.58 84.64 360.58 83.92C360.58 82.62 361.18 81.28 362.42 79.8ZM378.2 82.8C380.08 82.8 381.58 84.32 381.58 86.18C381.58 88.06 380.06 89.58 378.2 89.58C376.34 89.58 374.82 88.06 374.82 86.18C374.82 84.32 376.34 82.8 378.2 82.8ZM378.2 84.36C377.2 84.36 376.38 85.18 376.38 86.18C376.38 87.2 377.2 88.02 378.2 88.02C379.2 88.02 380.02 87.2 380.02 86.18C380.02 85.18 379.2 84.36 378.2 84.36Z" fill="#20AEE5"/>
<rect x="136" y="89" width="64" height="6" fill="#E1F0F8"/>
<path d="M145.602 71.644L140.282 76.014L137.622 72.86L146.02 66.096H150.162V93H145.602V71.644Z" fill="#20AEE5"/>
<path d="M160.59 93.68L157.685 92.63L168.605 65.47L171.51 66.59L160.59 93.68Z" fill="#20AEE5"/>
<path d="M187.224 87.414H174.798V83.386L186.236 66.096H191.708V83.5H195.47V87.414H191.708V93H187.224V87.414ZM187.224 71.454H187.148L179.51 83.5H187.224V71.454Z" fill="#20AEE5"/>
<circle cx="70" cy="74" r="49" stroke="#20AEE5" stroke-width="2"/>
<path d="M65.1973 97.0586H75.7659" stroke="#20AEE5" stroke-width="2" stroke-linecap="round" stroke-linejoin="round"/>
<path d="M67.1191 100.904L73.8445 100.902" stroke="#20AEE5" stroke-width="2" stroke-linecap="round" stroke-linejoin="round"/>
<path d="M82.3435 82.6465L81.6672 81.9099C81.3636 82.1887 81.2621 82.6252 81.4117 83.0094C81.5613 83.3935 81.9313 83.6465 82.3435 83.6465V82.6465ZM57.6585 82.6465V83.6465C58.0707 83.6465 58.4407 83.3935 58.5903 83.0094C58.7399 82.6252 58.6384 82.1887 58.3348 81.9099L57.6585 82.6465ZM57.5107 82.6465V81.6465C57.0788 81.6465 56.6956 81.9239 56.5607 82.3342C56.4259 82.7446 56.5697 83.1952 56.9175 83.4515L57.5107 82.6465ZM62.5153 91.1674L61.5285 91.3298L62.5153 91.1674ZM78.3006 91.0195L77.3055 90.9206L78.3006 91.0195ZM82.4911 82.6465L83.1224 83.4221C83.4506 83.155 83.5751 82.7102 83.4334 82.3115C83.2916 81.9128 82.9143 81.6465 82.4911 81.6465V82.6465ZM87.2559 69.1963C87.2559 74.2274 85.1039 78.7545 81.6672 81.9099L83.0198 83.3831C86.8518 79.8649 89.2559 74.8106 89.2559 69.1963H87.2559ZM70.001 51.9414C79.5306 51.9414 87.2559 59.6667 87.2559 69.1963H89.2559C89.2559 58.5621 80.6352 49.9414 70.001 49.9414V51.9414ZM52.7461 69.1963C52.7461 59.6667 60.4714 51.9414 70.001 51.9414V49.9414C59.3668 49.9414 50.7461 58.5621 50.7461 69.1963H52.7461ZM58.3348 81.9099C54.8981 78.7545 52.7461 74.2274 52.7461 69.1963H50.7461C50.7461 74.8106 53.1502 79.8649 56.9822 83.3831L58.3348 81.9099ZM57.5107 83.6465H57.6585V81.6465H57.5107V83.6465ZM63.502 91.0051C63.1074 88.6063 61.8867 84.6293 58.104 81.8415L56.9175 83.4515C60.1085 85.8033 61.1761 89.1875 61.5285 91.3298L63.502 91.0051ZM64.7535 92.2151C64.2032 92.2151 63.6207 91.7266 63.502 91.0051L61.5285 91.3298C61.7759 92.8336 63.0485 94.2151 64.7535 94.2151V92.2151ZM76.0539 92.2151H64.7535V94.2151H76.0539V92.2151ZM77.3055 90.9206C77.2301 91.6803 76.6279 92.2151 76.0539 92.2151V94.2151C77.8398 94.2151 79.1379 92.707 79.2957 91.1183L77.3055 90.9206ZM81.8599 81.8709C78.4717 84.6285 77.5436 88.5232 77.3055 90.9206L79.2957 91.1183C79.5105 88.956 80.3312 85.6938 83.1224 83.4221L81.8599 81.8709ZM82.3435 83.6465H82.4911V81.6465H82.3435V83.6465Z" fill="#20AEE5"/>
<path d="M77.2667 63.4316H76.4893C76.4176 63.4318 76.3471 63.4516 76.2845 63.4893C76.2219 63.5269 76.1692 63.5812 76.1314 63.6468L71.1059 72.3334H69.865L69.7945 72.2132L64.8396 63.669C64.8011 63.6033 64.7478 63.5491 64.6847 63.5115C64.6216 63.4739 64.5507 63.454 64.4787 63.4538H63.7042C63.6288 63.4534 63.5546 63.4749 63.4895 63.5161C63.4245 63.5573 63.371 63.6167 63.3346 63.688C63.2958 63.7584 63.2754 63.8387 63.2754 63.9206C63.2754 64.0024 63.2958 64.0828 63.3346 64.1532L68.1047 72.3334H65.0918C64.9798 72.3334 64.8723 72.3814 64.7931 72.4669C64.7139 72.5524 64.6694 72.6683 64.6694 72.7891V73.5011C64.6702 73.6217 64.7149 73.7372 64.7939 73.8225C64.873 73.9077 64.98 73.956 65.0918 73.9568H69.0464L69.7447 75.1594V75.5391H65.0918C64.9798 75.5391 64.8723 75.5871 64.7931 75.6726C64.7139 75.758 64.6694 75.8739 64.6694 75.9948V76.7068C64.6702 76.8274 64.7149 76.9428 64.7939 77.0281C64.873 77.1134 64.98 77.1617 65.0918 77.1625H69.7447V80.2669C69.7443 80.327 69.7549 80.3866 69.776 80.4423C69.7971 80.4979 69.8281 80.5485 69.8674 80.5912C69.9067 80.6338 69.9533 80.6677 70.0048 80.6908C70.0562 80.7139 70.1114 80.7258 70.1671 80.7258H70.8272C70.9395 80.7249 71.047 80.6762 71.1261 80.5902C71.2052 80.5043 71.2497 80.388 71.2496 80.2669V77.1625H75.8996C76.0114 77.1617 76.1184 77.1134 76.1975 77.0281C76.2765 76.9428 76.3212 76.8274 76.322 76.7068V75.9948C76.322 75.8739 76.2775 75.758 76.1982 75.6726C76.119 75.5871 76.0116 75.5391 75.8996 75.5391H71.2438V75.1594L71.9391 73.9568H75.8937C76.0055 73.956 76.1125 73.9077 76.1916 73.8225C76.2706 73.7372 76.3154 73.6217 76.3161 73.5011V72.7891C76.3161 72.6683 76.2716 72.5524 76.1924 72.4669C76.1132 72.3814 76.0057 72.3334 75.8937 72.3334H72.8808L77.6275 64.1437C77.6665 64.0734 77.6872 63.993 77.6872 63.9111C77.6872 63.8291 77.6665 63.7488 77.6275 63.6785C77.5939 63.6058 77.5425 63.5444 77.4789 63.5009C77.4154 63.4574 77.3419 63.4335 77.2667 63.4316Z" fill="#20AEE5"/>
<path d="M90.4531 49.1992L87.0562 52.5961" stroke="#20AEE5" stroke-width="2" stroke-linecap="round" stroke-linejoin="round"/>
<path d="M82.332 45.4297L81.586 48.2138" stroke="#20AEE5" stroke-width="2" stroke-linecap="round" stroke-linejoin="round"/>
<path d="M94.2227 57.3184L91.4385 58.0644" stroke="#20AEE5" stroke-width="2" stroke-linecap="round" stroke-linejoin="round"/>
</svg>
