<svg width="966" height="143" viewBox="0 0 966 143" fill="none" xmlns="http://www.w3.org/2000/svg">
<path d="M202.957 13.072C203.437 13.008 203.597 12.976 204.205 12.976C208.429 12.912 212.429 12.592 215.597 12.144C215.789 12.464 215.789 12.528 216.141 13.2C217.517 15.888 218.317 17.2 219.981 19.472C218.637 18.768 216.109 18.32 213.357 18.32C210.765 18.32 208.845 18.672 207.149 19.504C204.909 20.592 203.533 22.608 203.533 24.72C203.533 26 204.045 27.248 204.973 28.24C206.445 29.776 209.389 30.64 213.293 30.64C216.461 30.64 219.501 30.096 222.701 28.912L222.349 26.448C219.949 27.696 216.429 28.496 213.261 28.496C210.509 28.496 208.205 27.952 207.021 27.024C206.253 26.384 205.805 25.52 205.805 24.528C205.805 23.376 206.477 22.224 207.533 21.552C208.973 20.656 210.925 20.208 213.613 20.208C215.789 20.208 217.581 20.496 219.213 21.04C220.109 21.36 220.557 21.648 221.421 22.352L223.565 21.136C221.325 18.16 218.957 14.32 217.805 11.824C218.125 11.76 218.125 11.76 218.893 11.6C220.909 11.216 221.293 11.12 223.213 10.608C224.173 10.352 224.429 10.288 225.101 10.16L224.781 7.888C223.053 8.624 220.141 9.392 217.037 9.904C216.749 9.296 216.653 9.136 215.885 7.088C215.085 5.04 215.085 5.04 214.957 4.208L212.429 4.56C212.717 5.136 212.909 5.584 213.261 6.416C213.837 7.856 214.349 9.136 214.829 10.224C211.821 10.64 208.205 10.896 205.293 10.896C204.205 10.896 203.661 10.864 202.829 10.736L202.957 13.072ZM240.301 6.8C243.149 8.112 243.149 8.112 245.197 8.816C247.341 9.584 247.341 9.584 251.437 10.64L252.333 8.4C248.845 7.856 243.981 6.256 241.485 4.848L240.301 6.8ZM237.645 10.256C237.613 10.832 237.581 11.088 237.421 11.952C236.973 14.64 236.397 18.352 236.077 20.784C235.949 21.808 235.917 22.096 235.821 22.672L238.317 22.736C238.861 22.032 239.085 21.808 239.597 21.424C241.997 19.664 245.293 18.64 248.557 18.64C252.461 18.64 254.765 20.176 254.765 22.8C254.765 26.064 251.405 28.176 246.125 28.176C243.437 28.176 240.397 27.568 237.965 26.576C238.157 27.408 238.189 27.824 238.189 28.56C238.189 28.688 238.189 28.88 238.157 29.168C240.109 29.648 240.109 29.648 240.717 29.808C242.477 30.192 244.397 30.384 246.317 30.384C249.709 30.384 252.237 29.712 254.285 28.272C256.077 26.992 257.165 24.912 257.165 22.768C257.165 19.024 253.805 16.592 248.589 16.592C245.069 16.592 241.549 17.648 239.341 19.344C238.989 19.632 238.765 19.856 238.349 20.304L238.285 20.272C238.349 19.984 238.381 19.92 238.413 19.536C238.509 18.8 238.573 18.576 239.341 13.936C239.629 12.176 239.789 11.408 240.077 10.416L237.645 10.256ZM268.333 5.04C268.269 5.776 268.205 6.096 267.885 7.6C266.829 12.336 266.445 15.728 266.445 20.272C266.445 23.632 266.669 25.936 267.277 29.328C267.373 29.936 267.405 30.096 267.469 30.608L269.773 30.416C269.773 30.192 269.773 30.032 269.773 29.936C269.773 28.144 270.925 24.304 272.365 21.136L270.829 20.4C269.805 22.736 269.197 24.496 268.749 26.64C268.621 24.944 268.557 23.056 268.557 20.56C268.557 16.72 268.845 13.904 269.517 10.544C269.997 8.368 270.381 6.8 270.861 5.424L268.333 5.04ZM274.925 11.088C277.005 11.312 278.253 11.408 280.045 11.408C282.509 11.408 285.069 11.248 286.925 10.992C288.333 10.8 289.069 10.704 289.133 10.704L288.973 8.432C286.829 9.008 283.949 9.296 280.397 9.296C277.901 9.296 276.333 9.168 274.957 8.816L274.925 11.088ZM277.261 17.328C275.277 19.6 274.477 21.328 274.477 23.28C274.477 24.464 274.797 25.424 275.437 26.224C276.813 27.888 279.117 28.656 282.765 28.656C284.941 28.656 287.085 28.464 289.325 28.016C289.965 27.92 290.029 27.888 290.445 27.856L290.125 25.392C288.397 26.096 285.677 26.512 282.765 26.512C278.637 26.512 276.621 25.36 276.621 22.992C276.621 21.584 277.421 20.048 279.021 18.288L277.261 17.328ZM318.317 19.76V5.072H324.621V3.088H316.141V19.76H318.317ZM328.589 5.488C328.781 6.64 328.845 7.472 328.845 9.072V26.224C328.845 27.824 328.781 28.624 328.589 29.808H331.629C331.437 28.72 331.341 27.632 331.341 26.224V9.072C331.341 7.728 331.437 6.544 331.629 5.488H328.589ZM345.71 7.728H350.67C352.462 7.728 353.39 7.792 354.446 7.952V5.264C353.39 5.424 352.526 5.488 350.67 5.488H338.19C336.494 5.488 335.662 5.424 334.542 5.264V7.952C335.598 7.792 336.59 7.728 338.222 7.728H343.214V26.192C343.214 27.696 343.15 28.816 342.958 29.808H345.966C345.774 28.656 345.71 27.76 345.71 26.192V7.728ZM368.027 6.064C366.427 6.064 365.627 6.032 364.795 5.904V7.76C365.723 7.664 366.651 7.632 368.091 7.632H373.307C372.987 8.368 372.731 8.816 372.347 9.456H370.235C368.539 9.456 367.547 9.424 366.843 9.328C366.939 10 366.971 10.8 366.971 12.048V17.168C366.971 18.544 366.939 19.184 366.875 19.792C367.867 19.728 368.827 19.696 370.043 19.696H379.675C380.795 19.696 381.531 19.728 382.235 19.792C382.139 19.12 382.107 18.256 382.107 16.944V12.112C382.107 10.864 382.139 10.128 382.235 9.328C381.531 9.424 380.731 9.456 379.131 9.456H374.395C374.683 8.912 374.971 8.368 375.323 7.632H381.467C382.875 7.632 383.803 7.664 384.635 7.76V5.904C383.899 6.032 383.035 6.064 381.467 6.064H378.299C378.971 5.328 379.515 4.656 380.283 3.632L378.363 3.024C377.627 4.24 376.987 5.104 376.155 6.064H372.315C371.739 4.912 371.067 3.856 370.363 2.96L368.475 3.44C369.275 4.336 369.851 5.168 370.363 6.064H368.027ZM368.795 10.896H380.251V12.432H368.795V10.896ZM368.795 13.776H380.251V15.312H368.795V13.776ZM368.795 16.656H380.251V18.256H368.795V16.656ZM377.179 24.72H360.411C358.907 24.72 357.979 24.656 357.083 24.528V26.608C358.043 26.48 358.971 26.416 360.411 26.416H377.179V29.68C377.179 30.352 376.923 30.48 375.771 30.48C374.715 30.48 373.627 30.416 372.091 30.256C372.475 30.96 372.603 31.376 372.731 32.208C373.723 32.24 374.555 32.272 375.515 32.272C378.619 32.272 379.131 31.952 379.131 30.032V26.416H381.467C382.939 26.416 383.899 26.48 384.827 26.608V24.528C383.931 24.656 383.003 24.72 381.499 24.72H379.131V22.864C381.307 22.832 383.899 22.8 385.051 22.736C385.211 21.936 385.371 21.552 385.787 20.848C383.195 21.168 379.387 21.296 372.763 21.296C369.019 21.296 367.387 21.168 366.299 20.784C365.115 20.4 364.379 19.76 363.643 18.512V14.896C363.643 13.296 363.675 12.752 363.771 12.016C363.099 12.112 362.427 12.144 361.339 12.144H359.547C358.331 12.144 357.787 12.112 357.051 11.984V13.872C357.723 13.776 358.171 13.744 359.419 13.744H361.723V18.704C360.315 19.696 359.099 20.432 357.691 21.104C357.499 21.2 357.371 21.232 357.339 21.264C357.051 21.424 357.051 21.424 356.731 21.52L357.723 23.344C358.235 23.024 358.331 22.96 358.523 22.864C361.147 21.264 361.531 21.008 362.779 20.016C364.603 22.48 366.299 22.896 374.427 22.896C374.843 22.896 374.843 22.896 377.179 22.896V24.72ZM357.723 4.88C359.739 6.48 360.763 7.472 362.267 9.392L363.675 7.952C361.947 6.032 361.115 5.264 359.067 3.696L357.723 4.88ZM369.531 30.32C367.995 28.752 366.875 27.792 365.051 26.576L363.643 27.728C365.499 28.976 366.587 29.968 368.027 31.728L369.531 30.32ZM401.915 7.344C401.755 10.544 401.499 12.144 400.891 14.32C399.899 17.744 398.267 20.816 395.963 23.632C393.851 26.192 392.027 27.76 388.539 29.936C389.339 30.512 389.755 30.992 390.267 31.824C392.283 30.448 393.115 29.776 394.299 28.688C395.963 27.152 397.435 25.52 398.619 23.824C400.795 20.752 402.107 17.712 403.099 13.456C403.675 15.952 404.155 17.36 405.115 19.376C406.203 21.744 407.835 24.176 409.691 26.288C411.611 28.496 413.115 29.808 415.899 31.76C416.603 30.672 416.827 30.448 417.691 29.712C414.811 27.952 413.595 26.992 411.707 25.072C409.723 22.992 408.155 20.848 406.907 18.448C405.051 14.896 404.187 11.312 404.187 7.28C404.187 6.576 404.219 5.968 404.315 5.168C403.675 5.296 402.875 5.36 401.339 5.36H397.115C395.963 5.36 395.323 5.328 394.683 5.2V7.504C395.739 7.408 396.507 7.344 397.115 7.344H401.915ZM429.499 14.896C428.763 16.496 428.219 17.488 427.419 18.608C426.779 17.872 426.587 17.584 426.139 16.88C427.547 14.8 428.411 13.264 429.467 10.896C429.691 10.384 429.883 10 429.979 9.872L429.083 8.752C428.763 8.816 428.475 8.848 427.579 8.848H426.171V5.744C426.171 4.88 426.235 4.016 426.331 3.344H424.155C424.251 3.984 424.315 4.72 424.315 5.776V8.848H423.227C421.947 8.848 421.371 8.816 420.731 8.688V10.768C421.467 10.672 422.299 10.608 423.323 10.608H427.547C426.075 14.64 423.451 18.288 419.995 21.104C420.539 21.776 420.763 22.16 421.019 22.864C422.363 21.648 423.387 20.56 424.411 19.184C424.379 20.048 424.315 21.936 424.315 22.352V29.2C424.315 30.416 424.251 31.632 424.123 32.496H426.363C426.235 31.696 426.171 30.512 426.171 29.168V21.776C426.171 21.456 426.139 20.624 426.107 19.248C427.227 20.848 427.995 21.68 429.499 23.088C429.883 22.288 429.979 22.16 430.555 21.52C429.563 20.784 429.211 20.464 428.475 19.728C429.275 18.672 429.947 17.648 430.939 16.016L429.499 14.896ZM433.307 25.04H438.363V29.296C438.363 30.608 438.331 31.344 438.235 32.08H440.379C440.283 31.312 440.251 30.576 440.251 29.264V25.04H445.947V29.136C445.947 29.808 445.819 29.936 445.115 29.936C444.251 29.936 443.899 29.904 442.267 29.712C442.619 30.512 442.683 30.864 442.779 31.728C443.739 31.792 444.219 31.824 444.955 31.824C446.395 31.824 446.843 31.76 447.227 31.408C447.675 31.056 447.835 30.544 447.835 29.616V15.216C447.835 13.68 447.867 12.848 447.963 12.112C447.227 12.24 446.267 12.272 444.923 12.272H440.251V9.072H446.011C447.323 9.072 448.123 9.104 448.859 9.2V7.088C448.059 7.216 447.195 7.28 446.043 7.28H440.251V6.288C440.251 5.04 440.315 4.24 440.443 3.344H438.171C438.299 4.208 438.363 5.104 438.363 6.256V7.28H432.923C431.739 7.28 431.099 7.248 430.331 7.12V9.2C431.131 9.104 431.867 9.072 432.859 9.072H438.363V12.272H434.331C433.115 12.272 432.123 12.24 431.291 12.112C431.387 12.848 431.419 13.424 431.419 15.152V29.232C431.419 30.608 431.355 31.568 431.227 32.496H433.467C433.371 31.824 433.307 30.736 433.307 29.2V25.04ZM433.307 23.376V19.376H438.363V23.376H433.307ZM433.307 17.712V13.968H438.363V17.712H433.307ZM440.251 23.376V19.376H445.947V23.376H440.251ZM440.251 17.712V13.968H445.947V17.712H440.251ZM447.035 5.68C445.371 4.464 444.955 4.208 443.003 3.216L441.691 4.304C443.259 5.104 444.251 5.744 445.723 6.896L447.035 5.68ZM473.179 10.736C473.243 9.232 473.275 7.952 473.275 6.16C473.307 4.944 473.339 4.464 473.467 3.664H471.035C471.195 4.496 471.227 5.104 471.227 7.024C471.227 8.304 471.195 9.424 471.163 10.736H469.307C467.835 10.736 466.907 10.672 465.947 10.544V12.848C466.907 12.72 467.963 12.656 469.243 12.656H471.035C470.619 18.608 469.595 22.384 467.611 25.648C466.363 27.664 465.211 28.88 462.651 30.736C463.419 31.28 463.803 31.632 464.347 32.304C466.523 30.512 467.451 29.552 468.635 27.824C469.979 25.936 470.939 23.92 471.643 21.584C472.379 19.12 472.827 16.304 473.083 12.656H478.395C478.299 16.528 478.267 17.488 478.171 19.312C477.979 22.832 477.563 26 477.083 27.792C476.731 29.104 476.411 29.36 475.163 29.36C474.043 29.36 472.795 29.264 471.131 29.008C471.323 29.776 471.419 30.352 471.483 31.152C474.043 31.312 474.043 31.312 475.099 31.312C476.763 31.312 477.499 31.12 478.043 30.608C478.587 30.032 478.971 29.04 479.291 27.184C479.899 23.856 480.219 20.144 480.379 14.704C480.475 11.472 480.475 11.216 480.571 10.576C479.611 10.704 478.811 10.736 477.531 10.736H473.179ZM464.763 24.528V8.816C464.763 7.216 464.795 6.064 464.891 5.296C464.123 5.392 463.483 5.424 462.363 5.424H457.051C455.931 5.424 455.227 5.392 454.491 5.296C454.587 6.128 454.619 7.28 454.619 8.816V27.184C453.243 27.472 452.795 27.536 452.027 27.6L452.539 29.84C453.211 29.616 453.499 29.52 454.171 29.36C459.995 27.856 461.435 27.44 466.779 25.744V23.888L464.763 24.528ZM456.603 20.624H462.811V25.104C460.603 25.712 458.715 26.224 456.603 26.736V20.624ZM456.603 18.864V13.968H462.811V18.864H456.603ZM456.603 12.208V7.28H462.811V12.208H456.603ZM497.563 14.544V18.896H489.275C487.931 18.896 487.035 18.832 486.139 18.704V20.944C487.035 20.816 488.027 20.752 489.243 20.752H497.563V29.2H488.827C487.355 29.2 486.235 29.136 485.179 29.008V31.312C486.427 31.152 487.579 31.088 488.827 31.088H508.987C510.299 31.088 511.451 31.152 512.507 31.312V29.008C511.515 29.136 510.427 29.2 509.019 29.2H499.643V20.752H508.571C509.883 20.752 510.779 20.816 511.707 20.944V18.704C510.811 18.832 509.979 18.896 508.571 18.896H499.643V14.544H503.547C504.891 14.544 505.659 14.576 506.491 14.704V12.72C508.923 14.256 510.235 14.96 512.731 15.984C513.083 15.248 513.467 14.608 514.011 13.936C510.747 12.848 508.347 11.6 505.659 9.648C503.003 7.696 501.275 5.936 499.931 3.856H497.467C494.843 8.144 490.203 11.632 483.963 14C484.699 14.8 484.891 15.088 485.307 15.888C487.675 14.896 489.115 14.128 491.131 12.784V14.704C491.995 14.576 492.795 14.544 494.107 14.544H497.563ZM494.075 12.784C492.827 12.784 491.995 12.752 491.355 12.656C494.587 10.48 496.731 8.432 498.715 5.648C500.763 8.368 503.067 10.48 506.363 12.656C505.659 12.752 504.891 12.784 503.547 12.784H494.075ZM489.371 22.576C490.555 24.336 491.355 26.032 492.155 28.272L494.011 27.536C493.051 25.104 492.379 23.664 491.195 21.744L489.371 22.576ZM506.171 21.808C505.275 24.272 504.315 26.096 502.971 27.856L504.763 28.592C506.171 26.544 506.715 25.616 508.187 22.64L506.171 21.808ZM522.683 15.92V30.608H516.379V32.592H524.859V15.92H522.683ZM564.603 8.784C566.203 8.848 567.131 9.072 568.315 9.584C571.547 11.024 573.403 13.968 573.403 17.616C573.403 21.552 571.259 24.976 567.739 26.576C566.235 27.28 564.731 27.696 562.395 28.08C563.003 28.848 563.195 29.168 563.515 30.224C565.723 29.744 566.939 29.36 568.379 28.752C573.019 26.768 575.707 22.672 575.707 17.712C575.707 14.64 574.619 11.856 572.603 9.904C570.523 7.856 567.387 6.736 563.803 6.736C559.515 6.736 556.027 8.176 553.467 10.992C551.323 13.392 550.107 16.56 550.107 19.824C550.107 24.304 552.379 27.632 555.419 27.632C557.723 27.632 559.611 25.712 561.467 21.488C562.907 18.128 564.123 13.232 564.603 8.784ZM562.299 8.816C561.883 12.912 560.699 17.648 559.387 20.656C558.011 23.792 556.731 25.296 555.387 25.296C553.659 25.296 552.315 22.928 552.315 19.856C552.315 15.888 554.299 12.272 557.531 10.32C559.003 9.424 560.379 8.976 562.299 8.816ZM587.835 17.456C585.371 19.536 584.155 21.552 584.155 23.632C584.155 25.84 585.403 27.472 587.803 28.464C589.371 29.072 592.091 29.456 595.163 29.456C597.979 29.456 601.019 29.2 603.803 28.72C604.411 28.624 604.443 28.592 604.891 28.56L604.603 25.936C602.811 26.672 599.003 27.152 595.003 27.152C592.475 27.152 590.363 26.928 589.147 26.512C587.355 25.904 586.427 24.848 586.427 23.376C586.427 21.872 587.387 20.4 589.467 18.672L587.835 17.456ZM585.915 9.264C586.363 9.296 586.363 9.296 586.971 9.36C589.051 9.616 591.771 9.776 594.011 9.776C595.835 9.776 596.923 9.68 598.843 9.36C596.539 10.576 595.771 11.024 593.179 12.752L594.811 14.064C597.563 12.048 600.923 10.032 602.875 9.2L602.715 7.088C600.955 7.536 598.363 7.76 594.619 7.76C590.971 7.76 588.443 7.536 586.107 6.992L585.915 9.264ZM600.475 13.36C601.403 14.352 602.939 16.752 603.739 18.448L605.339 17.488C604.379 15.6 603.483 14.256 602.075 12.528L600.475 13.36ZM604.027 11.504C605.243 12.976 606.587 15.024 607.291 16.528L608.891 15.632C607.835 13.616 607.035 12.4 605.563 10.64L604.027 11.504ZM629.595 13.04H623.515C622.139 13.04 621.115 12.976 620.283 12.848V15.12C621.179 14.992 622.299 14.928 623.515 14.928H629.595V20.368H624.891C623.867 20.368 623.195 20.336 622.555 20.24C622.651 21.04 622.683 21.968 622.683 23.056V29.2C622.683 30.544 622.651 31.472 622.523 32.336H624.699V30.512H637.083V32.336H639.259C639.163 31.664 639.099 30.512 639.099 29.232V23.152C639.099 21.744 639.131 20.88 639.227 20.24C638.683 20.336 637.915 20.368 636.763 20.368H631.643V14.928H637.883C639.195 14.928 640.219 14.992 641.147 15.12V12.848C640.283 12.976 639.291 13.04 637.883 13.04H631.643V7.504C634.715 6.928 637.211 6.352 639.067 5.808C639.771 5.616 639.771 5.616 640.123 5.52L638.651 3.6C637.691 4.112 636.763 4.432 634.971 4.88C630.491 6.032 625.883 6.64 621.435 6.704C621.915 7.504 622.075 7.92 622.267 8.656C624.699 8.528 626.843 8.304 629.595 7.856V13.04ZM624.699 22.192H637.083V28.624H624.699V22.192ZM613.499 5.296C616.027 6.992 617.307 8.048 619.067 9.776L620.315 8.08C618.587 6.48 617.275 5.456 614.811 3.824L613.499 5.296ZM612.283 13.456C614.619 14.64 616.059 15.6 618.171 17.424L619.291 15.568C617.019 13.808 615.931 13.136 613.403 11.888L612.283 13.456ZM617.979 20.944C616.443 24.592 615.259 26.704 613.467 29.008C613.083 29.488 612.827 29.776 612.475 30.096L614.299 31.76C616.923 27.728 617.979 25.84 619.611 22.224L617.979 20.944ZM660.059 21.744H669.435V28.976C669.435 29.776 669.147 29.936 667.739 29.936C666.587 29.936 665.019 29.808 663.163 29.584C663.451 30.384 663.579 30.928 663.643 31.664C664.987 31.76 666.587 31.824 667.611 31.824C670.715 31.824 671.451 31.344 671.451 29.328V7.856C671.451 6.416 671.483 5.584 671.579 4.72C670.651 4.816 669.787 4.848 668.187 4.848H650.971C649.371 4.848 648.411 4.816 647.451 4.72C647.579 6.096 647.579 6.704 647.579 9.936C647.579 17.84 647.291 22.512 646.587 25.456C646.075 27.632 645.371 29.072 643.995 30.864C644.827 31.344 645.147 31.568 645.851 32.24C647.995 29.2 648.827 26.576 649.307 21.744H658.075V27.792C658.075 29.488 658.043 30.448 657.915 31.28H660.219C660.091 30.512 660.059 29.488 660.059 27.792V21.744ZM660.059 12.368V6.768H669.435V12.368H660.059ZM658.075 12.368H649.627L649.659 10.576V6.768H658.075V12.368ZM660.059 14.192H669.435V19.888H660.059V14.192ZM658.075 14.192V19.888H649.435C649.531 18.416 649.531 18.288 649.563 16.304C649.563 15.856 649.563 15.088 649.595 14.192H658.075ZM681.083 5.04C681.019 5.776 680.955 6.096 680.635 7.6C679.579 12.336 679.195 15.728 679.195 20.272C679.195 23.632 679.419 25.936 680.027 29.328C680.123 29.936 680.155 30.096 680.219 30.608L682.523 30.416C682.523 30.192 682.523 30.032 682.523 29.936C682.523 28.144 683.675 24.304 685.115 21.136L683.579 20.4C682.555 22.736 681.947 24.496 681.499 26.64C681.371 24.944 681.307 23.056 681.307 20.56C681.307 16.72 681.595 13.904 682.267 10.544C682.747 8.368 683.131 6.8 683.611 5.424L681.083 5.04ZM687.675 11.088C689.755 11.312 691.003 11.408 692.795 11.408C695.259 11.408 697.819 11.248 699.675 10.992C701.083 10.8 701.819 10.704 701.883 10.704L701.723 8.432C699.579 9.008 696.699 9.296 693.147 9.296C690.651 9.296 689.083 9.168 687.707 8.816L687.675 11.088ZM690.011 17.328C688.027 19.6 687.227 21.328 687.227 23.28C687.227 24.464 687.547 25.424 688.187 26.224C689.563 27.888 691.867 28.656 695.515 28.656C697.691 28.656 699.835 28.464 702.075 28.016C702.715 27.92 702.779 27.888 703.195 27.856L702.875 25.392C701.147 26.096 698.427 26.512 695.515 26.512C691.387 26.512 689.371 25.36 689.371 22.992C689.371 21.584 690.171 20.048 691.771 18.288L690.011 17.328ZM721.211 4.208C721.339 4.976 721.339 5.232 721.371 6.8C721.403 11.376 721.627 17.552 721.883 21.232C721.883 21.328 721.883 21.392 721.883 21.424C721.915 21.552 721.915 21.584 721.915 21.712C721.819 21.648 721.819 21.648 721.755 21.648C721.627 21.648 721.627 21.616 721.467 21.584C720.795 21.424 719.643 21.296 718.683 21.296C714.139 21.296 711.163 23.28 711.163 26.352C711.163 29.296 713.691 31.088 717.819 31.088C720.475 31.088 722.523 30.288 723.515 28.88C724.027 28.176 724.315 26.992 724.315 25.648C724.315 25.232 724.251 24.624 724.187 24.272C724.475 24.432 724.507 24.432 724.955 24.624C726.043 25.104 727.803 26.096 729.275 27.088C731.003 28.24 731.931 29.04 732.603 29.872L734.107 27.632C733.307 27.152 733.307 27.12 732.635 26.64C729.307 24.24 726.683 22.832 724.091 22.096C723.931 20.048 723.771 16.944 723.675 13.84C726.331 13.776 728.507 13.584 731.387 13.136C732.763 12.944 732.763 12.944 733.307 12.912L733.019 10.544C731.259 11.248 727.163 11.76 723.643 11.76C723.579 9.488 723.579 9.136 723.579 8.432C723.579 5.936 723.611 5.008 723.771 4.208H721.211ZM721.947 23.76C721.979 23.76 722.043 25.04 722.043 25.52C722.043 26.736 721.819 27.408 721.275 27.92C720.507 28.592 719.259 28.976 717.723 28.976C716.027 28.976 714.555 28.496 713.883 27.696C713.595 27.376 713.403 26.832 713.403 26.32C713.403 24.464 715.387 23.312 718.651 23.312C719.899 23.312 720.635 23.408 721.947 23.76ZM747.387 4.08C747.387 4.464 747.355 4.624 747.291 5.104C746.491 10.768 746.203 13.776 746.203 16.912C746.203 17.072 746.203 17.36 746.203 17.648L746.267 20.976L746.299 21.552C746.299 21.616 746.299 21.744 746.299 21.904L748.603 21.808C748.571 21.328 748.571 21.168 748.571 21.04C748.571 18.704 749.179 16.24 750.299 13.904C752.123 10.16 754.171 8.336 756.603 8.336C759.675 8.336 761.467 11.312 761.467 16.464C761.467 21.584 759.707 24.944 755.963 27.088C754.107 28.144 752.443 28.656 749.467 29.104C750.171 29.968 750.363 30.32 750.747 31.28C752.987 30.8 754.907 30.16 756.443 29.392C761.243 26.992 763.835 22.608 763.835 16.816C763.835 13.392 763.259 11.024 761.915 9.04C760.667 7.184 758.875 6.192 756.795 6.192C754.299 6.192 752.187 7.568 750.395 10.32C749.467 11.76 748.827 13.328 748.443 15.088C748.283 15.76 748.283 15.76 748.219 16.016L748.091 15.984C748.187 14.352 748.635 10.864 749.147 7.632C749.435 5.904 749.627 5.008 749.883 4.336L747.387 4.08Z" fill="#20AEE5"/>
<path d="M24.7128 119.84V126.912C24.7128 127.712 24.4568 127.904 23.5288 127.904C21.9928 127.904 20.5528 127.808 18.9528 127.584C19.2408 128.416 19.3688 128.928 19.4648 129.76C20.9048 129.856 22.2488 129.888 23.3048 129.888C24.7448 129.888 25.3528 129.792 25.8648 129.472C26.4728 129.056 26.7608 128.384 26.7608 127.232V106.176C26.7608 104.544 26.7928 103.744 26.8888 102.88C25.8008 103.008 24.9688 103.04 23.5608 103.04H11.5288C10.1528 103.04 9.32075 103.008 8.16875 102.88C8.26475 104.096 8.29675 105.376 8.29675 108.32C8.29675 115.424 7.94475 119.36 7.04875 122.4C6.28075 124.992 5.25675 126.688 3.27275 128.672C4.00875 129.184 4.45675 129.632 5.03275 130.368C6.82475 128.32 7.72075 126.912 8.55275 124.8C9.16075 123.296 9.57675 121.696 9.86475 119.84H24.7128ZM10.0888 117.92C10.3448 115.2 10.4088 113.984 10.4408 112.224H24.7128V117.92H10.0888ZM10.4408 110.304V109.536L10.4728 104.992H24.7128V110.304H10.4408ZM37.1608 127.2C37.1608 128.448 37.0968 129.44 37.0328 130.112H39.0168V128.096H44.2328C45.5128 128.128 46.2808 128.128 46.6008 128.16C46.5368 127.488 46.5368 127.488 46.5368 125.344V122.496C46.5368 121.184 46.5688 120.384 46.6648 119.68C46.0888 119.776 45.5448 119.808 44.3928 119.808H39.4328C38.7928 119.808 38.5368 119.808 38.0568 119.776C39.8808 118.592 40.8408 117.824 42.0888 116.672C43.9448 118.144 45.6408 119.168 48.1368 120.32C48.3928 119.52 48.6168 119.104 49.0008 118.56C46.4408 117.536 44.9368 116.704 43.2728 115.488C44.4888 114.144 45.1608 113.216 46.4088 111.2C46.8568 110.464 46.8568 110.464 47.1448 110.08L46.0568 108.96C45.5768 109.056 44.9688 109.12 44.2008 109.12H40.8088C41.0008 108.768 41.0968 108.608 41.2568 108.288C41.6408 107.552 41.6408 107.552 41.8008 107.296L39.9448 106.752C39.7528 107.52 39.4648 108.192 38.8568 109.184C37.5768 111.328 36.3928 112.672 34.2808 114.24C34.7608 114.624 35.1448 115.04 35.5288 115.616C36.6488 114.688 37.5448 113.792 38.3448 112.832C39.1768 113.952 39.8168 114.688 40.8088 115.584C38.9208 117.312 36.6168 118.72 33.8968 119.872C34.4088 120.352 34.6968 120.8 34.9848 121.504C36.0728 120.96 36.4568 120.736 37.0968 120.352C37.1288 121.056 37.1608 121.696 37.1608 122.368V127.2ZM44.7128 110.72C43.7848 112.32 43.1448 113.184 41.9608 114.432C40.8408 113.44 40.3288 112.896 39.3368 111.52C39.5928 111.104 39.6888 111.008 39.8488 110.72H44.7128ZM39.0168 121.44H44.7128V126.432H39.0168V121.44ZM40.9048 104.704H37.5128C36.0408 104.704 35.3688 104.672 34.8888 104.608C34.9848 105.376 35.0168 105.952 35.0168 106.592V108C35.0168 108.704 34.9848 109.248 34.8888 109.824H36.8408V106.368H46.8248V109.408H48.6488C48.5848 109.056 48.5528 108.256 48.5528 107.584V106.528C48.5528 105.664 48.5848 105.152 48.6488 104.608C48.1368 104.672 47.5288 104.704 46.0568 104.704H42.8568V103.712C42.8568 102.72 42.8888 102.208 43.0488 101.536H40.7128C40.8408 102.208 40.9048 102.752 40.9048 103.68V104.704ZM55.1128 104.288C54.7928 105.472 54.4408 106.496 53.9288 107.776H52.2008C50.8568 107.776 50.1848 107.744 49.4167 107.68C49.5128 108.384 49.5448 109.376 49.5448 110.688V121.312C49.5448 122.368 49.5128 123.264 49.4488 124.224C50.4408 124.16 51.2408 124.128 52.2008 124.128H59.1768C60.1688 124.128 60.9688 124.16 61.9288 124.224C61.8648 123.232 61.8328 122.464 61.8328 121.152V110.56C61.8328 109.28 61.8648 108.544 61.9288 107.648C61.3208 107.744 60.5208 107.776 59.0488 107.776H55.8488C56.3928 106.528 56.7128 105.6 57.0968 104.288H60.1688C61.6728 104.288 62.3128 104.32 63.3048 104.48V102.304C62.6008 102.432 61.7368 102.496 60.1688 102.496H51.5928C49.9928 102.496 49.3528 102.464 48.4568 102.304V104.48C49.2568 104.352 50.1208 104.288 51.5928 104.288H55.1128ZM51.4008 109.504H59.9448V112.576H51.4008V109.504ZM51.4008 114.272H59.9448V117.44H51.4008V114.272ZM51.4008 119.136H59.9448V122.432H51.4008V119.136ZM56.4568 125.824C58.5048 127.904 60.0728 129.088 62.8888 130.592C63.2408 129.92 63.6568 129.376 64.2008 128.8C61.3208 127.456 59.9448 126.528 57.9288 124.64L56.4568 125.824ZM52.7128 124.608C50.7288 126.688 49.1287 127.776 46.2488 128.96C46.7928 129.472 47.2408 129.952 47.5928 130.592C50.4728 129.184 52.1368 128 54.2808 125.824L52.7128 124.608ZM73.5448 110.304H70.2168C68.6808 110.304 67.9128 110.272 67.1768 110.112V112.288C68.0408 112.16 68.9048 112.096 70.1848 112.096H73.2248C72.7128 113.664 71.7848 115.68 70.7608 117.44C69.5128 119.552 68.3288 121.024 66.4088 122.816C66.9208 123.328 67.2728 123.808 67.7208 124.64C70.6008 121.536 72.1688 118.976 73.6728 114.944C73.5448 117.696 73.5128 118.592 73.5128 120.384V126.624C73.5128 128.352 73.4488 129.408 73.2888 130.528H75.6568C75.4968 129.6 75.4648 128.576 75.4648 126.624V119.968C75.4648 118.528 75.4008 116.352 75.3048 114.56C76.5528 117.12 77.4808 118.432 79.8488 120.896C80.2008 120.192 80.4888 119.776 81.0328 119.168C79.0808 117.44 78.0568 116.352 77.0648 114.912C76.3288 113.888 76.0728 113.44 75.5288 112.096H78.5368C79.8168 112.096 80.5848 112.128 81.3848 112.256V110.144C80.5528 110.272 79.7208 110.304 78.6008 110.304H75.4648V105.312C77.0648 104.864 78.1848 104.48 79.6568 103.936C80.4248 103.68 80.4248 103.68 80.9368 103.488L79.4968 101.792C78.9528 102.144 78.5688 102.336 77.4168 102.72C73.7688 104.032 71.2088 104.64 67.2728 105.152C67.7208 105.792 67.9448 106.24 68.2008 106.976C70.5688 106.56 71.5608 106.336 73.5448 105.856V110.304ZM83.6248 103.712C83.7528 104.704 83.8168 105.568 83.8168 107.36V119.712C83.8168 121.856 83.7847 122.528 83.6568 123.424H86.0248C85.8968 122.528 85.8648 121.888 85.8648 119.712V107.36C85.8648 105.504 85.8968 104.736 86.0248 103.712H83.6248ZM91.4648 101.92C91.5928 102.944 91.6568 104.128 91.6568 105.952V126.912C91.6568 127.712 91.4008 127.872 90.1208 127.872C89.0648 127.872 87.6888 127.776 85.9928 127.584C86.3448 128.384 86.5048 128.864 86.6648 129.696C87.6888 129.76 89.0328 129.792 89.9288 129.792C92.9688 129.792 93.7368 129.248 93.7368 126.976V105.952C93.7368 104.16 93.8008 102.976 93.9608 101.92H91.4648ZM114.153 119.744H123.529V126.976C123.529 127.776 123.241 127.936 121.833 127.936C120.681 127.936 119.113 127.808 117.257 127.584C117.545 128.384 117.673 128.928 117.737 129.664C119.081 129.76 120.681 129.824 121.705 129.824C124.809 129.824 125.545 129.344 125.545 127.328V105.856C125.545 104.416 125.577 103.584 125.673 102.72C124.745 102.816 123.881 102.848 122.281 102.848H105.065C103.465 102.848 102.505 102.816 101.545 102.72C101.673 104.096 101.673 104.704 101.673 107.936C101.673 115.84 101.385 120.512 100.681 123.456C100.169 125.632 99.4648 127.072 98.0888 128.864C98.9208 129.344 99.2408 129.568 99.9448 130.24C102.089 127.2 102.921 124.576 103.401 119.744H112.169V125.792C112.169 127.488 112.137 128.448 112.009 129.28H114.313C114.185 128.512 114.153 127.488 114.153 125.792V119.744ZM114.153 110.368V104.768H123.529V110.368H114.153ZM112.169 110.368H103.721L103.753 108.576V104.768H112.169V110.368ZM114.153 112.192H123.529V117.888H114.153V112.192ZM112.169 112.192V117.888H103.529C103.625 116.416 103.625 116.288 103.657 114.304C103.657 113.856 103.657 113.088 103.689 112.192H112.169ZM154.089 120.096L145.353 122.176C144.137 122.464 143.081 122.656 142.281 122.688L142.697 124.96C143.465 124.672 144.393 124.384 145.673 124.096L154.089 122.048V126.88C154.089 128.704 154.057 129.536 153.897 130.4H156.329C156.201 129.472 156.137 128.448 156.137 126.912V121.568L156.873 121.376C158.121 121.088 159.145 120.896 159.945 120.832L159.561 118.592C158.857 118.88 158.057 119.136 156.617 119.488L156.137 119.584V104.864C156.137 103.36 156.201 102.496 156.329 101.536H153.897C154.025 102.336 154.089 103.2 154.089 104.896V120.096ZM136.329 114.24C135.657 116.224 135.337 116.96 134.537 118.528C133.385 120.768 132.329 122.272 130.729 123.904C131.241 124.448 131.497 124.832 131.945 125.696C134.121 123.232 135.529 120.608 136.873 116.544C136.777 118.24 136.713 120.032 136.713 121.504V126.944C136.713 128.416 136.649 129.408 136.521 130.496H138.857C138.729 129.472 138.665 128.512 138.665 126.976V120.992C138.665 120.384 138.569 117.536 138.505 116.256C139.433 118.4 140.329 119.712 142.249 121.888C142.505 121.376 142.921 120.736 143.369 120.16C141.417 118.432 140.169 116.832 138.793 114.24H140.553C141.545 114.24 142.281 114.272 142.953 114.368V112.352C142.313 112.448 141.673 112.48 140.585 112.48H138.665V104.896C138.665 103.264 138.729 102.304 138.857 101.504H136.521C136.649 102.336 136.713 103.36 136.713 104.928V112.48H134.185C132.777 112.48 132.041 112.448 131.401 112.32V114.4C132.169 114.272 132.841 114.24 134.185 114.24H136.329ZM131.561 104.256C132.553 106.464 133.097 108.192 133.673 111.104L135.369 110.368C134.761 107.648 134.313 106.24 133.225 103.52L131.561 104.256ZM141.897 103.424C141.225 106.592 140.745 108.032 139.561 110.368L141.129 111.104C142.313 108.64 142.313 108.608 143.721 104.128L141.897 103.424ZM145.129 105.344C147.721 107.136 148.809 108.128 150.953 110.528L152.265 108.864C150.345 106.816 149.289 105.888 146.505 103.872L145.129 105.344ZM144.137 113.344C146.697 115.008 147.977 116.096 149.929 118.336L151.273 116.736C149.609 114.88 148.233 113.728 145.545 111.872L144.137 113.344ZM184.265 102.88C185.225 103.904 186.761 106.272 187.561 107.968L189.161 107.008C188.201 105.12 187.305 103.776 185.865 102.048L184.265 102.88ZM163.657 112.736C165.097 112.32 165.993 112.16 170.089 111.584C168.649 117.632 165.897 124.032 163.241 127.52L165.417 128.8C168.745 122.944 170.985 117.376 172.329 111.392C173.513 111.264 173.929 111.232 174.633 111.232C177.609 111.232 178.569 112.32 178.569 115.712C178.569 119.296 178.089 122.56 177.225 124.608C176.809 125.632 176.201 126.144 175.401 126.144C174.249 126.144 172.457 125.6 170.633 124.672C170.729 125.248 170.729 125.44 170.729 125.92C170.729 126.368 170.729 126.592 170.665 127.072C172.777 127.968 174.121 128.32 175.497 128.32C177.001 128.32 177.865 127.904 178.633 126.816C179.945 124.96 180.777 120.704 180.777 115.808C180.777 113.184 180.329 111.712 179.209 110.656C178.217 109.696 176.873 109.312 174.601 109.312C173.865 109.312 173.449 109.344 172.713 109.408C172.969 108.032 173.257 106.56 173.385 105.76C173.641 104.032 173.801 103.296 173.993 102.688L171.433 102.4C171.433 102.592 171.433 102.752 171.433 102.816C171.433 104.16 171.017 107.2 170.473 109.6C165.769 110.272 164.553 110.4 163.401 110.432L163.657 112.736ZM187.913 101.184C189.161 102.624 190.505 104.704 191.177 106.208L192.777 105.28C191.721 103.264 190.921 102.08 189.481 100.32L187.913 101.184ZM182.537 108.48C185.417 111.328 188.009 115.904 189.065 119.968L191.113 118.816C189.769 114.592 187.593 110.88 184.425 107.488L182.537 108.48ZM198.089 115.36V126.24C196.745 126.368 195.657 126.432 195.113 126.432C195.049 126.432 195.049 126.432 194.569 126.432L195.081 128.544C196.009 128.32 196.617 128.224 197.449 128.096C202.377 127.424 202.377 127.424 206.441 126.688V127.488C206.441 128.896 206.377 129.696 206.249 130.464H208.457C208.297 129.664 208.265 128.928 208.265 127.488V115.36H220.489C221.737 115.36 222.441 115.392 223.433 115.552V113.472C222.601 113.632 221.897 113.664 220.457 113.664H197.481C196.073 113.664 195.337 113.632 194.569 113.472V115.552C195.561 115.392 196.233 115.36 197.449 115.36H198.089ZM199.977 115.36H206.441V117.632H199.977V115.36ZM199.977 119.136H206.441V121.504H199.977V119.136ZM199.977 123.008H206.441V125.056C203.657 125.568 202.697 125.728 199.977 126.016V123.008ZM220.457 117.472C219.977 117.568 219.209 117.6 218.025 117.6H212.073C210.793 117.6 210.089 117.568 209.353 117.472V119.36C210.025 119.296 210.409 119.264 210.921 119.232C211.977 121.952 212.809 123.296 214.441 125.088C212.809 126.432 211.497 127.168 208.937 128.224C209.545 128.8 209.769 129.088 210.185 129.856C212.713 128.64 213.833 127.936 215.721 126.336C217.449 127.84 219.305 128.96 222.025 130.112C222.377 129.472 222.825 128.8 223.241 128.352C220.649 127.456 218.793 126.496 217.065 125.088C218.505 123.648 219.465 122.304 221.001 119.584C221.257 119.136 221.353 118.976 221.577 118.656L220.457 117.472ZM219.081 119.232C217.833 121.472 217.065 122.528 215.721 123.904C214.345 122.432 213.705 121.44 212.713 119.232H219.081ZM219.657 104.992C219.657 103.84 219.689 103.2 219.785 102.432C218.697 102.528 217.801 102.56 216.329 102.56H201.865C200.393 102.56 199.465 102.528 198.377 102.432C198.473 103.168 198.505 103.936 198.505 104.992V109.344C198.505 110.368 198.473 111.136 198.377 111.872C199.529 111.776 200.425 111.744 201.833 111.744H216.489C217.737 111.744 218.761 111.776 219.785 111.872C219.689 111.072 219.657 110.496 219.657 109.344V104.992ZM200.393 104.192H217.769V106.432H200.393V104.192ZM200.393 107.968H217.769V110.208H200.393V107.968ZM251.337 111.264C252.937 111.264 253.833 111.328 254.857 111.488V108.992C253.993 109.152 252.937 109.216 251.305 109.216H241.609C241.705 107.84 241.737 106.912 241.769 105.28C241.769 103.712 241.833 103.008 241.993 101.952H239.369C239.497 102.816 239.593 103.968 239.593 105.44C239.593 106.688 239.561 107.68 239.465 109.216H230.633C228.937 109.216 227.881 109.152 227.049 108.992V111.488C227.977 111.328 228.873 111.264 230.569 111.264H239.273C238.665 116.16 237.321 119.552 234.825 122.432C232.745 124.832 230.409 126.4 226.409 128.032C227.081 128.736 227.337 129.088 227.785 129.984C230.921 128.544 232.681 127.424 234.697 125.632C237.961 122.688 240.073 118.816 240.937 114.144C243.241 121.472 247.209 126.144 254.377 129.952C254.889 128.928 255.145 128.576 255.785 127.808C252.137 126.24 249.449 124.288 247.113 121.568C244.681 118.72 242.985 115.36 241.897 111.264H251.337ZM272.105 127.808C273.705 127.808 274.761 127.872 276.041 128V125.312C274.825 125.472 273.737 125.536 272.137 125.536H261.929C262.313 124 262.761 123.136 263.753 121.824C264.809 120.48 265.833 119.584 268.361 117.888C272.009 115.456 272.841 114.848 273.801 113.76C275.049 112.384 275.689 110.848 275.689 109.216C275.689 105.44 272.585 103.008 267.753 103.008C264.937 103.008 262.761 103.84 261.321 105.472C260.265 106.656 259.785 107.776 259.305 110.08L261.993 110.528C262.217 108.928 262.505 108.16 263.113 107.296C264.073 105.92 265.641 105.216 267.753 105.216C271.017 105.216 273.065 106.784 273.065 109.216C273.065 111.168 272.009 112.576 268.841 114.72C265.129 117.248 265.065 117.28 263.945 118.24C261.929 119.968 260.585 121.728 259.785 123.744C259.305 124.96 259.209 125.44 258.857 127.968C259.881 127.84 260.361 127.808 262.377 127.808H272.105ZM285.424 120.288H282.992C281.584 120.288 280.688 120.224 279.76 120.096V122.4C280.688 122.272 281.68 122.208 282.992 122.208H294.544V127.488C294.544 128.96 294.512 129.664 294.352 130.464H296.88C296.72 129.632 296.656 128.864 296.656 127.488V122.208H304.72C306.032 122.208 307.024 122.272 307.952 122.4V120.096C307.056 120.224 306.16 120.288 304.72 120.288H296.656V114.016H302.48C303.696 114.016 304.464 114.048 305.296 114.144V112.032C304.464 112.16 303.76 112.192 302.448 112.192H296.656V106.976H303.888C305.2 106.976 305.968 107.008 306.768 107.136V104.96C305.968 105.088 305.296 105.12 303.888 105.12H288.016L289.232 102.528C289.424 102.144 289.52 101.92 289.648 101.664L287.376 101.024C287.216 101.696 286.992 102.432 286.576 103.36C285.072 106.944 283.344 109.28 280.176 111.968C280.88 112.448 281.2 112.768 281.712 113.504C283.856 111.584 285.392 109.696 287.024 106.976H294.544V112.192H287.6C286.704 112.192 286 112.16 285.328 112.096C285.392 112.736 285.424 113.28 285.424 113.984V120.288ZM287.504 120.288V114.016H294.544V120.288H287.504ZM322.544 114.816C322.32 117.632 321.872 119.392 320.816 121.408C319.28 124.32 316.848 126.432 312.752 128.416C313.424 129.056 313.744 129.472 314.16 130.208C318.064 128.192 320.56 126.016 322.224 123.232C323.696 120.736 324.432 118.336 324.72 114.816H332.176C332.176 120.352 331.792 124.704 331.12 126.656C330.896 127.264 330.544 127.456 329.52 127.456C328.368 127.456 326.768 127.264 325.008 126.912C325.328 127.84 325.424 128.32 325.52 129.184C327.536 129.376 328.656 129.44 329.712 129.44C331.568 129.44 332.336 129.12 332.88 128.16C333.712 126.656 334.32 121.248 334.32 115.04C334.352 113.6 334.352 113.344 334.448 112.768C333.52 112.896 332.56 112.928 331.088 112.928H320.56C319.248 112.928 318.16 112.864 317.232 112.736V115.008C318.224 114.88 319.312 114.816 320.528 114.816H322.544ZM321.232 101.536C321.072 102.496 320.656 103.488 319.856 104.896C317.712 108.736 314.96 111.68 311.088 114.272C311.824 114.88 312.24 115.36 312.656 116C317.168 112.672 320.272 108.96 322.736 104C323.216 103.008 323.344 102.752 323.632 102.368L321.232 101.536ZM328.336 102.432C328.496 102.688 328.688 103.04 328.848 103.328C331.856 109.216 334.576 112.448 339.632 116.192C340.112 115.36 340.528 114.816 341.136 114.24C336.752 111.36 334.032 108.48 331.696 104.288C331.024 103.072 330.736 102.432 330.48 101.6L328.336 102.432ZM359.728 106.784C361.328 106.848 362.256 107.072 363.44 107.584C366.672 109.024 368.528 111.968 368.528 115.616C368.528 119.552 366.384 122.976 362.864 124.576C361.36 125.28 359.856 125.696 357.52 126.08C358.128 126.848 358.32 127.168 358.64 128.224C360.848 127.744 362.064 127.36 363.504 126.752C368.144 124.768 370.832 120.672 370.832 115.712C370.832 112.64 369.744 109.856 367.728 107.904C365.648 105.856 362.512 104.736 358.928 104.736C354.64 104.736 351.152 106.176 348.592 108.992C346.448 111.392 345.232 114.56 345.232 117.824C345.232 122.304 347.504 125.632 350.544 125.632C352.848 125.632 354.736 123.712 356.592 119.488C358.032 116.128 359.248 111.232 359.728 106.784ZM357.424 106.816C357.008 110.912 355.824 115.648 354.512 118.656C353.136 121.792 351.856 123.296 350.512 123.296C348.784 123.296 347.44 120.928 347.44 117.856C347.44 113.888 349.424 110.272 352.656 108.32C354.128 107.424 355.504 106.976 357.424 106.816ZM384.624 112.896C383.888 114.496 383.344 115.488 382.544 116.608C381.904 115.872 381.712 115.584 381.264 114.88C382.672 112.8 383.536 111.264 384.592 108.896C384.816 108.384 385.008 108 385.104 107.872L384.208 106.752C383.888 106.816 383.6 106.848 382.704 106.848H381.296V103.744C381.296 102.88 381.36 102.016 381.456 101.344H379.28C379.376 101.984 379.44 102.72 379.44 103.776V106.848H378.352C377.072 106.848 376.496 106.816 375.856 106.688V108.768C376.592 108.672 377.424 108.608 378.448 108.608H382.672C381.2 112.64 378.576 116.288 375.12 119.104C375.664 119.776 375.888 120.16 376.144 120.864C377.488 119.648 378.512 118.56 379.536 117.184C379.504 118.048 379.44 119.936 379.44 120.352V127.2C379.44 128.416 379.376 129.632 379.248 130.496H381.488C381.36 129.696 381.296 128.512 381.296 127.168V119.776C381.296 119.456 381.264 118.624 381.232 117.248C382.352 118.848 383.12 119.68 384.624 121.088C385.008 120.288 385.104 120.16 385.68 119.52C384.688 118.784 384.336 118.464 383.6 117.728C384.4 116.672 385.072 115.648 386.064 114.016L384.624 112.896ZM388.432 123.04H393.488V127.296C393.488 128.608 393.456 129.344 393.36 130.08H395.504C395.408 129.312 395.376 128.576 395.376 127.264V123.04H401.072V127.136C401.072 127.808 400.944 127.936 400.24 127.936C399.376 127.936 399.024 127.904 397.392 127.712C397.744 128.512 397.808 128.864 397.904 129.728C398.864 129.792 399.344 129.824 400.08 129.824C401.52 129.824 401.968 129.76 402.352 129.408C402.8 129.056 402.96 128.544 402.96 127.616V113.216C402.96 111.68 402.992 110.848 403.088 110.112C402.352 110.24 401.392 110.272 400.048 110.272H395.376V107.072H401.136C402.448 107.072 403.248 107.104 403.984 107.2V105.088C403.184 105.216 402.32 105.28 401.168 105.28H395.376V104.288C395.376 103.04 395.44 102.24 395.568 101.344H393.296C393.424 102.208 393.488 103.104 393.488 104.256V105.28H388.048C386.864 105.28 386.224 105.248 385.456 105.12V107.2C386.256 107.104 386.992 107.072 387.984 107.072H393.488V110.272H389.456C388.24 110.272 387.248 110.24 386.416 110.112C386.512 110.848 386.544 111.424 386.544 113.152V127.232C386.544 128.608 386.48 129.568 386.352 130.496H388.592C388.496 129.824 388.432 128.736 388.432 127.2V123.04ZM388.432 121.376V117.376H393.488V121.376H388.432ZM388.432 115.712V111.968H393.488V115.712H388.432ZM395.376 121.376V117.376H401.072V121.376H395.376ZM395.376 115.712V111.968H401.072V115.712H395.376ZM402.16 103.68C400.496 102.464 400.08 102.208 398.128 101.216L396.816 102.304C398.384 103.104 399.376 103.744 400.848 104.896L402.16 103.68ZM428.304 108.736C428.368 107.232 428.4 105.952 428.4 104.16C428.432 102.944 428.464 102.464 428.592 101.664H426.16C426.32 102.496 426.352 103.104 426.352 105.024C426.352 106.304 426.32 107.424 426.288 108.736H424.432C422.96 108.736 422.032 108.672 421.072 108.544V110.848C422.032 110.72 423.088 110.656 424.368 110.656H426.16C425.744 116.608 424.72 120.384 422.736 123.648C421.488 125.664 420.336 126.88 417.776 128.736C418.544 129.28 418.928 129.632 419.472 130.304C421.648 128.512 422.576 127.552 423.76 125.824C425.104 123.936 426.064 121.92 426.768 119.584C427.504 117.12 427.952 114.304 428.208 110.656H433.52C433.424 114.528 433.392 115.488 433.296 117.312C433.104 120.832 432.688 124 432.208 125.792C431.856 127.104 431.536 127.36 430.288 127.36C429.168 127.36 427.92 127.264 426.256 127.008C426.448 127.776 426.544 128.352 426.608 129.152C429.168 129.312 429.168 129.312 430.224 129.312C431.888 129.312 432.624 129.12 433.168 128.608C433.712 128.032 434.096 127.04 434.416 125.184C435.024 121.856 435.344 118.144 435.504 112.704C435.6 109.472 435.6 109.216 435.696 108.576C434.736 108.704 433.936 108.736 432.656 108.736H428.304ZM419.888 122.528V106.816C419.888 105.216 419.92 104.064 420.016 103.296C419.248 103.392 418.608 103.424 417.488 103.424H412.176C411.056 103.424 410.352 103.392 409.616 103.296C409.712 104.128 409.744 105.28 409.744 106.816V125.184C408.368 125.472 407.92 125.536 407.152 125.6L407.664 127.84C408.336 127.616 408.624 127.52 409.296 127.36C415.12 125.856 416.56 125.44 421.904 123.744V121.888L419.888 122.528ZM411.728 118.624H417.936V123.104C415.728 123.712 413.84 124.224 411.728 124.736V118.624ZM411.728 116.864V111.968H417.936V116.864H411.728ZM411.728 110.208V105.28H417.936V110.208H411.728ZM441.04 109.344C442.192 109.056 445.712 108.736 452.08 108.288C455.44 108.064 457.296 107.904 459.12 107.584C457.904 108.16 457.072 108.608 456.08 109.28C452.272 111.872 450.096 115.392 450.096 119.104C450.096 121.76 451.376 124.096 453.648 125.632C455.472 126.88 457.392 127.552 460.56 128.096C461.136 128.192 461.2 128.224 461.552 128.288L461.968 125.696C461.84 125.696 461.712 125.696 461.648 125.696C460.432 125.696 458.416 125.248 456.848 124.672C454 123.584 452.368 121.44 452.368 118.752C452.368 116.096 453.744 113.504 456.304 111.36C458.064 109.856 460.304 108.704 462.448 108.16C463.664 107.84 464.752 107.712 466.032 107.712L465.84 105.344C465.392 105.472 464.784 105.536 462.032 105.696L460.208 105.76C459.152 105.792 458.736 105.824 454.8 106.048L449.776 106.368C445.84 106.592 445.648 106.624 443.856 106.752C442.864 106.816 442.48 106.848 442.032 106.848C441.808 106.848 441.488 106.848 440.88 106.816L441.04 109.344ZM460.688 112.416C461.648 113.408 463.184 115.808 463.952 117.504L465.584 116.544C464.624 114.656 463.728 113.312 462.288 111.584L460.688 112.416ZM464.336 110.688C465.584 112.16 466.896 114.208 467.6 115.712L469.2 114.816C468.144 112.8 467.344 111.584 465.904 109.824L464.336 110.688Z" fill="#20AEE5"/>
<path d="M487 122H663V143H487V122Z" fill="#E1F0F8"/>
<path d="M521.016 74.552L506.456 86.512L499.176 77.88L522.16 59.368H533.496V133H521.016V74.552Z" fill="#20AEE5"/>
<path d="M558.104 133.608L550.136 130.728L580.088 56.232L588.056 59.304L558.104 133.608Z" fill="#20AEE5"/>
<path d="M623.192 117.712H589.184V106.688L620.488 59.368H635.464V107H645.76V117.712H635.464V133H623.192V117.712ZM623.192 74.032H622.984L602.08 107H623.192V74.032Z" fill="#20AEE5"/>
<path d="M695.728 108.784C697.328 108.848 698.256 109.072 699.44 109.584C702.672 111.024 704.528 113.968 704.528 117.616C704.528 121.552 702.384 124.976 698.864 126.576C697.36 127.28 695.856 127.696 693.52 128.08C694.128 128.848 694.32 129.168 694.64 130.224C696.848 129.744 698.064 129.36 699.504 128.752C704.144 126.768 706.832 122.672 706.832 117.712C706.832 114.64 705.744 111.856 703.728 109.904C701.648 107.856 698.512 106.736 694.928 106.736C690.64 106.736 687.152 108.176 684.592 110.992C682.448 113.392 681.232 116.56 681.232 119.824C681.232 124.304 683.504 127.632 686.544 127.632C688.848 127.632 690.736 125.712 692.592 121.488C694.032 118.128 695.248 113.232 695.728 108.784ZM693.424 108.816C693.008 112.912 691.824 117.648 690.512 120.656C689.136 123.792 687.856 125.296 686.512 125.296C684.784 125.296 683.44 122.928 683.44 119.856C683.44 115.888 685.424 112.272 688.656 110.32C690.128 109.424 691.504 108.976 693.424 108.816ZM736.944 122.832C738.16 122.832 738.992 122.896 739.952 123.024V120.88C739.12 121.008 738.32 121.072 736.976 121.072H726.032C726.288 119.952 726.352 119.376 726.512 118H732.976C734.32 118 734.96 118.032 735.728 118.16V116.144C734.896 116.272 734.384 116.304 732.976 116.304H726.64C726.704 115.248 726.736 114.48 726.768 113.456H733.488C734.832 113.456 735.632 113.488 736.56 113.648V111.568C735.728 111.696 734.928 111.76 733.488 111.76H726.8C726.8 110.288 726.832 109.744 726.96 109.168H724.592C724.752 109.872 724.752 110.288 724.784 111.76H718.576C717.168 111.76 716.336 111.696 715.504 111.568V113.648C716.368 113.52 717.232 113.456 718.576 113.456H724.752C724.72 114.704 724.72 115.056 724.656 116.304H718.704C717.296 116.304 716.752 116.272 715.92 116.144V118.16C716.656 118.032 717.36 118 718.704 118H724.496C724.368 119.536 724.272 120.048 724.048 121.072H715.28C713.936 121.072 713.168 121.008 712.336 120.88V123.024C713.296 122.896 714.16 122.832 715.312 122.832H723.44C722.448 124.976 721.04 126.448 718.736 127.792C716.784 128.912 715.12 129.488 711.888 130.096C712.528 130.96 712.752 131.312 713.072 132.112C716.272 131.312 718.192 130.544 720.336 129.168C722.768 127.6 724.304 125.744 725.36 123.184C728.432 127.824 732.368 130.384 739.152 132.176C739.504 131.344 739.856 130.736 740.368 130.096C736.4 129.296 733.936 128.368 731.504 126.832C729.808 125.712 728.592 124.56 727.344 122.832H736.944ZM724.72 106.512H715.92C714.544 106.512 713.712 106.48 712.688 106.384C712.784 107.056 712.816 107.696 712.816 108.56V110.416C712.816 111.376 712.784 111.92 712.688 112.624H714.8V108.272H737.328V112.624H739.408C739.312 111.984 739.28 111.344 739.28 110.416V108.528C739.28 107.696 739.312 107.056 739.408 106.384C738.384 106.48 737.552 106.512 736.208 106.512H726.8V105.296C726.8 104.56 726.864 104.016 726.992 103.312H724.496C724.656 104.048 724.72 104.56 724.72 105.296V106.512ZM751.696 109.808V111.376C751.696 111.984 751.632 112.784 751.568 113.328H753.712C753.648 112.88 753.584 111.984 753.584 111.344V109.808H754.896C755.952 109.808 756.656 109.84 757.424 109.968V107.952C756.72 108.08 756.016 108.112 754.864 108.112H747.888C747.92 107.504 747.92 107.184 747.952 106.288C752.24 105.968 753.392 105.776 757.264 104.592L755.824 102.992C754.512 103.632 753.584 103.92 751.856 104.208C750.448 104.464 747.664 104.72 746.576 104.72C746.416 104.72 746.192 104.72 745.872 104.72C746 105.392 746.064 106.288 746.064 107.056C746.064 110.704 745.264 112.848 743.216 114.64C743.952 115.216 744.304 115.568 744.784 116.144C746.48 114.352 747.376 112.464 747.728 109.808H751.696ZM760.688 108.112C760.752 107.408 760.752 107.12 760.816 106.256C764.592 106.032 766.416 105.744 768.496 105.168C770.064 104.72 770.064 104.72 770.544 104.592L769.072 102.992C767.792 103.6 766.512 103.952 764.368 104.272C762.768 104.496 760.784 104.688 759.728 104.688C759.44 104.688 759.248 104.688 758.832 104.656C758.896 105.104 758.928 105.52 758.928 106.16C758.928 107.6 758.736 109.104 758.448 110.032C758.096 111.088 757.744 111.664 756.912 112.496C757.584 112.912 758.064 113.328 758.48 113.808C759.6 112.368 760.08 111.44 760.432 109.808H765.008V111.44C765.008 112.08 764.944 112.848 764.88 113.328H767.024C766.96 112.912 766.896 112.048 766.896 111.408V109.808H769.36C770.512 109.808 771.152 109.84 771.952 109.968V107.952C771.152 108.08 770.48 108.112 769.36 108.112H760.688ZM752.912 127.696C751.376 128.656 750.576 129.04 749.104 129.52C747.344 130.128 746.16 130.352 743.696 130.64C744.4 131.536 744.496 131.696 744.848 132.528C749.04 131.76 751.248 130.96 754.576 128.976L752.912 127.696ZM761.2 128.976C764.56 131.024 766.736 131.824 770.992 132.624C771.344 131.76 771.6 131.312 772.08 130.704C768.08 130.192 766.064 129.552 762.768 127.792L761.2 128.976ZM751.248 114C749.776 114 748.72 113.968 747.696 113.872C747.824 114.96 747.856 115.824 747.856 117.488V123.824C747.856 125.648 747.824 126.672 747.696 127.472C748.592 127.376 749.712 127.344 751.152 127.344H764.912C766.384 127.344 767.44 127.376 768.336 127.472C768.208 126.768 768.176 125.744 768.176 123.888V117.52C768.176 115.728 768.208 114.864 768.336 113.872C767.28 113.968 766.256 114 764.72 114H751.248ZM749.84 115.632H766.224V117.936H749.84V115.632ZM749.84 119.472H766.224V121.776H749.84V119.472ZM749.84 123.312H766.224V125.68H749.84V123.312ZM794.608 112.016V110.096H799.184C800.4 110.096 801.296 110.128 802.224 110.192C802.128 109.68 802.128 109.456 802.128 108.4V107.312C802.128 106.352 802.16 105.872 802.256 105.232C801.552 105.36 800.688 105.392 799.216 105.392H794.608V105.072C794.608 104.272 794.64 103.856 794.768 103.184H792.656C792.784 103.856 792.816 104.272 792.816 105.04V105.392H787.728C787.792 104.24 787.824 103.504 787.856 103.216H785.776C785.904 104.048 785.936 104.4 785.936 105.392H780.304C778.704 105.392 777.936 105.36 777.136 105.232V107.088C778.064 106.96 778.992 106.928 780.304 106.928H785.872C785.84 107.632 785.808 107.952 785.712 108.656H781.584C780.112 108.656 779.376 108.624 778.672 108.56C778.224 110.608 777.776 111.856 776.88 113.584C777.712 113.52 778.512 113.488 779.728 113.488H783.824C782.16 115.312 779.984 116.272 775.44 117.232C775.952 117.776 776.208 118.224 776.464 118.864C778.256 118.352 778.928 118.128 780.016 117.648V124.752C780.016 126.256 779.984 127.312 779.888 127.984C780.72 127.888 781.936 127.856 783.44 127.856H797.04C798.576 127.856 799.792 127.888 800.624 127.984C800.528 127.216 800.496 126.32 800.496 124.688V119.536C800.496 118.384 800.528 117.392 800.56 116.592C800.912 116.624 801.168 116.624 801.392 116.624C802.16 116.624 802.704 116.432 803.024 116.048C803.344 115.664 803.504 115.088 803.76 113.456C803.888 112.656 803.888 112.624 804.048 111.92C803.28 112.016 802.768 112.016 800.976 112.016H794.608ZM797.264 116.144H783.024C784.272 115.44 785.104 114.704 785.936 113.488H792.816V113.808C792.816 114.512 792.784 114.992 792.656 115.536H794.768C794.64 114.992 794.608 114.512 794.608 113.776V113.488H801.904C801.68 115.152 801.616 115.216 800.88 115.216C800.4 115.216 799.792 115.088 798.896 114.8C799.056 115.28 799.12 115.568 799.216 116.144H797.264ZM785.456 110.096C785.264 110.928 785.136 111.28 784.816 112.016H779.536C779.76 111.472 779.888 111.152 780.24 110.096H785.456ZM792.816 110.096V112.016H786.704C787.024 111.248 787.12 110.928 787.28 110.096H792.816ZM792.816 106.928V108.656H787.504C787.568 108.016 787.568 107.984 787.664 106.928H792.816ZM794.608 106.928H800.24V108.656H794.608V106.928ZM781.936 117.68H798.544V119.568H781.936V117.68ZM781.936 121.04H798.544V122.928H781.936V121.04ZM781.936 124.4H798.544V126.32H781.936V124.4ZM785.264 128.144C782.32 129.744 779.984 130.448 776.048 130.992C776.56 131.536 776.848 132.016 777.2 132.784C781.488 131.888 783.408 131.184 786.736 129.328L785.264 128.144ZM793.584 129.328C795.536 130.448 796.496 130.864 798.64 131.568C800.464 132.176 801.424 132.4 803.376 132.752C803.824 131.92 803.984 131.664 804.592 130.928C802.48 130.704 801.424 130.512 799.792 130.064C797.904 129.552 796.976 129.2 795.088 128.176L793.584 129.328ZM823.184 121.744H832.56V128.976C832.56 129.776 832.272 129.936 830.864 129.936C829.712 129.936 828.144 129.808 826.288 129.584C826.576 130.384 826.704 130.928 826.768 131.664C828.112 131.76 829.712 131.824 830.736 131.824C833.84 131.824 834.576 131.344 834.576 129.328V107.856C834.576 106.416 834.608 105.584 834.704 104.72C833.776 104.816 832.912 104.848 831.312 104.848H814.096C812.496 104.848 811.536 104.816 810.576 104.72C810.704 106.096 810.704 106.704 810.704 109.936C810.704 117.84 810.416 122.512 809.712 125.456C809.2 127.632 808.496 129.072 807.12 130.864C807.952 131.344 808.272 131.568 808.976 132.24C811.12 129.2 811.952 126.576 812.432 121.744H821.2V127.792C821.2 129.488 821.168 130.448 821.04 131.28H823.344C823.216 130.512 823.184 129.488 823.184 127.792V121.744ZM823.184 112.368V106.768H832.56V112.368H823.184ZM821.2 112.368H812.752L812.784 110.576V106.768H821.2V112.368ZM823.184 114.192H832.56V119.888H823.184V114.192ZM821.2 114.192V119.888H812.56C812.656 118.416 812.656 118.288 812.688 116.304C812.688 115.856 812.688 115.088 812.72 114.192H821.2ZM856.784 110.8C857.584 109.904 858.032 109.36 858.704 108.432C859.92 106.8 859.952 106.768 860.24 106.416L859.216 105.392C858.576 105.488 857.776 105.52 856.272 105.52H850.16C850.576 104.912 850.992 104.24 851.216 103.824C851.376 103.568 851.408 103.536 851.568 103.344L849.36 102.704C848.752 104.304 847.888 105.68 846.352 107.376C844.528 109.424 842.544 110.96 839.92 112.464C840.464 112.944 840.72 113.232 841.232 114C842.64 113.072 843.184 112.688 844.24 111.856C844.272 112.432 844.304 113.168 844.304 114.032V122.832C844.304 125.008 844.272 125.744 844.144 126.704C845.36 126.576 846.352 126.544 847.6 126.544H861.296C862.576 126.544 863.536 126.576 864.752 126.704C864.624 125.872 864.592 124.784 864.592 122.832V114.032C864.592 112.464 864.624 111.728 864.752 110.704C863.792 110.768 863.088 110.8 861.104 110.8H856.784ZM847.792 110.8C846.864 110.8 846.384 110.8 845.52 110.768C847.536 108.912 847.728 108.72 848.912 107.216H857.2C856.176 108.752 855.504 109.648 854.448 110.8H847.792ZM846.288 112.496H862.608V115.344H846.288V112.496ZM846.288 117.072H862.608V120.048H846.288V117.072ZM846.288 121.776H862.608V124.816H846.288V121.776ZM849.616 126.736C848.048 127.952 847.312 128.4 845.776 129.04C843.984 129.808 842.864 130.128 840.4 130.576C841.104 131.248 841.392 131.632 841.84 132.4C844.368 131.76 845.584 131.344 847.312 130.512C848.752 129.84 849.552 129.328 851.216 128.048L849.616 126.736ZM857.2 128.144C858.928 129.264 859.728 129.712 861.264 130.384C863.248 131.248 864.528 131.664 867.248 132.336C867.632 131.568 867.888 131.152 868.432 130.448C865.84 130 864.656 129.68 862.384 128.784C860.848 128.144 860.24 127.824 858.8 126.864L857.2 128.144ZM876.528 111.664V118.8C873.744 119.824 872.912 120.08 871.824 120.24L872.4 122.416C872.912 122.16 873.264 122 874.096 121.712C874.704 121.52 875.344 121.264 876.528 120.784V129.328C876.528 130.032 876.304 130.224 875.376 130.224C874.48 130.224 873.424 130.16 872.304 130C872.592 130.768 872.72 131.248 872.752 132.016C873.616 132.112 874.736 132.144 875.6 132.144C877.68 132.144 878.544 131.472 878.544 129.872V119.984C879.664 119.536 880.336 119.216 882.256 118.352L882.224 116.432C880.656 117.168 880.304 117.328 878.544 118.032V111.664H879.824C880.72 111.664 881.552 111.728 882.288 111.824V109.712C881.488 109.84 880.816 109.872 879.888 109.872H878.544V106.768C878.544 105.392 878.608 104.496 878.736 103.568H876.336C876.464 104.56 876.528 105.456 876.528 106.8V109.872H874.64C873.584 109.872 872.88 109.808 872.048 109.68V111.856C873.04 111.728 873.84 111.664 874.672 111.664H876.528ZM894.768 125.072C896.24 125.072 897.104 125.104 897.936 125.2C897.84 124.08 897.808 123.056 897.808 121.616V108.848C897.808 107.312 897.84 106.352 897.936 105.2C897.136 105.296 896.304 105.328 894.8 105.328H886.608C885.2 105.328 884.368 105.296 883.568 105.2C883.632 106.192 883.664 107.024 883.664 108.528V122C883.664 123.408 883.632 124.368 883.568 125.2C884.56 125.104 885.52 125.072 886.576 125.072H894.768ZM885.712 107.216H895.76V114.192H885.712V107.216ZM885.712 116.048H895.76V123.248H885.712V116.048ZM880.56 131.024C881.552 130.928 882.608 130.864 884.08 130.864H897.2C898.512 130.864 899.504 130.928 900.656 131.056V128.752C899.664 128.88 898.64 128.944 897.2 128.944H884.08C882.512 128.944 881.488 128.88 880.56 128.784V131.024ZM908.208 105.04C908.144 105.776 908.08 106.096 907.76 107.6C906.704 112.336 906.32 115.728 906.32 120.272C906.32 123.632 906.544 125.936 907.152 129.328C907.248 129.936 907.28 130.096 907.344 130.608L909.648 130.416C909.648 130.192 909.648 130.032 909.648 129.936C909.648 128.144 910.8 124.304 912.24 121.136L910.704 120.4C909.68 122.736 909.072 124.496 908.624 126.64C908.496 124.944 908.432 123.056 908.432 120.56C908.432 116.72 908.72 113.904 909.392 110.544C909.872 108.368 910.256 106.8 910.736 105.424L908.208 105.04ZM914.8 111.088C916.88 111.312 918.128 111.408 919.92 111.408C922.384 111.408 924.944 111.248 926.8 110.992C928.208 110.8 928.944 110.704 929.008 110.704L928.848 108.432C926.704 109.008 923.824 109.296 920.272 109.296C917.776 109.296 916.208 109.168 914.832 108.816L914.8 111.088ZM917.136 117.328C915.152 119.6 914.352 121.328 914.352 123.28C914.352 124.464 914.672 125.424 915.312 126.224C916.688 127.888 918.992 128.656 922.64 128.656C924.816 128.656 926.96 128.464 929.2 128.016C929.84 127.92 929.904 127.888 930.32 127.856L930 125.392C928.272 126.096 925.552 126.512 922.64 126.512C918.512 126.512 916.496 125.36 916.496 122.992C916.496 121.584 917.296 120.048 918.896 118.288L917.136 117.328ZM940.56 122.48C937.904 122.48 935.76 124.624 935.76 127.28C935.76 129.936 937.904 132.08 940.56 132.08C943.216 132.08 945.36 129.936 945.36 127.28C945.36 124.624 943.216 122.48 940.56 122.48ZM940.56 124.304C942.192 124.304 943.536 125.648 943.536 127.28C943.536 128.912 942.192 130.256 940.56 130.256C938.928 130.256 937.584 128.912 937.584 127.28C937.584 125.648 938.928 124.304 940.56 124.304Z" fill="#20AEE5"/>
</svg>
