<svg width="375" height="93" viewBox="0 0 375 93" fill="none" xmlns="http://www.w3.org/2000/svg">
<g filter="url(#filter0_i_141_18681)">
<rect width="375" height="93" fill="white"/>
</g>
<path d="M85.248 65.744C84.944 68.256 84.384 70.464 83.584 72.272C82.672 74.336 81.648 75.28 80.336 75.28C78.512 75.28 77.2 73.424 77.2 70.848C77.2 69.088 77.824 67.44 78.96 66.192C80.304 64.72 82.192 63.952 84.464 63.952C88.304 63.952 90.8 66.288 90.8 69.888C90.8 72.656 89.36 74.864 86.912 75.856C86.144 76.176 85.52 76.336 84.4 76.528C84.128 75.68 83.936 75.328 83.424 74.656C84.896 74.464 85.856 74.208 86.608 73.776C88 73.008 88.832 71.488 88.832 69.776C88.832 68.24 88.144 66.992 86.864 66.224C86.368 65.936 85.952 65.808 85.248 65.744ZM83.296 65.76C82.464 65.856 81.888 66.08 81.232 66.544C79.888 67.504 79.056 69.152 79.056 70.864C79.056 72.176 79.616 73.216 80.32 73.216C80.848 73.216 81.392 72.544 81.968 71.168C82.576 69.728 83.104 67.568 83.296 65.76ZM100.04 68.176H97.048C96.312 68.176 95.912 68.192 95.544 68.256V67.408H94.072C94.136 67.04 94.152 66.752 94.152 66.224V65.04C94.152 64.608 94.136 64.256 94.088 63.84C94.6 63.888 95.048 63.904 95.848 63.904H100.008V63.536C100.008 63.136 99.976 62.88 99.912 62.528H101.88C101.816 62.848 101.8 63.136 101.8 63.536V63.904H106.184C107 63.904 107.416 63.888 107.96 63.84C107.912 64.24 107.896 64.576 107.896 65.008V66.224C107.896 66.688 107.912 67.04 107.96 67.408H106.488V68.256C106.088 68.192 105.72 68.176 104.968 68.176H101.752C101.736 68.688 101.736 68.688 101.72 69.056H104.712C105.496 69.056 105.752 69.04 106.136 68.992V70.512C105.72 70.464 105.464 70.448 104.712 70.448H101.624C101.576 70.848 101.56 70.976 101.496 71.312H106.488C107.288 71.312 107.688 71.296 108.136 71.232V72.912C107.56 72.848 107.112 72.816 106.408 72.816H102.328C102.904 73.504 103.208 73.776 103.816 74.16C104.52 74.592 105.512 74.976 106.632 75.248C107.032 75.36 107.528 75.456 108.408 75.616C108.04 76.176 107.784 76.672 107.576 77.344C106.088 76.992 105.432 76.784 104.584 76.416C102.872 75.648 101.784 74.784 100.792 73.376C100.216 74.464 99.528 75.2 98.456 75.888C97.336 76.592 96.328 76.976 94.552 77.328C94.264 76.512 94.168 76.336 93.704 75.664C95.384 75.424 96.216 75.184 97.176 74.688C98.104 74.208 98.728 73.632 99.208 72.816H95.672C95.048 72.816 94.536 72.848 93.96 72.912V71.232C94.392 71.296 94.776 71.312 95.576 71.312H99.768C99.832 71.008 99.864 70.832 99.912 70.448H97.208C96.44 70.448 96.184 70.464 95.768 70.512V68.992C96.152 69.04 96.424 69.056 97.208 69.056H100.024C100.04 68.608 100.04 68.608 100.04 68.176ZM97.048 66.768H100.056C100.04 66.256 100.04 66.048 99.992 65.744H101.848C101.8 65.936 101.8 66.128 101.784 66.768H104.968C105.576 66.768 105.832 66.752 106.232 66.72V65.408H95.816V66.72C96.104 66.752 96.456 66.768 97.048 66.768ZM119.952 64.784H123.936C124.448 64.784 124.784 64.768 125.168 64.72V66.288C124.768 66.224 124.448 66.208 123.952 66.208H122.896V67.584C123.232 67.568 123.28 67.568 123.552 67.536C123.488 68.048 123.472 68.48 123.472 69.696V72.96C123.472 73.888 123.488 74.416 123.552 74.784C123.104 74.736 122.608 74.72 121.84 74.72H120.688C122.288 75.456 123.152 75.664 125.296 75.856C124.896 76.448 124.864 76.528 124.48 77.488C122.048 77.072 120.96 76.704 119.168 75.664L120.464 74.72H115.456L116.752 75.728C114.768 76.784 113.808 77.104 111.52 77.472C111.248 76.784 111.136 76.56 110.656 75.856C113.088 75.6 113.92 75.392 115.136 74.72H114.208C113.456 74.72 112.944 74.736 112.48 74.784C112.544 74.336 112.56 73.76 112.56 72.896V69.68C112.56 68.912 112.56 68.688 112.528 68.128C112.352 68.512 112.208 68.704 111.76 69.264C111.264 68.656 110.992 68.368 110.432 67.904C111.36 66.96 111.712 65.856 111.712 63.776C111.712 63.632 111.68 63.216 111.648 63.04H111.92C112.08 63.056 112.208 63.056 112.24 63.056C113.088 63.056 114.432 62.928 115.2 62.784C115.84 62.656 116.288 62.528 116.8 62.304L117.776 63.648C116.288 64.064 115.648 64.16 113.36 64.304C113.36 64.544 113.36 64.608 113.344 64.784H116.528C117.04 64.784 117.392 64.768 117.696 64.72V66.272C117.344 66.224 117.008 66.208 116.56 66.208H116.144V67.424C116.144 67.488 116.144 67.52 116.144 67.6H118.176C117.856 67.296 117.744 67.184 117.408 66.944C118.064 66.112 118.336 65.152 118.336 63.6C118.336 63.376 118.32 63.248 118.288 63.024C118.544 63.056 118.656 63.056 118.784 63.056C119.312 63.056 120.784 62.944 121.408 62.864C122.288 62.736 122.88 62.592 123.648 62.336L124.672 63.68C122.032 64.176 121.872 64.192 119.984 64.288C119.968 64.528 119.968 64.656 119.952 64.784ZM121.28 66.208H119.728C119.568 66.784 119.424 67.136 119.168 67.6H121.28V66.208ZM114.16 67.6H114.544C114.544 67.504 114.544 67.488 114.544 67.44V66.208H113.2C113.12 66.688 113.008 67.056 112.784 67.568C113.312 67.6 113.584 67.6 114.16 67.6ZM114.256 68.928V69.616H121.776V68.928H114.256ZM114.256 70.8V71.472H121.776V70.8H114.256ZM114.256 72.672V73.36H121.776V72.672H114.256ZM137.576 66.992H140.824C141.528 66.992 141.816 66.976 142.184 66.944C142.136 67.216 142.136 67.216 142.04 68.032C141.848 69.376 141.592 69.68 140.504 69.744C140.504 70.176 140.504 70.432 140.504 70.672V73.424C140.504 74.128 140.52 74.704 140.568 75.12C140.232 75.088 139.528 75.072 138.872 75.072H138.104C139.256 75.664 140.536 75.968 142.472 76.112C142.04 76.624 141.864 76.88 141.48 77.552C139.208 77.184 138.088 76.784 136.264 75.728L137.144 75.072H132.984L133.784 75.728C132.056 76.752 131.048 77.12 128.728 77.568C128.392 76.96 128.248 76.752 127.752 76.176C129.672 75.952 130.76 75.664 132.024 75.072H131.272C130.584 75.072 129.944 75.088 129.576 75.12C129.608 74.832 129.64 74.208 129.64 73.52V70.544C129.208 70.704 128.984 70.768 128.36 70.96L128.232 70.672C128.024 70.16 127.96 70.032 127.592 69.536C129.624 69.104 130.408 68.816 131.256 68.16H129.48C129.144 68.16 128.6 68.176 128.152 68.192C128.616 67.248 128.936 66.272 129.08 65.28C129.4 65.312 129.784 65.328 130.424 65.328H132.52C132.552 64.944 132.568 64.944 132.568 64.768H129.976C129.256 64.768 128.776 64.784 128.44 64.848V63.456C128.856 63.52 129.224 63.536 129.976 63.536H132.616C132.616 63.104 132.6 62.848 132.552 62.528H134.264C134.232 62.72 134.232 62.8 134.2 63.536H135.992C135.992 63.04 135.976 62.864 135.912 62.528H137.656C137.592 62.88 137.576 63.072 137.576 63.536H139.752C140.28 63.536 140.952 63.504 141.32 63.456C141.272 63.824 141.256 64.064 141.256 64.704V65.344C141.256 65.936 141.256 66.096 141.304 66.48C140.792 66.448 140.312 66.432 139.736 66.432H137.576V66.992ZM138.936 68.944H139.224C139.176 68.768 139.16 68.704 139.064 68.512C139.4 68.608 139.752 68.656 139.96 68.656C140.28 68.656 140.344 68.592 140.392 68.16H137.576V68.944H138.936ZM135.992 68.944V68.16H133.24C133.016 68.48 132.872 68.64 132.52 68.944H135.992ZM132.344 66.432H130.456C130.376 66.72 130.344 66.8 130.264 66.992H132.152C132.232 66.768 132.264 66.672 132.344 66.432ZM135.992 66.432H133.944C133.88 66.672 133.864 66.752 133.8 66.992H135.992V66.432ZM135.992 64.768H134.152C134.152 64.992 134.136 65.072 134.12 65.328H135.992V64.768ZM137.576 64.768V65.328H139.592V64.768H137.576ZM131.288 70.048V70.608H138.84V70.048H131.288ZM131.288 71.632V72.224H138.84V71.632H131.288ZM131.288 73.248V73.84H138.84V73.248H131.288ZM151.312 72.288H147.632C147.408 74.416 146.928 75.92 146 77.344C145.328 76.704 145.104 76.528 144.448 76.08C145.024 75.248 145.392 74.4 145.616 73.376C145.776 72.624 145.888 71.792 145.936 70.928C146.016 69.584 146.08 67.312 146.08 65.424C146.08 64.272 146.064 63.76 146 63.104C146.56 63.152 146.976 63.168 147.84 63.168H156.816C157.712 63.168 158.16 63.152 158.656 63.104C158.608 63.648 158.592 64.048 158.592 64.912V75.424C158.592 76.752 158.112 77.088 156.288 77.088C155.792 77.088 154.976 77.056 154.496 77.024C154.416 76.416 154.304 76.032 154.048 75.36C154.848 75.44 155.552 75.488 156.064 75.488C156.72 75.488 156.864 75.424 156.864 75.088V72.288H153.024V74.912C153.024 75.84 153.04 76.352 153.104 76.816H151.216C151.28 76.336 151.312 75.872 151.312 74.928V72.288ZM151.312 70.704V68.512H147.776C147.776 68.976 147.76 69.296 147.76 69.52C147.744 70.272 147.744 70.384 147.744 70.704H151.312ZM153.024 70.704H156.864V68.512H153.024V70.704ZM151.312 66.944V64.848H147.824V66.496L147.808 66.944H151.312ZM153.024 66.944H156.864V64.848H153.024V66.944ZM171.336 66.048H172.92C173.848 66.048 174.136 66.032 174.712 66C174.648 66.496 174.632 66.784 174.632 67.664V72.64C174.632 73.632 174.648 74.08 174.712 74.496C174.168 74.432 173.64 74.416 172.984 74.416H171.832C172.184 74.624 172.392 74.72 172.76 74.864C173.944 75.328 174.84 75.552 176.456 75.76C176.088 76.288 175.864 76.704 175.56 77.376C174.12 77.104 173.432 76.896 172.344 76.464C171.48 76.112 171.048 75.888 170.104 75.296L171.048 74.416H167.032L167.944 75.28C167.032 75.904 166.6 76.144 165.848 76.48C164.904 76.88 164.2 77.104 162.744 77.408C162.424 76.72 162.2 76.368 161.752 75.84C163.752 75.552 165.016 75.152 166.168 74.416H165.352C164.68 74.416 164.184 74.432 163.608 74.496C163.672 74.032 163.688 73.6 163.688 72.64V67.664C163.688 67.632 163.688 67.472 163.688 67.296C163.336 67.552 163.112 67.696 162.472 68.096C162.248 67.488 162.008 67.04 161.624 66.56C162.84 65.904 163.688 65.264 164.568 64.368C165.4 63.52 165.88 62.848 166.104 62.256L168.12 62.608C168.072 62.672 167.88 62.944 167.576 63.408H170.472C171.288 63.408 171.704 63.392 172.04 63.344L172.92 64.144C172.824 64.24 172.824 64.24 172.664 64.416C172.664 64.432 172.616 64.48 172.536 64.576C172.504 64.624 172.504 64.624 172.04 65.2C171.688 65.664 171.576 65.776 171.336 66.048ZM165.192 66.048H169.272C169.672 65.6 169.816 65.392 170.2 64.88H166.408C165.992 65.312 165.736 65.568 165.192 66.048ZM165.368 67.504V68.368H172.952V67.504H165.368ZM165.368 69.76V70.624H172.952V69.76H165.368ZM165.368 72.032V72.896H172.952V72.032H165.368ZM180.864 67.136H180.128C179.728 67.136 179.376 67.152 178.88 67.216V65.488C179.28 65.568 179.616 65.584 180.128 65.584H180.864V64.272C180.864 63.52 180.848 63.104 180.768 62.64H182.672C182.592 63.12 182.576 63.488 182.576 64.256V65.584H183.184C183.536 65.584 183.84 65.568 184.144 65.52V67.2C183.792 67.152 183.504 67.136 183.168 67.136H182.576V69.552C183.232 69.344 183.408 69.28 184.128 69.024V70.592C183.392 70.88 183.264 70.928 182.576 71.168V75.712C182.576 76.816 182.016 77.232 180.528 77.232C180.176 77.232 179.728 77.216 179.216 77.184C179.168 76.528 179.088 76.176 178.848 75.488C179.44 75.552 179.952 75.584 180.352 75.584C180.768 75.584 180.864 75.504 180.864 75.12V71.76C180.208 71.968 180.208 71.968 179.744 72.112C179.376 72.224 179.312 72.24 179.072 72.352L178.736 70.56C179.264 70.512 179.632 70.432 180.864 70.08V67.136ZM190.72 73.568H186.272C185.68 73.568 185.136 73.584 184.656 73.632C184.688 73.264 184.704 72.8 184.704 72.112V65.008C184.704 64.208 184.688 63.712 184.656 63.28C185.072 63.328 185.488 63.344 186.304 63.344H190.64C191.52 63.344 191.936 63.328 192.352 63.28C192.304 63.808 192.288 64.272 192.288 65.216V71.776C192.288 72.592 192.304 73.04 192.352 73.632C191.968 73.584 191.408 73.568 190.72 73.568ZM186.4 64.912V67.68H190.544V64.912H186.4ZM186.4 69.216V72.016H190.544V69.216H186.4ZM183.328 76.8V75.008C183.856 75.072 184.464 75.104 185.2 75.104H191.6C192.368 75.104 192.896 75.072 193.44 75.008V76.816C192.864 76.752 192.336 76.72 191.584 76.72H185.2C184.4 76.72 183.84 76.752 183.328 76.8ZM199.224 76.384L197.288 76.496C197.272 76.208 197.256 76.112 197.208 75.744C196.904 73.808 196.792 72.576 196.792 70.96C196.792 68.896 196.984 67.072 197.448 64.704C197.624 63.808 197.656 63.648 197.688 63.216L199.8 63.44C199.416 64.384 199.048 66.176 198.792 68.224C198.632 69.424 198.568 70.368 198.552 71.76C198.552 72.112 198.536 72.24 198.52 72.64C198.696 72.08 198.728 71.968 199.352 70.528L200.632 71.104C199.752 72.96 199.208 74.816 199.208 75.952C199.208 76.048 199.208 76.176 199.224 76.384ZM201.432 66.8L201.464 64.88C202.184 65.072 203.032 65.136 204.424 65.136C206.2 65.136 207.72 64.992 208.776 64.704L208.872 66.64C208.744 66.656 208.504 66.688 207.736 66.784C206.712 66.912 205.496 66.976 204.312 66.976C203.144 66.976 203.128 66.976 201.432 66.8ZM202.536 69.44L204.104 70.176C203.304 71.104 202.968 71.792 202.968 72.48C202.968 73.392 203.848 73.872 205.512 73.872C206.92 73.872 208.312 73.648 209.32 73.264L209.48 75.296C209.256 75.312 209.192 75.328 208.824 75.392C207.544 75.6 206.568 75.696 205.512 75.696C203.528 75.696 202.248 75.248 201.544 74.304C201.24 73.904 201.064 73.312 201.064 72.736C201.064 71.696 201.544 70.624 202.536 69.44ZM215.36 71.84C216.864 71.84 218.064 73.056 218.064 74.544C218.064 76.048 216.848 77.264 215.36 77.264C213.872 77.264 212.656 76.048 212.656 74.544C212.656 73.056 213.872 71.84 215.36 71.84ZM215.36 73.088C214.56 73.088 213.904 73.744 213.904 74.544C213.904 75.36 214.56 76.016 215.36 76.016C216.16 76.016 216.816 75.36 216.816 74.544C216.816 73.744 216.16 73.088 215.36 73.088Z" fill="#20AEE5"/>
<rect x="16" y="78" width="56" height="6" fill="#E1F0F8"/>
<path d="M26.486 60.892L21.726 64.802L19.346 61.98L26.86 55.928H30.566V80H26.486V60.892Z" fill="#20AEE5"/>
<path d="M39.368 80.536L36.712 79.576L46.696 54.744L49.352 55.768L39.368 80.536Z" fill="#20AEE5"/>
<path d="M61.832 75.002H50.714V71.398L60.948 55.928H65.844V71.5H69.21V75.002H65.844V80H61.832V75.002ZM61.832 60.722H61.764L54.93 71.5H61.832V60.722Z" fill="#20AEE5"/>
<rect x="236" y="58" width="124" height="26" rx="4" fill="#20AEE5"/>
<rect x="236.5" y="58.5" width="123" height="24" rx="3.5" fill="white" stroke="#20AEE5"/>
<path d="M252.13 71.94L252.14 73.91C252.14 74.32 252.12 74.56 252.06 74.76C251.97 75.11 251.61 75.34 251.14 75.34C250.51 75.34 249.75 75.06 249.25 74.63C248.89 74.32 248.7 73.93 248.7 73.5C248.7 73.03 249.01 72.5 249.56 72.02C249.92 71.71 250.36 71.45 251.02 71.17L251.01 69.63C250.93 69.63 250.93 69.63 250.6 69.65C250.45 69.66 250.31 69.66 250.06 69.66C249.91 69.66 249.63 69.65 249.51 69.65C249.38 69.64 249.29 69.64 249.26 69.64C249.22 69.64 249.14 69.64 249.05 69.65L249.04 68.53C249.32 68.59 249.72 68.62 250.25 68.62C250.35 68.62 250.46 68.62 250.6 68.61C250.84 68.6 250.89 68.6 251 68.6V67.94C251 67.37 250.99 67.11 250.94 66.79H252.19C252.14 67.11 252.13 67.32 252.13 67.88V68.52C252.88 68.43 253.55 68.3 254.06 68.14L254.1 69.26C253.92 69.29 253.73 69.32 253.04 69.44C252.71 69.5 252.51 69.53 252.13 69.57V70.87C252.81 70.67 253.44 70.59 254.17 70.59C255.84 70.59 257.03 71.61 257.03 73.03C257.03 74.33 256.06 75.31 254.76 75.31C253.95 75.31 253.38 74.92 253.12 74.2C252.99 73.86 252.95 73.53 252.95 72.92C253.46 72.78 253.63 72.71 254.06 72.48C254.04 72.67 254.04 72.76 254.04 72.92C254.04 73.34 254.08 73.61 254.18 73.8C254.29 74.01 254.53 74.14 254.81 74.14C255.4 74.14 255.82 73.67 255.82 73.03C255.82 72.17 255.12 71.61 254.05 71.61C253.45 71.61 252.84 71.72 252.13 71.94ZM251.01 73.76V72.3C250.26 72.7 249.82 73.14 249.82 73.5C249.82 73.67 249.92 73.82 250.15 73.96C250.35 74.1 250.6 74.18 250.79 74.18C250.96 74.18 251.01 74.09 251.01 73.76ZM257.47 69.54L256.55 70.28C256.05 69.49 255.32 68.7 254.55 68.12L255.49 67.49C256.36 68.16 256.94 68.76 257.47 69.54ZM259.89 70.32V74.55C259.89 75.15 259.91 75.52 259.95 75.78H258.78C258.82 75.48 258.84 75.16 258.84 74.54V67.99C258.84 67.46 258.83 67.18 258.8 66.86C259.11 66.89 259.34 66.9 259.82 66.9H261.59C262.11 66.9 262.34 66.89 262.61 66.86C262.59 67.18 262.58 67.41 262.58 67.8V69.45C262.58 69.9 262.59 70.13 262.61 70.35C262.37 70.33 262.02 70.32 261.69 70.32H259.89ZM259.89 67.72V68.24H261.6V67.72H259.89ZM259.89 69.01V69.54H261.6V69.01H259.89ZM267.2 67.98V74.55C267.2 75.1 267.11 75.36 266.85 75.52C266.65 75.64 266.38 75.68 265.8 75.68C265.64 75.68 265.53 75.68 264.87 75.64C264.8 75.16 264.75 74.95 264.59 74.58C265.01 74.63 265.49 74.67 265.82 74.67C266.1 74.67 266.15 74.63 266.15 74.41V70.32H264.22C263.89 70.32 263.53 70.33 263.31 70.35C263.32 70.08 263.33 69.88 263.33 69.45V67.8C263.33 67.42 263.32 67.15 263.3 66.86C263.6 66.89 263.82 66.9 264.32 66.9H266.22C266.7 66.9 266.94 66.89 267.25 66.86C267.21 67.19 267.2 67.49 267.2 67.98ZM264.32 67.72V68.24H266.15V67.72H264.32ZM264.32 69.01V69.54H266.15V69.01H264.32ZM264.95 71.7V73.5C264.95 73.79 264.96 73.99 264.98 74.18C264.77 74.16 264.56 74.15 264.27 74.15H262.04V74.82H260.98C261.01 74.54 261.03 74.23 261.03 73.85V71.71C261.03 71.44 261.02 71.22 261 71.01C261.22 71.03 261.45 71.04 261.74 71.04H264.21C264.52 71.04 264.77 71.03 264.98 71.01C264.96 71.21 264.95 71.41 264.95 71.7ZM262.04 71.93V73.24H263.94V71.93H262.04ZM269.07 67.65H270.44C270.39 68.02 270.36 68.51 270.36 69.17C270.36 70.04 270.44 71.24 270.55 71.85C270.72 72.89 271.04 73.53 271.36 73.53C271.51 73.53 271.65 73.38 271.77 73.1C272.01 72.56 272.19 71.96 272.3 71.29C272.65 71.69 272.81 71.84 273.3 72.2C272.78 74.15 272.2 74.96 271.35 74.96C270.68 74.96 270.14 74.47 269.74 73.51C269.33 72.51 269.15 71.06 269.11 68.29C269.1 67.94 269.1 67.87 269.07 67.65ZM274.12 68.6L275.17 68.1C276.43 69.61 277.13 71.28 277.42 73.48L276.18 73.95C276.12 73.01 275.89 71.97 275.54 71.06C275.2 70.15 274.72 69.34 274.12 68.6ZM280.43 70.6V69.91C279.78 70.31 279.52 70.45 278.83 70.75C278.66 70.33 278.54 70.12 278.25 69.73C279.18 69.37 280.03 68.89 280.8 68.29C281.49 67.74 281.96 67.24 282.37 66.62H283.56C283.99 67.26 284.44 67.71 285.24 68.31C286.02 68.9 286.77 69.3 287.79 69.68C287.53 70.1 287.43 70.29 287.24 70.78C286.53 70.46 286.22 70.3 285.61 69.9V70.6C285.36 70.57 285.11 70.56 284.71 70.56H281.29C280.97 70.56 280.69 70.57 280.43 70.6ZM281.3 69.52H284.7C284.82 69.52 284.86 69.52 285.04 69.52C284.16 68.89 283.61 68.37 282.98 67.57C282.38 68.43 281.94 68.86 281.02 69.52C281.14 69.52 281.19 69.52 281.3 69.52ZM280.81 75.76H279.62C279.66 75.44 279.68 75.14 279.68 74.7V72.37C279.68 71.96 279.66 71.67 279.63 71.38C279.85 71.41 280.09 71.42 280.49 71.42H285.49C285.89 71.42 286.13 71.41 286.36 71.38C286.32 71.66 286.31 71.94 286.31 72.37V74.71C286.31 75.17 286.32 75.45 286.37 75.76H285.18V75.25H280.81V75.76ZM280.81 72.39V74.27H285.18V72.39H280.81ZM289.03 73.78L288.45 72.63C288.68 72.47 289.07 72.13 290.26 71.03C290.28 70.42 290.28 70.41 290.3 69.59C289.09 69.68 289.09 69.68 288.78 69.74L288.71 68.61C288.87 68.62 288.95 68.63 289.04 68.63C289.22 68.63 289.77 68.6 290.33 68.56C290.35 68.3 290.36 68.17 290.36 67.81C290.36 67.62 290.37 67.48 290.37 67.39C290.37 67.34 290.37 67.3 290.37 67.29C290.37 67.13 290.36 67.05 290.33 66.85L291.62 66.86C291.56 67.12 291.56 67.13 291.52 67.82C291.51 68.01 291.51 68.01 291.49 68.29C291.49 68.37 291.49 68.37 291.49 68.47C291.56 68.45 291.58 68.45 291.63 68.42L292.01 68.83C291.87 68.95 291.8 69.03 291.44 69.48C291.42 69.91 291.41 70.13 291.4 70.16L291.42 70.15C291.46 70.11 291.53 70.05 291.66 69.96C292.75 69.17 293.56 68.86 294.54 68.86C295.26 68.86 295.99 69.17 296.49 69.68C296.99 70.2 297.26 70.93 297.26 71.74C297.26 73 296.66 74.06 295.67 74.57C295.16 74.82 294.57 74.95 293.89 74.95C293.38 74.95 292.91 74.88 292.4 74.73C292.4 74.2 292.37 73.98 292.21 73.43C292.77 73.67 293.39 73.8 293.99 73.8C295.19 73.8 296.03 72.95 296.03 71.73C296.03 70.66 295.37 69.99 294.32 69.99C293.49 69.99 292.51 70.5 291.41 71.5L291.4 72.54C291.4 73.97 291.43 75.09 291.48 75.53H290.18C290.23 75.23 290.24 74.94 290.24 73.93V73.04C290.24 72.76 290.24 72.65 290.26 72.45H290.24C290.17 72.55 290.1 72.63 289.8 72.92C289.44 73.27 289.16 73.58 289.03 73.78ZM306.57 73.69L306.65 75.03C306.54 75.04 306.54 75.04 306.2 75.08C305.47 75.16 304.15 75.23 303.49 75.23C301.62 75.23 300.81 74.87 300.51 73.91C300.37 73.46 300.33 72.9 300.33 71.18C300.33 71.03 300.33 70.99 300.34 70.21C298.94 70.31 298.94 70.31 298.49 70.39L298.41 69.22C298.55 69.23 298.65 69.23 298.7 69.23C298.79 69.23 299.34 69.2 300.33 69.14C300.34 68.98 300.34 68.89 300.34 68.83C300.34 67.77 300.33 67.49 300.27 67.13H301.61C301.55 67.5 301.55 67.5 301.52 69.08C302.92 69.01 302.92 69.01 304.41 68.94C304.41 67.35 304.41 67.35 304.35 66.96H305.6C305.56 67.28 305.55 67.4 305.55 67.65V68.28C305.55 68.43 305.55 68.52 305.55 68.58C305.55 68.7 305.55 68.77 305.55 68.79C305.55 68.81 305.55 68.85 305.55 68.9C307.16 68.85 307.16 68.85 307.49 68.81L307.51 70C307.28 69.97 307.19 69.97 306.94 69.97C306.59 69.97 306.02 69.98 305.55 69.98C305.54 70.99 305.45 71.74 305.29 72.1C305.07 72.6 304.66 72.85 304.07 72.85C303.6 72.85 303.16 72.75 302.64 72.51C302.65 72.31 302.65 72.25 302.65 72.11C302.65 71.84 302.63 71.65 302.58 71.29C303.12 71.6 303.59 71.78 303.89 71.78C304.15 71.78 304.26 71.65 304.32 71.26C304.37 70.97 304.4 70.57 304.41 70.01C302.89 70.07 302.89 70.07 301.5 70.15C301.5 70.28 301.5 70.29 301.5 70.42C301.5 70.47 301.5 70.47 301.49 71C301.49 71.06 301.49 71.16 301.49 71.21C301.49 71.73 301.52 72.82 301.54 73.02C301.62 73.86 302.05 74.07 303.68 74.07C304.98 74.07 305.92 73.95 306.57 73.69ZM311.58 69.97L311.6 68.82C312.07 68.94 312.59 68.98 313.41 68.98C313.76 68.98 313.98 68.98 314.33 68.96C314.33 68.37 314.32 67.87 314.32 67.46C314.32 67.24 314.31 67.09 314.29 66.98L315.54 66.95C315.49 67.23 315.47 67.71 315.47 68.42C315.47 68.53 315.47 68.68 315.47 68.88C315.99 68.82 316.43 68.74 316.82 68.64C316.88 68.62 316.88 68.62 317.04 68.56L317.12 68.54L317.16 69.67C317.06 69.68 317.05 69.68 316.87 69.72C316.53 69.79 316.01 69.88 315.48 69.94C315.48 70.03 315.48 70.03 315.48 70.16C315.48 70.72 315.48 70.74 315.58 72.42C316.3 72.76 316.55 72.9 317.15 73.33C317.28 73.42 317.33 73.45 317.43 73.5L316.95 74.71C316.78 74.51 316.48 74.25 316.2 74.07C315.86 73.85 315.63 73.7 315.57 73.66C315.57 73.72 315.57 73.74 315.57 73.8C315.57 74.02 315.54 74.22 315.49 74.36C315.26 74.95 314.56 75.3 313.59 75.3C312.28 75.3 311.48 74.68 311.48 73.66C311.48 72.69 312.33 72.01 313.54 72.01C313.91 72.01 314.16 72.05 314.43 72.15C314.4 71.9 314.39 71.41 314.35 70.02C313.95 70.03 313.71 70.04 313.45 70.04C313.08 70.04 312.68 70.03 312.21 69.99C312.07 69.99 311.96 69.98 311.91 69.98C311.82 69.97 311.76 69.97 311.74 69.97C311.69 69.96 311.66 69.96 311.64 69.96C311.63 69.96 311.61 69.96 311.58 69.97ZM314.45 73.17C314.12 73.05 313.93 73.01 313.63 73.01C312.99 73.01 312.59 73.26 312.59 73.67C312.59 74.04 312.95 74.29 313.51 74.29C313.88 74.29 314.17 74.18 314.32 73.98C314.41 73.86 314.45 73.71 314.45 73.44C314.45 73.33 314.45 73.17 314.45 73.17ZM310.54 75.3L309.34 75.37C309.33 75.27 309.33 75.21 309.29 74.98C309.1 73.81 309.02 72.85 309.02 71.8C309.02 70.9 309.08 70.02 309.21 69.15C309.26 68.85 309.26 68.85 309.48 67.72C309.55 67.37 309.59 67.08 309.59 66.98C309.59 66.97 309.59 66.96 309.59 66.94L310.94 67.08C310.53 67.95 310.15 70.36 310.14 72.1C310.13 72.46 310.13 72.46 310.13 72.62C310.13 72.69 310.13 72.69 310.13 72.78C310.13 72.86 310.13 72.88 310.12 72.99H310.13C310.18 72.88 310.18 72.88 310.25 72.7C310.27 72.63 310.32 72.52 310.37 72.36C310.46 72.15 310.46 72.15 310.56 71.91C310.58 71.88 310.59 71.85 310.68 71.6L311.51 71.97C310.92 73.13 310.52 74.37 310.52 75.03C310.52 75.1 310.52 75.11 310.54 75.3ZM320.13 68.65L320.22 67.46C320.99 67.64 321.88 67.71 323.22 67.71C324.49 67.71 325.2 67.66 325.86 67.52L325.9 68.64C325.3 68.91 324.22 69.58 323.23 70.3L322.36 69.61C322.88 69.28 323.37 68.98 323.83 68.72C323.39 68.78 322.96 68.8 322.33 68.8C321.82 68.8 320.99 68.75 320.5 68.68C320.3 68.66 320.27 68.65 320.13 68.65ZM320.87 70.91L321.74 71.57C321.11 72.09 320.83 72.51 320.83 72.94C320.83 73.59 321.56 73.87 323.25 73.87C324.44 73.87 325.75 73.69 326.39 73.45L326.5 74.82C326.33 74.83 326.27 74.83 326.06 74.86C324.86 75.03 324.22 75.08 323.36 75.08C322.27 75.08 321.39 74.97 320.86 74.75C320 74.42 319.58 73.86 319.58 73.08C319.58 72.32 319.97 71.66 320.87 70.91ZM329.02 69.38L329.04 68.21C329.5 68.33 330.17 68.38 331.2 68.38C331.39 67.58 331.46 67.16 331.48 66.73L332.82 66.84C332.76 67.02 332.76 67.02 332.66 67.42C332.48 68.17 332.48 68.17 332.42 68.36C333.18 68.34 334.31 68.26 334.97 68.18C335.71 68.09 335.9 68.05 336.25 67.95L336.31 69.16C336.08 69.17 335.99 69.18 335.73 69.21C334.28 69.37 333.4 69.44 332.15 69.47C331.94 70.18 331.56 71.14 331.36 71.5V71.52C332.03 71.09 332.9 70.87 333.88 70.87C335.64 70.87 336.69 71.63 336.69 72.9C336.69 74.38 335.26 75.34 333.07 75.34C332.18 75.34 331.3 75.22 330.52 74.99C330.52 74.42 330.51 74.22 330.42 73.72C331.32 74.04 332.16 74.2 333 74.2C334.45 74.2 335.39 73.69 335.39 72.89C335.39 72.27 334.79 71.93 333.71 71.93C332.97 71.93 332.2 72.11 331.56 72.42C331.19 72.6 331.01 72.75 330.83 73L329.62 72.58C329.77 72.34 329.94 72.03 330.09 71.68C330.42 70.92 330.79 69.95 330.93 69.46C330.4 69.45 329.95 69.43 329.42 69.39C329.28 69.38 329.18 69.38 329.1 69.38C329.09 69.38 329.06 69.38 329.02 69.38ZM340.87 67.85L341.45 66.84C342.14 67.22 344.05 67.79 345.18 67.95L344.77 69.1C343.06 68.71 342.01 68.38 340.87 67.85ZM340.07 68.73L341.32 68.8C341.17 69.35 341 70.28 340.87 71.26C340.85 71.4 340.85 71.4 340.82 71.55L340.84 71.57C341.42 71.01 342.66 70.62 343.87 70.62C345.57 70.62 346.69 71.46 346.69 72.74C346.69 73.47 346.3 74.21 345.66 74.67C345.01 75.14 344.18 75.35 343.02 75.35C342.16 75.35 341.61 75.28 340.47 75C340.46 74.38 340.44 74.18 340.32 73.71C341.3 74.05 342.16 74.21 343.01 74.21C344.42 74.21 345.4 73.62 345.4 72.77C345.4 72.1 344.77 71.7 343.71 71.7C342.82 71.7 341.89 71.97 341.22 72.43C341.04 72.56 340.98 72.62 340.77 72.86L339.51 72.82C339.54 72.64 339.54 72.6 339.59 72.22C339.67 71.6 339.83 70.49 340.01 69.31C340.05 69.07 340.06 68.95 340.07 68.73Z" fill="#20AEE5"/>
<path d="M76.2949 22.52H75.3429V15.226H79.0529V16.094H76.2949V22.52ZM81.7889 16.276H83.1189C83.0349 16.738 82.9929 17.256 82.9929 17.844V25.348C82.9929 25.964 83.0349 26.44 83.1189 26.916H81.7889C81.8729 26.398 81.9009 26.048 81.9009 25.348V17.844C81.9009 17.144 81.8729 16.78 81.7889 16.276ZM90.2793 17.256V25.334C90.2793 26.02 90.3073 26.412 90.3913 26.916H89.0753C89.1593 26.482 89.1873 25.992 89.1873 25.334V17.256H87.0033C86.2893 17.256 85.8553 17.284 85.3933 17.354V16.178C85.8833 16.248 86.2473 16.276 86.9893 16.276H92.4493C93.2613 16.276 93.6393 16.248 94.1013 16.178V17.354C93.6393 17.284 93.2333 17.256 92.4493 17.256H90.2793ZM101.043 16.528H102.065C101.841 16.136 101.589 15.772 101.239 15.38L102.065 15.17C102.373 15.562 102.667 16.024 102.919 16.528H104.599C104.963 16.108 105.243 15.73 105.565 15.198L106.405 15.464C106.069 15.912 105.831 16.206 105.537 16.528H106.923C107.609 16.528 107.987 16.514 108.309 16.458V17.27C107.945 17.228 107.539 17.214 106.923 17.214H104.235C104.081 17.536 103.955 17.774 103.829 18.012H105.901C106.601 18.012 106.951 17.998 107.259 17.956C107.217 18.306 107.203 18.628 107.203 19.174V21.288C107.203 21.862 107.217 22.24 107.259 22.534C106.951 22.506 106.629 22.492 106.139 22.492H101.925C101.393 22.492 100.973 22.506 100.539 22.534C100.567 22.268 100.581 21.988 100.581 21.386V19.146C100.581 18.6 100.567 18.25 100.525 17.956C100.833 17.998 101.267 18.012 102.009 18.012H102.933C103.101 17.732 103.213 17.536 103.353 17.214H101.071C100.441 17.214 100.035 17.228 99.6291 17.27V16.458C99.9931 16.514 100.343 16.528 101.043 16.528ZM101.379 18.642V19.314H106.391V18.642H101.379ZM101.379 19.902V20.574H106.391V19.902H101.379ZM101.379 21.162V21.862H106.391V21.162H101.379ZM105.047 24.69V23.892C104.025 23.892 104.025 23.892 103.843 23.892C100.287 23.892 99.5451 23.71 98.7471 22.632C98.2011 23.066 98.0331 23.178 96.8851 23.878C96.8011 23.92 96.7591 23.948 96.5351 24.088L96.1011 23.29C96.2411 23.248 96.2411 23.248 96.3671 23.178C96.3811 23.164 96.4371 23.15 96.5211 23.108C97.1371 22.814 97.6691 22.492 98.2851 22.058V19.888H97.2771C96.7311 19.888 96.5351 19.902 96.2411 19.944V19.118C96.5631 19.174 96.8011 19.188 97.3331 19.188H98.1171C98.5931 19.188 98.8871 19.174 99.1811 19.132C99.1391 19.454 99.1251 19.692 99.1251 20.392V21.974C99.4471 22.52 99.7691 22.8 100.287 22.968C100.763 23.136 101.477 23.192 103.115 23.192C106.013 23.192 107.679 23.136 108.813 22.996C108.631 23.304 108.561 23.472 108.491 23.822C107.987 23.85 106.853 23.864 105.901 23.878V24.69H106.937C107.595 24.69 108.001 24.662 108.393 24.606V25.516C107.987 25.46 107.567 25.432 106.923 25.432H105.901V27.014C105.901 27.854 105.677 27.994 104.319 27.994C103.899 27.994 103.535 27.98 103.101 27.966C103.045 27.602 102.989 27.42 102.821 27.112C103.493 27.182 103.969 27.21 104.431 27.21C104.935 27.21 105.047 27.154 105.047 26.86V25.432H97.7111C97.0811 25.432 96.6751 25.46 96.2551 25.516V24.606C96.6471 24.662 97.0531 24.69 97.7111 24.69H105.047ZM96.5351 16.01L97.1231 15.492C98.0191 16.178 98.3831 16.514 99.1391 17.354L98.5231 17.984C97.8651 17.144 97.4171 16.71 96.5351 16.01ZM101.701 27.14L101.043 27.756C100.413 26.986 99.9371 26.552 99.1251 26.006L99.7411 25.502C100.539 26.034 101.029 26.454 101.701 27.14ZM116.869 17.088H114.769C114.503 17.088 114.167 17.116 113.705 17.158V16.15C113.985 16.206 114.265 16.22 114.769 16.22H116.617C117.289 16.22 117.639 16.192 117.919 16.136C117.877 16.486 117.863 16.752 117.863 17.06C117.863 18.824 118.241 20.392 119.053 21.946C119.599 22.996 120.285 23.934 121.153 24.844C121.979 25.684 122.511 26.104 123.771 26.874C123.393 27.196 123.295 27.294 122.987 27.77C121.769 26.916 121.111 26.342 120.271 25.376C119.459 24.452 118.745 23.388 118.269 22.352C117.849 21.47 117.639 20.854 117.387 19.762C116.953 21.624 116.379 22.954 115.427 24.298C114.909 25.04 114.265 25.754 113.537 26.426C113.019 26.902 112.655 27.196 111.773 27.798C111.549 27.434 111.367 27.224 111.017 26.972C112.543 26.02 113.341 25.334 114.265 24.214C115.273 22.982 115.987 21.638 116.421 20.14C116.687 19.188 116.799 18.488 116.869 17.088ZM129.937 20.392L130.567 20.882C130.133 21.596 129.839 22.044 129.489 22.506C129.811 22.828 129.965 22.968 130.399 23.29C130.147 23.57 130.105 23.626 129.937 23.976C129.279 23.36 128.943 22.996 128.453 22.296C128.467 22.898 128.481 23.262 128.481 23.402V26.636C128.481 27.224 128.509 27.742 128.565 28.092H127.585C127.641 27.714 127.669 27.182 127.669 26.65V23.654C127.669 23.472 127.697 22.646 127.711 22.268C127.263 22.87 126.815 23.346 126.227 23.878C126.115 23.57 126.017 23.402 125.779 23.108C127.291 21.876 128.439 20.28 129.083 18.516H127.235C126.787 18.516 126.423 18.544 126.101 18.586V17.676C126.381 17.732 126.633 17.746 127.193 17.746H127.669V16.402C127.669 15.94 127.641 15.618 127.599 15.338H128.551C128.509 15.632 128.481 16.01 128.481 16.388V17.746H129.097C129.489 17.746 129.615 17.732 129.755 17.704L130.147 18.194C130.105 18.25 130.021 18.418 129.923 18.642C129.461 19.678 129.083 20.35 128.467 21.26C128.663 21.568 128.747 21.694 129.027 22.016C129.377 21.526 129.615 21.092 129.937 20.392ZM131.603 24.83V26.65C131.603 27.322 131.631 27.798 131.673 28.092H130.693C130.749 27.686 130.777 27.266 130.777 26.664V20.504C130.777 19.748 130.763 19.496 130.721 19.174C131.085 19.23 131.519 19.244 132.051 19.244H133.815V17.844H131.407C130.973 17.844 130.651 17.858 130.301 17.9V16.99C130.637 17.046 130.917 17.06 131.435 17.06H133.815V16.612C133.815 16.108 133.787 15.716 133.731 15.338H134.725C134.669 15.73 134.641 16.08 134.641 16.626V17.06H137.175C137.679 17.06 138.057 17.032 138.407 16.976V17.9C138.085 17.858 137.735 17.844 137.161 17.844H134.641V19.244H136.685C137.273 19.244 137.693 19.23 138.015 19.174C137.973 19.496 137.959 19.86 137.959 20.532V26.832C137.959 27.238 137.889 27.462 137.693 27.616C137.525 27.77 137.329 27.798 136.699 27.798C136.377 27.798 136.167 27.784 135.747 27.756C135.705 27.378 135.677 27.224 135.523 26.874C136.237 26.958 136.391 26.972 136.769 26.972C137.077 26.972 137.133 26.916 137.133 26.622V24.83H134.641V26.678C134.641 27.252 134.655 27.574 134.697 27.91H133.759C133.801 27.588 133.815 27.266 133.815 26.692V24.83H131.603ZM131.603 24.102H133.815V22.352H131.603V24.102ZM131.603 21.624H133.815V19.986H131.603V21.624ZM134.641 24.102H137.133V22.352H134.641V24.102ZM134.641 21.624H137.133V19.986H134.641V21.624ZM137.609 16.36L137.035 16.892C136.391 16.388 135.957 16.108 135.271 15.758L135.845 15.282C136.699 15.716 136.881 15.828 137.609 16.36ZM150.047 18.572H151.951C152.511 18.572 152.861 18.558 153.281 18.502C153.239 18.782 153.239 18.894 153.197 20.308C153.127 22.688 152.987 24.312 152.721 25.768C152.581 26.58 152.413 27.014 152.175 27.266C151.937 27.49 151.615 27.574 150.887 27.574C150.425 27.574 150.425 27.574 149.305 27.504C149.277 27.154 149.235 26.902 149.151 26.566C149.879 26.678 150.425 26.72 150.915 26.72C151.461 26.72 151.601 26.608 151.755 26.034C151.965 25.25 152.147 23.864 152.231 22.324C152.273 21.526 152.287 21.106 152.329 19.412H150.005C149.893 21.008 149.697 22.24 149.375 23.318C149.067 24.34 148.647 25.222 148.059 26.048C147.541 26.804 147.135 27.224 146.183 28.008C145.945 27.714 145.777 27.56 145.441 27.322C146.561 26.51 147.065 25.978 147.611 25.096C148.479 23.668 148.927 22.016 149.109 19.412H148.325C147.765 19.412 147.303 19.44 146.883 19.496V18.488C147.303 18.544 147.709 18.572 148.353 18.572H149.165C149.179 17.998 149.193 17.508 149.193 16.948C149.193 16.108 149.179 15.842 149.109 15.478H150.173C150.117 15.828 150.103 16.038 150.089 16.57C150.089 17.354 150.075 17.914 150.047 18.572ZM146.365 24.606L147.247 24.326V25.138C144.909 25.88 144.279 26.062 141.731 26.72C141.437 26.79 141.311 26.832 141.017 26.93L140.793 25.95C141.129 25.922 141.325 25.894 141.927 25.768V17.732C141.927 17.06 141.913 16.556 141.871 16.192C142.193 16.234 142.501 16.248 142.991 16.248H145.315C145.805 16.248 146.085 16.234 146.421 16.192C146.379 16.528 146.365 17.032 146.365 17.732V24.606ZM142.795 22.898V25.572C143.719 25.348 144.545 25.124 145.511 24.858V22.898H142.795ZM142.795 22.128H145.511V19.986H142.795V22.128ZM142.795 19.216H145.511V17.06H142.795V19.216ZM161.715 20.238H160.203C159.629 20.238 159.279 20.252 158.901 20.308V19.468C158.019 20.056 157.389 20.392 156.353 20.826C156.171 20.476 156.087 20.35 155.765 20C158.495 18.964 160.525 17.438 161.673 15.562H162.751C163.339 16.472 164.095 17.242 165.257 18.096C166.433 18.95 167.483 19.496 168.911 19.972C168.673 20.266 168.505 20.546 168.351 20.868C167.259 20.42 166.685 20.112 165.621 19.44V20.308C165.257 20.252 164.921 20.238 164.333 20.238H162.625V22.142H166.531C167.147 22.142 167.511 22.114 167.903 22.058V23.038C167.497 22.982 167.105 22.954 166.531 22.954H162.625V26.65H166.727C167.343 26.65 167.819 26.622 168.253 26.566V27.574C167.791 27.504 167.287 27.476 166.713 27.476H157.893C157.347 27.476 156.843 27.504 156.297 27.574V26.566C156.759 26.622 157.249 26.65 157.893 26.65H161.715V22.954H158.075C157.543 22.954 157.109 22.982 156.717 23.038V22.058C157.109 22.114 157.501 22.142 158.089 22.142H161.715V20.238ZM160.189 19.468H164.333C164.921 19.468 165.257 19.454 165.565 19.412C164.123 18.46 163.115 17.536 162.219 16.346C161.351 17.564 160.413 18.46 158.999 19.412C159.279 19.454 159.643 19.468 160.189 19.468ZM158.131 23.752L158.929 23.388C159.447 24.228 159.741 24.858 160.161 25.922L159.349 26.244C158.999 25.264 158.649 24.522 158.131 23.752ZM165.481 23.416L166.363 23.78C165.719 25.082 165.481 25.488 164.865 26.384L164.081 26.062C164.669 25.292 165.089 24.494 165.481 23.416ZM173.705 20.84H174.657V28.134H170.947V27.266H173.705V20.84ZM187.045 17.718C186.835 19.664 186.303 21.806 185.673 23.276C184.861 25.124 184.035 25.964 183.027 25.964C181.697 25.964 180.703 24.508 180.703 22.548C180.703 21.12 181.235 19.734 182.173 18.684C183.293 17.452 184.819 16.822 186.695 16.822C188.263 16.822 189.635 17.312 190.545 18.208C191.427 19.062 191.903 20.28 191.903 21.624C191.903 23.794 190.727 25.586 188.697 26.454C188.067 26.72 187.535 26.888 186.569 27.098C186.429 26.636 186.345 26.496 186.079 26.16C187.101 25.992 187.759 25.81 188.417 25.502C189.957 24.802 190.895 23.304 190.895 21.582C190.895 19.986 190.083 18.698 188.669 18.068C188.151 17.844 187.745 17.746 187.045 17.718ZM186.037 17.732C185.197 17.802 184.595 17.998 183.951 18.39C182.537 19.244 181.669 20.826 181.669 22.562C181.669 23.906 182.257 24.942 183.013 24.942C183.601 24.942 184.161 24.284 184.763 22.912C185.337 21.596 185.855 19.524 186.037 17.732ZM198.209 21.512L198.923 22.044C198.013 22.8 197.593 23.444 197.593 24.102C197.593 24.746 197.999 25.208 198.783 25.474C199.315 25.656 200.239 25.754 201.345 25.754C203.095 25.754 204.761 25.544 205.545 25.222L205.671 26.37C205.475 26.384 205.461 26.398 205.195 26.44C203.977 26.65 202.647 26.762 201.415 26.762C200.071 26.762 198.881 26.594 198.195 26.328C197.145 25.894 196.599 25.18 196.599 24.214C196.599 23.304 197.131 22.422 198.209 21.512ZM197.369 17.928L197.453 16.934C198.475 17.172 199.581 17.27 201.177 17.27C202.815 17.27 203.949 17.172 204.719 16.976L204.789 17.9C203.935 18.264 202.465 19.146 201.261 20.028L200.547 19.454C201.681 18.698 202.017 18.502 203.025 17.97C202.185 18.11 201.709 18.152 200.911 18.152C199.931 18.152 198.741 18.082 197.831 17.97C197.565 17.942 197.565 17.942 197.369 17.928ZM203.739 19.72L204.439 19.356C205.055 20.112 205.447 20.7 205.867 21.526L205.167 21.946C204.817 21.204 204.145 20.154 203.739 19.72ZM205.293 18.908L205.965 18.53C206.609 19.3 206.959 19.832 207.421 20.714L206.721 21.106C206.413 20.448 205.825 19.552 205.293 18.908ZM217.479 19.58V17.312C216.275 17.508 215.337 17.606 214.273 17.662C214.189 17.34 214.119 17.158 213.909 16.808C215.855 16.78 217.871 16.514 219.831 16.01C220.615 15.814 221.021 15.674 221.441 15.45L222.085 16.29C221.931 16.332 221.931 16.332 221.623 16.416C220.811 16.654 219.719 16.906 218.375 17.158V19.58H221.105C221.721 19.58 222.155 19.552 222.533 19.496V20.49C222.127 20.434 221.679 20.406 221.105 20.406H218.375V22.786H220.615C221.119 22.786 221.455 22.772 221.693 22.73C221.651 23.01 221.637 23.388 221.637 24.004V26.664C221.637 27.224 221.665 27.728 221.707 28.022H220.755V27.224H215.337V28.022H214.385C214.441 27.644 214.455 27.238 214.455 26.65V23.962C214.455 23.486 214.441 23.08 214.399 22.73C214.679 22.772 214.973 22.786 215.421 22.786H217.479V20.406H214.819C214.287 20.406 213.797 20.434 213.405 20.49V19.496C213.769 19.552 214.217 19.58 214.819 19.58H217.479ZM215.337 23.584V26.398H220.755V23.584H215.337ZM210.437 16.192L211.011 15.548C212.089 16.262 212.663 16.71 213.419 17.41L212.873 18.152C212.103 17.396 211.543 16.934 210.437 16.192ZM209.905 19.762L210.395 19.076C211.501 19.622 211.977 19.916 212.971 20.686L212.481 21.498C211.557 20.7 210.927 20.28 209.905 19.762ZM212.397 23.038L213.111 23.598C212.397 25.18 211.935 26.006 210.787 27.77L209.989 27.042C210.143 26.902 210.255 26.776 210.423 26.566C211.207 25.558 211.725 24.634 212.397 23.038ZM231.807 23.388V26.034C231.807 26.776 231.821 27.224 231.877 27.56H230.869C230.925 27.196 230.939 26.776 230.939 26.034V23.388H227.103C226.893 25.502 226.529 26.65 225.591 27.98C225.283 27.686 225.143 27.588 224.779 27.378C225.381 26.594 225.689 25.964 225.913 25.012C226.221 23.724 226.347 21.68 226.347 18.222C226.347 16.808 226.347 16.542 226.291 15.94C226.711 15.982 227.131 15.996 227.831 15.996H235.363C236.063 15.996 236.441 15.982 236.847 15.94C236.805 16.318 236.791 16.682 236.791 17.312V26.706C236.791 27.588 236.469 27.798 235.111 27.798C234.663 27.798 233.963 27.77 233.375 27.728C233.347 27.406 233.291 27.168 233.165 26.818C233.977 26.916 234.663 26.972 235.167 26.972C235.783 26.972 235.909 26.902 235.909 26.552V23.388H231.807ZM231.807 19.286H235.909V16.836H231.807V19.286ZM230.939 19.286V16.836H227.257V18.502L227.243 19.286H230.939ZM231.807 20.084V22.576H235.909V20.084H231.807ZM230.939 20.084H227.229C227.215 20.476 227.215 20.812 227.215 21.008C227.201 21.876 227.201 21.932 227.159 22.576H230.939V20.084ZM242.005 16.08L243.111 16.248C242.901 16.85 242.733 17.536 242.523 18.488C242.229 19.958 242.103 21.19 242.103 22.87C242.103 23.962 242.131 24.788 242.187 25.53C242.383 24.592 242.649 23.822 243.097 22.8L243.769 23.122C243.139 24.508 242.635 26.188 242.635 26.972C242.635 27.014 242.635 27.084 242.635 27.182L241.627 27.266C241.599 27.042 241.585 26.972 241.543 26.706C241.277 25.222 241.179 24.214 241.179 22.744C241.179 20.756 241.347 19.272 241.809 17.2C241.949 16.542 241.977 16.402 242.005 16.08ZM244.889 18.726L244.903 17.732C245.505 17.886 246.191 17.942 247.283 17.942C248.837 17.942 250.097 17.816 251.035 17.564L251.105 18.558C251.077 18.558 250.755 18.6 250.139 18.684C249.327 18.796 248.207 18.866 247.129 18.866C246.345 18.866 245.799 18.824 244.889 18.726ZM245.911 21.456L246.681 21.876C245.981 22.646 245.631 23.318 245.631 23.934C245.631 24.97 246.513 25.474 248.319 25.474C249.593 25.474 250.783 25.292 251.539 24.984L251.679 26.062C251.497 26.076 251.469 26.09 251.189 26.132C250.209 26.328 249.271 26.412 248.319 26.412C246.723 26.412 245.715 26.076 245.113 25.348C244.833 24.998 244.693 24.578 244.693 24.06C244.693 23.206 245.043 22.45 245.911 21.456ZM260.561 15.716H261.681C261.611 16.066 261.597 16.472 261.597 17.564C261.597 17.872 261.597 18.026 261.625 19.02C263.165 19.02 264.957 18.796 265.727 18.488L265.853 19.524C265.615 19.538 265.615 19.538 265.013 19.622C263.753 19.818 262.801 19.902 261.639 19.93C261.681 21.288 261.751 22.646 261.821 23.542C262.955 23.864 264.103 24.48 265.559 25.53C265.853 25.74 265.853 25.754 266.203 25.964L265.545 26.944C265.251 26.58 264.845 26.23 264.089 25.726C263.445 25.292 262.675 24.858 262.199 24.648C262.003 24.564 261.989 24.564 261.863 24.494C261.891 24.648 261.919 24.914 261.919 25.096C261.919 25.684 261.793 26.202 261.569 26.51C261.135 27.126 260.239 27.476 259.077 27.476C257.271 27.476 256.165 26.692 256.165 25.404C256.165 24.06 257.467 23.192 259.455 23.192C259.875 23.192 260.379 23.248 260.673 23.318C260.743 23.332 260.743 23.346 260.799 23.346C260.827 23.346 260.827 23.346 260.869 23.374C260.869 23.318 260.869 23.304 260.855 23.248C260.855 23.234 260.855 23.206 260.855 23.164C260.743 21.554 260.645 18.852 260.631 16.85C260.617 16.164 260.617 16.052 260.561 15.716ZM260.883 24.27C260.309 24.116 259.987 24.074 259.441 24.074C258.013 24.074 257.145 24.578 257.145 25.39C257.145 25.614 257.229 25.852 257.355 25.992C257.649 26.342 258.293 26.552 259.035 26.552C259.707 26.552 260.253 26.384 260.589 26.09C260.827 25.866 260.925 25.572 260.925 25.04C260.925 24.83 260.897 24.27 260.883 24.27ZM273.013 15.66L274.105 15.772C273.993 16.066 273.909 16.458 273.783 17.214C273.559 18.628 273.363 20.154 273.321 20.868L273.377 20.882C273.405 20.77 273.405 20.77 273.475 20.476C273.643 19.706 273.923 19.02 274.329 18.39C275.113 17.186 276.037 16.584 277.129 16.584C278.039 16.584 278.823 17.018 279.369 17.83C279.957 18.698 280.209 19.734 280.209 21.232C280.209 23.766 279.075 25.684 276.975 26.734C276.303 27.07 275.463 27.35 274.483 27.56C274.315 27.14 274.231 26.986 273.923 26.608C275.225 26.412 275.953 26.188 276.765 25.726C278.403 24.788 279.173 23.318 279.173 21.078C279.173 18.824 278.389 17.522 277.045 17.522C275.981 17.522 275.085 18.32 274.287 19.958C273.797 20.98 273.531 22.058 273.531 23.08C273.531 23.136 273.531 23.206 273.545 23.416L272.537 23.458C272.537 23.388 272.537 23.332 272.537 23.304L272.523 23.052L272.495 21.596C272.495 21.47 272.495 21.344 272.495 21.274C272.495 19.902 272.621 18.586 272.971 16.108C272.999 15.898 273.013 15.828 273.013 15.66ZM75.2874 41.43H68.7914C68.6654 42.242 68.4834 42.942 68.2174 43.6C67.8534 44.524 67.4614 45.14 66.6774 46.036C66.4254 45.714 66.2294 45.518 65.9074 45.294C66.7754 44.426 67.2234 43.684 67.5594 42.55C67.9514 41.22 68.1054 39.498 68.1054 36.39C68.1054 35.102 68.0914 34.542 68.0494 34.01C68.5534 34.066 68.9174 34.08 69.5194 34.08H74.7834C75.3994 34.08 75.7634 34.066 76.2394 34.01C76.1974 34.388 76.1834 34.738 76.1834 35.452V44.664C76.1834 45.168 76.0574 45.462 75.7914 45.644C75.5674 45.784 75.3014 45.826 74.6714 45.826C74.2094 45.826 73.6214 45.812 72.9914 45.77C72.9494 45.406 72.8934 45.182 72.7674 44.818C73.4674 44.916 74.0974 44.958 74.7694 44.958C75.1754 44.958 75.2874 44.874 75.2874 44.524V41.43ZM68.8894 40.59H75.2874V38.098H69.0434C69.0294 38.868 69.0014 39.4 68.8894 40.59ZM69.0434 37.258H75.2874V34.934H69.0574L69.0434 36.922V37.258ZM81.7334 44.65V42.536C81.7334 42.242 81.7194 41.962 81.7054 41.654C81.4254 41.822 81.2574 41.92 80.7814 42.158C80.6554 41.85 80.5294 41.654 80.3054 41.444C81.4954 40.94 82.5034 40.324 83.3294 39.568C82.8954 39.176 82.6154 38.854 82.2514 38.364C81.9014 38.784 81.5094 39.176 81.0194 39.582C80.8514 39.33 80.6834 39.148 80.4734 38.98C81.3974 38.294 81.9154 37.706 82.4754 36.768C82.7414 36.334 82.8674 36.04 82.9514 35.704L83.7634 35.942C83.6934 36.054 83.6934 36.054 83.5254 36.376C83.4554 36.516 83.4134 36.586 83.3294 36.74H84.8134C85.1494 36.74 85.4154 36.712 85.6254 36.67L86.1014 37.16C85.9754 37.328 85.9754 37.328 85.7794 37.65C85.2334 38.532 84.9394 38.938 84.4074 39.526C85.1354 40.058 85.7934 40.422 86.9134 40.87C86.7454 41.108 86.6474 41.29 86.5354 41.64C85.4434 41.136 84.7014 40.688 83.8894 40.044C83.3434 40.548 82.9234 40.884 82.1254 41.402C82.3354 41.416 82.4474 41.416 82.7274 41.416H84.8974C85.4014 41.416 85.6394 41.402 85.8914 41.36C85.8494 41.668 85.8354 42.018 85.8354 42.592V43.838C85.8354 44.776 85.8354 44.776 85.8634 45.07C85.7234 45.056 85.3874 45.056 84.8274 45.042H82.5454V45.924H81.6774C81.7054 45.63 81.7334 45.196 81.7334 44.65ZM85.0374 37.44H82.9094C82.8394 37.566 82.7974 37.608 82.6854 37.79C83.1194 38.392 83.3434 38.63 83.8334 39.064C84.3514 38.518 84.6314 38.14 85.0374 37.44ZM82.5454 42.13V44.314H85.0374V42.13H82.5454ZM83.3714 34.808V34.36C83.3714 33.954 83.3434 33.716 83.2874 33.422H84.3094C84.2394 33.716 84.2254 33.94 84.2254 34.374V34.808H85.6254C86.2694 34.808 86.5354 34.794 86.7594 34.766C86.7314 35.004 86.7174 35.228 86.7174 35.606V36.068C86.7174 36.362 86.7314 36.712 86.7594 36.866H85.9614V35.536H81.5934V37.048H80.7394C80.7814 36.796 80.7954 36.558 80.7954 36.25V35.634C80.7954 35.354 80.7814 35.102 80.7394 34.766C80.9494 34.794 81.2434 34.808 81.8874 34.808H83.3714ZM89.5874 34.626H88.0474C87.4034 34.626 87.0254 34.654 86.6754 34.71V33.758C87.0674 33.828 87.3474 33.842 88.0474 33.842H91.7994C92.4854 33.842 92.8634 33.814 93.1714 33.758V34.71C92.7374 34.64 92.4574 34.626 91.7994 34.626H90.4554C90.2874 35.2 90.1474 35.606 89.9094 36.152H91.3094C91.9534 36.152 92.3034 36.138 92.5694 36.096C92.5414 36.488 92.5274 36.81 92.5274 37.37V42.004C92.5274 42.578 92.5414 42.914 92.5694 43.348C92.1494 43.32 91.7994 43.306 91.3654 43.306H88.3134C87.8934 43.306 87.5434 43.32 87.1094 43.348C87.1374 42.928 87.1514 42.536 87.1514 42.074V37.426C87.1514 36.852 87.1374 36.418 87.0954 36.11C87.4314 36.138 87.7254 36.152 88.3134 36.152H89.0694C89.2934 35.592 89.4474 35.144 89.5874 34.626ZM87.9634 36.908V38.252H91.7014V36.908H87.9634ZM87.9634 38.994V40.38H91.7014V38.994H87.9634ZM87.9634 41.122V42.564H91.7014V41.122H87.9634ZM90.1754 44.048L90.8194 43.53C91.7014 44.356 92.3034 44.762 93.5634 45.35C93.3254 45.602 93.1434 45.84 92.9894 46.134C91.7574 45.476 91.0714 44.958 90.1754 44.048ZM88.5374 43.516L89.2234 44.048C88.2854 45 87.5574 45.518 86.2974 46.134C86.1434 45.854 85.9474 45.644 85.7094 45.42C86.9694 44.902 87.6694 44.426 88.5374 43.516ZM98.6514 37.258V35.312C97.7834 35.522 97.3494 35.62 96.3134 35.802C96.2014 35.48 96.1034 35.284 95.9074 35.004C97.6294 34.78 98.7494 34.514 100.345 33.94C100.849 33.772 101.017 33.688 101.255 33.534L101.885 34.276C101.661 34.36 101.661 34.36 101.325 34.472C100.681 34.71 100.191 34.878 99.4914 35.074V37.258H100.863C101.353 37.258 101.717 37.244 102.081 37.188V38.112C101.731 38.056 101.395 38.042 100.835 38.042H99.5194C99.7574 38.63 99.8694 38.826 100.191 39.274C100.625 39.904 101.073 40.38 101.927 41.136C101.689 41.402 101.563 41.584 101.409 41.892C100.373 40.814 99.9674 40.24 99.4214 39.12C99.4634 39.904 99.4914 40.856 99.4914 41.486V44.398C99.4914 45.252 99.5054 45.7 99.5754 46.106H98.5394C98.6094 45.616 98.6374 45.154 98.6374 44.398V41.668C98.6374 40.884 98.6514 40.492 98.7074 39.288C98.0494 41.052 97.3634 42.172 96.1034 43.53C95.9074 43.166 95.7534 42.956 95.5294 42.732C96.3694 41.948 96.8874 41.304 97.4334 40.38C97.8814 39.61 98.2874 38.728 98.5114 38.042H97.1814C96.6214 38.042 96.2434 38.07 95.8654 38.126V37.174C96.1874 37.244 96.5234 37.258 97.1954 37.258H98.6514ZM103.061 34.374H104.111C104.055 34.822 104.041 35.158 104.041 35.97V41.374C104.041 42.326 104.055 42.606 104.111 42.998H103.075C103.131 42.606 103.145 42.312 103.145 41.374V35.97C103.145 35.186 103.117 34.808 103.061 34.374ZM106.491 33.59H107.583C107.513 34.052 107.485 34.57 107.485 35.354V44.552C107.485 45.546 107.149 45.784 105.819 45.784C105.427 45.784 104.839 45.77 104.391 45.742C104.321 45.378 104.251 45.168 104.097 44.818C104.839 44.902 105.441 44.944 105.903 44.944C106.463 44.944 106.575 44.874 106.575 44.524V35.354C106.575 34.556 106.547 34.038 106.491 33.59ZM117.417 41.388V44.034C117.417 44.776 117.431 45.224 117.487 45.56H116.479C116.535 45.196 116.549 44.776 116.549 44.034V41.388H112.713C112.503 43.502 112.139 44.65 111.201 45.98C110.893 45.686 110.753 45.588 110.389 45.378C110.991 44.594 111.299 43.964 111.523 43.012C111.831 41.724 111.957 39.68 111.957 36.222C111.957 34.808 111.957 34.542 111.901 33.94C112.321 33.982 112.741 33.996 113.441 33.996H120.973C121.673 33.996 122.051 33.982 122.457 33.94C122.415 34.318 122.401 34.682 122.401 35.312V44.706C122.401 45.588 122.079 45.798 120.721 45.798C120.273 45.798 119.573 45.77 118.985 45.728C118.957 45.406 118.901 45.168 118.775 44.818C119.587 44.916 120.273 44.972 120.777 44.972C121.393 44.972 121.519 44.902 121.519 44.552V41.388H117.417ZM117.417 37.286H121.519V34.836H117.417V37.286ZM116.549 37.286V34.836H112.867V36.502L112.853 37.286H116.549ZM117.417 38.084V40.576H121.519V38.084H117.417ZM116.549 38.084H112.839C112.825 38.476 112.825 38.812 112.825 39.008C112.811 39.876 112.811 39.932 112.769 40.576H116.549V38.084ZM135.889 41.542V34.892C135.889 34.15 135.861 33.772 135.805 33.422H136.869C136.813 33.842 136.785 34.22 136.785 34.878V41.318L136.995 41.276C137.625 41.122 137.975 41.01 138.283 40.884L138.451 41.864C138.101 41.892 137.653 41.976 137.107 42.102L136.785 42.186V44.524C136.785 45.196 136.813 45.644 136.869 46.05H135.805C135.875 45.672 135.889 45.308 135.889 44.51V42.396L132.207 43.292C131.647 43.418 131.241 43.544 130.905 43.67L130.723 42.676C131.073 42.662 131.535 42.578 132.067 42.452L135.889 41.542ZM128.119 38.98H127.181C126.593 38.98 126.299 38.994 125.963 39.05V38.14C126.243 38.196 126.565 38.21 127.181 38.21H128.287V34.906C128.287 34.22 128.259 33.772 128.203 33.408H129.225C129.169 33.758 129.141 34.178 129.141 34.892V38.21H129.981C130.457 38.21 130.737 38.196 131.017 38.154V39.036C130.723 38.994 130.401 38.98 129.967 38.98H129.197C129.799 40.114 130.345 40.814 131.199 41.57C131.003 41.822 130.821 42.102 130.709 42.326C129.869 41.374 129.477 40.8 129.071 39.862C129.099 40.422 129.141 41.668 129.141 41.934V44.552C129.141 45.224 129.169 45.644 129.225 46.092H128.203C128.259 45.616 128.287 45.182 128.287 44.538V42.158C128.287 41.514 128.315 40.73 128.357 39.988C127.769 41.766 127.153 42.914 126.201 43.992C126.005 43.614 125.893 43.446 125.669 43.208C126.369 42.494 126.831 41.836 127.335 40.856C127.685 40.17 127.825 39.848 128.119 38.98ZM126.033 34.612L126.761 34.29C127.237 35.48 127.433 36.096 127.699 37.286L126.957 37.608C126.705 36.334 126.467 35.578 126.033 34.612ZM130.555 34.248L131.353 34.556C130.737 36.516 130.737 36.53 130.219 37.608L129.533 37.286C130.051 36.264 130.261 35.634 130.555 34.248ZM131.969 35.088L132.571 34.444C133.789 35.326 134.251 35.732 135.091 36.628L134.517 37.356C133.579 36.306 133.103 35.872 131.969 35.088ZM131.535 38.588L132.151 37.944C133.327 38.756 133.929 39.26 134.657 40.072L134.069 40.772C133.215 39.792 132.655 39.316 131.535 38.588ZM147.655 35.718C147.445 37.664 146.913 39.806 146.283 41.276C145.471 43.124 144.645 43.964 143.637 43.964C142.307 43.964 141.313 42.508 141.313 40.548C141.313 39.12 141.845 37.734 142.783 36.684C143.903 35.452 145.429 34.822 147.305 34.822C148.873 34.822 150.245 35.312 151.155 36.208C152.037 37.062 152.513 38.28 152.513 39.624C152.513 41.794 151.337 43.586 149.307 44.454C148.677 44.72 148.145 44.888 147.179 45.098C147.039 44.636 146.955 44.496 146.689 44.16C147.711 43.992 148.369 43.81 149.027 43.502C150.567 42.802 151.505 41.304 151.505 39.582C151.505 37.986 150.693 36.698 149.279 36.068C148.761 35.844 148.355 35.746 147.655 35.718ZM146.647 35.732C145.807 35.802 145.205 35.998 144.561 36.39C143.147 37.244 142.279 38.826 142.279 40.562C142.279 41.906 142.867 42.942 143.623 42.942C144.211 42.942 144.771 42.284 145.373 40.912C145.947 39.596 146.465 37.524 146.647 35.732ZM157.139 39.47H156.859C156.327 39.47 156.033 39.484 155.599 39.554V38.644C155.935 38.714 156.257 38.728 156.873 38.728H166.925C167.555 38.728 167.863 38.714 168.227 38.644V39.554C167.793 39.484 167.485 39.47 166.939 39.47H161.591V44.776C161.591 45.406 161.605 45.728 161.675 46.078H160.709C160.765 45.742 160.793 45.392 160.793 44.776V44.426C159.015 44.748 159.015 44.748 156.859 45.042C156.495 45.098 156.229 45.14 155.823 45.238L155.599 44.314C155.809 44.314 155.809 44.314 155.837 44.314C156.075 44.314 156.551 44.286 157.139 44.23V39.47ZM157.965 39.47V40.464H160.793V39.47H157.965ZM157.965 41.122V42.158H160.793V41.122H157.965ZM157.965 42.816V44.132C159.155 44.006 159.575 43.936 160.793 43.712V42.816H157.965ZM166.925 40.394L167.415 40.912C167.317 41.052 167.275 41.122 167.163 41.318C166.491 42.508 166.071 43.096 165.441 43.726C166.197 44.342 167.009 44.762 168.143 45.154C167.961 45.35 167.765 45.644 167.611 45.924C166.421 45.42 165.609 44.93 164.853 44.272C164.027 44.972 163.537 45.28 162.431 45.812C162.249 45.476 162.151 45.35 161.885 45.098C163.005 44.636 163.579 44.314 164.293 43.726C163.579 42.942 163.215 42.354 162.753 41.164C162.529 41.178 162.361 41.192 162.067 41.22V40.394C162.389 40.436 162.697 40.45 163.257 40.45H165.861C166.379 40.45 166.715 40.436 166.925 40.394ZM166.323 41.164H163.537C163.971 42.13 164.251 42.564 164.853 43.208C165.441 42.606 165.777 42.144 166.323 41.164ZM166.575 34.934V36.838C166.575 37.342 166.589 37.594 166.631 37.944C166.183 37.902 165.735 37.888 165.189 37.888H158.777C158.161 37.888 157.769 37.902 157.265 37.944C157.307 37.622 157.321 37.286 157.321 36.838V34.934C157.321 34.472 157.307 34.136 157.265 33.814C157.741 33.856 158.147 33.87 158.791 33.87H165.119C165.763 33.87 166.155 33.856 166.631 33.814C166.589 34.15 166.575 34.43 166.575 34.934ZM158.147 34.584V35.564H165.749V34.584H158.147ZM158.147 36.236V37.216H165.749V36.236H158.147ZM181.435 37.678H177.305C177.781 39.47 178.523 40.94 179.587 42.186C180.609 43.376 181.785 44.23 183.381 44.916C183.101 45.252 182.989 45.406 182.765 45.854C179.629 44.188 177.893 42.144 176.885 38.938C176.507 40.982 175.583 42.676 174.155 43.964C173.273 44.748 172.503 45.238 171.131 45.868C170.935 45.476 170.823 45.322 170.529 45.014C172.279 44.3 173.301 43.614 174.211 42.564C175.303 41.304 175.891 39.82 176.157 37.678H172.349C171.607 37.678 171.215 37.706 170.809 37.776V36.684C171.173 36.754 171.635 36.782 172.377 36.782H176.241C176.283 36.11 176.297 35.676 176.297 35.13C176.297 34.486 176.255 33.982 176.199 33.604H177.347C177.277 34.066 177.249 34.374 177.249 35.06C177.235 35.774 177.221 36.18 177.179 36.782H181.421C182.135 36.782 182.597 36.754 182.975 36.684V37.776C182.527 37.706 182.135 37.678 181.435 37.678ZM191.521 44.916H187.265C186.383 44.916 186.173 44.93 185.725 44.986C185.879 43.88 185.921 43.67 186.131 43.138C186.481 42.256 187.069 41.486 187.951 40.73C188.441 40.31 188.469 40.296 190.093 39.19C191.479 38.252 191.941 37.636 191.941 36.782C191.941 35.718 191.045 35.032 189.617 35.032C188.693 35.032 188.007 35.34 187.587 35.942C187.321 36.32 187.195 36.656 187.097 37.356L185.921 37.16C186.131 36.152 186.341 35.662 186.803 35.144C187.433 34.43 188.385 34.066 189.617 34.066C191.731 34.066 193.089 35.13 193.089 36.782C193.089 37.496 192.809 38.168 192.263 38.77C191.843 39.246 191.479 39.512 189.883 40.576C188.777 41.318 188.329 41.71 187.867 42.298C187.433 42.872 187.237 43.25 187.069 43.922H191.535C192.235 43.922 192.711 43.894 193.243 43.824V45C192.683 44.944 192.221 44.916 191.521 44.916ZM198.349 41.626V38.868C198.349 38.56 198.335 38.322 198.307 38.042C198.601 38.07 198.909 38.084 199.301 38.084H202.339V35.802H199.049C198.335 36.992 197.663 37.818 196.725 38.658C196.501 38.336 196.361 38.196 196.053 37.986C197.439 36.81 198.195 35.788 198.853 34.22C199.035 33.814 199.133 33.492 199.203 33.198L200.197 33.478C200.141 33.59 200.099 33.688 200.015 33.856L199.483 34.99H206.427C207.043 34.99 207.337 34.976 207.687 34.92V35.872C207.337 35.816 207.001 35.802 206.427 35.802H203.263V38.084H205.797C206.371 38.084 206.679 38.07 207.043 38.014V38.938C206.679 38.896 206.343 38.882 205.811 38.882H203.263V41.626H206.791C207.421 41.626 207.813 41.598 208.205 41.542V42.55C207.799 42.494 207.365 42.466 206.791 42.466H203.263V44.776C203.263 45.378 203.291 45.714 203.361 46.078H202.255C202.325 45.728 202.339 45.42 202.339 44.776V42.466H197.285C196.711 42.466 196.277 42.494 195.871 42.55V41.542C196.277 41.598 196.669 41.626 197.285 41.626H198.349ZM199.259 41.626H202.339V38.882H199.259V41.626ZM215.589 39.232H214.707C214.175 39.232 213.699 39.26 213.265 39.316V38.322C213.671 38.378 214.147 38.406 214.721 38.406H219.327C219.971 38.406 220.391 38.392 220.797 38.336C220.755 38.588 220.755 38.7 220.741 39.33C220.741 42.046 220.475 44.412 220.111 45.07C219.873 45.49 219.537 45.63 218.725 45.63C218.263 45.63 217.773 45.602 216.891 45.518C216.849 45.14 216.807 44.93 216.667 44.524C217.437 44.678 218.137 44.762 218.641 44.762C219.089 44.762 219.243 44.678 219.341 44.412C219.635 43.558 219.803 41.654 219.803 39.232H216.541C216.415 40.772 216.093 41.822 215.449 42.914C214.721 44.132 213.629 45.084 211.921 45.966C211.739 45.644 211.599 45.462 211.305 45.182C213.097 44.314 214.161 43.39 214.833 42.116C215.295 41.234 215.491 40.464 215.589 39.232ZM215.015 33.422L216.065 33.786C215.939 33.954 215.883 34.066 215.673 34.5C214.595 36.67 213.237 38.294 211.263 39.75C211.081 39.47 210.899 39.26 210.577 38.994C212.271 37.86 213.475 36.572 214.413 34.892C214.763 34.276 214.945 33.842 215.015 33.422ZM218.123 33.814L219.061 33.45C219.173 33.814 219.299 34.094 219.593 34.626C220.615 36.46 221.805 37.72 223.723 38.98C223.457 39.232 223.275 39.47 223.065 39.834C220.853 38.196 219.663 36.782 218.347 34.206C218.277 34.08 218.193 33.926 218.123 33.814ZM232.857 35.718C232.647 37.664 232.115 39.806 231.485 41.276C230.673 43.124 229.847 43.964 228.839 43.964C227.509 43.964 226.515 42.508 226.515 40.548C226.515 39.12 227.047 37.734 227.985 36.684C229.105 35.452 230.631 34.822 232.507 34.822C234.075 34.822 235.447 35.312 236.357 36.208C237.239 37.062 237.715 38.28 237.715 39.624C237.715 41.794 236.539 43.586 234.509 44.454C233.879 44.72 233.347 44.888 232.381 45.098C232.241 44.636 232.157 44.496 231.891 44.16C232.913 43.992 233.571 43.81 234.229 43.502C235.769 42.802 236.707 41.304 236.707 39.582C236.707 37.986 235.895 36.698 234.481 36.068C233.963 35.844 233.557 35.746 232.857 35.718ZM231.849 35.732C231.009 35.802 230.407 35.998 229.763 36.39C228.349 37.244 227.481 38.826 227.481 40.562C227.481 41.906 228.069 42.942 228.825 42.942C229.413 42.942 229.973 42.284 230.575 40.912C231.149 39.596 231.667 37.524 231.849 35.732ZM244.749 38.392L245.379 38.882C244.945 39.596 244.651 40.044 244.301 40.506C244.623 40.828 244.777 40.968 245.211 41.29C244.959 41.57 244.917 41.626 244.749 41.976C244.091 41.36 243.755 40.996 243.265 40.296C243.279 40.898 243.293 41.262 243.293 41.402V44.636C243.293 45.224 243.321 45.742 243.377 46.092H242.397C242.453 45.714 242.481 45.182 242.481 44.65V41.654C242.481 41.472 242.509 40.646 242.523 40.268C242.075 40.87 241.627 41.346 241.039 41.878C240.927 41.57 240.829 41.402 240.591 41.108C242.103 39.876 243.251 38.28 243.895 36.516H242.047C241.599 36.516 241.235 36.544 240.913 36.586V35.676C241.193 35.732 241.445 35.746 242.005 35.746H242.481V34.402C242.481 33.94 242.453 33.618 242.411 33.338H243.363C243.321 33.632 243.293 34.01 243.293 34.388V35.746H243.909C244.301 35.746 244.427 35.732 244.567 35.704L244.959 36.194C244.917 36.25 244.833 36.418 244.735 36.642C244.273 37.678 243.895 38.35 243.279 39.26C243.475 39.568 243.559 39.694 243.839 40.016C244.189 39.526 244.427 39.092 244.749 38.392ZM246.415 42.83V44.65C246.415 45.322 246.443 45.798 246.485 46.092H245.505C245.561 45.686 245.589 45.266 245.589 44.664V38.504C245.589 37.748 245.575 37.496 245.533 37.174C245.897 37.23 246.331 37.244 246.863 37.244H248.627V35.844H246.219C245.785 35.844 245.463 35.858 245.113 35.9V34.99C245.449 35.046 245.729 35.06 246.247 35.06H248.627V34.612C248.627 34.108 248.599 33.716 248.543 33.338H249.537C249.481 33.73 249.453 34.08 249.453 34.626V35.06H251.987C252.491 35.06 252.869 35.032 253.219 34.976V35.9C252.897 35.858 252.547 35.844 251.973 35.844H249.453V37.244H251.497C252.085 37.244 252.505 37.23 252.827 37.174C252.785 37.496 252.771 37.86 252.771 38.532V44.832C252.771 45.238 252.701 45.462 252.505 45.616C252.337 45.77 252.141 45.798 251.511 45.798C251.189 45.798 250.979 45.784 250.559 45.756C250.517 45.378 250.489 45.224 250.335 44.874C251.049 44.958 251.203 44.972 251.581 44.972C251.889 44.972 251.945 44.916 251.945 44.622V42.83H249.453V44.678C249.453 45.252 249.467 45.574 249.509 45.91H248.571C248.613 45.588 248.627 45.266 248.627 44.692V42.83H246.415ZM246.415 42.102H248.627V40.352H246.415V42.102ZM246.415 39.624H248.627V37.986H246.415V39.624ZM249.453 42.102H251.945V40.352H249.453V42.102ZM249.453 39.624H251.945V37.986H249.453V39.624ZM252.421 34.36L251.847 34.892C251.203 34.388 250.769 34.108 250.083 33.758L250.657 33.282C251.511 33.716 251.693 33.828 252.421 34.36ZM264.859 36.572H266.763C267.323 36.572 267.673 36.558 268.093 36.502C268.051 36.782 268.051 36.894 268.009 38.308C267.939 40.688 267.799 42.312 267.533 43.768C267.393 44.58 267.225 45.014 266.987 45.266C266.749 45.49 266.427 45.574 265.699 45.574C265.237 45.574 265.237 45.574 264.117 45.504C264.089 45.154 264.047 44.902 263.963 44.566C264.691 44.678 265.237 44.72 265.727 44.72C266.273 44.72 266.413 44.608 266.567 44.034C266.777 43.25 266.959 41.864 267.043 40.324C267.085 39.526 267.099 39.106 267.141 37.412H264.817C264.705 39.008 264.509 40.24 264.187 41.318C263.879 42.34 263.459 43.222 262.871 44.048C262.353 44.804 261.947 45.224 260.995 46.008C260.757 45.714 260.589 45.56 260.253 45.322C261.373 44.51 261.877 43.978 262.423 43.096C263.291 41.668 263.739 40.016 263.921 37.412H263.137C262.577 37.412 262.115 37.44 261.695 37.496V36.488C262.115 36.544 262.521 36.572 263.165 36.572H263.977C263.991 35.998 264.005 35.508 264.005 34.948C264.005 34.108 263.991 33.842 263.921 33.478H264.985C264.929 33.828 264.915 34.038 264.901 34.57C264.901 35.354 264.887 35.914 264.859 36.572ZM261.177 42.606L262.059 42.326V43.138C259.721 43.88 259.091 44.062 256.543 44.72C256.249 44.79 256.123 44.832 255.829 44.93L255.605 43.95C255.941 43.922 256.137 43.894 256.739 43.768V35.732C256.739 35.06 256.725 34.556 256.683 34.192C257.005 34.234 257.313 34.248 257.803 34.248H260.127C260.617 34.248 260.897 34.234 261.233 34.192C261.191 34.528 261.177 35.032 261.177 35.732V42.606ZM257.607 40.898V43.572C258.531 43.348 259.357 43.124 260.323 42.858V40.898H257.607ZM257.607 40.128H260.323V37.986H257.607V40.128ZM257.607 37.216H260.323V35.06H257.607V37.216ZM271.431 36.838L271.361 35.732C271.627 35.746 271.767 35.746 271.865 35.746C272.061 35.746 272.229 35.732 272.663 35.704C273.447 35.648 273.531 35.634 275.253 35.536L277.451 35.396C279.173 35.298 279.355 35.284 279.817 35.27L280.615 35.242C281.819 35.172 282.085 35.144 282.281 35.088L282.365 36.124C281.805 36.124 281.329 36.18 280.797 36.32C279.859 36.558 278.879 37.062 278.109 37.72C276.989 38.658 276.387 39.792 276.387 40.954C276.387 42.13 277.101 43.068 278.347 43.544C279.033 43.796 279.915 43.992 280.447 43.992C280.475 43.992 280.531 43.992 280.587 43.992L280.405 45.126C280.251 45.098 280.223 45.084 279.971 45.042C278.585 44.804 277.745 44.51 276.947 43.964C275.953 43.292 275.393 42.27 275.393 41.108C275.393 39.484 276.345 37.944 278.011 36.81C278.445 36.516 278.809 36.32 279.341 36.068C278.543 36.208 277.731 36.278 276.261 36.376C273.475 36.572 271.935 36.712 271.431 36.838ZM280.027 38.182L280.727 37.818C281.357 38.574 281.749 39.162 282.169 39.988L281.455 40.408C281.119 39.666 280.447 38.616 280.027 38.182ZM281.623 37.426L282.309 37.048C282.939 37.818 283.289 38.35 283.751 39.232L283.051 39.624C282.743 38.966 282.169 38.07 281.623 37.426Z" fill="#20AEE5"/>
<defs>
<filter id="filter0_i_141_18681" x="0" y="0" width="375" height="93" filterUnits="userSpaceOnUse" color-interpolation-filters="sRGB">
<feFlood flood-opacity="0" result="BackgroundImageFix"/>
<feBlend mode="normal" in="SourceGraphic" in2="BackgroundImageFix" result="shape"/>
<feColorMatrix in="SourceAlpha" type="matrix" values="0 0 0 0 0 0 0 0 0 0 0 0 0 0 0 0 0 0 127 0" result="hardAlpha"/>
<feOffset dy="1"/>
<feComposite in2="hardAlpha" operator="arithmetic" k2="-1" k3="1"/>
<feColorMatrix type="matrix" values="0 0 0 0 0.12549 0 0 0 0 0.682353 0 0 0 0 0.898039 0 0 0 1 0"/>
<feBlend mode="normal" in2="shape" result="effect1_innerShadow_141_18681"/>
</filter>
</defs>
</svg>
