<svg width="42" height="36" viewBox="0 0 42 36" fill="none" xmlns="http://www.w3.org/2000/svg">
<path d="M13 36L1 27L13 23V36Z" fill="#0392CA"/>
<path d="M0 3C0 1.34315 1.34315 0 3 0H39C40.6569 0 42 1.34315 42 3V25C42 26.6569 40.6569 28 39 28H3C1.34315 28 0 26.6569 0 25V3Z" fill="#20AEE5"/>
<path d="M19.9144 20.448C18.5544 20.448 17.4024 20 16.5544 19.152C16.0744 18.672 15.7064 18.112 15.4984 17.536C15.0824 16.4 14.8744 15.152 14.8744 13.856C14.8744 12.16 15.2584 10.4 15.8504 9.424C16.7144 7.984 18.1544 7.2 19.9304 7.2C21.2904 7.2 22.4584 7.648 23.3064 8.496C23.7864 8.976 24.1544 9.536 24.3624 10.112C24.7784 11.232 24.9864 12.512 24.9864 13.824C24.9864 15.792 24.5544 17.52 23.8024 18.56C22.9064 19.808 21.5784 20.448 19.9144 20.448ZM19.9304 18.592C20.6344 18.592 21.2584 18.352 21.6584 17.92C22.3784 17.168 22.7784 15.68 22.7784 13.808C22.7784 11.952 22.3784 10.496 21.6584 9.712C21.2744 9.28 20.6344 9.04 19.9144 9.04C19.1464 9.04 18.5864 9.296 18.1224 9.856C17.4184 10.688 17.0664 12 17.0664 13.744C17.0664 15.424 17.3704 16.816 17.8824 17.552C18.3784 18.256 19.0504 18.592 19.9304 18.592ZM25.281 17.168L27.569 16.72C27.777 17.456 27.921 17.712 28.321 18.032C28.849 18.448 29.489 18.656 30.257 18.656C31.841 18.656 32.849 17.84 32.849 16.576C32.849 15.84 32.529 15.232 31.953 14.896C31.569 14.672 30.817 14.512 30.113 14.512C29.409 14.512 28.945 14.528 28.401 14.592V12.608C28.913 12.672 29.265 12.688 29.953 12.688C31.553 12.688 32.497 11.952 32.497 10.72C32.497 9.616 31.745 8.992 30.385 8.992C29.601 8.992 29.025 9.168 28.641 9.488C28.321 9.792 28.161 10.064 27.969 10.72L25.681 10.336C26.081 9.152 26.449 8.592 27.201 8.048C28.017 7.456 29.057 7.168 30.337 7.168C33.009 7.168 34.737 8.512 34.737 10.592C34.737 11.552 34.321 12.432 33.633 12.944C33.281 13.216 32.929 13.344 32.081 13.568C33.217 13.744 33.809 14.016 34.369 14.64C34.897 15.232 35.137 15.904 35.137 16.848C35.137 17.712 34.769 18.592 34.177 19.184C33.297 20.032 31.953 20.48 30.241 20.48C28.369 20.48 27.089 20 26.177 18.96C25.777 18.512 25.569 18.096 25.281 17.168Z" fill="white"/>
</svg>
