<svg width="42" height="38" viewBox="0 0 42 38" fill="none" xmlns="http://www.w3.org/2000/svg">
<path d="M13 37.4444L1 27.4444L13 23V37.4444Z" fill="#0392CA"/>
<path d="M0 3C0 1.34315 1.34315 0 3 0H39C40.6569 0 42 1.34315 42 3V25C42 26.6569 40.6569 28 39 28H3C1.34315 28 0 26.6569 0 25V3Z" fill="#20AEE5"/>
<path d="M19.9144 21.2263C18.5544 21.2263 17.4024 20.7783 16.5544 19.9303C16.0744 19.4503 15.7064 18.8903 15.4984 18.3143C15.0824 17.1783 14.8744 15.9303 14.8744 14.6343C14.8744 12.9383 15.2584 11.1783 15.8504 10.2023C16.7144 8.76232 18.1544 7.97832 19.9304 7.97832C21.2904 7.97832 22.4584 8.42632 23.3064 9.27432C23.7864 9.75432 24.1544 10.3143 24.3624 10.8903C24.7784 12.0103 24.9864 13.2903 24.9864 14.6023C24.9864 16.5703 24.5544 18.2983 23.8024 19.3383C22.9064 20.5863 21.5784 21.2263 19.9144 21.2263ZM19.9304 19.3703C20.6344 19.3703 21.2584 19.1303 21.6584 18.6983C22.3784 17.9463 22.7784 16.4583 22.7784 14.5863C22.7784 12.7303 22.3784 11.2743 21.6584 10.4903C21.2744 10.0583 20.6344 9.81832 19.9144 9.81832C19.1464 9.81832 18.5864 10.0743 18.1224 10.6343C17.4184 11.4663 17.0664 12.7783 17.0664 14.5223C17.0664 16.2023 17.3704 17.5943 17.8824 18.3303C18.3784 19.0343 19.0504 19.3703 19.9304 19.3703ZM31.793 20.9703H29.377C29.473 20.3463 29.505 19.7223 29.505 18.8903V10.0743H28.737C28.145 10.0743 27.681 10.1063 27.089 10.1703V8.13832C27.585 8.21832 27.937 8.23432 28.689 8.23432H30.161C30.977 8.23432 31.217 8.21832 31.793 8.15432C31.697 9.09832 31.665 9.83432 31.665 10.7943V18.8903C31.665 19.7383 31.697 20.3143 31.793 20.9703Z" fill="white"/>
</svg>
