<svg width="42" height="36" viewBox="0 0 42 36" fill="none" xmlns="http://www.w3.org/2000/svg">
<path d="M13 36L1 27L13 23V36Z" fill="#0392CA"/>
<path d="M0 3C0 1.34315 1.34315 0 3 0H39C40.6569 0 42 1.34315 42 3V25C42 26.6569 40.6569 28 39 28H3C1.34315 28 0 26.6569 0 25V3Z" fill="#20AEE5"/>
<path d="M19.9144 20.448C18.5544 20.448 17.4024 20 16.5544 19.152C16.0744 18.672 15.7064 18.112 15.4984 17.536C15.0824 16.4 14.8744 15.152 14.8744 13.856C14.8744 12.16 15.2584 10.4 15.8504 9.424C16.7144 7.984 18.1544 7.2 19.9304 7.2C21.2904 7.2 22.4584 7.648 23.3064 8.496C23.7864 8.976 24.1544 9.536 24.3624 10.112C24.7784 11.232 24.9864 12.512 24.9864 13.824C24.9864 15.792 24.5544 17.52 23.8024 18.56C22.9064 19.808 21.5784 20.448 19.9144 20.448ZM19.9304 18.592C20.6344 18.592 21.2584 18.352 21.6584 17.92C22.3784 17.168 22.7784 15.68 22.7784 13.808C22.7784 11.952 22.3784 10.496 21.6584 9.712C21.2744 9.28 20.6344 9.04 19.9144 9.04C19.1464 9.04 18.5864 9.296 18.1224 9.856C17.4184 10.688 17.0664 12 17.0664 13.744C17.0664 15.424 17.3704 16.816 17.8824 17.552C18.3784 18.256 19.0504 18.592 19.9304 18.592ZM32.689 20.192H27.553C26.305 20.192 26.049 20.208 25.489 20.272C25.585 19.36 25.697 18.8 25.905 18.224C26.337 17.056 27.057 16.032 28.097 15.088C28.657 14.592 29.137 14.224 30.737 13.152C32.209 12.144 32.657 11.616 32.657 10.8C32.657 9.712 31.809 9.04 30.449 9.04C29.521 9.04 28.817 9.36 28.417 9.984C28.145 10.368 28.033 10.72 27.921 11.456L25.633 11.184C25.857 9.968 26.145 9.312 26.737 8.624C27.537 7.696 28.801 7.2 30.401 7.2C33.201 7.2 34.929 8.544 34.929 10.736C34.929 11.792 34.577 12.56 33.793 13.296C33.345 13.712 33.185 13.84 31.105 15.264C30.401 15.76 29.601 16.432 29.201 16.864C28.721 17.376 28.529 17.696 28.289 18.304H32.769C33.777 18.304 34.577 18.256 35.105 18.176V20.288C34.353 20.224 33.713 20.192 32.689 20.192Z" fill="white"/>
</svg>
