<svg width="328" height="292" viewBox="0 0 328 292" fill="none" xmlns="http://www.w3.org/2000/svg">
<rect width="327.5" height="291.411" rx="7" fill="white"/>
<rect width="327.5" height="291.411" rx="7" fill="#20AEE5" fill-opacity="0.05"/>
<circle cx="105.75" cy="29" r="7" fill="#20AEE5"/>
<g clip-path="url(#clip0_522_12552)">
<path d="M108.708 26.375C108.637 26.3748 108.566 26.3893 108.501 26.4176C108.435 26.4459 108.375 26.4874 108.325 26.5398L104.736 30.2665L103.175 28.645C103.074 28.5397 102.936 28.4806 102.792 28.4806C102.649 28.4806 102.511 28.5397 102.41 28.645C102.359 28.6973 102.319 28.7593 102.292 28.8276C102.265 28.8959 102.251 28.969 102.251 29.0429C102.251 29.1169 102.265 29.19 102.292 29.2583C102.319 29.3266 102.359 29.3886 102.41 29.4409L104.353 31.46C104.454 31.5652 104.592 31.6244 104.735 31.6249C104.807 31.625 104.877 31.6105 104.943 31.5822C105.008 31.5539 105.068 31.5124 105.118 31.46L109.091 27.3356C109.167 27.2569 109.218 27.1567 109.239 27.0476C109.26 26.9385 109.249 26.8254 109.209 26.7227C109.168 26.6199 109.098 26.532 109.009 26.4701C108.92 26.4083 108.815 26.3752 108.708 26.375H108.708Z" fill="white"/>
</g>
<path d="M129.838 23.176L130.926 24.216C130.782 24.488 130.734 24.6 130.654 24.936C129.854 27.992 128.91 29.912 127.374 31.64C125.806 33.4 124.094 34.568 121.422 35.72C120.974 34.856 120.766 34.552 120.014 33.816C121.422 33.368 122.334 32.952 123.518 32.184C126.014 30.568 127.582 28.312 128.366 25.208H120.75C119.678 25.208 119.31 25.224 118.734 25.304V23.224C119.358 23.32 119.694 23.336 120.782 23.336H128.126C129.022 23.336 129.342 23.304 129.838 23.176ZM140.494 28.504H136.926C136.27 28.504 135.934 28.52 135.486 28.568V26.84C135.918 26.92 136.206 26.936 136.926 26.936H141.582V25.96C141.582 25.384 141.55 25.032 141.502 24.696H143.374C143.326 25.064 143.326 25.176 143.326 25.896L143.342 26.952H144.734C145.438 26.952 145.758 26.936 146.174 26.856V28.584C145.742 28.536 145.422 28.52 144.718 28.52H143.342L143.422 34.616C143.422 35.272 143.454 35.592 143.518 35.976H141.566C141.614 35.592 141.63 35.24 141.63 34.664L141.614 30.664C141.614 30.488 141.63 29.864 141.63 29.672C141.406 30.104 141.31 30.248 141.086 30.568C139.998 32.088 138.19 33.56 135.902 34.792C135.518 34.104 135.326 33.864 134.718 33.288C135.998 32.712 137.134 32.008 138.158 31.128C139.134 30.296 139.998 29.32 140.494 28.504ZM151.994 22.488L154.17 22.6C154.106 23.048 154.106 23.048 154.01 26.184C153.898 29.304 153.546 31.112 152.714 32.76C152.17 33.864 151.562 34.68 150.506 35.72C149.882 34.92 149.642 34.68 148.89 34.168C149.674 33.528 150.058 33.096 150.538 32.328C151.69 30.488 152.058 28.424 152.058 23.944C152.058 23.064 152.058 22.92 151.994 22.488ZM156.234 22.376L158.41 22.408C158.33 22.872 158.314 23.144 158.298 23.928L158.218 33.032C159.338 32.504 159.978 32.024 160.666 31.208C161.402 30.344 161.866 29.464 162.234 28.28C162.794 29 163.002 29.208 163.738 29.784C163.082 31.368 162.25 32.568 161.194 33.512C160.282 34.296 159.45 34.776 157.786 35.432C157.434 35.56 157.306 35.624 157.098 35.72L156.074 34.632C156.186 34.168 156.202 33.816 156.218 32.936L156.298 23.912V23.432C156.298 23.032 156.282 22.68 156.234 22.376ZM177.45 24.184L177.962 24.92C177.77 25.176 177.706 25.32 177.466 25.992C175.562 31.224 173.082 33.976 168.25 36.216C167.77 35.4 167.482 35.032 166.922 34.552C169.322 33.624 171.386 32.248 172.666 30.728C171.69 29.88 170.394 28.984 169.386 28.456L170.602 27.032C171.866 27.736 172.698 28.296 173.818 29.176C174.49 28.2 175.162 26.776 175.61 25.4L170.634 25.448C169.754 26.952 168.346 28.552 166.89 29.752C166.394 29.176 166.09 28.936 165.29 28.472C166.922 27.272 168.362 25.64 169.29 23.896C169.834 22.888 170.106 22.264 170.234 21.672L172.314 22.136C172.138 22.44 172.122 22.456 171.834 23.048C171.562 23.608 171.53 23.672 171.45 23.816C171.61 23.8 171.658 23.8 171.898 23.784H172.282L175.61 23.752C175.946 23.736 176.314 23.72 176.49 23.688C176.122 22.968 175.834 22.52 175.338 21.88L176.57 21.512C177.226 22.344 177.61 22.984 178.042 23.992L177.45 24.184ZM180.202 23.384L178.97 23.816C178.586 22.936 178.122 22.12 177.546 21.368L178.73 20.984C179.386 21.768 179.77 22.408 180.202 23.384ZM184.49 35.384L182.554 35.496C182.538 35.208 182.522 35.112 182.474 34.744C182.17 32.808 182.058 31.576 182.058 29.96C182.058 27.896 182.25 26.072 182.714 23.704C182.89 22.808 182.922 22.648 182.954 22.216L185.066 22.44C184.682 23.384 184.314 25.176 184.058 27.224C183.898 28.424 183.834 29.368 183.818 30.76C183.818 31.112 183.802 31.24 183.786 31.64C183.962 31.08 183.994 30.968 184.618 29.528L185.898 30.104C185.018 31.96 184.474 33.816 184.474 34.952C184.474 35.048 184.474 35.176 184.49 35.384ZM186.698 25.8L186.73 23.88C187.45 24.072 188.298 24.136 189.69 24.136C191.466 24.136 192.986 23.992 194.042 23.704L194.138 25.64C194.01 25.656 193.77 25.688 193.002 25.784C191.978 25.912 190.762 25.976 189.578 25.976C188.41 25.976 188.394 25.976 186.698 25.8ZM187.802 28.44L189.37 29.176C188.57 30.104 188.234 30.792 188.234 31.48C188.234 32.392 189.114 32.872 190.778 32.872C192.186 32.872 193.578 32.648 194.586 32.264L194.746 34.296C194.522 34.312 194.458 34.328 194.09 34.392C192.81 34.6 191.834 34.696 190.778 34.696C188.794 34.696 187.514 34.248 186.81 33.304C186.506 32.904 186.33 32.312 186.33 31.736C186.33 30.696 186.81 29.624 187.802 28.44ZM205.306 28.728V27.416H203.61C202.906 27.416 202.41 27.432 201.978 27.48C202.026 27 202.042 26.6 202.042 25.928V23.592C202.042 22.984 202.026 22.6 201.978 22.136C202.442 22.2 202.89 22.216 203.754 22.216H208.858C209.626 22.216 210.154 22.2 210.618 22.136C210.57 22.632 210.554 22.952 210.554 23.688V25.96C210.554 26.632 210.57 27.016 210.618 27.464C210.442 27.448 210.442 27.448 210.154 27.448C210.09 27.448 209.962 27.448 209.802 27.432C209.498 27.416 209.242 27.416 209.034 27.416H207.002V28.728H209.802C210.394 28.728 211.018 28.696 211.546 28.632V30.424C210.954 30.36 210.346 30.328 209.85 30.328H207.706C208.378 31.16 208.73 31.512 209.418 32.088C210.282 32.808 210.97 33.24 211.978 33.72C211.514 34.328 211.274 34.696 210.906 35.432C209.77 34.664 209.434 34.408 208.874 33.912C208.058 33.192 207.61 32.664 206.954 31.64C206.986 32.168 207.002 32.92 207.002 33.352V34.84C207.002 35.352 207.034 35.816 207.098 36.312H205.21C205.274 35.8 205.306 35.352 205.306 34.824V33.32C205.306 33.192 205.322 32.616 205.338 31.624C204.698 32.696 204.234 33.256 203.29 34.104C202.57 34.744 202.09 35.096 201.37 35.528C200.97 34.744 200.874 34.6 200.282 33.944C201.322 33.4 202.154 32.824 203.034 32.024C203.658 31.464 203.946 31.144 204.57 30.328H202.666C202.042 30.328 201.434 30.36 200.922 30.424V28.648C201.434 28.696 201.946 28.728 202.666 28.728H205.306ZM203.722 23.784V25.848H208.842V23.784H203.722ZM198.506 34.424V29.88C198.506 29.352 198.506 28.984 198.538 28.12C198.138 28.776 197.882 29.128 197.306 29.736C197.002 28.76 196.922 28.536 196.538 27.8C197.722 26.632 198.586 25.288 199.242 23.56C199.546 22.76 199.77 21.944 199.85 21.384L201.642 21.96C201.546 22.184 201.546 22.184 201.402 22.68C201.066 23.768 200.762 24.488 200.17 25.656V34.44C200.17 35.128 200.186 35.656 200.25 36.296H198.41C198.474 35.656 198.506 35.176 198.506 34.424ZM221.866 30.056V29.56C221.866 29.304 221.85 29.048 221.818 28.824H222.474C223.098 28.456 223.466 28.152 224.026 27.608H219.946C219.306 27.608 218.922 27.624 218.506 27.688V26.008C218.906 26.056 219.226 26.072 219.962 26.072H224.522C225.082 26.072 225.53 26.056 225.85 26.024L226.89 27.016C226.746 27.176 226.746 27.176 226.426 27.496C225.594 28.344 224.794 29 223.594 29.816V30.056H225.786C226.57 30.056 227.098 30.024 227.594 29.96V31.72C227.146 31.656 226.522 31.624 225.722 31.624H223.594V34.568C223.594 35.848 223.146 36.184 221.466 36.184C221.082 36.184 220.522 36.168 219.946 36.12C219.786 35.208 219.722 34.984 219.498 34.44C220.282 34.552 220.73 34.6 221.274 34.6C221.754 34.6 221.866 34.52 221.866 34.184V31.624H219.338C218.538 31.624 217.978 31.656 217.498 31.72V29.96C217.978 30.024 218.506 30.056 219.306 30.056H221.866ZM217.098 24.68H215.05C214.202 24.68 213.578 24.712 213.082 24.76V22.984C213.562 23.048 214.138 23.08 215.114 23.08H217.85C218.122 22.392 218.282 21.864 218.346 21.352L220.298 21.544C220.202 21.752 220.202 21.768 220.09 22.104C220.026 22.28 219.882 22.648 219.722 23.08H225.434C226.442 23.08 227.018 23.048 227.45 22.984V24.76C226.906 24.712 226.138 24.68 225.466 24.68H219.002C218.346 26.008 217.642 27.128 216.794 28.216V34.584C216.794 35.272 216.81 35.72 216.89 36.264H214.97C215.034 35.8 215.066 35.384 215.066 34.584V30.104C214.618 30.52 214.362 30.76 213.626 31.352C213.386 30.728 213.082 30.216 212.698 29.704C213.722 28.952 214.362 28.392 215.05 27.624C215.034 27.192 215.034 27.016 214.986 26.648H215.85C216.362 25.96 216.698 25.448 217.098 24.68Z" fill="#20AEE5"/>
<path d="M39.654 48.682H39.542C39.178 48.682 38.87 48.696 38.52 48.752V47.828C38.856 47.87 39.192 47.898 39.612 47.898H44.05C44.526 47.898 44.778 47.884 45.1 47.842V48.71C44.54 48.682 44.484 48.682 44.092 48.682V58.636C44.092 59.252 44.12 59.742 44.176 60.078H43.126C43.182 59.672 43.21 59.182 43.21 58.622V56.984C42.328 57.25 41.236 57.53 39.346 57.936C39.066 57.992 38.856 58.048 38.66 58.118L38.38 57.124C38.674 57.124 38.884 57.096 39.654 56.97V48.682ZM40.536 48.682V50.754H43.21V48.682H40.536ZM40.536 51.482V53.596H43.21V51.482H40.536ZM40.536 54.338V56.802C41.614 56.592 42.16 56.466 43.21 56.172V54.338H40.536ZM45.898 48.85H49.762C50.126 48.85 50.476 48.836 50.812 48.794C50.784 48.934 50.728 49.312 50.686 49.592C50.336 51.986 49.608 54.072 48.46 55.99C49.258 57.152 50.07 57.908 51.498 58.79C51.288 59.028 51.12 59.294 50.952 59.7C49.51 58.692 48.768 57.978 47.928 56.774C47.032 58.006 46.164 58.846 44.862 59.714C44.694 59.364 44.54 59.112 44.302 58.874C45.646 58.076 46.542 57.264 47.438 55.99C46.402 54.17 45.884 52.462 45.548 49.662C45.114 49.676 44.988 49.69 44.722 49.732V48.78C45.072 48.836 45.38 48.85 45.898 48.85ZM49.776 49.662H46.402C46.57 51.048 46.682 51.664 46.934 52.588C47.2 53.554 47.536 54.38 47.956 55.178C48.894 53.554 49.398 52 49.776 49.662ZM54.298 54.114H57.91C58.414 54.114 58.75 54.1 59.142 54.044C59.1 54.24 59.086 54.422 59.058 54.772C58.946 56.424 58.638 58.09 58.302 58.846C58.036 59.448 57.546 59.672 56.538 59.672C55.852 59.672 55.068 59.616 54.2 59.504C54.158 59.042 54.116 58.874 54.004 58.496C54.998 58.706 55.796 58.804 56.51 58.804C57.056 58.804 57.322 58.678 57.462 58.384C57.742 57.796 57.924 56.788 58.12 54.912H54.256C53.864 54.912 53.542 54.926 53.206 54.954C53.626 53.414 53.85 52.154 53.892 51.076C54.242 51.118 54.592 51.132 55.096 51.132H58.064V48.864H54.62C54.13 48.864 53.71 48.892 53.276 48.948V47.954C53.64 48.01 54.102 48.038 54.634 48.038H57.784C58.204 48.038 58.624 48.024 59.016 47.982C58.988 48.332 58.974 48.64 58.974 49.06V50.936C58.974 51.412 58.988 51.706 59.016 51.972C58.624 51.944 58.204 51.93 57.812 51.93H54.732C54.592 52.826 54.466 53.414 54.298 54.114ZM62.376 47.632H63.51C63.426 48.136 63.412 48.444 63.412 48.99V58.286C63.412 58.944 63.44 59.35 63.51 59.91H62.376C62.446 59.336 62.474 58.916 62.474 58.272V48.99C62.474 48.444 62.446 48.15 62.376 47.632ZM72.288 50.6H69.292C68.816 51.384 68.424 51.888 67.766 52.602C67.486 52.294 67.332 52.168 67.024 51.986C67.822 51.258 68.34 50.572 68.83 49.62C69.166 48.948 69.39 48.262 69.488 47.646L70.482 47.912C70.384 48.136 70.314 48.318 70.216 48.584C70.02 49.102 69.922 49.354 69.726 49.774H72.288V48.668C72.288 48.192 72.26 47.842 72.204 47.436H73.282C73.226 47.828 73.198 48.178 73.198 48.668V49.774H76.544C77.132 49.774 77.524 49.746 77.888 49.69V50.684C77.51 50.628 77.104 50.6 76.544 50.6H73.198V53.092H77.552C78.182 53.092 78.602 53.064 78.98 53.008V54.002C78.56 53.946 78.154 53.918 77.552 53.918H74.612V58.58C74.612 58.944 74.794 59 75.956 59C77.146 59 77.51 58.916 77.692 58.594C77.874 58.258 77.958 57.614 77.958 56.508C78.266 56.69 78.476 56.774 78.868 56.886C78.77 58.104 78.658 58.692 78.448 59.098C78.126 59.714 77.622 59.854 75.802 59.854C74.122 59.854 73.702 59.658 73.702 58.888V53.918H71.602C71.532 55.43 71.42 55.99 71.028 56.872C70.566 57.88 69.866 58.636 68.718 59.322C68.214 59.63 67.794 59.84 66.996 60.162C66.884 59.938 66.814 59.826 66.73 59.714C66.52 59.434 66.52 59.434 66.422 59.28C67.78 58.86 68.648 58.37 69.362 57.67C69.992 57.04 70.384 56.242 70.552 55.248C70.608 54.926 70.636 54.562 70.664 53.918H68.102C67.5 53.918 67.08 53.946 66.66 54.002V53.008C67.038 53.064 67.472 53.092 68.102 53.092H72.288V50.6ZM83.67 53.512L84.384 54.044C83.474 54.8 83.054 55.444 83.054 56.102C83.054 56.746 83.46 57.208 84.244 57.474C84.776 57.656 85.7 57.754 86.806 57.754C88.556 57.754 90.222 57.544 91.006 57.222L91.132 58.37C90.936 58.384 90.922 58.398 90.656 58.44C89.438 58.65 88.108 58.762 86.876 58.762C85.532 58.762 84.342 58.594 83.656 58.328C82.606 57.894 82.06 57.18 82.06 56.214C82.06 55.304 82.592 54.422 83.67 53.512ZM82.83 49.928L82.914 48.934C83.936 49.172 85.042 49.27 86.638 49.27C88.276 49.27 89.41 49.172 90.18 48.976L90.25 49.9C89.396 50.264 87.926 51.146 86.722 52.028L86.008 51.454C87.142 50.698 87.478 50.502 88.486 49.97C87.646 50.11 87.17 50.152 86.372 50.152C85.392 50.152 84.202 50.082 83.292 49.97C83.026 49.942 83.026 49.942 82.83 49.928ZM89.2 51.72L89.9 51.356C90.516 52.112 90.908 52.7 91.328 53.526L90.628 53.946C90.278 53.204 89.606 52.154 89.2 51.72ZM90.754 50.908L91.426 50.53C92.07 51.3 92.42 51.832 92.882 52.714L92.182 53.106C91.874 52.448 91.286 51.552 90.754 50.908ZM98.09 48.01L99.196 47.8C99.252 48.738 99.77 51.034 100.246 52.434C101.072 52.098 101.464 51.944 103.634 51.188C104.124 51.006 104.25 50.964 104.53 50.824L104.95 51.888C103.97 52.098 101.968 52.742 100.736 53.246C98.342 54.198 97.306 55.122 97.306 56.284C97.306 57.558 98.384 58.048 101.128 58.048C102.738 58.048 104.306 57.866 105.132 57.572L105.244 58.734C104.978 58.734 104.978 58.734 104.208 58.818C102.766 58.958 102.094 59 101.114 59C99.728 59 98.678 58.874 98.006 58.622C96.858 58.202 96.27 57.432 96.27 56.326C96.27 55.43 96.69 54.618 97.516 53.946C98.048 53.512 98.482 53.246 99.35 52.812C98.958 51.664 98.692 50.684 98.328 48.892C98.202 48.304 98.174 48.234 98.09 48.01ZM110.522 48.626L111.572 48.304C111.642 48.612 111.684 48.738 111.838 49.158C112.118 49.984 112.258 50.376 112.454 51.006C114.414 50.432 114.414 50.432 115.464 50.222C115.464 48.22 115.45 48.094 115.408 47.744H116.458C116.402 48.108 116.388 48.542 116.388 49.634C116.388 49.648 116.388 49.914 116.402 50.082C116.794 50.026 117.102 49.998 117.452 49.998C119.328 49.998 120.532 51.006 120.532 52.574C120.532 54.254 119.16 55.458 117.242 55.458C116.458 55.458 115.702 55.29 114.876 54.94C114.89 54.828 114.89 54.73 114.89 54.688C114.89 54.52 114.876 54.436 114.806 53.89C115.548 54.31 116.346 54.534 117.158 54.534C117.76 54.534 118.376 54.338 118.838 53.988C119.286 53.652 119.51 53.162 119.51 52.56C119.51 51.496 118.684 50.866 117.27 50.866C116.248 50.866 114.736 51.202 112.706 51.86C113.42 54.24 113.924 56.214 114.512 58.846C114.582 59.14 114.61 59.21 114.694 59.448L113.56 59.7C113.49 58.552 112.706 55.178 111.796 52.14C111.67 52.196 111.67 52.196 111.04 52.392C110.242 52.658 109.5 52.952 109.122 53.162L108.758 52.168C109.15 52.084 109.15 52.084 110.816 51.51C111.166 51.384 111.306 51.356 111.53 51.286C111.096 49.886 110.788 49.074 110.522 48.626ZM132.138 55.43H125.642C125.516 56.242 125.334 56.942 125.068 57.6C124.704 58.524 124.312 59.14 123.528 60.036C123.276 59.714 123.08 59.518 122.758 59.294C123.626 58.426 124.074 57.684 124.41 56.55C124.802 55.22 124.956 53.498 124.956 50.39C124.956 49.102 124.942 48.542 124.9 48.01C125.404 48.066 125.768 48.08 126.37 48.08H131.634C132.25 48.08 132.614 48.066 133.09 48.01C133.048 48.388 133.034 48.738 133.034 49.452V58.664C133.034 59.168 132.908 59.462 132.642 59.644C132.418 59.784 132.152 59.826 131.522 59.826C131.06 59.826 130.472 59.812 129.842 59.77C129.8 59.406 129.744 59.182 129.618 58.818C130.318 58.916 130.948 58.958 131.62 58.958C132.026 58.958 132.138 58.874 132.138 58.524V55.43ZM125.74 54.59H132.138V52.098H125.894C125.88 52.868 125.852 53.4 125.74 54.59ZM125.894 51.258H132.138V48.934H125.908L125.894 50.922V51.258ZM139.67 53.512L140.384 54.044C139.474 54.8 139.054 55.444 139.054 56.102C139.054 56.746 139.46 57.208 140.244 57.474C140.776 57.656 141.7 57.754 142.806 57.754C144.556 57.754 146.222 57.544 147.006 57.222L147.132 58.37C146.936 58.384 146.922 58.398 146.656 58.44C145.438 58.65 144.108 58.762 142.876 58.762C141.532 58.762 140.342 58.594 139.656 58.328C138.606 57.894 138.06 57.18 138.06 56.214C138.06 55.304 138.592 54.422 139.67 53.512ZM138.83 49.928L138.914 48.934C139.936 49.172 141.042 49.27 142.638 49.27C144.276 49.27 145.41 49.172 146.18 48.976L146.25 49.9C145.396 50.264 143.926 51.146 142.722 52.028L142.008 51.454C143.142 50.698 143.478 50.502 144.486 49.97C143.646 50.11 143.17 50.152 142.372 50.152C141.392 50.152 140.202 50.082 139.292 49.97C139.026 49.942 139.026 49.942 138.83 49.928ZM145.2 51.72L145.9 51.356C146.516 52.112 146.908 52.7 147.328 53.526L146.628 53.946C146.278 53.204 145.606 52.154 145.2 51.72ZM146.754 50.908L147.426 50.53C148.07 51.3 148.42 51.832 148.882 52.714L148.182 53.106C147.874 52.448 147.286 51.552 146.754 50.908ZM154.09 48.01L155.196 47.8C155.252 48.738 155.77 51.034 156.246 52.434C157.072 52.098 157.464 51.944 159.634 51.188C160.124 51.006 160.25 50.964 160.53 50.824L160.95 51.888C159.97 52.098 157.968 52.742 156.736 53.246C154.342 54.198 153.306 55.122 153.306 56.284C153.306 57.558 154.384 58.048 157.128 58.048C158.738 58.048 160.306 57.866 161.132 57.572L161.244 58.734C160.978 58.734 160.978 58.734 160.208 58.818C158.766 58.958 158.094 59 157.114 59C155.728 59 154.678 58.874 154.006 58.622C152.858 58.202 152.27 57.432 152.27 56.326C152.27 55.43 152.69 54.618 153.516 53.946C154.048 53.512 154.482 53.246 155.35 52.812C154.958 51.664 154.692 50.684 154.328 48.892C154.202 48.304 154.174 48.234 154.09 48.01ZM165.08 50.838L165.01 49.732C165.276 49.746 165.416 49.746 165.514 49.746C165.71 49.746 165.878 49.732 166.312 49.704C167.096 49.648 167.18 49.634 168.902 49.536L171.1 49.396C172.822 49.298 173.004 49.284 173.466 49.27L174.264 49.242C175.468 49.172 175.734 49.144 175.93 49.088L176.014 50.124C175.454 50.124 174.978 50.18 174.446 50.32C173.508 50.558 172.528 51.062 171.758 51.72C170.638 52.658 170.036 53.792 170.036 54.954C170.036 56.13 170.75 57.068 171.996 57.544C172.682 57.796 173.564 57.992 174.096 57.992C174.124 57.992 174.18 57.992 174.236 57.992L174.054 59.126C173.9 59.098 173.872 59.084 173.62 59.042C172.234 58.804 171.394 58.51 170.596 57.964C169.602 57.292 169.042 56.27 169.042 55.108C169.042 53.484 169.994 51.944 171.66 50.81C172.094 50.516 172.458 50.32 172.99 50.068C172.192 50.208 171.38 50.278 169.91 50.376C167.124 50.572 165.584 50.712 165.08 50.838ZM173.676 52.182L174.376 51.818C175.006 52.574 175.398 53.162 175.818 53.988L175.104 54.408C174.768 53.666 174.096 52.616 173.676 52.182ZM175.272 51.426L175.958 51.048C176.588 51.818 176.938 52.35 177.4 53.232L176.7 53.624C176.392 52.966 175.818 52.07 175.272 51.426ZM189.16 49.06L189.804 49.676C189.706 49.83 189.706 49.83 189.51 50.544C188.768 53.232 187.704 55.066 185.996 56.62C184.694 57.796 183.49 58.524 181.6 59.252C181.39 58.79 181.278 58.636 180.914 58.272C182.174 57.894 183 57.516 184.078 56.788C186.374 55.262 187.69 53.26 188.488 50.124H181.362C180.648 50.124 180.256 50.138 179.794 50.208V49.074C180.326 49.158 180.606 49.172 181.376 49.172H188.264C188.824 49.172 188.922 49.158 189.16 49.06ZM199.212 53.162H195.642C195.054 53.162 194.704 53.176 194.382 53.232V52.252C194.746 52.322 194.97 52.336 195.628 52.336H199.744L199.73 51.356C199.73 50.838 199.716 50.614 199.66 50.306H200.668C200.626 50.558 200.612 50.754 200.612 51.076V51.3L200.626 52.336H201.984C202.642 52.336 202.88 52.322 203.244 52.266V53.232C202.908 53.176 202.544 53.162 201.984 53.162H200.64L200.71 58.608C200.71 59.252 200.724 59.378 200.78 59.7H199.716C199.758 59.336 199.758 59.154 199.758 58.664V58.608L199.73 54.436C199.73 54.408 199.758 54.058 199.786 53.652C199.772 53.694 199.772 53.694 199.716 53.806C198.96 55.388 196.972 57.18 194.466 58.524C194.256 58.174 194.158 58.048 193.836 57.768C194.956 57.278 195.964 56.62 197.042 55.696C197.98 54.87 198.652 54.1 199.212 53.162ZM208.955 48.332L210.117 48.402C210.061 48.752 210.061 48.752 210.033 49.606C209.921 53.4 209.809 54.436 209.277 55.85C208.801 57.152 208.129 58.09 206.855 59.308C206.575 58.944 206.435 58.818 206.015 58.552C207.163 57.642 207.919 56.634 208.381 55.332C208.815 54.114 209.011 52.28 209.011 49.326C209.011 48.822 208.997 48.654 208.955 48.332ZM212.441 48.234L213.589 48.248C213.519 48.584 213.505 48.836 213.505 49.48L213.421 57.936C214.583 57.502 215.297 57.054 216.025 56.312C216.795 55.514 217.341 54.59 217.677 53.512C217.971 53.89 218.083 54.016 218.461 54.324C217.775 55.934 216.851 57.096 215.647 57.922C215.031 58.342 214.471 58.622 213.645 58.944C213.393 59.042 213.393 59.042 213.197 59.112C213.029 59.182 213.001 59.196 212.875 59.266L212.315 58.622C212.399 58.384 212.413 58.272 212.413 57.67L212.497 49.48C212.497 48.57 212.497 48.57 212.441 48.234ZM224.565 47.45L225.671 47.758C225.559 47.926 225.531 47.982 225.461 48.108C225.433 48.164 225.335 48.36 225.181 48.696C225.041 48.962 224.887 49.228 224.747 49.466C224.915 49.438 224.929 49.438 225.265 49.424L228.639 49.396C229.143 49.382 229.283 49.368 229.493 49.34L230.305 50.236C230.277 50.334 230.249 50.404 230.235 50.432L230.165 50.628L230.095 50.838C228.331 55.472 226.245 57.754 222.031 59.714C221.821 59.308 221.667 59.112 221.345 58.846C223.417 58.076 225.587 56.55 226.665 55.094C225.811 54.31 224.453 53.33 223.529 52.84L224.173 52.126C225.265 52.742 226.245 53.428 227.267 54.296C227.981 53.246 228.793 51.566 229.213 50.236L224.313 50.292C223.445 51.706 222.241 53.05 220.981 54.03C220.673 53.666 220.519 53.554 220.169 53.358C221.569 52.378 222.857 50.936 223.739 49.354C224.201 48.528 224.495 47.856 224.565 47.45ZM229.437 47.898L230.137 47.52C230.823 48.332 231.131 48.794 231.565 49.634L230.865 50.054C230.515 49.326 229.885 48.36 229.437 47.898ZM231.019 47.128L231.705 46.736C232.405 47.59 232.657 47.954 233.147 48.864L232.447 49.27C232.125 48.57 231.607 47.8 231.019 47.128ZM238.047 49.578H238.271C238.733 48.598 238.901 48.108 238.943 47.66L240.063 47.856C239.937 48.038 239.937 48.038 239.699 48.612C239.517 49.06 239.335 49.438 239.265 49.564C239.433 49.55 239.433 49.55 239.559 49.55C241.799 49.438 243.199 49.27 243.969 49.018L244.053 49.97C243.829 49.984 243.745 49.998 243.493 50.04C242.037 50.236 240.567 50.348 238.873 50.404C238.453 51.23 238.103 51.79 237.613 52.392C237.473 52.56 237.193 52.882 237.137 52.924C237.039 52.994 236.969 53.05 236.955 53.064C236.955 53.078 236.941 53.078 236.941 53.078C236.941 53.092 236.941 53.092 236.941 53.092C236.955 53.12 236.955 53.12 236.969 53.134C237.473 52.742 237.473 52.742 237.613 52.644C238.257 52.196 238.999 51.958 239.727 51.958C240.763 51.958 241.393 52.476 241.575 53.512C242.597 53.106 243.395 52.812 244.011 52.588C244.697 52.35 244.739 52.336 244.963 52.182L245.411 53.162C244.683 53.288 243.423 53.708 241.673 54.394C241.701 54.758 241.701 54.898 241.701 55.248C241.701 55.43 241.701 55.738 241.687 56.018C241.673 56.326 241.673 56.522 241.673 56.648C241.673 56.844 241.673 56.956 241.701 57.152L240.749 57.166C240.791 56.858 240.833 56.004 240.833 55.15C240.833 54.926 240.833 54.898 240.819 54.73C238.915 55.626 238.187 56.284 238.187 57.124C238.187 58.048 239.055 58.454 241.029 58.454C242.415 58.454 243.969 58.23 244.767 57.908L244.893 58.986C244.683 59 244.613 59.014 244.333 59.056C243.227 59.238 242.009 59.336 240.931 59.336C238.425 59.336 237.207 58.622 237.207 57.18C237.207 56.41 237.683 55.682 238.635 54.968C239.111 54.618 239.783 54.254 240.721 53.848C240.609 53.078 240.273 52.742 239.615 52.742C238.733 52.742 237.627 53.26 236.493 54.226C235.947 54.688 235.639 55.01 235.415 55.388L234.631 54.604C235.597 53.862 236.759 52.392 237.767 50.6C237.809 50.53 237.809 50.53 237.893 50.39C237.837 50.404 237.697 50.418 237.627 50.418C237.403 50.418 236.087 50.39 235.569 50.376C235.499 50.376 235.387 50.376 235.345 50.376C235.219 50.376 235.191 50.376 235.037 50.39L235.051 49.424C235.555 49.522 236.619 49.578 238.047 49.578ZM252.677 53.232H251.795C251.263 53.232 250.787 53.26 250.353 53.316V52.322C250.759 52.378 251.235 52.406 251.809 52.406H256.415C257.059 52.406 257.479 52.392 257.885 52.336C257.843 52.588 257.843 52.7 257.829 53.33C257.829 56.046 257.563 58.412 257.199 59.07C256.961 59.49 256.625 59.63 255.813 59.63C255.351 59.63 254.861 59.602 253.979 59.518C253.937 59.14 253.895 58.93 253.755 58.524C254.525 58.678 255.225 58.762 255.729 58.762C256.177 58.762 256.331 58.678 256.429 58.412C256.723 57.558 256.891 55.654 256.891 53.232H253.629C253.503 54.772 253.181 55.822 252.537 56.914C251.809 58.132 250.717 59.084 249.009 59.966C248.827 59.644 248.687 59.462 248.393 59.182C250.185 58.314 251.249 57.39 251.921 56.116C252.383 55.234 252.579 54.464 252.677 53.232ZM252.103 47.422L253.153 47.786C253.027 47.954 252.971 48.066 252.761 48.5C251.683 50.67 250.325 52.294 248.351 53.75C248.169 53.47 247.987 53.26 247.665 52.994C249.359 51.86 250.563 50.572 251.501 48.892C251.851 48.276 252.033 47.842 252.103 47.422ZM255.211 47.814L256.149 47.45C256.261 47.814 256.387 48.094 256.681 48.626C257.703 50.46 258.893 51.72 260.811 52.98C260.545 53.232 260.363 53.47 260.153 53.834C257.941 52.196 256.751 50.782 255.435 48.206C255.365 48.08 255.281 47.926 255.211 47.814ZM266.425 52.014L266.439 51.034C266.971 51.16 267.783 51.216 268.819 51.216C269.379 51.216 269.897 51.188 270.597 51.132C270.527 48.696 270.499 48.29 270.429 47.87L271.507 47.856C271.479 48.08 271.465 48.164 271.465 48.332C271.465 48.43 271.465 48.5 271.479 48.752C271.493 49.074 271.493 49.074 271.563 51.02C272.627 50.866 273.271 50.684 273.789 50.432L273.859 51.44C273.565 51.496 273.537 51.496 273.117 51.608C272.585 51.734 272.151 51.818 271.591 51.888C271.605 52.266 271.605 52.49 271.605 52.896C271.605 55.556 271.353 56.704 270.527 57.824C270.009 58.51 269.407 59 268.329 59.63C268.049 59.266 267.937 59.154 267.573 58.874C268.553 58.398 269.211 57.908 269.715 57.264C270.429 56.354 270.653 55.332 270.653 53.092C270.653 52.7 270.653 52.392 270.625 51.986C270.009 52.042 269.197 52.07 268.581 52.07C268.189 52.07 267.391 52.042 266.887 52.014C266.761 52 266.691 52 266.635 52C266.593 52 266.523 52 266.425 52.014ZM263.905 48.038L265.011 48.206C264.563 49.536 264.157 52.406 264.157 54.31C264.157 55.08 264.213 56.116 264.269 56.592C264.325 56.9 264.353 57.194 264.353 57.348C264.633 56.354 264.731 56.102 265.529 54.38L266.243 54.716C265.837 55.542 265.487 56.41 265.207 57.166C264.927 57.992 264.815 58.468 264.815 58.944L263.849 59.028C263.821 58.846 263.807 58.804 263.737 58.538C263.387 57.222 263.219 55.864 263.219 54.394C263.219 52.742 263.345 51.594 263.779 49.004C263.877 48.43 263.891 48.29 263.905 48.038ZM278.14 49.62L278.084 48.57C278.476 48.64 278.728 48.654 279.4 48.654C280.562 48.654 282.424 48.57 283.684 48.472C284.048 48.444 284.174 48.416 284.356 48.318L284.944 49.088C284.748 49.186 284.678 49.242 284.23 49.676C282.298 51.566 280.604 53.022 279.624 53.652L279.652 53.694C280.716 53.12 281.85 52.826 283.082 52.826C285.42 52.826 286.918 53.974 286.918 55.766C286.918 57.95 284.888 59.392 281.78 59.392C279.806 59.392 278.672 58.664 278.672 57.376C278.672 56.438 279.54 55.738 280.702 55.738C281.64 55.738 282.452 56.144 283.012 56.886C283.306 57.278 283.46 57.614 283.656 58.23C285.126 57.824 285.896 56.97 285.896 55.78C285.896 54.436 284.776 53.638 282.886 53.638C280.828 53.638 278.616 54.534 276.992 56.032L276.362 55.136C276.866 54.842 277.37 54.478 278.322 53.708C279.82 52.518 282.032 50.572 282.998 49.62C283.082 49.536 283.082 49.536 283.194 49.424C283.194 49.424 283.222 49.396 283.25 49.368L283.306 49.312L283.278 49.284C283.236 49.284 283.236 49.284 283.152 49.298C282.704 49.382 281.024 49.48 278.896 49.55C278.588 49.564 278.448 49.578 278.14 49.62ZM282.732 58.482C282.424 57.208 281.724 56.536 280.716 56.536C280.016 56.536 279.582 56.872 279.582 57.404C279.582 57.768 279.764 58.034 280.142 58.258C280.506 58.454 281.108 58.58 281.71 58.58C282.06 58.58 282.228 58.566 282.732 58.482Z" fill="#20AEE5"/>
<path d="M124.241 99.506V99.688C124.241 100.364 124.267 100.767 124.319 101.092H122.798C122.85 100.676 122.876 100.208 122.876 99.688V98.479C121.576 98.869 120.692 99.103 120.107 99.22C119.613 99.324 119.262 99.415 119.067 99.493L118.703 98.011C119.002 97.998 119.223 97.972 119.704 97.881V90.783C119.262 90.796 119.119 90.809 118.833 90.835V89.431C119.197 89.47 119.561 89.496 120.003 89.496H123.968C124.488 89.496 124.774 89.483 125.151 89.431V90.237C125.385 90.25 125.658 90.263 125.983 90.263H129.389C129.74 90.263 130.104 90.237 130.442 90.198C130.416 90.367 130.39 90.627 130.351 91.017C130.156 93.24 129.506 95.424 128.492 97.192C129.22 98.193 129.818 98.739 131.001 99.48C130.663 99.987 130.39 100.481 130.221 100.936C128.908 99.987 128.375 99.48 127.647 98.479C126.88 99.506 126.269 100.065 125.034 100.949C124.8 100.351 124.605 100 124.241 99.506ZM124.241 90.783V99.48C125.502 98.713 126.035 98.232 126.841 97.192C126.412 96.386 126.126 95.684 125.879 94.865C125.593 93.903 125.463 93.214 125.281 91.576C125.034 91.589 124.943 91.602 124.735 91.628V90.796C124.605 90.783 124.527 90.783 124.241 90.783ZM128.908 91.563H126.607C126.867 93.682 127.101 94.553 127.686 95.827C128.284 94.644 128.609 93.487 128.908 91.563ZM121.069 90.783V92.213H122.876V90.783H121.069ZM121.069 93.37V94.761H122.876V93.37H121.069ZM121.069 95.944V97.621C121.927 97.452 122.018 97.439 122.876 97.205V95.944H121.069ZM133.887 95.242H137.254C137.722 95.242 138.008 95.229 138.32 95.19C138.294 95.45 138.281 95.541 138.268 95.879C138.19 97.66 137.917 99.142 137.501 99.948C137.176 100.598 136.617 100.819 135.369 100.819C134.758 100.819 134.147 100.78 133.315 100.702C133.25 100.104 133.172 99.792 132.977 99.22C133.965 99.389 134.693 99.467 135.382 99.467C135.889 99.467 136.11 99.389 136.227 99.142C136.487 98.622 136.643 97.803 136.747 96.49H133.159C132.795 96.49 132.496 96.503 132.197 96.529C132.548 95.216 132.782 93.656 132.821 92.395C133.107 92.434 133.38 92.447 133.835 92.447H136.734V90.861H133.679C133.198 90.861 132.743 90.887 132.314 90.939V89.496C132.704 89.548 133.172 89.574 133.692 89.574H136.955C137.462 89.574 137.852 89.561 138.216 89.522C138.19 89.847 138.177 90.146 138.177 90.575V92.707C138.177 93.136 138.19 93.409 138.216 93.721C137.891 93.695 137.475 93.682 137.059 93.682H134.16C134.082 94.241 134.004 94.683 133.887 95.242ZM140.803 89.262H142.454C142.389 89.73 142.376 90.029 142.376 90.705V99.35C142.376 100.13 142.389 100.494 142.454 101.014H140.803C140.868 100.468 140.894 100.104 140.894 99.35V90.705C140.894 90.029 140.881 89.769 140.803 89.262ZM149.994 92.408H147.368C146.926 93.058 146.64 93.409 146.042 94.033C145.6 93.565 145.392 93.37 144.937 93.071C145.769 92.291 146.198 91.771 146.64 90.939C146.952 90.38 147.173 89.769 147.277 89.223L148.772 89.574C148.733 89.665 148.655 89.847 148.525 90.146C148.265 90.783 148.252 90.822 148.135 91.069H149.994V90.38C149.994 89.86 149.968 89.548 149.916 89.106H151.528C151.463 89.522 151.45 89.834 151.45 90.38V91.069H154.18C154.791 91.069 155.194 91.043 155.584 90.991V92.486C155.207 92.434 154.778 92.408 154.18 92.408H151.45V94.189H155.064C155.714 94.189 156.13 94.163 156.52 94.111V95.645C156.104 95.593 155.688 95.567 155.064 95.567H152.568V99.246C152.568 99.532 152.724 99.584 153.53 99.584C154.427 99.584 154.713 99.519 154.856 99.311C155.025 99.051 155.103 98.44 155.116 97.335C155.753 97.647 155.935 97.712 156.52 97.842C156.416 99.22 156.273 99.844 155.987 100.247C155.792 100.533 155.454 100.754 155.103 100.806C154.687 100.884 154.076 100.923 153.296 100.923C151.606 100.923 151.203 100.715 151.203 99.87V95.567H149.747C149.695 96.555 149.617 97.01 149.435 97.582C149.097 98.635 148.434 99.506 147.407 100.221C146.874 100.598 146.497 100.78 145.431 101.209C145.21 100.715 145.002 100.39 144.599 99.87C145.951 99.48 146.835 98.96 147.485 98.18C147.875 97.712 148.122 97.127 148.239 96.412C148.265 96.191 148.278 96.113 148.317 95.567H146.354C145.743 95.567 145.327 95.593 144.911 95.645V94.111C145.301 94.163 145.717 94.189 146.354 94.189H149.994V92.408ZM159.744 91.758L159.861 90.211C160.862 90.445 162.019 90.536 163.761 90.536C165.412 90.536 166.335 90.471 167.193 90.289L167.245 91.758C166.465 92.096 164.866 93.097 163.774 93.903L162.643 93.006C163.462 92.486 163.605 92.395 163.93 92.213C164.06 92.135 164.099 92.109 164.268 92.005C164.372 91.953 164.385 91.953 164.554 91.849C163.982 91.927 163.423 91.953 162.604 91.953C161.941 91.953 160.862 91.888 160.225 91.797C160.069 91.784 159.978 91.771 159.926 91.771C159.9 91.771 159.835 91.758 159.744 91.758ZM160.706 94.696L161.837 95.554C161.018 96.243 160.654 96.789 160.654 97.348C160.654 98.193 161.603 98.557 163.8 98.557C165.347 98.557 167.05 98.323 167.882 97.998L168.025 99.779C167.791 99.792 167.752 99.792 167.453 99.831C165.893 100.065 165.061 100.13 163.943 100.13C162.526 100.13 161.382 99.987 160.693 99.701C159.575 99.259 159.029 98.544 159.029 97.53C159.029 96.529 159.536 95.671 160.706 94.696ZM169.637 94.163L168.74 94.67C168.35 93.955 167.921 93.344 167.414 92.785L168.285 92.33C168.87 92.928 169.234 93.422 169.637 94.163ZM165.815 93.552L166.725 93.097C167.297 93.708 167.648 94.202 168.09 95.008L167.18 95.489C166.751 94.696 166.387 94.176 165.815 93.552ZM174.031 89.587L175.721 89.314C175.773 90.185 176.163 92.057 176.579 93.383C177.424 93.071 177.424 93.071 179.946 92.239C180.18 92.161 180.245 92.135 180.44 92.044L180.999 93.682C179.868 93.903 178.165 94.397 176.709 94.93C174.811 95.632 173.862 96.464 173.862 97.4C173.862 98.349 174.746 98.752 176.839 98.752C178.464 98.752 180.063 98.557 181.038 98.219L181.181 100C180.895 100 180.83 100.013 180.128 100.091C178.724 100.234 177.996 100.286 177.086 100.286C175.279 100.286 174.148 100.065 173.316 99.571C172.601 99.142 172.185 98.336 172.185 97.4C172.185 96.529 172.601 95.697 173.342 95.073C173.849 94.644 174.265 94.384 175.11 93.955C174.785 92.902 174.564 92.031 174.239 90.432C174.109 89.808 174.096 89.782 174.031 89.587ZM189.657 93.513C190.515 93.513 191.204 94.202 191.204 95.06C191.204 95.918 190.515 96.607 189.657 96.607C188.799 96.607 188.11 95.918 188.11 95.06C188.11 94.202 188.799 93.513 189.657 93.513ZM202.657 93.513C203.515 93.513 204.204 94.202 204.204 95.06C204.204 95.918 203.515 96.607 202.657 96.607C201.799 96.607 201.11 95.918 201.11 95.06C201.11 94.202 201.799 93.513 202.657 93.513Z" fill="#20AEE5"/>
<path d="M41.1084 127.001H109.138C110.822 127.001 112.187 128.366 112.187 130.049V161.362C112.187 163.046 110.822 164.411 109.138 164.411H44.1566C42.4732 164.411 41.1084 163.046 41.1084 161.362V127.001Z" fill="white" stroke="#20AEE5" stroke-width="1.76844"/>
<path d="M40.9717 119.048C40.9717 117.365 42.3365 116 44.0199 116H68.289C69.3795 116 70.3869 116.582 70.9302 117.528L76.5107 127.223H40.9717V119.048Z" fill="#E1F0F8" stroke="#20AEE5" stroke-width="1.76844"/>
<path d="M64.5947 151L68.0947 141.136H70.084L73.584 151H71.7383L70.9111 148.45H67.2607L66.4404 151H64.5947ZM69.0312 142.968L67.7051 147.09H70.4736L69.1475 142.968H69.0312ZM80.7125 147.052L79.7045 148.41C79.4105 148.018 78.9345 147.458 78.4585 146.94V152.218H76.8065V147.388C76.2465 147.906 75.6585 148.368 75.0705 148.732C74.9305 148.284 74.5385 147.472 74.2865 147.15C75.8125 146.324 77.2825 144.854 78.1925 143.244H74.8185V141.732H76.8065V139.156H78.4585V141.732H79.0885L79.3825 141.662L80.3205 142.264C79.9005 143.328 79.3405 144.336 78.6685 145.26C79.3405 145.806 80.4185 146.772 80.7125 147.052ZM84.7445 150.188H87.7265V151.812H79.8025V150.188H83.0365V145.064H80.3765V143.454H83.0365V139.268H84.7445V143.454H87.3905V145.064H84.7445V150.188Z" fill="#20AEE5"/>
<path d="M128.187 127.001H196.216C197.901 127.001 199.265 128.366 199.265 130.049V161.362C199.265 163.046 197.901 164.411 196.216 164.411H131.235C129.551 164.411 128.187 163.046 128.187 161.362V127.001Z" fill="white" stroke="#20AEE5" stroke-width="1.76844"/>
<path d="M128.196 119.048C128.196 117.365 129.561 116 131.244 116H155.514C156.604 116 157.612 116.582 158.155 117.528L163.735 127.223H128.196V119.048Z" fill="#E1F0F8" stroke="#20AEE5" stroke-width="1.76844"/>
<path d="M153.64 151V141.136H157.762C159.635 141.136 160.763 142.079 160.763 143.59V143.604C160.763 144.636 159.997 145.552 159.006 145.709V145.832C160.332 145.955 161.248 146.912 161.248 148.191V148.204C161.248 149.934 159.963 151 157.857 151H153.64ZM157.331 142.51H155.403V145.292H157.105C158.356 145.292 159.02 144.807 159.02 143.911V143.898C159.02 143.023 158.397 142.51 157.331 142.51ZM157.386 146.543H155.403V149.626H157.454C158.753 149.626 159.443 149.086 159.443 148.081V148.068C159.443 147.069 158.732 146.543 157.386 146.543ZM168.602 147.052L167.594 148.41C167.3 148.018 166.824 147.458 166.348 146.94V152.218H164.696V147.388C164.136 147.906 163.548 148.368 162.96 148.732C162.82 148.284 162.428 147.472 162.176 147.15C163.702 146.324 165.172 144.854 166.082 143.244H162.708V141.732H164.696V139.156H166.348V141.732H166.978L167.272 141.662L168.21 142.264C167.79 143.328 167.23 144.336 166.558 145.26C167.23 145.806 168.308 146.772 168.602 147.052ZM172.634 150.188H175.616V151.812H167.692V150.188H170.926V145.064H168.266V143.454H170.926V139.268H172.634V143.454H175.28V145.064H172.634V150.188Z" fill="#20AEE5"/>
<path d="M215.265 127.001H283.295C284.979 127.001 286.343 128.366 286.343 130.049V161.362C286.343 163.046 284.979 164.411 283.295 164.411H218.313C216.629 164.411 215.265 163.046 215.265 161.362V127.001Z" fill="white" stroke="#20AEE5" stroke-width="1.76844"/>
<path d="M215.372 119.048C215.372 117.365 216.737 116 218.42 116H242.689C243.78 116 244.787 116.582 245.331 117.528L250.911 127.223H215.372V119.048Z" fill="#E1F0F8" stroke="#20AEE5" stroke-width="1.76844"/>
<path d="M243.598 151.246C240.802 151.246 239.065 149.264 239.065 146.078V146.065C239.065 142.865 240.795 140.89 243.591 140.89C245.833 140.89 247.535 142.312 247.768 144.328V144.383H246.038L246.031 144.356C245.778 143.187 244.835 142.414 243.591 142.414C241.916 142.414 240.87 143.816 240.87 146.058V146.071C240.87 148.32 241.916 149.722 243.598 149.722C244.849 149.722 245.778 149.025 246.031 147.938L246.038 147.903H247.768V147.951C247.508 149.927 245.874 151.246 243.598 151.246ZM255.17 147.052L254.162 148.41C253.868 148.018 253.392 147.458 252.916 146.94V152.218H251.264V147.388C250.704 147.906 250.116 148.368 249.528 148.732C249.388 148.284 248.996 147.472 248.744 147.15C250.27 146.324 251.74 144.854 252.65 143.244H249.276V141.732H251.264V139.156H252.916V141.732H253.546L253.84 141.662L254.778 142.264C254.358 143.328 253.798 144.336 253.126 145.26C253.798 145.806 254.876 146.772 255.17 147.052ZM259.202 150.188H262.184V151.812H254.26V150.188H257.494V145.064H254.834V143.454H257.494V139.268H259.202V143.454H261.848V145.064H259.202V150.188Z" fill="#20AEE5"/>
<path d="M127.636 199.408H121.994C121.877 200.071 121.773 200.5 121.617 200.955C121.266 201.943 120.824 202.697 120.083 203.529C119.706 203.022 119.381 202.697 118.874 202.333C119.602 201.605 119.966 201.02 120.265 200.045C120.655 198.836 120.785 197.315 120.785 193.935C120.785 192.999 120.772 192.427 120.72 191.972C121.227 192.024 121.578 192.037 122.241 192.037H127.662C128.377 192.037 128.728 192.024 129.17 191.972C129.118 192.323 129.105 192.674 129.105 193.441V201.865C129.105 202.515 128.962 202.892 128.637 203.1C128.351 203.295 127.987 203.36 127.129 203.36C126.713 203.36 126.284 203.347 125.621 203.308C125.543 202.684 125.465 202.385 125.244 201.852C125.907 201.956 126.622 202.008 127.155 202.008C127.545 202.008 127.636 201.943 127.636 201.657V199.408ZM122.15 198.082H127.636V196.34H122.254C122.254 196.743 122.228 197.029 122.15 198.082ZM122.267 195.014H127.636V193.389H122.267V195.014ZM133.837 194.169L133.954 192.622C134.955 192.856 136.112 192.947 137.854 192.947C139.505 192.947 140.428 192.882 141.286 192.7L141.338 194.169C140.558 194.507 138.959 195.508 137.867 196.314L136.736 195.417C137.555 194.897 137.698 194.806 138.023 194.624C138.153 194.546 138.192 194.52 138.361 194.416C138.465 194.364 138.478 194.364 138.647 194.26C138.075 194.338 137.516 194.364 136.697 194.364C136.034 194.364 134.955 194.299 134.318 194.208C134.162 194.195 134.071 194.182 134.019 194.182C133.993 194.182 133.928 194.169 133.837 194.169ZM134.799 197.107L135.93 197.965C135.111 198.654 134.747 199.2 134.747 199.759C134.747 200.604 135.696 200.968 137.893 200.968C139.44 200.968 141.143 200.734 141.975 200.409L142.118 202.19C141.884 202.203 141.845 202.203 141.546 202.242C139.986 202.476 139.154 202.541 138.036 202.541C136.619 202.541 135.475 202.398 134.786 202.112C133.668 201.67 133.122 200.955 133.122 199.941C133.122 198.94 133.629 198.082 134.799 197.107ZM143.73 196.574L142.833 197.081C142.443 196.366 142.014 195.755 141.507 195.196L142.378 194.741C142.963 195.339 143.327 195.833 143.73 196.574ZM139.908 195.963L140.818 195.508C141.39 196.119 141.741 196.613 142.183 197.419L141.273 197.9C140.844 197.107 140.48 196.587 139.908 195.963ZM148.124 191.998L149.814 191.725C149.866 192.596 150.256 194.468 150.672 195.794C151.517 195.482 151.517 195.482 154.039 194.65C154.273 194.572 154.338 194.546 154.533 194.455L155.092 196.093C153.961 196.314 152.258 196.808 150.802 197.341C148.904 198.043 147.955 198.875 147.955 199.811C147.955 200.76 148.839 201.163 150.932 201.163C152.557 201.163 154.156 200.968 155.131 200.63L155.274 202.411C154.988 202.411 154.923 202.424 154.221 202.502C152.817 202.645 152.089 202.697 151.179 202.697C149.372 202.697 148.241 202.476 147.409 201.982C146.694 201.553 146.278 200.747 146.278 199.811C146.278 198.94 146.694 198.108 147.435 197.484C147.942 197.055 148.358 196.795 149.203 196.366C148.878 195.313 148.657 194.442 148.332 192.843C148.202 192.219 148.189 192.193 148.124 191.998ZM163.75 195.924C164.608 195.924 165.297 196.613 165.297 197.471C165.297 198.329 164.608 199.018 163.75 199.018C162.892 199.018 162.203 198.329 162.203 197.471C162.203 196.613 162.892 195.924 163.75 195.924ZM176.75 195.924C177.608 195.924 178.297 196.613 178.297 197.471C178.297 198.329 177.608 199.018 176.75 199.018C175.892 199.018 175.203 198.329 175.203 197.471C175.203 196.613 175.892 195.924 176.75 195.924ZM189.75 195.924C190.608 195.924 191.297 196.613 191.297 197.471C191.297 198.329 190.608 199.018 189.75 199.018C188.892 199.018 188.203 198.329 188.203 197.471C188.203 196.613 188.892 195.924 189.75 195.924ZM202.75 195.924C203.608 195.924 204.297 196.613 204.297 197.471C204.297 198.329 203.608 199.018 202.75 199.018C201.892 199.018 201.203 198.329 201.203 197.471C201.203 196.613 201.892 195.924 202.75 195.924Z" fill="#20AEE5"/>
<path d="M41.1572 230.001H109.187C110.871 230.001 112.235 231.366 112.235 233.049V264.363C112.235 266.046 110.871 267.411 109.187 267.411H44.2054C42.5221 267.411 41.1572 266.046 41.1572 264.363V230.001Z" fill="white" stroke="#20AEE5" stroke-width="1.76844"/>
<path d="M40.9717 221.459C40.9717 219.775 42.3365 218.411 44.0199 218.411H68.289C69.3795 218.411 70.3869 218.993 70.9302 219.939L76.5107 229.633H40.9717V221.459Z" fill="#E1F0F8" stroke="#20AEE5" stroke-width="1.76844"/>
<path d="M64.6398 254.001V245.787H64.5224L62.0424 247.542V245.863L64.6467 244.032H66.4221V254.001H64.6398ZM72.8465 254.249C70.4771 254.249 69.054 252.239 69.054 249.02V249.006C69.054 245.787 70.4771 243.784 72.8465 243.784C75.2159 243.784 76.6528 245.787 76.6528 249.006V249.02C76.6528 252.239 75.2159 254.249 72.8465 254.249ZM72.8465 252.806C74.1176 252.806 74.8567 251.382 74.8567 249.02V249.006C74.8567 246.644 74.1176 245.234 72.8465 245.234C71.5754 245.234 70.8501 246.644 70.8501 249.006V249.02C70.8501 251.382 71.5754 252.806 72.8465 252.806ZM81.8728 249.374H87.645V247.648H81.9718C81.9576 248.186 81.9293 248.78 81.8728 249.374ZM87.645 244.324H81.9718V246.05H87.645V244.324ZM89.4275 242.683V253.081C89.4275 254.1 89.187 254.581 88.5362 254.864C87.8572 255.161 86.8668 255.189 85.4096 255.189C85.3106 254.694 84.9711 253.887 84.7023 253.421C85.6926 253.477 86.881 253.463 87.1922 253.463C87.5318 253.463 87.645 253.35 87.645 253.053V251.001H81.5898C81.222 252.586 80.5146 254.128 79.1989 255.231C78.9442 254.878 78.2651 254.255 77.8973 254.015C80.0336 252.19 80.2316 249.488 80.2316 247.337V242.683H89.4275Z" fill="#20AEE5"/>
<path d="M128.343 230.001H196.373C198.057 230.001 199.421 231.366 199.421 233.049V264.363C199.421 266.046 198.057 267.411 196.373 267.411H131.391C129.708 267.411 128.343 266.046 128.343 264.363V230.001Z" fill="white" stroke="#20AEE5" stroke-width="1.76844"/>
<path d="M128.235 221.459C128.235 219.775 129.6 218.411 131.284 218.411H155.553C156.643 218.411 157.651 218.993 158.194 219.939L163.774 229.633H128.235V221.459Z" fill="#E1F0F8" stroke="#20AEE5" stroke-width="1.76844"/>
<path d="M152.825 254.001V245.787H152.708L150.228 247.542V245.863L152.832 244.032H154.608V254.001H152.825ZM159.816 254.001V245.787H159.699L157.219 247.542V245.863L159.823 244.032H161.599V254.001H159.816ZM167.641 249.374H173.413V247.648H167.74C167.725 248.186 167.697 248.78 167.641 249.374ZM173.413 244.324H167.74V246.05H173.413V244.324ZM175.195 242.683V253.081C175.195 254.1 174.955 254.581 174.304 254.864C173.625 255.161 172.635 255.189 171.177 255.189C171.078 254.694 170.739 253.887 170.47 253.421C171.46 253.477 172.649 253.463 172.96 253.463C173.3 253.463 173.413 253.35 173.413 253.053V251.001H167.358C166.99 252.586 166.282 254.128 164.967 255.231C164.712 254.878 164.033 254.255 163.665 254.015C165.801 252.19 165.999 249.488 165.999 247.337V242.683H175.195Z" fill="#20AEE5"/>
<path d="M215.45 230.001H283.48C285.164 230.001 286.528 231.366 286.528 233.049V264.363C286.528 266.046 285.164 267.411 283.48 267.411H218.498C216.815 267.411 215.45 266.046 215.45 264.363V230.001Z" fill="white" stroke="#20AEE5" stroke-width="1.76844"/>
<path d="M215.421 221.459C215.421 219.775 216.786 218.411 218.469 218.411H242.738C243.829 218.411 244.836 218.993 245.379 219.939L250.96 229.633H215.421V221.459Z" fill="#E1F0F8" stroke="#20AEE5" stroke-width="1.76844"/>
<path d="M239.896 253.001V244.873H239.78L237.326 246.609V244.948L239.903 243.136H241.66V253.001H239.896ZM244.401 253.001V251.811L247.642 248.503C248.981 247.149 249.357 246.65 249.357 245.891V245.871C249.357 244.962 248.735 244.305 247.71 244.305C246.664 244.305 245.96 244.996 245.96 246.014L245.953 246.042L244.312 246.035L244.306 246.014C244.306 244.175 245.741 242.89 247.799 242.89C249.72 242.89 251.101 244.059 251.101 245.72V245.741C251.101 246.862 250.561 247.751 248.763 249.48L246.787 251.394V251.538H251.251V253.001H244.401ZM256.444 248.423H262.156V246.715H256.542C256.528 247.247 256.5 247.835 256.444 248.423ZM262.156 243.425H256.542V245.133H262.156V243.425ZM263.92 241.801V252.091C263.92 253.099 263.682 253.575 263.038 253.855C262.366 254.149 261.386 254.177 259.944 254.177C259.846 253.687 259.51 252.889 259.244 252.427C260.224 252.483 261.4 252.469 261.708 252.469C262.044 252.469 262.156 252.357 262.156 252.063V250.033H256.164C255.8 251.601 255.1 253.127 253.798 254.219C253.546 253.869 252.874 253.253 252.51 253.015C254.624 251.209 254.82 248.535 254.82 246.407V241.801H263.92Z" fill="#20AEE5"/>
<defs>
<clipPath id="clip0_522_12552">
<rect width="7" height="5.25" fill="white" transform="translate(102.25 26.375)"/>
</clipPath>
</defs>
</svg>
