<svg width="294" height="300" viewBox="0 0 294 300" fill="none" xmlns="http://www.w3.org/2000/svg">
<rect width="294" height="300" rx="7" fill="white"/>
<rect width="294" height="300" rx="7" fill="#20AEE5" fill-opacity="0.05"/>
<g clip-path="url(#clip0_526_11328)">
<path d="M106.964 31.188H103.328V19.704H106.964C106.22 20.712 105.944 21.204 105.656 22.032C105.308 23.04 105.14 24.132 105.14 25.44C105.14 26.748 105.308 27.84 105.656 28.848C105.944 29.688 106.22 30.18 106.964 31.188ZM115.16 29.004H114.464C113.948 29.004 113.588 29.016 113.168 29.052C113.204 28.716 113.228 28.308 113.228 27.636V24.876C113.228 24.276 113.204 23.88 113.168 23.52C113.54 23.544 113.792 23.556 114.428 23.556H120.512C121.208 23.556 121.496 23.544 121.832 23.52C121.796 23.916 121.784 24.24 121.784 24.888V27.684C121.784 28.356 121.796 28.776 121.832 29.052C121.436 29.016 121.076 29.004 120.56 29.004H119.672C120.524 29.472 121.64 29.784 123.104 29.94C122.828 30.3 122.684 30.552 122.456 31.104C121.388 30.936 120.86 30.804 120.104 30.504C119.372 30.216 118.976 30.012 118.328 29.592L119.048 29.004H115.688L116.432 29.592C115.832 30.036 115.472 30.24 114.788 30.516C114.032 30.828 113.516 30.972 112.604 31.14C112.448 30.732 112.256 30.444 111.872 30.048C113.396 29.82 114.488 29.472 115.16 29.004ZM114.524 24.564V25.092H120.488V24.564H114.524ZM114.524 26.004V26.508H120.488V26.004H114.524ZM114.524 27.42V27.996H120.488V27.42H114.524ZM122.516 21.24V22.176C122.516 22.632 122.528 22.872 122.564 23.148C122.276 23.124 121.964 23.112 121.304 23.112H113.648C113.048 23.112 112.664 23.124 112.4 23.148C112.448 22.848 112.46 22.62 112.46 22.176V21.24C112.46 20.796 112.448 20.568 112.4 20.232C112.748 20.268 113.084 20.28 113.756 20.28H121.208C121.88 20.28 122.228 20.268 122.564 20.232C122.528 20.556 122.516 20.772 122.516 21.24ZM115.364 22.08V21.312H113.696V22.08H115.364ZM118.232 22.08V21.312H116.576V22.08H118.232ZM119.444 22.08H121.232V21.312H119.444V22.08ZM124.784 21.18H126.428C126.368 21.624 126.332 22.212 126.332 23.004C126.332 24.048 126.428 25.488 126.56 26.22C126.764 27.468 127.148 28.236 127.532 28.236C127.712 28.236 127.88 28.056 128.024 27.72C128.312 27.072 128.528 26.352 128.66 25.548C129.08 26.028 129.272 26.208 129.86 26.64C129.236 28.98 128.54 29.952 127.52 29.952C126.716 29.952 126.068 29.364 125.588 28.212C125.096 27.012 124.88 25.272 124.832 21.948C124.82 21.528 124.82 21.444 124.784 21.18ZM130.844 22.32L132.104 21.72C133.616 23.532 134.456 25.536 134.804 28.176L133.316 28.74C133.244 27.612 132.968 26.364 132.548 25.272C132.14 24.18 131.564 23.208 130.844 22.32ZM140.948 23.304V21.876C139.376 22.02 138.776 22.056 137.204 22.092C137.072 21.6 137.072 21.6 136.76 20.856C137.024 20.856 137.168 20.856 137.348 20.856C139.064 20.856 141.284 20.688 142.724 20.448C143.864 20.256 144.296 20.148 144.944 19.872L145.928 21.072C144.896 21.336 143.264 21.636 142.292 21.744V23.304H144.776C145.46 23.304 145.88 23.28 146.276 23.232V24.576C145.868 24.528 145.412 24.504 144.8 24.504H142.292V25.956H145.364C146.036 25.956 146.432 25.932 146.828 25.884V27.24C146.408 27.192 146.012 27.168 145.364 27.168H142.292V29.52C142.292 30.048 142.124 30.42 141.824 30.552C141.548 30.672 141.032 30.744 140.48 30.744C140.12 30.744 139.532 30.72 138.848 30.66C138.788 30.132 138.716 29.856 138.488 29.352C139.352 29.472 140 29.52 140.492 29.52C140.84 29.52 140.948 29.436 140.948 29.148V27.168H137.6C136.94 27.168 136.544 27.192 136.124 27.24V25.884C136.52 25.932 136.916 25.956 137.6 25.956H140.948V24.504H138.272C137.744 24.504 137.18 24.528 136.772 24.576V23.232C137.168 23.28 137.576 23.304 138.26 23.304H140.948ZM152.756 26.472V25.944H149.912C149.48 25.944 149.132 25.956 148.808 25.992V24.948C149.096 24.984 149.408 24.996 149.936 24.996H152.756V24.54H150.212C149.78 24.54 149.48 24.552 149.204 24.576C149.228 24.324 149.24 24.072 149.24 23.772V22.98C149.24 22.644 149.228 22.428 149.204 22.14C149.516 22.164 149.768 22.176 150.224 22.176H152.756V21.72H149.468C148.88 21.72 148.484 21.744 148.064 21.792V20.604C148.436 20.652 148.844 20.676 149.54 20.676H152.756C152.744 20.256 152.732 20.124 152.684 19.86H154.136C154.076 20.124 154.064 20.244 154.052 20.676H157.424C158.12 20.676 158.516 20.652 158.9 20.604V21.792C158.492 21.744 158.072 21.72 157.496 21.72H154.052V22.176H156.764C157.22 22.176 157.484 22.164 157.772 22.14C157.748 22.404 157.736 22.608 157.736 22.98V23.772C157.736 24.132 157.748 24.312 157.772 24.576C157.508 24.552 157.196 24.54 156.812 24.54H154.052V24.996H156.74C157.448 24.996 157.688 24.984 158.024 24.96C157.988 25.26 157.988 25.428 157.988 26.052V26.472C158.504 26.472 158.792 26.448 159.032 26.412V27.552C158.744 27.516 158.516 27.492 157.988 27.492V28.188C157.988 28.812 158 29.136 158.048 29.484H156.704V29.016H154.052V29.688C154.052 30.768 153.752 30.996 152.288 30.996C152 30.996 151.52 30.972 151.136 30.948C151.064 30.468 150.992 30.228 150.764 29.76C151.412 29.832 151.856 29.868 152.288 29.868C152.66 29.868 152.756 29.808 152.756 29.592V29.016H149.936C149.396 29.016 149.108 29.028 148.748 29.076V27.96C149.072 27.996 149.276 28.008 149.888 28.008H152.756V27.492H149.312C148.628 27.492 148.304 27.504 147.992 27.552V26.412C148.304 26.46 148.604 26.472 149.288 26.472H152.756ZM154.052 26.472H156.704V25.944H154.052V26.472ZM154.052 27.492V28.008H156.704V27.492H154.052ZM152.756 23.112H150.512V23.604H152.756V23.112ZM154.052 23.112V23.604H156.464V23.112H154.052ZM164.78 24.72H161.78C161.228 24.72 160.916 24.732 160.544 24.78V23.64C160.88 23.676 161.192 23.688 161.78 23.688H163.232C163.052 23.304 162.92 23.028 162.788 22.8H161.492C160.904 22.8 160.448 22.824 160.064 22.86V21.66C160.436 21.708 160.82 21.732 161.432 21.732H161.816C161.588 21.312 161.444 21.12 161 20.616L162.2 20.16C162.608 20.724 162.776 21.012 163.124 21.732H163.808V20.88C163.808 20.52 163.784 20.184 163.748 19.944H165.056C165.032 20.16 165.02 20.424 165.02 20.832V21.732H165.872V20.832C165.872 20.448 165.86 20.172 165.836 19.944H167.144C167.108 20.172 167.084 20.496 167.084 20.88V21.732H167.84C168.26 21.132 168.488 20.712 168.704 20.124L169.94 20.58C169.652 21.06 169.46 21.36 169.196 21.732H169.532C170.156 21.732 170.528 21.708 170.888 21.66V22.86C170.516 22.824 170.048 22.8 169.46 22.8H168.26C168.032 23.28 167.984 23.388 167.816 23.688H169.208C169.796 23.688 170.096 23.676 170.444 23.64V24.78C170.072 24.732 169.772 24.72 169.208 24.72H166.076V25.296H168.584C169.124 25.296 169.484 25.284 169.82 25.236V26.316C169.484 26.268 169.112 26.256 168.584 26.256H166.076V26.856H169.424C170.108 26.856 170.528 26.832 170.876 26.784V27.984C170.432 27.936 169.988 27.912 169.436 27.912H167.024C167.432 28.26 167.972 28.584 168.656 28.872C169.424 29.196 170.048 29.364 171.152 29.556C170.816 30.012 170.672 30.276 170.468 30.78C168.452 30.228 167.096 29.496 166.016 28.404C166.052 28.86 166.052 28.968 166.052 29.256V29.844C166.052 30.348 166.076 30.72 166.136 31.056H164.72C164.768 30.708 164.792 30.312 164.792 29.832V29.256C164.792 28.98 164.792 28.932 164.828 28.44C164.264 29.016 163.82 29.364 163.1 29.76C162.332 30.18 161.6 30.492 160.652 30.768C160.46 30.348 160.232 29.988 159.92 29.616C161.672 29.244 162.884 28.716 163.844 27.912H161.612C161.048 27.912 160.616 27.936 160.16 27.984V26.784C160.544 26.832 160.952 26.856 161.6 26.856H164.78V26.256H162.404C161.876 26.256 161.516 26.268 161.18 26.316V25.236C161.516 25.284 161.864 25.296 162.404 25.296H164.78V24.72ZM164.504 23.688H166.484C166.664 23.34 166.76 23.124 166.88 22.8H164.144C164.312 23.16 164.384 23.34 164.504 23.688ZM176.804 24.504H173.588C172.988 24.504 172.568 24.528 172.148 24.576V23.256C172.472 23.304 172.928 23.328 173.612 23.328H176.348V22.284H174.548C173.912 22.284 173.528 22.296 173.18 22.332V21.072C173.492 21.12 173.96 21.144 174.596 21.144H176.348V20.94C176.348 20.472 176.324 20.208 176.276 19.884H177.74C177.68 20.196 177.668 20.448 177.668 20.94V21.144H178.532C179.144 21.144 179.528 21.12 179.876 21.072V22.104C180.512 21.444 181.016 20.772 181.268 20.28L182.456 21.06C182.372 21.144 182.192 21.348 181.916 21.672C181.436 22.236 180.92 22.752 180.284 23.328H181.52C182.144 23.328 182.504 23.304 182.888 23.256V24.576C182.492 24.528 182.012 24.504 181.4 24.504H178.82C178.364 24.828 178.064 25.032 177.524 25.38C177.788 25.368 178.184 25.368 178.496 25.368H180.26C180.836 25.368 181.172 25.356 181.52 25.332C181.484 25.68 181.472 25.968 181.472 26.64V29.604C181.472 30.228 181.496 30.636 181.544 30.96H180.152V30.444H175.796V30.96H174.392C174.44 30.564 174.464 30.132 174.464 29.604V27.744C174.464 27.552 174.464 27.288 174.476 27.072C173.744 27.432 173.492 27.54 172.568 27.912C172.364 27.42 172.208 27.156 171.86 26.712C173.684 26.172 175.22 25.476 176.804 24.504ZM177.668 23.328H178.508C178.952 22.98 179.276 22.704 179.66 22.32C179.336 22.296 179.132 22.284 178.652 22.284H177.668V23.328ZM175.796 26.46V27.348H180.14V26.46H175.796ZM175.796 28.392V29.316H180.14V28.392H175.796ZM191.672 31.188H188.036C188.768 30.18 189.044 29.688 189.332 28.848C189.692 27.828 189.86 26.76 189.86 25.44C189.86 24.12 189.692 23.052 189.332 22.032C189.044 21.192 188.768 20.712 188.036 19.704H191.672V31.188Z" fill="#20AEE5"/>
<path d="M60.904 46.928H59.272C58.472 46.928 58.184 46.944 57.752 46.992V45.568C58.216 45.648 58.504 45.664 59.272 45.664H60.904C60.904 45.12 60.888 44.88 60.808 44.48H62.648C62.568 44.88 62.552 45.088 62.552 45.664H64.584C65.384 45.664 65.672 45.648 66.136 45.568V46.992C65.72 46.944 65.336 46.928 64.584 46.928H62.552V47.6H64.248C64.92 47.6 65.192 47.584 65.576 47.536V48.912C65.144 48.864 64.888 48.848 64.216 48.848H62.552V49.504H64.856C65.624 49.504 65.976 49.488 66.44 49.408V50.912C65.96 50.832 65.592 50.816 64.856 50.816H59.064C58.296 50.816 57.944 50.832 57.448 50.912V49.408C57.816 49.488 58.232 49.504 59.064 49.504H60.904V48.848H59.496C58.872 48.848 58.584 48.864 58.152 48.912V47.536C58.568 47.584 58.872 47.6 59.512 47.6H60.904V46.928ZM59.704 56.72V57.472C59.704 58.24 59.736 58.832 59.8 59.296H57.992C58.072 58.816 58.088 58.4 58.088 57.472V52.752C58.088 52.16 58.072 51.84 58.04 51.392C58.456 51.424 58.728 51.44 59.32 51.44H64.088C64.824 51.44 65.16 51.424 65.528 51.376C65.48 51.792 65.464 52.256 65.464 53.024V57.632C65.464 58.88 65.064 59.184 63.448 59.184C62.952 59.184 62.68 59.168 62.152 59.136C62.056 58.448 61.976 58.128 61.768 57.584C62.232 57.664 62.968 57.728 63.32 57.728C63.752 57.728 63.848 57.648 63.848 57.264V56.72H59.704ZM59.704 55.424H63.848V54.768H59.704V55.424ZM59.704 53.488H63.848V52.8H59.704V53.488ZM52.248 46.4V44.928C52.648 44.992 52.904 45.008 53.544 45.008H55.736C56.36 45.008 56.616 44.992 57.032 44.928V46.4C56.6 46.352 56.312 46.336 55.736 46.336H53.544C52.984 46.336 52.648 46.352 52.248 46.4ZM51.72 48.752V47.168C52.104 47.232 52.408 47.248 53 47.248H56.024C56.68 47.248 56.952 47.232 57.304 47.184V48.736C56.952 48.704 56.728 48.688 56.088 48.688H53C52.44 48.688 52.104 48.704 51.72 48.752ZM52.28 51.008V49.6C52.584 49.632 52.792 49.648 53.288 49.648H55.992C56.504 49.648 56.696 49.632 56.968 49.6V51.008C56.664 50.976 56.456 50.96 55.992 50.96H53.288C52.792 50.96 52.584 50.976 52.28 51.008ZM52.28 53.248V51.84C52.568 51.872 52.808 51.888 53.288 51.888H55.976C56.488 51.888 56.696 51.872 56.968 51.84V53.248C56.68 53.216 56.456 53.2 55.96 53.2H53.272C52.792 53.2 52.584 53.216 52.28 53.248ZM53.848 59.232H52.232C52.28 58.736 52.312 58.192 52.312 57.664V55.328C52.312 54.784 52.296 54.464 52.248 54.064C52.616 54.112 52.92 54.128 53.496 54.128H55.992C56.568 54.128 56.84 54.112 57.08 54.08C57.048 54.4 57.032 54.64 57.032 55.248V57.76C57.032 58.384 57.048 58.656 57.096 59.024H55.528V58.48H53.848V59.232ZM53.848 55.52V57.072H55.528V55.52H53.848ZM80.264 48.784H75.928C76.28 49.952 76.664 50.816 77.32 51.84C78.296 51.072 79.208 50.096 79.768 49.216L81.24 50.336C81.08 50.496 81.08 50.496 80.296 51.328C79.736 51.888 79.112 52.448 78.248 53.136C78.68 53.664 79.08 54.08 79.672 54.592C80.552 55.376 81.048 55.712 82.424 56.48C81.912 57.04 81.592 57.472 81.224 58.128C79.672 57.056 78.792 56.288 77.896 55.232C76.888 54.048 76.424 53.312 75.8 51.92C75.832 52.656 75.864 53.568 75.864 54.256V57.632C75.864 58.8 75.4 59.152 73.88 59.152C73.256 59.152 72.584 59.12 71.864 59.072C71.784 58.352 71.704 58.064 71.432 57.344C72.232 57.488 72.888 57.552 73.528 57.552C74.024 57.552 74.136 57.456 74.136 57.024V48.784H69.704C69 48.784 68.456 48.816 67.96 48.88V47.12C68.44 47.184 68.968 47.216 69.8 47.216H74.136V46.304C74.136 45.504 74.104 45.024 74.04 44.56H75.96C75.896 45.056 75.864 45.536 75.864 46.32V47.216H78.584C78.04 46.496 77.704 46.144 76.888 45.456L78.136 44.528C79.208 45.456 79.208 45.456 80.12 46.496L79.16 47.216H80.264C81.08 47.216 81.608 47.184 82.104 47.12V48.88C81.608 48.816 81.08 48.784 80.264 48.784ZM69.208 50.224L70.584 49.2C71.512 50.176 72.056 50.88 72.792 52L71.288 53.072C70.664 51.936 70.024 51.072 69.208 50.224ZM73.384 52.784L73.96 54.384C72.408 55.536 72.104 55.728 69.768 57.104C69.368 57.344 69.16 57.472 68.872 57.68L68.024 55.872C68.712 55.648 69.352 55.344 70.376 54.784C71.592 54.096 72.28 53.648 73.384 52.784ZM90.088 47.088V46.576H86.792C86.072 46.576 85.64 46.592 85.224 46.64V45.232C85.688 45.296 86.232 45.328 86.984 45.328H90.088C90.072 44.912 90.056 44.816 89.992 44.448H91.864C91.784 44.768 91.768 44.896 91.752 45.328H94.968C95.768 45.328 96.28 45.312 96.728 45.264C96.696 45.552 96.68 45.872 96.68 46.624V47.088H96.808C97.48 47.088 97.832 47.072 98.264 47.008V48.4C97.88 48.336 97.48 48.32 96.76 48.32H96.68V48.944C96.68 49.44 96.696 49.888 96.728 50.08C96.264 50.048 95.784 50.032 95.064 50.032H91.752V50.528H95.56C96.376 50.528 96.776 50.512 97.224 50.464V51.808C96.744 51.744 96.312 51.728 95.56 51.728H91.752V52.24H96.376C97.192 52.24 97.752 52.208 98.216 52.144V53.632C97.672 53.568 97.048 53.536 96.376 53.536H85.592C84.888 53.536 84.296 53.568 83.736 53.632V52.144C84.2 52.208 84.808 52.24 85.592 52.24H90.088V51.728H86.472C85.72 51.728 85.272 51.744 84.808 51.808V50.464C85.272 50.512 85.672 50.528 86.472 50.528H90.088V50.032H86.792C86.072 50.032 85.656 50.048 85.208 50.096V48.784C85.64 48.832 86.056 48.848 86.792 48.848H90.088V48.32H85.576C84.76 48.32 84.28 48.336 83.736 48.4V47.008C84.232 47.056 84.776 47.088 85.576 47.088H90.088ZM95.048 48.32H91.752V48.848H95.048V48.32ZM95.048 47.088V46.576H91.752V47.088H95.048ZM85.624 57.632V55.552C85.624 54.64 85.608 54.368 85.576 53.984C85.976 54.016 86.216 54.016 87.272 54.016H94.744C95.816 54.016 96.088 54.016 96.456 53.984C96.408 54.32 96.392 54.688 96.392 55.552V57.616C96.392 58.448 96.424 58.912 96.488 59.28H94.712V58.736H87.288V59.28H85.544C85.592 58.816 85.624 58.336 85.624 57.632ZM87.288 55.216V55.808H94.712V55.216H87.288ZM87.288 56.912V57.504H94.712V56.912H87.288ZM100.76 48.32L100.792 46.496C101.448 46.64 102.472 46.704 104.504 46.704C104.936 45.744 105.08 45.264 105.144 44.72L107.24 44.944C107.144 45.104 107.144 45.104 106.6 46.384C106.52 46.56 106.488 46.608 106.456 46.672C106.584 46.656 106.584 46.656 107.464 46.608C109.32 46.496 110.776 46.32 111.656 46.064L111.768 47.888C111.32 47.92 111.32 47.92 110.504 48.016C109.336 48.16 107.304 48.288 105.688 48.336C105.224 49.248 104.776 49.888 104.216 50.464L104.232 50.496C104.344 50.416 104.344 50.416 104.552 50.256C105.144 49.808 105.992 49.536 106.808 49.536C108.056 49.536 108.84 50.128 109.096 51.232C110.328 50.784 111.144 50.496 111.544 50.368C112.408 50.064 112.472 50.048 112.728 49.888L113.48 51.728C113.032 51.792 112.552 51.92 111.704 52.16C111.48 52.224 110.68 52.496 109.304 52.976V53.152C109.32 53.568 109.32 53.568 109.32 53.792C109.32 53.952 109.32 54.224 109.32 54.432C109.304 54.704 109.304 54.848 109.304 54.96C109.304 55.312 109.32 55.536 109.352 55.808L107.496 55.856C107.56 55.568 107.592 54.752 107.592 54C107.592 53.776 107.592 53.776 107.592 53.616C106.808 53.984 106.392 54.208 106.056 54.448C105.496 54.864 105.224 55.296 105.224 55.76C105.224 56.592 105.992 56.928 107.928 56.928C109.848 56.928 111.496 56.688 112.632 56.256L112.792 58.32C112.52 58.32 112.44 58.336 112.056 58.384C110.904 58.56 109.368 58.672 107.96 58.672C106.264 58.672 105.208 58.48 104.392 58C103.656 57.584 103.224 56.816 103.224 55.936C103.224 55.28 103.416 54.768 103.928 54.16C104.648 53.264 105.56 52.656 107.368 51.904C107.288 51.312 106.968 51.04 106.392 51.04C105.464 51.04 104.344 51.6 103.112 52.688C102.44 53.248 102.072 53.648 101.72 54.144L100.264 52.704C100.68 52.384 101.144 51.936 101.704 51.28C102.328 50.544 103.304 49.152 103.624 48.544C103.688 48.416 103.688 48.416 103.752 48.336C103.688 48.336 103.48 48.352 103.48 48.352C103.224 48.352 101.816 48.32 101.464 48.32C101.16 48.304 101.16 48.304 101.016 48.304C100.968 48.304 100.872 48.304 100.76 48.32ZM126.552 45.664V47.616C126.056 47.552 125.832 47.536 124.52 47.536H119.752C118.44 47.536 118.232 47.552 117.72 47.616V45.664C118.264 45.76 118.584 45.776 119.784 45.776H124.488C125.704 45.776 126.024 45.76 126.552 45.664ZM127.56 51.536H124.136C123.96 55.488 122.456 57.6 118.84 58.992C118.456 58.192 118.184 57.84 117.528 57.216C120.664 56.224 121.912 54.64 122.024 51.536H118.136C116.888 51.536 116.648 51.552 116.104 51.616V49.712C116.664 49.808 116.984 49.824 118.168 49.824H127.528C128.712 49.824 129.032 49.808 129.592 49.712V51.616C129.048 51.552 128.808 51.536 127.56 51.536ZM130.952 46.432L129.768 46.896C129.4 45.984 128.936 45.168 128.392 44.416L129.544 44C130.184 44.848 130.568 45.488 130.952 46.432ZM126.296 45.04L127.48 44.624C128.088 45.456 128.456 46.096 128.904 47.152L127.704 47.6C127.256 46.528 126.888 45.872 126.296 45.04ZM132.136 52.976V50.752C132.84 50.848 133.144 50.864 134.728 50.864H143.256C144.84 50.864 145.144 50.848 145.848 50.752V52.976C145.208 52.896 145.032 52.896 143.24 52.896H134.744C132.952 52.896 132.776 52.896 132.136 52.976ZM159.976 46.512L161.048 47.584C160.84 47.856 160.808 47.92 160.552 48.656C160.04 50.112 159.16 51.984 158.504 53.056C156.872 55.712 154.616 57.6 151.208 59.168C150.696 58.304 150.488 58.032 149.88 57.52C151.24 56.96 152.04 56.56 153 55.92C154.136 55.184 154.808 54.608 155.624 53.696C154.504 52.736 153.544 52.064 152.344 51.408L153.56 49.984C154.904 50.736 155.576 51.184 156.776 52.128C157.528 50.976 158.072 49.856 158.568 48.352L153.592 48.4C152.6 50.048 151.464 51.344 149.848 52.704C149.32 52.112 149.08 51.904 148.248 51.424C150.008 50.112 151.288 48.656 152.264 46.864C152.728 46.016 153.048 45.232 153.192 44.64L155.272 45.104C155.096 45.392 155.096 45.392 154.792 46C154.6 46.432 154.488 46.624 154.408 46.768C154.664 46.736 154.664 46.736 158.568 46.704C159.224 46.688 159.56 46.656 159.976 46.512ZM164.296 48.928L164.184 46.832C164.536 46.848 164.712 46.848 164.792 46.848C165.08 46.848 165.08 46.848 167.432 46.688C168.6 46.624 171.336 46.48 175.608 46.272C176.92 46.208 177 46.208 177.256 46.144L177.368 48.176C177.192 48.16 177.192 48.16 177.032 48.16C176.072 48.16 174.888 48.48 173.864 49.024C171.832 50.08 170.632 51.68 170.632 53.296C170.632 54.544 171.416 55.504 172.76 55.904C173.544 56.144 174.568 56.32 175.144 56.32C175.16 56.32 175.304 56.32 175.464 56.304L175.176 58.48C174.968 58.432 174.936 58.432 174.632 58.384C172.872 58.16 171.864 57.872 170.888 57.328C169.416 56.496 168.6 55.136 168.6 53.472C168.6 52.112 169.144 50.768 170.12 49.712C170.728 49.056 171.304 48.624 172.344 48.096C171.048 48.288 170.056 48.384 166.952 48.608C165.528 48.72 164.792 48.816 164.296 48.928ZM174.088 50.464L175.208 49.904C175.912 50.656 176.344 51.264 176.888 52.256L175.768 52.848C175.24 51.872 174.792 51.232 174.088 50.464ZM178.792 51.216L177.688 51.84C177.208 50.96 176.68 50.208 176.056 49.52L177.128 48.96C177.848 49.696 178.296 50.304 178.792 51.216ZM182.072 47.184H181C180.84 46.592 180.696 46.176 180.424 45.584C180.968 45.6 181.4 45.6 181.688 45.6C183.992 45.6 186.904 45.424 188.936 45.168C190.248 44.992 191.368 44.736 192.168 44.448L193.272 46C193.016 46.048 192.968 46.048 192.584 46.144C191.96 46.288 191.464 46.384 190.648 46.512L192.2 47.008C191.48 48.4 191.464 48.448 191.224 48.848H192.28C193.192 48.848 193.56 48.832 194.008 48.784C193.976 49.2 193.96 49.552 193.96 50.128V51.296C193.96 51.744 193.992 52.128 194.04 52.48H192.264V50.48H181.736V52.56H179.96C180.024 52.192 180.056 51.76 180.056 51.328V50.128C180.056 49.68 180.04 49.344 179.992 48.768C180.472 48.832 180.888 48.848 181.752 48.848H182.76C182.6 48.32 182.312 47.632 182.072 47.184ZM184.52 48.848H186.36C186.152 48.176 185.944 47.584 185.704 47.008C185.656 47.024 185.032 47.056 183.832 47.12C184.088 47.68 184.312 48.224 184.52 48.848ZM188.04 48.848H189.384C189.816 48.096 190.168 47.328 190.44 46.544C190.024 46.608 189.912 46.624 189.752 46.64C189.576 46.656 189.176 46.704 188.584 46.752C188.328 46.784 187.912 46.816 187.4 46.88C187.704 47.616 187.816 47.968 188.04 48.848ZM190.968 51.584L192.008 52.816C191.736 53.072 191.736 53.072 190.6 54.368C190.072 54.928 189.432 55.504 188.6 56.128C190.296 56.88 191.608 57.2 194.36 57.536C193.992 58.08 193.752 58.624 193.528 59.312C191.448 58.992 190.472 58.752 189.192 58.256C188.392 57.936 187.736 57.616 186.984 57.168C185.176 58.176 183.224 58.848 180.664 59.344C180.392 58.624 180.184 58.24 179.784 57.632C181.96 57.376 183.88 56.848 185.496 56.096C184.488 55.248 184.008 54.704 182.92 53.168C182.456 53.2 182.424 53.2 182.136 53.232V51.584C182.568 51.632 183.128 51.664 183.768 51.664H189.576C190.232 51.664 190.632 51.648 190.968 51.584ZM189.416 53.152H184.824C185.496 54.08 186.056 54.624 187.016 55.248C188.04 54.576 188.664 54.032 189.416 53.152ZM200.888 50.288V48.448C201.592 48.592 202.44 48.656 203.736 48.656C204.344 48.656 204.6 48.64 205.432 48.592C205.336 45.776 205.32 45.632 205.224 45.056L207.256 45.024C207.224 45.28 207.224 45.376 207.224 45.568C207.224 45.728 207.224 45.872 207.256 46.592C207.256 46.768 207.288 47.376 207.32 48.4C208.456 48.224 209.16 48.048 209.704 47.792L209.816 49.696C209.544 49.728 209.448 49.744 208.92 49.856C208.2 50.016 208.056 50.048 207.368 50.128C207.384 50.464 207.384 50.608 207.384 50.896C207.384 52.592 207.272 53.92 207.048 54.72C206.696 56.048 206.12 57.024 205.224 57.824C204.728 58.256 204.296 58.56 203.48 59.04C202.92 58.32 202.664 58.08 201.928 57.536C203.016 57.04 203.768 56.512 204.376 55.792C205.208 54.784 205.496 53.664 205.496 51.296C205.496 50.96 205.496 50.816 205.48 50.288C204.936 50.336 204.104 50.352 203.304 50.352C202.856 50.352 202.264 50.336 201.848 50.32C201.384 50.288 201.32 50.288 201.128 50.288C201.064 50.288 200.984 50.288 200.888 50.288ZM199.864 52.352L201.288 53.056C200.232 54.992 199.496 57.04 199.464 58.192L197.608 58.288C197.592 58.064 197.576 57.984 197.496 57.68C197.096 55.872 196.92 54.288 196.92 52.48C196.92 50.672 197.016 49.728 197.512 46.416C197.608 45.744 197.624 45.568 197.624 45.232L199.736 45.44C199.544 46.08 199.448 46.448 199.272 47.392C199.016 48.752 198.952 49.2 198.856 50.544C198.776 51.6 198.744 52.064 198.744 52.368C198.744 52.416 198.744 52.608 198.76 52.864C198.76 53.04 198.76 53.312 198.776 54.096C198.776 54.224 198.776 54.32 198.776 54.384C198.792 54.64 198.808 54.736 198.808 54.992C199.08 54.112 199.48 53.072 199.864 52.352ZM218.488 57.392V57.616C218.488 58.448 218.52 58.944 218.584 59.344H216.712C216.776 58.832 216.808 58.256 216.808 57.616V56.128C215.208 56.608 214.12 56.896 213.4 57.04C212.792 57.168 212.36 57.28 212.12 57.376L211.672 55.552C212.04 55.536 212.312 55.504 212.904 55.392V46.656C212.36 46.672 212.184 46.688 211.832 46.72V44.992C212.28 45.04 212.728 45.072 213.272 45.072H218.152C218.792 45.072 219.144 45.056 219.608 44.992V45.984C219.896 46 220.232 46.016 220.632 46.016H224.824C225.256 46.016 225.704 45.984 226.12 45.936C226.088 46.144 226.056 46.464 226.008 46.944C225.768 49.68 224.968 52.368 223.72 54.544C224.616 55.776 225.352 56.448 226.808 57.36C226.392 57.984 226.056 58.592 225.848 59.152C224.232 57.984 223.576 57.36 222.68 56.128C221.736 57.392 220.984 58.08 219.464 59.168C219.176 58.432 218.936 58 218.488 57.392ZM218.488 46.656V57.36C220.04 56.416 220.696 55.824 221.688 54.544C221.16 53.552 220.808 52.688 220.504 51.68C220.152 50.496 219.992 49.648 219.768 47.632C219.464 47.648 219.352 47.664 219.096 47.696V46.672C218.936 46.656 218.84 46.656 218.488 46.656ZM224.232 47.616H221.4C221.72 50.224 222.008 51.296 222.728 52.864C223.464 51.408 223.864 49.984 224.232 47.616ZM214.584 46.656V48.416H216.808V46.656H214.584ZM214.584 49.84V51.552H216.808V49.84H214.584ZM214.584 53.008V55.072C215.64 54.864 215.752 54.848 216.808 54.56V53.008H214.584ZM233.304 51.36L233.336 51.392C234.792 50.816 235.496 50.656 236.696 50.656C239.432 50.656 241.192 52.064 241.192 54.256C241.192 55.776 240.44 56.992 239.016 57.792C237.976 58.384 236.616 58.704 235.144 58.704C233.8 58.704 232.68 58.448 232.04 57.968C231.432 57.52 231.08 56.848 231.08 56.128C231.08 54.8 232.232 53.84 233.832 53.84C234.952 53.84 235.928 54.304 236.6 55.152C236.92 55.552 237.096 55.904 237.336 56.592C238.664 56.096 239.24 55.408 239.24 54.272C239.24 53.024 238.008 52.208 236.072 52.208C233.736 52.208 231.4 53.152 229.48 54.896L228.392 53.168C228.952 52.896 229.592 52.464 230.648 51.664C232.136 50.528 234.216 48.736 235.432 47.504C235.464 47.472 235.624 47.312 235.72 47.216L235.704 47.2C235.096 47.28 234.072 47.344 231.176 47.472C230.824 47.488 230.712 47.504 230.408 47.552L230.328 45.632C230.872 45.696 231.336 45.728 232.216 45.728C233.576 45.728 235.528 45.648 237.08 45.536C237.64 45.488 237.816 45.456 238.072 45.328L239.064 46.736C238.792 46.88 238.68 46.976 238.232 47.392C237.432 48.128 236.264 49.168 235.72 49.632C235.432 49.872 234.28 50.736 233.96 50.944C233.56 51.216 233.56 51.216 233.304 51.36ZM235.608 57.056C235.32 55.952 234.712 55.376 233.816 55.376C233.24 55.376 232.872 55.664 232.872 56.112C232.872 56.752 233.592 57.12 234.776 57.12C235.08 57.12 235.16 57.12 235.608 57.056Z" fill="#20AEE5"/>
</g>
<path d="M148.5 83.1016C147.931 83.6126 147.069 83.6126 146.5 83.1016L138.716 76.1109C137.694 75.1936 138.343 73.5 139.716 73.5L155.284 73.5C156.657 73.5 157.306 75.1936 156.284 76.1109L148.5 83.1016Z" fill="#20AEE5"/>
<rect x="19" y="107" width="256" height="128" rx="6" fill="white" stroke="#20AEE5" stroke-width="2"/>
<rect x="125.001" y="96" width="44" height="21" rx="10.5" fill="#20AEE5"/>
<path d="M141.781 106.296V105.312H140.509C139.981 105.312 139.609 105.324 139.285 105.36C139.321 105 139.333 104.7 139.333 104.196V102.444C139.333 101.988 139.321 101.7 139.285 101.352C139.633 101.4 139.969 101.412 140.617 101.412H144.445C145.021 101.412 145.417 101.4 145.765 101.352C145.729 101.724 145.717 101.964 145.717 102.516V104.22C145.717 104.724 145.729 105.012 145.765 105.348C145.633 105.336 145.633 105.336 145.417 105.336C145.369 105.336 145.273 105.336 145.153 105.324C144.925 105.312 144.733 105.312 144.577 105.312H143.053V106.296H145.153C145.597 106.296 146.065 106.272 146.461 106.224V107.568C146.017 107.52 145.561 107.496 145.189 107.496H143.581C144.085 108.12 144.349 108.384 144.865 108.816C145.513 109.356 146.029 109.68 146.785 110.04C146.437 110.496 146.257 110.772 145.981 111.324C145.129 110.748 144.877 110.556 144.457 110.184C143.845 109.644 143.509 109.248 143.017 108.48C143.041 108.876 143.053 109.44 143.053 109.764V110.88C143.053 111.264 143.077 111.612 143.125 111.984H141.709C141.757 111.6 141.781 111.264 141.781 110.868V109.74C141.781 109.644 141.793 109.212 141.805 108.468C141.325 109.272 140.977 109.692 140.269 110.328C139.729 110.808 139.369 111.072 138.829 111.396C138.529 110.808 138.457 110.7 138.013 110.208C138.793 109.8 139.417 109.368 140.077 108.768C140.545 108.348 140.761 108.108 141.229 107.496H139.801C139.333 107.496 138.877 107.52 138.493 107.568V106.236C138.877 106.272 139.261 106.296 139.801 106.296H141.781ZM140.593 102.588V104.136H144.433V102.588H140.593ZM136.681 110.568V107.16C136.681 106.764 136.681 106.488 136.705 105.84C136.405 106.332 136.213 106.596 135.781 107.052C135.553 106.32 135.493 106.152 135.205 105.6C136.093 104.724 136.741 103.716 137.233 102.42C137.461 101.82 137.629 101.208 137.689 100.788L139.033 101.22C138.961 101.388 138.961 101.388 138.853 101.76C138.601 102.576 138.373 103.116 137.929 103.992V110.58C137.929 111.096 137.941 111.492 137.989 111.972H136.609C136.657 111.492 136.681 111.132 136.681 110.568ZM154.201 107.292V106.92C154.201 106.728 154.189 106.536 154.165 106.368H154.657C155.125 106.092 155.401 105.864 155.821 105.456H152.761C152.281 105.456 151.993 105.468 151.681 105.516V104.256C151.981 104.292 152.221 104.304 152.773 104.304H156.193C156.613 104.304 156.949 104.292 157.189 104.268L157.969 105.012C157.861 105.132 157.861 105.132 157.621 105.372C156.997 106.008 156.397 106.5 155.497 107.112V107.292H157.141C157.729 107.292 158.125 107.268 158.497 107.22V108.54C158.161 108.492 157.693 108.468 157.093 108.468H155.497V110.676C155.497 111.636 155.161 111.888 153.901 111.888C153.613 111.888 153.193 111.876 152.761 111.84C152.641 111.156 152.593 110.988 152.425 110.58C153.013 110.664 153.349 110.7 153.757 110.7C154.117 110.7 154.201 110.64 154.201 110.388V108.468H152.305C151.705 108.468 151.285 108.492 150.925 108.54V107.22C151.285 107.268 151.681 107.292 152.281 107.292H154.201ZM150.625 103.26H149.089C148.453 103.26 147.985 103.284 147.613 103.32V101.988C147.973 102.036 148.405 102.06 149.137 102.06H151.189C151.393 101.544 151.513 101.148 151.561 100.764L153.025 100.908C152.953 101.064 152.953 101.076 152.869 101.328C152.821 101.46 152.713 101.736 152.593 102.06H156.877C157.633 102.06 158.065 102.036 158.389 101.988V103.32C157.981 103.284 157.405 103.26 156.901 103.26H152.053C151.561 104.256 151.033 105.096 150.397 105.912V110.688C150.397 111.204 150.409 111.54 150.469 111.948H149.029C149.077 111.6 149.101 111.288 149.101 110.688V107.328C148.765 107.64 148.573 107.82 148.021 108.264C147.841 107.796 147.613 107.412 147.325 107.028C148.093 106.464 148.573 106.044 149.089 105.468C149.077 105.144 149.077 105.012 149.041 104.736H149.689C150.073 104.22 150.325 103.836 150.625 103.26Z" fill="white"/>
<path d="M77.5364 137.198C78.3746 149.223 83.4286 172.173 84.0443 174.94C84.078 175.095 84.2264 175.198 84.3859 175.176L109.045 171.857C109.227 171.832 109.348 171.654 109.301 171.475C106.112 159.369 104.083 146.957 103.251 134.467C103.24 134.292 103.085 134.162 102.912 134.184C95.2827 135.101 85.4309 135.957 77.8061 136.874C77.642 136.894 77.5252 137.036 77.5364 137.198Z" fill="white" stroke="#20AEE5" stroke-width="1.41423" stroke-linecap="round" stroke-linejoin="round"/>
<path d="M105.599 136.982C98.1879 137.839 89.0417 138.648 81.8686 139.511C81.7045 139.531 81.5877 139.672 81.5989 139.834C82.4371 151.859 87.4911 174.81 88.1068 177.576C88.1405 177.731 88.2889 177.835 88.4484 177.812L113.107 174.493C113.289 174.468 113.411 174.291 113.363 174.111C110.285 162.423 108.287 150.45 107.404 138.396" fill="white"/>
<path d="M105.599 136.982C98.1879 137.839 89.0417 138.648 81.8686 139.511C81.7045 139.531 81.5877 139.672 81.5989 139.834C82.4371 151.859 87.4911 174.81 88.1068 177.576C88.1405 177.731 88.2889 177.835 88.4484 177.812L113.107 174.493C113.289 174.468 113.411 174.291 113.363 174.111C110.285 162.423 108.287 150.45 107.404 138.396" stroke="#20AEE5" stroke-width="1.41423" stroke-linecap="round" stroke-linejoin="round"/>
<path d="M85.2856 146.26L104.122 144.217" stroke="#20AEE5" stroke-width="1.17853" stroke-linecap="round" stroke-linejoin="round"/>
<path d="M85.1021 143.497L89.3695 143.117" stroke="#20AEE5" stroke-width="1.17853" stroke-linecap="round" stroke-linejoin="round"/>
<path d="M86.2583 153.035L105.094 150.992" stroke="#20AEE5" stroke-width="1.17853" stroke-linecap="round" stroke-linejoin="round"/>
<path d="M86.0747 150.272L90.3399 149.893" stroke="#20AEE5" stroke-width="1.17853" stroke-linecap="round" stroke-linejoin="round"/>
<path d="M87.6958 159.894L106.467 157.332" stroke="#20AEE5" stroke-width="1.17853" stroke-linecap="round" stroke-linejoin="round"/>
<path d="M87.438 157.14L91.692 156.641" stroke="#20AEE5" stroke-width="1.17853" stroke-linecap="round" stroke-linejoin="round"/>
<mask id="path-17-inside-1_526_11328" fill="white">
<path fill-rule="evenodd" clip-rule="evenodd" d="M121.458 133.52L116.938 129L94.6899 151.248L72.7162 129.275L68.196 133.795L90.1697 155.769L68.0049 177.933L72.5251 182.454L94.6899 160.289L117.129 182.728L121.65 178.208L99.21 155.769L121.458 133.52Z"/>
</mask>
<path d="M116.938 129L120.805 125.133L116.938 121.266L113.071 125.133L116.938 129ZM121.458 133.52L125.325 137.387L129.192 133.52L125.325 129.653L121.458 133.52ZM94.6899 151.248L90.823 155.115L94.6899 158.982L98.5567 155.115L94.6899 151.248ZM72.7162 129.275L76.5831 125.408L72.7162 121.541L68.8493 125.408L72.7162 129.275ZM68.196 133.795L64.3291 129.928L60.4623 133.795L64.3291 137.662L68.196 133.795ZM90.1697 155.769L94.0365 159.635L97.9034 155.769L94.0365 151.902L90.1697 155.769ZM68.0049 177.933L64.138 174.066L60.2711 177.933L64.138 181.8L68.0049 177.933ZM72.5251 182.454L68.6582 186.32L72.5251 190.187L76.392 186.32L72.5251 182.454ZM94.6899 160.289L98.5567 156.422L94.6899 152.555L90.823 156.422L94.6899 160.289ZM117.129 182.728L113.262 186.595L117.129 190.462L120.996 186.595L117.129 182.728ZM121.65 178.208L125.516 182.075L129.383 178.208L125.516 174.341L121.65 178.208ZM99.21 155.769L95.3432 151.902L91.4763 155.769L95.3432 159.635L99.21 155.769ZM113.071 132.867L117.592 137.387L125.325 129.653L120.805 125.133L113.071 132.867ZM98.5567 155.115L120.805 132.867L113.071 125.133L90.823 147.381L98.5567 155.115ZM68.8493 133.142L90.823 155.115L98.5567 147.381L76.5831 125.408L68.8493 133.142ZM72.0629 137.662L76.5831 133.142L68.8493 125.408L64.3291 129.928L72.0629 137.662ZM94.0365 151.902L72.0629 129.928L64.3291 137.662L86.3028 159.635L94.0365 151.902ZM71.8718 181.8L94.0365 159.635L86.3028 151.902L64.138 174.066L71.8718 181.8ZM76.392 178.587L71.8718 174.066L64.138 181.8L68.6582 186.32L76.392 178.587ZM90.823 156.422L68.6582 178.587L76.392 186.32L98.5567 164.156L90.823 156.422ZM120.996 178.861L98.5567 156.422L90.823 164.156L113.262 186.595L120.996 178.861ZM117.783 174.341L113.262 178.861L120.996 186.595L125.516 182.075L117.783 174.341ZM95.3432 159.635L117.783 182.075L125.516 174.341L103.077 151.902L95.3432 159.635ZM117.592 129.653L95.3432 151.902L103.077 159.635L125.325 137.387L117.592 129.653Z" fill="#20AEE5" fill-opacity="0.3" mask="url(#path-17-inside-1_526_11328)"/>
<path d="M87.956 203.204H88.096C88.208 203.05 88.208 203.05 88.432 202.77C88.544 202.63 88.656 202.49 88.824 202.238C88.222 201.426 87.774 200.908 86.962 200.152L87.732 199.046C87.942 199.256 88.026 199.34 88.166 199.48C88.796 198.444 89.132 197.744 89.314 197.128L90.63 197.646C90.532 197.8 90.462 197.912 90.294 198.262C89.958 198.948 89.608 199.536 89.006 200.404C89.286 200.712 89.37 200.81 89.594 201.09C90.308 199.97 90.84 199.046 91.008 198.542L92.296 199.256C92.17 199.41 92.17 199.41 91.442 200.544C90.798 201.566 90.112 202.532 89.594 203.162C90.308 203.134 90.784 203.106 91.176 203.064C91.008 202.658 90.952 202.49 90.714 201.986L91.736 201.496C92.184 202.434 92.548 203.344 92.856 204.254L91.75 204.772C91.666 204.492 91.652 204.408 91.582 204.198C91.036 204.268 91.036 204.268 90.532 204.324V208.692C90.532 209.392 90.56 209.77 90.616 210.19H89.076C89.132 209.742 89.16 209.364 89.16 208.692V204.436C88.04 204.506 87.368 204.548 87.144 204.576L86.976 203.162C87.242 203.204 87.382 203.204 87.704 203.204H87.956ZM98.652 197.268L99.674 198.64C99.506 198.682 99.38 198.724 99.296 198.752C98.092 199.116 98.064 199.13 97.322 199.298C97.322 199.578 97.322 199.578 97.322 200.39C97.336 200.796 97.35 201.23 97.42 202.252L98.512 202.238L99.282 202.196C99.352 202.196 99.548 202.182 99.87 202.126V203.666C99.702 203.624 99.338 203.61 98.806 203.61L98.484 203.624L97.532 203.638C97.7 205.346 98.008 206.816 98.372 207.628C98.47 207.866 98.596 208.048 98.638 208.048C98.736 208.034 98.89 207.138 98.96 206.214C99.296 206.676 99.604 206.956 100.15 207.292C99.898 209.182 99.506 209.91 98.722 209.91C97.434 209.91 96.468 207.628 96.062 203.666L94.396 203.694V207.922C95.236 207.67 95.642 207.516 96.244 207.292L96.272 208.692C94.914 209.224 94.494 209.35 92.45 209.924C92.17 210.008 92.086 210.022 91.932 210.092L91.582 208.58C91.89 208.552 92.058 208.524 92.926 208.328V199.802C92.926 199.172 92.912 198.934 92.87 198.514C94.396 198.43 95.488 198.262 96.916 197.898C97.812 197.674 98.246 197.52 98.652 197.268ZM94.396 202.308L95.964 202.28C95.922 201.608 95.88 200.712 95.838 199.578C95.306 199.662 95.096 199.69 94.396 199.774V202.308ZM87.508 205.164L88.754 205.318C88.614 207.404 88.488 208.328 88.152 209.448L86.892 208.902C87.256 207.824 87.41 206.844 87.508 205.164ZM90.896 205.276L91.974 204.996C92.184 205.766 92.38 206.816 92.492 207.782L91.344 208.062C91.19 206.564 91.12 206.13 90.896 205.276Z" fill="#20AEE5"/>
<path d="M193.702 197.206V198.914C193.268 198.858 193.072 198.844 191.924 198.844H187.752C186.604 198.844 186.422 198.858 185.974 198.914V197.206C186.45 197.29 186.73 197.304 187.78 197.304H191.896C192.96 197.304 193.24 197.29 193.702 197.206ZM194.584 202.344H191.588C191.434 205.802 190.118 207.65 186.954 208.868C186.618 208.168 186.38 207.86 185.806 207.314C188.55 206.446 189.642 205.06 189.74 202.344H186.338C185.246 202.344 185.036 202.358 184.56 202.414V200.748C185.05 200.832 185.33 200.846 186.366 200.846H194.556C195.592 200.846 195.872 200.832 196.362 200.748V202.414C195.886 202.358 195.676 202.344 194.584 202.344ZM197.552 197.878L196.516 198.284C196.194 197.486 195.788 196.772 195.312 196.114L196.32 195.75C196.88 196.492 197.216 197.052 197.552 197.878ZM193.478 196.66L194.514 196.296C195.046 197.024 195.368 197.584 195.76 198.508L194.71 198.9C194.318 197.962 193.996 197.388 193.478 196.66ZM198.588 203.604V201.658C199.204 201.742 199.47 201.756 200.856 201.756H208.318C209.704 201.756 209.97 201.742 210.586 201.658V203.604C210.026 203.534 209.872 203.534 208.304 203.534H200.87C199.302 203.534 199.148 203.534 198.588 203.604ZM222.948 197.948L223.886 198.886C223.704 199.124 223.676 199.18 223.452 199.824C223.004 201.098 222.234 202.736 221.66 203.674C220.232 205.998 218.258 207.65 215.276 209.022C214.828 208.266 214.646 208.028 214.114 207.58C215.304 207.09 216.004 206.74 216.844 206.18C217.838 205.536 218.426 205.032 219.14 204.234C218.16 203.394 217.32 202.806 216.27 202.232L217.334 200.986C218.51 201.644 219.098 202.036 220.148 202.862C220.806 201.854 221.282 200.874 221.716 199.558L217.362 199.6C216.494 201.042 215.5 202.176 214.086 203.366C213.624 202.848 213.414 202.666 212.686 202.246C214.226 201.098 215.346 199.824 216.2 198.256C216.606 197.514 216.886 196.828 217.012 196.31L218.832 196.716C218.678 196.968 218.678 196.968 218.412 197.5C218.244 197.878 218.146 198.046 218.076 198.172C218.3 198.144 218.3 198.144 221.716 198.116C222.29 198.102 222.584 198.074 222.948 197.948Z" fill="#20AEE5"/>
<path d="M203.405 175.819C203.126 175.819 202.903 175.593 202.903 175.314C202.903 175.035 203.129 174.809 203.405 174.809H210.298C210.577 174.809 210.801 175.035 210.801 175.314C210.801 175.593 210.574 175.819 210.298 175.819H203.405Z" fill="#20ABE2"/>
<rect x="184.379" y="173.979" width="43.107" height="3.31592" fill="white"/>
<rect x="185.043" y="144.799" width="43.7701" height="28.5169" fill="white"/>
<path d="M229.22 173.191C228.876 173.191 228.597 172.912 228.597 172.568V146.151C228.597 145.358 227.952 144.713 227.158 144.713H186.549C185.755 144.713 185.11 145.358 185.11 146.151V172.568C185.11 172.912 184.831 173.191 184.487 173.191C184.143 173.191 183.864 172.912 183.864 172.568V146.151C183.864 144.669 185.07 143.463 186.552 143.463H227.161C228.643 143.463 229.849 144.669 229.849 146.151V172.568C229.849 172.912 229.57 173.191 229.226 173.191H229.22Z" fill="#20ABE2"/>
<path d="M185.01 177.489C183.555 177.489 182.182 177.387 181.143 177.198C180.12 177.015 179.075 176.717 179.075 175.908V173.883C179.075 173.539 179.354 173.26 179.698 173.26H234.003C234.347 173.26 234.627 173.539 234.627 173.883V175.908C234.627 176.717 233.582 177.015 232.558 177.198C231.519 177.384 230.146 177.489 228.692 177.489H185.01ZM180.321 175.697C180.727 175.88 182.244 176.243 185.01 176.243H228.692C231.457 176.243 232.974 175.883 233.38 175.697V174.506H180.324V175.697H180.321Z" fill="#20ABE2"/>
<path d="M187.106 172.071C186.635 172.071 186.25 171.689 186.25 171.218V147.515C186.25 147.044 186.635 146.662 187.106 146.662H226.593C227.064 146.662 227.448 147.044 227.448 147.515V170.095C227.448 170.374 227.222 170.601 226.946 170.601C226.67 170.601 226.441 170.374 226.441 170.095V147.67H187.258V171.063H225.296C225.576 171.063 225.799 171.289 225.799 171.568C225.799 171.847 225.572 172.074 225.296 172.074H187.106V172.071Z" fill="#20ABE2"/>
<path d="M229.486 135.891L228 138.694" stroke="#20ABE2" stroke-width="1.24034" stroke-linecap="round" stroke-linejoin="round"/>
<path d="M234.031 138.994L231.774 141.336" stroke="#20ABE2" stroke-width="1.24034" stroke-linecap="round" stroke-linejoin="round"/>
<path d="M237.404 143.336L234.672 144.92" stroke="#20ABE2" stroke-width="1.24034" stroke-linecap="round" stroke-linejoin="round"/>
<circle cx="206.801" cy="159.605" r="28.1412" stroke="#20AEE5" stroke-opacity="0.3" stroke-width="4.92836"/>
<path d="M19.084 257.116V256.312C19.084 255.652 19.06 255.412 19.012 255.1H19.9C19.852 255.472 19.84 255.796 19.84 256.312V257.116H20.98C21.436 257.116 21.748 257.092 22.084 257.044V257.848C21.784 257.812 21.52 257.8 20.992 257.8C20.884 259.288 20.62 260.428 20.14 261.58C20.896 262.564 21.268 263.128 21.856 264.1L21.256 264.676C20.872 263.956 20.296 263.02 19.792 262.324C19.108 263.608 18.352 264.532 17.128 265.528C16.936 265.264 16.804 265.144 16.528 264.952C17.836 263.98 18.64 263.032 19.3 261.676C18.508 260.656 17.968 260.044 17.128 259.228L17.692 258.748C18.28 259.324 18.82 259.948 19.624 260.92C19.948 259.996 20.14 259.036 20.212 257.8H17.716C17.212 257.8 16.948 257.812 16.648 257.86V257.044C16.984 257.092 17.296 257.116 17.752 257.116H19.084ZM25.204 258.532H23.32C22.852 258.532 22.516 258.556 22.192 258.604V257.788C22.48 257.836 22.792 257.848 23.332 257.848H25.204V256.504C25.204 255.868 25.18 255.508 25.12 255.196H26.044C25.984 255.568 25.972 255.952 25.972 256.504V257.848H26.272C26.764 257.848 27.136 257.824 27.436 257.776V258.604C27.016 258.544 26.752 258.532 26.26 258.532H25.972V264.712C25.972 265.504 25.732 265.684 24.652 265.684C24.112 265.684 23.812 265.672 23.284 265.648C23.212 265.276 23.164 265.132 23.032 264.844C23.608 264.928 24.172 264.976 24.568 264.976C25.108 264.976 25.204 264.928 25.204 264.676V258.532ZM21.952 259.9L22.564 259.528C23.32 260.44 23.728 261.052 24.34 262.204L23.68 262.66C23.164 261.508 22.708 260.8 21.952 259.9ZM37.228 260.008H35.404C35.632 260.764 35.8 261.172 36.16 261.772C36.94 261.34 37.72 260.728 38.056 260.272L38.692 260.812C38.536 260.92 38.428 260.992 37.924 261.388C37.552 261.688 37.012 262.06 36.544 262.324C36.832 262.696 37.132 263.032 37.408 263.308C38.068 263.956 38.62 264.316 39.556 264.676C39.28 264.964 39.208 265.072 39.016 265.408C38.008 264.904 37.42 264.472 36.736 263.752C35.764 262.696 35.092 261.484 34.672 260.008H34.42C34.12 260.224 33.964 260.344 33.628 260.524C34.588 261.568 35.068 262.732 35.068 264.088C35.068 265.036 34.804 265.6 34.276 265.792C34.06 265.876 33.688 265.912 33.196 265.912C32.932 265.912 32.704 265.9 32.404 265.876C32.368 265.528 32.332 265.396 32.2 265.084C32.68 265.168 32.968 265.192 33.352 265.192C33.82 265.192 33.988 265.144 34.12 264.964C34.252 264.772 34.324 264.46 34.324 263.956C34.324 263.764 34.312 263.62 34.288 263.38C32.848 264.328 31.24 265.024 29.284 265.54C29.152 265.288 29.02 265.072 28.852 264.88C30.724 264.508 32.74 263.692 34.144 262.732C34.06 262.468 33.988 262.276 33.856 262C32.5 262.804 31.372 263.248 29.476 263.74C29.332 263.428 29.272 263.32 29.068 263.08C30.772 262.78 32.236 262.252 33.556 261.448C33.376 261.172 33.292 261.076 33.052 260.824C31.924 261.388 30.856 261.724 29.38 262.012C29.248 261.724 29.176 261.604 28.972 261.376C30.784 261.1 32.224 260.644 33.34 260.008H31.336C30.808 260.008 30.4 260.02 30.028 260.044C30.064 259.852 30.076 259.6 30.076 259.06V257.98C29.68 258.244 29.512 258.34 29.044 258.616C28.924 258.388 28.804 258.232 28.6 258.028C29.776 257.464 30.604 256.864 31.468 255.94C31.948 255.436 32.02 255.34 32.332 254.788L33.16 255.04C33.064 255.148 33.064 255.148 32.908 255.34C32.824 255.436 32.776 255.496 32.56 255.736H34.756C35.296 255.736 35.704 255.712 35.86 255.676L36.28 256.096C36.088 256.3 36.088 256.3 35.824 256.6C35.548 256.9 35.308 257.152 34.972 257.452H37.18C37.828 257.452 38.2 257.44 38.524 257.404C38.488 257.704 38.476 257.944 38.476 258.388V259.06C38.476 259.516 38.488 259.768 38.524 260.044C38.176 260.02 37.744 260.008 37.228 260.008ZM30.784 257.452H34.06C34.432 257.164 34.66 256.936 35.164 256.336H32.02C31.552 256.804 31.264 257.08 30.784 257.452ZM30.808 259.384H33.808V258.088H30.808V259.384ZM34.516 259.384H37.744V258.088H34.516V259.384ZM49.48 259.768H46.6C46.456 262.876 45.448 264.34 42.736 265.396C42.58 265.048 42.46 264.892 42.172 264.616C44.656 263.788 45.592 262.504 45.688 259.768H42.436C41.68 259.768 41.428 259.78 41.056 259.828V258.94C41.452 259 41.692 259.012 42.448 259.012H49.468C50.236 259.012 50.464 259 50.86 258.94V259.828C50.488 259.78 50.236 259.768 49.48 259.768ZM42.268 256.876V255.964C42.628 256.036 42.868 256.048 43.648 256.048H47.272C47.92 256.048 48.232 256.036 48.652 255.988V256.852C48.496 256.84 48.04 256.828 47.284 256.816H43.636C42.808 256.816 42.604 256.828 42.268 256.876ZM48.7 255.244L49.3 254.956C49.816 255.616 50.14 256.144 50.476 256.852L49.864 257.188C49.588 256.54 49.036 255.628 48.7 255.244ZM50.176 254.8L50.776 254.5C51.292 255.172 51.58 255.64 51.952 256.396L51.34 256.732C51.1 256.156 50.62 255.364 50.176 254.8ZM53.044 260.884V259.9C53.392 259.96 53.716 259.972 54.532 259.972H61.504C62.392 259.972 62.584 259.96 62.956 259.912V260.884C62.572 260.848 62.296 260.836 61.492 260.836H54.532C53.656 260.836 53.404 260.848 53.044 260.884ZM69.088 255.088L70.036 255.364C69.88 255.592 69.88 255.592 69.616 256.156C69.508 256.384 69.388 256.588 69.244 256.816C69.412 256.792 69.412 256.792 72.952 256.756C73.252 256.744 73.468 256.708 73.648 256.636L74.188 257.176C74.056 257.368 74.044 257.404 73.84 257.968C73.012 260.2 71.956 261.928 70.708 263.128C69.7 264.088 68.512 264.868 66.916 265.6C66.724 265.24 66.616 265.108 66.328 264.856C67.348 264.46 67.996 264.112 68.812 263.548C69.748 262.9 70.3 262.408 70.888 261.652C70.024 260.872 69.148 260.248 68.2 259.708L68.752 259.096C69.772 259.684 70.432 260.152 71.404 260.956C72.112 259.888 72.652 258.748 73.072 257.476L68.872 257.536C68.056 258.844 67.204 259.78 66.016 260.728C65.74 260.416 65.632 260.332 65.32 260.152C66.616 259.216 67.6 258.112 68.38 256.732C68.764 256.036 68.992 255.52 69.088 255.088ZM82.588 257.2V258.388H81.4V257.2H82.588ZM82.588 263.68H81.4V262.492H82.588V263.68ZM96.304 255.676L97.312 256.06C97.156 256.288 97.108 256.396 96.94 256.792C96.16 258.628 95.788 259.36 95.176 260.296C96.208 261.148 96.976 261.88 97.936 262.876L97.264 263.62C96.628 262.804 95.86 262.036 94.648 261.016C93.388 262.744 91.924 264.004 89.824 265.192C89.608 264.832 89.512 264.724 89.2 264.472C91.12 263.536 92.656 262.24 93.976 260.464C92.884 259.588 91.756 258.844 90.748 258.292L91.348 257.656C92.524 258.364 93.124 258.76 94.468 259.744C95.032 258.856 95.464 257.992 95.884 256.948C96.184 256.216 96.244 256.024 96.304 255.676ZM101.044 260.884V259.9C101.392 259.96 101.716 259.972 102.532 259.972H109.504C110.392 259.972 110.584 259.96 110.956 259.912V260.884C110.572 260.848 110.296 260.836 109.492 260.836H102.532C101.656 260.836 101.404 260.848 101.044 260.884ZM114.748 255.856L115.744 255.916C115.696 256.216 115.696 256.216 115.672 256.948C115.576 260.2 115.48 261.088 115.024 262.3C114.616 263.416 114.04 264.22 112.948 265.264C112.708 264.952 112.588 264.844 112.228 264.616C113.212 263.836 113.86 262.972 114.256 261.856C114.628 260.812 114.796 259.24 114.796 256.708C114.796 256.276 114.784 256.132 114.748 255.856ZM117.736 255.772L118.72 255.784C118.66 256.072 118.648 256.288 118.648 256.84L118.576 264.088C119.572 263.716 120.184 263.332 120.808 262.696C121.468 262.012 121.936 261.22 122.224 260.296C122.476 260.62 122.572 260.728 122.896 260.992C122.308 262.372 121.516 263.368 120.484 264.076C119.956 264.436 119.476 264.676 118.768 264.952C118.552 265.036 118.552 265.036 118.384 265.096C118.24 265.156 118.216 265.168 118.108 265.228L117.628 264.676C117.7 264.472 117.712 264.376 117.712 263.86L117.784 256.84C117.784 256.06 117.784 256.06 117.736 255.772ZM127.9 257.968H129.616C129.88 257.416 129.964 257.164 130.12 256.516C129.184 256.636 128.968 256.66 127.636 256.744C127.528 256.42 127.48 256.312 127.312 256.06C129.736 256.048 132.388 255.592 133.42 255.016L133.996 255.688C133.888 255.712 133.888 255.712 133.72 255.76C133.672 255.772 133.588 255.796 133.432 255.844C132.52 256.096 131.98 256.204 130.912 256.396C130.732 257.128 130.648 257.38 130.372 257.968H133.624C134.248 257.968 134.596 257.944 134.884 257.896V258.7C134.548 258.652 134.128 258.628 133.624 258.628H131.872C132.1 259.048 132.484 259.504 132.988 259.924C133.648 260.476 134.284 260.824 135.088 261.1C134.908 261.316 134.752 261.568 134.62 261.844C133.612 261.34 132.844 260.788 132.112 260.032C131.644 259.528 131.368 259.156 131.104 258.628H130.036C129.724 259.168 129.34 259.684 128.884 260.188C128.284 260.824 127.732 261.256 126.856 261.76C126.676 261.484 126.556 261.352 126.28 261.148C127.048 260.8 127.492 260.512 128.056 260.02C128.524 259.6 128.908 259.144 129.244 258.628H127.876C127.432 258.628 127.084 258.652 126.7 258.7V257.896C127.06 257.956 127.312 257.968 127.9 257.968ZM124.564 255.736L125.044 255.196C125.848 255.712 126.34 256.084 127.024 256.708L126.556 257.332C125.92 256.672 125.464 256.3 124.564 255.736ZM123.94 258.712L124.36 258.136C125.188 258.568 125.716 258.904 126.52 259.54L126.076 260.2C125.368 259.552 124.852 259.192 123.94 258.712ZM125.728 261.532L126.364 261.976C125.944 263.308 125.572 264.22 125.044 265.24C124.924 265.468 124.924 265.468 124.78 265.768L124.072 265.18C124.708 264.388 125.248 263.188 125.728 261.532ZM130.228 261.304V264.88C130.228 265.528 129.976 265.72 129.124 265.72C128.884 265.72 128.488 265.696 128.176 265.672C128.152 265.396 128.128 265.24 128.02 264.916C128.5 265 128.8 265.024 129.1 265.024C129.412 265.024 129.508 264.952 129.508 264.712V261.328C129.508 260.86 129.484 260.572 129.424 260.152H130.312C130.252 260.536 130.228 260.86 130.228 261.304ZM130.864 261.856L131.488 261.664C131.944 262.792 132.184 263.548 132.46 264.772L131.728 265.072C131.512 263.788 131.296 263.008 130.864 261.856ZM132.616 261.976L133.204 261.664C133.984 262.72 134.404 263.428 134.968 264.616L134.308 265.072C133.804 263.812 133.36 262.984 132.616 261.976ZM127.192 265.156L126.52 264.748C126.904 264.244 127.048 263.992 127.3 263.464C127.6 262.828 127.732 262.444 127.924 261.652L128.584 261.892C128.2 263.284 127.828 264.136 127.192 265.156ZM145.144 258.592V264.592C145.144 265.384 144.892 265.576 143.812 265.576C143.344 265.576 142.888 265.552 142.36 265.504C142.312 265.168 142.264 264.988 142.132 264.688C142.864 264.796 143.224 264.832 143.776 264.832C144.268 264.832 144.376 264.772 144.376 264.52V258.592H140.608C140.104 258.592 139.636 258.616 139.324 258.664V257.824C139.636 257.872 140.08 257.896 140.572 257.896H144.376V256.516C144.376 255.952 144.352 255.46 144.292 255.112H145.216C145.168 255.52 145.144 255.928 145.144 256.516V257.896H145.732C146.212 257.896 146.56 257.872 146.872 257.824V258.64C146.5 258.604 146.116 258.592 145.732 258.592H145.144ZM138.652 257.848V264.448C138.652 265 138.676 265.456 138.712 265.876H137.812C137.86 265.444 137.884 265.048 137.884 264.424V260.416C137.884 259.888 137.896 259.516 137.932 258.964C137.44 259.792 137.164 260.164 136.588 260.812L136.504 260.68C136.348 260.428 136.348 260.428 136.06 260.152C137.128 259.024 137.812 257.992 138.472 256.492C138.784 255.784 138.94 255.328 139 254.956L139.864 255.232C139.78 255.376 139.72 255.52 139.564 255.916C139.396 256.336 139.012 257.164 138.652 257.848ZM140.116 260.092L140.74 259.66C141.616 260.62 142.072 261.232 142.768 262.372L142.096 262.888C141.484 261.736 140.908 260.944 140.116 260.092ZM154.168 257.044C153.988 258.712 153.532 260.548 152.992 261.808C152.296 263.392 151.588 264.112 150.724 264.112C149.584 264.112 148.732 262.864 148.732 261.184C148.732 259.96 149.188 258.772 149.992 257.872C150.952 256.816 152.26 256.276 153.868 256.276C155.212 256.276 156.388 256.696 157.168 257.464C157.924 258.196 158.332 259.24 158.332 260.392C158.332 262.252 157.324 263.788 155.584 264.532C155.044 264.76 154.588 264.904 153.76 265.084C153.64 264.688 153.568 264.568 153.34 264.28C154.216 264.136 154.78 263.98 155.344 263.716C156.664 263.116 157.468 261.832 157.468 260.356C157.468 258.988 156.772 257.884 155.56 257.344C155.116 257.152 154.768 257.068 154.168 257.044ZM153.304 257.056C152.584 257.116 152.068 257.284 151.516 257.62C150.304 258.352 149.56 259.708 149.56 261.196C149.56 262.348 150.064 263.236 150.712 263.236C151.216 263.236 151.696 262.672 152.212 261.496C152.704 260.368 153.148 258.592 153.304 257.056ZM161.572 264.928H160.444C160.516 264.496 160.54 264.148 160.54 263.584V257.14C160.54 256.648 160.516 256.276 160.444 255.772C160.876 255.796 161.212 255.808 161.764 255.808H164.212C166.06 255.808 167.104 256.756 167.104 258.424C167.104 260.188 166.024 261.208 164.152 261.208H161.476V263.572C161.476 264.148 161.5 264.52 161.572 264.928ZM161.476 260.38H164.152C165.424 260.38 166.144 259.696 166.144 258.472C166.144 257.272 165.448 256.636 164.152 256.636H161.476V260.38ZM168.485 263.536V257.14C168.485 256.624 168.461 256.276 168.389 255.772C168.809 255.796 169.133 255.808 169.709 255.808H171.737C174.413 255.808 175.937 257.44 175.937 260.308C175.937 261.808 175.481 263.056 174.653 263.86C173.933 264.568 172.937 264.928 171.737 264.928H169.709C169.133 264.928 168.809 264.94 168.389 264.964C168.461 264.496 168.485 264.136 168.485 263.536ZM169.421 264.088H171.713C172.661 264.088 173.417 263.812 173.957 263.236C174.617 262.564 174.965 261.544 174.965 260.308C174.965 259.06 174.653 258.1 174.017 257.464C173.489 256.912 172.745 256.648 171.761 256.648H169.421V264.088ZM178.527 260.596V263.524C178.527 264.172 178.551 264.496 178.623 264.928H177.483C177.555 264.52 177.579 264.148 177.579 263.524V257.14C177.579 256.624 177.555 256.24 177.483 255.772C177.903 255.796 178.227 255.808 178.803 255.808H181.983C182.571 255.808 182.907 255.784 183.363 255.724V256.744C182.967 256.684 182.619 256.66 181.983 256.66H178.527V259.756H181.335C181.911 259.756 182.259 259.732 182.703 259.672V260.68C182.307 260.62 181.959 260.596 181.335 260.596H178.527ZM186.153 256.108L187.053 255.832C187.113 256.096 187.149 256.204 187.281 256.564C187.521 257.272 187.641 257.608 187.809 258.148C189.489 257.656 189.489 257.656 190.389 257.476C190.389 255.76 190.377 255.652 190.341 255.352H191.241C191.193 255.664 191.181 256.036 191.181 256.972C191.181 256.984 191.181 257.212 191.193 257.356C191.529 257.308 191.793 257.284 192.093 257.284C193.701 257.284 194.733 258.148 194.733 259.492C194.733 260.932 193.557 261.964 191.913 261.964C191.241 261.964 190.593 261.82 189.885 261.52C189.897 261.424 189.897 261.34 189.897 261.304C189.897 261.16 189.885 261.088 189.825 260.62C190.461 260.98 191.145 261.172 191.841 261.172C192.357 261.172 192.885 261.004 193.281 260.704C193.665 260.416 193.857 259.996 193.857 259.48C193.857 258.568 193.149 258.028 191.937 258.028C191.061 258.028 189.765 258.316 188.025 258.88C188.637 260.92 189.069 262.612 189.573 264.868C189.633 265.12 189.657 265.18 189.729 265.384L188.757 265.6C188.697 264.616 188.025 261.724 187.245 259.12C187.137 259.168 187.137 259.168 186.597 259.336C185.913 259.564 185.277 259.816 184.953 259.996L184.641 259.144C184.977 259.072 184.977 259.072 186.405 258.58C186.705 258.472 186.825 258.448 187.017 258.388C186.645 257.188 186.381 256.492 186.153 256.108ZM200.385 255.1L201.333 255.364C201.237 255.508 201.213 255.556 201.153 255.664C201.129 255.712 201.045 255.88 200.913 256.168C200.793 256.396 200.661 256.624 200.541 256.828C200.685 256.804 200.697 256.804 200.985 256.792L203.877 256.768C204.309 256.756 204.429 256.744 204.609 256.72L205.305 257.488C205.281 257.572 205.257 257.632 205.245 257.656L205.185 257.824L205.125 258.004C203.613 261.976 201.825 263.932 198.213 265.612C198.033 265.264 197.901 265.096 197.625 264.868C199.401 264.208 201.261 262.9 202.185 261.652C201.453 260.98 200.289 260.14 199.497 259.72L200.049 259.108C200.985 259.636 201.825 260.224 202.701 260.968C203.313 260.068 204.009 258.628 204.369 257.488L200.169 257.536C199.425 258.748 198.393 259.9 197.313 260.74C197.049 260.428 196.917 260.332 196.617 260.164C197.817 259.324 198.921 258.088 199.677 256.732C200.073 256.024 200.325 255.448 200.385 255.1ZM204.561 255.484L205.161 255.16C205.749 255.856 206.013 256.252 206.385 256.972L205.785 257.332C205.485 256.708 204.945 255.88 204.561 255.484ZM205.917 254.824L206.505 254.488C207.105 255.22 207.321 255.532 207.741 256.312L207.141 256.66C206.865 256.06 206.421 255.4 205.917 254.824ZM214.161 257.344H216.693C217.437 257.344 217.485 257.344 217.701 257.272L218.193 257.74C218.085 257.932 218.085 257.932 217.929 258.952C217.641 260.764 216.909 262.24 215.757 263.332C214.845 264.184 213.681 264.844 212.241 265.324C212.073 264.964 212.001 264.844 211.689 264.508C212.829 264.208 213.537 263.884 214.341 263.344C216.021 262.18 216.897 260.536 217.125 258.1H210.573V259.9C210.573 260.284 210.585 260.56 210.609 260.788H209.625C209.649 260.584 209.673 260.2 209.673 259.888V258.268C209.673 257.896 209.661 257.584 209.625 257.296C209.997 257.332 210.273 257.344 210.729 257.344H213.273V256.132C213.273 255.784 213.261 255.652 213.213 255.364H214.221C214.185 255.592 214.161 255.832 214.161 256.12V257.344ZM221.649 257.164L222.237 256.516C223.521 257.332 224.265 257.92 225.129 258.772L224.505 259.516C223.641 258.58 222.693 257.8 221.649 257.164ZM221.733 264.964L221.469 263.956C222.405 263.92 223.845 263.548 224.961 263.032C227.277 262 228.885 260.236 229.857 257.692C230.133 258.064 230.253 258.172 230.589 258.4C229.629 260.488 228.513 261.892 226.929 262.984C225.693 263.824 224.457 264.316 222.453 264.772C222.129 264.844 222.033 264.868 221.733 264.964ZM240.993 264.016H234.561V264.868H233.637C233.673 264.604 233.685 264.364 233.685 263.968V257.452C233.685 256.96 233.673 256.804 233.637 256.516C233.877 256.54 234.105 256.552 234.573 256.552H240.969C241.485 256.552 241.629 256.552 241.905 256.516C241.869 256.804 241.869 256.96 241.869 257.452V263.944C241.869 264.304 241.881 264.616 241.905 264.868H240.993V264.016ZM240.993 263.236V257.344H234.561V263.236H240.993ZM244.821 260.884V259.9C245.169 259.96 245.493 259.972 246.309 259.972H253.281C254.169 259.972 254.361 259.96 254.733 259.912V260.884C254.349 260.848 254.073 260.836 253.269 260.836H246.309C245.433 260.836 245.181 260.848 244.821 260.884ZM260.361 265.372H259.329C259.377 265.096 259.389 264.844 259.401 264.112V256.66C259.389 255.904 259.377 255.7 259.329 255.436H260.361C260.313 255.712 260.301 255.94 260.301 256.684V258.928C262.017 259.54 263.673 260.32 265.641 261.46L265.125 262.348C264.225 261.676 262.341 260.68 260.649 259.972C260.481 259.9 260.385 259.852 260.277 259.768L260.253 259.78C260.289 259.996 260.301 260.188 260.301 260.488V264.1C260.301 264.82 260.313 265.084 260.361 265.372ZM263.337 256.228L263.937 255.916C264.477 256.564 264.813 257.068 265.173 257.776L264.573 258.136C264.273 257.5 263.697 256.6 263.337 256.228ZM264.705 255.58L265.293 255.256C265.833 255.928 266.133 256.372 266.529 257.128L265.929 257.476C265.677 256.9 265.173 256.132 264.705 255.58ZM18.328 272.276H18.004C17.512 272.276 17.284 272.288 16.972 272.336V271.508C17.32 271.556 17.632 271.58 18.064 271.58H21.832C22.276 271.58 22.564 271.556 22.912 271.508V272.336C22.6 272.288 22.396 272.276 21.892 272.276H21.628V275.252H22C22.516 275.252 22.756 275.24 23.056 275.192V276.032C22.756 275.984 22.504 275.972 22 275.972H21.628V280.472C21.628 281.036 21.652 281.384 21.7 281.72L20.812 281.732C20.872 281.336 20.884 281.024 20.884 280.484V275.972H19.072C19.036 276.956 18.988 277.508 18.868 278.168C18.592 279.62 18.076 280.664 17.08 281.78C16.876 281.54 16.756 281.444 16.444 281.24C17.752 279.98 18.28 278.492 18.328 275.972H17.836C17.392 275.972 17.056 275.996 16.744 276.044V275.18C17.044 275.228 17.368 275.252 17.836 275.252H18.328V272.276ZM19.072 272.276V275.252H20.884V272.276H19.072ZM27.04 277.196L27.724 277.772C27.46 278.024 27.46 278.024 26.896 278.672C26.392 279.26 25.6 279.968 24.856 280.508C24.16 281.012 23.608 281.336 22.732 281.756C22.6 281.504 22.48 281.324 22.264 281.06C23.728 280.472 25.012 279.572 26.188 278.336C26.536 277.964 26.884 277.496 27.04 277.196ZM26.188 271.1L26.884 271.628C26.74 271.748 26.644 271.844 26.26 272.204C25.072 273.32 24.256 273.92 23.08 274.52C22.936 274.244 22.828 274.076 22.6 273.836C23.656 273.38 24.484 272.816 25.372 271.988C25.852 271.532 26.032 271.34 26.188 271.1ZM26.644 274.1L27.316 274.664C27.148 274.796 27.04 274.892 26.812 275.132C25.684 276.308 24.52 277.184 23.116 277.904C22.948 277.58 22.84 277.424 22.648 277.196C23.812 276.704 24.712 276.116 25.732 275.156C26.14 274.772 26.452 274.412 26.644 274.1ZM35.872 273.356H38.128C38.644 273.356 38.992 273.332 39.292 273.284V274.148C38.944 274.1 38.56 274.076 38.056 274.076H35.908C35.98 275.432 36.016 275.732 36.16 276.596C36.34 277.568 36.496 278.168 36.76 278.852C37.072 279.68 37.396 280.232 37.756 280.556C37.912 280.7 38.068 280.784 38.14 280.784C38.404 280.784 38.62 280.136 38.812 278.816C39.076 279.056 39.208 279.152 39.52 279.284C39.304 280.304 39.16 280.784 38.932 281.156C38.728 281.492 38.464 281.66 38.164 281.66C37.72 281.66 37.192 281.252 36.724 280.568C36.136 279.704 35.632 278.216 35.368 276.62C35.248 275.864 35.176 275.204 35.116 274.076H30.1C29.608 274.076 29.272 274.1 28.864 274.148V273.284C29.2 273.332 29.572 273.356 30.1 273.356H35.092C35.08 272.984 35.08 272.984 35.068 272.144C35.056 271.64 35.056 271.64 34.996 271.208H35.92C35.872 271.46 35.848 271.844 35.848 272.324C35.848 272.576 35.848 272.816 35.872 273.356ZM31.564 276.596H30.424C29.968 276.596 29.644 276.608 29.344 276.656V275.852C29.632 275.9 29.92 275.912 30.436 275.912H33.544C34.06 275.912 34.324 275.9 34.624 275.852V276.656C34.324 276.608 34.012 276.596 33.556 276.596H32.332V279.836C33.22 279.656 33.736 279.524 35.032 279.176V279.908C33.256 280.376 31.648 280.724 29.656 281.084C29.488 281.12 29.26 281.168 29.116 281.204L28.936 280.352C29.5 280.352 29.8 280.304 31.564 279.98V276.596ZM38.5 272.612L37.936 273.068C37.408 272.48 37.084 272.192 36.424 271.724L36.976 271.316C37.672 271.82 37.984 272.084 38.5 272.612ZM46.648 273.044C46.468 274.712 46.012 276.548 45.472 277.808C44.776 279.392 44.068 280.112 43.204 280.112C42.064 280.112 41.212 278.864 41.212 277.184C41.212 275.96 41.668 274.772 42.472 273.872C43.432 272.816 44.74 272.276 46.348 272.276C47.692 272.276 48.868 272.696 49.648 273.464C50.404 274.196 50.812 275.24 50.812 276.392C50.812 278.252 49.804 279.788 48.064 280.532C47.524 280.76 47.068 280.904 46.24 281.084C46.12 280.688 46.048 280.568 45.82 280.28C46.696 280.136 47.26 279.98 47.824 279.716C49.144 279.116 49.948 277.832 49.948 276.356C49.948 274.988 49.252 273.884 48.04 273.344C47.596 273.152 47.248 273.068 46.648 273.044ZM45.784 273.056C45.064 273.116 44.548 273.284 43.996 273.62C42.784 274.352 42.04 275.708 42.04 277.196C42.04 278.348 42.544 279.236 43.192 279.236C43.696 279.236 44.176 278.672 44.692 277.496C45.184 276.368 45.628 274.592 45.784 273.056ZM59.608 272.492H58.12C57.592 272.492 57.328 272.504 57.004 272.552V271.832C57.352 271.892 57.568 271.904 58.12 271.904H59.608C59.608 271.4 59.596 271.232 59.536 270.908H60.34C60.28 271.22 60.268 271.388 60.268 271.904H62.068C62.644 271.904 62.86 271.892 63.208 271.832V272.552C62.896 272.504 62.608 272.492 62.068 272.492H60.268V273.344H61.636C62.176 273.344 62.452 273.332 62.752 273.284V273.992C62.416 273.944 62.128 273.932 61.636 273.932H60.268V274.808H62.284C62.824 274.808 63.148 274.784 63.472 274.736V275.492C63.136 275.444 62.812 275.42 62.284 275.42H57.964C57.4 275.42 57.088 275.432 56.74 275.492V274.736C57.04 274.784 57.376 274.808 57.964 274.808H59.608V273.932H58.408C57.94 273.932 57.664 273.944 57.316 273.992V273.284C57.616 273.332 57.904 273.344 58.42 273.344H59.608V272.492ZM58.06 279.776V280.544C58.06 281.168 58.084 281.528 58.132 281.828H57.304C57.352 281.516 57.364 281.18 57.364 280.544V277.148C57.364 276.596 57.352 276.428 57.328 276.104C57.664 276.14 57.952 276.152 58.444 276.152H61.504C62.08 276.152 62.368 276.14 62.608 276.092C62.572 276.404 62.56 276.764 62.56 277.376V280.796C62.56 281.54 62.332 281.72 61.408 281.72C61.12 281.72 60.796 281.708 60.316 281.672C60.268 281.372 60.22 281.18 60.112 280.928C60.592 281.012 61.084 281.06 61.444 281.06C61.78 281.06 61.864 281 61.864 280.724V279.776H58.06ZM58.06 279.176H61.864V278.264H58.06V279.176ZM58.06 277.664H61.864V276.764H58.06V277.664ZM53.032 272.108V271.352C53.308 271.4 53.488 271.412 53.896 271.412H55.48C55.876 271.412 56.068 271.4 56.344 271.352V272.108C56.056 272.072 55.828 272.06 55.48 272.06H53.896C53.548 272.06 53.284 272.072 53.032 272.108ZM52.6 273.788V273.02C52.876 273.068 53.104 273.08 53.56 273.08H55.624C56.128 273.08 56.32 273.068 56.584 273.02V273.776C56.308 273.752 56.116 273.74 55.708 273.74H53.56C53.128 273.74 52.888 273.752 52.6 273.788ZM53.068 275.456V274.724C53.296 274.76 53.488 274.772 53.884 274.772H55.504C55.888 274.772 56.068 274.76 56.296 274.724V275.456C56.032 275.42 55.864 275.408 55.504 275.408H53.884C53.488 275.408 53.32 275.42 53.068 275.456ZM53.068 277.112V276.38C53.308 276.416 53.488 276.428 53.884 276.428H55.492C55.9 276.428 56.044 276.416 56.296 276.38V277.112C56.032 277.076 55.876 277.064 55.492 277.064H53.872C53.5 277.064 53.32 277.076 53.068 277.112ZM53.848 281.768H53.092C53.128 281.408 53.152 281.024 53.152 280.604V279.008C53.152 278.576 53.14 278.324 53.104 278.024C53.404 278.06 53.632 278.072 54.088 278.072H55.456C55.9 278.072 56.128 278.06 56.332 278.036C56.308 278.276 56.296 278.516 56.296 278.984V280.628C56.296 281.036 56.308 281.324 56.356 281.6H55.612V281.132H53.848V281.768ZM53.848 278.696V280.508H55.612V278.696H53.848ZM69.592 273.908H66.076C65.572 273.908 65.2 273.932 64.864 273.98V273.152C65.2 273.2 65.548 273.224 66.1 273.224H69.592V272.3C69.592 271.724 69.568 271.364 69.52 271.016H70.432C70.384 271.388 70.36 271.724 70.36 272.3V273.224H73.924C74.464 273.224 74.824 273.2 75.16 273.152V273.98C74.836 273.932 74.464 273.908 73.924 273.908H70.384C70.624 274.868 71.056 275.852 71.62 276.74C72.64 275.888 73.312 275.156 73.696 274.472L74.368 274.988C74.284 275.084 74.284 275.084 73.66 275.768C73.264 276.212 72.652 276.776 72.004 277.304C72.412 277.844 72.796 278.288 73.276 278.732C73.948 279.368 74.452 279.716 75.34 280.184C75.124 280.4 74.968 280.592 74.776 280.892C73.9 280.352 73.408 279.956 72.688 279.224C72.064 278.576 71.512 277.844 71.056 277.028C70.72 276.44 70.552 276.08 70.288 275.264C70.3 275.6 70.348 276.896 70.36 277.256V280.796C70.36 281.492 70.096 281.696 69.172 281.696C68.692 281.696 68.152 281.672 67.66 281.624C67.624 281.312 67.588 281.144 67.468 280.832C68.056 280.928 68.596 280.976 69.04 280.976C69.496 280.976 69.592 280.916 69.592 280.64V273.908ZM71.392 271.58L71.908 271.112C72.76 271.616 73.048 271.832 73.768 272.468L73.228 272.984C72.568 272.324 72.22 272.06 71.392 271.58ZM66.004 275.024L66.592 274.568C67.336 275.324 67.684 275.756 68.272 276.632L67.636 277.136C67.096 276.212 66.688 275.696 66.004 275.024ZM69.04 277.364L69.256 278.084C68.116 278.9 67.624 279.2 65.92 280.124C65.668 280.256 65.536 280.34 65.332 280.472L64.936 279.656C65.488 279.5 65.956 279.296 66.736 278.864C67.732 278.312 68.248 277.976 69.04 277.364ZM81.628 272.948V272.276H79.072C78.568 272.276 78.244 272.288 77.92 272.336V271.616C78.268 271.676 78.556 271.688 79.132 271.688H81.628C81.616 271.292 81.604 271.184 81.556 270.872H82.42C82.36 271.136 82.348 271.28 82.336 271.688H84.748C85.372 271.688 85.768 271.676 86.092 271.64C86.068 271.856 86.056 272.096 86.056 272.684V272.948H86.116C86.728 272.948 87.064 272.924 87.352 272.876V273.596C87.028 273.548 86.716 273.536 86.056 273.536V273.908C86.056 274.424 86.068 274.7 86.092 274.904C85.756 274.868 85.36 274.856 84.784 274.856H82.336V275.552H85.228C85.804 275.552 86.104 275.54 86.428 275.492V276.2C86.092 276.152 85.756 276.14 85.228 276.14H82.336V276.872H85.996C86.656 276.872 87.016 276.848 87.328 276.8V277.556C86.944 277.508 86.524 277.484 85.996 277.484H78.064C77.524 277.484 77.104 277.508 76.72 277.556V276.8C77.02 276.848 77.416 276.872 78.064 276.872H81.628V276.14H78.868C78.316 276.14 77.992 276.152 77.656 276.2V275.492C77.98 275.54 78.292 275.552 78.868 275.552H81.628V274.856H79.084C78.532 274.856 78.208 274.868 77.896 274.916V274.22C78.232 274.268 78.508 274.28 79.072 274.28H81.628V273.536H78.064C77.428 273.536 77.092 273.548 76.732 273.596V272.876C77.044 272.924 77.416 272.948 78.064 272.948H81.628ZM82.336 272.948H85.348V272.276H82.336V272.948ZM82.336 273.536V274.28H85.348V273.536H82.336ZM78.292 280.688V279.224C78.292 278.588 78.28 278.372 78.244 278.084C78.58 278.12 78.616 278.12 79.636 278.12H84.46C85.468 278.12 85.552 278.12 85.864 278.084C85.828 278.336 85.816 278.576 85.816 279.236V280.688C85.816 281.3 85.828 281.576 85.888 281.864H85.072V281.408H79.024V281.864H78.22C78.268 281.552 78.292 281.24 78.292 280.688ZM79.024 278.708V279.452H85.072V278.708H79.024ZM79.024 280.028V280.82H85.072V280.028H79.024ZM91.96 271.268L92.908 271.4C92.824 271.628 92.812 271.676 92.716 272.168C92.632 272.576 92.56 272.864 92.392 273.476C93.232 273.404 93.988 273.26 94.54 273.08L94.576 273.908C94.444 273.932 94.444 273.932 94.156 273.98C93.664 274.088 92.92 274.184 92.188 274.232C91.816 275.516 91.384 276.632 90.856 277.736C90.568 278.312 90.46 278.516 90.004 279.308C89.896 279.476 89.824 279.62 89.764 279.716L88.948 279.236C89.332 278.756 89.656 278.228 90.1 277.364C90.652 276.272 91 275.408 91.348 274.268C91.048 274.28 90.64 274.292 90.46 274.292C90.256 274.292 89.848 274.28 89.668 274.28C89.536 274.268 89.44 274.268 89.404 274.268C89.38 274.268 89.32 274.268 89.248 274.268L89.26 273.44C89.668 273.512 90.028 273.536 90.688 273.536C90.928 273.536 91.324 273.524 91.552 273.524C91.744 272.84 91.936 271.82 91.96 271.268ZM99.028 274.58L98.596 275.3C97.588 274.604 96.676 274.124 95.416 273.668L95.86 272.996C97.252 273.548 98.056 273.956 99.028 274.58ZM99.052 279.896L98.608 280.712C98.14 280.136 97.384 279.536 96.508 279.08C96.532 279.272 96.532 279.344 96.532 279.464C96.532 280.7 95.716 281.384 94.252 281.384C92.812 281.384 91.912 280.712 91.912 279.644C91.912 278.996 92.356 278.396 93.028 278.12C93.448 277.94 93.904 277.856 94.444 277.856C94.888 277.856 95.188 277.904 95.656 278.036C95.596 277.256 95.572 276.692 95.572 276.392C95.572 275.96 95.596 275.672 95.692 275.228L96.508 275.312C96.388 275.756 96.352 276.008 96.352 276.428C96.352 276.968 96.412 277.796 96.484 278.252C97.444 278.672 98.188 279.128 98.836 279.704C98.968 279.836 98.968 279.836 99.052 279.896ZM95.716 278.804C95.212 278.624 94.864 278.564 94.384 278.564C93.364 278.564 92.716 278.984 92.716 279.644C92.716 280.256 93.292 280.628 94.24 280.628C95.272 280.628 95.74 280.22 95.74 279.32C95.74 279.176 95.716 278.804 95.716 278.804ZM103.684 271.652L104.632 271.484C104.632 272.06 105.208 274.592 105.532 275.456C106.192 275.18 106.588 275.024 108.436 274.388C108.856 274.232 108.976 274.184 109.204 274.064L109.564 274.976C108.724 275.168 107.008 275.72 105.952 276.14C103.9 276.968 103.012 277.76 103.012 278.756C103.012 279.836 103.936 280.268 106.288 280.268C107.668 280.268 109.012 280.112 109.72 279.86L109.816 280.856C109.636 280.856 109.588 280.856 109.456 280.868L109.336 280.88L108.928 280.928C107.692 281.048 107.116 281.084 106.276 281.084C105.088 281.084 104.188 280.976 103.612 280.76C102.628 280.4 102.124 279.74 102.124 278.792C102.124 278.024 102.484 277.328 103.192 276.752C103.648 276.38 104.02 276.14 104.764 275.768C104.452 274.892 104.212 273.98 103.888 272.42C103.768 271.904 103.756 271.844 103.684 271.652ZM108.088 271.616L108.688 271.304C109.228 271.952 109.552 272.456 109.924 273.164L109.312 273.524C109.012 272.888 108.436 271.988 108.088 271.616ZM109.456 270.968L110.032 270.644C110.584 271.316 110.884 271.76 111.28 272.516L110.68 272.852C110.416 272.288 109.912 271.52 109.456 270.968Z" fill="#20AEE5"/>
<defs>
<clipPath id="clip0_526_11328">
<rect width="192" height="49" fill="white" transform="translate(51 16)"/>
</clipPath>
</defs>
</svg>
